<?xml version="1.0" encoding="utf-8"?>
<!-- Generator: Adobe Illustrator 25.0.0, SVG Export Plug-In . SVG Version: 6.00 Build 0)  -->
<svg version="1.1" id="Layer_1" xmlns="http://www.w3.org/2000/svg" xmlns:xlink="http://www.w3.org/1999/xlink" x="0px" y="0px"
	 viewBox="0 0 1200 1200" style="enable-background:new 0 0 1200 1200;" xml:space="preserve">
<style type="text/css">
	.st0{fill:#CC9933;stroke:#7A4800;stroke-linecap:round;stroke-linejoin:round;stroke-miterlimit:10;}
	.st1{fill:#BB7800;stroke:#7A4800;stroke-miterlimit:10;}
	.st2{fill:#FFCE6B;}
	.st3{fill:#EAAE44;}
	.st4{fill:#F2B966;}
	.st5{fill:#CC9933;}
	.st6{opacity:0.59;fill:#A76200;enable-background:new    ;}
	.st7{fill:#432B00;}
	.st8{fill:#D87321;}
	.st9{fill:#FF3E06;}
	.st10{fill:#965D09;}
	.st11{fill:#E0B673;}
	.st12{fill:#885F36;}
	.st13{fill:#A76200;}
	.st14{fill:#FFFFFF;}
	.st15{fill:#BC8A31;}
	.st16{fill:#AE2600;}
	.st17{fill:none;stroke:#432B00;stroke-linecap:round;stroke-linejoin:round;stroke-miterlimit:10;}
	.st18{fill:#AC5900;stroke:#7A4800;stroke-miterlimit:10;}
	.st19{fill:#FFFFFF;stroke:#EBEBEB;stroke-linecap:round;stroke-linejoin:round;stroke-miterlimit:10;}
	.st20{fill:none;stroke:#EBEBEB;stroke-linecap:round;stroke-linejoin:round;stroke-miterlimit:10;}
	.st21{fill:none;stroke:#000000;stroke-miterlimit:10;}
</style>
<g id="illustration">
	<path class="st0" d="M720.6,549.2L520.2,550c0,64.2-1.3,143.2-1.3,219.9v141.2l0,0c-0.8,13.5,7.7,63.1,50.2,59.5
		c41.2-3.5,42.7-48.3,42.4-60.1V771.2V595.4c0-5.3,4.3-9.6,9.6-9.6h6.8c5.3,0,9.6,4.3,9.6,9.6v175.8v139.9c0,0.1,0,0.2,0,0.3
		c-0.6,13.8,8,62.8,50.2,59.2c40.3-3.4,42.6-46.5,42.5-59.3c0-0.1,0-0.1,0-0.2V771.2V558.8C730.2,553.5,725.9,549.2,720.6,549.2z"/>
	<path class="st0" d="M520.3,559.1c-1.4-74.9-13.5-131.9,8.4-171.3c13.4-24.2,29.7-41.7,47.4-52.8c15.5-9.7,32.3-12.4,48.9-12.2
		c16.5,0.2,33.2,3.3,48.6,13.2c17.4,11.1,33.7,28.4,46.9,52c22.5,39.7,9.6,171.3,9.6,171.3"/>
	<path class="st0" d="M904.6,463.8"/>
	<path class="st0" d="M728.6,407.1c0,0,40.9,36.8,54.2,51.3s75.5,93.7,82.9,100.9c9.5,9.3,33.3,10.7,44.2,1.2
		c2-1.7,12.5-10.4,5.8-26.4s-57.7-84.9-82.5-115.2l0,0l0,0c-1-1.3-2-2.5-3-3.6l0,0c-2.2-2.7-4.4-5.4-6.6-8c-1.3-1.6-2-2.4-2-2.4l0,0
		c-70.3-80.3-157.2-80.6-170.1-79.5"/>
	<path class="st0" d="M874.5,547.9c0,0-2.1,8-4,16.9c-1.8,8.8-21.3,7.2-19.4-5.8c1.8-13.2,6.8-20.6,6.8-20.6"/>
	<path class="st0" d="M597.5,325c-15-1.3-97.4-4.7-169.9,78.1l0,0c0,0-0.7,0.8-2,2.4c-2.2,2.6-4.4,5.3-6.6,8l0,0c-1,1.1-2,2.3-3,3.6
		l0,0l0,0c-24.8,30.3-75.8,99.2-82.5,115.2s3.8,24.7,5.8,26.4c10.9,9.5,34.7,8.1,44.2-1.2c7.4-7.2,69.6-86.4,82.9-100.9
		s57.3-54.4,57.3-54.4"/>
	<path class="st0" d="M390.3,538.5c0,0,5,7.4,6.8,20.6c1.9,13-17.5,14.6-19.4,5.8c-1.8-8.9-4-16.9-4-16.9"/>
	<path class="st0" d="M592.7,328.3l8.3-39.6h49.5c0,0,4,21.2,7.5,40.2"/>
	<path class="st1" d="M582.6,176.2c1.7-0.5,3.2-1.1,4.7-1.9c7.7-4.2,12.3-13,11.4-21.8c0-0.4-0.1-0.8-0.2-1.3
		c-0.7-4.4-3-8.6-6.2-11.7c-1.9-1.8-4.4-3.1-6.6-4.5c-5.5-3.4-20.1-6.3-23.2-6.7c-9.7-1.3-16.7-3.4-26-10.4
		c-1.4,6.9,5.9,23.7,9.2,29.9c3.6,6.8,10,16.1,14.8,21.4c2.8,3,6.3,5.3,10.1,6.8C574.3,177.4,578.6,177.4,582.6,176.2z"/>
	<path class="st2" d="M581.6,154.7c-1.8,0.3-2.5-0.2-7.3-1.3c1.5,3,3.2,5.1,3.8,6.5c-0.8-0.2-1.7-0.4-2.5-0.6c1.1,1,1.7,2.4,1.7,3.8
		c-0.4-0.2-0.8-0.4-1.2-0.7c0.8,1.6,1.7,3.8,1.3,5.6c0,1.5-0.5,2.9-0.5,2.9c-3.5,0.5-6.7,0.1-10.9-3.5c-6-5.3-7.7-7.2-11.9-14
		c-2.1-3.4-8-14.4-9.3-18.2c-0.6-1.6-4.1-10.3-3.6-10.2c0.2,0,1,0.9,1.2,1.1c1.5,1.2,1.8,1.4,2.6,2.1c0.3,0.3,0.6,0.5,1,0.8
		c1.3,1,2.6,2,4,2.9l0.1,0.1c6.9,4.4,15.1,7.7,21.8,12.3C576.5,147.3,581.7,153.3,581.6,154.7z"/>
	<path class="st1" d="M656.8,176.2c-1.7-0.5-3.2-1.1-4.7-1.9c-7.7-4.2-12.3-13-11.4-21.8c0-0.4,0.1-0.8,0.2-1.3
		c0.7-4.4,3-8.6,6.2-11.7c1.9-1.8,4.4-3.1,6.6-4.5c5.5-3.4,20.1-6.3,23.2-6.7c9.7-1.3,16.7-3.4,26-10.4c1.4,6.9-5.9,23.7-9.2,29.9
		c-3.6,6.8-10,16.1-14.8,21.4c-2.8,3-6.3,5.3-10.1,6.8C665.1,177.4,660.7,177.4,656.8,176.2z"/>
	<path class="st2" d="M657.7,154.7c1.8,0.3,2.5-0.2,7.3-1.3c-1.5,3-3.2,5.1-3.8,6.5c0.8-0.2,1.7-0.4,2.5-0.6c-1.1,1-1.7,2.4-1.7,3.8
		c0.4-0.2,0.8-0.4,1.2-0.7c-0.8,1.6-1.7,3.8-1.3,5.6c0,1.5,0.5,2.9,0.5,2.9c3.5,0.5,6.7,0.1,10.9-3.5c6-5.3,7.7-7.2,11.9-14
		c2.1-3.4,8-14.4,9.3-18.2c0.6-1.6,4.1-10.3,3.6-10.2c-0.2,0-1,0.9-1.2,1.1c-1.5,1.2-1.8,1.4-2.6,2.1c-0.3,0.3-0.6,0.5-1,0.8
		c-1.3,1-2.6,2-4,2.9l-0.1,0.1c-6.9,4.4-15.1,7.7-21.8,12.3C662.9,147.3,657.6,153.3,657.7,154.7z"/>
	<path class="st0" d="M681.2,270.8c-5,14.1-27,19.2-27,19.2c-21.8,4.2-43.2,4.3-64.3,0c0,0-18.1-4.2-25.2-15.4
		c-0.7-1.1-1.4-2.4-1.9-3.8c-3-8.5-3.1-19.8-2.5-31.6l0,0c0.4-7.8,1-15.8,1.4-23.2c0.8-18.6,8.2-46.4,9.4-47.3
		c0,0,8.7-22.6,50.8-22.6c42.2,0,50.8,22.6,50.8,22.6c1.1,0.8,8.6,28.8,9.4,47.3c0.1,1.6,0.1,3.1,0.2,4.7
		C683.5,238.2,685.6,257.9,681.2,270.8z"/>
	<path class="st3" d="M607.2,184.3c-1.1,3.9-0.6,8,0.5,11.9s2.6,7.6,3.7,11.5c0.9,3.5,1.4,7.2,1.5,10.8c0.2,4.1-0.1,8.4-1.8,12.2
		c-1.5,3.6-4.2,6.6-5.9,10.1c-0.3,0.7-0.6,1.5-0.5,2.2c0.4,1.8,2.7,2.1,4.5,2c5.3-0.2,10.6-0.1,15.9-0.1c2.8,0,5.6,0,8.4-0.2
		c2-0.1,5,0.5,6.1-1.6c0.6-1.1,0.5-2.5,0.2-3.8c-0.9-3.4-3.4-6.1-5-9.2c-3.1-6.1-2.7-13.2-2.2-20c0.3-4.7,0.7-9.4,1-14.1
		c0.3-4.8,0.5-10-2.5-13.7c-5.9-7.3-23-5.1-24.2,5.3"/>
	<path class="st4" d="M651.3,257c0.7-2.2,1-4.5,0.7-6.8c-0.8-6.2-5.1-11.2-9.6-15.5c-3.2-3.1-6.6-5.9-10.3-8.3
		c-0.8-0.5-17.8-0.5-18.6,0c-3.8,2.4-7.1,5.2-10.3,8.3c-4.5,4.3-8.9,9.3-9.6,15.5c-0.2,1.2-0.2,2.5,0,3.7
		c-0.7,2.2,8.1,23.8,29.2,23.8C644,277.7,651.7,258.2,651.3,257z"/>
	<path class="st5" d="M618.8,149c0.3,0,0.6,0,0.8,0c0.3,0,0.6,0,0.8,0"/>
	<path class="st6" d="M647.8,234.8c1.7,1.3,3.7,2.5,5.8,2.8c4,0.6,7.8-1.8,11.2-4.1c-1.6,3.5-4.5,6.7-8.3,7.2
		c-3,0.4-6.1-0.9-8.3-3.1c-1.5-1.4-3-3.5-3.6-5.5C645.7,232.6,646.7,234,647.8,234.8z"/>
	<path class="st7" d="M622.7,228.9c-0.6,0-1.3-0.1-1.9-0.1c-1.2-0.1-2.5-0.2-3.7,0c-3.4,0.6-6,3.3-8.3,5.9c-0.4,0.4-0.8,0.9-0.8,1.5
		s0.3,1.1,0.6,1.6c3.2,4.8,8.5,8,14.2,8.8c5.7-0.9,11-4.1,14.2-8.8c0.3-0.5,0.6-1,0.6-1.6s-0.5-1-0.8-1.5c-2.3-2.6-4.9-5.4-8.3-5.9
		c-1.2-0.2-2.5-0.1-3.7,0C624,228.8,623.3,228.8,622.7,228.9z"/>
	<path class="st8" d="M643.8,142.6c-3.7,0.5-7.4,1.4-10.9,2.8c2.1,0,4.2,0.2,6.1,0.9c1.9,0.7,3.7,2,4.7,3.8
		c-4.8-0.3-9.6,0.4-14.2,1.8c3.6,1,6.9,2.7,9.8,5c-4.2-0.5-8.4-0.9-12.6-0.3c1.4,1.1,2.6,2.4,3.6,3.8c-2.4,0.2-4.8-0.3-7-1.3
		c1.4,3.9,4.2,7.5,4.2,11.6c0,0.2,0,0.5-0.2,0.7c-0.2,0.1-0.5,0-0.7-0.1c-1.3-0.8-2.2-2-3.4-2.9c-2-1.7-4.6-2.9-7.2-3.2
		c0.3,2.6,0.6,5.3,0.9,7.9c-2.7-4.5-6.4-8.6-10.6-11.8c2.5,0.7,4.9,1.7,7.1,3c-0.9-1.5-1.5-3.1-1.9-4.8c1.7,0.1,3.3,0.7,4.9,1.3
		c1.5,0.6,3.1,1.1,4.6,1.7c-2-2.8-5.9-3.6-8.3-6.2c2.6,0.1,5.3,0.1,7.9,0c-1.8-0.3-3.5-1-4.9-2.2c3.3-0.8,6.7-0.8,10-0.9
		c-2.5-0.3-4.9-0.9-7.2-1.7c0.8-1.1,2.2-1.6,3.5-2c2.2-0.6,4.4-1.2,6.6-1.7c-4.3-0.3-8.6-0.3-12.9,0.2c0.4-0.8,1.3-1.2,2.2-1.6
		c3.2-1.1,6.4-1.9,9.8-2.4c-3.5,0-7,0.5-10.5,0.3c1,0.1,2.2-0.9,3.2-1.2c1.5-0.5,3-0.8,4.5-1.1c3.1-0.6,6.4-0.8,9.6-0.9
		c1.6,0,3.1,0.2,4.7,0.4C640.5,141.9,642.5,142.8,643.8,142.6z"/>
	<path class="st8" d="M576,155.5c1.5-1,3.3-1.5,5-1.5c-3.8,3.2-6.8,7.3-8.8,11.9c2.9-2.3,6-4.6,9.6-5.7c-0.8,1.4-1.2,3-1.2,4.6
		c3.6-2.9,7.8-5,12.3-6.2c-1.8-0.1-3.6-0.1-5.4-0.2c-0.5,0-1-0.1-1.3-0.4c0.2-0.4,0.4-0.8,0.6-1.2c-1.9,0.2-3.8,0.4-5.7,0.6
		c1.9-1.7,4-3.2,6.2-4.5c-1.5-0.3-3-0.7-4.5-1c0.6,0.1,2.9-1.3,3.6-1.5c1.3-0.4,2.7-0.6,4-0.8C584.8,148.9,579.3,150.8,576,155.5z"
		/>
	<path d="M621.4,244.9c-0.2-1.4-0.9-2.6-1.8-3.7c-0.9-1.1-2-1.9-3.1-2.8c-0.5-0.4-1.1-0.8-1.8-0.9c-0.4,0-0.8,0.1-1,0.4
		c-0.2,0.4,0,0.9,0.3,1.3c0.3,0.4,0.7,0.8,1,1.2c1.7,1.8,3.5,3.7,5.8,4.8c0.3-0.2,0.4-0.7,0.3-1"/>
	<path d="M623.9,244.9c0.2-1.4,0.9-2.6,1.8-3.7s2-1.9,3.1-2.8c0.5-0.4,1.1-0.8,1.8-0.9c0.4,0,0.8,0.1,1,0.4c0.2,0.4,0,0.9-0.3,1.3
		c-0.3,0.4-0.7,0.8-1,1.2c-1.7,1.8-3.5,3.7-5.8,4.8c-0.3-0.2-0.4-0.7-0.3-1"/>
	<path class="st9" d="M651.2,238.1c0.1,0,0.3-0.1,0.4-0.1c-0.2,0-0.4,0-0.5-0.1"/>
	<path class="st10" d="M615.6,231.2c-1,0.5-1.9,1.3-2.2,2.4c-0.1,0.2-0.1,0.4-0.1,0.6c0,0.2,0.2,0.4,0.4,0.5c0.1,0,0.3,0,0.4,0
		c1.4-0.2,2.8-0.6,4.1-1.2c0.3-0.2,0.7-0.3,0.9-0.6c0.6-0.8-0.1-1.7-0.8-2.1C617.4,230.5,616.3,230.8,615.6,231.2z"/>
	<g>
		<path class="st11" d="M596.9,235.6c5.6-4.6,9.8-12.4,8.3-19.7c-0.9-4.5-3.9-8.6-6.9-11.9c-2.9-3.3-6.8-4.9-11-3.4
			c-7.4,2.5-12.1,10.1-13.5,17.8c-0.7,3.8-0.7,7.8,0.5,11.5s3.8,7,7.4,8.6C586.7,240.6,592.7,239,596.9,235.6z"/>
		<path class="st12" d="M602.6,218.4c0.4,0.6-1.6-14.6-9.9-13.9c-8.3,0.7-8.3,12.6-8.3,12.6s4-6.3,9.1-4.9
			C598.5,213.4,601.6,216.6,602.6,218.4z"/>
		<path class="st13" d="M584.3,217c0,0-0.8,5.3,5.7,6c5.3,0.6,12.6-4.7,12.6-4.7S589.4,222.8,584.3,217z"/>
		<path class="st14" d="M602.6,218.4c0,0-4.4-5.8-8.5-6.2c-5.7-0.6-9.7,4.9-9.7,4.9s4.1,4.4,8.5,4.6S602.6,218.4,602.6,218.4z"/>
		<path d="M602.6,218.4c-0.2-0.3-4.7-7-9.5-7.2s-7.2,3.5-8.7,5.9c0,0,2-3,7.2-3.5C595.8,213,602.6,218.4,602.6,218.4z"/>
		<circle cx="592.7" cy="216.8" r="5"/>
		<path class="st6" d="M604,220.1c0.3-0.5-8.6,11-15.8,7.9C588.2,227.9,597,234.5,604,220.1z"/>
		<path class="st6" d="M597.6,231.8c-1.7,1.3-3.7,2.5-5.8,2.8c-4,0.6-7.8-1.8-11.2-4.1c1.6,3.5,4.5,6.7,8.3,7.2
			c3,0.4,6.1-0.9,8.3-3.1c1.5-1.4,3-3.5,3.6-5.5C599.6,229.6,598.6,231,597.6,231.8z"/>
		<path class="st9" d="M594.2,238.1c-0.1,0-0.3-0.1-0.4-0.1c0.2,0,0.4,0,0.5-0.1"/>
		<circle id="rightEye0_1_" cx="594.7" cy="215" r="0.8"/>
		<circle id="rightEye1_1_" cx="599.9" cy="211.3" r="0.8"/>
		<circle id="rightEye5_1_" cx="599.9" cy="217.3" r="0.8"/>
		<circle id="rightEye2_1_" cx="606.2" cy="211.3" r="0.8"/>
		<circle id="rightEye3_1_" cx="611.4" cy="215.5" r="0.8"/>
		<circle id="rightEye4_1_" cx="606.2" cy="216.5" r="0.8"/>
	</g>
	<g>
		<path d="M602.6,195.2c-2.2-1-3.8-2.1-10.1-1.2c-6.4,0.9-13.1,7.7-13.1,7.7s7.6-4.1,15.3-4c2.7,0,7.2,1.5,9.1,2
			c2,0.6,3.1-2.3,1.2-3.2L602.6,195.2z"/>
		<path class="st15" d="M603.2,190.3c-1.2-4.6-7.9-6.6-12.1-6.6c-2.3,0-3.9,0.4-5.7,1.9c-1.6,1.4-2.8,3.2-3.2,5.3
			c-0.2,1-0.1,2.2,0.8,2.6c0.7,0.3,1.4,0,2.1-0.2c5.1-1.9,10.7-2.6,16.1-1.8c0.4,0.1,0.8,0.1,1.2,0s0.8-0.4,0.8-0.8
			C603.2,190.6,603.2,190.4,603.2,190.3z"/>
		<circle id="rightBrow1_1_" cx="592.5" cy="203.2" r="0.8"/>
		<circle id="rightBrow4_1_" cx="615.8" cy="206.2" r="0.8"/>
		<circle id="rightBrow3_1_" cx="606" cy="202.2" r="0.8"/>
		<circle id="rightBrow0_1_" cx="588.5" cy="206.9" r="0.8"/>
		<circle id="rightBrow2_1_" cx="598.7" cy="202.2" r="0.8"/>
	</g>
	<path class="st16" d="M622.7,251.9c-1.2,1.4-3,1.9-4.7,2.3c-2,0.4-4.1,0.7-6.1,0.4c-0.3,0-0.6-0.1-0.9,0c-0.3,0.1-0.6,0.2-0.6,0.5
		c0,0.2,0,0.4,0.1,0.6c0.7,1.5,2,2.7,3.3,3.7c1.1,0.8,2.4,1.6,3.7,2s2.6,0.6,3.9,0.7c0.4,0,0.8,0.1,1.3,0.1c0.4,0,0.8-0.1,1.3-0.1
		c1.3-0.1,2.7-0.3,3.9-0.7c1.3-0.5,2.6-1.2,3.7-2c1.3-1,2.6-2.2,3.3-3.7c0.1-0.2,0.2-0.4,0.1-0.6c-0.1-0.3-0.3-0.5-0.6-0.5
		c-0.3-0.1-0.6,0-0.9,0c-2,0.3-4.1,0-6.1-0.4C625.7,253.8,623.9,253.2,622.7,251.9"/>
	<path class="st17" d="M606.6,241.2c-1.8-0.1-4.7,0.9-5.2,2.9"/>
	<path class="st17" d="M639.6,241.2c1.8-0.1,4.7,0.9,5.2,2.9"/>
	<path class="st18" d="M603.2,140.1c0,0-23.1-7.2-35.8,16.2s-6.6,48.5-4.8,51.9c0,0,1.8-25.2,9.5-36.3c0,0-9.3,21.5-1.6,34.2
		c0,0,1.9-34.2,22.8-44c0,0,8.2,35.5,24.6,51.2c0,0-4.2-2.1-4.8-13.5c0,0,34.5,33.7,48,42.1c0,0-10.1-20.9-11.1-22.5
		c-1.1-1.6,27,26.8,34.2,45.1c0,0,13.5-23.6-3.7-54.6l15.4,17.8c0,0,9.3-25.4-13-57l12.2,8c0,0-17.8-38.1-39.8-39.5H670
		C670,139.1,640.6,120.8,603.2,140.1z"/>
	<g>
		<path class="st7" d="M621.9,264.4c-4,0-11-1.2-15.3-11.8l2.3,1.1c0.2,0.1,1.5,0.3,1.6,0.5c1.1,2.9,5.5,6.8,11.3,6.8
			c5.8,0,10.8-3.8,11.9-6.8c0.1-0.2,0.8-0.4,1-0.5l2.6-0.8C633.1,263.4,625.9,264.4,621.9,264.4z"/>
	</g>
	<path class="st19" d="M622.7,252.7c-1.1,1.3-3.7,2.4-5.8,2.7l0.6,7.2c0.1,0.7,0.7,1.3,1.4,1.3c0,0,2.6,0,3,0c0.7,0,0.8-1.1,0.8-1.1
		s0.1,1.1,0.8,1.1c0.4,0,3,0,3,0c0.7,0,1.3-0.6,1.4-1.3l0.6-7.2C626.4,255.2,623.8,254,622.7,252.7z"/>
	<line class="st20" x1="622.7" y1="262.8" x2="622.7" y2="253"/>
	<path class="st17" d="M603.4,242.1c-0.3,2.8,0.5,6.1,2.3,8.6c0.9,1.3,1.9,2.2,3.5,2.8c0.3,0.1,0.7,0.3,1.1,0.4
		c1.2,0.4,2.6,0.7,3.9,0.7c2.8,0.1,6.5-0.5,8.6-2.2c2.1,1.7,5.8,2.3,8.6,2.2c1.3-0.1,2.7-0.3,3.9-0.7c0.3-0.1,0.8-0.3,1.1-0.4
		c1.6-0.7,2.6-1.5,3.5-2.8c1.7-2.5,2.6-5.7,2.3-8.6"/>
</g>
<g id="skeleton_1_">
	<polygon class="st21" points="518.8,349.5 569.1,565.3 685.5,564.5 731.7,349.5 	"/>
	<polyline class="st21" points="517.8,349.5 445.4,431.1 352,547.5 	"/>
	<polyline class="st21" points="733.2,349.1 806.2,430.7 899.6,547 	"/>
	<polyline class="st21" points="569.1,565.3 575.5,725.5 575.5,933.5 	"/>
	<polyline class="st21" points="685.5,564.5 685.5,725.5 685.5,933.5 	"/>
	<polyline class="st21" points="624.5,170 604.7,172.5 592.2,182 583.6,196.1 581.1,205.4 580.3,217.1 580.3,226.6 581.1,248.3 
		587.9,268.3 599.5,280.8 609.5,287.5 624.5,290.7 639.3,287.9 649.3,281.2 660.9,268.6 667.7,248.6 668.5,227 668.5,217.4 
		667.7,205.7 665.2,196.5 657,182 644.4,172.5 624.5,170 	"/>
	<polyline class="st21" points="588.5,206.9 592.5,203.2 598.7,202.2 606,202.2 615.8,206.2 	"/>
	<polygon class="st21" points="594.7,215.1 599.9,211.4 606.2,211.4 611.4,215.6 606.2,216.6 599.9,217.4 	"/>
	<polyline class="st21" points="613,233.2 618.2,233.2 623.7,234 623.7,228.7 623.7,221.6 623.7,216.1 623.7,210.3 	"/>
	<polyline class="st21" points="660,206.5 656,203.6 649.7,202.1 642.4,202.5 632.4,205.7 	"/>
	<polygon class="st21" points="654.1,215.1 648.8,211.4 642.5,211.4 637.4,215.6 642.5,216.6 648.8,217.4 	"/>
	<polyline class="st21" points="634.1,233.2 629.1,233.2 623.7,234 	"/>
	<polygon class="st21" points="607,255.3 613.9,251.9 620.4,250.8 624.5,251.7 628.7,250.8 635.1,251.9 642,255.3 635.6,261.6 
		628.5,264.4 624.5,264.9 620.4,264.4 613.4,261.6 	"/>
	<polyline class="st21" points="607,255.3 610.6,255.6 620.6,254.8 624.5,255.3 628.5,254.8 638.4,255.6 642,255.3 	"/>
	<polyline class="st21" points="607,255.3 610.6,255.6 620.6,257.7 624.5,258.5 628.5,257.7 638.4,255.6 642,255.3 	"/>
	<circle id="rightShoulder" cx="518.9" cy="349.2" r="8.2"/>
	<circle id="rightElbow" cx="445.4" cy="439.3" r="8.2"/>
	<circle id="rightWrist" cx="352" cy="555.7" r="8.2"/>
	<circle id="rightHip" cx="569.2" cy="565" r="8.2"/>
	<circle id="rightKnee" cx="575.6" cy="725.2" r="8.2"/>
	<circle id="rightAnkle" cx="575.6" cy="933.2" r="8.2"/>
	<circle id="leftElbow" cx="806.2" cy="438.9" r="8.2"/>
	<circle id="leftWrist" cx="899.6" cy="555.2" r="8.2"/>
	<circle id="leftHip" cx="685.6" cy="564.2" r="8.2"/>
	<circle id="leftKnee" cx="685.6" cy="725.2" r="8.2"/>
	<circle id="leftAnkle" cx="685.6" cy="933.2" r="8.2"/>
	<circle id="rightEye0" cx="594.7" cy="215.1" r="0.8"/>
	<circle id="rightBrow1" cx="592.5" cy="203.2" r="0.8"/>
	<circle id="rightBrow4" cx="615.8" cy="206.2" r="0.8"/>
	<circle id="nose1" cx="623.7" cy="216.1" r="0.8"/>
	<circle id="rightBrow3" cx="606" cy="202.2" r="0.8"/>
	<circle id="rightEye1" cx="599.9" cy="211.4" r="0.8"/>
	<circle id="rightBrow0" cx="588.5" cy="206.9" r="0.8"/>
	<circle id="rightBrow2" cx="598.7" cy="202.2" r="0.8"/>
	<circle id="rightEye5" cx="599.9" cy="217.4" r="0.8"/>
	<circle id="rightEye2" cx="606.2" cy="211.4" r="0.8"/>
	<circle id="rightEye3" cx="611.4" cy="215.6" r="0.8"/>
	<circle id="nose0" cx="623.7" cy="210.3" r="0.8"/>
	<circle id="nose3" cx="623.7" cy="228.7" r="0.8"/>
	<circle id="rightNose0" cx="613" cy="233.2" r="0.8"/>
	<circle id="rightMouthCorner" cx="607" cy="255.3" r="0.8"/>
	<circle id="rightNose1" cx="618.2" cy="233.2" r="0.8"/>
	<circle id="rightUpperLipTop0" cx="613.9" cy="251.9" r="0.8"/>
	<circle id="nose2" cx="623.7" cy="221.6" r="0.8"/>
	<circle id="nose4" cx="623.7" cy="234" r="0.8"/>
	<circle id="upperLipTopMid" cx="624.5" cy="251.7" r="0.8"/>
	<circle id="rightUpperLipTop1" cx="620.4" cy="250.8" r="0.8"/>
	<path id="rightMiddleLip" d="M610.6,254.8c0.4,0,0.8,0.4,0.8,0.8c0,0.4-0.4,0.8-0.8,0.8s-0.8-0.4-0.8-0.8S610.2,254.8,610.6,254.8z
		"/>
	<circle id="lowerLipBottomMid" cx="624.5" cy="264.9" r="0.8"/>
	<circle id="upperLipBottomMid" cx="624.5" cy="255.3" r="0.8"/>
	<circle id="lowerLipTopMid" cx="624.5" cy="258.4" r="0.8"/>
	<circle id="rightUpperLipBottom1" cx="620.6" cy="254.8" r="0.8"/>
	<circle id="rightLowerLipTop0" cx="620.6" cy="257.7" r="0.8"/>
	<circle id="rightLowerLipBottom1" cx="620.4" cy="264.4" r="0.8"/>
	<circle id="rightLowerLipBottom0" cx="613.4" cy="261.6" r="0.8"/>
	<circle id="rightEye4" cx="606.2" cy="216.6" r="0.8"/>
	<circle id="jawMid" cx="624.5" cy="290.7" r="0.8"/>
	<circle id="rightJaw7" cx="609.5" cy="287.5" r="0.8"/>
	<circle id="rightJaw6" cx="599.5" cy="280.8" r="0.8"/>
	<circle id="rightJaw5" cx="587.9" cy="268.3" r="0.8"/>
	<circle id="rightJaw4" cx="581.1" cy="248.3" r="0.8"/>
	<circle id="rightJaw3" cx="580.3" cy="226.6" r="0.8"/>
	<circle id="rightJaw2" cx="580.3" cy="217.1" r="0.8"/>
	<circle id="rightJaw1" cx="581.1" cy="205.4" r="0.8"/>
	<circle id="rightJaw0" cx="583.6" cy="196.1" r="0.8"/>
	<circle id="topMid" cx="624.7" cy="170" r="0.8"/>
	<circle id="leftTop0" cx="644.4" cy="172.5" r="0.8"/>
	<circle id="leftTop1" cx="657" cy="182" r="0.8"/>
	<circle id="leftEye0" cx="654.3" cy="215.1" r="0.8"/>
	<circle id="leftBrow1" cx="656.2" cy="203.6" r="0.8"/>
	<circle id="leftBrow4" cx="632.6" cy="205.7" r="0.8"/>
	<circle id="leftBrow3" cx="642.6" cy="202.5" r="0.8"/>
	<circle id="leftEye1" cx="649.1" cy="211.4" r="0.8"/>
	<circle id="leftBrow0" cx="660.2" cy="206.5" r="0.8"/>
	<circle id="leftBrow2" cx="649.9" cy="202.1" r="0.8"/>
	<circle id="leftEye5" cx="649.1" cy="217.4" r="0.8"/>
	<circle id="leftEye2" cx="642.8" cy="211.4" r="0.8"/>
	<circle id="leftEye3" cx="637.6" cy="215.6" r="0.8"/>
	<circle id="leftNose0" cx="634.1" cy="233.2" r="0.8"/>
	<circle id="leftMouthCorner" cx="642" cy="255.3" r="0.8"/>
	<circle id="leftNose1" cx="629.3" cy="233.2" r="0.8"/>
	<circle id="leftUpperLipTop0" cx="635.1" cy="251.9" r="0.8"/>
	<circle id="leftUpperLipTop1" cx="628.7" cy="250.8" r="0.8"/>
	<path id="leftMiddleLip" d="M638.4,254.8c0.4,0,0.8,0.4,0.8,0.8c0,0.4-0.4,0.8-0.8,0.8s-0.8-0.4-0.8-0.8S638,254.8,638.4,254.8z"/>
	<circle id="leftUpperLipBottom1" cx="628.5" cy="254.8" r="0.8"/>
	<circle id="leftLowerLipTop0" cx="628.5" cy="257.7" r="0.8"/>
	<circle id="leftLowerLipBottom1" cx="628.7" cy="264.4" r="0.8"/>
	<circle id="leftLowerLipBottom0" cx="635.6" cy="261.6" r="0.8"/>
	<circle id="leftEye4" cx="642.8" cy="216.6" r="0.8"/>
	<circle id="leftJaw7" cx="639.3" cy="287.9" r="0.8"/>
	<circle id="leftJaw6" cx="649.3" cy="281.2" r="0.8"/>
	<circle id="leftJaw5" cx="660.9" cy="268.6" r="0.8"/>
	<circle id="leftJaw4" cx="667.7" cy="248.6" r="0.8"/>
	<circle id="leftJaw3" cx="668.5" cy="227" r="0.8"/>
	<circle id="leftJaw2" cx="668.5" cy="217.4" r="0.8"/>
	<circle id="leftJaw1" cx="667.7" cy="205.7" r="0.8"/>
	<circle id="leftJaw0" cx="665.2" cy="196.5" r="0.8"/>
	<circle id="rightTop0" cx="604.8" cy="172.5" r="0.8"/>
	<circle id="rightTop1" cx="592.2" cy="182" r="0.8"/>
	<circle id="leftShoulder" cx="731.8" cy="349.2" r="8.2"/>
</g>
</svg>
