<?xml version="1.0" encoding="utf-8"?>
<!-- Generator: Adobe Illustrator 25.0.0, SVG Export Plug-In . SVG Version: 6.00 Build 0)  -->
<svg version="1.1" id="Layer_1" xmlns="http://www.w3.org/2000/svg" xmlns:xlink="http://www.w3.org/1999/xlink" x="0px" y="0px"
	 viewBox="0 0 1200 1200" style="enable-background:new 0 0 1200 1200;" xml:space="preserve">
<style type="text/css">
	.st0{fill:#F2D99C;}
	.st1{fill:#7C4500;}
	.st2{fill:#DDB77F;}
	.st3{fill:#966000;}
	.st4{fill:#916633;}
	.st5{fill:#9B733A;}
	.st6{fill:#895D2E;}
	.st7{fill:#A57F42;}
	.st8{fill:#B28E4F;}
	.st9{fill:#BF9D5A;}
	.st10{fill:#CCAB62;}
	.st11{fill:#DDBF7A;}
	.st12{fill:#DDBE78;}
	.st13{fill:#CEAE6E;}
	.st14{fill:#E0C280;}
	.st15{fill:#542B00;}
	.st16{fill:#DDA87A;}
	.st17{fill:#FFFFFF;}
	.st18{fill:none;stroke:#000000;stroke-miterlimit:10;}
</style>
<g id="illustration">
	<path class="st0" d="M591,341.2l12.2-52.5h42.5c0,0,8.7,38.6,11.7,53.4"/>
	<path class="st0" d="M783.8,448.8c31.4,46.5,57.8,79.3,83.9,108.3c26.1,29,50,3.4,32.2-23.7c-17.8-27-58.5-80.1-84.4-112
		L783.8,448.8z"/>
	<path class="st0" d="M432.3,421.5c-25.9,31.9-66.6,85-84.4,112s6.1,52.7,32.2,23.7s52.5-61.8,83.9-108.3L432.3,421.5z"/>
	<path class="st0" d="M647.9,923.4v46.8c0,48.8,55.4,50.3,55.4,4.5v-51.8L647.9,923.4z"/>
	<path class="st0" d="M544.6,923.4v46.8c0,48.8,55.4,50.3,55.4,4.5v-51.8L544.6,923.4z"/>
	<path class="st0" d="M518.9,549.2c0,66.4,0,148.9,0,228.2c0,55.8,0,110,0,155.8c56.6,0,51.8,0,92.7,0c0-46.8,0-101.4,0-154.5
		c0-75.9,0-148.8,0-191.6c5.9,0,20.5,0,25.9,0c0,41.3,0,115.8,0,191.6c0,54.9,0,110.4,0,154.5c45,0,35.6,0,92.7,0
		c0-43,0-97.5,0-154.5c0-79.5,0-164,0-229.5L518.9,549.2L518.9,549.2z"/>
	<line class="st0" x1="741.4" y1="565" x2="508.6" y2="565"/>
	<path class="st0" d="M362.3,547.9l18.9,4.7c0,0,1.7,8.6,4,17.9c2.3,9.3-15.8,13.1-19.8-0.3C361.1,556.7,362.3,547.9,362.3,547.9z"
		/>
	<path class="st0" d="M885,570.2c-4.1,13.4-22.1,9.6-19.8,0.3s4-17.9,4-17.9l18.9-4.7C888,547.9,889.2,556.7,885,570.2z"/>
	<path class="st0" d="M492.9,563.3c-1.4-76.5,12.4-134.6,34.3-174.9c13.4-24.7,29.8-42.5,47.6-53.9c15.6-9.9,32.4-14.7,49.1-14.5
		c16.6,0.2,33.3,5.4,48.8,15.5c17.5,11.4,33.8,29,47.1,53c22.6,40.5,36.9,99,35.2,174.9H492.9V563.3z"/>
	<path class="st0" d="M715.5,329.8c-44.3-9.7-68.3-5.8-68.3-5.8l0,0c6.6,2.2,13.1,5,19.3,8.7c16.5,9.5,31.8,24.1,44.1,43.8
		c3,4.7,46.5,49.1,71.1,75.8l42.7-28.1C794.1,386.3,759.8,339.5,715.5,329.8z"/>
	<path class="st0" d="M532.3,330.7c44.3-9.7,68.3-5.8,68.3-5.8l0,0c-6.6,2.2-13.1,5-19.3,8.7c-16.5,9.5-31.8,24.1-44.1,43.8
		c-3,4.7-46.5,49.1-71.1,75.8L423.5,425C453.7,387.2,488,340.4,532.3,330.7z"/>
	<ellipse class="st0" cx="625.4" cy="372.5" rx="22" ry="16.3"/>
	<path class="st0" d="M903.6,463.8"/>
	<path class="st0" d="M353.2,463.8"/>
	<path class="st0" d="M353.2,463.8"/>
	<path class="st0" d="M350.2,463.8"/>
	<path class="st0" d="M623.9,295.4c-13.1,0-40.1-6.2-53.8-12.9c-4-2-7.2-4.5-9.5-7.4c0,0,0,0,0,0c-3.3-4.1-5-9-5.6-14.6
		c-0.4-3.9-0.2-8.1,0.4-12.5c0.5-3.2,1.1-6.8,2-10.8c1.3-5.7,3.1-12,5.4-18.8c0.8-2.4,1.7-4.9,2.7-7.5c1.6-4.2,3.4-8.6,5.4-13.1
		c2.2-5,4.6-10,7.3-15.1c12.2-23,40.5-24.7,45.9-24.8c5.4,0.1,33.7,1.8,45.9,24.8c2.7,5.1,5.1,10.1,7.3,15.1c2,4.5,3.8,8.9,5.4,13.1
		c1,2.5,1.9,5,2.7,7.5c2.3,6.8,4.1,13.1,5.4,18.8c0.9,4,1.6,7.6,2,10.8c0.6,4.4,0.8,8.6,0.4,12.5c-0.6,5.6-2.3,10.5-5.6,14.6
		c0,0,0,0,0,0c-2.3,2.9-5.5,5.4-9.5,7.4c-13.7,6.7-40.7,12.9-53.8,12.9H623.9z"/>
	<path d="M620.6,222.8c-0.4-0.4-0.9-0.8-1.5-1c-0.7-0.2-1.4-0.2-1.8,0.5c-0.8,1.1-0.9,4.9,1.4,3.5
		C619.4,225.4,621.1,223.8,620.6,222.8z"/>
	<path d="M627.8,222.8c0.4-0.4,0.9-0.8,1.5-1c0.7-0.2,1.4-0.2,1.8,0.5c0.8,1.1,0.9,4.9-1.4,3.5C629,225.4,627.3,223.8,627.8,222.8z"
		/>
	<g>
		<path class="st1" d="M624.2,265.1c0,0-0.1,0-0.2,0c-1,0-2-0.2-3.1-0.5l-0.3-0.1c-3.7-0.9-7-2.7-10.2-4.5l-0.9-0.5
			c-0.4-0.2-0.8-0.5-1.2-0.7c-1.7-1-3.2-1.9-5-1.9c-1.6,0-3.1,0.1-4.5,0.2c-1.7,0.1-3.4,0.2-5.2,0.2c-1,0-1.9,0-2.8-0.1l-0.1,0
			c-1,0-1.7-0.1-2.4-0.3c-0.5-0.2-0.8-0.7-0.6-1.2c0.1-0.4,0.5-0.8,1-0.8c0.1,0,0.1,0,0.2,0c0.7,0.1,1.4,0.2,2.2,0.3
			c0.4,0,0.8,0,1.2-0.1l1-0.1c2-0.1,3.9-0.2,5.8-0.7c2.6-0.7,4.5-2.5,6.4-4.5c1.6-1.6,3.3-3.3,5.5-4.4c1.2-0.6,2.4-0.8,3.8-0.8
			c2.4,0,4.9,0.9,6.9,2.5c0.3,0.3,0.6,0.5,1,0.8c0.5,0.5,1.1,0.9,1.6,1.3c0.6-0.4,1.1-0.9,1.6-1.3c0.3-0.3,0.6-0.6,1-0.8
			c2-1.6,4.5-2.5,6.9-2.5c1.3,0,2.6,0.3,3.8,0.8c2.2,1.1,3.9,2.8,5.5,4.4c1.9,2,3.8,3.8,6.4,4.5c1.9,0.5,3.8,0.6,5.8,0.7l1,0.1
			c0.4,0,0.8,0,1.2,0.1c0.7-0.1,1.5-0.2,2.2-0.3c0.1,0,0.1,0,0.2,0c0.4,0,0.9,0.3,1,0.8c0.1,0.5-0.2,1-0.6,1.2
			c-0.7,0.2-1.5,0.3-2.4,0.3l-0.1,0c-0.9,0.1-1.8,0.1-2.8,0.1c-1.7,0-3.5-0.1-5.2-0.2c-1.5-0.1-3-0.2-4.4-0.2c0,0,0,0,0,0
			c-2,0-3.4,0.9-5.1,1.9c-0.4,0.2-0.8,0.5-1.2,0.7L638,260c-3.2,1.8-6.4,3.7-10.2,4.5l-0.3,0.1c-1.1,0.3-2,0.5-3.1,0.5
			C624.3,265.1,624.3,265.1,624.2,265.1z"/>
		<path class="st2" d="M633.7,245.7c1.1,0,2.3,0.2,3.3,0.7c4.7,2.2,6.9,7.6,12.1,9c2.2,0.6,4.4,0.6,6.6,0.7c0.6,0,1.1,0.1,1.7,0.1
			c-0.9,0.1-1.8,0.1-2.7,0.1c-3.2,0-6.4-0.4-9.6-0.4c0,0-0.1,0-0.1,0c-2.6,0-4.5,1.5-6.7,2.7c-3.5,2-6.9,4-10.8,4.9
			c-1.2,0.3-2.2,0.5-3.2,0.5c-0.1,0-0.2,0-0.2,0c-0.1,0-0.2,0-0.2,0c-1,0-2-0.2-3.2-0.5c-3.9-0.9-7.3-3-10.8-4.9
			c-2.2-1.2-4.1-2.7-6.7-2.7c0,0-0.1,0-0.1,0c-3.2,0-6.4,0.4-9.6,0.4c-0.9,0-1.8,0-2.7-0.1c0.6,0,1.2-0.1,1.7-0.1
			c2.2-0.1,4.4-0.2,6.6-0.7c5.2-1.3,7.4-6.7,12.1-9c1.1-0.5,2.2-0.7,3.3-0.7c2.3,0,4.5,0.9,6.3,2.3c1,0.8,2,1.9,3.2,2.5
			c1.2-0.7,2.2-1.7,3.2-2.5C629.2,246.6,631.5,245.7,633.7,245.7 M659.8,256c-0.7,0.2-1.4,0.3-2.1,0.3c-0.1,0-0.1,0-0.2,0
			C658.3,256.2,659,256.1,659.8,256 M588.6,256c0.8,0.1,1.5,0.2,2.3,0.3c-0.1,0-0.1,0-0.2,0C590,256.2,589.3,256.2,588.6,256
			 M633.7,243.7c-2.6,0-5.4,1-7.6,2.8c-0.3,0.3-0.7,0.6-1,0.8c-0.3,0.3-0.7,0.6-1,0.8c-0.3-0.3-0.6-0.5-1-0.8
			c-0.3-0.3-0.7-0.6-1-0.8c-2.2-1.8-4.9-2.8-7.6-2.8c-1.5,0-2.9,0.3-4.2,0.9c-2.4,1.1-4.1,2.9-5.8,4.6c-1.9,1.9-3.6,3.6-5.9,4.2
			c-1.8,0.5-3.7,0.6-5.6,0.7l-0.6,0l-0.4,0c-0.4,0-0.7,0-1.1,0.1c-0.7-0.1-1.4-0.1-2-0.3c-0.1,0-0.2,0-0.3,0c-0.9,0-1.7,0.6-1.9,1.5
			c-0.3,1,0.3,2.1,1.3,2.4c0.8,0.3,1.7,0.4,2.8,0.4l0.1,0c0.9,0.1,1.8,0.1,2.8,0.1c1.8,0,3.5-0.1,5.2-0.2c1.4-0.1,2.9-0.2,4.4-0.2
			l0.1,0c1.6,0,2.9,0.8,4.5,1.8c0.4,0.2,0.8,0.5,1.2,0.7l0.9,0.5c3.2,1.8,6.6,3.7,10.4,4.6l0.3,0.1c1.1,0.3,2.1,0.5,3.3,0.5
			c0.1,0,0.2,0,0.2,0c0.1,0,0.2,0,0.2,0c1.1,0,2.2-0.2,3.3-0.5l0.3-0.1c3.9-0.9,7.2-2.8,10.4-4.6l0.9-0.5c0.4-0.2,0.8-0.5,1.2-0.7
			c1.6-1,2.9-1.8,4.5-1.8l0.1,0c1.5,0,3,0.1,4.4,0.2c1.7,0.1,3.5,0.2,5.2,0.2c1,0,1.9,0,2.8-0.1l0.1,0c1.1,0,2-0.1,2.8-0.4
			c1-0.3,1.6-1.4,1.3-2.4c-0.2-0.9-1-1.5-1.9-1.5c-0.1,0-0.2,0-0.3,0c-0.6,0.1-1.3,0.2-2,0.3c-0.4,0-0.7,0-1.1-0.1l-0.4,0l-0.6,0
			c-2-0.1-3.8-0.2-5.6-0.7c-2.4-0.6-4-2.3-5.9-4.2c-1.7-1.7-3.4-3.5-5.8-4.6C636.6,244,635.2,243.7,633.7,243.7L633.7,243.7z
			 M659.8,258L659.8,258L659.8,258L659.8,258z"/>
	</g>
	<path class="st3" d="M586.1,250.6c-2.5,0.9-4.4,3.9-3.2,6.4c1.2,2.5,4.7,4.4,7.5,4.3c-1.5,0.8-4.5-0.4-5.9-1.2
		c-1.7-1-3.3-2.3-3.7-4.3C580.2,252.6,583.9,250.6,586.1,250.6z"/>
	<path class="st3" d="M662.3,250.6c2.5,0.9,4.4,3.9,3.2,6.4c-1.2,2.5-4.7,4.4-7.5,4.3c1.5,0.8,4.5-0.4,5.9-1.2
		c1.7-1,3.3-2.3,3.7-4.3C668.2,252.6,664.5,250.6,662.3,250.6z"/>
	<path class="st3" d="M624.2,279.3c-0.4,0-9.3-0.2-16.1-5.6c0,0,4.2,7.4,16.1,7.9c11.9-0.5,16.1-7.9,16.1-7.9
		C633.5,279.1,624.6,279.3,624.2,279.3z"/>
	<path class="st3" d="M604.8,165.4c-0.9-0.6-2.3-0.1-3.2,0.2c-2,0.6-4,1.5-5.8,2.5c-2.4,1.3-5.4,2.8-6.5,5.5c-1.7,4,8.3,2.9,9.9,3
		c2.7,0.1,5.7,1.6,8.4,0.6c1.8-0.7,0.5-4,0.1-5.3c-0.5-1.8-1.3-3.5-1.9-5.3c-0.1-0.3-0.3-0.7-0.5-0.9
		C604.9,165.4,604.6,165.5,604.8,165.4z"/>
	<path class="st3" d="M643.6,165.4c0.9-0.6,2.3-0.1,3.2,0.2c2,0.6,4,1.5,5.8,2.5c2.4,1.3,5.4,2.8,6.5,5.5c1.7,4-8.3,2.9-9.9,3
		c-2.7,0.1-5.7,1.6-8.4,0.6c-1.8-0.7-0.5-4-0.1-5.3c0.5-1.8,1.3-3.5,1.9-5.3c0.1-0.3,0.3-0.7,0.5-0.9
		C643.5,165.4,643.8,165.5,643.6,165.4z"/>
	<path class="st3" d="M619.3,160.6c-2.4,0.1-4.9,0.4-7.2,0.9c-1.1,0.3-3.7,1.2-3.9,2.6c-0.1,0.7,0.4,1.4,0.8,1.9
		c0.7,0.9,1.3,1.8,2.1,2.7c1,1,2.2,3,3.7,2.1c1.8-1.1,1.1-3,1.6-4.7c0.4-1.3,1.2-2.5,2.1-3.6C619,161.9,619.9,160.8,619.3,160.6z"/>
	<path class="st3" d="M629.1,160.6c2.4,0.1,4.9,0.4,7.2,0.9c1.1,0.3,3.7,1.2,3.9,2.6c0.1,0.7-0.4,1.4-0.8,1.9
		c-0.7,0.9-1.3,1.8-2.1,2.7c-1,1-2.2,3-3.7,2.1c-1.8-1.1-1.1-3-1.6-4.7c-0.4-1.3-1.2-2.5-2.1-3.6
		C629.4,161.9,628.5,160.8,629.1,160.6z"/>
	<path class="st4" d="M585.1,177.8C585.1,177.8,585.1,177.7,585.1,177.8c-1.3-0.5-3.3,2.9-3.8,3.7c-0.9,1.4-1.5,2.9-1.7,4.5
		c-0.3,2.7,4.1,2.9,5.9,2.9c1.5,0,2.2-0.4,2.1-2c-0.2-2-0.8-4.3-1.3-6.3C586.2,179.9,585.9,178.2,585.1,177.8z"/>
	<path class="st4" d="M663.3,177.8C663.3,177.8,663.3,177.7,663.3,177.8c1.3-0.5,3.3,2.9,3.8,3.7c0.9,1.4,1.5,2.9,1.7,4.5
		c0.3,2.7-4.1,2.9-5.9,2.9c-1.5,0-2.2-0.4-2.1-2c0.2-2,0.8-4.3,1.3-6.3C662.2,179.9,662.5,178.2,663.3,177.8z"/>
	<path class="st5" d="M577.6,190.9c-1,0.6-1.7,1.5-2.4,2.4c-0.7,0.8-2.1,2.2-2,3.4c0,0.6,0.6,1.1,1.2,1.4c0.9,0.4,2.5,0.8,3.5,0.7
		c3.1-0.3,2.1-3.6,1.8-5.7C579.5,191.9,578.6,190.2,577.6,190.9z"/>
	<path class="st5" d="M670.8,190.9c1,0.6,1.7,1.5,2.4,2.4c0.7,0.8,2.1,2.2,2,3.4c0,0.6-0.6,1.1-1.2,1.4c-0.9,0.4-2.5,0.8-3.5,0.7
		c-3.1-0.3-2.1-3.6-1.8-5.7C668.9,191.9,669.8,190.2,670.8,190.9z"/>
	<path class="st6" d="M591.6,179.1c-0.4-0.3-1.1-0.6-1.6-0.5c-0.7,0.1-0.8,0.8-0.9,1.5c-0.2,0.9-0.4,3.2,1.1,3.2
		c1.2,0,2.9-2.1,2.5-3.2C592.6,179.8,592.3,179.4,591.6,179.1z"/>
	<path class="st3" d="M656.8,179.1c0.4-0.3,1.1-0.6,1.6-0.5c0.7,0.1,0.8,0.8,0.9,1.5c0.2,0.9,0.4,3.2-1.1,3.2
		c-1.2,0-2.9-2.1-2.5-3.2C655.8,179.8,656.1,179.4,656.8,179.1z"/>
	<path class="st5" d="M575.7,202.4c-0.2-0.9-1.2-1.2-2.1-0.9c-1.1,0.4-1.9,1.8-2.4,2.7c-0.7,1.5-1.2,4.1,0.5,5c1.7,0.8,3.2-1,4-2.3
		C576.6,205.7,576.4,204.7,575.7,202.4z"/>
	<path class="st5" d="M672.7,202.4c0.2-0.9,1.2-1.2,2.1-0.9c1.1,0.4,1.9,1.8,2.4,2.7c0.7,1.5,1.2,4.1-0.5,5c-1.7,0.8-3.2-1-4-2.3
		C671.8,205.7,672,204.7,672.7,202.4z"/>
	<path class="st7" d="M574.7,212.9c-0.1-0.1-0.2-0.2-0.3-0.3c-0.7-0.5-1.1-0.3-1.9-0.2c-1.6,0.3-3.2,0.1-4.4,1.5
		c-1.1,1.3-1.6,2.7-1.7,4.5c-0.1,1.2-1,4.3,0,5.2c1.3,1.1,3.1-1.3,4.1-1.9c0.6-0.3,1.4-0.6,2.1-0.5c0.7,0.1,1.1,0.4,1.8,0
		c1.2-0.6,0.3-1.6-0.2-2.5c-0.6-1-0.8-2-0.1-3C574.7,214.8,575.6,213.8,574.7,212.9z"/>
	<path class="st7" d="M673.7,212.9c0.1-0.1,0.2-0.2,0.3-0.3c0.7-0.5,1.1-0.3,1.9-0.2c1.6,0.3,3.2,0.1,4.4,1.5
		c1.1,1.3,1.6,2.7,1.7,4.5c0.1,1.2,1,4.3,0,5.2c-1.3,1.1-3.1-1.3-4.1-1.9c-0.6-0.3-1.4-0.6-2.1-0.5c-0.7,0.1-1.1,0.4-1.8,0
		c-1.2-0.6-0.3-1.6,0.2-2.5c0.6-1,0.8-2,0.1-3C673.7,214.8,672.8,213.8,673.7,212.9z"/>
	<path class="st0" d="M571.1,225.2c-1.2-1-3.5,1.1-4.4,1.8c-1.6,1.3-2.3,2.4-0.9,4.3c0.6,0.8,1.8,2.3,2.9,2.3
		c0.9,0.1,2.2-1.1,2.9-1.6c1.2-0.8,1-1.6,0.6-2.9C572,228.3,571.5,225.4,571.1,225.2z"/>
	<path class="st3" d="M677.3,225.2c1.2-1,3.5,1.1,4.4,1.8c1.6,1.3,2.3,2.4,0.9,4.3c-0.6,0.8-1.8,2.3-2.9,2.3
		c-0.9,0.1-2.2-1.1-2.9-1.6c-1.2-0.8-1-1.6-0.6-2.9C676.4,228.3,676.9,225.4,677.3,225.2z"/>
	<path class="st3" d="M572.7,225.2c-1.2-1-3.5,1.1-4.4,1.8c-1.6,1.3-2.3,2.4-0.9,4.3c0.6,0.8,1.8,2.3,2.9,2.3
		c0.9,0.1,2.2-1.1,2.9-1.6c1.2-0.8,1-1.6,0.6-2.9C573.6,228.3,573.1,225.4,572.7,225.2z"/>
	<path class="st8" d="M565.5,236c-0.7-0.9-2.4-1.3-3.4-0.7c-1.4,0.7-1.9,2.7-2.3,4.1c-0.7,2.6-1.7,5.1-1.6,7.9
		c0.1,1.4,1,2.1,2.4,1.8c1.6-0.2,3.3-0.8,5-1.2c0.8-0.2,2.4-0.3,2.8-1.1c0.9-1.6-0.5-3.6-1-5C567.4,241.2,566.6,235.3,565.5,236z"/>
	<path class="st8" d="M682.9,236c0.7-0.9,2.4-1.3,3.4-0.7c1.4,0.7,1.9,2.7,2.3,4.1c0.7,2.6,1.7,5.1,1.6,7.9c-0.1,1.4-1,2.1-2.4,1.8
		c-1.6-0.2-3.3-0.8-5-1.2c-0.8-0.2-2.4-0.3-2.8-1.1c-0.9-1.6,0.5-3.6,1-5C681,241.2,681.8,235.3,682.9,236z"/>
	<path class="st9" d="M561.2,252.4c-1.3,0-2.3-0.8-3.4,0.4c-1,1.2-1.1,3-1,4.4c0,1.2,0.3,2.8,1.1,3.8c1.1,1.3,2.4,0.2,3.5-0.3
		c0.9-0.4,2.4-0.8,3-1.7c0.7-0.9,0.3-2.2-0.1-3.1C563.7,254.8,562.1,252.6,561.2,252.4z"/>
	<path class="st9" d="M687.2,252.4c1.3,0,2.3-0.8,3.4,0.4c1,1.2,1.1,3,1,4.4c0,1.2-0.3,2.8-1.1,3.8c-1.1,1.3-2.4,0.2-3.5-0.3
		c-0.9-0.4-2.4-0.8-3-1.7c-0.7-0.9-0.3-2.2,0.1-3.1C684.7,254.8,686.3,252.6,687.2,252.4z"/>
	<path class="st10" d="M565.5,266.3c-2.7,0.3,2.3,5.9,2.6,3.6C568.2,269.1,566,266.6,565.5,266.3z"/>
	<path class="st10" d="M682.9,266.3c2.7,0.3-2.3,5.9-2.6,3.6C680.2,269.1,682.4,266.6,682.9,266.3z"/>
	<path class="st11" d="M575.4,276.1c-1.1,0.1-2.2-0.2-3.2,0.3c-1.3,0.8-0.8,1.4,0.1,2.2c1.1,1,2.2,1.7,3.7,2.3
		c0.5,0.2,1.7,0.9,2.3,0.7C580.7,280.7,576,276.8,575.4,276.1z"/>
	<path class="st11" d="M673,276.1c1.1,0.1,2.2-0.2,3.2,0.3c1.3,0.8,0.8,1.4-0.1,2.2c-1.1,1-2.2,1.7-3.7,2.3
		c-0.5,0.2-1.7,0.9-2.3,0.7C667.7,280.7,672.4,276.8,673,276.1z"/>
	<path class="st12" d="M564.8,272.4c-0.7-0.3-2.1-1.6-2.9-1.4c-1.3,0.4,0.7,3.1,1.1,3.6c0.4,0.5,4.2,4.3,3.9,1.6
		c-0.1-0.5-0.5-1.1-0.7-1.5c-0.1-0.3-0.1-0.7-0.3-1C565.6,273.2,565,272.7,564.8,272.4z"/>
	<path class="st12" d="M683.6,272.4c0.7-0.3,2.1-1.6,2.9-1.4c1.3,0.4-0.7,3.1-1.1,3.6c-0.4,0.5-4.2,4.3-3.9,1.6
		c0.1-0.5,0.5-1.1,0.7-1.5c0.1-0.3,0.1-0.7,0.3-1C682.8,273.2,683.4,272.7,683.6,272.4z"/>
	<path class="st13" d="M587.7,282.5c-0.8-1.2-4.4-0.9-5.3,0c0.5,0.6,1.5,0.9,2.2,1.2c0.7,0.3,1.4,0.7,2.2,1c0.5,0.2,2.3,1,2.9,0.8
		C591.1,285.1,588.4,283,587.7,282.5z"/>
	<path class="st13" d="M660.7,282.5c0.8-1.2,4.4-0.9,5.3,0c-0.5,0.6-1.5,0.9-2.2,1.2c-0.7,0.3-1.4,0.7-2.2,1c-0.5,0.2-2.3,1-2.9,0.8
		C657.3,285.1,660,283,660.7,282.5z"/>
	<path class="st14" d="M593.7,286c-2.7-0.2-0.3,2.2,1.2,2c2-0.2-0.3-1.7-1-1.9"/>
	<path class="st14" d="M654.7,286c2.7-0.2,0.3,2.2-1.2,2c-2-0.2,0.3-1.7,1-1.9"/>
	<path class="st8" d="M563.6,229.7c-0.3,2-1.7,3.2-2.8,4.8c-0.6,0.9-1.5,2.4-2.7,2.6c-0.2,0-0.4,0-0.6,0c1.3-5.7,3.1-12,5.4-18.8
		c1,1.5,1.1,4.4,1.1,5.6C564.1,225.9,563.9,227.8,563.6,229.7z"/>
	<path class="st8" d="M684.8,229.7c0.3,2,1.7,3.2,2.8,4.8c0.6,0.9,1.5,2.4,2.7,2.6c0.2,0,0.4,0,0.6,0c-1.3-5.7-3.1-12-5.4-18.8
		c-1,1.5-1.1,4.4-1.1,5.6C684.3,225.9,684.5,227.8,684.8,229.7z"/>
	<path class="st7" d="M570.9,197.7c0,1-0.2,2.1-0.3,3c-0.4,2.5-1.1,5-2.1,7.3c-0.5,1.1-1.5,3.1-2.9,2.8
		C567.1,206.6,568.9,202.2,570.9,197.7z"/>
	<path class="st7" d="M677.5,197.7c0,1,0.2,2.1,0.3,3c0.4,2.5,1.1,5,2.1,7.3c0.5,1.1,1.5,3.1,2.9,2.8
		C681.3,206.6,679.5,202.2,677.5,197.7z"/>
	<path class="st10" d="M560.6,275c-3.3-4.1-5-9-5.6-14.6c0.3,0.6,0.7,1.2,1.1,1.8c0.9,1.3,2.3,2,3,3.3c0.6,1,0.7,2.3,0.7,3.5
		c0.1,1.7,0.1,3.3,0.4,5C560.4,274.2,560.5,274.6,560.6,275z"/>
	<path class="st10" d="M687.8,275c3.3-4.1,5-9,5.6-14.6c-0.3,0.6-0.7,1.2-1.1,1.8c-0.9,1.3-2.3,2-3,3.3c-0.6,1-0.7,2.3-0.7,3.5
		c-0.1,1.7-0.1,3.3-0.4,5C688,274.2,687.9,274.6,687.8,275z"/>
	<path class="st3" d="M624.2,162.5c-2,0.4-4.1,0.5-5,2.7c-0.4,1.2-0.8,2.5-0.9,3.7c-0.2,1.1-0.5,2.3-0.2,3.5c0.6,1.8,2.7,3.3,4,4.5
		c0.5,0.4,1.3,1.1,2,1.3c0.7-0.2,1.5-0.9,2-1.3c1.4-1.2,3.4-2.8,4-4.5c0.4-1.1,0-2.3-0.2-3.5c-0.2-1.2-0.5-2.5-0.9-3.7
		C628.3,163,626.2,162.9,624.2,162.5z"/>
	<path class="st15" d="M624.2,257c-0.3,0-2.2-0.7-4.1-0.8c-3-0.1-4.7,0.4-8.9,2.5c0.4,0.2,1.5,1,2,1.2c1.8,0.9,3.2,1.7,5.1,2.4
		c1.7,0.6,4.3,1.3,5.9,1.3s4.2-0.7,5.9-1.3c1.9-0.7,3.3-1.4,5.1-2.4c0.5-0.3,1.6-1,2-1.2c-4.2-2.1-5.9-2.6-8.9-2.5
		C626.4,256.3,624.5,256.9,624.2,257z"/>
	<path class="st11" d="M634.3,219.2c-0.6-4.7-4.1-9.2-6.9-12c-1.9-2-5.1-2-7,0c-2.8,2.9-6.3,7.3-6.9,12c0,0-0.3,2.1,2.2-0.5
		c3-3.1,10.6-7,16.4,0C634.4,221.5,634.3,219.2,634.3,219.2z"/>
	<g>
		<path d="M596.5,194.5c-0.7-0.3-2.1-0.1-1.6,0.9c0.2,0.5,0.9,1,1.3,1.3c0.8,0.6,1.4,1.2,2.2,1.8c1.3,1.1,2.7,2.3,4.2,3.3
			c0.6,0.4,1.9,1.7,2.7,1.4c1.5-0.4-1-2.1-1.3-2.4c-0.9-0.7-1.8-1.6-2.8-2.3c-0.9-0.6-1.7-1.1-2.4-1.9
			C597.7,195.9,596.8,195.1,596.5,194.5z"/>
		<circle id="rightBrow1_1_" cx="592.5" cy="203.2" r="0.8"/>
		<circle id="rightBrow4_1_" cx="615.8" cy="206.2" r="0.8"/>
		<circle id="rightBrow3_1_" cx="606" cy="202.2" r="0.8"/>
		<circle id="rightBrow0_1_" cx="588.5" cy="206.9" r="0.8"/>
		<circle id="rightBrow2_1_" cx="598.7" cy="202.2" r="0.8"/>
	</g>
	<g>
		<path d="M651.9,194.5c0.7-0.3,2.1-0.1,1.6,0.9c-0.2,0.5-0.9,1-1.3,1.3c-0.8,0.6-1.4,1.2-2.2,1.8c-1.3,1.1-2.7,2.3-4.2,3.3
			c-0.6,0.4-1.9,1.7-2.7,1.4c-1.5-0.4,1-2.1,1.3-2.4c0.9-0.7,1.8-1.6,2.8-2.3c0.9-0.6,1.7-1.1,2.4-1.9
			C650.7,195.9,651.6,195.1,651.9,194.5z"/>
		<circle id="leftBrow1_1_" cx="656.2" cy="203.6" r="0.8"/>
		<circle id="leftBrow4_1_" cx="632.6" cy="205.7" r="0.8"/>
		<circle id="leftBrow3_1_" cx="642.6" cy="202.5" r="0.8"/>
		<circle id="leftBrow0_1_" cx="660.2" cy="206.5" r="0.8"/>
		<circle id="leftBrow2_1_" cx="649.9" cy="202.1" r="0.8"/>
	</g>
	<g>
		<path class="st16" d="M584.2,213.7c0,0.5-4.2,9.2-1.4,11.2c7.2,5.2,18.8-4.6,18.8-4.6L584.2,213.7z"/>
		<path class="st11" d="M584.2,213.7c0,0,3-7,9.7-7.1c2.2,0,3.4,2,4.8,4.6c1.4,2.6,3,9,3,9L584.2,213.7z"/>
		<path d="M601.7,220.3c0,0-8,4.9-12.9,2.9c-5-2-4.5-9.5-4.5-9.5s6-6.3,10.7-4.1C599.6,211.7,601.7,220.3,601.7,220.3z"/>
		
			<ellipse transform="matrix(0.4422 -0.8969 0.8969 0.4422 137.6251 647.2365)" class="st17" cx="589.2" cy="213" rx="1.6" ry="0.9"/>
		<circle id="rightEye0_1_" cx="594.7" cy="215.1" r="0.8"/>
		<circle id="rightEye1_1_" cx="599.9" cy="211.4" r="0.8"/>
		<circle id="rightEye5_1_" cx="599.9" cy="217.4" r="0.8"/>
		<circle id="rightEye2_1_" cx="606.2" cy="211.4" r="0.8"/>
		<circle id="rightEye3_1_" cx="611.4" cy="215.6" r="0.8"/>
		<circle id="rightEye4_1_" cx="606.2" cy="216.6" r="0.8"/>
	</g>
	<g>
		<path class="st16" d="M664.2,213.7c0,0.5,4.2,9.2,1.4,11.2c-7.2,5.2-18.8-4.6-18.8-4.6L664.2,213.7z"/>
		<path class="st11" d="M664.2,213.7c0,0-3-7-9.7-7.1c-2.2,0-3.4,2-4.8,4.6c-1.4,2.6-3,9-3,9L664.2,213.7z"/>
		<path d="M646.7,220.3c0,0,8,4.9,12.9,2.9c5-2,4.5-9.5,4.5-9.5s-6-6.3-10.7-4.1C648.8,211.7,646.7,220.3,646.7,220.3z"/>
		
			<ellipse transform="matrix(0.8969 -0.4422 0.4422 0.8969 -26.2191 313.4689)" class="st17" cx="659.2" cy="213" rx="0.9" ry="1.6"/>
		<circle id="leftEye0_1_" cx="654.3" cy="215.1" r="0.8"/>
		<circle id="leftEye1_1_" cx="649.1" cy="211.4" r="0.8"/>
		<circle id="leftEye5_1_" cx="649.1" cy="217.4" r="0.8"/>
		<circle id="leftEye2_1_" cx="642.8" cy="211.4" r="0.8"/>
		<circle id="leftEye3_1_" cx="637.6" cy="215.6" r="0.8"/>
		<circle id="leftEye4_1_" cx="642.8" cy="216.6" r="0.8"/>
	</g>
</g>
<g id="skeleton_1_">
	<polygon class="st18" points="518.8,349.5 569.1,565.3 685.5,564.5 731.7,349.5 	"/>
	<polyline class="st18" points="517.8,349.5 445.4,431.1 352,547.5 	"/>
	<polyline class="st18" points="733.2,349.1 806.2,430.7 899.6,547 	"/>
	<polyline class="st18" points="569.1,565.3 575.5,725.5 575.5,933.5 	"/>
	<polyline class="st18" points="685.5,564.5 685.5,725.5 685.5,933.5 	"/>
	<polyline class="st18" points="624.5,170 604.7,172.5 592.2,182 583.6,196.1 581.1,205.4 580.3,217.1 580.3,226.6 581.1,248.3 
		587.9,268.3 599.5,280.8 609.5,287.5 624.5,290.7 639.3,287.9 649.3,281.2 660.9,268.6 667.7,248.6 668.5,227 668.5,217.4 
		667.7,205.7 665.2,196.5 657,182 644.4,172.5 624.5,170 	"/>
	<polyline class="st18" points="588.5,206.9 592.5,203.2 598.7,202.2 606,202.2 615.8,206.2 	"/>
	<polygon class="st18" points="594.7,215.1 599.9,211.4 606.2,211.4 611.4,215.6 606.2,216.6 599.9,217.4 	"/>
	<polyline class="st18" points="613,233.2 618.2,233.2 623.7,234 623.7,228.7 623.7,221.6 623.7,216.1 623.7,210.3 	"/>
	<polyline class="st18" points="660,206.5 656,203.6 649.7,202.1 642.4,202.5 632.4,205.7 	"/>
	<polygon class="st18" points="654.1,215.1 648.8,211.4 642.5,211.4 637.4,215.6 642.5,216.6 648.8,217.4 	"/>
	<polyline class="st18" points="634.1,233.2 629.1,233.2 623.7,234 	"/>
	<polygon class="st18" points="607,255.3 613.9,251.9 620.4,250.8 624.5,251.7 628.7,250.8 635.1,251.9 642,255.3 635.6,261.6 
		628.5,264.4 624.5,264.9 620.4,264.4 613.4,261.6 	"/>
	<polyline class="st18" points="607,255.3 610.6,255.6 620.6,254.8 624.5,255.3 628.5,254.8 638.4,255.6 642,255.3 	"/>
	<polyline class="st18" points="607,255.3 610.6,255.6 620.6,257.7 624.5,258.5 628.5,257.7 638.4,255.6 642,255.3 	"/>
	<circle id="rightShoulder" cx="518.9" cy="349.2" r="8.2"/>
	<circle id="rightElbow" cx="445.4" cy="439.3" r="8.2"/>
	<circle id="rightWrist" cx="352" cy="555.7" r="8.2"/>
	<circle id="rightHip" cx="569.2" cy="565" r="8.2"/>
	<circle id="rightKnee" cx="575.6" cy="725.2" r="8.2"/>
	<circle id="rightAnkle" cx="575.6" cy="933.2" r="8.2"/>
	<circle id="leftElbow" cx="806.2" cy="438.9" r="8.2"/>
	<circle id="leftWrist" cx="899.6" cy="555.2" r="8.2"/>
	<circle id="leftHip" cx="685.6" cy="564.2" r="8.2"/>
	<circle id="leftKnee" cx="685.6" cy="725.2" r="8.2"/>
	<circle id="leftAnkle" cx="685.6" cy="933.2" r="8.2"/>
	<circle id="rightEye0" cx="594.7" cy="215.1" r="0.8"/>
	<circle id="rightBrow1" cx="592.5" cy="203.2" r="0.8"/>
	<circle id="rightBrow4" cx="615.8" cy="206.2" r="0.8"/>
	<circle id="nose1" cx="623.7" cy="216.1" r="0.8"/>
	<circle id="rightBrow3" cx="606" cy="202.2" r="0.8"/>
	<circle id="rightEye1" cx="599.9" cy="211.4" r="0.8"/>
	<circle id="rightBrow0" cx="588.5" cy="206.9" r="0.8"/>
	<circle id="rightBrow2" cx="598.7" cy="202.2" r="0.8"/>
	<circle id="rightEye5" cx="599.9" cy="217.4" r="0.8"/>
	<circle id="rightEye2" cx="606.2" cy="211.4" r="0.8"/>
	<circle id="rightEye3" cx="611.4" cy="215.6" r="0.8"/>
	<circle id="nose0" cx="623.7" cy="210.3" r="0.8"/>
	<circle id="nose3" cx="623.7" cy="228.7" r="0.8"/>
	<circle id="rightNose0" cx="613" cy="233.2" r="0.8"/>
	<circle id="rightMouthCorner" cx="607" cy="255.3" r="0.8"/>
	<circle id="rightNose1" cx="618.2" cy="233.2" r="0.8"/>
	<circle id="rightUpperLipTop0" cx="613.9" cy="251.9" r="0.8"/>
	<circle id="nose2" cx="623.7" cy="221.6" r="0.8"/>
	<circle id="nose4" cx="623.7" cy="234" r="0.8"/>
	<circle id="upperLipTopMid" cx="624.5" cy="251.7" r="0.8"/>
	<circle id="rightUpperLipTop1" cx="620.4" cy="250.8" r="0.8"/>
	<path id="rightMiddleLip" d="M610.6,254.8c0.4,0,0.8,0.4,0.8,0.8c0,0.4-0.4,0.8-0.8,0.8s-0.8-0.4-0.8-0.8S610.2,254.8,610.6,254.8z
		"/>
	<circle id="lowerLipBottomMid" cx="624.5" cy="264.9" r="0.8"/>
	<circle id="upperLipBottomMid" cx="624.5" cy="255.3" r="0.8"/>
	<circle id="lowerLipTopMid" cx="624.5" cy="258.4" r="0.8"/>
	<circle id="rightUpperLipBottom1" cx="620.6" cy="254.8" r="0.8"/>
	<circle id="rightLowerLipTop0" cx="620.6" cy="257.7" r="0.8"/>
	<circle id="rightLowerLipBottom1" cx="620.4" cy="264.4" r="0.8"/>
	<circle id="rightLowerLipBottom0" cx="613.4" cy="261.6" r="0.8"/>
	<circle id="rightEye4" cx="606.2" cy="216.6" r="0.8"/>
	<circle id="jawMid" cx="624.5" cy="290.7" r="0.8"/>
	<circle id="rightJaw7" cx="609.5" cy="287.5" r="0.8"/>
	<circle id="rightJaw6" cx="599.5" cy="280.8" r="0.8"/>
	<circle id="rightJaw5" cx="587.9" cy="268.3" r="0.8"/>
	<circle id="rightJaw4" cx="581.1" cy="248.3" r="0.8"/>
	<circle id="rightJaw3" cx="580.3" cy="226.6" r="0.8"/>
	<circle id="rightJaw2" cx="580.3" cy="217.1" r="0.8"/>
	<circle id="rightJaw1" cx="581.1" cy="205.4" r="0.8"/>
	<circle id="rightJaw0" cx="583.6" cy="196.1" r="0.8"/>
	<circle id="topMid" cx="624.7" cy="170" r="0.8"/>
	<circle id="leftTop0" cx="644.4" cy="172.5" r="0.8"/>
	<circle id="leftTop1" cx="657" cy="182" r="0.8"/>
	<circle id="leftEye0" cx="654.3" cy="215.1" r="0.8"/>
	<circle id="leftBrow1" cx="656.2" cy="203.6" r="0.8"/>
	<circle id="leftBrow4" cx="632.6" cy="205.7" r="0.8"/>
	<circle id="leftBrow3" cx="642.6" cy="202.5" r="0.8"/>
	<circle id="leftEye1" cx="649.1" cy="211.4" r="0.8"/>
	<circle id="leftBrow0" cx="660.2" cy="206.5" r="0.8"/>
	<circle id="leftBrow2" cx="649.9" cy="202.1" r="0.8"/>
	<circle id="leftEye5" cx="649.1" cy="217.4" r="0.8"/>
	<circle id="leftEye2" cx="642.8" cy="211.4" r="0.8"/>
	<circle id="leftEye3" cx="637.6" cy="215.6" r="0.8"/>
	<circle id="leftNose0" cx="634.1" cy="233.2" r="0.8"/>
	<circle id="leftMouthCorner" cx="642" cy="255.3" r="0.8"/>
	<circle id="leftNose1" cx="629.3" cy="233.2" r="0.8"/>
	<circle id="leftUpperLipTop0" cx="635.1" cy="251.9" r="0.8"/>
	<circle id="leftUpperLipTop1" cx="628.7" cy="250.8" r="0.8"/>
	<path id="leftMiddleLip" d="M638.4,254.8c0.4,0,0.8,0.4,0.8,0.8c0,0.4-0.4,0.8-0.8,0.8s-0.8-0.4-0.8-0.8S638,254.8,638.4,254.8z"/>
	<circle id="leftUpperLipBottom1" cx="628.5" cy="254.8" r="0.8"/>
	<circle id="leftLowerLipTop0" cx="628.5" cy="257.7" r="0.8"/>
	<circle id="leftLowerLipBottom1" cx="628.7" cy="264.4" r="0.8"/>
	<circle id="leftLowerLipBottom0" cx="635.6" cy="261.6" r="0.8"/>
	<circle id="leftEye4" cx="642.8" cy="216.6" r="0.8"/>
	<circle id="leftJaw7" cx="639.3" cy="287.9" r="0.8"/>
	<circle id="leftJaw6" cx="649.3" cy="281.2" r="0.8"/>
	<circle id="leftJaw5" cx="660.9" cy="268.6" r="0.8"/>
	<circle id="leftJaw4" cx="667.7" cy="248.6" r="0.8"/>
	<circle id="leftJaw3" cx="668.5" cy="227" r="0.8"/>
	<circle id="leftJaw2" cx="668.5" cy="217.4" r="0.8"/>
	<circle id="leftJaw1" cx="667.7" cy="205.7" r="0.8"/>
	<circle id="leftJaw0" cx="665.2" cy="196.5" r="0.8"/>
	<circle id="rightTop0" cx="604.8" cy="172.5" r="0.8"/>
	<circle id="rightTop1" cx="592.2" cy="182" r="0.8"/>
	<circle id="leftShoulder" cx="731.8" cy="349.2" r="8.2"/>
</g>
</svg>
