<?xml version="1.0" encoding="utf-8"?>
<!-- Generator: Adobe Illustrator 25.0.0, SVG Export Plug-In . SVG Version: 6.00 Build 0)  -->
<svg version="1.1" id="Layer_1" xmlns="http://www.w3.org/2000/svg" xmlns:xlink="http://www.w3.org/1999/xlink" x="0px" y="0px"
	 viewBox="0 0 1200 1200" style="enable-background:new 0 0 1200 1200;" xml:space="preserve">
<style type="text/css">
	.st0{fill:#996633;stroke:#411900;stroke-miterlimit:10;}
	.st1{fill:#FF9927;}
	.st2{fill:#BA804A;}
	.st3{fill:#91592C;}
	.st4{fill:#BA7D47;}
	.st5{fill:#FFFFFF;}
	.st6{fill:#663333;}
	.st7{fill:#411900;}
	.st8{fill:#8C3D15;}
	.st9{fill:none;stroke:#000000;stroke-miterlimit:10;}
</style>
<g id="illustration">
	<path class="st0" d="M720.6,549.2L520.2,550c0,64.2-1.3,143.2-1.3,219.9v141.2l0,0c-0.8,13.5,7.7,63.1,50.2,59.5
		c41.2-3.5,42.7-48.3,42.4-60.1V771.2V595.4c0-5.3,4.3-9.6,9.6-9.6h6.8c5.3,0,9.6,4.3,9.6,9.6v175.8v139.9c0,0.1,0,0.2,0,0.3
		c-0.6,13.8,8,62.8,50.2,59.2c40.3-3.4,42.6-46.5,42.5-59.3c0-0.1,0-0.1,0-0.2V771.2V558.8C730.2,553.5,725.9,549.2,720.6,549.2z"/>
	<path class="st0" d="M520.3,559.1c-1.4-74.9-13.5-131.9,8.4-171.3c13.4-24.2,29.7-41.7,47.4-52.8c15.5-9.7,32.3-12.4,48.9-12.2
		c16.5,0.2,33.2,3.3,48.6,13.2c17.4,11.1,33.7,28.4,46.9,52c22.5,39.7,9.6,171.3,9.6,171.3"/>
	<path class="st0" d="M904.6,463.8"/>
	<path class="st0" d="M728.6,407.1c0,0,40.9,36.8,54.2,51.3s75.5,93.7,82.9,100.9c9.5,9.3,33.3,10.7,44.2,1.2
		c2-1.7,12.5-10.4,5.8-26.4s-57.7-84.9-82.5-115.2l0,0l0,0c-1-1.3-2-2.5-3-3.6l0,0c-2.2-2.7-4.4-5.4-6.6-8c-1.3-1.6-2-2.4-2-2.4l0,0
		c-70.3-80.3-157.2-80.6-170.1-79.5"/>
	<path class="st0" d="M874.5,547.9c0,0-2.1,8-4,16.9c-1.8,8.8-21.3,7.2-19.4-5.8c1.8-13.2,6.8-20.6,6.8-20.6"/>
	<path class="st0" d="M597.5,325c-15-1.3-97.4-4.7-169.9,78.1l0,0c0,0-0.7,0.8-2,2.4c-2.2,2.6-4.4,5.3-6.6,8l0,0c-1,1.1-2,2.3-3,3.6
		l0,0l0,0c-24.8,30.3-75.8,99.2-82.5,115.2s3.8,24.7,5.8,26.4c10.9,9.5,34.7,8.1,44.2-1.2c7.4-7.2,69.6-86.4,82.9-100.9
		s57.3-54.4,57.3-54.4"/>
	<path class="st0" d="M390.3,538.5c0,0,5,7.4,6.8,20.6c1.9,13-17.5,14.6-19.4,5.8c-1.8-8.9-4-16.9-4-16.9"/>
	<path class="st0" d="M592.7,328.3l8.3-39.6h49.5c0,0,4,21.2,7.5,40.2"/>
	<path class="st0" d="M690,176.8c0,0-9.1,4.8-22.6-1.8c-13.5-6.7-15.7-10.6-18.3-15c-2.4-4.2-3.5-14.6-2.2-15.9
		c3.9-3.9,9.7-16.1,16.6-18.5c6.9-2.5,20-2.2,31,7.3c10.8,9.4,10.6,26.3,8.1,32.7C700.1,171.8,693.8,175.6,690,176.8z"/>
	<path class="st1" d="M690.3,152.2c0,0.3,0.4,3.5-1.6,8.1c-2.1,4.6-8.8,6.5-13.5,5.9s-12.5-6.9-13.7-10.1
		c-1.2-3.3-0.3-10.8,2.7-14.5s9-6.4,17.9-2.2C687.4,141.7,689.4,146.2,690.3,152.2z"/>
	<path class="st0" d="M559.6,176.8c0,0,9.1,4.8,22.6-1.8s15.7-10.6,18.3-15c2.4-4.2,3.5-14.6,2.2-15.9c-3.9-3.9-9.7-16.1-16.6-18.5
		c-6.9-2.5-20-2.2-31,7.3c-10.8,9.4-10.6,26.3-8.1,32.7C549.5,171.8,555.8,175.6,559.6,176.8z"/>
	<path class="st1" d="M559.3,152.2c0,0.3-0.4,3.5,1.6,8.1c2.1,4.6,8.8,6.5,13.5,5.9c4.7-0.7,12.5-6.9,13.7-10.1
		c1.2-3.3,0.3-10.8-2.7-14.5s-9-6.4-17.9-2.2C562.2,141.7,560.3,146.2,559.3,152.2z"/>
	<path class="st0" d="M718.3,237.1c-1.1,6.6-16.2,38.7-37.4,50.6c-5.4,3-11,5.4-16.5,7.4c-16.2,5.8-32.1,7.7-40,8
		c-7.3-0.4-21.6-2-36.7-6.9c-6.6-2.2-13.4-5-19.8-8.5c-21.3-11.9-36.3-43.9-37.4-50.6c-1.1-6.6-1.5-22.4,9.8-43.2
		s33.6-39.6,33.6-39.6s-1.4-1.8-1.2-2.8c0.1-1,4.8-0.8,4.8-0.8s-1.7-2.5-0.8-3.7c0.8-1.2,4.5-0.1,4.8,0c-0.2-0.1-2-1.3-0.8-2.5
		s6.1,0,6.1,0c11.2-6.4,37.2-7.3,37.2-7.3h1.1c0,0,26,1,37.2,7.3c0,0,4.8-1.2,6.1,0c1.2,1.2-0.6,2.3-0.8,2.5c0.3-0.1,4-1.2,4.8,0
		s-0.8,3.7-0.8,3.7s4.7-0.1,4.8,0.8c0.1,1-1.2,2.8-1.2,2.8s22.2,18.8,33.6,39.6S719.4,230.5,718.3,237.1z"/>
	<path class="st2" d="M669.4,280.9c-0.1,4.8-1.4,10.6-4.9,13.5c-16.2,5.8-32.1,7.7-40,8c-7.3-0.4-21.6-2-36.7-6.9
		c-6.1-3.4-8.3-9.1-8.4-13.9c-0.2-8.3,6.3-13.9,11.7-17.3c5.4-3.5,7.7-3.7,16.1-13c2.8-3.1,4.3-8,6.4-11.7c5.2-8.8,17-5.2,19.7-2.6
		c1.8,1.8,4.7,8.6,6.9,12c6.4,9.9,12.2,11.4,17.8,14.6C664.5,267.3,669.6,272.6,669.4,280.9z"/>
	<path class="st3" d="M624.3,213.4c-9,0-12.3,31.3-12.3,31.4c0,0,4.9-9.6,12.4-9.6s12.3,9.2,12.3,9.2
		C636.7,244.3,633.3,213.4,624.3,213.4z"/>
	<g>
		<path d="M577.6,185.8c-0.5,0.4,4.9-5.7,14.1-4.9s15.7,3.3,15,4.9c-0.7,1.6-2.7,1.8-5.8,0.9c-3.1-0.9-6-2.9-10.8-2.7
			S579.2,184.8,577.6,185.8z"/>
		<path d="M658.5,185c-4.8-0.2-7.7,1.8-10.8,2.7s-5,0.7-5.8-0.9c-0.7-1.6,5.8-4.1,15-4.9c9.2-0.8,14.6,5.3,14.1,4.9
			C669.5,185.8,663.3,185.2,658.5,185z"/>
		<g>
			<path id="rightBrow1_2_" d="M592.7,202.3c1,0,1,1.6,0,1.6S591.7,202.3,592.7,202.3z"/>
			<path id="rightBrow4_2_" d="M616,205.3c1,0,1,1.6,0,1.6S615,205.3,616,205.3z"/>
			<path id="rightBrow3_2_" d="M606.2,201.3c1,0,1,1.6,0,1.6S605.2,201.3,606.2,201.3z"/>
			<path id="rightBrow0_2_" d="M588.7,206c1,0,1,1.6,0,1.6S587.7,206,588.7,206z"/>
			<path id="rightBrow2_2_" d="M598.9,201.3c1,0,1,1.6,0,1.6S597.9,201.3,598.9,201.3z"/>
			<path id="leftBrow1_2_" d="M656.4,202.7c1,0,1,1.6,0,1.6S655.4,202.7,656.4,202.7z"/>
			<path id="leftBrow4_2_" d="M632.7,204.8c1,0,1,1.6,0,1.6S631.7,204.8,632.7,204.8z"/>
			<path id="leftBrow3_2_" d="M642.8,201.6c1,0,1,1.6,0,1.6S641.8,201.6,642.8,201.6z"/>
			<path id="leftBrow0_2_" d="M660.4,205.6c1,0,1,1.6,0,1.6S659.4,205.6,660.4,205.6z"/>
			<path id="leftBrow2_2_" d="M650.1,201.2c1,0,1,1.6,0,1.6S649.1,201.2,650.1,201.2z"/>
		</g>
	</g>
	<g>
		<path class="st4" d="M583.6,213.3c-0.3-0.3,0.4,6.8,6.4,6.6s12.5-7.9,12.5-7.9S590.4,222,583.6,213.3z"/>
		<path class="st5" d="M584.2,210.6c-0.2,0.5,2.5,6,9.4,5.6c5.7-0.3,8.9-4.2,8.9-4.2s-2.3-9.8-9.8-9.7
			C585.4,202.3,584.7,209.3,584.2,210.6z"/>
		<g>
			<circle class="st6" cx="593.3" cy="209.4" r="7.1"/>
			<circle cx="593.3" cy="209.4" r="4.9"/>
			<circle class="st5" cx="590" cy="206.8" r="2.1"/>
		</g>
		<path d="M584.2,210.7c-0.1,0.4,0.5-11.1,9.7-9.7c8,1.2,8.6,11,8.6,11s-3.9-9.3-9.9-9.3C587.6,202.7,585.6,206.2,584.2,210.7z"/>
		<path id="rightEye0_3_" d="M606.4,210.5c1,0,1,1.6,0,1.6S605.4,210.5,606.4,210.5z"/>
		<path id="rightEye1_3_" d="M594.9,214.2c1,0,1,1.6,0,1.6S593.9,214.2,594.9,214.2z"/>
		<path id="rightEye5_3_" d="M600.1,216.5c1,0,1,1.6,0,1.6S599.1,216.5,600.1,216.5z"/>
		<path id="rightEye2_3_" d="M600.1,210.5c1,0,1,1.6,0,1.6S599.1,210.5,600.1,210.5z"/>
		<path id="rightEye3_3_" d="M611.6,214.7c1,0,1,1.6,0,1.6S610.6,214.7,611.6,214.7z"/>
		<path id="rightEye4_3_" d="M606.4,215.7c1,0,1,1.6,0,1.6S605.4,215.7,606.4,215.7z"/>
	</g>
	<g>
		<path class="st4" d="M665.2,213.3c0.3-0.3-0.4,6.8-6.4,6.6s-12.5-7.9-12.5-7.9S658.4,222,665.2,213.3z"/>
		<path class="st5" d="M664.7,210.6c0.2,0.5-2.5,6-9.4,5.6c-5.7-0.3-8.9-4.2-8.9-4.2s2.3-9.8,9.8-9.7
			C663.4,202.3,664.1,209.3,664.7,210.6z"/>
		<g>
			<circle class="st6" cx="655.5" cy="209.4" r="7.1"/>
			<circle cx="655.5" cy="209.4" r="4.9"/>
			<circle class="st5" cx="658.9" cy="206.8" r="2.1"/>
		</g>
		<path d="M664.6,210.7c0.1,0.4-0.5-11.1-9.7-9.7c-8,1.2-8.6,11-8.6,11s3.9-9.3,9.9-9.3C661.2,202.7,663.2,206.2,664.6,210.7z"/>
		<path id="leftEye0_2_" d="M654.5,215.2c1,0,1,1.6,0,1.6S653.5,215.2,654.5,215.2z"/>
		<path id="leftEye1_2_" d="M649.3,210.4c1,0,1,1.6,0,1.6S648.3,210.4,649.3,210.4z"/>
		<path id="leftEye5_2_" d="M649.3,216.5c1,0,1,1.6,0,1.6S648.3,216.5,649.3,216.5z"/>
		<path id="leftEye2_2_" d="M643,210.5c1,0,1,1.6,0,1.6S642,210.5,643,210.5z"/>
		<path id="leftEye3_2_" d="M637.8,214.6c1,0,1,1.6,0,1.6S636.8,214.6,637.8,214.6z"/>
		<path id="leftEye4_2_" d="M643,215.7c1,0,1,1.6,0,1.6S642,215.7,643,215.7z"/>
	</g>
	<path class="st7" d="M624.4,235.2c0,0-4.1-0.2-7.3,2.3s-5.1,6.4-5.7,9.6c-0.7,3.3,0.4,8.3,3.5,9.1c3.1,0.8,9.5,0.5,9.5,0.5
		s6.4,0.3,9.5-0.5c3.1-0.9,4.2-5.9,3.5-9.1c-0.7-3.3-2.6-7.1-5.7-9.6C628.5,235,624.4,235.2,624.4,235.2z"/>
	<path d="M621.2,246.6c-0.2-0.3-1.3-1.2-3.2-0.6s-2.2,3-2.2,4.3s0.8,2.4,2.2,1.8c1.5-0.6,3.1-1.8,3.4-2.5
		C621.8,248.9,622,247.7,621.2,246.6z"/>
	<path d="M627.6,246.6c0.2-0.3,1.3-1.2,3.2-0.6s2.2,3,2.2,4.3s-0.8,2.4-2.2,1.8c-1.5-0.6-3.1-1.8-3.4-2.5
		C627,248.9,626.8,247.7,627.6,246.6z"/>
	<ellipse transform="matrix(0.811 -0.585 0.585 0.811 -24.3628 407.1766)" class="st8" cx="618.1" cy="241.3" rx="1.9" ry="1.3"/>
	<g>
		<path d="M626.4,275.8c-1,0.2-1.9,0.2-2.9,0c-12.5-2.3-24.2,2-24.1,2c0,0,14.5-1.9,24.1-0.3c1,0.2,1.9,0.2,2.9,0
			c9.5-1.6,24.1,0.3,24.1,0.3C650.5,277.7,638.8,273.5,626.4,275.8z"/>
		<path id="rightMiddleLip_2_" d="M603.2,276.1c0.4,0,0.8,0.4,0.8,0.8s-0.4,0.8-0.8,0.8s-0.8-0.4-0.8-0.8S602.8,276.1,603.2,276.1z"
			/>
		<circle id="upperLipBottomMid_1_" cx="625.2" cy="275.6" r="0.8"/>
		<circle id="rightUpperLipBottom1_1_" cx="609.7" cy="275" r="0.8"/>
		<path id="leftMiddleLip_2_" d="M646.7,276.1c0.4,0,0.8,0.4,0.8,0.8s-0.4,0.8-0.8,0.8s-0.8-0.4-0.8-0.8S646.3,276.1,646.7,276.1z"
			/>
		<circle id="leftUpperLipBottom1_1_" cx="640.2" cy="275.2" r="0.8"/>
		<circle id="lowerLipTopMid_2_" cx="625.2" cy="277.1" r="0.8"/>
		<circle id="rightLowerLipTop0_2_" cx="609.7" cy="276.9" r="0.8"/>
		<circle id="leftLowerLipTop0_2_" cx="640.2" cy="276.9" r="0.8"/>
	</g>
</g>
<g id="skeleton_1_">
	<polygon class="st9" points="518.8,349.5 569.1,565.3 685.5,564.5 731.7,349.5 	"/>
	<polyline class="st9" points="517.8,349.5 445.4,431.1 352,547.5 	"/>
	<polyline class="st9" points="733.2,349.1 806.2,430.7 899.6,547 	"/>
	<polyline class="st9" points="569.1,565.3 575.5,725.5 575.5,933.5 	"/>
	<polyline class="st9" points="685.5,564.5 685.5,725.5 685.5,933.5 	"/>
	<polyline class="st9" points="624.5,170 604.7,172.5 592.2,182 583.6,196.1 581.1,205.4 580.3,217.1 580.3,226.6 581.1,248.3 
		587.9,268.3 599.5,280.8 609.5,287.5 624.5,290.7 639.3,287.9 649.3,281.2 660.9,268.6 667.7,248.6 668.5,227 668.5,217.4 
		667.7,205.7 665.2,196.5 657,182 644.4,172.5 624.5,170 	"/>
	<polyline class="st9" points="588.5,206.9 592.5,203.2 598.7,202.2 606,202.2 615.8,206.2 	"/>
	<polygon class="st9" points="594.7,215.1 599.9,211.4 606.2,211.4 611.4,215.6 606.2,216.6 599.9,217.4 	"/>
	<polyline class="st9" points="613,233.2 618.2,233.2 623.7,234 623.7,228.7 623.7,221.6 623.7,216.1 623.7,210.3 	"/>
	<polyline class="st9" points="660,206.5 656,203.6 649.7,202.1 642.4,202.5 632.4,205.7 	"/>
	<polygon class="st9" points="654.1,215.1 648.8,211.4 642.5,211.4 637.4,215.6 642.5,216.6 648.8,217.4 	"/>
	<polyline class="st9" points="634.1,233.2 629.1,233.2 623.7,234 	"/>
	<polygon class="st9" points="607,255.3 613.9,251.9 620.4,250.8 624.5,251.7 628.7,250.8 635.1,251.9 642,255.3 635.6,261.6 
		628.5,264.4 624.5,264.9 620.4,264.4 613.4,261.6 	"/>
	<polyline class="st9" points="607,255.3 610.6,255.6 620.6,254.8 624.5,255.3 628.5,254.8 638.4,255.6 642,255.3 	"/>
	<polyline class="st9" points="607,255.3 610.6,255.6 620.6,257.7 624.5,258.5 628.5,257.7 638.4,255.6 642,255.3 	"/>
	<circle id="rightShoulder" cx="518.9" cy="349.2" r="8.2"/>
	<circle id="rightElbow" cx="445.4" cy="439.3" r="8.2"/>
	<circle id="rightWrist" cx="352" cy="555.7" r="8.2"/>
	<circle id="rightHip" cx="569.2" cy="565" r="8.2"/>
	<circle id="rightKnee" cx="575.6" cy="725.2" r="8.2"/>
	<circle id="rightAnkle" cx="575.6" cy="933.2" r="8.2"/>
	<circle id="leftElbow" cx="806.2" cy="438.9" r="8.2"/>
	<circle id="leftWrist" cx="899.6" cy="555.2" r="8.2"/>
	<circle id="leftHip" cx="685.6" cy="564.2" r="8.2"/>
	<circle id="leftKnee" cx="685.6" cy="725.2" r="8.2"/>
	<circle id="leftAnkle" cx="685.6" cy="933.2" r="8.2"/>
	<circle id="rightEye0" cx="594.7" cy="215.1" r="0.8"/>
	<circle id="rightBrow1" cx="592.5" cy="203.2" r="0.8"/>
	<circle id="rightBrow4" cx="615.8" cy="206.2" r="0.8"/>
	<circle id="nose1" cx="623.7" cy="216.1" r="0.8"/>
	<circle id="rightBrow3" cx="606" cy="202.2" r="0.8"/>
	<circle id="rightEye1" cx="599.9" cy="211.4" r="0.8"/>
	<circle id="rightBrow0" cx="588.5" cy="206.9" r="0.8"/>
	<circle id="rightBrow2" cx="598.7" cy="202.2" r="0.8"/>
	<circle id="rightEye5" cx="599.9" cy="217.4" r="0.8"/>
	<circle id="rightEye2" cx="606.2" cy="211.4" r="0.8"/>
	<circle id="rightEye3" cx="611.4" cy="215.6" r="0.8"/>
	<circle id="nose0" cx="623.7" cy="210.3" r="0.8"/>
	<circle id="nose3" cx="623.7" cy="228.7" r="0.8"/>
	<circle id="rightNose0" cx="613" cy="233.2" r="0.8"/>
	<circle id="rightMouthCorner" cx="607" cy="255.3" r="0.8"/>
	<circle id="rightNose1" cx="618.2" cy="233.2" r="0.8"/>
	<circle id="rightUpperLipTop0" cx="613.9" cy="251.9" r="0.8"/>
	<circle id="nose2" cx="623.7" cy="221.6" r="0.8"/>
	<circle id="nose4" cx="623.7" cy="234" r="0.8"/>
	<circle id="upperLipTopMid" cx="624.5" cy="251.7" r="0.8"/>
	<circle id="rightUpperLipTop1" cx="620.4" cy="250.8" r="0.8"/>
	<path id="rightMiddleLip" d="M610.6,254.8c0.4,0,0.8,0.4,0.8,0.8c0,0.4-0.4,0.8-0.8,0.8s-0.8-0.4-0.8-0.8S610.2,254.8,610.6,254.8z
		"/>
	<circle id="lowerLipBottomMid" cx="624.5" cy="264.9" r="0.8"/>
	<circle id="upperLipBottomMid" cx="624.5" cy="255.3" r="0.8"/>
	<circle id="lowerLipTopMid" cx="624.5" cy="258.4" r="0.8"/>
	<circle id="rightUpperLipBottom1" cx="620.6" cy="254.8" r="0.8"/>
	<circle id="rightLowerLipTop0" cx="620.6" cy="257.7" r="0.8"/>
	<circle id="rightLowerLipBottom1" cx="620.4" cy="264.4" r="0.8"/>
	<circle id="rightLowerLipBottom0" cx="613.4" cy="261.6" r="0.8"/>
	<circle id="rightEye4" cx="606.2" cy="216.6" r="0.8"/>
	<circle id="jawMid" cx="624.5" cy="290.7" r="0.8"/>
	<circle id="rightJaw7" cx="609.5" cy="287.5" r="0.8"/>
	<circle id="rightJaw6" cx="599.5" cy="280.8" r="0.8"/>
	<circle id="rightJaw5" cx="587.9" cy="268.3" r="0.8"/>
	<circle id="rightJaw4" cx="581.1" cy="248.3" r="0.8"/>
	<circle id="rightJaw3" cx="580.3" cy="226.6" r="0.8"/>
	<circle id="rightJaw2" cx="580.3" cy="217.1" r="0.8"/>
	<circle id="rightJaw1" cx="581.1" cy="205.4" r="0.8"/>
	<circle id="rightJaw0" cx="583.6" cy="196.1" r="0.8"/>
	<circle id="topMid" cx="624.7" cy="170" r="0.8"/>
	<circle id="leftTop0" cx="644.4" cy="172.5" r="0.8"/>
	<circle id="leftTop1" cx="657" cy="182" r="0.8"/>
	<circle id="leftEye0" cx="654.3" cy="215.1" r="0.8"/>
	<circle id="leftBrow1" cx="656.2" cy="203.6" r="0.8"/>
	<circle id="leftBrow4" cx="632.6" cy="205.7" r="0.8"/>
	<circle id="leftBrow3" cx="642.6" cy="202.5" r="0.8"/>
	<circle id="leftEye1" cx="649.1" cy="211.4" r="0.8"/>
	<circle id="leftBrow0" cx="660.2" cy="206.5" r="0.8"/>
	<circle id="leftBrow2" cx="649.9" cy="202.1" r="0.8"/>
	<circle id="leftEye5" cx="649.1" cy="217.4" r="0.8"/>
	<circle id="leftEye2" cx="642.8" cy="211.4" r="0.8"/>
	<circle id="leftEye3" cx="637.6" cy="215.6" r="0.8"/>
	<circle id="leftNose0" cx="634.1" cy="233.2" r="0.8"/>
	<circle id="leftMouthCorner" cx="642" cy="255.3" r="0.8"/>
	<circle id="leftNose1" cx="629.3" cy="233.2" r="0.8"/>
	<circle id="leftUpperLipTop0" cx="635.1" cy="251.9" r="0.8"/>
	<circle id="leftUpperLipTop1" cx="628.7" cy="250.8" r="0.8"/>
	<path id="leftMiddleLip" d="M638.4,254.8c0.4,0,0.8,0.4,0.8,0.8c0,0.4-0.4,0.8-0.8,0.8s-0.8-0.4-0.8-0.8S638,254.8,638.4,254.8z"/>
	<circle id="leftUpperLipBottom1" cx="628.5" cy="254.8" r="0.8"/>
	<circle id="leftLowerLipTop0" cx="628.5" cy="257.7" r="0.8"/>
	<circle id="leftLowerLipBottom1" cx="628.7" cy="264.4" r="0.8"/>
	<circle id="leftLowerLipBottom0" cx="635.6" cy="261.6" r="0.8"/>
	<circle id="leftEye4" cx="642.8" cy="216.6" r="0.8"/>
	<circle id="leftJaw7" cx="639.3" cy="287.9" r="0.8"/>
	<circle id="leftJaw6" cx="649.3" cy="281.2" r="0.8"/>
	<circle id="leftJaw5" cx="660.9" cy="268.6" r="0.8"/>
	<circle id="leftJaw4" cx="667.7" cy="248.6" r="0.8"/>
	<circle id="leftJaw3" cx="668.5" cy="227" r="0.8"/>
	<circle id="leftJaw2" cx="668.5" cy="217.4" r="0.8"/>
	<circle id="leftJaw1" cx="667.7" cy="205.7" r="0.8"/>
	<circle id="leftJaw0" cx="665.2" cy="196.5" r="0.8"/>
	<circle id="rightTop0" cx="604.8" cy="172.5" r="0.8"/>
	<circle id="rightTop1" cx="592.2" cy="182" r="0.8"/>
	<circle id="leftShoulder" cx="731.8" cy="349.2" r="8.2"/>
</g>
</svg>
