<?xml version="1.0" encoding="utf-8"?>
<!-- Generator: Adobe Illustrator 25.0.0, SVG Export Plug-In . SVG Version: 6.00 Build 0)  -->
<svg version="1.1" id="Layer_1" xmlns="http://www.w3.org/2000/svg" xmlns:xlink="http://www.w3.org/1999/xlink" x="0px" y="0px"
	 viewBox="0 0 1200 1200" style="enable-background:new 0 0 1200 1200;" xml:space="preserve">
<style type="text/css">
	.st0{fill:#EBEBEB;stroke:#7F7F7F;stroke-miterlimit:10;}
	.st1{fill:#FFB83A;}
	.st2{fill:#FFFFFF;}
	.st3{clip-path:url(#SVGID_4_);}
	.st4{clip-path:url(#SVGID_6_);}
	.st5{fill:#ADADAD;}
	.st6{fill:#FFD991;stroke:#F4AE62;stroke-width:0.5;stroke-miterlimit:10;}
	.st7{fill:none;stroke:#000000;stroke-miterlimit:10;}
</style>
<g id="illustration">
	<path class="st0" d="M720.6,549.2L520.2,550c0,64.2-1.3,143.2-1.3,219.9v141.2l0,0c-0.8,13.5,7.7,63.1,50.2,59.5
		c41.2-3.5,42.7-48.3,42.4-60.1V771.2V595.4c0-5.3,4.3-9.6,9.6-9.6h6.8c5.3,0,9.6,4.3,9.6,9.6v175.8v139.9c0,0.1,0,0.2,0,0.3
		c-0.6,13.8,8,62.8,50.2,59.2c40.3-3.4,42.6-46.5,42.5-59.3c0-0.1,0-0.1,0-0.2V771.2V558.8C730.2,553.5,725.9,549.2,720.6,549.2z"/>
	<path class="st0" d="M520.3,559.1c-1.4-74.9-13.5-131.9,8.4-171.3c13.4-24.2,29.7-41.7,47.4-52.8c15.5-9.7,32.3-12.4,48.9-12.2
		c16.5,0.2,33.2,3.3,48.6,13.2c17.4,11.1,33.7,28.4,46.9,52c22.5,39.7,9.6,171.3,9.6,171.3"/>
	<path class="st0" d="M904.6,463.8"/>
	<path class="st0" d="M728.6,406.1c0,0,40.9,36.8,54.2,51.3s75.5,93.7,82.9,100.9c9.5,9.3,33.3,10.7,44.2,1.2
		c2-1.7,12.5-10.4,5.8-26.4s-57.7-84.9-82.5-115.2l0,0l0,0c-1-1.3-2-2.5-3-3.6l0,0c-2.2-2.7-4.4-5.4-6.6-8c-1.3-1.6-2-2.4-2-2.4l0,0
		c-70.3-80.3-157.2-80.6-170.1-79.5"/>
	<path class="st0" d="M874.5,547.9c0,0-2.1,8-4,16.9c-1.8,8.8-21.3,7.2-19.4-5.8c1.8-13.2,6.8-20.6,6.8-20.6"/>
	<path class="st0" d="M597.5,325c-15-1.3-97.4-4.7-169.9,78.1l0,0c0,0-0.7,0.8-2,2.4c-2.2,2.6-4.4,5.3-6.6,8l0,0c-1,1.1-2,2.3-3,3.6
		l0,0l0,0c-24.8,30.3-75.8,99.2-82.5,115.2s3.8,24.7,5.8,26.4c10.9,9.5,34.7,8.1,44.2-1.2c7.4-7.2,69.6-86.4,82.9-100.9
		s57.3-54.4,57.3-54.4"/>
	<path class="st0" d="M390.3,538.5c0,0,5,7.4,6.8,20.6c1.9,13-17.5,14.6-19.4,5.8c-1.8-8.9-4-16.9-4-16.9"/>
	<path class="st0" d="M592.7,328.3l8.3-39.6h49.5c0,0,4,21.2,7.5,40.2"/>
	<path class="st0" d="M699,255c-0.4-3.3-1.9-6.2-4.9-8.4c-3.4-2.5-7.3-3.8-11.4-4.3c-0.2,0-0.3,0-0.5,0c0.4-5.3,0.5-10.5,0.4-15.7
		c0-8.2-0.8-16.4-2.8-24.4c-1.4-5.6-3.6-11.1-6.7-16c-1.2-1.9-2.7-3.5-4.2-5.2c-8.5-9.5-28.3-17.4-32.5-18.9s-6.3-3-6.3-3
		s-2.5-1.4-3.6-2.1c-1-0.7-2.1-1.5-3-2.4c-0.9,0.9-4.3,3-6.6,4.5s-8.8,3.9-6.5,3s-24,9.5-32.5,18.9c-1.5,1.7-3,3.3-4.2,5.2
		c-3.1,4.9-5.2,10.4-6.7,16c-2,7.9-2.8,16.2-2.8,24.4c0,5.3,0,10.5,0.4,15.7c-0.2,0-0.3,0-0.5,0c-4.2,0.5-8,1.8-11.4,4.3
		c-3,2.2-4.5,5.2-4.9,8.4c-1.2,4.6-0.5,9.7,1.6,14.2c4,8.7,15.1,16.5,23.7,19.7c13.7,4.9,32.2,7.2,50.3,6.8
		c18.1,0.4,36.7-1.9,50.3-6.8c8.6-3.1,19.7-11,23.7-19.7C699.5,264.7,700.2,259.5,699,255z"/>
	<g>
		<path class="st1" d="M653.9,223.6c0,0-1.2,3.9-5.8,4.4c-8.8,1-13-3-13-3L653.9,223.6z"/>
		<path d="M635.1,225.1c0,0,2.6-8.2,11-7.4c7.2,0.7,7.8,5.9,7.8,5.9L635.1,225.1z"/>
		<g>
			<g>
				<path id="SVGID_1_" class="st2" d="M653.9,223.6c0.2-0.1-2.8-5-9.4-4.7c-6.6,0.3-9.4,6.2-9.4,6.2S643.6,228.8,653.9,223.6z"/>
			</g>
			<g>
				<g>
					<g>
						<g>
							<defs>
								<path id="SVGID_2_" d="M653.9,223.6c0.2-0.1-2.8-5-9.4-4.7c-6.6,0.3-9.4,6.2-9.4,6.2S643.6,228.8,653.9,223.6z"/>
							</defs>
							<clipPath id="SVGID_4_">
								<use xlink:href="#SVGID_2_"  style="overflow:visible;"/>
							</clipPath>
							<circle class="st3" cx="644" cy="221.9" r="4.3"/>
						</g>
					</g>
				</g>
			</g>
		</g>
		<circle id="leftEye0_2_" cx="654.1" cy="214.9" r="0.8"/>
		<circle id="leftEye1_2_" cx="648.9" cy="211.2" r="0.8"/>
		<circle id="leftEye5_2_" cx="648.9" cy="217.2" r="0.8"/>
		<circle id="leftEye2_2_" cx="642.6" cy="211.2" r="0.8"/>
		<circle id="leftEye3_2_" cx="637.4" cy="215.4" r="0.8"/>
		<circle id="leftEye4_2_" cx="642.6" cy="216.4" r="0.8"/>
	</g>
	<g>
		<path class="st1" d="M593.1,223.6c0,0,1.2,3.9,5.8,4.4c8.8,1,13-3,13-3L593.1,223.6z"/>
		<path d="M611.9,225.1c0,0-2.6-8.2-11-7.4c-7.2,0.7-7.8,5.9-7.8,5.9L611.9,225.1z"/>
		<g>
			<g>
				<path id="SVGID_3_" class="st2" d="M593.1,223.6c-0.2-0.1,2.8-5,9.4-4.7c6.6,0.3,9.4,6.2,9.4,6.2S603.4,228.8,593.1,223.6z"/>
			</g>
			<g>
				<g>
					<g>
						<g>
							<defs>
								<path id="SVGID_5_" d="M593.1,223.6c-0.2-0.1,2.8-5,9.4-4.7c6.6,0.3,9.4,6.2,9.4,6.2S603.4,228.8,593.1,223.6z"/>
							</defs>
							<clipPath id="SVGID_6_">
								<use xlink:href="#SVGID_5_"  style="overflow:visible;"/>
							</clipPath>
							<circle class="st4" cx="603" cy="221.9" r="4.3"/>
						</g>
					</g>
				</g>
			</g>
		</g>
		<circle id="rightEye0_2_" cx="594.5" cy="214.9" r="0.8"/>
		<circle id="rightEye1_2_" cx="599.7" cy="211.2" r="0.8"/>
		<circle id="rightEye5_2_" cx="599.7" cy="217.2" r="0.8"/>
		<circle id="rightEye2_2_" cx="606" cy="211.2" r="0.8"/>
		<circle id="rightEye3_2_" cx="611.2" cy="215.4" r="0.8"/>
		<circle id="rightEye4_2_" cx="606" cy="216.4" r="0.8"/>
	</g>
	<g>
		<g>
			<path class="st5" d="M600.7,180.4c1.8-0.9,3.6-1.6,5.4-2.3c1.9-0.7,3.8-1.2,5.7-1.7c3.8-0.9,7.8-1.4,11.7-1.6
				c4,0.2,7.9,0.7,11.7,1.6c1.9,0.5,3.8,1,5.7,1.7c1.8,0.7,3.7,1.4,5.4,2.3c-3.7-1.4-7.4-2.5-11.3-3.3c-3.8-0.8-7.7-1.3-11.6-1.3
				c-3.9,0.1-7.8,0.6-11.6,1.3C608.1,177.9,604.3,179,600.7,180.4z"/>
		</g>
		<g>
			<path class="st5" d="M606.3,181.5c2.7-1.1,5.5-1.9,8.4-2.5s5.8-1,8.7-1.2l0,0l0,0c2.9,0.2,5.9,0.5,8.7,1.2
				c2.9,0.6,5.7,1.4,8.4,2.5c-2.8-0.7-5.7-1.3-8.6-1.8c-2.9-0.4-5.8-0.8-8.6-0.9h0.1c-2.9,0.1-5.8,0.5-8.6,0.9
				C612,180.2,609.2,180.8,606.3,181.5z"/>
		</g>
		<g>
			<path class="st5" d="M614.8,183c2.7-1.2,5.7-1.7,8.7-1.9l0,0l0,0c3,0.2,6,0.8,8.7,1.9c-2.9-0.4-5.8-0.8-8.8-1h0.1
				C620.6,182.2,617.7,182.5,614.8,183z"/>
		</g>
		<g>
			<path class="st5" d="M610.5,184.4c0.4-0.3,0.8-0.6,1.3-0.7c0.5-0.2,0.9-0.3,1.5-0.3c-0.4,0.3-0.8,0.6-1.3,0.7
				C611.5,184.3,611,184.4,610.5,184.4z"/>
		</g>
		<g>
			<path class="st5" d="M636.5,184.4c-0.5,0-1-0.1-1.5-0.3s-0.9-0.4-1.3-0.7c0.5,0,1,0.1,1.5,0.3S636.1,184.1,636.5,184.4z"/>
		</g>
		<path d="M613.8,209.8c-1.5-1-4.9-1.9-4.9-1.9s-5.1-1.5-7.8-1.9c-2.6-0.3-5.2-0.2-7.7,0.7c-1.1,0.4-3.3,1.8-1,2.2
			c2.8,0.5,5.7,0.8,8.5,1c3.2,0.3,6.3,0.5,9.5,0.5c0.8,0,1.9,0.2,2.7-0.1C613.5,210.2,614.2,209.7,613.8,209.8z"/>
		<circle id="rightBrow1_2_" cx="592.3" cy="203" r="0.8"/>
		<circle id="rightBrow4_2_" cx="615.6" cy="206" r="0.8"/>
		<circle id="rightBrow3_2_" cx="605.8" cy="202" r="0.8"/>
		<circle id="rightBrow0_2_" cx="588.3" cy="206.7" r="0.8"/>
		<circle id="rightBrow2_2_" cx="598.5" cy="202" r="0.8"/>
		<path d="M633.2,209.8c1.5-1,4.9-1.9,4.9-1.9s5.1-1.5,7.8-1.9c2.6-0.3,5.2-0.2,7.7,0.7c1.1,0.4,3.3,1.8,1,2.2
			c-2.8,0.5-5.7,0.8-8.5,1c-3.2,0.3-6.3,0.5-9.5,0.5c-0.8,0-1.9,0.2-2.7-0.1C633.5,210.2,632.8,209.7,633.2,209.8z"/>
		<circle id="leftBrow1_2_" cx="656" cy="203.4" r="0.8"/>
		<circle id="leftBrow4_2_" cx="632.4" cy="205.5" r="0.8"/>
		<circle id="leftBrow3_2_" cx="642.4" cy="202.3" r="0.8"/>
		<circle id="leftBrow0_2_" cx="660" cy="206.3" r="0.8"/>
		<circle id="leftBrow2_2_" cx="649.7" cy="201.9" r="0.8"/>
	</g>
	<path class="st6" d="M614.6,236.2c-6.5,5.4-8.5,15.1-8.5,15.1s-15.3,1.4-14.6,8.5c0.7,6.9,11,14.4,31.9,14s31.2-7.2,31.9-14
		c0.7-7.1-15.8-8.5-15.8-8.5s-0.8-9.7-7.3-15.1c-3.3-2.8-8-4.3-9.3-4.6c-0.2-0.1-0.5,0-0.7,0.1C621.1,232.1,617.8,233.6,614.6,236.2
		z"/>
	<path d="M617.4,245.6c0.2,0.4,1.3,0.6,1.8,0.8c0.6,0.2,1.2,0.5,1.6,1c0.9,1-0.1,1.7-1.1,1.3c-1.1-0.4-1.9-1-2.4-2
		C617,246.5,616.7,245.8,617.4,245.6z"/>
	<path d="M629.6,245.6c-0.2,0.4-1.3,0.6-1.8,0.8c-0.6,0.2-1.2,0.5-1.6,1c-0.9,1,0.1,1.7,1.1,1.3c1.1-0.4,1.9-1,2.4-2
		C630,246.5,630.3,245.8,629.6,245.6z"/>
	<path d="M624.5,256.6c-0.5,0.3-0.9,0.3-1.4,0c-6-3.1-11.7,2.7-11.6,2.7c0,0,7-2.6,11.6-0.4c0.5,0.3,0.9,0.3,1.4,0
		c4.6-2.2,11.6,0.4,11.6,0.4C636.2,259.2,630.5,253.5,624.5,256.6z"/>
</g>
<g id="skeleton_1_">
	<polygon class="st7" points="518.8,349.5 569.1,565.3 685.5,564.5 731.7,349.5 	"/>
	<polyline class="st7" points="517.8,349.5 445.4,431.1 352,547.5 	"/>
	<polyline class="st7" points="733.2,349.1 806.2,430.7 899.6,547 	"/>
	<polyline class="st7" points="569.1,565.3 575.5,725.5 575.5,933.5 	"/>
	<polyline class="st7" points="685.5,564.5 685.5,725.5 685.5,933.5 	"/>
	<polyline class="st7" points="624.5,170 604.7,172.5 592.2,182 583.6,196.1 581.1,205.4 580.3,217.1 580.3,226.6 581.1,248.3 
		587.9,268.3 599.5,280.8 609.5,287.5 624.5,290.7 639.3,287.9 649.3,281.2 660.9,268.6 667.7,248.6 668.5,227 668.5,217.4 
		667.7,205.7 665.2,196.5 657,182 644.4,172.5 624.5,170 	"/>
	<polyline class="st7" points="588.5,206.9 592.5,203.2 598.7,202.2 606,202.2 615.8,206.2 	"/>
	<polygon class="st7" points="594.7,215.1 599.9,211.4 606.2,211.4 611.4,215.6 606.2,216.6 599.9,217.4 	"/>
	<polyline class="st7" points="613,233.2 618.2,233.2 623.7,234 623.7,228.7 623.7,221.6 623.7,216.1 623.7,210.3 	"/>
	<polyline class="st7" points="660,206.5 656,203.6 649.7,202.1 642.4,202.5 632.4,205.7 	"/>
	<polygon class="st7" points="654.1,215.1 648.8,211.4 642.5,211.4 637.4,215.6 642.5,216.6 648.8,217.4 	"/>
	<polyline class="st7" points="634.1,233.2 629.1,233.2 623.7,234 	"/>
	<polygon class="st7" points="607,255.3 613.9,251.9 620.4,250.8 624.5,251.7 628.7,250.8 635.1,251.9 642,255.3 635.6,261.6 
		628.5,264.4 624.5,264.9 620.4,264.4 613.4,261.6 	"/>
	<polyline class="st7" points="607,255.3 610.6,255.6 620.6,254.8 624.5,255.3 628.5,254.8 638.4,255.6 642,255.3 	"/>
	<polyline class="st7" points="607,255.3 610.6,255.6 620.6,257.7 624.5,258.5 628.5,257.7 638.4,255.6 642,255.3 	"/>
	<circle id="rightShoulder" cx="518.9" cy="349.2" r="8.2"/>
	<circle id="rightElbow" cx="445.4" cy="439.3" r="8.2"/>
	<circle id="rightWrist" cx="352" cy="555.7" r="8.2"/>
	<circle id="rightHip" cx="569.2" cy="565" r="8.2"/>
	<circle id="rightKnee" cx="575.6" cy="725.2" r="8.2"/>
	<circle id="rightAnkle" cx="575.6" cy="933.2" r="8.2"/>
	<circle id="leftElbow" cx="806.2" cy="438.9" r="8.2"/>
	<circle id="leftWrist" cx="899.6" cy="555.2" r="8.2"/>
	<circle id="leftHip" cx="685.6" cy="564.2" r="8.2"/>
	<circle id="leftKnee" cx="685.6" cy="725.2" r="8.2"/>
	<circle id="leftAnkle" cx="685.6" cy="933.2" r="8.2"/>
	<circle id="rightEye0" cx="594.7" cy="215.1" r="0.8"/>
	<circle id="rightBrow1" cx="592.5" cy="203.2" r="0.8"/>
	<circle id="rightBrow4" cx="615.8" cy="206.2" r="0.8"/>
	<circle id="nose1" cx="623.7" cy="216.1" r="0.8"/>
	<circle id="rightBrow3" cx="606" cy="202.2" r="0.8"/>
	<circle id="rightEye1" cx="599.9" cy="211.4" r="0.8"/>
	<circle id="rightBrow0" cx="588.5" cy="206.9" r="0.8"/>
	<circle id="rightBrow2" cx="598.7" cy="202.2" r="0.8"/>
	<circle id="rightEye5" cx="599.9" cy="217.4" r="0.8"/>
	<circle id="rightEye2" cx="606.2" cy="211.4" r="0.8"/>
	<circle id="rightEye3" cx="611.4" cy="215.6" r="0.8"/>
	<circle id="nose0" cx="623.7" cy="210.3" r="0.8"/>
	<circle id="nose3" cx="623.7" cy="228.7" r="0.8"/>
	<circle id="rightNose0" cx="613" cy="233.2" r="0.8"/>
	<circle id="rightMouthCorner" cx="607" cy="255.3" r="0.8"/>
	<circle id="rightNose1" cx="618.2" cy="233.2" r="0.8"/>
	<circle id="rightUpperLipTop0" cx="613.9" cy="251.9" r="0.8"/>
	<circle id="nose2" cx="623.7" cy="221.6" r="0.8"/>
	<circle id="nose4" cx="623.7" cy="234" r="0.8"/>
	<circle id="upperLipTopMid" cx="624.5" cy="251.7" r="0.8"/>
	<circle id="rightUpperLipTop1" cx="620.4" cy="250.8" r="0.8"/>
	<path id="rightMiddleLip" d="M610.6,254.8c0.4,0,0.8,0.4,0.8,0.8c0,0.4-0.4,0.8-0.8,0.8s-0.8-0.4-0.8-0.8S610.2,254.8,610.6,254.8z
		"/>
	<circle id="lowerLipBottomMid" cx="624.5" cy="264.9" r="0.8"/>
	<circle id="upperLipBottomMid" cx="624.5" cy="255.3" r="0.8"/>
	<circle id="lowerLipTopMid" cx="624.5" cy="258.4" r="0.8"/>
	<circle id="rightUpperLipBottom1" cx="620.6" cy="254.8" r="0.8"/>
	<circle id="rightLowerLipTop0" cx="620.6" cy="257.7" r="0.8"/>
	<circle id="rightLowerLipBottom1" cx="620.4" cy="264.4" r="0.8"/>
	<circle id="rightLowerLipBottom0" cx="613.4" cy="261.6" r="0.8"/>
	<circle id="rightEye4" cx="606.2" cy="216.6" r="0.8"/>
	<circle id="jawMid" cx="624.5" cy="290.7" r="0.8"/>
	<circle id="rightJaw7" cx="609.5" cy="287.5" r="0.8"/>
	<circle id="rightJaw6" cx="599.5" cy="280.8" r="0.8"/>
	<circle id="rightJaw5" cx="587.9" cy="268.3" r="0.8"/>
	<circle id="rightJaw4" cx="581.1" cy="248.3" r="0.8"/>
	<circle id="rightJaw3" cx="580.3" cy="226.6" r="0.8"/>
	<circle id="rightJaw2" cx="580.3" cy="217.1" r="0.8"/>
	<circle id="rightJaw1" cx="581.1" cy="205.4" r="0.8"/>
	<circle id="rightJaw0" cx="583.6" cy="196.1" r="0.8"/>
	<circle id="topMid" cx="624.7" cy="170" r="0.8"/>
	<circle id="leftTop0" cx="644.4" cy="172.5" r="0.8"/>
	<circle id="leftTop1" cx="657" cy="182" r="0.8"/>
	<circle id="leftEye0" cx="654.3" cy="215.1" r="0.8"/>
	<circle id="leftBrow1" cx="656.2" cy="203.6" r="0.8"/>
	<circle id="leftBrow4" cx="632.6" cy="205.7" r="0.8"/>
	<circle id="leftBrow3" cx="642.6" cy="202.5" r="0.8"/>
	<circle id="leftEye1" cx="649.1" cy="211.4" r="0.8"/>
	<circle id="leftBrow0" cx="660.2" cy="206.5" r="0.8"/>
	<circle id="leftBrow2" cx="649.9" cy="202.1" r="0.8"/>
	<circle id="leftEye5" cx="649.1" cy="217.4" r="0.8"/>
	<circle id="leftEye2" cx="642.8" cy="211.4" r="0.8"/>
	<circle id="leftEye3" cx="637.6" cy="215.6" r="0.8"/>
	<circle id="leftNose0" cx="634.1" cy="233.2" r="0.8"/>
	<circle id="leftMouthCorner" cx="642" cy="255.3" r="0.8"/>
	<circle id="leftNose1" cx="629.3" cy="233.2" r="0.8"/>
	<circle id="leftUpperLipTop0" cx="635.1" cy="251.9" r="0.8"/>
	<circle id="leftUpperLipTop1" cx="628.7" cy="250.8" r="0.8"/>
	<path id="leftMiddleLip" d="M638.4,254.8c0.4,0,0.8,0.4,0.8,0.8c0,0.4-0.4,0.8-0.8,0.8s-0.8-0.4-0.8-0.8S638,254.8,638.4,254.8z"/>
	<circle id="leftUpperLipBottom1" cx="628.5" cy="254.8" r="0.8"/>
	<circle id="leftLowerLipTop0" cx="628.5" cy="257.7" r="0.8"/>
	<circle id="leftLowerLipBottom1" cx="628.7" cy="264.4" r="0.8"/>
	<circle id="leftLowerLipBottom0" cx="635.6" cy="261.6" r="0.8"/>
	<circle id="leftEye4" cx="642.8" cy="216.6" r="0.8"/>
	<circle id="leftJaw7" cx="639.3" cy="287.9" r="0.8"/>
	<circle id="leftJaw6" cx="649.3" cy="281.2" r="0.8"/>
	<circle id="leftJaw5" cx="660.9" cy="268.6" r="0.8"/>
	<circle id="leftJaw4" cx="667.7" cy="248.6" r="0.8"/>
	<circle id="leftJaw3" cx="668.5" cy="227" r="0.8"/>
	<circle id="leftJaw2" cx="668.5" cy="217.4" r="0.8"/>
	<circle id="leftJaw1" cx="667.7" cy="205.7" r="0.8"/>
	<circle id="leftJaw0" cx="665.2" cy="196.5" r="0.8"/>
	<circle id="rightTop0" cx="604.8" cy="172.5" r="0.8"/>
	<circle id="rightTop1" cx="592.2" cy="182" r="0.8"/>
	<circle id="leftShoulder" cx="731.8" cy="349.2" r="8.2"/>
</g>
</svg>
