<?xml version="1.0" encoding="utf-8"?>
<!-- Generator: Adobe Illustrator 25.0.0, SVG Export Plug-In . SVG Version: 6.00 Build 0)  -->
<svg version="1.1" id="Layer_1" xmlns="http://www.w3.org/2000/svg" xmlns:xlink="http://www.w3.org/1999/xlink" x="0px" y="0px"
	 viewBox="0 0 1200 1200" style="enable-background:new 0 0 1200 1200;" xml:space="preserve">
<style type="text/css">
	.st0{fill:#D8C094;stroke:#8C683C;stroke-miterlimit:10;}
	.st1{fill:#FFE1B7;}
	.st2{fill:none;stroke:#000000;stroke-width:2;stroke-linecap:round;stroke-linejoin:round;stroke-miterlimit:10;}
	.st3{fill:#BA996D;}
	.st4{fill:#FFFFFF;}
	.st5{fill:#FFA284;}
	.st6{fill:none;stroke:#000000;stroke-miterlimit:10;}
</style>
<g id="illustration">
	<path class="st0" d="M720.6,549.2L520.2,550c0,64.2-1.3,143.2-1.3,219.9v141.2l0,0c-0.8,13.5,7.7,63.1,50.2,59.5
		c41.2-3.5,42.7-48.3,42.4-60.1V771.2V595.4c0-5.3,4.3-9.6,9.6-9.6h6.8c5.3,0,9.6,4.3,9.6,9.6v175.8v139.9c0,0.1,0,0.2,0,0.3
		c-0.6,13.8,8,62.8,50.2,59.2c40.3-3.4,42.6-46.5,42.5-59.3c0-0.1,0-0.1,0-0.2V771.2V558.8C730.2,553.5,725.9,549.2,720.6,549.2z"/>
	<path class="st0" d="M520.3,559.1c-1.4-74.9-13.5-131.9,8.4-171.3c13.4-24.2,29.7-41.7,47.4-52.8c15.5-9.7,32.3-12.4,48.9-12.2
		c16.5,0.2,33.2,3.3,48.6,13.2c17.4,11.1,33.7,28.4,46.9,52c22.5,39.7,9.6,171.3,9.6,171.3"/>
	<path class="st0" d="M904.6,463.8"/>
	<path class="st0" d="M728.6,407.1c0,0,40.9,36.8,54.2,51.3s75.5,93.7,82.9,100.9c9.5,9.3,33.3,10.7,44.2,1.2
		c2-1.7,12.5-10.4,5.8-26.4s-57.7-84.9-82.5-115.2l0,0l0,0c-1-1.3-2-2.5-3-3.6l0,0c-2.2-2.7-4.4-5.4-6.6-8c-1.3-1.6-2-2.4-2-2.4l0,0
		c-70.3-80.3-157.2-80.6-170.1-79.5"/>
	<path class="st0" d="M874.5,547.9c0,0-2.1,8-4,16.9c-1.8,8.8-21.3,7.2-19.4-5.8c1.8-13.2,6.8-20.6,6.8-20.6"/>
	<path class="st0" d="M597.5,325c-15-1.3-97.4-4.7-169.9,78.1l0,0c0,0-0.7,0.8-2,2.4c-2.2,2.6-4.4,5.3-6.6,8l0,0c-1,1.1-2,2.3-3,3.6
		l0,0l0,0c-24.8,30.3-75.8,99.2-82.5,115.2s3.8,24.7,5.8,26.4c10.9,9.5,34.7,8.1,44.2-1.2c7.4-7.2,69.6-86.4,82.9-100.9
		s57.3-54.4,57.3-54.4"/>
	<path class="st0" d="M390.3,538.5c0,0,5,7.4,6.8,20.6c1.9,13-17.5,14.6-19.4,5.8c-1.8-8.9-4-16.9-4-16.9"/>
	<path class="st0" d="M592.7,328.3l8.3-39.6h49.5c0,0,4,21.2,7.5,40.2"/>
	<path class="st0" d="M609.4,172.4c-2.2-6.1-6.6-11.7-11.1-15.9c-3.7-3.4-7.4-6.7-11.2-9.8c-4.1-3.3-8.8-6.1-13.4-8.6
		c-4.6-2.5-9.5-5-14.2-7.3c-1.1-0.5-5.1-2.7-6.2-2.2c-0.6,0.3-1.3,2.9-1.5,3.5c-1,2.5-1.7,5.1-2.2,7.8c-2.7,13.9-0.2,28.2,3,41.8
		c1.6,6.7,4.3,13.2,8.3,18.8l0.1,0.1c1.9,3.4,5.5,5.6,9.5,6.6c8.4,2.2,17.1,2.6,25-1.8c8.8-4.9,14.1-13.6,15.3-23.4
		C611,178.7,610.5,175.5,609.4,172.4z"/>
	<path class="st0" d="M638.1,172.4c2.2-6.1,6.6-11.7,11.1-15.9c3.7-3.4,7.4-6.7,11.2-9.8c4.1-3.3,8.8-6.1,13.4-8.6
		c4.6-2.5,9.5-5,14.2-7.3c1.1-0.5,5.1-2.7,6.2-2.2c0.6,0.3,1.3,2.9,1.5,3.5c1,2.5,1.7,5.1,2.2,7.8c2.7,13.9,0.2,28.2-3,41.8
		c-1.6,6.7-4.3,13.2-8.3,18.8l-0.1,0.1c-1.9,3.4-5.5,5.6-9.5,6.6c-8.4,2.2-17.1,2.6-25-1.8c-8.8-4.9-14.1-13.6-15.3-23.4
		C636.5,178.7,637,175.5,638.1,172.4z"/>
	<path class="st1" d="M557.6,141.4c-0.6-0.3,0.2,42.6,12.1,51.1c11.9,8.5,21.4,0,21.4,0s13.3-9.4,6.5-22
		C590.7,157.9,565.1,145.7,557.6,141.4z"/>
	<path class="st1" d="M690,141.4c0.6-0.3-0.2,42.6-12.1,51.1c-11.9,8.5-21.4,0-21.4,0s-13.3-9.4-6.5-22S682.5,145.7,690,141.4z"/>
	<path class="st0" d="M702.7,255.2c2.5,0.6,4.3-1.1,6.6-1.8c-5,6.4-38.6,46.8-83.8,48.9s-85.3-42.3-90.3-48.7
		c2.3,0.5,4.2,2.3,6.6,1.8c-2-3.3-7.9-7.8-10-11.6c2.3,0,6.8,0.2,7.7-0.2c-2.8-3-6.2-5.6-8.4-9.1c2.6,1.3,5.3,0.5,8.1,0.3
		c-1.1-1.8-4.9-3.3-5.9-5.2c0.6,1,5.9-3.7,6.3-4.1c1.7-1.9,2.9-3.8,3.9-6c0.2-0.4,0.4-0.9,0.6-1.4c1-2.3,2-4.7,3.1-6.9
		c0.8-1.8,1.7-3.4,2.6-5.2c1.1-2.1,2.2-4,3.4-5.9c0.6-0.9,1.2-1.9,1.8-2.8c7.9-11.3,18.9-19.3,31.7-23.8c1.8-0.6,3.6-1.1,5.4-1.7
		c14.9-4.1,30.1-5.6,45.5-3.3c12.8,1.9,26.2,5.7,36.9,13.4c5.7,4.1,11.3,9.4,15.2,15.5c0.1,0.2,0.3,0.4,0.4,0.6
		c1.8,2.8,3.7,5.7,5.3,8.6c0.9,1.6,1.6,3.1,2.2,4.8c0.1,0.2,0.1,0.3,0.2,0.5c0.9,2.5,2.1,5.5,3.7,8.3c2.4,4.3,5.6,8.3,9.8,9.3
		c-1,1.9-4.8,3.5-5.9,5.2c2.7,0.2,5.5,1,8.1-0.3c-2.3,3.5-5.7,6.1-8.4,9.1c0.9,0.5,5.4,0.2,7.7,0.2
		C710.6,247.3,704.7,251.7,702.7,255.2z"/>
	<path d="M623.8,235.4c-0.5,0-0.9,0-1.4,0c-1,0-2.1,0.2-3,0.5c-0.8,0.3-2,0.9-2.4,1.5c-0.6,1.1-0.2,2.7,0.7,4
		c1.1,1.6,1.9,2.2,3.6,3.1c0.6,0.3,2,0.6,2.5,0.6s2-0.3,2.5-0.6c1.7-0.9,2.6-1.5,3.6-3.1c0.9-1.3,1.3-3,0.7-4
		c-0.4-0.7-1.6-1.2-2.4-1.5c-0.9-0.3-2.1-0.5-3-0.5C624.7,235.4,624.2,235.3,623.8,235.4z"/>
	<g>
		<path d="M613.3,279.6c0.8,0.5,1.6,0.9,2.4,1.3c0.8,0.3,1.7,0.6,2.6,0.8c0.9,0.2,1.7,0.3,2.6,0.4l1.3,0.1l1.3,0.1h-0.1l1.3-0.1
			l1.3-0.1c0.9-0.1,1.8-0.2,2.6-0.4c0.9-0.2,1.7-0.4,2.6-0.8c0.8-0.3,1.7-0.7,2.4-1.3c-0.5,0.8-1.3,1.4-2.1,1.9s-1.7,0.9-2.6,1.3
			c-0.9,0.4-1.8,0.5-2.8,0.7c-0.9,0.2-1.9,0.2-2.8,0.3l0,0l0,0c-0.9-0.1-1.9-0.1-2.8-0.3c-0.9-0.2-1.9-0.4-2.8-0.7
			c-0.9-0.3-1.8-0.7-2.6-1.3C614.5,281,613.8,280.4,613.3,279.6z"/>
	</g>
	<line class="st2" x1="623.8" y1="243.2" x2="623.8" y2="254.1"/>
	<path class="st3" d="M626.6,171.9c0,7.6-2,18.7-4.4,18.7s-4.4-11.1-4.4-18.7c0-1.6,0.1-3.1,0.2-4.5c0.6,0,1.2-0.1,1.8-0.1
		c2.2-0.1,4.3-0.1,6.5,0C626.5,168.7,626.6,170.3,626.6,171.9z"/>
	<path class="st3" d="M638.6,171.9c0,7.6-2,13.8-4.4,13.8s-4.4-6.2-4.4-13.8c0-1.6,0.1-3.1,0.2-4.4c0.8,0,1.6,0.1,2.4,0.2
		c0.5,0,1,0.1,1.5,0.2c0.3,0,0.6,0.1,0.9,0.1c0.4,0.1,0.8,0.1,1.2,0.2c0.8,0.1,1.7,0.2,2.5,0.3v0.1
		C638.6,169.5,638.6,170.7,638.6,171.9z"/>
	<path class="st3" d="M613.3,170.6c0,7.6-2,13.8-4.4,13.8s-4.4-6.2-4.4-13.8c0-0.5,0-1,0-1.5c2.9-0.6,5.8-1,8.7-1.3
		C613.3,168.7,613.3,169.7,613.3,170.6z"/>
	<path class="st3" d="M695,205.6c-1.9,1.1-4,1.8-5.9,2.7c-3.4,1.4-7.1,2.3-10.6,3.3c-1,0.3-5.8,1.9-6.5,0.5c-0.9-1.8,5-5.2,6-5.9
		c2.9-1.9,5.7-3.7,8.4-5.8c1.1-0.9,2.2-2.1,3.3-3.1C691.5,200,693.4,202.7,695,205.6z"/>
	<path class="st3" d="M701.1,218.6c-0.1,0.1-0.3,0.1-0.5,0.2c-3.5,1.6-6.9,2.6-10.6,3.4c-3.6,0.8-7.3,2.3-11.1,1.8
		c-1.1-0.2-3.3-0.4-2.8-1.9c0.3-1,1.7-1.7,2.5-2.2c2.2-1.3,4.8-2.2,7.2-3.2c3.9-1.7,8-3.6,11.5-6C698.3,213,699.5,215.9,701.1,218.6
		z"/>
	<path class="st3" d="M573.4,211.3c-0.7,1.3-5.5-0.3-6.5-0.5c-3.6-0.9-7.2-1.8-10.6-3.3c-1.9-0.8-4.1-1.6-6-2.7
		c1.1-2,2.2-3.9,3.4-5.7c0.6-0.9,1.2-1.8,1.8-2.7c1.2,1,2.3,2.3,3.4,3.2c2.7,2.1,5.5,4,8.4,5.9C568.4,206.1,574.3,209.6,573.4,211.3
		z"/>
	<path class="st3" d="M566.4,223.5c-3.8,0.6-7.5-1-11.1-1.8c-3.8-0.8-7.1-1.8-10.6-3.4c-0.2-0.1-0.5-0.2-0.7-0.3
		c0.2-0.4,0.4-0.9,0.6-1.4c1-2.2,2-4.5,3.1-6.7c3.6,2.5,7.8,4.4,11.8,6.2c2.4,1,5,1.9,7.2,3.2c0.8,0.5,2.2,1.3,2.5,2.2
		C569.6,223.2,567.4,223.4,566.4,223.5z"/>
	<g>
		<path d="M606.8,197.3c-1.3-2.5-5.7-2.2-8-2.2c-2.5,0.1-5.2,0.2-7.6,1.1c-1.2,0.5-4.4,1.6-4,3.4c0.5,2.2,5,1.4,6.5,1.2
			c3-0.3,6.3-0.3,9.2-0.9C603.9,199.7,607.7,199,606.8,197.3z"/>
		<path d="M640.8,197.3c1.3-2.5,5.7-2.2,8-2.2c2.5,0.1,5.2,0.2,7.6,1.1c1.2,0.5,4.4,1.6,4,3.4c-0.5,2.2-5,1.4-6.5,1.2
			c-3-0.3-6.3-0.3-9.2-0.9C643.6,199.7,639.8,199,640.8,197.3z"/>
		<circle id="rightBrow1_1_" cx="592.3" cy="203.3" r="0.8"/>
		<circle id="rightBrow4_1_" cx="615.6" cy="206.3" r="0.8"/>
		<circle id="rightBrow3_1_" cx="605.8" cy="202.3" r="0.8"/>
		<circle id="rightBrow0_1_" cx="588.3" cy="207" r="0.8"/>
		<circle id="rightBrow2_1_" cx="598.5" cy="202.3" r="0.8"/>
		<circle id="leftBrow1_1_" cx="656" cy="203.7" r="0.8"/>
		<circle id="leftBrow4_1_" cx="632.4" cy="205.8" r="0.8"/>
		<circle id="leftBrow3_1_" cx="642.4" cy="202.6" r="0.8"/>
		<circle id="leftBrow0_1_" cx="660" cy="206.6" r="0.8"/>
		<circle id="leftBrow2_1_" cx="649.7" cy="202.2" r="0.8"/>
	</g>
	<g>
		<g>
			<path class="st4" d="M635.3,219.8c0,0,1.4-5.3,6.7-8.2c-1.3,2.3-2,5.1-2,8.1s0.7,5.7,2,8C638.4,225.7,636.8,222.8,635.3,219.8z"
				/>
			<path class="st4" d="M661.2,212.1c6.9,3.5,7.4,9.3,7.3,9.4c-0.4,0.6-2.9,4.3-7.8,6.5c1.4-2.4,2.2-5.2,2.2-8.4
				C662.9,216.8,662.3,214.2,661.2,212.1z"/>
			<path d="M642,211.5c2.7-1.5,6.4-2.4,11.5-1.7c3.2,0.4,5.7,1.2,7.6,2.2c1.1,2.2,1.7,4.8,1.7,7.5c0,3.1-0.8,6-2.2,8.4
				c-2.2,1-5,1.8-8.2,1.8c-4.8,0-8.1-0.8-10.5-2.1c-1.3-2.3-2-5-2-8C640,216.6,640.7,213.8,642,211.5z"/>
		</g>
		<g>
			<path d="M639.9,244.7c3.1-0.6,6.2-1.1,9.4-1.3c3.2-0.3,6.3-0.4,9.5-0.3c3.2,0.1,6.3,0.2,9.5,0.5c3.1,0.3,6.3,0.9,9.3,1.6
				c-3.2-0.1-6.3-0.3-9.4-0.5c-3.1-0.2-6.2-0.3-9.4-0.3c-3.1,0-6.2,0.1-9.4,0.3c-3.1,0.2-6.2,0.5-9.3,1L639.9,244.7z"/>
		</g>
		<g>
			<path d="M640,248.4c3,0.2,5.9,0.4,8.8,0.8c2.9,0.4,5.9,0.8,8.8,1.4c2.9,0.6,5.8,1.3,8.6,2.1c2.8,0.9,5.6,2,8.2,3.3
				c-2.9-0.8-5.7-1.6-8.5-2.3s-5.7-1.4-8.6-1.9c-2.9-0.5-5.8-1-8.7-1.4s-5.8-0.7-8.8-1L640,248.4z"/>
		</g>
		<g>
			<path d="M640.1,252.9c2.5,0.5,4.9,1,7.3,1.7c2.4,0.7,4.8,1.5,7.1,2.5s4.6,2,6.8,3.3s4.2,2.7,6,4.6l-6.6-3.5
				c-2.2-1.2-4.4-2.2-6.7-3.1s-4.6-1.7-7-2.5c-2.4-0.7-4.7-1.4-7.1-2L640.1,252.9z"/>
		</g>
		<circle id="leftEye0_1_" cx="654.1" cy="215.1" r="0.8"/>
		<circle id="leftEye1_1_" cx="648.9" cy="211.4" r="0.8"/>
		<circle id="leftEye5_1_" cx="648.9" cy="217.4" r="0.8"/>
		<circle id="leftEye2_1_" cx="642.6" cy="211.4" r="0.8"/>
		<circle id="leftEye3_1_" cx="637.4" cy="215.6" r="0.8"/>
		<circle id="leftEye4_1_" cx="642.6" cy="216.6" r="0.8"/>
	</g>
	<g>
		<path class="st4" d="M613.1,219.7c0,0-1.4-5.3-6.7-8.2c1.3,2.3,2,5.1,2,8.1s-0.7,5.7-2,8C609.9,225.6,611.6,222.7,613.1,219.7z"/>
		<path class="st4" d="M587.2,212c-6.9,3.5-7.4,9.3-7.3,9.4c0.4,0.6,2.9,4.3,7.8,6.5c-1.4-2.4-2.2-5.2-2.2-8.4
			C585.4,216.7,586.1,214.2,587.2,212z"/>
		<path d="M606.4,211.4c-2.7-1.5-6.4-2.4-11.5-1.7c-3.2,0.4-5.7,1.2-7.6,2.2c-1.1,2.2-1.7,4.8-1.7,7.5c0,3.1,0.8,6,2.2,8.4
			c2.2,1,5,1.8,8.2,1.8c4.8,0,8.1-0.8,10.5-2.1c1.3-2.3,2-5,2-8C608.4,216.5,607.6,213.7,606.4,211.4z"/>
		<g>
			<path d="M607.2,245c-3.1-0.5-6.2-0.8-9.3-1s-6.2-0.3-9.4-0.3c-3.1,0-6.2,0.2-9.4,0.3c-3.1,0.2-6.3,0.4-9.4,0.5
				c3.1-0.7,6.2-1.3,9.3-1.6s6.3-0.5,9.5-0.5c3.2-0.1,6.3,0,9.5,0.3c3.2,0.2,6.3,0.7,9.4,1.3L607.2,245z"/>
		</g>
		<g>
			<path d="M607.3,248.7c-2.9,0.3-5.8,0.6-8.8,1c-2.9,0.4-5.8,0.9-8.7,1.4s-5.7,1.2-8.6,1.9c-2.8,0.7-5.7,1.5-8.5,2.3
				c2.6-1.4,5.4-2.4,8.2-3.3c2.8-0.9,5.7-1.5,8.6-2.1c2.9-0.6,5.8-1.1,8.8-1.4c2.9-0.4,5.9-0.6,8.8-0.8L607.3,248.7z"/>
		</g>
		<g>
			<path d="M607.4,253.1c-2.4,0.6-4.8,1.3-7.1,2c-2.4,0.7-4.7,1.6-7,2.5s-4.5,1.9-6.7,3.1l-6.6,3.5c1.7-1.8,3.8-3.3,6-4.6
				c2.2-1.2,4.5-2.3,6.8-3.3s4.7-1.8,7.1-2.5c2.4-0.7,4.9-1.3,7.3-1.7L607.4,253.1z"/>
		</g>
		<circle id="rightEye0_1_" cx="594.5" cy="215.2" r="0.8"/>
		<circle id="rightEye1_1_" cx="599.7" cy="211.5" r="0.8"/>
		<circle id="rightEye5_1_" cx="599.7" cy="217.5" r="0.8"/>
		<circle id="rightEye2_1_" cx="606" cy="211.5" r="0.8"/>
		<circle id="rightEye3_1_" cx="611.2" cy="215.7" r="0.8"/>
		<circle id="rightEye4_1_" cx="606" cy="216.7" r="0.8"/>
	</g>
	<path class="st5" d="M623.5,254.4c-1,0.1-2.2,0.5-3.1,0.9s-3.9,1.7-3.5,2.9c0.4,1,1.6,1.9,2.5,2.3c1.3,0.7,2.6,1.1,4,1.1
		c1.4-0.1,2.7-0.5,4-1.1c0.9-0.5,2.2-1.3,2.5-2.3c0.4-1.3-2.4-2.5-3.5-2.9C625.7,254.8,624.5,254.5,623.5,254.4z"/>
	<path class="st2" d="M610.7,259.3c4.2,0.2,7.1-2.8,10.7-4.6c0.7-0.4,1.5-0.6,2.2-0.7c0.7,0.2,1.5,0.3,2.2,0.7
		c3.7,1.8,6.5,4.8,10.7,4.6"/>
	<path d="M623.6,262.6c-4.8,0.1-8-3.8-8-4.4c0.9-0.1,1.6-0.9,1.6-0.9c0.6,1.3,3.5,3.4,6.3,3.4c2.8,0,5.7-2.1,6.3-3.4
		c-0.1,0-0.1,0-0.1,0.1c0.7,0.2,1.3,0.7,2.1,0.8C631.8,258.8,628.3,262.5,623.6,262.6z"/>
</g>
<g id="skeleton_1_">
	<polygon class="st6" points="518.8,349.5 569.1,565.3 685.5,564.5 731.7,349.5 	"/>
	<polyline class="st6" points="517.8,349.5 445.4,431.1 352,547.5 	"/>
	<polyline class="st6" points="733.2,349.1 806.2,430.7 899.6,547 	"/>
	<polyline class="st6" points="569.1,565.3 575.5,725.5 575.5,933.5 	"/>
	<polyline class="st6" points="685.5,564.5 685.5,725.5 685.5,933.5 	"/>
	<polyline class="st6" points="624.5,170 604.7,172.5 592.2,182 583.6,196.1 581.1,205.4 580.3,217.1 580.3,226.6 581.1,248.3 
		587.9,268.3 599.5,280.8 609.5,287.5 624.5,290.7 639.3,287.9 649.3,281.2 660.9,268.6 667.7,248.6 668.5,227 668.5,217.4 
		667.7,205.7 665.2,196.5 657,182 644.4,172.5 624.5,170 	"/>
	<polyline class="st6" points="588.5,206.9 592.5,203.2 598.7,202.2 606,202.2 615.8,206.2 	"/>
	<polygon class="st6" points="594.7,215.1 599.9,211.4 606.2,211.4 611.4,215.6 606.2,216.6 599.9,217.4 	"/>
	<polyline class="st6" points="613,233.2 618.2,233.2 623.7,234 623.7,228.7 623.7,221.6 623.7,216.1 623.7,210.3 	"/>
	<polyline class="st6" points="660,206.5 656,203.6 649.7,202.1 642.4,202.5 632.4,205.7 	"/>
	<polygon class="st6" points="654.1,215.1 648.8,211.4 642.5,211.4 637.4,215.6 642.5,216.6 648.8,217.4 	"/>
	<polyline class="st6" points="634.1,233.2 629.1,233.2 623.7,234 	"/>
	<polygon class="st6" points="607,255.3 613.9,251.9 620.4,250.8 624.5,251.7 628.7,250.8 635.1,251.9 642,255.3 635.6,261.6 
		628.5,264.4 624.5,264.9 620.4,264.4 613.4,261.6 	"/>
	<polyline class="st6" points="607,255.3 610.6,255.6 620.6,254.8 624.5,255.3 628.5,254.8 638.4,255.6 642,255.3 	"/>
	<polyline class="st6" points="607,255.3 610.6,255.6 620.6,257.7 624.5,258.5 628.5,257.7 638.4,255.6 642,255.3 	"/>
	<circle id="rightShoulder" cx="518.9" cy="349.2" r="8.2"/>
	<circle id="rightElbow" cx="445.4" cy="439.3" r="8.2"/>
	<circle id="rightWrist" cx="352" cy="555.7" r="8.2"/>
	<circle id="rightHip" cx="569.2" cy="565" r="8.2"/>
	<circle id="rightKnee" cx="575.6" cy="725.2" r="8.2"/>
	<circle id="rightAnkle" cx="575.6" cy="933.2" r="8.2"/>
	<circle id="leftElbow" cx="806.2" cy="438.9" r="8.2"/>
	<circle id="leftWrist" cx="899.6" cy="555.2" r="8.2"/>
	<circle id="leftHip" cx="685.6" cy="564.2" r="8.2"/>
	<circle id="leftKnee" cx="685.6" cy="725.2" r="8.2"/>
	<circle id="leftAnkle" cx="685.6" cy="933.2" r="8.2"/>
	<circle id="rightEye0" cx="594.7" cy="215.1" r="0.8"/>
	<circle id="rightBrow1" cx="592.5" cy="203.2" r="0.8"/>
	<circle id="rightBrow4" cx="615.8" cy="206.2" r="0.8"/>
	<circle id="nose1" cx="623.7" cy="216.1" r="0.8"/>
	<circle id="rightBrow3" cx="606" cy="202.2" r="0.8"/>
	<circle id="rightEye1" cx="599.9" cy="211.4" r="0.8"/>
	<circle id="rightBrow0" cx="588.5" cy="206.9" r="0.8"/>
	<circle id="rightBrow2" cx="598.7" cy="202.2" r="0.8"/>
	<circle id="rightEye5" cx="599.9" cy="217.4" r="0.8"/>
	<circle id="rightEye2" cx="606.2" cy="211.4" r="0.8"/>
	<circle id="rightEye3" cx="611.4" cy="215.6" r="0.8"/>
	<circle id="nose0" cx="623.7" cy="210.3" r="0.8"/>
	<circle id="nose3" cx="623.7" cy="228.7" r="0.8"/>
	<circle id="rightNose0" cx="613" cy="233.2" r="0.8"/>
	<circle id="rightMouthCorner" cx="607" cy="255.3" r="0.8"/>
	<circle id="rightNose1" cx="618.2" cy="233.2" r="0.8"/>
	<circle id="rightUpperLipTop0" cx="613.9" cy="251.9" r="0.8"/>
	<circle id="nose2" cx="623.7" cy="221.6" r="0.8"/>
	<circle id="nose4" cx="623.7" cy="234" r="0.8"/>
	<circle id="upperLipTopMid" cx="624.5" cy="251.7" r="0.8"/>
	<circle id="rightUpperLipTop1" cx="620.4" cy="250.8" r="0.8"/>
	<path id="rightMiddleLip" d="M610.6,254.8c0.4,0,0.8,0.4,0.8,0.8c0,0.4-0.4,0.8-0.8,0.8s-0.8-0.4-0.8-0.8S610.2,254.8,610.6,254.8z
		"/>
	<circle id="lowerLipBottomMid" cx="624.5" cy="264.9" r="0.8"/>
	<circle id="upperLipBottomMid" cx="624.5" cy="255.3" r="0.8"/>
	<circle id="lowerLipTopMid" cx="624.5" cy="258.4" r="0.8"/>
	<circle id="rightUpperLipBottom1" cx="620.6" cy="254.8" r="0.8"/>
	<circle id="rightLowerLipTop0" cx="620.6" cy="257.7" r="0.8"/>
	<circle id="rightLowerLipBottom1" cx="620.4" cy="264.4" r="0.8"/>
	<circle id="rightLowerLipBottom0" cx="613.4" cy="261.6" r="0.8"/>
	<circle id="rightEye4" cx="606.2" cy="216.6" r="0.8"/>
	<circle id="jawMid" cx="624.5" cy="290.7" r="0.8"/>
	<circle id="rightJaw7" cx="609.5" cy="287.5" r="0.8"/>
	<circle id="rightJaw6" cx="599.5" cy="280.8" r="0.8"/>
	<circle id="rightJaw5" cx="587.9" cy="268.3" r="0.8"/>
	<circle id="rightJaw4" cx="581.1" cy="248.3" r="0.8"/>
	<circle id="rightJaw3" cx="580.3" cy="226.6" r="0.8"/>
	<circle id="rightJaw2" cx="580.3" cy="217.1" r="0.8"/>
	<circle id="rightJaw1" cx="581.1" cy="205.4" r="0.8"/>
	<circle id="rightJaw0" cx="583.6" cy="196.1" r="0.8"/>
	<circle id="topMid" cx="624.7" cy="170" r="0.8"/>
	<circle id="leftTop0" cx="644.4" cy="172.5" r="0.8"/>
	<circle id="leftTop1" cx="657" cy="182" r="0.8"/>
	<circle id="leftEye0" cx="654.3" cy="215.1" r="0.8"/>
	<circle id="leftBrow1" cx="656.2" cy="203.6" r="0.8"/>
	<circle id="leftBrow4" cx="632.6" cy="205.7" r="0.8"/>
	<circle id="leftBrow3" cx="642.6" cy="202.5" r="0.8"/>
	<circle id="leftEye1" cx="649.1" cy="211.4" r="0.8"/>
	<circle id="leftBrow0" cx="660.2" cy="206.5" r="0.8"/>
	<circle id="leftBrow2" cx="649.9" cy="202.1" r="0.8"/>
	<circle id="leftEye5" cx="649.1" cy="217.4" r="0.8"/>
	<circle id="leftEye2" cx="642.8" cy="211.4" r="0.8"/>
	<circle id="leftEye3" cx="637.6" cy="215.6" r="0.8"/>
	<circle id="leftNose0" cx="634.1" cy="233.2" r="0.8"/>
	<circle id="leftMouthCorner" cx="642" cy="255.3" r="0.8"/>
	<circle id="leftNose1" cx="629.3" cy="233.2" r="0.8"/>
	<circle id="leftUpperLipTop0" cx="635.1" cy="251.9" r="0.8"/>
	<circle id="leftUpperLipTop1" cx="628.7" cy="250.8" r="0.8"/>
	<path id="leftMiddleLip" d="M638.4,254.8c0.4,0,0.8,0.4,0.8,0.8c0,0.4-0.4,0.8-0.8,0.8s-0.8-0.4-0.8-0.8S638,254.8,638.4,254.8z"/>
	<circle id="leftUpperLipBottom1" cx="628.5" cy="254.8" r="0.8"/>
	<circle id="leftLowerLipTop0" cx="628.5" cy="257.7" r="0.8"/>
	<circle id="leftLowerLipBottom1" cx="628.7" cy="264.4" r="0.8"/>
	<circle id="leftLowerLipBottom0" cx="635.6" cy="261.6" r="0.8"/>
	<circle id="leftEye4" cx="642.8" cy="216.6" r="0.8"/>
	<circle id="leftJaw7" cx="639.3" cy="287.9" r="0.8"/>
	<circle id="leftJaw6" cx="649.3" cy="281.2" r="0.8"/>
	<circle id="leftJaw5" cx="660.9" cy="268.6" r="0.8"/>
	<circle id="leftJaw4" cx="667.7" cy="248.6" r="0.8"/>
	<circle id="leftJaw3" cx="668.5" cy="227" r="0.8"/>
	<circle id="leftJaw2" cx="668.5" cy="217.4" r="0.8"/>
	<circle id="leftJaw1" cx="667.7" cy="205.7" r="0.8"/>
	<circle id="leftJaw0" cx="665.2" cy="196.5" r="0.8"/>
	<circle id="rightTop0" cx="604.8" cy="172.5" r="0.8"/>
	<circle id="rightTop1" cx="592.2" cy="182" r="0.8"/>
	<circle id="leftShoulder" cx="731.8" cy="349.2" r="8.2"/>
</g>
</svg>
