<?xml version="1.0" encoding="utf-8"?>
<!-- Generator: Adobe Illustrator 25.0.0, SVG Export Plug-In . SVG Version: 6.00 Build 0)  -->
<svg version="1.1" id="Layer_1" xmlns="http://www.w3.org/2000/svg" xmlns:xlink="http://www.w3.org/1999/xlink" x="0px" y="0px"
	 viewBox="0 0 1200 1200" style="enable-background:new 0 0 1200 1200;" xml:space="preserve">
<style type="text/css">
	.st0{fill:#F5F5F5;stroke:#B7B7B7;stroke-miterlimit:10;}
	.st1{fill:#FFD1CA;}
	.st2{fill:#F5F5F5;}
	.st3{fill:#F5F5BB;stroke:#000000;stroke-miterlimit:10;}
	.st4{fill:#FFA284;}
	.st5{fill:none;stroke:#000000;stroke-miterlimit:10;}
	.st6{fill:#B3B3B3;}
</style>
<g id="illustration">
	<path class="st0" d="M720.6,549.2L520.2,550c0,64.2-1.3,143.2-1.3,219.9v141.2l0,0c-0.8,13.5,7.7,63.1,50.2,59.5
		c41.2-3.5,42.7-48.3,42.4-60.1V771.2V595.4c0-5.3,4.3-9.6,9.6-9.6h6.8c5.3,0,9.6,4.3,9.6,9.6v175.8v139.9c0,0.1,0,0.2,0,0.3
		c-0.6,13.8,8,62.8,50.2,59.2c40.3-3.4,42.6-46.5,42.5-59.3c0-0.1,0-0.1,0-0.2V771.2V558.8C730.2,553.5,725.9,549.2,720.6,549.2z"/>
	<path class="st0" d="M520.3,559.1c-1.4-74.9-13.5-131.9,8.4-171.3c13.4-24.2,29.7-41.7,47.4-52.8c15.5-9.7,32.3-12.4,48.9-12.2
		c16.5,0.2,33.2,3.3,48.6,13.2c17.4,11.1,33.7,28.4,46.9,52c22.5,39.7,9.6,171.3,9.6,171.3"/>
	<path class="st0" d="M904.6,463.8"/>
	<path class="st0" d="M593.8,349c-0.3-0.3-0.5-0.6-0.6-0.9l11-51.3h38.1c0,0,7.8,38.6,10.4,52.1c-0.2,0.2-0.3,0.5-0.5,0.7"/>
	<path class="st0" d="M725.6,407.1c0,0,40.9,36.8,54.2,51.3s75.5,93.7,82.9,100.9c9.5,9.3,33.3,10.7,44.2,1.2
		c2-1.7,12.5-10.4,5.8-26.4s-57.7-84.9-82.5-115.2l0,0l0,0c-1-1.3-2-2.5-3-3.6l0,0c-2.2-2.7-4.4-5.4-6.6-8c-1.3-1.6-2-2.4-2-2.4l0,0
		c-70.3-80.3-157.2-80.6-170.1-79.5"/>
	<path class="st0" d="M874.5,547.9c0,0-2.1,8-4,16.9c-1.8,8.8-21.3,7.2-19.4-5.8c1.8-13.2,6.8-20.6,6.8-20.6"/>
	<path class="st0" d="M597.5,326c-15-1.3-97.4-4.7-169.9,78.1l0,0c0,0-0.7,0.8-2,2.4c-2.2,2.6-4.4,5.3-6.6,8l0,0c-1,1.1-2,2.3-3,3.6
		l0,0l0,0c-24.8,30.3-75.8,99.2-82.5,115.2s3.8,24.7,5.8,26.4c10.9,9.5,34.7,8.1,44.2-1.2c7.4-7.2,69.6-86.4,82.9-100.9
		s57.3-54.4,57.3-54.4"/>
	<path class="st0" d="M390.3,538.5c0,0,5,7.4,6.8,20.6c1.9,13-17.5,14.6-19.4,5.8c-1.8-8.9-4-16.9-4-16.9"/>
	<path class="st0" d="M566.3,185.8c0.8,2.4,2.1,4.6,4.6,4.9c3.9,0.5,8.2-0.8,11.6-2.4c2.8-1.3,5.4-3,7.6-5.2
		c2.1-2.1,6.2-3.9,7.7-6.5c1.8-3.3,5-8.7,3-16.6c-1.3-5.2-6-17.1-8.6-21.8c-3-5.5-6.2-10.8-9.8-15.8c-3.5-5-7.1-10.1-11.2-14.6
		c-2.1-2.3-3.7-4-5.3-0.7c-3.7,7.7-3.4,17.7-3.5,26c-0.1,8.4-0.7,16.8-0.4,25.2c0.1,4,0.5,7.9,1,11.8c0.3,2,0.6,4,1,6
		c0.3,1.9,0.9,3.7,1.3,5.6C565.6,183.2,565.8,184.5,566.3,185.8z"/>
	<path class="st1" d="M571.1,158.1c-2.1,1.5-0.2,3.5,1.4,4.9c-0.7,1.4-2.6,1.8-1,3.4c0.5,0.5,1.4,0.4,1.5,1.2c0,0.6-1.1,1.9-1.2,2.5
		c-0.8,3.6,3.5,1.5,5.1,0.5c2.5-1.6,4.9-3.2,7.3-5c1.6-1.2,4-2.5,4.7-4.4c0.6-1.6-0.1-3.5-0.6-5c-1.1-3.2-2.3-6.3-3.6-9.4
		c-2.1-5.2-4.5-10.3-7.1-15.3c-1.1-2.1-2.2-4.1-3.4-6.2c-0.6-1.1-1-2.6-2.1-3.1c-0.2-1-0.3,1.2-0.3,1.7c0.1,2.6,1.7,5,2.4,7.5
		c-0.2-0.4-0.5-0.8-0.7-1c0.1,0.8-0.5,1.6-0.4,2.3c0.1,1.1,1.3,2.3,1.9,3.2c-1.4-1.6-2-1.1-2.1,0.8c-0.1,2.4,0.8,5.7,2.4,7.5
		c-0.8,0.4-2.6-0.1-3.2,0.6c-0.7,1,0.9,4.4,1.2,5.4c0.4,1.5,0.6,1.3-0.8,1.7c-1.4,0.4-2.5-0.1-2,1.8c0.3,1,2.3,2.4,2.1,3.4
		C572.5,157.9,571.8,157.6,571.1,158.1z"/>
	<path class="st0" d="M681.1,185.8c-0.8,2.4-2.1,4.6-4.6,4.9c-3.9,0.5-8.2-0.8-11.6-2.4c-2.8-1.3-5.4-3-7.6-5.2
		c-2.1-2.1-6.2-3.9-7.7-6.5c-1.8-3.3-5-8.7-3-16.6c1.3-5.2,6-17.1,8.6-21.8c3-5.5,6.2-10.8,9.8-15.8c3.5-5,7.1-10.1,11.2-14.6
		c2.1-2.3,3.7-4,5.3-0.7c3.7,7.7,3.4,17.7,3.5,26c0.1,8.4,0.7,16.8,0.4,25.2c-0.1,4-0.5,7.9-1,11.8c-0.3,2-0.6,4-1,6
		c-0.3,1.9-0.9,3.7-1.3,5.6C681.8,183.2,681.5,184.5,681.1,185.8z"/>
	<path class="st1" d="M676.2,158.1c2.1,1.5,0.2,3.5-1.4,4.9c0.7,1.4,2.6,1.8,1,3.4c-0.5,0.5-1.4,0.4-1.5,1.2c0,0.6,1.1,1.9,1.2,2.5
		c0.8,3.6-3.5,1.5-5.1,0.5c-2.5-1.6-4.9-3.2-7.3-5c-1.6-1.2-4-2.5-4.7-4.4c-0.6-1.6,0.1-3.5,0.6-5c1.1-3.2,2.3-6.3,3.6-9.4
		c2.1-5.2,4.5-10.3,7.1-15.3c1.1-2.1,2.2-4.1,3.4-6.2c0.6-1.1,1-2.6,2.1-3.1c0.2-1,0.3,1.2,0.3,1.7c-0.1,2.6-1.7,5-2.4,7.5
		c0.2-0.4,0.5-0.8,0.7-1c-0.1,0.8,0.5,1.6,0.4,2.3c-0.1,1.1-1.3,2.3-1.9,3.2c1.4-1.6,2-1.1,2.1,0.8c0.1,2.4-0.8,5.7-2.4,7.5
		c0.8,0.4,2.6-0.1,3.2,0.6c0.7,1-0.9,4.4-1.2,5.4c-0.4,1.5-0.6,1.3,0.8,1.7c1.4,0.4,2.5-0.1,2,1.8c-0.3,1-2.3,2.4-2.1,3.4
		C674.9,157.9,675.6,157.6,676.2,158.1z"/>
	<path class="st2" d="M566.2,183L566.2,183c0-0.1,0-0.1,0.1-0.1C566.2,182.9,566.2,182.9,566.2,183z"/>
	<path class="st2" d="M681.2,183C681.2,183,681.1,183,681.2,183c0-0.1,0-0.1-0.1-0.1C681.1,182.9,681.1,182.9,681.2,183z"/>
	<path class="st0" d="M623.7,152.9c-0.6-0.1-5.2,0.3-6.2,0.4c-2.8,0.2-6.8,0.6-10.7,1.4c-2.7,0.6-5.3,1.4-7.7,2.6
		c-3.1,1.6-5.4,3.9-7.9,6.3c-2.6,2.5-5.7,4.3-8.7,6.3c-4,2.8-7.6,6.2-10.8,9.9c-2.3,2.7-4.3,5.6-5.6,8.9c-1.9,4.7-2,9.6-2.9,14.5
		c-1,5.3-1.3,10.9-1.9,16.3c-0.3,2.5,4.3,36.9,14.6,54.8c11.9,20.8,30.9,25.4,47.8,25.4c16.8,0,37.5-4.2,49.4-24.9
		c10.5-18.1,13.2-52.8,12.9-55.4c-0.6-5.4-0.9-10.9-1.9-16.3c-0.9-4.9-1-9.8-2.9-14.5c-1.3-3.3-3.4-6.2-5.6-8.9
		c-3.1-3.7-6.8-7.1-10.8-9.9c-2.9-2.1-6-3.9-8.7-6.3c-2.5-2.3-4.7-4.7-7.9-6.3c-2.4-1.2-5.1-2-7.7-2.6c-3.9-0.8-7.9-1.2-10.7-1.4
		C628.9,153.2,624.3,152.9,623.7,152.9z"/>
	<path class="st2" d="M566.2,183L566.2,183c-0.1,0.1-0.1,0.2-0.1,0.2c0,0.1,0,0.2,0,0.2C566.1,183.2,566.2,183.1,566.2,183z"/>
	<path class="st2" d="M681.1,183C681.1,183,681.2,183,681.1,183c0.1,0.1,0.1,0.2,0.1,0.2c0,0.1,0,0.2,0,0.2
		C681.3,183.2,681.2,183.1,681.1,183z"/>
	<path class="st2" d="M566.1,183v0.1C566.1,183.1,566.2,183,566.1,183C566.2,183,566.1,183,566.1,183z"/>
	<path class="st2" d="M681.3,183v0.1C681.2,183.1,681.2,183,681.3,183C681.2,183,681.2,183,681.3,183z"/>
	<path class="st3" d="M605.9,257.3c-0.7,0.5,2,7.2,4,6.3c1.6-0.8,1.4-4.5,1.4-5.8"/>
	<path class="st3" d="M641.5,257.3c0.7,0.5-2,7.2-4,6.3c-1.6-0.8-1.4-4.5-1.4-5.8"/>
	<path class="st4" d="M623.7,252.5c-1.4,0.2-3,0.7-4.3,1.3s-5.4,2.5-4.8,4.4c0.5,1.5,2.2,2.8,3.5,3.5c1.8,1,3.6,1.6,5.5,1.7
		c1.9-0.1,3.7-0.7,5.5-1.7c1.3-0.8,3.1-2,3.5-3.5c0.6-1.9-3.4-3.8-4.8-4.4C626.7,253.2,625.1,252.7,623.7,252.5z"/>
	<path class="st5" d="M597.5,246.1c0.5,2.7,2.3,6.1,3.6,7.6c2.3,2.7,5,3.9,8.5,4.1c4.6,0.2,7.7-2.8,11.7-4.6
		c0.8-0.4,1.6-0.6,2.4-0.7c0.8,0.2,1.6,0.3,2.4,0.7c4,1.8,7.1,4.8,11.7,4.6c3.6-0.1,6.2-1.4,8.5-4.1c1.3-1.5,3.1-4.9,3.6-7.6"/>
	<circle cx="603.5" cy="246.7" r="0.6"/>
	<circle cx="643.9" cy="246.7" r="0.6"/>
	<circle cx="611.3" cy="244.3" r="0.6"/>
	<circle cx="636.1" cy="244.3" r="0.6"/>
	<circle cx="606.9" cy="242.4" r="0.6"/>
	<circle cx="640.5" cy="242.4" r="0.6"/>
	<circle cx="610.6" cy="249.8" r="0.6"/>
	<circle cx="636.7" cy="249.8" r="0.6"/>
	<path d="M623.7,265.7c-1,0-1.9,0-2.2-0.1c-1.8-0.3-3.8-0.9-5.4-1.9c-1.5-0.9-2.7-2.1-3.6-3.6c-0.5-0.8-0.9-1.6-0.9-2.6
		c1.2-0.2,2.4-0.9,3.4-1.1c0-0.1-0.1-0.1-0.1-0.1c0.9,2.2,2.6,3.8,4.6,4.9c1,0.5,2.1,0.7,3.2,0.7c0.2,0,0.5,0,0.9,0s0.8,0,0.9,0
		c1.1,0,2.2-0.2,3.2-0.7c2-1.1,3.8-2.8,4.6-4.9c-0.1,0-0.1,0-0.1,0.1c1,0.3,2.2,0.9,3.4,1.1c0.1,1-0.4,1.8-0.9,2.6
		c-0.9,1.5-2.1,2.7-3.6,3.6c-1.6,1-3.6,1.6-5.4,1.9C625.5,265.7,624.7,265.7,623.7,265.7z"/>
	<g>
		<path d="M604,205.7c-4.1-2.3-8.2,0.7-8.6,5c-0.2,2.4,0.6,4.5,3,5.4c2.5,0.8,6.5,0.4,7.9-2.1C607.7,211.5,606.6,208,604,205.7z"/>
		<path class="st6" d="M609.1,217.2c-0.8,0.6-1.4,1.5-2.2,2.1c-1.1,0.9-2.5,1.6-3.9,1.8c-1.1,0.2-2.2,0-3.2,0.2
			c-0.9,0.2-0.8,0.8-0.1,1.3c1.1,0.7,3.2,0.4,4.5,0.2c1.8-0.4,3.6-1.4,4.6-2.9c0.4-0.7,0.8-1.4,0.6-2.2
			C609.2,217.5,609.1,217.1,609.1,217.2z"/>
		<circle id="rightEye0_1_" cx="594.6" cy="215.1" r="0.8"/>
		<circle id="rightEye1_1_" cx="599.8" cy="211.4" r="0.8"/>
		<circle id="rightEye5_1_" cx="599.8" cy="217.4" r="0.8"/>
		<circle id="rightEye2_1_" cx="606.1" cy="211.4" r="0.8"/>
		<circle id="rightEye3_1_" cx="611.3" cy="215.6" r="0.8"/>
		<circle id="rightEye4_1_" cx="606.1" cy="216.6" r="0.8"/>
	</g>
	<g>
		<path d="M643.3,205.7c4.1-2.3,8.2,0.7,8.6,5c0.2,2.4-0.6,4.5-3,5.4c-2.5,0.8-6.5,0.4-7.9-2.1C639.7,211.5,640.8,208,643.3,205.7z"
			/>
		<path class="st6" d="M638.3,217.2c0.8,0.6,1.4,1.5,2.2,2.1c1.1,0.9,2.5,1.6,3.9,1.8c1.1,0.2,2.2,0,3.2,0.2
			c0.9,0.2,0.8,0.8,0.1,1.3c-1.1,0.7-3.2,0.4-4.5,0.2c-1.8-0.4-3.6-1.4-4.6-2.9c-0.4-0.7-0.8-1.4-0.6-2.2
			C638.1,217.5,638.2,217.1,638.3,217.2z"/>
		<circle id="leftEye0_1_" cx="654.2" cy="215.1" r="0.8"/>
		<circle id="leftEye1_1_" cx="649" cy="211.4" r="0.8"/>
		<circle id="leftEye5_1_" cx="649" cy="217.4" r="0.8"/>
		<circle id="leftEye2_1_" cx="642.7" cy="211.4" r="0.8"/>
		<circle id="leftEye3_1_" cx="637.5" cy="215.6" r="0.8"/>
		<circle id="leftEye4_1_" cx="642.7" cy="216.6" r="0.8"/>
	</g>
	<g>
		<path d="M641,187.9c0.9-1.7,11.1-2.1,12.3-0.2c1.3,2-2.7,1.4-3.7,1.4c-2.6,0.1-5.1,0.9-7.7,0.9C640.4,190.1,639,188.6,641,187.9z"
			/>
		<circle id="leftBrow1_1_" cx="656.1" cy="203.6" r="0.8"/>
		<circle id="leftBrow4_1_" cx="632.5" cy="205.7" r="0.8"/>
		<circle id="leftBrow3_1_" cx="642.5" cy="202.5" r="0.8"/>
		<circle id="leftBrow0_1_" cx="660.1" cy="206.5" r="0.8"/>
		<circle id="leftBrow2_1_" cx="649.8" cy="202.1" r="0.8"/>
		<path d="M606.3,187.9c-0.9-1.7-11.1-2.1-12.3-0.2c-1.3,2,2.7,1.4,3.7,1.4c2.6,0.1,5.1,0.9,7.7,0.9
			C607,190.1,608.3,188.6,606.3,187.9z"/>
		<circle id="rightBrow1_1_" cx="592.4" cy="203.2" r="0.8"/>
		<circle id="rightBrow4_1_" cx="615.7" cy="206.2" r="0.8"/>
		<circle id="rightBrow3_1_" cx="605.9" cy="202.2" r="0.8"/>
		<circle id="rightBrow0_1_" cx="588.4" cy="206.9" r="0.8"/>
		<circle id="rightBrow2_1_" cx="598.6" cy="202.2" r="0.8"/>
	</g>
	<g>
		<path d="M623.7,227.7c-1.1,0-2.1,0.1-3.1,0.2c-1.8,0.1-4.3-0.4-5.6,1.1c-1.6,1.8-0.6,4.9,0.7,6.6c1.8,2.4,5.2,3.4,8,3.8
			c2.8-0.4,6.3-1.4,8-3.8c1.3-1.7,2.3-4.8,0.7-6.6c-1.3-1.5-3.8-1-5.6-1.1C625.8,227.8,624.7,227.8,623.7,227.7z"/>
		<circle id="nose1_1_" cx="623.6" cy="216.1" r="0.8"/>
		<circle id="nose0_1_" cx="623.6" cy="210.3" r="0.8"/>
		<circle id="nose3_1_" cx="623.6" cy="228.7" r="0.8"/>
		<circle id="rightNose0_1_" cx="612.9" cy="233.2" r="0.8"/>
		<circle id="rightNose1_1_" cx="618.1" cy="233.2" r="0.8"/>
		<circle id="nose2_1_" cx="623.6" cy="221.6" r="0.8"/>
		<circle id="nose4_1_" cx="623.6" cy="234" r="0.8"/>
		<circle id="leftNose0_1_" cx="634" cy="233.2" r="0.8"/>
		<circle id="leftNose1_1_" cx="629.2" cy="233.2" r="0.8"/>
	</g>
</g>
<g id="skeleton_1_">
	<polygon class="st5" points="518.8,349.5 569.1,565.3 685.5,564.5 731.7,349.5 	"/>
	<polyline class="st5" points="517.8,349.5 445.4,431.1 352,547.5 	"/>
	<polyline class="st5" points="733.2,349.1 806.2,430.7 899.6,547 	"/>
	<polyline class="st5" points="569.1,565.3 575.5,725.5 575.5,933.5 	"/>
	<polyline class="st5" points="685.5,564.5 685.5,725.5 685.5,933.5 	"/>
	<polyline class="st5" points="624.5,170 604.7,172.5 592.2,182 583.6,196.1 581.1,205.4 580.3,217.1 580.3,226.6 581.1,248.3 
		587.9,268.3 599.5,280.8 609.5,287.5 624.5,290.7 639.3,287.9 649.3,281.2 660.9,268.6 667.7,248.6 668.5,227 668.5,217.4 
		667.7,205.7 665.2,196.5 657,182 644.4,172.5 624.5,170 	"/>
	<polyline class="st5" points="588.5,206.9 592.5,203.2 598.7,202.2 606,202.2 615.8,206.2 	"/>
	<polygon class="st5" points="594.7,215.1 599.9,211.4 606.2,211.4 611.4,215.6 606.2,216.6 599.9,217.4 	"/>
	<polyline class="st5" points="613,233.2 618.2,233.2 623.7,234 623.7,228.7 623.7,221.6 623.7,216.1 623.7,210.3 	"/>
	<polyline class="st5" points="660,206.5 656,203.6 649.7,202.1 642.4,202.5 632.4,205.7 	"/>
	<polygon class="st5" points="654.1,215.1 648.8,211.4 642.5,211.4 637.4,215.6 642.5,216.6 648.8,217.4 	"/>
	<polyline class="st5" points="634.1,233.2 629.1,233.2 623.7,234 	"/>
	<polygon class="st5" points="607,255.3 613.9,251.9 620.4,250.8 624.5,251.7 628.7,250.8 635.1,251.9 642,255.3 635.6,261.6 
		628.5,264.4 624.5,264.9 620.4,264.4 613.4,261.6 	"/>
	<polyline class="st5" points="607,255.3 610.6,255.6 620.6,254.8 624.5,255.3 628.5,254.8 638.4,255.6 642,255.3 	"/>
	<polyline class="st5" points="607,255.3 610.6,255.6 620.6,257.7 624.5,258.5 628.5,257.7 638.4,255.6 642,255.3 	"/>
	<circle id="rightShoulder" cx="518.9" cy="349.2" r="8.2"/>
	<circle id="rightElbow" cx="445.4" cy="439.3" r="8.2"/>
	<circle id="rightWrist" cx="352" cy="555.7" r="8.2"/>
	<circle id="rightHip" cx="569.2" cy="565" r="8.2"/>
	<circle id="rightKnee" cx="575.6" cy="725.2" r="8.2"/>
	<circle id="rightAnkle" cx="575.6" cy="933.2" r="8.2"/>
	<circle id="leftElbow" cx="806.2" cy="438.9" r="8.2"/>
	<circle id="leftWrist" cx="899.6" cy="555.2" r="8.2"/>
	<circle id="leftHip" cx="685.6" cy="564.2" r="8.2"/>
	<circle id="leftKnee" cx="685.6" cy="725.2" r="8.2"/>
	<circle id="leftAnkle" cx="685.6" cy="933.2" r="8.2"/>
	<circle id="rightEye0" cx="594.7" cy="215.1" r="0.8"/>
	<circle id="rightBrow1" cx="592.5" cy="203.2" r="0.8"/>
	<circle id="rightBrow4" cx="615.8" cy="206.2" r="0.8"/>
	<circle id="nose1" cx="623.7" cy="216.1" r="0.8"/>
	<circle id="rightBrow3" cx="606" cy="202.2" r="0.8"/>
	<circle id="rightEye1" cx="599.9" cy="211.4" r="0.8"/>
	<circle id="rightBrow0" cx="588.5" cy="206.9" r="0.8"/>
	<circle id="rightBrow2" cx="598.7" cy="202.2" r="0.8"/>
	<circle id="rightEye5" cx="599.9" cy="217.4" r="0.8"/>
	<circle id="rightEye2" cx="606.2" cy="211.4" r="0.8"/>
	<circle id="rightEye3" cx="611.4" cy="215.6" r="0.8"/>
	<circle id="nose0" cx="623.7" cy="210.3" r="0.8"/>
	<circle id="nose3" cx="623.7" cy="228.7" r="0.8"/>
	<circle id="rightNose0" cx="613" cy="233.2" r="0.8"/>
	<circle id="rightMouthCorner" cx="607" cy="255.3" r="0.8"/>
	<circle id="rightNose1" cx="618.2" cy="233.2" r="0.8"/>
	<circle id="rightUpperLipTop0" cx="613.9" cy="251.9" r="0.8"/>
	<circle id="nose2" cx="623.7" cy="221.6" r="0.8"/>
	<circle id="nose4" cx="623.7" cy="234" r="0.8"/>
	<circle id="upperLipTopMid" cx="624.5" cy="251.7" r="0.8"/>
	<circle id="rightUpperLipTop1" cx="620.4" cy="250.8" r="0.8"/>
	<path id="rightMiddleLip" d="M610.6,254.8c0.4,0,0.8,0.4,0.8,0.8c0,0.4-0.4,0.8-0.8,0.8s-0.8-0.4-0.8-0.8S610.2,254.8,610.6,254.8z
		"/>
	<circle id="lowerLipBottomMid" cx="624.5" cy="264.9" r="0.8"/>
	<circle id="upperLipBottomMid" cx="624.5" cy="255.3" r="0.8"/>
	<circle id="lowerLipTopMid" cx="624.5" cy="258.4" r="0.8"/>
	<circle id="rightUpperLipBottom1" cx="620.6" cy="254.8" r="0.8"/>
	<circle id="rightLowerLipTop0" cx="620.6" cy="257.7" r="0.8"/>
	<circle id="rightLowerLipBottom1" cx="620.4" cy="264.4" r="0.8"/>
	<circle id="rightLowerLipBottom0" cx="613.4" cy="261.6" r="0.8"/>
	<circle id="rightEye4" cx="606.2" cy="216.6" r="0.8"/>
	<circle id="jawMid" cx="624.5" cy="290.7" r="0.8"/>
	<circle id="rightJaw7" cx="609.5" cy="287.5" r="0.8"/>
	<circle id="rightJaw6" cx="599.5" cy="280.8" r="0.8"/>
	<circle id="rightJaw5" cx="587.9" cy="268.3" r="0.8"/>
	<circle id="rightJaw4" cx="581.1" cy="248.3" r="0.8"/>
	<circle id="rightJaw3" cx="580.3" cy="226.6" r="0.8"/>
	<circle id="rightJaw2" cx="580.3" cy="217.1" r="0.8"/>
	<circle id="rightJaw1" cx="581.1" cy="205.4" r="0.8"/>
	<circle id="rightJaw0" cx="583.6" cy="196.1" r="0.8"/>
	<circle id="topMid" cx="624.7" cy="170" r="0.8"/>
	<circle id="leftTop0" cx="644.4" cy="172.5" r="0.8"/>
	<circle id="leftTop1" cx="657" cy="182" r="0.8"/>
	<circle id="leftEye0" cx="654.3" cy="215.1" r="0.8"/>
	<circle id="leftBrow1" cx="656.2" cy="203.6" r="0.8"/>
	<circle id="leftBrow4" cx="632.6" cy="205.7" r="0.8"/>
	<circle id="leftBrow3" cx="642.6" cy="202.5" r="0.8"/>
	<circle id="leftEye1" cx="649.1" cy="211.4" r="0.8"/>
	<circle id="leftBrow0" cx="660.2" cy="206.5" r="0.8"/>
	<circle id="leftBrow2" cx="649.9" cy="202.1" r="0.8"/>
	<circle id="leftEye5" cx="649.1" cy="217.4" r="0.8"/>
	<circle id="leftEye2" cx="642.8" cy="211.4" r="0.8"/>
	<circle id="leftEye3" cx="637.6" cy="215.6" r="0.8"/>
	<circle id="leftNose0" cx="634.1" cy="233.2" r="0.8"/>
	<circle id="leftMouthCorner" cx="642" cy="255.3" r="0.8"/>
	<circle id="leftNose1" cx="629.3" cy="233.2" r="0.8"/>
	<circle id="leftUpperLipTop0" cx="635.1" cy="251.9" r="0.8"/>
	<circle id="leftUpperLipTop1" cx="628.7" cy="250.8" r="0.8"/>
	<path id="leftMiddleLip" d="M638.4,254.8c0.4,0,0.8,0.4,0.8,0.8c0,0.4-0.4,0.8-0.8,0.8s-0.8-0.4-0.8-0.8S638,254.8,638.4,254.8z"/>
	<circle id="leftUpperLipBottom1" cx="628.5" cy="254.8" r="0.8"/>
	<circle id="leftLowerLipTop0" cx="628.5" cy="257.7" r="0.8"/>
	<circle id="leftLowerLipBottom1" cx="628.7" cy="264.4" r="0.8"/>
	<circle id="leftLowerLipBottom0" cx="635.6" cy="261.6" r="0.8"/>
	<circle id="leftEye4" cx="642.8" cy="216.6" r="0.8"/>
	<circle id="leftJaw7" cx="639.3" cy="287.9" r="0.8"/>
	<circle id="leftJaw6" cx="649.3" cy="281.2" r="0.8"/>
	<circle id="leftJaw5" cx="660.9" cy="268.6" r="0.8"/>
	<circle id="leftJaw4" cx="667.7" cy="248.6" r="0.8"/>
	<circle id="leftJaw3" cx="668.5" cy="227" r="0.8"/>
	<circle id="leftJaw2" cx="668.5" cy="217.4" r="0.8"/>
	<circle id="leftJaw1" cx="667.7" cy="205.7" r="0.8"/>
	<circle id="leftJaw0" cx="665.2" cy="196.5" r="0.8"/>
	<circle id="rightTop0" cx="604.8" cy="172.5" r="0.8"/>
	<circle id="rightTop1" cx="592.2" cy="182" r="0.8"/>
	<circle id="leftShoulder" cx="731.8" cy="349.2" r="8.2"/>
</g>
</svg>
