<?xml version="1.0" encoding="utf-8"?>
<!-- Generator: Adobe Illustrator 25.0.0, SVG Export Plug-In . SVG Version: 6.00 Build 0)  -->
<svg version="1.1" id="Layer_1" xmlns="http://www.w3.org/2000/svg" xmlns:xlink="http://www.w3.org/1999/xlink" x="0px" y="0px"
	 viewBox="0 0 1200 1200" style="enable-background:new 0 0 1200 1200;" xml:space="preserve">
<style type="text/css">
	.st0{fill:#90CCD6;stroke:#358084;stroke-miterlimit:10;}
	.st1{fill:#CCCCCC;}
	.st2{fill:#737373;}
	.st3{fill:#358084;}
	.st4{fill:#90CCD6;}
	.st5{fill:#549E9E;}
	.st6{fill:#FFFFFF;}
	.st7{fill:#7C3000;stroke:#000000;stroke-miterlimit:10;}
	.st8{fill:#FFFFD4;stroke:#5E5D37;stroke-miterlimit:10;}
	.st9{fill:#FFFFFF;stroke:#647777;stroke-miterlimit:10;}
	.st10{fill:#CCCCCC;stroke:#636363;stroke-miterlimit:10;}
	.st11{fill:none;stroke:#000000;stroke-miterlimit:10;}
</style>
<g id="illustration">
	<path class="st0" d="M720.6,549.2L520.2,550c0,64.2-1.3,143.2-1.3,219.9v141.2l0,0c-0.8,13.5,7.7,63.1,50.2,59.5
		c41.2-3.5,42.7-48.3,42.4-60.1V771.2V595.4c0-5.3,4.3-9.6,9.6-9.6h6.8c5.3,0,9.6,4.3,9.6,9.6v175.8v139.9c0,0.1,0,0.2,0,0.3
		c-0.6,13.8,8,62.8,50.2,59.2c40.3-3.4,42.6-46.5,42.5-59.3c0-0.1,0-0.1,0-0.2V771.2V558.8C730.2,553.5,725.9,549.2,720.6,549.2z"/>
	<path class="st0" d="M520.3,559.1c-1.4-74.9-13.5-131.9,8.4-171.3c13.4-24.2,29.7-41.7,47.4-52.8c15.5-9.7,32.3-12.4,48.9-12.2
		c16.5,0.2,33.2,3.3,48.6,13.2c17.4,11.1,33.7,28.4,46.9,52c22.5,39.7,9.6,171.3,9.6,171.3"/>
	<path class="st0" d="M904.6,463.8"/>
	<path class="st0" d="M593.8,349c-0.3-0.3-0.5-0.6-0.6-0.9l11-51.3h38.1c0,0,7.8,38.6,10.4,52.1c-0.2,0.2-0.3,0.5-0.5,0.7"/>
	<path class="st0" d="M725.6,407.1c0,0,40.9,36.8,54.2,51.3s75.5,93.7,82.9,100.9c9.5,9.3,33.3,10.7,44.2,1.2
		c2-1.7,12.5-10.4,5.8-26.4s-57.7-84.9-82.5-115.2l0,0l0,0c-1-1.3-2-2.5-3-3.6l0,0c-2.2-2.7-4.4-5.4-6.6-8c-1.3-1.6-2-2.4-2-2.4l0,0
		c-70.3-80.3-157.2-80.6-170.1-79.5"/>
	<path class="st0" d="M874.5,547.9c0,0-2.1,8-4,16.9c-1.8,8.8-21.3,7.2-19.4-5.8c1.8-13.2,6.8-20.6,6.8-20.6"/>
	<path class="st0" d="M597.5,327c-15-1.3-97.4-4.7-169.9,78.1l0,0c0,0-0.7,0.8-2,2.4c-2.2,2.6-4.4,5.3-6.6,8l0,0c-1,1.1-2,2.3-3,3.6
		l0,0l0,0c-24.8,30.3-75.8,99.2-82.5,115.2s3.8,24.7,5.8,26.4c10.9,9.5,34.7,8.1,44.2-1.2c7.4-7.2,69.6-86.4,82.9-100.9
		s57.3-54.4,57.3-54.4"/>
	<path class="st0" d="M390.3,538.5c0,0,5,7.4,6.8,20.6c1.9,13-17.5,14.6-19.4,5.8c-1.8-8.9-4-16.9-4-16.9"/>
	<path class="st1" d="M555.9,246.1c-1.2-0.2-2.5-1.6-3.6-2.2c-2.3-1.3-4.5-2.6-6.8-3.7c-3.3-1.5-7.9-2.7-11.6-1.8
		c-4.8,1.1-5.8,7.6-6.5,11.6c-1,6.4-2.4,13.4-0.9,19.8c1,4.3,2.3,8.9,7.3,9.8c5.2,1,11-3.2,15.1-5.8c2.5-1.6,6.2-3.4,7.2-6.4
		c0.6-1.8,0.5-3.8,0.7-5.7c0.3-2.4,0.5-4.8,0.4-7.2C557.1,251.4,556.7,247.8,555.9,246.1z"/>
	<path class="st1" d="M692.9,246.1c1.2-0.2,2.5-1.6,3.6-2.2c2.3-1.3,4.5-2.6,6.8-3.7c3.3-1.5,7.9-2.7,11.6-1.8
		c4.8,1.1,5.8,7.6,6.5,11.6c1,6.4,2.4,13.4,0.9,19.8c-1,4.3-2.3,8.9-7.3,9.8c-5.2,1-11-3.2-15.1-5.8c-2.5-1.6-6.2-3.4-7.2-6.4
		c-0.6-1.8-0.5-3.8-0.7-5.7c-0.3-2.4-0.5-4.8-0.4-7.2C691.7,251.4,692.1,247.8,692.9,246.1z"/>
	<path class="st2" d="M551.6,255c-2.3-2.2-5.7-3.5-8.6-4.9c-1.6-0.8-4.7-3.3-6.5-2.3c2.2,2.8,6.7,3.8,9.7,5.5c1.7,1,3.4,1.9,5.2,2.6
		C551.8,255.7,551.9,255.5,551.6,255z"/>
	<path class="st2" d="M697.2,255c2.3-2.2,5.7-3.5,8.6-4.9c1.6-0.8,4.7-3.3,6.5-2.3c-2.2,2.8-6.7,3.8-9.7,5.5c-1.7,1-3.4,1.9-5.2,2.6
		C697,255.7,696.9,255.5,697.2,255z"/>
	<path class="st2" d="M550.8,261.1c-0.6-0.7-1.9-0.7-2.7-0.9c-2.1-0.5-4.1-1.3-6.1-1.7c-1.7-0.3-6.2-1.3-7.5,0.1
		c1.5,1.6,4.6,1.6,6.6,2c2.1,0.4,4.2,0.9,6.3,1.2C548,261.9,552.8,263.4,550.8,261.1z"/>
	<path class="st2" d="M698,261.1c0.6-0.7,1.9-0.7,2.7-0.9c2.1-0.5,4.1-1.3,6.1-1.7c1.7-0.3,6.2-1.3,7.5,0.1c-1.5,1.6-4.6,1.6-6.6,2
		c-2.1,0.4-4.2,0.9-6.3,1.2C700.8,261.9,696,263.4,698,261.1z"/>
	<path class="st2" d="M550.2,265.9c-1.1-1.2-6.4,0.7-7.8,1.2c-1,0.3-7,2.4-5.9,3.9c0.9,1.2,9.2-2.6,10.4-3c1.6-0.6,3.1-1.4,4.7-2
		C551.2,265.6,550.4,265.6,550.2,265.9z"/>
	<path class="st2" d="M698.6,265.9c1.1-1.2,6.4,0.7,7.8,1.2c1,0.3,7,2.4,5.9,3.9c-0.9,1.2-9.2-2.6-10.4-3c-1.6-0.6-3.1-1.4-4.7-2
		C697.6,265.6,698.4,265.6,698.6,265.9z"/>
	<path class="st3" d="M624.1,155.2c0,0-64.1-2.5-70.7,106.9c-1.2,19.4,13.2,36.6,33.1,39.3c9.9,1.3,22.4,2.3,37.7,2.3
		c15.3,0,27.8-1,37.7-2.3c19.8-2.7,34.2-19.8,33.1-39.3c-6.5-109.4-70.7-106.9-70.7-106.9"/>
	<path class="st4" d="M624.4,169.9c0,0-49.8-2.3-54.9,96.7c-0.9,17.6,10.3,33.1,25.7,35.5c7.7,1.2,17.4,2.1,29.3,2.1
		c11.9,0,21.6-0.9,29.3-2.1c15.4-2.4,26.6-18,25.7-35.5c-5.1-99-54.9-96.7-54.9-96.7"/>
	<path class="st5" d="M570.7,216.3c-1.5,0.2-2.8,4-3.3,5c-2.7,4.9-3.7,10.4-5.1,15.5c-1.9,7.2-2.7,15.2-2.9,23
		c-0.1,2.8,0,5.6,0.5,8.4c0.1,0.6,0,1.6,1,1.8c0.9-0.9,0.2-3.2,0.1-4.3c-0.2-2.7-0.3-5.3-0.3-8c-0.1-4.2,0.6-8.2,1.2-12.3
		c0.8-4.6,1.6-9.2,2.9-13.8c1-3.4,2.7-7.6,4.2-10.9c0.5-1.2,2.5-4,2.4-4.2C571.1,216.5,571.5,215.9,570.7,216.3z"/>
	<path class="st5" d="M677.2,216.3c1.5,0.2,2.8,4,3.3,5c2.7,4.9,3.7,10.4,5.1,15.5c2,7.5,2.7,15.3,2.9,23c0.1,2.8,0,5.6-0.5,8.4
		c-0.1,0.6,0,1.6-1,1.8c-0.9-0.9-0.2-3.2-0.1-4.3c0.2-2.7,0.3-5.3,0.3-8c0.1-4.2-0.6-8.2-1.2-12.3c-0.8-4.6-1.6-9.2-2.9-13.8
		c-1-3.4-2.7-7.6-4.2-10.9c-0.5-1.2-2.5-4-2.4-4.2C676.8,216.5,676.4,215.9,677.2,216.3z"/>
	<path d="M621.4,230c-0.1-0.2-0.3-0.4-0.5-0.5c-0.3-0.1-0.4,0.1-0.5,0.3c-0.2,0.6-0.1,1.4,0,2.1c0.1,0.6,0.2,3.5,1.3,3.5
		c0.6,0,0.4-1.4,0.4-1.7c-0.1-0.5-0.2-1-0.2-1.5s0-0.9-0.2-1.3C621.6,230.6,621.5,230.3,621.4,230z"/>
	<path d="M627.4,230c0.1-0.2,0.3-0.4,0.5-0.5c0.3-0.1,0.4,0.1,0.5,0.3c0.2,0.6,0.1,1.4,0,2.1c-0.1,0.6-0.2,3.5-1.3,3.5
		c-0.6,0-0.4-1.4-0.4-1.7c0.1-0.5,0.2-1,0.2-1.5s0-0.9,0.2-1.3C627.2,230.6,627.3,230.3,627.4,230z"/>
	<g>
		<circle class="st5" cx="655.6" cy="223" r="9.3"/>
		<circle class="st6" cx="654.9" cy="224.1" r="8"/>
		<circle cx="654.9" cy="224.1" r="4.8"/>
		<circle id="leftEye0_1_" cx="654.3" cy="215" r="0.8"/>
		<circle id="leftEye1_1_" cx="649.1" cy="211.3" r="0.8"/>
		<circle id="leftEye5_1_" cx="649.1" cy="217.3" r="0.8"/>
		<circle id="leftEye2_1_" cx="642.8" cy="211.3" r="0.8"/>
		<circle id="leftEye3_1_" cx="637.6" cy="215.5" r="0.8"/>
		<circle id="leftEye4_1_" cx="642.8" cy="216.5" r="0.8"/>
	</g>
	<g>
		<circle class="st5" cx="593.2" cy="223" r="9.3"/>
		<circle class="st6" cx="593.9" cy="224.1" r="8"/>
		<circle cx="593.9" cy="224.1" r="4.8"/>
		<circle id="rightEye0_1_" cx="594.7" cy="215" r="0.8"/>
		<circle id="rightEye1_1_" cx="599.9" cy="211.3" r="0.8"/>
		<circle id="rightEye5_1_" cx="599.9" cy="217.3" r="0.8"/>
		<circle id="rightEye2_1_" cx="606.2" cy="211.3" r="0.8"/>
		<circle id="rightEye3_1_" cx="611.4" cy="215.5" r="0.8"/>
		<circle id="rightEye4_1_" cx="606.2" cy="216.5" r="0.8"/>
	</g>
	<g>
		<path d="M603,207.3c-0.9-1.1-1.6-2.1-3-2.8c-1.9-0.9-4.1-1.1-6.2-1c-2.2,0.1-5.3,0.3-7,1.9c-1.3,1.2-0.1,1.2,1,1
			c2.4-0.4,4.5-0.7,6.9,0.1c1.6,0.5,3.1,1.1,4.6,1.7c0.8,0.3,1.7,0.7,2.5,0.3C602.8,208.3,603.3,207.3,603,207.3z"/>
		<circle id="rightBrow1_1_" cx="592.5" cy="203.1" r="0.8"/>
		<circle id="rightBrow4_1_" cx="615.8" cy="206.1" r="0.8"/>
		<circle id="rightBrow3_1_" cx="606" cy="202.1" r="0.8"/>
		<circle id="rightBrow0_1_" cx="588.5" cy="206.8" r="0.8"/>
		<circle id="rightBrow2_1_" cx="598.7" cy="202.1" r="0.8"/>
	</g>
	<g>
		<path d="M645.8,207.3c0.9-1.1,1.6-2.1,3-2.8c1.9-0.9,4.1-1.1,6.2-1c2.2,0.1,5.3,0.3,7,1.9c1.3,1.2,0.1,1.2-1,1
			c-2.4-0.4-4.5-0.7-6.9,0.1c-1.6,0.5-3.1,1.1-4.6,1.7c-0.8,0.3-1.7,0.7-2.5,0.3C646,208.3,645.5,207.3,645.8,207.3z"/>
		<circle id="leftBrow1_1_" cx="656.2" cy="203.5" r="0.8"/>
		<circle id="leftBrow4_1_" cx="632.6" cy="205.6" r="0.8"/>
		<circle id="leftBrow3_1_" cx="642.6" cy="202.4" r="0.8"/>
		<circle id="leftBrow0_1_" cx="660.2" cy="206.4" r="0.8"/>
		<circle id="leftBrow2_1_" cx="649.9" cy="202" r="0.8"/>
	</g>
	<path class="st7" d="M624.2,243.9c-2.7-0.1-5.4,0.7-7.5,1.8c-6.2,3.1-10.6,10.1-8.7,17.1c0.9,3.2,2.3,5.6,5.2,7.4
		c2.8,1.8,5.6,1.8,8.8,1.8c0.7,0,1.5,0,2.2,0c0.7,0,1.5,0,2.2,0c3.1-0.2,6-0.2,8.8-1.8c2.9-1.8,4.3-4.1,5.2-7.4
		c1.9-7-2.5-14-8.7-17.1C629.7,244.7,626.9,243.9,624.2,243.9z"/>
	<path class="st8" d="M608.5,259.3c-0.2,2.7,3,7.5,5.5,4.2c0.4-0.5,0.5-1.1,0.5-1.7c0-1.3-0.1-2.7-0.3-4c-0.1-0.4-0.1-0.9-0.4-1.1
		c-0.5-0.3-1.5-0.1-2,0c-1.1,0.2-2,0.4-2.8,1.2C608.7,258.5,608.1,259.3,608.5,259.3z"/>
	<path class="st8" d="M639.9,259.3c0.2,2.7-3,7.5-5.5,4.2c-0.4-0.5-0.5-1.1-0.5-1.7c0-1.3,0.1-2.7,0.3-4c0.1-0.4,0.1-0.9,0.4-1.1
		c0.5-0.3,1.5-0.1,2,0c1.1,0.2,2,0.4,2.8,1.2C639.7,258.5,640.3,259.3,639.9,259.3z"/>
	<path class="st9" d="M624.2,270.7c-1.1,0-2.2-0.3-3.1-0.6c-2.4-0.6-4.4-2-6.5-3.5c-1.8-1.3-3.3-3.4-5.4-4.2c-1.4-0.6-3-0.6-3.2,1.2
		c-0.2,1.9,0.9,3.6,1.8,5.2c1.1,1.8,3,3.4,4.9,4.4c3.5,2,7.5,3.1,11.4,3.2c4-0.2,7.9-1.2,11.4-3.2c1.8-1.1,3.8-2.6,4.9-4.4
		c1-1.6,2.1-3.2,1.8-5.2c-0.2-1.8-1.8-1.8-3.2-1.2c-2.1,0.8-3.6,2.9-5.4,4.2c-2,1.5-4.1,2.9-6.5,3.5
		C626.4,270.4,625.3,270.7,624.2,270.7z"/>
	<path class="st8" d="M611,255c-0.2,2.7,3,7.5,5.5,4.2c0.4-0.5,0.5-1.1,0.5-1.7c0-1.3-0.1-2.7-0.3-4c-0.1-0.4-0.1-0.9-0.4-1.1
		c-0.5-0.3-1.5-0.1-2,0c-1.1,0.2-2,0.4-2.8,1.2C611.3,254.2,610.7,255.1,611,255z"/>
	<path class="st8" d="M637.4,255c0.2,2.7-3,7.5-5.5,4.2c-0.4-0.5-0.5-1.1-0.5-1.7c0-1.3,0.1-2.7,0.3-4c0.1-0.4,0.1-0.9,0.4-1.1
		c0.5-0.3,1.5-0.1,2,0c1.1,0.2,2,0.4,2.8,1.2C637.1,254.2,637.8,255.1,637.4,255z"/>
	<path class="st8" d="M613.9,251.3c-0.2,2.7,3,7.5,5.5,4.2c0.4-0.5,0.5-1.1,0.5-1.7c0-1.3-0.1-2.7-0.3-4c-0.1-0.4-0.1-0.9-0.4-1.1
		c-0.5-0.3-1.5-0.1-2,0c-1.1,0.2-2,0.4-2.8,1.2C614.1,250.4,613.4,251.4,613.9,251.3z"/>
	<path class="st8" d="M634.5,251.3c0.2,2.7-3,7.5-5.5,4.2c-0.4-0.5-0.5-1.1-0.5-1.7c0-1.3,0.1-2.7,0.3-4c0.1-0.4,0.1-0.9,0.4-1.1
		c0.5-0.3,1.5-0.1,2,0c1.1,0.2,2,0.4,2.8,1.2C634.4,250.4,635,251.4,634.5,251.3z"/>
	<path class="st8" d="M618,248c-0.2,2.7,3,7.5,5.5,4.2c0.4-0.5,0.5-1.1,0.5-1.7c0-1.3-0.1-2.7-0.3-4c-0.1-0.4-0.1-0.9-0.4-1.1
		c-0.5-0.3-1.5-0.1-2,0c-1.1,0.2-2,0.4-2.8,1.2C618.3,247.2,617.7,248.1,618,248z"/>
	<path class="st8" d="M630.4,248c0.2,2.7-3,7.5-5.5,4.2c-0.4-0.5-0.5-1.1-0.5-1.7c0-1.3,0.1-2.7,0.3-4c0.1-0.4,0.1-0.9,0.4-1.1
		c0.5-0.3,1.5-0.1,2,0c1.1,0.2,2,0.4,2.8,1.2C630.1,247.2,630.8,248.1,630.4,248z"/>
	<path class="st10" d="M624.2,241.1c-3.2,0-6.5,0.8-9.1,2.6c-4.6,3-7.9,7.8-9.9,12.9c-0.9,2.3-1.8,5.3-0.6,7.6c0.6,1.1,1.8,2,3,1
		c1.9-1.8,3.1-4.5,4.4-6.8c1.4-2.6,2.7-5.2,4.7-7.3c1.7-1.8,3.2-3.1,5.6-3.6c0.6-0.1,1.3-0.2,1.9-0.2c0.6,0,1.3,0.1,1.9,0.2
		c2.4,0.5,4.1,1.8,5.6,3.6c2,2.1,3.3,4.8,4.7,7.3c1.2,2.3,2.5,5,4.4,6.8c1,1,2.3,0.1,2.9-1c1.3-2.3,0.3-5.3-0.6-7.6
		c-1.9-5.2-5.3-9.9-9.9-12.9C630.8,242,627.4,241.1,624.2,241.1z"/>
</g>
<g id="skeleton_1_">
	<polygon class="st11" points="518.8,349.5 569.1,565.3 685.5,564.5 731.7,349.5 	"/>
	<polyline class="st11" points="517.8,349.5 445.4,431.1 352,547.5 	"/>
	<polyline class="st11" points="733.2,349.1 806.2,430.7 899.6,547 	"/>
	<polyline class="st11" points="569.1,565.3 575.5,725.5 575.5,933.5 	"/>
	<polyline class="st11" points="685.5,564.5 685.5,725.5 685.5,933.5 	"/>
	<polyline class="st11" points="624.5,170 604.7,172.5 592.2,182 583.6,196.1 581.1,205.4 580.3,217.1 580.3,226.6 581.1,248.3 
		587.9,268.3 599.5,280.8 609.5,287.5 624.5,290.7 639.3,287.9 649.3,281.2 660.9,268.6 667.7,248.6 668.5,227 668.5,217.4 
		667.7,205.7 665.2,196.5 657,182 644.4,172.5 624.5,170 	"/>
	<polyline class="st11" points="588.5,206.9 592.5,203.2 598.7,202.2 606,202.2 615.8,206.2 	"/>
	<polygon class="st11" points="594.7,215.1 599.9,211.4 606.2,211.4 611.4,215.6 606.2,216.6 599.9,217.4 	"/>
	<polyline class="st11" points="613,233.2 618.2,233.2 623.7,234 623.7,228.7 623.7,221.6 623.7,216.1 623.7,210.3 	"/>
	<polyline class="st11" points="660,206.5 656,203.6 649.7,202.1 642.4,202.5 632.4,205.7 	"/>
	<polygon class="st11" points="654.1,215.1 648.8,211.4 642.5,211.4 637.4,215.6 642.5,216.6 648.8,217.4 	"/>
	<polyline class="st11" points="634.1,233.2 629.1,233.2 623.7,234 	"/>
	<polygon class="st11" points="607,255.3 613.9,251.9 620.4,250.8 624.5,251.7 628.7,250.8 635.1,251.9 642,255.3 635.6,261.6 
		628.5,264.4 624.5,264.9 620.4,264.4 613.4,261.6 	"/>
	<polyline class="st11" points="607,255.3 610.6,255.6 620.6,254.8 624.5,255.3 628.5,254.8 638.4,255.6 642,255.3 	"/>
	<polyline class="st11" points="607,255.3 610.6,255.6 620.6,257.7 624.5,258.5 628.5,257.7 638.4,255.6 642,255.3 	"/>
	<circle id="rightShoulder" cx="518.9" cy="349.2" r="8.2"/>
	<circle id="rightElbow" cx="445.4" cy="439.3" r="8.2"/>
	<circle id="rightWrist" cx="352" cy="555.7" r="8.2"/>
	<circle id="rightHip" cx="569.2" cy="565" r="8.2"/>
	<circle id="rightKnee" cx="575.6" cy="725.2" r="8.2"/>
	<circle id="rightAnkle" cx="575.6" cy="933.2" r="8.2"/>
	<circle id="leftElbow" cx="806.2" cy="438.9" r="8.2"/>
	<circle id="leftWrist" cx="899.6" cy="555.2" r="8.2"/>
	<circle id="leftHip" cx="685.6" cy="564.2" r="8.2"/>
	<circle id="leftKnee" cx="685.6" cy="725.2" r="8.2"/>
	<circle id="leftAnkle" cx="685.6" cy="933.2" r="8.2"/>
	<circle id="rightEye0" cx="594.7" cy="215.1" r="0.8"/>
	<circle id="rightBrow1" cx="592.5" cy="203.2" r="0.8"/>
	<circle id="rightBrow4" cx="615.8" cy="206.2" r="0.8"/>
	<circle id="nose1" cx="623.7" cy="216.1" r="0.8"/>
	<circle id="rightBrow3" cx="606" cy="202.2" r="0.8"/>
	<circle id="rightEye1" cx="599.9" cy="211.4" r="0.8"/>
	<circle id="rightBrow0" cx="588.5" cy="206.9" r="0.8"/>
	<circle id="rightBrow2" cx="598.7" cy="202.2" r="0.8"/>
	<circle id="rightEye5" cx="599.9" cy="217.4" r="0.8"/>
	<circle id="rightEye2" cx="606.2" cy="211.4" r="0.8"/>
	<circle id="rightEye3" cx="611.4" cy="215.6" r="0.8"/>
	<circle id="nose0" cx="623.7" cy="210.3" r="0.8"/>
	<circle id="nose3" cx="623.7" cy="228.7" r="0.8"/>
	<circle id="rightNose0" cx="613" cy="233.2" r="0.8"/>
	<circle id="rightMouthCorner" cx="607" cy="255.3" r="0.8"/>
	<circle id="rightNose1" cx="618.2" cy="233.2" r="0.8"/>
	<circle id="rightUpperLipTop0" cx="613.9" cy="251.9" r="0.8"/>
	<circle id="nose2" cx="623.7" cy="221.6" r="0.8"/>
	<circle id="nose4" cx="623.7" cy="234" r="0.8"/>
	<circle id="upperLipTopMid" cx="624.5" cy="251.7" r="0.8"/>
	<circle id="rightUpperLipTop1" cx="620.4" cy="250.8" r="0.8"/>
	<path id="rightMiddleLip" d="M610.6,254.8c0.4,0,0.8,0.4,0.8,0.8c0,0.4-0.4,0.8-0.8,0.8s-0.8-0.4-0.8-0.8S610.2,254.8,610.6,254.8z
		"/>
	<circle id="lowerLipBottomMid" cx="624.5" cy="264.9" r="0.8"/>
	<circle id="upperLipBottomMid" cx="624.5" cy="255.3" r="0.8"/>
	<circle id="lowerLipTopMid" cx="624.5" cy="258.4" r="0.8"/>
	<circle id="rightUpperLipBottom1" cx="620.6" cy="254.8" r="0.8"/>
	<circle id="rightLowerLipTop0" cx="620.6" cy="257.7" r="0.8"/>
	<circle id="rightLowerLipBottom1" cx="620.4" cy="264.4" r="0.8"/>
	<circle id="rightLowerLipBottom0" cx="613.4" cy="261.6" r="0.8"/>
	<circle id="rightEye4" cx="606.2" cy="216.6" r="0.8"/>
	<circle id="jawMid" cx="624.5" cy="290.7" r="0.8"/>
	<circle id="rightJaw7" cx="609.5" cy="287.5" r="0.8"/>
	<circle id="rightJaw6" cx="599.5" cy="280.8" r="0.8"/>
	<circle id="rightJaw5" cx="587.9" cy="268.3" r="0.8"/>
	<circle id="rightJaw4" cx="581.1" cy="248.3" r="0.8"/>
	<circle id="rightJaw3" cx="580.3" cy="226.6" r="0.8"/>
	<circle id="rightJaw2" cx="580.3" cy="217.1" r="0.8"/>
	<circle id="rightJaw1" cx="581.1" cy="205.4" r="0.8"/>
	<circle id="rightJaw0" cx="583.6" cy="196.1" r="0.8"/>
	<circle id="topMid" cx="624.7" cy="170" r="0.8"/>
	<circle id="leftTop0" cx="644.4" cy="172.5" r="0.8"/>
	<circle id="leftTop1" cx="657" cy="182" r="0.8"/>
	<circle id="leftEye0" cx="654.3" cy="215.1" r="0.8"/>
	<circle id="leftBrow1" cx="656.2" cy="203.6" r="0.8"/>
	<circle id="leftBrow4" cx="632.6" cy="205.7" r="0.8"/>
	<circle id="leftBrow3" cx="642.6" cy="202.5" r="0.8"/>
	<circle id="leftEye1" cx="649.1" cy="211.4" r="0.8"/>
	<circle id="leftBrow0" cx="660.2" cy="206.5" r="0.8"/>
	<circle id="leftBrow2" cx="649.9" cy="202.1" r="0.8"/>
	<circle id="leftEye5" cx="649.1" cy="217.4" r="0.8"/>
	<circle id="leftEye2" cx="642.8" cy="211.4" r="0.8"/>
	<circle id="leftEye3" cx="637.6" cy="215.6" r="0.8"/>
	<circle id="leftNose0" cx="634.1" cy="233.2" r="0.8"/>
	<circle id="leftMouthCorner" cx="642" cy="255.3" r="0.8"/>
	<circle id="leftNose1" cx="629.3" cy="233.2" r="0.8"/>
	<circle id="leftUpperLipTop0" cx="635.1" cy="251.9" r="0.8"/>
	<circle id="leftUpperLipTop1" cx="628.7" cy="250.8" r="0.8"/>
	<path id="leftMiddleLip" d="M638.4,254.8c0.4,0,0.8,0.4,0.8,0.8c0,0.4-0.4,0.8-0.8,0.8s-0.8-0.4-0.8-0.8S638,254.8,638.4,254.8z"/>
	<circle id="leftUpperLipBottom1" cx="628.5" cy="254.8" r="0.8"/>
	<circle id="leftLowerLipTop0" cx="628.5" cy="257.7" r="0.8"/>
	<circle id="leftLowerLipBottom1" cx="628.7" cy="264.4" r="0.8"/>
	<circle id="leftLowerLipBottom0" cx="635.6" cy="261.6" r="0.8"/>
	<circle id="leftEye4" cx="642.8" cy="216.6" r="0.8"/>
	<circle id="leftJaw7" cx="639.3" cy="287.9" r="0.8"/>
	<circle id="leftJaw6" cx="649.3" cy="281.2" r="0.8"/>
	<circle id="leftJaw5" cx="660.9" cy="268.6" r="0.8"/>
	<circle id="leftJaw4" cx="667.7" cy="248.6" r="0.8"/>
	<circle id="leftJaw3" cx="668.5" cy="227" r="0.8"/>
	<circle id="leftJaw2" cx="668.5" cy="217.4" r="0.8"/>
	<circle id="leftJaw1" cx="667.7" cy="205.7" r="0.8"/>
	<circle id="leftJaw0" cx="665.2" cy="196.5" r="0.8"/>
	<circle id="rightTop0" cx="604.8" cy="172.5" r="0.8"/>
	<circle id="rightTop1" cx="592.2" cy="182" r="0.8"/>
	<circle id="leftShoulder" cx="731.8" cy="349.2" r="8.2"/>
</g>
</svg>
