<?xml version="1.0" encoding="utf-8"?>
<!-- Generator: Adobe Illustrator 25.0.0, SVG Export Plug-In . SVG Version: 6.00 Build 0)  -->
<svg version="1.1" id="Layer_1" xmlns="http://www.w3.org/2000/svg" xmlns:xlink="http://www.w3.org/1999/xlink" x="0px" y="0px"
	 viewBox="0 0 1200 1200" style="enable-background:new 0 0 1200 1200;" xml:space="preserve">
<style type="text/css">
	.st0{fill:#EAA65C;stroke:#B27036;stroke-miterlimit:10;}
	.st1{fill:#FF554D;}
	.st2{fill:#F7C594;}
	.st3{opacity:0.53;fill:#E06B75;enable-background:new    ;}
	.st4{fill:#F2B375;}
	.st5{fill:#383838;}
	.st6{fill:none;stroke:#000000;stroke-miterlimit:10;}
	.st7{fill:#E08F53;}
	.st8{fill:#BC3B6F;}
	.st9{fill:#FFFFFF;}
	.st10{fill:#9C0000;}
</style>
<g id="illustration">
	<path class="st0" d="M720.6,549.2L520.2,550c0,64.2-1.3,143.2-1.3,219.9v141.2l0,0c-0.8,13.5,7.7,63.1,50.2,59.5
		c41.2-3.5,42.7-48.3,42.4-60.1V771.2V595.4c0-5.3,4.3-9.6,9.6-9.6h6.8c5.3,0,9.6,4.3,9.6,9.6v175.8v139.9c0,0.1,0,0.2,0,0.3
		c-0.6,13.8,8,62.8,50.2,59.2c40.3-3.4,42.6-46.5,42.5-59.3c0-0.1,0-0.1,0-0.2V771.2V558.8C730.2,553.5,725.9,549.2,720.6,549.2z"/>
	<path class="st0" d="M520.3,559.1c-1.4-74.9-13.5-131.9,8.4-171.3c13.4-24.2,29.7-41.7,47.4-52.8c15.5-9.7,32.3-12.4,48.9-12.2
		c16.5,0.2,33.2,3.3,48.6,13.2c17.4,11.1,33.7,28.4,46.9,52c22.5,39.7,9.6,171.3,9.6,171.3"/>
	<path class="st0" d="M904.6,463.8"/>
	<path class="st0" d="M728.6,407.1c0,0,40.9,36.8,54.2,51.3s75.5,93.7,82.9,100.9c9.5,9.3,33.3,10.7,44.2,1.2
		c2-1.7,12.5-10.4,5.8-26.4s-57.7-84.9-82.5-115.2l0,0l0,0c-1-1.3-2-2.5-3-3.6l0,0c-2.2-2.7-4.4-5.4-6.6-8c-1.3-1.6-2-2.4-2-2.4l0,0
		c-70.3-80.3-157.2-80.6-170.1-79.5"/>
	<path class="st0" d="M874.5,547.9c0,0-2.1,8-4,16.9c-1.8,8.8-21.3,7.2-19.4-5.8c1.8-13.2,6.8-20.6,6.8-20.6"/>
	<path class="st0" d="M597.5,325c-15-1.3-97.4-4.7-169.9,78.1l0,0c0,0-0.7,0.8-2,2.4c-2.2,2.6-4.4,5.3-6.6,8l0,0c-1,1.1-2,2.3-3,3.6
		l0,0l0,0c-24.8,30.3-75.8,99.2-82.5,115.2s3.8,24.7,5.8,26.4c10.9,9.5,34.7,8.1,44.2-1.2c7.4-7.2,69.6-86.4,82.9-100.9
		s57.3-54.4,57.3-54.4"/>
	<path class="st0" d="M390.3,538.5c0,0,5,7.4,6.8,20.6c1.9,13-17.5,14.6-19.4,5.8c-1.8-8.9-4-16.9-4-16.9"/>
	<path class="st0" d="M592.7,328.3l8.3-39.6h49.5c0,0,4,21.2,7.5,40.2"/>
	<path class="st0" d="M525.7,96.6c0.4-1.3,34.7,3.8,71.5,52.6c0,0,10.4,20.8-17.8,37.3s-38.2-0.6-42.1-7.8S518.5,122.5,525.7,96.6z"
		/>
	<path class="st0" d="M721.5,96.6c-0.4-1.3-34.7,3.8-71.5,52.6c0,0-10.4,20.8,17.8,37.3s38.2-0.6,42.1-7.8S728.7,122.5,721.5,96.6z"
		/>
	<path class="st1" d="M573.7,178.5c0.9-0.8,15.4-11.3,10.8-24.5c-8-23.3-54.3-51.1-54.3-51.1s-0.7,24,4,42.1s9.5,29.4,12.5,33.9
		C549.8,183.4,564,186.2,573.7,178.5z"/>
	<path class="st1" d="M673.5,178.5c-0.9-0.8-15.4-11.3-10.8-24.5c8-23.3,54.3-51.1,54.3-51.1s0.7,24-4,42.1s-9.5,29.4-12.5,33.9
		C697.4,183.4,683.2,186.2,673.5,178.5z"/>
	<path class="st0" d="M620.9,305.2c-5.8,0-14.4-2-14.7-2.1c-12.5-3.1-18.5-4.3-24.2-6c-18.2-5.5-44.8-16.9-70.1-42.3
		c3-0.2,8-0.8,10.7,0.4c-4.3-5.7-9.7-13.2-13.5-19.3c2.6,0.4,9.1,3.4,11.7,3.7c-4.9-10.1-11.2-16.6-13.3-27.7
		c3.4,4.6,9.8,6.8,15.3,5c5.9-2,8.5-7.2,9.3-12.9c0.4-3.3,2.4-6.7,3.8-9.6c1.6-3.5,3.4-6.9,5.4-10.1c11-18.1,28.7-30.8,49-35.9
		c8.6-2.1,17.3-3.3,26.1-3.4c1.5,0,3.1,0.2,4.4-0.1c1.4,0.3,3,0.1,4.4,0.1c8.8,0.1,17.5,1.3,26.1,3.4c20.3,5.1,38,17.9,49,35.9
		c2,3.3,3.7,6.7,5.4,10.1c1.4,3,3.4,6.4,3.8,9.6c0.8,5.7,3.4,10.9,9.3,12.9c5.5,1.8,11.9-0.3,15.3-5c-2.2,11.1-8.6,17.4-13.3,27.7
		c2.6-0.4,9.1-3.4,11.7-3.7c-3.7,6.1-9.2,13.5-13.5,19.3c2.6-1.3,7.7-0.6,10.7-0.4c-25.2,25.4-51.9,36.8-70.1,42.3
		c-5.7,1.7-11.7,3-24.2,6C635.2,303.2,626.7,305.2,620.9,305.2z"/>
	<path class="st2" d="M623.6,251.6c-1.7-1.1-3.7-1.7-5.9-1.7c-6.1,0-11,4.9-11,11c0,6.1,4.9,11,11,11c2.2,0,4.2-0.6,5.9-1.7
		c1.7,1.1,3.7,1.7,5.9,1.7c6.1,0,11-4.9,11-11s-4.9-11-11-11C627.3,249.9,625.3,250.5,623.6,251.6z"/>
	<path class="st3" d="M623.6,270.7c-0.9-0.1-2.2,0.4-2.9,0.6c-2.4,0.6-4.6,0.5-6.9-0.2c-1.7-0.5-2.9-1.6-4.3-2.7
		c-0.4-0.3-1.5-2.3-1.3-1.2c0.1,0.5,1,2.4,1.3,2.9c0.6,0.9,1,1.9,1.7,2.6c1.6,1.7,4.7,2.4,6.8,2.6c1.6,0.2,3.3,0.1,4.9-0.3
		c0.2,0,0.4-0.1,0.6-0.1c0.2,0,0.4,0.1,0.6,0.1c1.6,0.4,3.3,0.5,4.9,0.3c2.2-0.3,5.3-1,6.8-2.6c0.7-0.8,1.2-1.7,1.7-2.6
		c0.3-0.5,1.2-2.4,1.3-2.9c0.3-1.1-0.9,0.9-1.3,1.2c-1.4,1.1-2.5,2.1-4.3,2.7c-2.4,0.7-4.5,0.9-6.9,0.2
		C625.8,271.2,624.5,270.6,623.6,270.7z"/>
	<path class="st4" d="M611.7,202.8c0.3,0.5,9,12.3,8.2,38.2c-0.1,1.8,0.1,5.5,0,7.5c-0.2,2.5-3-2.9-3.3,0c0,0,2.3-12.2-4-33.6
		c-0.6-2.1-2.3-6.4-3.1-8.5c-1.6-4-3.6-8.6-5.2-10.2C604.3,196.3,609.1,199,611.7,202.8z"/>
	<path class="st4" d="M635.5,202.8c-0.3,0.5-9,12.3-8.2,38.2c0.1,1.8-0.1,5.5,0,7.5c0.2,2.5,3-2.9,3.3,0c0,0-2.3-12.2,4-33.6
		c0.6-2.1,2.3-6.4,3.1-8.5c1.6-4,3.6-8.6,5.2-10.2C642.9,196.3,638.1,199,635.5,202.8z"/>
	<path class="st5" d="M623.6,246.8c-0.3,0-1,0-2.5,0c-1.9,0-3.4,0.4-3.4,0.4c-1.2,0.3-1.9,1.6-1.1,3c1.1,2.3,4.7,5,7.1,5.5
		c2.3-0.5,5.9-3.1,7.1-5.5c0.8-1.5,0.1-2.7-1.1-3c0,0-1.5-0.4-3.4-0.4C624.6,246.8,623.9,246.8,623.6,246.8z"/>
	<path d="M621.4,254.4c0.1,0-0.2-1.9-0.9-2.5s-2.6-0.4-2.4,0C618.5,252.3,620.8,254.2,621.4,254.4z"/>
	<path d="M625.8,254.4c-0.1,0,0.2-1.9,0.9-2.5s2.6-0.4,2.4,0C628.7,252.3,626.4,254.2,625.8,254.4z"/>
	<path class="st6" d="M608.3,266.7c0,0,3.5,5.5,8.6,5.5c4.1,0.1,6.1-1.2,6.7-1.7c0.6,0.5,2.6,1.8,6.7,1.7c5.1-0.1,8.6-5.5,8.6-5.5"
		/>
	<g>
		<g>
			<path d="M647.3,188.1c-1.2,1.7-2.5,3.3-3.7,4.8c-1.3,1.6-2.5,3.1-3.7,4.8c0.5-2,1.7-3.8,2.9-5.4c0.7-0.8,1.3-1.6,2.1-2.3
				C645.6,189.3,646.4,188.7,647.3,188.1z"/>
		</g>
		<g>
			<path d="M654.3,187.2c-1.4,1.7-2.9,3.2-4.3,4.8c-1.4,1.6-2.8,3.1-4.1,4.9c0.3-1.1,0.8-2,1.4-3c0.6-0.9,1.3-1.8,2-2.6
				s1.5-1.5,2.3-2.2C652.4,188.4,653.3,187.8,654.3,187.2z"/>
		</g>
		<g>
			<path d="M665.5,188.1c-2.1,0.8-4.1,1.5-6.1,2.4c-1,0.4-1.9,0.9-2.8,1.5c-0.9,0.6-1.7,1.3-2.4,2.2c0.3-1.1,1-2,1.9-2.8
				c0.8-0.8,1.8-1.3,2.9-1.8c1-0.5,2.1-0.8,3.2-1.1C663.3,188.3,664.4,188.1,665.5,188.1z"/>
		</g>
		<circle id="leftBrow1_1_" cx="656.1" cy="203.6" r="0.8"/>
		<circle id="leftBrow4_1_" cx="632.5" cy="205.7" r="0.8"/>
		<circle id="leftBrow3_1_" cx="642.5" cy="202.5" r="0.8"/>
		<circle id="leftBrow0_1_" cx="660.1" cy="206.5" r="0.8"/>
		<circle id="leftBrow2_1_" cx="649.8" cy="202.1" r="0.8"/>
	</g>
	<g>
		<g>
			<path d="M599.9,188.1c0.9,0.6,1.7,1.2,2.4,1.9s1.4,1.5,2.1,2.3c1.3,1.6,2.4,3.4,2.9,5.4c-1.2-1.7-2.4-3.2-3.7-4.8
				C602.4,191.3,601.1,189.8,599.9,188.1z"/>
		</g>
		<g>
			<path d="M592.9,187.2c1,0.5,1.8,1.2,2.7,1.9c0.8,0.7,1.6,1.4,2.3,2.2s1.4,1.7,2,2.6c0.6,0.9,1.1,1.9,1.4,3
				c-1.3-1.7-2.7-3.3-4.1-4.9C595.8,190.4,594.3,188.9,592.9,187.2z"/>
		</g>
		<g>
			<path d="M581.7,188.1c1.1,0,2.2,0.2,3.3,0.4c1.1,0.3,2.1,0.6,3.2,1.1c1,0.5,2,1.1,2.9,1.8c0.8,0.8,1.6,1.7,1.9,2.8
				c-0.7-0.9-1.5-1.6-2.4-2.2c-0.9-0.6-1.8-1.1-2.8-1.5C585.8,189.6,583.8,188.9,581.7,188.1z"/>
		</g>
		<circle id="rightBrow1_1_" cx="592.4" cy="203.2" r="0.8"/>
		<circle id="rightBrow4_1_" cx="615.7" cy="206.2" r="0.8"/>
		<circle id="rightBrow3_1_" cx="605.9" cy="202.2" r="0.8"/>
		<circle id="rightBrow0_1_" cx="588.4" cy="206.9" r="0.8"/>
		<circle id="rightBrow2_1_" cx="598.6" cy="202.2" r="0.8"/>
		<circle id="rightBrow1_2_" cx="592.4" cy="203.2" r="0.8"/>
		<circle id="rightBrow4_2_" cx="615.7" cy="206.2" r="0.8"/>
		<circle id="rightBrow3_2_" cx="605.9" cy="202.2" r="0.8"/>
		<circle id="rightBrow0_2_" cx="588.4" cy="206.9" r="0.8"/>
		<circle id="rightBrow2_2_" cx="598.6" cy="202.2" r="0.8"/>
	</g>
	<g>
		<circle id="rightEye0_1_" cx="594.6" cy="215.1" r="0.8"/>
		<circle id="rightEye1_1_" cx="599.8" cy="211.4" r="0.8"/>
		<circle id="rightEye5_1_" cx="599.8" cy="217.4" r="0.8"/>
		<circle id="rightEye2_1_" cx="606.1" cy="211.4" r="0.8"/>
		<circle id="rightEye3_1_" cx="611.3" cy="215.6" r="0.8"/>
		<circle id="rightEye4_1_" cx="606.1" cy="216.6" r="0.8"/>
		<path class="st7" d="M573.1,208.1c0,0,14.9,15.2,39.7,14.9c0,0-23.9,1-34.1-2.8c-10.1-3.8-10.4-13.5-9.1-17.6
			C569.7,202.6,571.3,206.4,573.1,208.1z"/>
		<path class="st8" d="M612.8,223c0.5,0-2.2-11.7-13.9-19.8c-3.8-2.7-12.1-5.6-16.8-5.2c-5,0.5-9.9,1.3-12.5,4.5
			C570,203.2,579.2,224.3,612.8,223z"/>
		<path d="M612.9,222.4c-0.3-2.9-6.6-12-13.3-15.1c0,0-3.9-2-7.9-2.5c0,0-3.9-2.8-5.1-6.1c0,0-0.3,4.2,1.1,5.8c0,0-5.8-3.3-8.8-7.4
			c0,0,1.1,5.5,5.2,8c0,0-6.2-3-9.1-6.7c0,0,1.4,4.7,5.3,7.7c0,0-2.3-0.2-8.7-3.9c0.5,0.8,2.1,3.8,5.1,5.6c0,0,1.4,3.7,7.1,7.6
			c5.1,3.5,7.5,4.1,11.1,5.3c2.4,0.8,11.5,1.7,13.6,1.9c0.5,0,0.9,0.2,1.3,0.4c0.6,0.3,1.2,0.5,1.7,0.6
			C612.4,223.8,613,223.1,612.9,222.4z"/>
		<path class="st9" d="M589.1,211.4c0.5-1.6,1.6-2.8,2.9-3.7c-3.7-0.6-7.9-0.6-12.7,0.4c0,0,3.1,5.7,10.5,9.4
			C588.7,215.7,588.3,213.5,589.1,211.4z"/>
		<path class="st9" d="M610.9,221c-0.8-1.7-2.5-4.3-5.3-6.8c0.1,1,0,1.9-0.4,2.9c-0.6,1.8-2,3.2-3.6,4.1c3.5,0.6,6.3,0.7,8,1
			c1.2,0.3,2.6,1.6,2.6,0.9C612.3,222.3,611.6,222.3,610.9,221z"/>
		<path class="st10" d="M605.3,217.1c0.3-1,0.4-1.9,0.4-2.9c-3.1-2.8-7.6-5.4-13.7-6.4c-1.3,0.9-2.4,2.1-2.9,3.7
			c-0.7,2.1-0.4,4.3,0.7,6.1c0.8,0.4,1.7,0.8,2.6,1.1c3.4,1.3,6.6,2,9.4,2.4C603.3,220.3,604.6,218.9,605.3,217.1z M602.2,216
			c-0.8,2.3-3.5,3.4-6.1,2.5s-4-3.5-3.2-5.8c0,0,0-0.1,0.1-0.1c-0.7-0.5-1.1-1.4-0.8-2.3c0.4-1,1.6-1.6,2.7-1.2
			c0.5,0.2,0.9,0.5,1.1,0.8c0.9-0.2,2-0.2,3,0.2C601.5,211.1,603,213.7,602.2,216z"/>
		<path d="M599,210.2c-1-0.4-2-0.4-3-0.2c0.4,0.5,0.5,1.2,0.3,1.8c-0.4,1-1.6,1.6-2.7,1.2c-0.2-0.1-0.4-0.2-0.6-0.3
			c0,0,0,0.1-0.1,0.1c-0.8,2.3,0.6,4.9,3.2,5.8c2.6,0.9,5.3-0.3,6.1-2.5C603,213.7,601.5,211.1,599,210.2z"/>
		<path class="st9" d="M596,210.1c-0.3-0.4-0.6-0.7-1.1-0.8c-1.2-0.4-2.4,0.1-2.7,1.2c-0.3,0.8,0.1,1.7,0.8,2.3
			C593.5,211.3,594.6,210.4,596,210.1z"/>
		<path class="st9" d="M596.3,211.9c0.2-0.6,0.1-1.3-0.3-1.8c-1.4,0.3-2.6,1.3-3.1,2.6c0.2,0.1,0.4,0.3,0.6,0.3
			C594.8,213.4,596,212.9,596.3,211.9z"/>
		<circle id="rightEye0_2_" cx="594.6" cy="215.1" r="0.8"/>
		<circle id="rightEye1_2_" cx="599.8" cy="211.4" r="0.8"/>
		<circle id="rightEye5_2_" cx="599.8" cy="217.4" r="0.8"/>
		<circle id="rightEye2_2_" cx="606.1" cy="211.4" r="0.8"/>
		<circle id="rightEye3_2_" cx="611.3" cy="215.6" r="0.8"/>
		<circle id="rightEye4_2_" cx="606.1" cy="216.6" r="0.8"/>
		<path d="M611.1,258.8l-1.5-0.6c-0.4-0.2-0.9-0.4-1.4-0.5c-0.9-0.3-1.9-0.6-2.8-0.9l-1.4-0.4l-1.4-0.3c-1-0.2-1.9-0.4-2.9-0.6
			c-3.9-0.6-7.9-0.8-11.8-0.8c-2,0.1-4,0.2-5.9,0.4c-2,0.2-3.9,0.5-5.9,0.8c-1,0.1-2,0.4-2.9,0.6l-2.9,0.6l-5.8,1.5
			c1.9-0.6,3.8-1.3,5.7-1.8s3.9-1,5.8-1.4c2-0.4,3.9-0.8,5.9-1c2-0.3,4-0.4,6-0.5c4-0.1,8,0,12,0.6c1,0.2,2,0.3,3,0.5s2,0.4,2.9,0.7
			c1,0.3,1.9,0.6,2.9,0.9c0.5,0.2,0.9,0.3,1.4,0.5c0.2,0.1,0.5,0.2,0.7,0.3c0.2,0.1,0.5,0.2,0.6,0.3L611.1,258.8z"/>
		<path d="M610.3,261.7c-3.5-0.9-7.1-1.5-10.7-1.8c-3.6-0.3-7.3-0.3-10.9,0c-7.3,0.6-14.4,2.3-21.4,4.4c6.8-2.7,14-4.5,21.3-5.2
			c3.7-0.4,7.4-0.4,11-0.2c3.7,0.2,7.3,0.9,10.9,1.8L610.3,261.7z"/>
		<path d="M610.1,264.8c-3.3-0.2-6.6-0.2-9.9,0.1c-3.3,0.2-6.6,0.7-9.8,1.4c-6.5,1.4-12.8,3.7-18.9,6.2c5.9-3.2,12.2-5.4,18.7-7
			c3.3-0.8,6.6-1.3,9.9-1.6c3.3-0.3,6.7-0.3,10.1-0.1L610.1,264.8z"/>
	</g>
	<g>
		<circle id="leftEye0_1_" cx="654.2" cy="215.1" r="0.8"/>
		<circle id="leftEye1_1_" cx="649" cy="211.4" r="0.8"/>
		<circle id="leftEye5_1_" cx="649" cy="217.4" r="0.8"/>
		<circle id="leftEye2_1_" cx="642.7" cy="211.4" r="0.8"/>
		<circle id="leftEye3_1_" cx="637.5" cy="215.6" r="0.8"/>
		<circle id="leftEye4_1_" cx="642.7" cy="216.6" r="0.8"/>
		<path class="st7" d="M674.1,208.1c0,0-14.9,15.2-39.7,14.9c0,0,23.9,1,34.1-2.8c10.1-3.8,10.4-13.5,9.1-17.6
			C677.5,202.6,675.9,206.4,674.1,208.1z"/>
		<path class="st8" d="M634.4,223c-0.5,0,2.2-11.7,13.9-19.8c3.8-2.7,12.1-5.6,16.8-5.2c5,0.5,9.9,1.3,12.5,4.5
			C677.2,203.2,668,224.3,634.4,223z"/>
		<path d="M634.3,222.4c0.3-2.9,6.6-12,13.3-15.1c0,0,3.9-2,7.9-2.5c0,0,3.9-2.8,5.1-6.1c0,0,0.3,4.2-1.1,5.8c0,0,5.8-3.3,8.8-7.4
			c0,0-1.1,5.5-5.2,8c0,0,6.2-3,9.1-6.7c0,0-1.4,4.7-5.3,7.7c0,0,2.3-0.2,8.7-3.9c-0.5,0.8-2.1,3.8-5.1,5.6c0,0-1.4,3.7-7.1,7.6
			c-5.1,3.5-7.5,4.1-11.1,5.3c-2.4,0.8-11.5,1.7-13.6,1.9c-0.5,0-0.9,0.2-1.3,0.4c-0.6,0.3-1.2,0.5-1.7,0.6
			C634.8,223.8,634.2,223.1,634.3,222.4z"/>
		<path class="st9" d="M658.1,211.4c-0.5-1.6-1.6-2.8-2.9-3.7c3.7-0.6,7.9-0.6,12.7,0.4c0,0-3.1,5.7-10.5,9.4
			C658.6,215.7,658.9,213.5,658.1,211.4z"/>
		<path class="st9" d="M636.3,221c0.8-1.7,2.5-4.3,5.3-6.8c-0.1,1,0,1.9,0.4,2.9c0.6,1.8,2,3.2,3.6,4.1c-3.5,0.6-6.3,0.7-8,1
			c-1.2,0.3-2.6,1.6-2.6,0.9C634.9,222.3,635.6,222.3,636.3,221z"/>
		<path class="st10" d="M645.5,221.1c2.7-0.4,5.9-1.1,9.4-2.4c0.9-0.3,1.8-0.7,2.6-1.1c1.1-1.9,1.4-4.1,0.7-6.1
			c-0.5-1.6-1.6-2.8-2.9-3.7c-6,1-10.5,3.6-13.7,6.4c-0.1,1,0,1.9,0.4,2.9C642.6,218.9,643.9,220.3,645.5,221.1z M648.2,210.2
			c1-0.4,2-0.4,3-0.2c0.3-0.4,0.6-0.7,1.1-0.8c1.2-0.4,2.4,0.1,2.7,1.2c0.3,0.8-0.1,1.7-0.8,2.3c0,0,0,0.1,0.1,0.1
			c0.8,2.3-0.6,4.9-3.2,5.8c-2.6,0.9-5.3-0.3-6.1-2.5C644.2,213.7,645.7,211.1,648.2,210.2z"/>
		<path d="M648.2,210.2c1-0.4,2-0.4,3-0.2c-0.4,0.5-0.5,1.2-0.3,1.8c0.4,1,1.6,1.6,2.7,1.2c0.2-0.1,0.4-0.2,0.6-0.3
			c0,0,0,0.1,0.1,0.1c0.8,2.3-0.6,4.9-3.2,5.8c-2.6,0.9-5.3-0.3-6.1-2.5C644.2,213.7,645.7,211.1,648.2,210.2z"/>
		<path class="st9" d="M651.2,210.1c0.3-0.4,0.6-0.7,1.1-0.8c1.2-0.4,2.4,0.1,2.7,1.2c0.3,0.8-0.1,1.7-0.8,2.3
			C653.7,211.3,652.6,210.4,651.2,210.1z"/>
		<path class="st9" d="M650.9,211.9c-0.2-0.6-0.1-1.3,0.3-1.8c1.4,0.3,2.6,1.3,3.1,2.6c-0.2,0.1-0.4,0.3-0.6,0.3
			C652.4,213.4,651.2,212.9,650.9,211.9z"/>
		<circle id="leftEye0_2_" cx="654.2" cy="215.1" r="0.8"/>
		<circle id="leftEye1_2_" cx="649" cy="211.4" r="0.8"/>
		<circle id="leftEye5_2_" cx="649" cy="217.4" r="0.8"/>
		<circle id="leftEye2_2_" cx="642.7" cy="211.4" r="0.8"/>
		<circle id="leftEye3_2_" cx="637.5" cy="215.6" r="0.8"/>
		<circle id="leftEye4_2_" cx="642.7" cy="216.6" r="0.8"/>
		<path d="M635.6,258.5c0.1-0.1,0.3-0.2,0.6-0.3c0.2-0.1,0.5-0.2,0.7-0.3c0.5-0.2,0.9-0.4,1.4-0.5c0.9-0.3,1.9-0.7,2.9-0.9
			c1-0.3,1.9-0.5,2.9-0.7s2-0.4,3-0.5c4-0.6,8-0.7,12-0.6c2,0.1,4,0.2,6,0.5c2,0.2,4,0.6,5.9,1c2,0.4,3.9,0.9,5.8,1.4
			c1.9,0.6,3.8,1.2,5.7,1.8l-5.8-1.5l-2.9-0.6c-1-0.2-1.9-0.4-2.9-0.6c-2-0.3-3.9-0.7-5.9-0.8c-2-0.3-4-0.3-5.9-0.4
			c-4-0.1-7.9,0.1-11.8,0.8c-1,0.2-1.9,0.3-2.9,0.6l-1.4,0.3l-1.4,0.4c-1,0.3-1.9,0.6-2.8,0.9c-0.5,0.2-0.9,0.3-1.4,0.5l-1.5,0.6
			L635.6,258.5z"/>
		<path d="M636.4,261.4c3.6-0.9,7.2-1.5,10.9-1.8c3.7-0.2,7.4-0.2,11,0.2c7.3,0.7,14.5,2.5,21.3,5.2c-7-2.1-14.1-3.8-21.4-4.4
			c-3.6-0.3-7.3-0.3-10.9,0c-3.6,0.3-7.2,0.9-10.7,1.8L636.4,261.4z"/>
		<path d="M636.7,264.4c3.3-0.2,6.7-0.2,10.1,0.1c3.3,0.3,6.7,0.8,9.9,1.6c6.5,1.5,12.9,3.8,18.7,7c-6.2-2.5-12.4-4.8-18.9-6.2
			c-3.2-0.7-6.5-1.2-9.8-1.4c-3.3-0.2-6.6-0.3-9.9-0.1L636.7,264.4z"/>
	</g>
</g>
<g id="skeleton_1_">
	<polygon class="st6" points="518.8,349.5 569.1,565.3 685.5,564.5 731.7,349.5 	"/>
	<polyline class="st6" points="517.8,349.5 445.4,431.1 352,547.5 	"/>
	<polyline class="st6" points="733.2,349.1 806.2,430.7 899.6,547 	"/>
	<polyline class="st6" points="569.1,565.3 575.5,725.5 575.5,933.5 	"/>
	<polyline class="st6" points="685.5,564.5 685.5,725.5 685.5,933.5 	"/>
	<polyline class="st6" points="624.5,170 604.7,172.5 592.2,182 583.6,196.1 581.1,205.4 580.3,217.1 580.3,226.6 581.1,248.3 
		587.9,268.3 599.5,280.8 609.5,287.5 624.5,290.7 639.3,287.9 649.3,281.2 660.9,268.6 667.7,248.6 668.5,227 668.5,217.4 
		667.7,205.7 665.2,196.5 657,182 644.4,172.5 624.5,170 	"/>
	<polyline class="st6" points="588.5,206.9 592.5,203.2 598.7,202.2 606,202.2 615.8,206.2 	"/>
	<polygon class="st6" points="594.7,215.1 599.9,211.4 606.2,211.4 611.4,215.6 606.2,216.6 599.9,217.4 	"/>
	<polyline class="st6" points="613,233.2 618.2,233.2 623.7,234 623.7,228.7 623.7,221.6 623.7,216.1 623.7,210.3 	"/>
	<polyline class="st6" points="660,206.5 656,203.6 649.7,202.1 642.4,202.5 632.4,205.7 	"/>
	<polygon class="st6" points="654.1,215.1 648.8,211.4 642.5,211.4 637.4,215.6 642.5,216.6 648.8,217.4 	"/>
	<polyline class="st6" points="634.1,233.2 629.1,233.2 623.7,234 	"/>
	<polygon class="st6" points="607,255.3 613.9,251.9 620.4,250.8 624.5,251.7 628.7,250.8 635.1,251.9 642,255.3 635.6,261.6 
		628.5,264.4 624.5,264.9 620.4,264.4 613.4,261.6 	"/>
	<polyline class="st6" points="607,255.3 610.6,255.6 620.6,254.8 624.5,255.3 628.5,254.8 638.4,255.6 642,255.3 	"/>
	<polyline class="st6" points="607,255.3 610.6,255.6 620.6,257.7 624.5,258.5 628.5,257.7 638.4,255.6 642,255.3 	"/>
	<circle id="rightShoulder" cx="518.9" cy="349.2" r="8.2"/>
	<circle id="rightElbow" cx="445.4" cy="439.3" r="8.2"/>
	<circle id="rightWrist" cx="352" cy="555.7" r="8.2"/>
	<circle id="rightHip" cx="569.2" cy="565" r="8.2"/>
	<circle id="rightKnee" cx="575.6" cy="725.2" r="8.2"/>
	<circle id="rightAnkle" cx="575.6" cy="933.2" r="8.2"/>
	<circle id="leftElbow" cx="806.2" cy="438.9" r="8.2"/>
	<circle id="leftWrist" cx="899.6" cy="555.2" r="8.2"/>
	<circle id="leftHip" cx="685.6" cy="564.2" r="8.2"/>
	<circle id="leftKnee" cx="685.6" cy="725.2" r="8.2"/>
	<circle id="leftAnkle" cx="685.6" cy="933.2" r="8.2"/>
	<circle id="rightEye0" cx="594.7" cy="215.1" r="0.8"/>
	<circle id="rightBrow1" cx="592.5" cy="203.2" r="0.8"/>
	<circle id="rightBrow4" cx="615.8" cy="206.2" r="0.8"/>
	<circle id="nose1" cx="623.7" cy="216.1" r="0.8"/>
	<circle id="rightBrow3" cx="606" cy="202.2" r="0.8"/>
	<circle id="rightEye1" cx="599.9" cy="211.4" r="0.8"/>
	<circle id="rightBrow0" cx="588.5" cy="206.9" r="0.8"/>
	<circle id="rightBrow2" cx="598.7" cy="202.2" r="0.8"/>
	<circle id="rightEye5" cx="599.9" cy="217.4" r="0.8"/>
	<circle id="rightEye2" cx="606.2" cy="211.4" r="0.8"/>
	<circle id="rightEye3" cx="611.4" cy="215.6" r="0.8"/>
	<circle id="nose0" cx="623.7" cy="210.3" r="0.8"/>
	<circle id="nose3" cx="623.7" cy="228.7" r="0.8"/>
	<circle id="rightNose0" cx="613" cy="233.2" r="0.8"/>
	<circle id="rightMouthCorner" cx="607" cy="255.3" r="0.8"/>
	<circle id="rightNose1" cx="618.2" cy="233.2" r="0.8"/>
	<circle id="rightUpperLipTop0" cx="613.9" cy="251.9" r="0.8"/>
	<circle id="nose2" cx="623.7" cy="221.6" r="0.8"/>
	<circle id="nose4" cx="623.7" cy="234" r="0.8"/>
	<circle id="upperLipTopMid" cx="624.5" cy="251.7" r="0.8"/>
	<circle id="rightUpperLipTop1" cx="620.4" cy="250.8" r="0.8"/>
	<path id="rightMiddleLip" d="M610.6,254.8c0.4,0,0.8,0.4,0.8,0.8c0,0.4-0.4,0.8-0.8,0.8s-0.8-0.4-0.8-0.8S610.2,254.8,610.6,254.8z
		"/>
	<circle id="lowerLipBottomMid" cx="624.5" cy="264.9" r="0.8"/>
	<circle id="upperLipBottomMid" cx="624.5" cy="255.3" r="0.8"/>
	<circle id="lowerLipTopMid" cx="624.5" cy="258.4" r="0.8"/>
	<circle id="rightUpperLipBottom1" cx="620.6" cy="254.8" r="0.8"/>
	<circle id="rightLowerLipTop0" cx="620.6" cy="257.7" r="0.8"/>
	<circle id="rightLowerLipBottom1" cx="620.4" cy="264.4" r="0.8"/>
	<circle id="rightLowerLipBottom0" cx="613.4" cy="261.6" r="0.8"/>
	<circle id="rightEye4" cx="606.2" cy="216.6" r="0.8"/>
	<circle id="jawMid" cx="624.5" cy="290.7" r="0.8"/>
	<circle id="rightJaw7" cx="609.5" cy="287.5" r="0.8"/>
	<circle id="rightJaw6" cx="599.5" cy="280.8" r="0.8"/>
	<circle id="rightJaw5" cx="587.9" cy="268.3" r="0.8"/>
	<circle id="rightJaw4" cx="581.1" cy="248.3" r="0.8"/>
	<circle id="rightJaw3" cx="580.3" cy="226.6" r="0.8"/>
	<circle id="rightJaw2" cx="580.3" cy="217.1" r="0.8"/>
	<circle id="rightJaw1" cx="581.1" cy="205.4" r="0.8"/>
	<circle id="rightJaw0" cx="583.6" cy="196.1" r="0.8"/>
	<circle id="topMid" cx="624.7" cy="170" r="0.8"/>
	<circle id="leftTop0" cx="644.4" cy="172.5" r="0.8"/>
	<circle id="leftTop1" cx="657" cy="182" r="0.8"/>
	<circle id="leftEye0" cx="654.3" cy="215.1" r="0.8"/>
	<circle id="leftBrow1" cx="656.2" cy="203.6" r="0.8"/>
	<circle id="leftBrow4" cx="632.6" cy="205.7" r="0.8"/>
	<circle id="leftBrow3" cx="642.6" cy="202.5" r="0.8"/>
	<circle id="leftEye1" cx="649.1" cy="211.4" r="0.8"/>
	<circle id="leftBrow0" cx="660.2" cy="206.5" r="0.8"/>
	<circle id="leftBrow2" cx="649.9" cy="202.1" r="0.8"/>
	<circle id="leftEye5" cx="649.1" cy="217.4" r="0.8"/>
	<circle id="leftEye2" cx="642.8" cy="211.4" r="0.8"/>
	<circle id="leftEye3" cx="637.6" cy="215.6" r="0.8"/>
	<circle id="leftNose0" cx="634.1" cy="233.2" r="0.8"/>
	<circle id="leftMouthCorner" cx="642" cy="255.3" r="0.8"/>
	<circle id="leftNose1" cx="629.3" cy="233.2" r="0.8"/>
	<circle id="leftUpperLipTop0" cx="635.1" cy="251.9" r="0.8"/>
	<circle id="leftUpperLipTop1" cx="628.7" cy="250.8" r="0.8"/>
	<path id="leftMiddleLip" d="M638.4,254.8c0.4,0,0.8,0.4,0.8,0.8c0,0.4-0.4,0.8-0.8,0.8s-0.8-0.4-0.8-0.8S638,254.8,638.4,254.8z"/>
	<circle id="leftUpperLipBottom1" cx="628.5" cy="254.8" r="0.8"/>
	<circle id="leftLowerLipTop0" cx="628.5" cy="257.7" r="0.8"/>
	<circle id="leftLowerLipBottom1" cx="628.7" cy="264.4" r="0.8"/>
	<circle id="leftLowerLipBottom0" cx="635.6" cy="261.6" r="0.8"/>
	<circle id="leftEye4" cx="642.8" cy="216.6" r="0.8"/>
	<circle id="leftJaw7" cx="639.3" cy="287.9" r="0.8"/>
	<circle id="leftJaw6" cx="649.3" cy="281.2" r="0.8"/>
	<circle id="leftJaw5" cx="660.9" cy="268.6" r="0.8"/>
	<circle id="leftJaw4" cx="667.7" cy="248.6" r="0.8"/>
	<circle id="leftJaw3" cx="668.5" cy="227" r="0.8"/>
	<circle id="leftJaw2" cx="668.5" cy="217.4" r="0.8"/>
	<circle id="leftJaw1" cx="667.7" cy="205.7" r="0.8"/>
	<circle id="leftJaw0" cx="665.2" cy="196.5" r="0.8"/>
	<circle id="rightTop0" cx="604.8" cy="172.5" r="0.8"/>
	<circle id="rightTop1" cx="592.2" cy="182" r="0.8"/>
	<circle id="leftShoulder" cx="731.8" cy="349.2" r="8.2"/>
</g>
</svg>
