<?xml version="1.0" encoding="utf-8"?>
<!-- Generator: Adobe Illustrator 25.0.0, SVG Export Plug-In . SVG Version: 6.00 Build 0)  -->
<svg version="1.1" id="Layer_1" xmlns="http://www.w3.org/2000/svg" xmlns:xlink="http://www.w3.org/1999/xlink" x="0px" y="0px"
	 viewBox="0 0 1200 1200" style="enable-background:new 0 0 1200 1200;" xml:space="preserve">
<style type="text/css">
	.st0{fill:#EDEDED;stroke:#A5A5A5;stroke-miterlimit:10;}
	.st1{fill:#FFD65B;}
	.st2{fill:#FFCB6F;}
	.st3{fill:#FFFFFF;stroke:#C7C7C7;stroke-miterlimit:10;}
	.st4{fill:none;stroke:#C7C7C7;stroke-miterlimit:10;}
	.st5{fill:none;stroke:#7A7A7A;stroke-miterlimit:10;}
	.st6{fill:#CFCFCF;}
	.st7{fill:#FFA3AD;}
	.st8{fill:#FFFFFF;}
	.st9{fill:none;stroke:#000000;stroke-miterlimit:10;}
</style>
<g id="illustration">
	<path class="st0" d="M720.6,549.2L520.2,550c0,64.2-1.3,143.2-1.3,219.9v141.2l0,0c-0.8,13.5,7.7,63.1,50.2,59.5
		c41.2-3.5,42.7-48.3,42.4-60.1V771.2V595.4c0-5.3,4.3-9.6,9.6-9.6h6.8c5.3,0,9.6,4.3,9.6,9.6v175.8v139.9c0,0.1,0,0.2,0,0.3
		c-0.6,13.8,8,62.8,50.2,59.2c40.3-3.4,42.6-46.5,42.5-59.3c0-0.1,0-0.1,0-0.2V771.2V558.8C730.2,553.5,725.9,549.2,720.6,549.2z"/>
	<path class="st0" d="M520.3,559.1c-1.4-74.9-13.5-131.9,8.4-171.3c13.4-24.2,29.7-41.7,47.4-52.8c15.5-9.7,32.3-12.4,48.9-12.2
		c16.5,0.2,33.2,3.3,48.6,13.2c17.4,11.1,33.7,28.4,46.9,52c22.5,39.7,9.6,171.3,9.6,171.3"/>
	<path class="st0" d="M904.6,463.8"/>
	<path class="st0" d="M728.6,407.1c0,0,40.9,36.8,54.2,51.3s75.5,93.7,82.9,100.9c9.5,9.3,33.3,10.7,44.2,1.2
		c2-1.7,12.5-10.4,5.8-26.4s-57.7-84.9-82.5-115.2l0,0l0,0c-1-1.3-2-2.5-3-3.6l0,0c-2.2-2.7-4.4-5.4-6.6-8c-1.3-1.6-2-2.4-2-2.4l0,0
		c-70.3-80.3-157.2-80.6-170.1-79.5"/>
	<path class="st0" d="M874.5,547.9c0,0-2.1,8-4,16.9c-1.8,8.8-21.3,7.2-19.4-5.8c1.8-13.2,6.8-20.6,6.8-20.6"/>
	<path class="st0" d="M597.5,325c-15-1.3-97.4-4.7-169.9,78.1l0,0c0,0-0.7,0.8-2,2.4c-2.2,2.6-4.4,5.3-6.6,8l0,0c-1,1.1-2,2.3-3,3.6
		l0,0l0,0c-24.8,30.3-75.8,99.2-82.5,115.2s3.8,24.7,5.8,26.4c10.9,9.5,34.7,8.1,44.2-1.2c7.4-7.2,69.6-86.4,82.9-100.9
		s57.3-54.4,57.3-54.4"/>
	<path class="st0" d="M390.3,538.5c0,0,5,7.4,6.8,20.6c1.9,13-17.5,14.6-19.4,5.8c-1.8-8.9-4-16.9-4-16.9"/>
	<path class="st0" d="M592.7,328.4l8.3-33.2h49.5c0,0,4,17.7,7.5,33.7"/>
	<path class="st0" d="M604.5,165.1c0-1.1-3.4-11.4-10.4-10.8c-7,0.5-48.9,18.5-48.9,18.5s6.8,13.5,25.8,14.4
		C590.1,187.8,604.4,178.4,604.5,165.1z"/>
	<path class="st0" d="M645.2,165.1c0-1.1,3.4-11.4,10.4-10.8s48.9,18.5,48.9,18.5s-6.8,13.5-25.8,14.4
		C659.7,187.8,645.4,178.4,645.2,165.1z"/>
	<path class="st1" d="M581.1,170.4c-0.8,0.1-31.1,3.2-31.1,3.2s11.6,12,26.3,8.8c14.7-3.1,13.7-8.6,12.5-10.5
		S586.7,169.8,581.1,170.4z"/>
	<path class="st1" d="M668.7,170.4c0.8,0.1,31.1,3.2,31.1,3.2s-11.6,12-26.4,8.8c-14.7-3.1-13.7-8.6-12.5-10.5
		S663,169.8,668.7,170.4z"/>
	<path class="st0" d="M623.8,146.4c0,0-28.8-1.2-46,23.3c-15.2,21.6-30.1,54.2-33.2,63.9c-4.3,14.1-0.3,33.2,7,44s18.1,17.9,29,20.3
		c10.5,2.3,33.8,3.8,44.1,3.8s33.6-1.5,44.1-3.8c10.9-2.4,21.7-9.4,29-20.3c7.4-10.8,11.3-29.9,7-44c-2.9-9.7-18-42.4-33.2-63.9
		c-17.1-24.4-46-23.3-46-23.3L623.8,146.4L623.8,146.4z"/>
	<path class="st2" d="M623.5,236.8c-0.1,0-5.7-0.4-7.6,0.5c-1.8,0.9-1.6,3.2-1.1,4.6s3.1,5.2,8.6,5.3c5.5-0.1,8-3.9,8.6-5.3
		s0.8-3.7-1.1-4.6C629.2,236.4,623.6,236.8,623.5,236.8z"/>
	<path d="M617.5,240.8c0.4,0.4,0.3,1.6,1.5,2.5s2.3,0.3,2,1.3c-0.2,0.6-1.9,0.5-2.7-0.3c-0.9-0.8-0.9-1.7-1-2.3
		C617.1,241.7,617.2,240.5,617.5,240.8z"/>
	<path d="M629.5,240.8c-0.4,0.4-0.3,1.6-1.5,2.5s-2.3,0.3-2,1.3c0.2,0.6,1.9,0.5,2.7-0.3c0.9-0.8,0.9-1.7,1-2.3
		C629.9,241.7,629.8,240.5,629.5,240.8z"/>
	<path class="st3" d="M623.5,261.2c-2,2.8-6.3,4.2-6.3,4.2c0,0.4,1.6,8.3,2.9,9c1.3,0.7,3.5,0.5,3.5,0.5s2.2,0.2,3.5-0.5
		s2.9-8.6,2.9-9C629.8,265.4,625.5,264,623.5,261.2z"/>
	<line class="st4" x1="623.5" y1="274.9" x2="623.5" y2="261.6"/>
	<path class="st5" d="M607.8,261.5c0,0,4,4.1,8.6,3.8c3.7-0.2,6.2-3,7.1-4.2c0.9,1.2,3.5,3.9,7.1,4.2c4.7,0.3,8.6-3.8,8.6-3.8"/>
	<g>
		<path d="M591.6,201.6c-0.4,0.4,9.4-4.4,12.5-4.4s4.5-2,3.3-2.3C606,194.6,596.1,196.2,591.6,201.6z"/>
		<circle id="rightBrow1_2_" cx="592.4" cy="203.2" r="0.8"/>
		<circle id="rightBrow4_2_" cx="615.7" cy="206.2" r="0.8"/>
		<circle id="rightBrow3_2_" cx="605.9" cy="202.2" r="0.8"/>
		<circle id="rightBrow0_2_" cx="588.4" cy="206.9" r="0.8"/>
		<circle id="rightBrow2_2_" cx="598.6" cy="202.2" r="0.8"/>
		<path d="M655.4,201.6c0.4,0.4-9.4-4.4-12.5-4.4s-4.5-2-3.3-2.3C641,194.6,650.9,196.2,655.4,201.6z"/>
		<circle id="leftBrow1_2_" cx="656.1" cy="203.6" r="0.8"/>
		<circle id="leftBrow4_2_" cx="632.5" cy="205.7" r="0.8"/>
		<circle id="leftBrow3_2_" cx="642.5" cy="202.5" r="0.8"/>
		<circle id="leftBrow0_2_" cx="660.1" cy="206.5" r="0.8"/>
		<circle id="leftBrow2_2_" cx="649.8" cy="202.1" r="0.8"/>
	</g>
	<g>
		<g>
			<path d="M581.2,238.3c1.9,0.1,3.8,0.4,5.7,0.9c1.9,0.4,3.7,1.1,5.5,1.8c3.6,1.4,7,3.3,9.9,5.8l-0.6,0.8c-3.2-2-6.5-3.7-9.9-5.2
				c-1.7-0.7-3.5-1.4-5.2-2.1C584.8,239.6,583,239,581.2,238.3z"/>
		</g>
		<g>
			<path d="M579,255c1.7-0.6,3.4-1.1,5.2-1.5s3.5-0.7,5.3-0.9s3.6-0.3,5.4-0.3c1.8,0,3.6,0,5.4,0.2l-0.1,1c-1.8-0.1-3.6-0.1-5.3-0.1
				c-1.8,0-3.6,0.1-5.3,0.2c-1.8,0.1-3.5,0.3-5.3,0.6C582.6,254.4,580.8,254.7,579,255z"/>
		</g>
		<g>
			<path d="M587.3,268.7c1-1.1,2.2-2.1,3.4-3.1c1.2-0.9,2.5-1.8,3.8-2.6c1.3-0.8,2.6-1.6,4-2.3c1.4-0.7,2.7-1.4,4.1-1.9l0.4,0.9
				l-4,2.1c-1.3,0.7-2.7,1.4-4,2.1c-1.3,0.8-2.6,1.5-3.9,2.3C589.8,267,588.6,267.8,587.3,268.7z"/>
		</g>
		<circle id="rightEye0_3_" cx="594.6" cy="215.1" r="0.8"/>
		<circle id="rightEye1_3_" cx="599.8" cy="211.4" r="0.8"/>
		<circle id="rightEye5_3_" cx="599.8" cy="217.4" r="0.8"/>
		<circle id="rightEye2_3_" cx="606.1" cy="211.4" r="0.8"/>
		<circle id="rightEye3_3_" cx="611.3" cy="215.6" r="0.8"/>
		<circle id="rightEye4_3_" cx="606.1" cy="216.6" r="0.8"/>
		<circle id="rightEye0_2_" cx="594.6" cy="215.1" r="0.8"/>
		<circle id="rightEye1_2_" cx="599.8" cy="211.4" r="0.8"/>
		<circle id="rightEye5_2_" cx="599.8" cy="217.4" r="0.8"/>
		<circle id="rightEye2_2_" cx="606.1" cy="211.4" r="0.8"/>
		<circle id="rightEye3_2_" cx="611.3" cy="215.6" r="0.8"/>
		<circle id="rightEye4_2_" cx="606.1" cy="216.6" r="0.8"/>
		<path class="st6" d="M591,210.9c-0.4,0.3,0.6,11.5,5.8,13.1c5.1,1.6,11.1-1.6,11.1-1.6L591,210.9z"/>
		<path class="st7" d="M591,210.9c0,0,0.6-4.7,5.7-6.8c5.1-2.1,7.2,2.3,8.2,4.2s3.4,9.1,3,14.1L591,210.9z"/>
		<g>
			<g>
				<path id="SVGID_1_" class="st8" d="M607.9,222.4c-0.3-0.2-0.8-14.2-8.1-16.9c-3.8-1.4-8.8,5.4-8.8,5.4s1.8,10.1,7.2,11.7
					C603.4,224.2,607.9,222.4,607.9,222.4z"/>
			</g>
		</g>
		<path d="M599.7,205.5c-0.7-0.3-1.5-0.2-2.3,0c-1.5,1.7-2.8,4.1-3.6,7c-0.5,1.8-0.7,3.6-0.6,5.3c1.1,2.2,2.7,4.2,4.9,4.9
			c1.1,0.3,2.2,0.5,3.2,0.6c1.8-1.6,3.4-4.3,4.2-7.6c0.2-0.7,0.3-1.4,0.4-2C604.9,210.1,603,206.7,599.7,205.5z"/>
	</g>
	<g>
		<g>
			<path d="M665.8,238.3c-1.8,0.7-3.5,1.4-5.3,2c-1.8,0.7-3.5,1.3-5.2,2.1c-3.4,1.5-6.7,3.2-9.9,5.2l-0.6-0.8
				c2.9-2.5,6.3-4.4,9.9-5.8c1.8-0.7,3.6-1.3,5.5-1.8C662,238.7,663.9,238.4,665.8,238.3z"/>
		</g>
		<g>
			<path d="M668,255c-1.8-0.3-3.5-0.6-5.3-0.8s-3.5-0.4-5.3-0.6c-1.8-0.2-3.5-0.2-5.3-0.2s-3.5,0-5.3,0.1l-0.1-1
				c1.8-0.2,3.6-0.3,5.4-0.2c1.8,0,3.6,0.2,5.4,0.3c1.8,0.2,3.6,0.5,5.3,0.9C664.6,253.9,666.3,254.4,668,255z"/>
		</g>
		<g>
			<path d="M659.7,268.7c-1.3-0.9-2.5-1.7-3.8-2.5s-2.6-1.6-3.9-2.3c-1.3-0.8-2.6-1.4-4-2.1l-4-2.1l0.4-0.9c1.4,0.6,2.8,1.2,4.1,1.9
				c1.4,0.7,2.7,1.5,4,2.3s2.5,1.7,3.8,2.6C657.5,266.6,658.7,267.6,659.7,268.7z"/>
		</g>
		<circle id="leftEye0_2_" cx="654.2" cy="215.1" r="0.8"/>
		<circle id="leftEye1_2_" cx="649" cy="211.4" r="0.8"/>
		<circle id="leftEye5_2_" cx="649" cy="217.4" r="0.8"/>
		<circle id="leftEye2_2_" cx="642.7" cy="211.4" r="0.8"/>
		<circle id="leftEye3_2_" cx="637.5" cy="215.6" r="0.8"/>
		<circle id="leftEye4_2_" cx="642.7" cy="216.6" r="0.8"/>
		<path class="st6" d="M655.9,210.9c0.4,0.3-0.6,11.5-5.8,13.1c-5.1,1.6-11.1-1.6-11.1-1.6L655.9,210.9z"/>
		<path class="st7" d="M655.9,210.9c0,0-0.6-4.7-5.7-6.8c-5.1-2.1-7.2,2.3-8.2,4.2s-3.4,9.1-3,14.1L655.9,210.9z"/>
		<g>
			<g>
				<path id="SVGID_3_" class="st8" d="M639,222.4c0.3-0.2,0.8-14.2,8.1-16.9c3.8-1.4,8.8,5.4,8.8,5.4s-1.8,10.1-7.2,11.7
					C643.4,224.2,639,222.4,639,222.4z"/>
			</g>
		</g>
		<path d="M647.1,205.5c0.7-0.3,1.5-0.2,2.3,0c1.5,1.7,2.8,4.1,3.6,7c0.5,1.8,0.7,3.6,0.6,5.3c-1.1,2.2-2.7,4.2-4.9,4.9
			c-1.1,0.3-2.2,0.5-3.2,0.6c-1.8-1.6-3.4-4.3-4.2-7.6c-0.2-0.7-0.3-1.4-0.4-2C642,210.1,643.9,206.7,647.1,205.5z"/>
	</g>
</g>
<g id="skeleton_1_">
	<polygon class="st9" points="518.8,349.5 569.1,565.3 685.5,564.5 731.7,349.5 	"/>
	<polyline class="st9" points="517.8,349.5 445.4,431.1 352,547.5 	"/>
	<polyline class="st9" points="733.2,349.1 806.2,430.7 899.6,547 	"/>
	<polyline class="st9" points="569.1,565.3 575.5,725.5 575.5,933.5 	"/>
	<polyline class="st9" points="685.5,564.5 685.5,725.5 685.5,933.5 	"/>
	<polyline class="st9" points="624.5,170 604.7,172.5 592.2,182 583.6,196.1 581.1,205.4 580.3,217.1 580.3,226.6 581.1,248.3 
		587.9,268.3 599.5,280.8 609.5,287.5 624.5,290.7 639.3,287.9 649.3,281.2 660.9,268.6 667.7,248.6 668.5,227 668.5,217.4 
		667.7,205.7 665.2,196.5 657,182 644.4,172.5 624.5,170 	"/>
	<polyline class="st9" points="588.5,206.9 592.5,203.2 598.7,202.2 606,202.2 615.8,206.2 	"/>
	<polygon class="st9" points="594.7,215.1 599.9,211.4 606.2,211.4 611.4,215.6 606.2,216.6 599.9,217.4 	"/>
	<polyline class="st9" points="613,233.2 618.2,233.2 623.7,234 623.7,228.7 623.7,221.6 623.7,216.1 623.7,210.3 	"/>
	<polyline class="st9" points="660,206.5 656,203.6 649.7,202.1 642.4,202.5 632.4,205.7 	"/>
	<polygon class="st9" points="654.1,215.1 648.8,211.4 642.5,211.4 637.4,215.6 642.5,216.6 648.8,217.4 	"/>
	<polyline class="st9" points="634.1,233.2 629.1,233.2 623.7,234 	"/>
	<polygon class="st9" points="607,255.3 613.9,251.9 620.4,250.8 624.5,251.7 628.7,250.8 635.1,251.9 642,255.3 635.6,261.6 
		628.5,264.4 624.5,264.9 620.4,264.4 613.4,261.6 	"/>
	<polyline class="st9" points="607,255.3 610.6,255.6 620.6,254.8 624.5,255.3 628.5,254.8 638.4,255.6 642,255.3 	"/>
	<polyline class="st9" points="607,255.3 610.6,255.6 620.6,257.7 624.5,258.5 628.5,257.7 638.4,255.6 642,255.3 	"/>
	<circle id="rightShoulder" cx="518.9" cy="349.2" r="8.2"/>
	<circle id="rightElbow" cx="445.4" cy="439.3" r="8.2"/>
	<circle id="rightWrist" cx="352" cy="555.7" r="8.2"/>
	<circle id="rightHip" cx="569.2" cy="565" r="8.2"/>
	<circle id="rightKnee" cx="575.6" cy="725.2" r="8.2"/>
	<circle id="rightAnkle" cx="575.6" cy="933.2" r="8.2"/>
	<circle id="leftElbow" cx="806.2" cy="438.9" r="8.2"/>
	<circle id="leftWrist" cx="899.6" cy="555.2" r="8.2"/>
	<circle id="leftHip" cx="685.6" cy="564.2" r="8.2"/>
	<circle id="leftKnee" cx="685.6" cy="725.2" r="8.2"/>
	<circle id="leftAnkle" cx="685.6" cy="933.2" r="8.2"/>
	<circle id="rightEye0" cx="594.7" cy="215.1" r="0.8"/>
	<circle id="rightBrow1" cx="592.5" cy="203.2" r="0.8"/>
	<circle id="rightBrow4" cx="615.8" cy="206.2" r="0.8"/>
	<circle id="nose1" cx="623.7" cy="216.1" r="0.8"/>
	<circle id="rightBrow3" cx="606" cy="202.2" r="0.8"/>
	<circle id="rightEye1" cx="599.9" cy="211.4" r="0.8"/>
	<circle id="rightBrow0" cx="588.5" cy="206.9" r="0.8"/>
	<circle id="rightBrow2" cx="598.7" cy="202.2" r="0.8"/>
	<circle id="rightEye5" cx="599.9" cy="217.4" r="0.8"/>
	<circle id="rightEye2" cx="606.2" cy="211.4" r="0.8"/>
	<circle id="rightEye3" cx="611.4" cy="215.6" r="0.8"/>
	<circle id="nose0" cx="623.7" cy="210.3" r="0.8"/>
	<circle id="nose3" cx="623.7" cy="228.7" r="0.8"/>
	<circle id="rightNose0" cx="613" cy="233.2" r="0.8"/>
	<circle id="rightMouthCorner" cx="607" cy="255.3" r="0.8"/>
	<circle id="rightNose1" cx="618.2" cy="233.2" r="0.8"/>
	<circle id="rightUpperLipTop0" cx="613.9" cy="251.9" r="0.8"/>
	<circle id="nose2" cx="623.7" cy="221.6" r="0.8"/>
	<circle id="nose4" cx="623.7" cy="234" r="0.8"/>
	<circle id="upperLipTopMid" cx="624.5" cy="251.7" r="0.8"/>
	<circle id="rightUpperLipTop1" cx="620.4" cy="250.8" r="0.8"/>
	<path id="rightMiddleLip" d="M610.6,254.8c0.4,0,0.8,0.4,0.8,0.8c0,0.4-0.4,0.8-0.8,0.8s-0.8-0.4-0.8-0.8S610.2,254.8,610.6,254.8z
		"/>
	<circle id="lowerLipBottomMid" cx="624.5" cy="264.9" r="0.8"/>
	<circle id="upperLipBottomMid" cx="624.5" cy="255.3" r="0.8"/>
	<circle id="lowerLipTopMid" cx="624.5" cy="258.4" r="0.8"/>
	<circle id="rightUpperLipBottom1" cx="620.6" cy="254.8" r="0.8"/>
	<circle id="rightLowerLipTop0" cx="620.6" cy="257.7" r="0.8"/>
	<circle id="rightLowerLipBottom1" cx="620.4" cy="264.4" r="0.8"/>
	<circle id="rightLowerLipBottom0" cx="613.4" cy="261.6" r="0.8"/>
	<circle id="rightEye4" cx="606.2" cy="216.6" r="0.8"/>
	<circle id="jawMid" cx="624.5" cy="290.7" r="0.8"/>
	<circle id="rightJaw7" cx="609.5" cy="287.5" r="0.8"/>
	<circle id="rightJaw6" cx="599.5" cy="280.8" r="0.8"/>
	<circle id="rightJaw5" cx="587.9" cy="268.3" r="0.8"/>
	<circle id="rightJaw4" cx="581.1" cy="248.3" r="0.8"/>
	<circle id="rightJaw3" cx="580.3" cy="226.6" r="0.8"/>
	<circle id="rightJaw2" cx="580.3" cy="217.1" r="0.8"/>
	<circle id="rightJaw1" cx="581.1" cy="205.4" r="0.8"/>
	<circle id="rightJaw0" cx="583.6" cy="196.1" r="0.8"/>
	<circle id="topMid" cx="624.7" cy="170" r="0.8"/>
	<circle id="leftTop0" cx="644.4" cy="172.5" r="0.8"/>
	<circle id="leftTop1" cx="657" cy="182" r="0.8"/>
	<circle id="leftEye0" cx="654.3" cy="215.1" r="0.8"/>
	<circle id="leftBrow1" cx="656.2" cy="203.6" r="0.8"/>
	<circle id="leftBrow4" cx="632.6" cy="205.7" r="0.8"/>
	<circle id="leftBrow3" cx="642.6" cy="202.5" r="0.8"/>
	<circle id="leftEye1" cx="649.1" cy="211.4" r="0.8"/>
	<circle id="leftBrow0" cx="660.2" cy="206.5" r="0.8"/>
	<circle id="leftBrow2" cx="649.9" cy="202.1" r="0.8"/>
	<circle id="leftEye5" cx="649.1" cy="217.4" r="0.8"/>
	<circle id="leftEye2" cx="642.8" cy="211.4" r="0.8"/>
	<circle id="leftEye3" cx="637.6" cy="215.6" r="0.8"/>
	<circle id="leftNose0" cx="634.1" cy="233.2" r="0.8"/>
	<circle id="leftMouthCorner" cx="642" cy="255.3" r="0.8"/>
	<circle id="leftNose1" cx="629.3" cy="233.2" r="0.8"/>
	<circle id="leftUpperLipTop0" cx="635.1" cy="251.9" r="0.8"/>
	<circle id="leftUpperLipTop1" cx="628.7" cy="250.8" r="0.8"/>
	<path id="leftMiddleLip" d="M638.4,254.8c0.4,0,0.8,0.4,0.8,0.8c0,0.4-0.4,0.8-0.8,0.8s-0.8-0.4-0.8-0.8S638,254.8,638.4,254.8z"/>
	<circle id="leftUpperLipBottom1" cx="628.5" cy="254.8" r="0.8"/>
	<circle id="leftLowerLipTop0" cx="628.5" cy="257.7" r="0.8"/>
	<circle id="leftLowerLipBottom1" cx="628.7" cy="264.4" r="0.8"/>
	<circle id="leftLowerLipBottom0" cx="635.6" cy="261.6" r="0.8"/>
	<circle id="leftEye4" cx="642.8" cy="216.6" r="0.8"/>
	<circle id="leftJaw7" cx="639.3" cy="287.9" r="0.8"/>
	<circle id="leftJaw6" cx="649.3" cy="281.2" r="0.8"/>
	<circle id="leftJaw5" cx="660.9" cy="268.6" r="0.8"/>
	<circle id="leftJaw4" cx="667.7" cy="248.6" r="0.8"/>
	<circle id="leftJaw3" cx="668.5" cy="227" r="0.8"/>
	<circle id="leftJaw2" cx="668.5" cy="217.4" r="0.8"/>
	<circle id="leftJaw1" cx="667.7" cy="205.7" r="0.8"/>
	<circle id="leftJaw0" cx="665.2" cy="196.5" r="0.8"/>
	<circle id="rightTop0" cx="604.8" cy="172.5" r="0.8"/>
	<circle id="rightTop1" cx="592.2" cy="182" r="0.8"/>
	<circle id="leftShoulder" cx="731.8" cy="349.2" r="8.2"/>
</g>
</svg>
