<?xml version="1.0" encoding="utf-8"?>
<!-- Generator: Adobe Illustrator 25.0.0, SVG Export Plug-In . SVG Version: 6.00 Build 0)  -->
<svg version="1.1" id="Layer_1" xmlns="http://www.w3.org/2000/svg" xmlns:xlink="http://www.w3.org/1999/xlink" x="0px" y="0px"
	 viewBox="0 0 1200 1200" style="enable-background:new 0 0 1200 1200;" xml:space="preserve">
<style type="text/css">
	.st0{fill:#FAD698;stroke:#E2A14B;stroke-miterlimit:10;}
	.st1{fill:#D46D10;}
	.st2{fill:#D8B177;}
	.st3{fill:#FFEFD9;}
	.st4{fill:#F9E4BF;}
	.st5{opacity:0.26;fill:#FFFFFF;enable-background:new    ;}
	.st6{fill:#DDB983;}
	.st7{fill:none;}
	.st8{fill:#FFFFFF;}
	.st9{fill:#7B4A21;}
	.st10{fill:#231815;}
	.st11{fill:#B5811C;}
	.st12{fill:#663C00;}
	.st13{fill:#FFA6A6;}
	.st14{fill:#EDBF7E;}
	.st15{fill:#AF7D41;}
	.st16{fill:none;stroke:#000000;stroke-miterlimit:10;}
</style>
<g id="illustration">
	<path class="st0" d="M720.6,549.2L520.2,550c0,64.2-1.3,143.2-1.3,219.9v141.2l0,0c-0.8,13.5,7.7,63.1,50.2,59.5
		c41.2-3.5,42.7-48.3,42.4-60.1V771.2V595.4c0-5.3,4.3-9.6,9.6-9.6h6.8c5.3,0,9.6,4.3,9.6,9.6v175.8v139.9c0,0.1,0,0.2,0,0.3
		c-0.6,13.8,8,62.8,50.2,59.2c40.3-3.4,42.6-46.5,42.5-59.3c0-0.1,0-0.1,0-0.2V771.2V558.8C730.2,553.5,725.9,549.2,720.6,549.2z"/>
	<path class="st0" d="M520.3,559.1c-1.4-74.9-13.5-131.9,8.4-171.3c13.4-24.2,29.7-41.7,47.4-52.8c15.5-9.7,32.3-12.4,48.9-12.2
		c16.5,0.2,33.2,3.3,48.6,13.2c17.4,11.1,33.7,28.4,46.9,52c22.5,39.7,9.6,171.3,9.6,171.3"/>
	<path class="st0" d="M904.6,463.8"/>
	<path class="st0" d="M728.6,407.1c0,0,40.9,36.8,54.2,51.3s75.5,93.7,82.9,100.9c9.5,9.3,33.3,10.7,44.2,1.2
		c2-1.7,12.5-10.4,5.8-26.4s-57.7-84.9-82.5-115.2l0,0l0,0c-1-1.3-2-2.5-3-3.6l0,0c-2.2-2.7-4.4-5.4-6.6-8c-1.3-1.6-2-2.4-2-2.4l0,0
		c-70.3-80.3-157.2-80.6-170.1-79.5"/>
	<path class="st0" d="M874.5,547.9c0,0-2.1,8-4,16.9c-1.8,8.8-21.3,7.2-19.4-5.8c1.8-13.2,6.8-20.6,6.8-20.6"/>
	<path class="st0" d="M597.5,325c-15-1.3-97.4-4.7-169.9,78.1l0,0c0,0-0.7,0.8-2,2.4c-2.2,2.6-4.4,5.3-6.6,8l0,0c-1,1.1-2,2.3-3,3.6
		l0,0l0,0c-24.8,30.3-75.8,99.2-82.5,115.2s3.8,24.7,5.8,26.4c10.9,9.5,34.7,8.1,44.2-1.2c7.4-7.2,69.6-86.4,82.9-100.9
		s57.3-54.4,57.3-54.4"/>
	<path class="st0" d="M390.3,538.5c0,0,5,7.4,6.8,20.6c1.9,13-17.5,14.6-19.4,5.8c-1.8-8.9-4-16.9-4-16.9"/>
	<path class="st0" d="M591.7,327.6l8.3-84.5h49.5c0,0,4,45.2,7.5,85.7"/>
	<path class="st0" d="M666.5,171.2c0,0,4-9.8,12.4-13.6s28.3-3.3,32-2.3c3.6,1-8.3,23.6-21.7,33s-15.7,6.5-21.3,5
		C662.3,191.7,662.1,178.3,666.5,171.2z"/>
	<path class="st1" d="M669,181.1c0.5-1,5-12.2,12.2-16.3c7.3-4,26.2-5.2,26.2-5.2s-4.4,12.1-15.3,19.7c-10.9,7.7-17.8,6.1-19.9,5.2
		C670.2,183.6,668.3,182.7,669,181.1z"/>
	<path class="st0" d="M583.5,171.2c0,0-4-9.8-12.4-13.6s-28.3-3.3-32-2.3c-3.6,1,8.3,23.6,21.7,33s15.7,6.5,21.3,5
		C587.7,191.7,587.9,178.3,583.5,171.2z"/>
	<path class="st1" d="M581,181.1c-0.5-1-5-12.2-12.2-16.3c-7.3-4-26.2-5.2-26.2-5.2s4.4,12.1,15.3,19.7c10.9,7.7,17.8,6.1,19.9,5.2
		C579.8,183.6,581.7,182.7,581,181.1z"/>
	<path class="st0" d="M674.8,186.3c-0.5,0-2.1-10.6-2.1-10.6s-0.6-1.4-2.3-5c-1.8-3.6-6.3-10.8-7.4-13.7c-1.2-2.8-3.9-33.6-4.3-36.8
		c-0.3-3-4.4-4.6-7.7-6.6c-3.2-1.9-4.1-1.7-9.3,1.9c-1.2,0.9-2,2.2-2.5,4c-1,3.6-1,8.9-1.2,14.1c-0.1,2.4-0.2,4.9-0.5,7.3
		c-0.1,0.8-0.2,1.6-0.4,2.4c-0.7,4-2.7,6.4-4.8,7.8c-3.1,2-6.5,1.9-6.5,1.9h-2.4c0,0-3.3,0.1-6.5-1.9c-2.1-1.4-4-3.7-4.8-7.8
		c-0.2-0.8-0.3-1.6-0.4-2.4c-0.3-2.3-0.4-4.8-0.5-7.3c-0.1-5.2-0.1-10.5-1.2-14.1c-0.5-1.8-1.3-3.2-2.5-4c-5.1-3.6-6.1-3.8-9.3-1.9
		s-7.4,3.4-7.8,6.6s-3.2,33.9-4.3,36.8c-1.2,2.9-5.7,10.1-7.4,13.7c-1.7,3.7-5.5,24.4-4.8,27.5c0.7,3,1.8,7,3.7,11.1
		c0.3,0.7,0.7,1.3,1,2c0.7,1.4,10.5,21.1,10.5,21.1s3.4,7.6,8.4,16.2c1.4,3.1,2.7,6.2,4.3,9.2c3.2,5.8,7.7,10.3,13.9,12.5
		c0.2,0.1,0.4,0.1,0.6,0.2c2.8,1.4,5.6,2.1,8.1,2.1c2.6,0,5.1-0.8,7.5-2.2c0.1,0,0.1,0,0.2-0.1c6.2-2.3,10.8-6.7,13.9-12.5
		c1.4-2.5,2.6-5.2,3.8-7.8c3.4-5.6,6.5-11.5,9.2-17.1c5.4-10.9,9.9-20.1,10.6-21.5c0.3-0.7,0.7-1.3,1-2
		C672.6,205.3,675.1,186.3,674.8,186.3z"/>
	<path class="st2" d="M607.1,122.7c-0.4,0.7-0.3,1.5-0.5,2.2c-0.3,0.8-0.9,1.3-1.1,2.1c-0.3,1.2,0.4,2.4,1.5,3.1
		c0.6,0.4,1.3,0.6,2,0.5c0.3-0.1,0.5-0.2,0.8-0.3c0.5-0.1,1-0.1,1.5-0.1c0.1-2.6-0.1-5.2-0.5-7.8c-0.2-1.2-0.2-2.2-1.4-1.4
		C608.5,121.5,607.5,121.9,607.1,122.7z"/>
	<path class="st2" d="M642.9,122.7c0.4,0.7,0.3,1.5,0.5,2.2c0.3,0.8,0.9,1.3,1.1,2.1c0.3,1.2-0.4,2.4-1.5,3.1
		c-0.6,0.4-1.3,0.6-2,0.5c-0.3-0.1-0.5-0.2-0.8-0.3c-0.5-0.1-1-0.1-1.5-0.1c-0.1-2.6,0.1-5.2,0.5-7.8c0.2-1.2,0.2-2.2,1.4-1.4
		C641.5,121.5,642.5,121.9,642.9,122.7z"/>
	<path class="st2" d="M589.6,128.8c-0.4,1.1,0.2,2.3,1,3.2s1.8,1.5,2.5,2.5c1.3,1.8,1.3,4.3,0.9,6.6c-0.1,0.6-0.2,1.3-0.7,1.7
		c-0.5,0.5-1.4,0.6-2,0.3c-0.7-0.3-1.1-0.9-1.4-1.6c-0.2-0.4-0.2-0.9-0.5-1.2s-0.8-0.6-1.2-0.3c-0.1-0.5,0-1,0.2-1.4"/>
	<path class="st2" d="M659.4,128.8c0.4,1.1-0.2,2.3-1,3.2s-1.8,1.5-2.5,2.5c-1.3,1.8-1.3,4.3-0.9,6.6c0.1,0.6,0.2,1.3,0.7,1.7
		c0.5,0.5,1.4,0.6,2,0.3c0.7-0.3,1.1-0.9,1.4-1.6c0.2-0.4,0.2-0.9,0.5-1.2s0.8-0.6,1.2-0.3c0.1-0.5,0-1-0.2-1.4"/>
	<path class="st3" d="M607.4,259.5c-0.4-5.6,3.7-22.4,16.9-22.4c13.2,0,17.7,15.8,17.2,21.3c-0.1,7-8.9,11.8-17.5,11.9
		C615.8,270.5,607.8,266.3,607.4,259.5z"/>
	<path class="st4" d="M609.2,119.4c-1.7,0.7-17.8,2.1-18.3,0.6l0,0c0.4-3,4.3-4.4,7.3-6.3c3-1.8,3.9-1.6,8.7,1.8
		C608,116.4,608.8,117.6,609.2,119.4z"/>
	<path class="st4" d="M639.9,119c1.6,0.6,17.5,1.9,17.9,0.5l0,0c-0.4-2.8-4.2-4.2-7.2-5.9c-2.9-1.7-3.8-1.5-8.5,1.7
		C641.1,116.2,640.4,117.3,639.9,119z"/>
	<path class="st5" d="M617.6,184.4c-0.1-0.6,6.4,7.6,6.4,28.9c0,3-5.8,4.8-9.7,7.4C614.3,220.6,621,210.5,617.6,184.4z"/>
	<path class="st2" d="M585,210.9c-1,0.5-2.1,0.3-3.1-0.1c-0.5-0.2-1.1-0.6-1.7-0.5c-0.5,0-0.9,0.3-1.3,0.5c-0.1,0-0.2,0-0.3,0
		c-0.3-0.7-0.7-1.3-1-2c-2-4.1-3.1-8-3.8-11c0.2,0.3,0.4,0.7,0.7,1c0.7,0.8,1.6,1.5,2.6,2c1.1,0.5,2.4,0.8,3.5,1.3
		c2.1,1,3.7,2.8,5.1,4.7c0.3,0.5,0.7,1,0.8,1.5C586.6,209.4,585.9,210.5,585,210.9z"/>
	<path class="st2" d="M663.8,210.8c1,0.5,2.1,0.2,3.1-0.2c0.5-0.2,1.1-0.6,1.7-0.6c0.5,0,0.8,0.4,0.9,0.4c0.5,0.6,3.4-9.6,2.8-10
		c-1.1,0.5-3.4,1-4.5,1.5c-2.1,1.1-3.6,2.9-4.9,4.9c-0.3,0.5-0.7,1-0.8,1.5C662.1,209.3,662.9,210.4,663.8,210.8z"/>
	<path class="st2" d="M584.7,213.2c-0.3-0.1-0.5-0.1-0.8-0.1c-0.5,0.1-0.8,0.6-0.9,1.1c-0.1,0.5,0.1,1,0.2,1.5
		c0.4,0.9,0.9,1.7,1.5,2.5c0.5,0.6,1,1.2,1.7,1.7c0.7,0.4,1.4,0.7,2.2,0.9s1.6,0.5,2.4,0.7c0.1,0,0.2,0,0.2,0c0.1,0,0.1-0.1,0.2-0.2
		c0.7-1.2,0.4-2.9-0.3-4.1c-0.5-0.8-1.3-1.8-2.1-2.2C587.6,214.1,586.2,213.5,584.7,213.2z"/>
	<path class="st2" d="M665.3,213.2c0.3-0.1,0.5-0.1,0.8-0.1c0.5,0.1,0.8,0.6,0.9,1.1c0.1,0.5-0.1,1-0.2,1.5
		c-0.4,0.9-0.9,1.7-1.5,2.5c-0.5,0.6-1,1.2-1.7,1.7c-0.7,0.4-1.4,0.7-2.2,0.9s-1.6,0.5-2.4,0.7c-0.1,0-0.2,0-0.2,0
		c-0.1,0-0.1-0.1-0.2-0.2c-0.7-1.2-0.4-2.9,0.3-4.1c0.5-0.8,1.3-1.8,2.1-2.2C662.4,214.1,663.8,213.5,665.3,213.2z"/>
	<path class="st6" d="M594.4,204.3c1.8,0.3,3.6,0,5.4-0.4c3.1-0.8,6.1-2,8.8-3.7c-0.8,1.7-2.4,2.9-3.9,4c-1.7,1.2-3.3,2.4-5.2,3.3
		s-4,1.2-6,0.7c-1-0.2-1.9-0.7-2.8-1.2c-0.6-0.3-1.2-0.7-1.6-1.2c-0.6-0.8-2.4-4.9-0.2-4c0.9,0.4,1.7,1.2,2.6,1.6
		C592.3,203.8,593.3,204.1,594.4,204.3z"/>
	<path class="st6" d="M655.6,204.3c-1.8,0.3-3.6,0-5.4-0.4c-3.1-0.8-6.1-2-8.8-3.7c0.8,1.7,2.4,2.9,3.9,4c1.7,1.2,3.3,2.4,5.2,3.3
		s4,1.2,6,0.7c1-0.2,1.9-0.7,2.8-1.2c0.6-0.3,1.2-0.7,1.6-1.2c0.6-0.8,2.4-4.9,0.2-4c-0.9,0.4-1.7,1.2-2.6,1.6
		C657.7,203.8,656.7,204.1,655.6,204.3z"/>
	<g>
		<path class="st5" d="M632.4,184.4c0.1-0.6-6.4,7.6-6.4,28.9c0,3,5.8,4.8,9.7,7.4C635.7,220.6,629,210.5,632.4,184.4z"/>
		<g>
			<path class="st7" d="M641.1,194c0.8-0.7,1.7-1.4,2.7-1.9c-0.6,0.3-1.2,0.6-1.8,1L641.1,194z"/>
			<path class="st2" d="M642,193.1c0.6-0.4,1.2-0.7,1.8-1c0,0,0,0,0.1,0c2-1.1,4.3-1.7,6.6-2c2.5-0.3,5.1-0.4,7.6,0.2
				c1.2,0.2,2.4,0.7,3.5,1.4c0.9,0.4,1.8,0.8,2.6,1.3c-0.5-1.1-1.6-2-2.7-2.7c-3.3-2-7.3-2.7-11-2s-7.1,2.8-9.4,5.8l0,0L642,193.1z"
				/>
			<path class="st8" d="M659.2,192.3c0.3,0.8,0.4,1.6,0.4,2.5c0,2.6-1.3,4.8-3.3,6.2c0.9-0.2,1.9-0.6,2.8-1.1
				c1.3-0.8,2.3-1.9,2.9-3.2c0.5-0.7,1.5-2.1,1.1-3C661.8,193.3,660.5,192.8,659.2,192.3z"/>
			<path class="st8" d="M644.6,194.8c0-0.4,0-0.8,0.1-1.2c-1.6,0.6-3.1,1.4-4.6,2.4c0.8,0.7,1.7,1.4,2.6,1.9
				c1.4,0.9,2.9,1.9,4.5,2.6C645.6,199.1,644.6,197.1,644.6,194.8z"/>
			<path class="st9" d="M659.6,194.8c0-0.9-0.2-1.7-0.4-2.5c-0.2-0.1-0.3-0.1-0.5-0.2c0.1,0.3,0.1,0.5,0.1,0.8
				c0,1.1-0.6,2.1-1.5,2.7c-0.4,2.5-2.6,4.4-5.2,4.4c-2.9,0-5.3-2.4-5.3-5.3c0-0.7,0.2-1.4,0.4-2.1c-0.3,0.1-0.6,0.2-0.8,0.3
				c-0.6,0.2-1.1,0.4-1.7,0.6c-0.1,0.4-0.1,0.8-0.1,1.2c0,2.3,1,4.3,2.6,5.7c0.8,0.4,1.6,0.7,2.5,0.8c2,0.4,4.1,0.2,6.1-0.2
				c0.2,0,0.4-0.1,0.5-0.1C658.3,199.6,659.6,197.4,659.6,194.8z"/>
			<path class="st10" d="M652.4,193c0-0.6,0.2-1.1,0.4-1.5c-1.9,0.2-3.8,0.6-5.6,1.2c-0.3,0.6-0.4,1.3-0.4,2.1
				c0,2.9,2.4,5.3,5.3,5.3c2.6,0,4.8-1.9,5.2-4.4c-0.5,0.3-1.1,0.5-1.7,0.5C653.8,196.2,652.4,194.8,652.4,193z"/>
			<path class="st8" d="M655.9,191.5c-1-0.1-2.1-0.1-3.1,0c-0.3,0.5-0.4,1-0.4,1.5c0,1.8,1.4,3.2,3.2,3.2c0.6,0,1.2-0.2,1.7-0.5
				c0.9-0.6,1.5-1.6,1.5-2.7c0-0.3,0-0.6-0.1-0.8C657.8,191.9,656.9,191.6,655.9,191.5z"/>
			<path d="M646.4,193c0.3-0.1,0.6-0.2,0.8-0.3c1.8-0.6,3.7-1.1,5.6-1.2c1-0.1,2.1-0.1,3.1,0s1.9,0.4,2.8,0.7
				c0.2,0.1,0.3,0.1,0.5,0.2c1.3,0.5,2.6,1,3.9,1.3c0.4,0.1,0.9,0.2,1.3,0.3c0.1-0.8-2.1-2-2.8-2.3l0,0c-1.1-0.7-2.3-1.2-3.5-1.4
				c-2.5-0.6-5.1-0.5-7.6-0.2c-2.3,0.3-4.6,0.9-6.6,2c0,0,0,0-0.1,0c-0.9,0.5-1.9,1.2-2.7,1.9l0,0c-0.9,0.8-1.6,1.7-2.2,2.7
				c0.4-0.3,0.8-0.5,1.2-0.8c1.5-0.9,3-1.7,4.6-2.4C645.3,193.4,645.8,193.2,646.4,193z"/>
		</g>
		<circle id="leftEye0_2_" cx="654.2" cy="214.9" r="0.8"/>
		<circle id="leftEye1_2_" cx="649" cy="211.2" r="0.8"/>
		<circle id="leftEye5_2_" cx="649" cy="217.2" r="0.8"/>
		<circle id="leftEye2_2_" cx="642.7" cy="211.2" r="0.8"/>
		<circle id="leftEye3_2_" cx="637.5" cy="215.4" r="0.8"/>
		<circle id="leftEye4_2_" cx="642.7" cy="216.4" r="0.8"/>
	</g>
	<g>
		<path class="st11" d="M665.3,177.8c0.3,0.2-7.1-4.8-14.3-5c0,0,4.9,3,4.2,2.5c-0.8-0.5-10.3-1.9-16.6,0c0.7-0.2,7.6,1.6,7.6,1.6
			s-8.9,1.9-13.4,7.5c0,0,17.6-5.9,22-4.2c-0.8-0.2-6.5-3.9-6.5-3.9s10.3,1.4,13.2,3.2l-4.3-4.4
			C657.2,175.1,662.6,176.4,665.3,177.8z"/>
		<circle id="leftBrow1_2_" cx="656.1" cy="203.5" r="0.8"/>
		<circle id="leftBrow4_2_" cx="632.5" cy="205.6" r="0.8"/>
		<circle id="leftBrow3_2_" cx="642.5" cy="202.4" r="0.8"/>
		<circle id="leftBrow0_2_" cx="660.1" cy="206.4" r="0.8"/>
		<circle id="leftBrow2_2_" cx="649.8" cy="202" r="0.8"/>
	</g>
	<g>
		<path class="st11" d="M584.7,177.8c-0.3,0.2,7.1-4.8,14.3-5c0,0-4.9,3-4.2,2.5c0.8-0.5,10.3-1.9,16.6,0c-0.7-0.2-7.6,1.6-7.6,1.6
			s8.9,1.9,13.4,7.5c0,0-17.6-5.9-22-4.2c0.8-0.2,6.5-3.9,6.5-3.9s-10.3,1.4-13.2,3.2l4.3-4.4C592.8,175.1,587.4,176.4,584.7,177.8z
			"/>
		<circle id="rightBrow1_2_" cx="592.4" cy="203.1" r="0.8"/>
		<circle id="rightBrow4_2_" cx="615.7" cy="206.1" r="0.8"/>
		<circle id="rightBrow3_2_" cx="605.9" cy="202.1" r="0.8"/>
		<circle id="rightBrow0_2_" cx="588.4" cy="206.8" r="0.8"/>
		<circle id="rightBrow2_2_" cx="598.6" cy="202.1" r="0.8"/>
	</g>
	<g>
		<g>
			<path class="st2" d="M591.9,190.3c2.5-0.6,5.1-0.5,7.6-0.2c2.3,0.3,4.6,0.9,6.6,2c0.9,0.5,1.9,1.2,2.7,1.9c0-0.1-0.1-0.1-0.1-0.2
				c-0.3-0.3-0.5-0.6-0.8-0.9c-0.7-1-1.5-1.8-2.4-2.4c-1.4-1-3.1-1.5-4.8-1.8c-2.5-0.5-5.1-0.7-7.6-0.1c-2.2,0.5-4.3,1.7-5.6,3.5
				c0.4-0.2,0.7-0.4,0.9-0.4C589.5,191,590.7,190.5,591.9,190.3z"/>
			<path class="st8" d="M605.3,193.6c0.1,0.4,0.1,0.8,0.1,1.2c0,2.3-1,4.3-2.6,5.7c1.6-0.7,3.1-1.7,4.5-2.6c0.9-0.6,1.8-1.2,2.6-1.9
				C608.4,195.1,606.9,194.3,605.3,193.6z"/>
			<path class="st8" d="M590.4,194.8c0-0.9,0.2-1.7,0.4-2.5c-1.3,0.5-2.6,1-3.9,1.3c-0.4,0.9,0.6,2.3,1.1,3c0.6,1.3,1.6,2.4,2.9,3.2
				c0.8,0.5,1.8,0.9,2.8,1.1C591.7,199.6,590.4,197.4,590.4,194.8z"/>
			<path class="st9" d="M605.4,194.8c0-0.4,0-0.8-0.1-1.2c-0.6-0.2-1.1-0.4-1.7-0.6c-0.3-0.1-0.6-0.2-0.8-0.3
				c0.3,0.6,0.4,1.3,0.4,2.1c0,2.9-2.4,5.3-5.3,5.3c-2.6,0-4.8-1.9-5.2-4.4c-0.9-0.6-1.5-1.6-1.5-2.7c0-0.3,0-0.6,0.1-0.8
				c-0.2,0.1-0.3,0.1-0.5,0.2c-0.3,0.8-0.4,1.6-0.4,2.5c0,2.6,1.3,4.8,3.3,6.2c0.2,0,0.4,0.1,0.5,0.1c2,0.4,4.1,0.6,6.1,0.2
				c0.9-0.2,1.7-0.5,2.5-0.8C604.4,199.1,605.4,197.1,605.4,194.8z"/>
			<path class="st10" d="M597.6,193c0,1.8-1.4,3.2-3.2,3.2c-0.6,0-1.2-0.2-1.7-0.5c0.4,2.5,2.6,4.4,5.2,4.4c2.9,0,5.3-2.4,5.3-5.3
				c0-0.7-0.2-1.4-0.4-2.1c-1.8-0.6-3.7-1.1-5.6-1.2C597.4,191.9,597.6,192.4,597.6,193z"/>
			<path class="st8" d="M597.6,193c0-0.6-0.2-1.1-0.4-1.5c-1-0.1-2.1-0.1-3.1,0s-1.9,0.4-2.8,0.7c-0.1,0.3-0.1,0.5-0.1,0.8
				c0,1.1,0.6,2.1,1.5,2.7c0.5,0.3,1.1,0.5,1.7,0.5C596.2,196.2,597.6,194.8,597.6,193z"/>
			<path d="M591.3,192.2c0.9-0.3,1.8-0.6,2.8-0.7c1-0.1,2.1-0.1,3.1,0c1.9,0.2,3.8,0.6,5.6,1.2c0.3,0.1,0.6,0.2,0.8,0.3
				c0.6,0.2,1.1,0.4,1.7,0.6c1.6,0.6,3.1,1.4,4.6,2.4c0.4,0.3,0.8,0.5,1.2,0.8c-0.6-1.1-1.4-2-2.3-2.8c-0.8-0.7-1.7-1.4-2.7-1.9
				c-2-1.1-4.3-1.7-6.6-2c-2.5-0.3-5.1-0.4-7.6,0.2c-1.2,0.2-2.4,0.7-3.5,1.4c-0.2,0.1-0.5,0.2-0.9,0.4c-0.9,0.5-2,1.3-1.9,1.9
				c0.4-0.1,0.9-0.2,1.3-0.3c1.3-0.4,2.6-0.9,3.9-1.3C591,192.3,591.2,192.2,591.3,192.2z"/>
		</g>
		<circle id="rightEye0_2_" cx="594.6" cy="215" r="0.8"/>
		<circle id="rightEye1_2_" cx="599.8" cy="211.3" r="0.8"/>
		<circle id="rightEye5_2_" cx="599.8" cy="217.3" r="0.8"/>
		<circle id="rightEye2_2_" cx="606.1" cy="211.3" r="0.8"/>
		<circle id="rightEye3_2_" cx="611.3" cy="215.5" r="0.8"/>
		<circle id="rightEye4_2_" cx="606.1" cy="216.5" r="0.8"/>
	</g>
	<path class="st2" d="M661.2,225.4c-3.7,5.5-8,12.2-9.8,15.4c-3.3,5.9-7.1,15.6-9.5,19.9s-10.8,9.6-17.7,9.6s-15.3-5.3-17.9-9.6
		c-2.5-4.3-6.3-14-9.5-19.9c-1.7-3-5.5-9-9-14.2c-0.6-0.1-1.2-0.2-1.8-0.4c2.7,5.4,6,11.8,7.8,15.5c3,6,5.2,12.3,8.4,18.2
		c3.2,5.8,7.7,10.3,13.8,12.5c1.1,0.4,2.3,0.7,3.5,1c1.6,0.3,3.3,0.5,4.7,0.5c1.6,0,3.2-0.2,4.7-0.5c1.2-0.2,2.4-0.6,3.5-1
		c6.2-2.3,10.7-6.7,13.8-12.5c3.2-5.9,5.5-12.2,8.4-18.2c2-4.1,5.6-11.1,8.5-16.8C662.3,225.1,661.8,225.3,661.2,225.4z"/>
	<path class="st12" d="M633,256c0,0-5.2-0.5-8.5-0.5S616,256,616,256c-0.3,0-0.4,0.2-0.2,0.3c1.5,0.7,3,1.1,4.3,1.4
		c0.7-0.6,2.4-1,4.3-1c2,0,3.7,0.4,4.4,1c2.1-0.4,3.6-1.1,4.3-1.5C633.4,256.2,633.3,256,633,256z"/>
	<path class="st13" d="M624.5,256.7c-2,0-3.7,0.4-4.3,1c3.4,0.7,6.4,0.5,8.7,0C628.2,257.2,626.5,256.7,624.5,256.7z"/>
	<path class="st14" d="M640.4,166.9c-0.7,1.6-2,2.8-3,4.2c-2.1,2.8-5.5,14.5-6.5,17.2c-2.5,7.1-2.7,14.9-3,22.3
		c-0.1,2.4,0,5.2,1.9,6.6c1,0.8,2.3,1,3.5,1.5c2.4,1,3.7,3.8,2.9,6.3c-0.1,0.2-0.2,0.5-0.3,0.7c-0.6,1.2-1.6,2.1-2.7,2.8
		c-1.1,0.8-2.3,1.4-3.5,1.8c-1.5,0.5-3,0.7-4.8,0.8c-1.7,0-3.3-0.3-4.8-0.8c-1.2-0.4-2.4-1-3.5-1.8c-1.1-0.8-2.1-1.6-2.7-2.8
		c-0.1-0.2-0.2-0.5-0.3-0.7c-0.9-2.5,0.4-5.3,2.9-6.3c1.2-0.5,2.5-0.7,3.5-1.5c1.9-1.5,2-4.2,1.9-6.6c-0.2-7.4-0.5-15.2-3-22.3
		c-1-2.7-4.4-14.4-6.5-17.2c-1-1.4-2.3-2.6-3-4.2c-0.7-1.6-0.7-3.7,0.6-4.8c1.7-1.5,5.2-0.8,6-3c0.4-1.2-0.3-2.4-0.9-3.5
		c-0.6-1.1-1.1-2.6-0.2-3.5c0.4-0.5,1.5-0.6,1.6-0.7c3.2,2.9,13.1,2.3,16.3-0.2c0.2,0.1,1.7,0.5,2.2,0.9c0.8,0.9,0.4,2.4-0.2,3.5
		c-0.6,1.1-1.3,2.4-0.9,3.5c0.8,2.2,4.2,1.5,6,3C641.2,163.2,641.2,165.3,640.4,166.9z"/>
	<path d="M615.3,221.7c0-0.2,1.3,1.6,2.6,2.3s4,1.6,3.9,2.5c-0.2,0.9-2.9,1.6-4.4,0.4C615.9,225.7,615.5,223.1,615.3,221.7z"/>
	<path d="M634.7,221.7c0-0.2-1.3,1.6-2.6,2.3s-4,1.6-3.9,2.5c0.2,0.9,2.9,1.6,4.4,0.4C634.1,225.7,634.5,223.1,634.7,221.7z"/>
	<path class="st15" d="M613.5,223.3c0.6,1.1,1,5.3,8.3,7.3c-0.5-0.1-8,0.5-8.3-6.8V223.3z"/>
	<path class="st15" d="M636.5,223.3c-0.6,1.1-1,5.3-8.3,7.3c0.5-0.1,8,0.5,8.3-6.8V223.3z"/>
</g>
<g id="skeleton_1_">
	<polygon class="st16" points="518.8,349.5 569.1,565.3 685.5,564.5 731.7,349.5 	"/>
	<polyline class="st16" points="517.8,349.5 445.4,431.1 352,547.5 	"/>
	<polyline class="st16" points="733.2,349.1 806.2,430.7 899.6,547 	"/>
	<polyline class="st16" points="569.1,565.3 575.5,725.5 575.5,933.5 	"/>
	<polyline class="st16" points="685.5,564.5 685.5,725.5 685.5,933.5 	"/>
	<polyline class="st16" points="624.5,170 604.7,172.5 592.2,182 583.6,196.1 581.1,205.4 580.3,217.1 580.3,226.6 581.1,248.3 
		587.9,268.3 599.5,280.8 609.5,287.5 624.5,290.7 639.3,287.9 649.3,281.2 660.9,268.6 667.7,248.6 668.5,227 668.5,217.4 
		667.7,205.7 665.2,196.5 657,182 644.4,172.5 624.5,170 	"/>
	<polyline class="st16" points="588.5,206.9 592.5,203.2 598.7,202.2 606,202.2 615.8,206.2 	"/>
	<polygon class="st16" points="594.7,215.1 599.9,211.4 606.2,211.4 611.4,215.6 606.2,216.6 599.9,217.4 	"/>
	<polyline class="st16" points="613,233.2 618.2,233.2 623.7,234 623.7,228.7 623.7,221.6 623.7,216.1 623.7,210.3 	"/>
	<polyline class="st16" points="660,206.5 656,203.6 649.7,202.1 642.4,202.5 632.4,205.7 	"/>
	<polygon class="st16" points="654.1,215.1 648.8,211.4 642.5,211.4 637.4,215.6 642.5,216.6 648.8,217.4 	"/>
	<polyline class="st16" points="634.1,233.2 629.1,233.2 623.7,234 	"/>
	<polygon class="st16" points="607,255.3 613.9,251.9 620.4,250.8 624.5,251.7 628.7,250.8 635.1,251.9 642,255.3 635.6,261.6 
		628.5,264.4 624.5,264.9 620.4,264.4 613.4,261.6 	"/>
	<polyline class="st16" points="607,255.3 610.6,255.6 620.6,254.8 624.5,255.3 628.5,254.8 638.4,255.6 642,255.3 	"/>
	<polyline class="st16" points="607,255.3 610.6,255.6 620.6,257.7 624.5,258.5 628.5,257.7 638.4,255.6 642,255.3 	"/>
	<circle id="rightShoulder" cx="518.9" cy="349.2" r="8.2"/>
	<circle id="rightElbow" cx="445.4" cy="439.3" r="8.2"/>
	<circle id="rightWrist" cx="352" cy="555.7" r="8.2"/>
	<circle id="rightHip" cx="569.2" cy="565" r="8.2"/>
	<circle id="rightKnee" cx="575.6" cy="725.2" r="8.2"/>
	<circle id="rightAnkle" cx="575.6" cy="933.2" r="8.2"/>
	<circle id="leftElbow" cx="806.2" cy="438.9" r="8.2"/>
	<circle id="leftWrist" cx="899.6" cy="555.2" r="8.2"/>
	<circle id="leftHip" cx="685.6" cy="564.2" r="8.2"/>
	<circle id="leftKnee" cx="685.6" cy="725.2" r="8.2"/>
	<circle id="leftAnkle" cx="685.6" cy="933.2" r="8.2"/>
	<circle id="rightEye0" cx="594.7" cy="215.1" r="0.8"/>
	<circle id="rightBrow1" cx="592.5" cy="203.2" r="0.8"/>
	<circle id="rightBrow4" cx="615.8" cy="206.2" r="0.8"/>
	<circle id="nose1" cx="623.7" cy="216.1" r="0.8"/>
	<circle id="rightBrow3" cx="606" cy="202.2" r="0.8"/>
	<circle id="rightEye1" cx="599.9" cy="211.4" r="0.8"/>
	<circle id="rightBrow0" cx="588.5" cy="206.9" r="0.8"/>
	<circle id="rightBrow2" cx="598.7" cy="202.2" r="0.8"/>
	<circle id="rightEye5" cx="599.9" cy="217.4" r="0.8"/>
	<circle id="rightEye2" cx="606.2" cy="211.4" r="0.8"/>
	<circle id="rightEye3" cx="611.4" cy="215.6" r="0.8"/>
	<circle id="nose0" cx="623.7" cy="210.3" r="0.8"/>
	<circle id="nose3" cx="623.7" cy="228.7" r="0.8"/>
	<circle id="rightNose0" cx="613" cy="233.2" r="0.8"/>
	<circle id="rightMouthCorner" cx="607" cy="255.3" r="0.8"/>
	<circle id="rightNose1" cx="618.2" cy="233.2" r="0.8"/>
	<circle id="rightUpperLipTop0" cx="613.9" cy="251.9" r="0.8"/>
	<circle id="nose2" cx="623.7" cy="221.6" r="0.8"/>
	<circle id="nose4" cx="623.7" cy="234" r="0.8"/>
	<circle id="upperLipTopMid" cx="624.5" cy="251.7" r="0.8"/>
	<circle id="rightUpperLipTop1" cx="620.4" cy="250.8" r="0.8"/>
	<path id="rightMiddleLip" d="M610.6,254.8c0.4,0,0.8,0.4,0.8,0.8c0,0.4-0.4,0.8-0.8,0.8s-0.8-0.4-0.8-0.8S610.2,254.8,610.6,254.8z
		"/>
	<circle id="lowerLipBottomMid" cx="624.5" cy="264.9" r="0.8"/>
	<circle id="upperLipBottomMid" cx="624.5" cy="255.3" r="0.8"/>
	<circle id="lowerLipTopMid" cx="624.5" cy="258.4" r="0.8"/>
	<circle id="rightUpperLipBottom1" cx="620.6" cy="254.8" r="0.8"/>
	<circle id="rightLowerLipTop0" cx="620.6" cy="257.7" r="0.8"/>
	<circle id="rightLowerLipBottom1" cx="620.4" cy="264.4" r="0.8"/>
	<circle id="rightLowerLipBottom0" cx="613.4" cy="261.6" r="0.8"/>
	<circle id="rightEye4" cx="606.2" cy="216.6" r="0.8"/>
	<circle id="jawMid" cx="624.5" cy="290.7" r="0.8"/>
	<circle id="rightJaw7" cx="609.5" cy="287.5" r="0.8"/>
	<circle id="rightJaw6" cx="599.5" cy="280.8" r="0.8"/>
	<circle id="rightJaw5" cx="587.9" cy="268.3" r="0.8"/>
	<circle id="rightJaw4" cx="581.1" cy="248.3" r="0.8"/>
	<circle id="rightJaw3" cx="580.3" cy="226.6" r="0.8"/>
	<circle id="rightJaw2" cx="580.3" cy="217.1" r="0.8"/>
	<circle id="rightJaw1" cx="581.1" cy="205.4" r="0.8"/>
	<circle id="rightJaw0" cx="583.6" cy="196.1" r="0.8"/>
	<circle id="topMid" cx="624.7" cy="170" r="0.8"/>
	<circle id="leftTop0" cx="644.4" cy="172.5" r="0.8"/>
	<circle id="leftTop1" cx="657" cy="182" r="0.8"/>
	<circle id="leftEye0" cx="654.3" cy="215.1" r="0.8"/>
	<circle id="leftBrow1" cx="656.2" cy="203.6" r="0.8"/>
	<circle id="leftBrow4" cx="632.6" cy="205.7" r="0.8"/>
	<circle id="leftBrow3" cx="642.6" cy="202.5" r="0.8"/>
	<circle id="leftEye1" cx="649.1" cy="211.4" r="0.8"/>
	<circle id="leftBrow0" cx="660.2" cy="206.5" r="0.8"/>
	<circle id="leftBrow2" cx="649.9" cy="202.1" r="0.8"/>
	<circle id="leftEye5" cx="649.1" cy="217.4" r="0.8"/>
	<circle id="leftEye2" cx="642.8" cy="211.4" r="0.8"/>
	<circle id="leftEye3" cx="637.6" cy="215.6" r="0.8"/>
	<circle id="leftNose0" cx="634.1" cy="233.2" r="0.8"/>
	<circle id="leftMouthCorner" cx="642" cy="255.3" r="0.8"/>
	<circle id="leftNose1" cx="629.3" cy="233.2" r="0.8"/>
	<circle id="leftUpperLipTop0" cx="635.1" cy="251.9" r="0.8"/>
	<circle id="leftUpperLipTop1" cx="628.7" cy="250.8" r="0.8"/>
	<path id="leftMiddleLip" d="M638.4,254.8c0.4,0,0.8,0.4,0.8,0.8c0,0.4-0.4,0.8-0.8,0.8s-0.8-0.4-0.8-0.8S638,254.8,638.4,254.8z"/>
	<circle id="leftUpperLipBottom1" cx="628.5" cy="254.8" r="0.8"/>
	<circle id="leftLowerLipTop0" cx="628.5" cy="257.7" r="0.8"/>
	<circle id="leftLowerLipBottom1" cx="628.7" cy="264.4" r="0.8"/>
	<circle id="leftLowerLipBottom0" cx="635.6" cy="261.6" r="0.8"/>
	<circle id="leftEye4" cx="642.8" cy="216.6" r="0.8"/>
	<circle id="leftJaw7" cx="639.3" cy="287.9" r="0.8"/>
	<circle id="leftJaw6" cx="649.3" cy="281.2" r="0.8"/>
	<circle id="leftJaw5" cx="660.9" cy="268.6" r="0.8"/>
	<circle id="leftJaw4" cx="667.7" cy="248.6" r="0.8"/>
	<circle id="leftJaw3" cx="668.5" cy="227" r="0.8"/>
	<circle id="leftJaw2" cx="668.5" cy="217.4" r="0.8"/>
	<circle id="leftJaw1" cx="667.7" cy="205.7" r="0.8"/>
	<circle id="leftJaw0" cx="665.2" cy="196.5" r="0.8"/>
	<circle id="rightTop0" cx="604.8" cy="172.5" r="0.8"/>
	<circle id="rightTop1" cx="592.2" cy="182" r="0.8"/>
	<circle id="leftShoulder" cx="731.8" cy="349.2" r="8.2"/>
</g>
</svg>
