<?xml version="1.0" encoding="utf-8"?>
<!-- Generator: Adobe Illustrator 25.0.0, SVG Export Plug-In . SVG Version: 6.00 Build 0)  -->
<svg version="1.1" id="Layer_1" xmlns="http://www.w3.org/2000/svg" xmlns:xlink="http://www.w3.org/1999/xlink" x="0px" y="0px"
	 viewBox="0 0 1200 1200" style="enable-background:new 0 0 1200 1200;" xml:space="preserve">
<style type="text/css">
	.st0{fill:#FAD698;stroke:#000000;stroke-miterlimit:10;}
	.st1{fill:#4D4A5E;stroke:#020202;stroke-miterlimit:10;}
	.st2{fill:#FFFFFF;}
	.st3{fill:#4D4A5E;stroke:#000000;stroke-miterlimit:10;}
	.st4{fill:#1C2B2D;stroke:#000000;stroke-miterlimit:10;}
	.st5{fill:none;}
	.st6{fill:#F3AF9D;}
	.st7{fill:#0F56BC;stroke:#000000;stroke-miterlimit:10;}
	.st8{fill:#153E90;stroke:#000000;stroke-miterlimit:10;}
	.st9{fill:#F8F1F1;}
	.st10{fill:#FAD698;}
	.st11{fill:#EDBF7E;}
	.st12{fill:#D46D10;}
	.st13{fill:#D8B177;}
	.st14{fill:#FFEFD9;}
	.st15{fill:#F9E4BF;}
	.st16{opacity:0.26;fill:#FFFFFF;enable-background:new    ;}
	.st17{fill:#AF7D41;}
	.st18{fill:#DDB983;}
	.st19{fill:#7B4A21;}
	.st20{fill:#231815;}
	.st21{fill:#B5811C;}
	.st22{fill:#663C00;}
	.st23{fill:#FFA6A6;}
	.st24{fill:none;stroke:#000000;stroke-miterlimit:10;}
</style>
<g id="illustration">
	<path class="st0" d="M861.4,532.8l16.9,10.7c0,0-1.1,12-1.8,25.2c-0.7,13.1-19.5,14.2-19.2-4.9
		C857.5,544.4,861.4,532.8,861.4,532.8z"/>
	<path class="st0" d="M390.4,563.7c0.3,19.1-18.5,18-19.2,4.9s-1.8-25.2-1.8-25.2l16.9-10.7C386.4,532.8,390.3,544.4,390.4,563.7z"
		/>
	<path class="st0" d="M773.5,446.1c0,0,83.9,104.7,93.4,114s33.3,10.7,44.2,1.2c2-1.8,7.6-7.3,5.8-26.5s-94.1-129.2-94.1-129.2
		L773.5,446.1z"/>
	<path class="st1" d="M654.3,908.5v56.4c0,58.8,66.7,60.6,66.7,5.4v-62.4L654.3,908.5z"/>
	<rect x="669.2" y="934.1" class="st2" width="36.9" height="5.3"/>
	<rect x="669.2" y="944.3" class="st2" width="36.9" height="5.3"/>
	<rect x="669.2" y="954.5" class="st2" width="36.9" height="5.3"/>
	<path class="st3" d="M531.8,908.5v56.4c0,58.8,66.7,60.6,66.7,5.4v-62.4L531.8,908.5z"/>
	<rect x="546.7" y="934.1" class="st2" width="36.9" height="5.3"/>
	<rect x="546.7" y="944.3" class="st2" width="36.9" height="5.3"/>
	<rect x="546.7" y="954.5" class="st2" width="36.9" height="5.3"/>
	<path class="st4" d="M518.9,549.2c0,65,0,145.7,0,223.3c0,54.6,0,107.7,0,152.5c56.6,0,51.8,0,92.7,0c0-45.8,0-99.2,0-151.2
		c0-74.3,0-145.6,0-187.5c5.9,0,20.5,0,25.9,0c0,40.4,0,113.3,0,187.5c0,53.7,0,108,0,151.2c45,0,35.6,0,92.7,0
		c0-42.1,0-95.4,0-151.2c0-77.8,0-160.5,0-224.6L518.9,549.2L518.9,549.2z"/>
	<line class="st5" x1="741.4" y1="565" x2="508.6" y2="565"/>
	<path class="st6" d="M903.6,463.8"/>
	<path class="st7" d="M652.3,325.3c0,0,93-23.3,135.1,27.8c42.1,51.2,47.9,59.2,47.9,59.2l-57.6,46.5l-54.2-63.2L652.3,325.3z"/>
	<path class="st0" d="M474.3,446.1c0,0-83.9,104.7-93.4,114s-33.3,10.7-44.2,1.2c-2-1.8-7.6-7.3-5.8-26.5S425,405.6,425,405.6
		L474.3,446.1z"/>
	<path class="st6" d="M344.2,463.8"/>
	<path class="st7" d="M595.5,325.3c0,0-93-23.3-135.1,27.8s-47.9,59.2-47.9,59.2l57.6,46.5l54.2-63.2L595.5,325.3z"/>
	<path class="st8" d="M492.9,568.2c-1.4-78,12.4-137.3,34.3-178.4c13.4-25.2,29.8-43.4,47.6-55c15.6-10.1,32.4-15,49.1-14.8
		c16.6,0.2,33.3,5.5,48.8,15.8c17.5,11.6,33.8,29.6,47.1,54.1c22.6,41.3,36.9,101,35.2,178.4H492.9V568.2z"/>
	<ellipse class="st9" cx="624" cy="335.8" rx="40.1" ry="6.5"/>
	<path class="st10" d="M603.2,259.2h38.1c0,0,7.8,53.1,10.4,71.5c-3.8,7.6-16.6,8.9-28.3,8.7c-14.9-0.2-29-3.8-31.2-9.9L603.2,259.2
		z"/>
	<path class="st11" d="M603.2,259.2h38.1c3.5,14.9-39.4,70.6-48.8,70.6L603.2,259.2z"/>
	<path class="st10" d="M666.6,171.3c0,0,4-9.8,12.4-13.6s28.3-3.3,32-2.3c3.6,1-8.3,23.6-21.7,33s-15.7,6.5-21.3,5
		C662.4,191.8,662.2,178.4,666.6,171.3z"/>
	<path class="st12" d="M669.1,181.2c0.5-1,5-12.2,12.2-16.3c7.3-4,26.2-5.2,26.2-5.2s-4.4,12.1-15.3,19.7
		c-10.9,7.7-17.8,6.1-19.9,5.2C670.3,183.7,668.4,182.8,669.1,181.2z"/>
	<path class="st10" d="M583.6,171.3c0,0-4-9.8-12.4-13.6s-28.3-3.3-32-2.3c-3.6,1,8.3,23.6,21.7,33s15.7,6.5,21.3,5
		C587.8,191.8,588,178.4,583.6,171.3z"/>
	<path class="st12" d="M581.1,181.2c-0.5-1-5-12.2-12.2-16.3c-7.3-4-26.2-5.2-26.2-5.2s4.4,12.1,15.3,19.7
		c10.9,7.7,17.8,6.1,19.9,5.2C579.9,183.7,581.8,182.8,581.1,181.2z"/>
	<path class="st10" d="M674.9,186.4c-0.5,0,4.9-5.5,4.9-5.5L674,182c0,0,3-6.4,3.3-7.2c0.4-0.7-4.5,1-4.5,1s-0.6-1.4-2.3-5
		c-1.8-3.6-6.3-10.8-7.4-13.7c-1.2-2.8-3.9-33.6-4.3-36.8c-0.3-3-4.4-4.6-7.7-6.6c-3.2-1.9-4.1-1.7-9.3,1.9c-1.2,0.9-2,2.2-2.5,4
		c-1,3.6-1,8.9-1.2,14.1c-0.1,2.4-0.2,4.9-0.5,7.3c-0.1,0.8-0.2,1.6-0.4,2.4c-0.7,4-2.7,6.4-4.8,7.8c-3.1,2-6.5,1.9-6.5,1.9h-2.4
		c0,0-3.3,0.1-6.5-1.9c-2.1-1.4-4-3.7-4.8-7.8c-0.2-0.8-0.3-1.6-0.4-2.4c-0.3-2.3-0.4-4.8-0.5-7.3c-0.1-5.2-0.1-10.5-1.2-14.1
		c-0.5-1.8-1.3-3.2-2.5-4c-5.1-3.6-6.1-3.8-9.3-1.9s-7.4,3.4-7.8,6.6s-3.2,33.9-4.3,36.8c-1.2,2.9-5.7,10.1-7.4,13.7
		c-1.7,3.7-2.3,5-2.3,5s-4.9-1.8-4.5-1c0.3,0.8,3.3,7.2,3.3,7.2l-5.8-1.1c0,0,5.5,5.5,4.9,5.5s-5.3,1.1-5.3,1.1l4.1,5.7
		c0,0,0.1,2,0.8,5.1c0.7,3,1.8,7,3.7,11.1c0.3,0.7,0.7,1.3,1,2c0.7,1.4,10.5,21.1,10.5,21.1s3.4,7.6,8.4,16.2
		c1.4,3.1,2.7,6.2,4.3,9.2c3.2,5.8,7.7,10.3,13.9,12.5c0.2,0.1,0.4,0.1,0.6,0.2c2.8,1.4,5.6,2.1,8.1,2.1c2.6,0,5.1-0.8,7.5-2.2
		c0.1,0,0.1,0,0.2-0.1c6.2-2.3,10.8-6.7,13.9-12.5c1.4-2.5,2.6-5.2,3.8-7.8c3.4-5.6,6.5-11.5,9.2-17.1c5.4-10.9,9.9-20.1,10.6-21.5
		c0.3-0.7,0.7-1.3,1-2c2-4.1,3.2-8.1,3.7-11.1c0.7-3.1,0.8-5.1,0.8-5.1l4.1-5.7C679.9,187.5,675.2,186.4,674.9,186.4z"/>
	<path class="st13" d="M607.2,122.8c-0.4,0.7-0.3,1.5-0.5,2.2c-0.3,0.8-0.9,1.3-1.1,2.1c-0.3,1.2,0.4,2.4,1.5,3.1
		c0.6,0.4,1.3,0.6,2,0.5c0.3-0.1,0.5-0.2,0.8-0.3c0.5-0.1,1-0.1,1.5-0.1c0.1-2.6-0.1-5.2-0.5-7.8c-0.2-1.2-0.2-2.2-1.4-1.4
		C608.6,121.6,607.6,122,607.2,122.8z"/>
	<path class="st13" d="M643,122.8c0.4,0.7,0.3,1.5,0.5,2.2c0.3,0.8,0.9,1.3,1.1,2.1c0.3,1.2-0.4,2.4-1.5,3.1c-0.6,0.4-1.3,0.6-2,0.5
		c-0.3-0.1-0.5-0.2-0.8-0.3c-0.5-0.1-1-0.1-1.5-0.1c-0.1-2.6,0.1-5.2,0.5-7.8c0.2-1.2,0.2-2.2,1.4-1.4
		C641.6,121.6,642.6,122,643,122.8z"/>
	<path class="st13" d="M589.7,128.9c-0.4,1.1,0.2,2.3,1,3.2s1.8,1.5,2.5,2.5c1.3,1.8,1.3,4.3,0.9,6.6c-0.1,0.6-0.2,1.3-0.7,1.7
		c-0.5,0.5-1.4,0.6-2,0.3c-0.7-0.3-1.1-0.9-1.4-1.6c-0.2-0.4-0.2-0.9-0.5-1.2s-0.8-0.6-1.2-0.3c-0.1-0.5,0-1,0.2-1.4"/>
	<path class="st13" d="M659.5,128.9c0.4,1.1-0.2,2.3-1,3.2s-1.8,1.5-2.5,2.5c-1.3,1.8-1.3,4.3-0.9,6.6c0.1,0.6,0.2,1.3,0.7,1.7
		c0.5,0.5,1.4,0.6,2,0.3c0.7-0.3,1.1-0.9,1.4-1.6c0.2-0.4,0.2-0.9,0.5-1.2s0.8-0.6,1.2-0.3c0.1-0.5,0-1-0.2-1.4"/>
	<path class="st14" d="M607.5,259.6c-0.4-5.6-2.1-6.7,2.9-16.8c2.5-5.2,8.5-6.9,14.1-6.9s11.5,1.7,14.1,6.9c5,10,3.5,10.2,3.1,15.7
		c-0.1,7-8.9,11.8-17.5,11.9C615.9,270.6,607.9,266.4,607.5,259.6z"/>
	<path class="st13" d="M611.9,140.9c-0.7,0.2-1.4,0.4-2.1,0.6c-0.9,0.2-1.9,0.4-2.6-0.2c-0.8-0.6-0.6-1.9-0.1-2.7s1.4-1.4,2-2.2
		s0.9-1.6,1.2-2.6c0.2-1,0.6-0.7,1-0.2C611.5,136.2,611.6,138.6,611.9,140.9z"/>
	<path class="st13" d="M638.2,140.9c0.7,0.2,1.4,0.4,2.1,0.6c0.9,0.2,1.9,0.4,2.6-0.2c0.8-0.6,0.6-1.9,0.1-2.7s-1.4-1.4-2-2.2
		s-0.9-1.6-1.2-2.6c-0.2-1-0.6-0.7-1-0.2C638.7,136.2,638.5,138.6,638.2,140.9z"/>
	<path class="st13" d="M606.5,146.7c-0.1,0.1-0.2,0.3-0.1,0.4c0,0.2,0.2,0.3,0.3,0.4c1,0.7,2,1.3,2.9,2c0.4,0.3,0.9,0.5,1.3,0.4
		c0.6-0.2,0.8-0.9,0.9-1.5c0.3-1.7,0-4.2-1.8-5C608.4,142.6,607.1,145.6,606.5,146.7z"/>
	<path class="st13" d="M643.7,146.7c0.1,0.1,0.2,0.3,0.1,0.4c0,0.2-0.2,0.3-0.3,0.4c-1,0.7-2,1.3-2.9,2c-0.4,0.3-0.9,0.5-1.3,0.4
		c-0.6-0.2-0.8-0.9-0.9-1.5c-0.3-1.7,0-4.2,1.8-5C641.8,142.6,643.1,145.6,643.7,146.7z"/>
	<path class="st13" d="M585.1,161.7c-0.2,0.6-0.1,1.4,0.4,1.7c0.4,0.2,0.9,0.2,1.4,0c0.3-0.1,0.5-0.2,0.7-0.5s0.3-0.8,0.2-1.2
		c0-0.7,0-2.1-1-1.9C586.2,160,585.3,161.1,585.1,161.7z"/>
	<path class="st13" d="M665.1,161.7c0.2,0.6,0.1,1.4-0.4,1.7c-0.4,0.2-0.9,0.2-1.4,0c-0.3-0.1-0.5-0.2-0.7-0.5s-0.3-0.8-0.2-1.2
		c0-0.7,0-2.1,1-1.9C664,160,664.9,161.1,665.1,161.7z"/>
	<path class="st13" d="M590.6,148.8c-0.2,0.4-0.7,0.8-1.2,0.6c-0.3-0.1-0.4-0.4-0.5-0.7c-0.2-0.8-0.4-3.2,1-2.9
		C591.2,146.1,591.1,147.9,590.6,148.8z"/>
	<path class="st13" d="M659.6,148.8c0.2,0.4,0.7,0.8,1.2,0.6c0.3-0.1,0.4-0.4,0.5-0.7c0.2-0.8,0.4-3.2-1-2.9
		C659,146.1,659.1,147.9,659.6,148.8z"/>
	<path class="st15" d="M610.1,119.7c-1.8,0.7-4,0.4-6,0.8c-1.8,0.4-3.4,1.4-5.1,2.1c-1.7,0.8-3.6,1.4-5.4,0.9
		c-1.5-0.4-2.7-1.7-3.2-3.2l0,0c0.4-3.1,4.6-4.6,7.9-6.5c3.2-1.9,4.2-1.7,9.4,1.9C608.8,116.6,609.6,117.9,610.1,119.7z"/>
	<path class="st15" d="M640,119.7c1.8,0.7,4,0.4,6,0.8c1.8,0.4,3.4,1.4,5.1,2.1c1.7,0.8,3.6,1.4,5.4,0.9c1.5-0.4,2.7-1.7,3.2-3.2
		l0,0c-0.4-3.1-4.6-4.6-7.9-6.5c-3.2-1.9-4.2-1.7-9.4,1.9C641.3,116.6,640.6,117.9,640,119.7z"/>
	<path class="st16" d="M617.7,184.5c-0.1-0.6,6.4,7.6,6.4,28.9c0,3-5.8,4.8-9.7,7.4C614.4,220.7,621.1,210.6,617.7,184.5z"/>
	<path class="st11" d="M640.5,166.8c-0.7,1.6-2,2.8-3,4.2c-2.1,2.8-3.1,6.3-3.7,9.7c-0.5,2.9-1.8,4.8-2.8,7.5
		c-2.5,7.1-2.7,14.9-3,22.3c-0.1,2.4,0,5.2,1.9,6.6c1,0.8,2.3,1,3.5,1.5c2.4,1,3.7,3.8,2.9,6.3c-0.1,0.2-0.2,0.5-0.3,0.7
		c-0.6,1.2-1.6,2.1-2.7,2.8c-1.1,0.8-2.3,1.4-3.5,1.8c-1.5,0.5-3,0.7-4.8,0.8c-1.7,0-3.3-0.3-4.8-0.8c-1.2-0.4-2.4-1-3.5-1.8
		s-2.1-1.6-2.7-2.8c-0.1-0.2-0.2-0.5-0.3-0.7c-0.9-2.5,0.4-5.3,2.9-6.3c1.2-0.5,2.5-0.7,3.5-1.5c1.9-1.5,2-4.2,1.9-6.6
		c-0.2-7.4-0.5-15.2-3-22.3c-1-2.7-2.3-4.6-2.8-7.5c-0.6-3.4-1.6-6.9-3.7-9.7c-1-1.4-2.3-2.6-3-4.2c-0.7-1.6-0.7-3.7,0.6-4.8
		c1.7-1.5,5.2-0.8,6-3c0.4-1.2-0.3-2.4-0.9-3.5c-0.6-1.1-1.1-2.6-0.2-3.5c0.4-0.5,1-0.7,1.6-0.9c0.2-0.1,0.4-0.1,0.6-0.2
		c3.2,2,6.6,1.9,6.6,1.9h2.4c0,0,3.5,0.1,6.6-1.9c0.2,0.1,0.4,0.1,0.6,0.2c0.6,0.2,1.2,0.4,1.7,0.9c0.8,0.9,0.4,2.4-0.2,3.5
		c-0.6,1.1-1.3,2.4-0.9,3.5c0.8,2.2,4.2,1.5,6,3C641.3,163.2,641.3,165.3,640.5,166.8z"/>
	<path d="M615.4,221.8c0-0.2,1.3,1.6,2.6,2.3s4,1.6,3.9,2.5c-0.2,0.9-2.9,1.6-4.4,0.4C616,225.8,615.6,223.2,615.4,221.8z"/>
	<path d="M634.8,221.8c0-0.2-1.3,1.6-2.6,2.3s-4,1.6-3.9,2.5c0.2,0.9,2.9,1.6,4.4,0.4C634.2,225.8,634.6,223.2,634.8,221.8z"/>
	<path class="st17" d="M613.6,223.4c0.6,1.1,1,5.3,8.3,7.3c-0.5-0.1-8,0.5-8.3-6.8V223.4z"/>
	<path class="st17" d="M636.6,223.4c-0.6,1.1-1,5.3-8.3,7.3c0.5-0.1,8,0.5,8.3-6.8V223.4z"/>
	<path class="st13" d="M585.1,211c-1,0.5-2.1,0.3-3.1-0.1c-0.5-0.2-1.1-0.6-1.7-0.5c-0.5,0-0.9,0.3-1.3,0.5c-0.1,0-0.2,0-0.3,0
		c-0.3-0.7-0.7-1.3-1-2c-2-4.1-3.1-8-3.8-11c0.2,0.3,0.4,0.7,0.7,1c0.7,0.8,1.6,1.5,2.6,2c1.1,0.5,2.4,0.8,3.5,1.3
		c2.1,1,3.7,2.8,5.1,4.7c0.3,0.5,0.7,1,0.8,1.5C586.7,209.5,586,210.6,585.1,211z"/>
	<path class="st13" d="M663.9,210.9c1,0.5,2.1,0.2,3.1-0.2c0.5-0.2,1.1-0.6,1.7-0.6c0.5,0,0.9,0.3,1.3,0.5c0.1,0,0.2,0,0.3,0
		c0.3-0.7,0.7-1.3,0.9-2c1.9-4.2,2.8-8.1,3.4-11.1c-0.2,0.3-0.4,0.7-0.7,1c-0.7,0.8-1.6,1.6-2.5,2.1c-1.1,0.5-2.4,0.9-3.5,1.4
		c-2.1,1.1-3.6,2.9-4.9,4.9c-0.3,0.5-0.7,1-0.8,1.5C662.2,209.4,663,210.5,663.9,210.9z"/>
	<path class="st13" d="M584.8,213.3c-0.3-0.1-0.5-0.1-0.8-0.1c-0.5,0.1-0.8,0.6-0.9,1.1c-0.1,0.5,0.1,1,0.2,1.5
		c0.4,0.9,0.9,1.7,1.5,2.5c0.5,0.6,1,1.2,1.7,1.7c0.7,0.4,1.4,0.7,2.2,0.9s1.6,0.5,2.4,0.7c0.1,0,0.2,0,0.2,0c0.1,0,0.1-0.1,0.2-0.2
		c0.7-1.2,0.4-2.9-0.3-4.1c-0.5-0.8-1.3-1.8-2.1-2.2C587.7,214.2,586.3,213.6,584.8,213.3z"/>
	<path class="st13" d="M665.4,213.3c0.3-0.1,0.5-0.1,0.8-0.1c0.5,0.1,0.8,0.6,0.9,1.1c0.1,0.5-0.1,1-0.2,1.5
		c-0.4,0.9-0.9,1.7-1.5,2.5c-0.5,0.6-1,1.2-1.7,1.7c-0.7,0.4-1.4,0.7-2.2,0.9s-1.6,0.5-2.4,0.7c-0.1,0-0.2,0-0.2,0
		c-0.1,0-0.1-0.1-0.2-0.2c-0.7-1.2-0.4-2.9,0.3-4.1c0.5-0.8,1.3-1.8,2.1-2.2C662.5,214.2,663.9,213.6,665.4,213.3z"/>
	<path class="st13" d="M588.8,226.4c0.8,0.9,1.6,1.9,2.6,2.6c0.2,0.1,0.4,0.3,0.7,0.3c0.2,0,0.4-0.1,0.5-0.2
		c0.3-0.3,0.4-0.8,0.3-1.3c-0.2-1.5-0.8-4.1-2.6-4.4c-0.7-0.1-1.7,0.2-2.3,0.6C587.2,224.8,588.2,225.7,588.8,226.4z"/>
	<path class="st13" d="M661.4,226.4c-0.8,0.9-1.6,1.9-2.6,2.6c-0.2,0.1-0.4,0.3-0.7,0.3c-0.2,0-0.4-0.1-0.5-0.2
		c-0.3-0.3-0.4-0.8-0.3-1.3c0.2-1.5,0.8-4.1,2.6-4.4c0.7-0.1,1.7,0.2,2.3,0.6C663,224.8,662,225.7,661.4,226.4z"/>
	<path class="st13" d="M600.6,244.6c0.4,1,0.8,1.9,1.3,2.8c0.1,0.2,0.3,0.5,0.5,0.5c0.2,0.1,0.5,0,0.6-0.2c0.6-0.4,1-1.1,1-1.7
		c0.2-1.4-1.2-3-2.4-3.7C600,241.3,600.2,243.6,600.6,244.6z"/>
	<path class="st13" d="M649.6,244.6c-0.4,1-0.8,1.9-1.3,2.8c-0.1,0.2-0.3,0.5-0.5,0.5c-0.2,0.1-0.5,0-0.6-0.2c-0.6-0.4-1-1.1-1-1.7
		c-0.2-1.4,1.2-3,2.4-3.7C650.2,241.3,650,243.6,649.6,244.6z"/>
	<path class="st13" d="M604.1,252.5c0.1,0.2,0.3,0.3,0.4,0.2c0.1,0,0.1-0.1,0.1-0.2c0.2-0.5,0.9-3.3-0.2-3.3
		C603.4,249.4,603.8,252,604.1,252.5z"/>
	<path class="st13" d="M646.1,252.5c-0.1,0.2-0.3,0.3-0.4,0.2c-0.1,0-0.1-0.1-0.1-0.2c-0.2-0.5-0.9-3.3,0.2-3.3
		C646.8,249.4,646.4,252,646.1,252.5z"/>
	<path class="st18" d="M594.5,204.4c1.8,0.3,3.6,0,5.4-0.4c3.1-0.8,6.1-2,8.8-3.7c-0.8,1.7-2.4,2.9-3.9,4c-1.7,1.2-3.3,2.4-5.2,3.3
		s-4,1.2-6,0.7c-1-0.2-1.9-0.7-2.8-1.2c-0.6-0.3-1.2-0.7-1.6-1.2c-0.6-0.8-2.4-4.9-0.2-4c0.9,0.4,1.7,1.2,2.6,1.6
		C592.4,203.9,593.4,204.2,594.5,204.4z"/>
	<path class="st18" d="M655.7,204.4c-1.8,0.3-3.6,0-5.4-0.4c-3.1-0.8-6.1-2-8.8-3.7c0.8,1.7,2.4,2.9,3.9,4c1.7,1.2,3.3,2.4,5.2,3.3
		s4,1.2,6,0.7c1-0.2,1.9-0.7,2.8-1.2c0.6-0.3,1.2-0.7,1.6-1.2c0.6-0.8,2.4-4.9,0.2-4c-0.9,0.4-1.7,1.2-2.6,1.6
		C657.8,203.9,656.8,204.2,655.7,204.4z"/>
	<g>
		<path class="st16" d="M632.5,184.5c0.1-0.6-6.4,7.6-6.4,28.9c0,3,5.8,4.8,9.7,7.4C635.8,220.7,629.1,210.6,632.5,184.5z"/>
		<g>
			<path class="st5" d="M641.2,194.1c0.8-0.7,1.7-1.4,2.7-1.9c-0.6,0.3-1.2,0.6-1.8,1L641.2,194.1z"/>
			<path class="st13" d="M642.1,193.2c0.6-0.4,1.2-0.7,1.8-1c0,0,0,0,0.1,0c2-1.1,4.3-1.7,6.6-2c2.5-0.3,5.1-0.4,7.6,0.2
				c1.2,0.2,2.4,0.7,3.5,1.4c0.9,0.4,1.8,0.8,2.6,1.3c-0.5-1.1-1.6-2-2.7-2.7c-3.3-2-7.3-2.7-11-2s-7.1,2.8-9.4,5.8l0,0L642.1,193.2
				z"/>
			<path class="st2" d="M659.3,192.4c0.3,0.8,0.4,1.6,0.4,2.5c0,2.6-1.3,4.8-3.3,6.2c0.9-0.2,1.9-0.6,2.8-1.1
				c1.3-0.8,2.3-1.9,2.9-3.2c0.5-0.7,1.5-2.1,1.1-3C661.9,193.4,660.6,192.9,659.3,192.4z"/>
			<path class="st2" d="M644.7,194.9c0-0.4,0-0.8,0.1-1.2c-1.6,0.6-3.1,1.4-4.6,2.4c0.8,0.7,1.7,1.4,2.6,1.9
				c1.4,0.9,2.9,1.9,4.5,2.6C645.7,199.2,644.7,197.2,644.7,194.9z"/>
			<path class="st19" d="M659.7,194.9c0-0.9-0.2-1.7-0.4-2.5c-0.2-0.1-0.3-0.1-0.5-0.2c0.1,0.3,0.1,0.5,0.1,0.8
				c0,1.1-0.6,2.1-1.5,2.7c-0.4,2.5-2.6,4.4-5.2,4.4c-2.9,0-5.3-2.4-5.3-5.3c0-0.7,0.2-1.4,0.4-2.1c-0.3,0.1-0.6,0.2-0.8,0.3
				c-0.6,0.2-1.1,0.4-1.7,0.6c-0.1,0.4-0.1,0.8-0.1,1.2c0,2.3,1,4.3,2.6,5.7c0.8,0.4,1.6,0.7,2.5,0.8c2,0.4,4.1,0.2,6.1-0.2
				c0.2,0,0.4-0.1,0.5-0.1C658.4,199.7,659.7,197.5,659.7,194.9z"/>
			<path class="st20" d="M652.5,193.1c0-0.6,0.2-1.1,0.4-1.5c-1.9,0.2-3.8,0.6-5.6,1.2c-0.3,0.6-0.4,1.3-0.4,2.1
				c0,2.9,2.4,5.3,5.3,5.3c2.6,0,4.8-1.9,5.2-4.4c-0.5,0.3-1.1,0.5-1.7,0.5C653.9,196.3,652.5,194.9,652.5,193.1z"/>
			<path class="st2" d="M656,191.6c-1-0.1-2.1-0.1-3.1,0c-0.3,0.5-0.4,1-0.4,1.5c0,1.8,1.4,3.2,3.2,3.2c0.6,0,1.2-0.2,1.7-0.5
				c0.9-0.6,1.5-1.6,1.5-2.7c0-0.3,0-0.6-0.1-0.8C657.9,192,657,191.7,656,191.6z"/>
			<path d="M646.5,193.1c0.3-0.1,0.6-0.2,0.8-0.3c1.8-0.6,3.7-1.1,5.6-1.2c1-0.1,2.1-0.1,3.1,0s1.9,0.4,2.8,0.7
				c0.2,0.1,0.3,0.1,0.5,0.2c1.3,0.5,2.6,1,3.9,1.3c0.4,0.1,0.9,0.2,1.3,0.3c0.1-0.8-2.1-2-2.8-2.3l0,0c-1.1-0.7-2.3-1.2-3.5-1.4
				c-2.5-0.6-5.1-0.5-7.6-0.2c-2.3,0.3-4.6,0.9-6.6,2c0,0,0,0-0.1,0c-0.9,0.5-1.9,1.2-2.7,1.9l0,0c-0.9,0.8-1.6,1.7-2.2,2.7
				c0.4-0.3,0.8-0.5,1.2-0.8c1.5-0.9,3-1.7,4.6-2.4C645.4,193.5,645.9,193.3,646.5,193.1z"/>
		</g>
		<circle id="leftEye0_1_" cx="654.3" cy="215" r="0.8"/>
		<circle id="leftEye1_1_" cx="649.1" cy="211.3" r="0.8"/>
		<circle id="leftEye5_1_" cx="649.1" cy="217.3" r="0.8"/>
		<circle id="leftEye2_1_" cx="642.8" cy="211.3" r="0.8"/>
		<circle id="leftEye3_1_" cx="637.6" cy="215.5" r="0.8"/>
		<circle id="leftEye4_1_" cx="642.8" cy="216.5" r="0.8"/>
	</g>
	<g>
		<path class="st21" d="M665.4,177.9c0.3,0.2-7.1-4.8-14.3-5c0,0,4.9,3,4.2,2.5c-0.8-0.5-10.3-1.9-16.6,0c0.7-0.2,7.6,1.6,7.6,1.6
			s-8.9,1.9-13.4,7.5c0,0,17.6-5.9,22-4.2c-0.8-0.2-6.5-3.9-6.5-3.9s10.3,1.4,13.2,3.2l-4.3-4.4
			C657.3,175.2,662.7,176.5,665.4,177.9z"/>
		<circle id="leftBrow1_1_" cx="656.2" cy="203.6" r="0.8"/>
		<circle id="leftBrow4_1_" cx="632.6" cy="205.7" r="0.8"/>
		<circle id="leftBrow3_1_" cx="642.6" cy="202.5" r="0.8"/>
		<circle id="leftBrow0_1_" cx="660.2" cy="206.5" r="0.8"/>
		<circle id="leftBrow2_1_" cx="649.9" cy="202.1" r="0.8"/>
	</g>
	<g>
		<path class="st21" d="M584.8,177.9c-0.3,0.2,7.1-4.8,14.3-5c0,0-4.9,3-4.2,2.5c0.8-0.5,10.3-1.9,16.6,0c-0.7-0.2-7.6,1.6-7.6,1.6
			s8.9,1.9,13.4,7.5c0,0-17.6-5.9-22-4.2c0.8-0.2,6.5-3.9,6.5-3.9s-10.3,1.4-13.2,3.2l4.3-4.4C592.9,175.2,587.5,176.5,584.8,177.9z
			"/>
		<circle id="rightBrow1_1_" cx="592.5" cy="203.2" r="0.8"/>
		<circle id="rightBrow4_1_" cx="615.8" cy="206.2" r="0.8"/>
		<circle id="rightBrow3_1_" cx="606" cy="202.2" r="0.8"/>
		<circle id="rightBrow0_1_" cx="588.5" cy="206.9" r="0.8"/>
		<circle id="rightBrow2_1_" cx="598.7" cy="202.2" r="0.8"/>
	</g>
	<g>
		<g>
			<path class="st13" d="M592,190.4c2.5-0.6,5.1-0.5,7.6-0.2c2.3,0.3,4.6,0.9,6.6,2c0.9,0.5,1.9,1.2,2.7,1.9c0-0.1-0.1-0.1-0.1-0.2
				c-0.3-0.3-0.5-0.6-0.8-0.9c-0.7-1-1.5-1.8-2.4-2.4c-1.4-1-3.1-1.5-4.8-1.8c-2.5-0.5-5.1-0.7-7.6-0.1c-2.2,0.5-4.3,1.7-5.6,3.5
				c0.4-0.2,0.7-0.4,0.9-0.4C589.6,191.1,590.8,190.6,592,190.4z"/>
			<path class="st2" d="M605.4,193.7c0.1,0.4,0.1,0.8,0.1,1.2c0,2.3-1,4.3-2.6,5.7c1.6-0.7,3.1-1.7,4.5-2.6c0.9-0.6,1.8-1.2,2.6-1.9
				C608.5,195.2,607,194.4,605.4,193.7z"/>
			<path class="st2" d="M590.5,194.9c0-0.9,0.2-1.7,0.4-2.5c-1.3,0.5-2.6,1-3.9,1.3c-0.4,0.9,0.6,2.3,1.1,3c0.6,1.3,1.6,2.4,2.9,3.2
				c0.8,0.5,1.8,0.9,2.8,1.1C591.8,199.7,590.5,197.5,590.5,194.9z"/>
			<path class="st19" d="M605.5,194.9c0-0.4,0-0.8-0.1-1.2c-0.6-0.2-1.1-0.4-1.7-0.6c-0.3-0.1-0.6-0.2-0.8-0.3
				c0.3,0.6,0.4,1.3,0.4,2.1c0,2.9-2.4,5.3-5.3,5.3c-2.6,0-4.8-1.9-5.2-4.4c-0.9-0.6-1.5-1.6-1.5-2.7c0-0.3,0-0.6,0.1-0.8
				c-0.2,0.1-0.3,0.1-0.5,0.2c-0.3,0.8-0.4,1.6-0.4,2.5c0,2.6,1.3,4.8,3.3,6.2c0.2,0,0.4,0.1,0.5,0.1c2,0.4,4.1,0.6,6.1,0.2
				c0.9-0.2,1.7-0.5,2.5-0.8C604.5,199.2,605.5,197.2,605.5,194.9z"/>
			<path class="st20" d="M597.7,193.1c0,1.8-1.4,3.2-3.2,3.2c-0.6,0-1.2-0.2-1.7-0.5c0.4,2.5,2.6,4.4,5.2,4.4c2.9,0,5.3-2.4,5.3-5.3
				c0-0.7-0.2-1.4-0.4-2.1c-1.8-0.6-3.7-1.1-5.6-1.2C597.5,192,597.7,192.5,597.7,193.1z"/>
			<path class="st2" d="M597.7,193.1c0-0.6-0.2-1.1-0.4-1.5c-1-0.1-2.1-0.1-3.1,0s-1.9,0.4-2.8,0.7c-0.1,0.3-0.1,0.5-0.1,0.8
				c0,1.1,0.6,2.1,1.5,2.7c0.5,0.3,1.1,0.5,1.7,0.5C596.3,196.3,597.7,194.9,597.7,193.1z"/>
			<path d="M591.4,192.3c0.9-0.3,1.8-0.6,2.8-0.7c1-0.1,2.1-0.1,3.1,0c1.9,0.2,3.8,0.6,5.6,1.2c0.3,0.1,0.6,0.2,0.8,0.3
				c0.6,0.2,1.1,0.4,1.7,0.6c1.6,0.6,3.1,1.4,4.6,2.4c0.4,0.3,0.8,0.5,1.2,0.8c-0.6-1.1-1.4-2-2.3-2.8c-0.8-0.7-1.7-1.4-2.7-1.9
				c-2-1.1-4.3-1.7-6.6-2c-2.5-0.3-5.1-0.4-7.6,0.2c-1.2,0.2-2.4,0.7-3.5,1.4c-0.2,0.1-0.5,0.2-0.9,0.4c-0.9,0.5-2,1.3-1.9,1.9
				c0.4-0.1,0.9-0.2,1.3-0.3c1.3-0.4,2.6-0.9,3.9-1.3C591.1,192.4,591.3,192.3,591.4,192.3z"/>
		</g>
		<circle id="rightEye0_1_" cx="594.7" cy="215.1" r="0.8"/>
		<circle id="rightEye1_1_" cx="599.9" cy="211.4" r="0.8"/>
		<circle id="rightEye5_1_" cx="599.9" cy="217.4" r="0.8"/>
		<circle id="rightEye2_1_" cx="606.2" cy="211.4" r="0.8"/>
		<circle id="rightEye3_1_" cx="611.4" cy="215.6" r="0.8"/>
		<circle id="rightEye4_1_" cx="606.2" cy="216.6" r="0.8"/>
	</g>
	<path class="st13" d="M661.3,225.5c-3.7,5.5-8,12.2-9.8,15.4c-3.3,5.9-7.1,15.6-9.5,19.9s-10.8,9.6-17.7,9.6s-15.3-5.3-17.9-9.6
		c-2.5-4.3-6.3-14-9.5-19.9c-1.7-3-5.5-9-9-14.2c-0.6-0.1-1.2-0.2-1.8-0.4c2.7,5.4,6,11.8,7.8,15.5c3,6,5.2,12.3,8.4,18.2
		c3.2,5.8,7.7,10.3,13.8,12.5c1.1,0.4,2.3,0.7,3.5,1c1.6,0.3,3.3,0.5,4.7,0.5c1.6,0,3.2-0.2,4.7-0.5c1.2-0.2,2.4-0.6,3.5-1
		c6.2-2.3,10.7-6.7,13.8-12.5c3.2-5.9,5.5-12.2,8.4-18.2c2-4.1,5.6-11.1,8.5-16.8C662.4,225.2,661.9,225.4,661.3,225.5z"/>
	<path class="st22" d="M633.1,256.1c0,0-7-0.5-8.5-0.5s-8.5,0.5-8.5,0.5c-0.3,0-0.4,0.2-0.2,0.3c1.5,0.7,3,1.1,4.3,1.4
		c0.7-0.6,2.4-1,4.3-1c2,0,3.7,0.4,4.4,1c2.1-0.4,3.6-1.1,4.3-1.5C633.5,256.3,633.4,256.1,633.1,256.1z"/>
	<path class="st23" d="M624.6,256.8c-2,0-3.7,0.4-4.3,1c3.4,0.7,6.4,0.5,8.7,0C628.3,257.3,626.6,256.8,624.6,256.8z"/>
</g>
<g id="skeleton_1_">
	<polygon class="st24" points="518.8,349.5 569.1,565.3 685.5,564.5 731.7,349.5 	"/>
	<polyline class="st24" points="517.8,349.5 445.4,431.1 352,547.5 	"/>
	<polyline class="st24" points="733.2,349.1 806.2,430.7 899.6,547 	"/>
	<polyline class="st24" points="569.1,565.3 575.5,725.5 575.5,933.5 	"/>
	<polyline class="st24" points="685.5,564.5 685.5,725.5 685.5,933.5 	"/>
	<polyline class="st24" points="624.5,170 604.7,172.5 592.2,182 583.6,196.1 581.1,205.4 580.3,217.1 580.3,226.6 581.1,248.3 
		587.9,268.3 599.5,280.8 609.5,287.5 624.5,290.7 639.3,287.9 649.3,281.2 660.9,268.6 667.7,248.6 668.5,227 668.5,217.4 
		667.7,205.7 665.2,196.5 657,182 644.4,172.5 624.5,170 	"/>
	<polyline class="st24" points="588.5,206.9 592.5,203.2 598.7,202.2 606,202.2 615.8,206.2 	"/>
	<polygon class="st24" points="594.7,215.1 599.9,211.4 606.2,211.4 611.4,215.6 606.2,216.6 599.9,217.4 	"/>
	<polyline class="st24" points="613,233.2 618.2,233.2 623.7,234 623.7,228.7 623.7,221.6 623.7,216.1 623.7,210.3 	"/>
	<polyline class="st24" points="660,206.5 656,203.6 649.7,202.1 642.4,202.5 632.4,205.7 	"/>
	<polygon class="st24" points="654.1,215.1 648.8,211.4 642.5,211.4 637.4,215.6 642.5,216.6 648.8,217.4 	"/>
	<polyline class="st24" points="634.1,233.2 629.1,233.2 623.7,234 	"/>
	<polygon class="st24" points="607,255.3 613.9,251.9 620.4,250.8 624.5,251.7 628.7,250.8 635.1,251.9 642,255.3 635.6,261.6 
		628.5,264.4 624.5,264.9 620.4,264.4 613.4,261.6 	"/>
	<polyline class="st24" points="607,255.3 610.6,255.6 620.6,254.8 624.5,255.3 628.5,254.8 638.4,255.6 642,255.3 	"/>
	<polyline class="st24" points="607,255.3 610.6,255.6 620.6,257.7 624.5,258.5 628.5,257.7 638.4,255.6 642,255.3 	"/>
	<circle id="rightShoulder" cx="518.9" cy="349.2" r="8.2"/>
	<circle id="rightElbow" cx="445.4" cy="439.3" r="8.2"/>
	<circle id="rightWrist" cx="352" cy="555.7" r="8.2"/>
	<circle id="rightHip" cx="569.2" cy="565" r="8.2"/>
	<circle id="rightKnee" cx="575.6" cy="725.2" r="8.2"/>
	<circle id="rightAnkle" cx="575.6" cy="933.2" r="8.2"/>
	<circle id="leftElbow" cx="806.2" cy="438.9" r="8.2"/>
	<circle id="leftWrist" cx="899.6" cy="555.2" r="8.2"/>
	<circle id="leftHip" cx="685.6" cy="564.2" r="8.2"/>
	<circle id="leftKnee" cx="685.6" cy="725.2" r="8.2"/>
	<circle id="leftAnkle" cx="685.6" cy="933.2" r="8.2"/>
	<circle id="rightEye0" cx="594.7" cy="215.1" r="0.8"/>
	<circle id="rightBrow1" cx="592.5" cy="203.2" r="0.8"/>
	<circle id="rightBrow4" cx="615.8" cy="206.2" r="0.8"/>
	<circle id="nose1" cx="623.7" cy="216.1" r="0.8"/>
	<circle id="rightBrow3" cx="606" cy="202.2" r="0.8"/>
	<circle id="rightEye1" cx="599.9" cy="211.4" r="0.8"/>
	<circle id="rightBrow0" cx="588.5" cy="206.9" r="0.8"/>
	<circle id="rightBrow2" cx="598.7" cy="202.2" r="0.8"/>
	<circle id="rightEye5" cx="599.9" cy="217.4" r="0.8"/>
	<circle id="rightEye2" cx="606.2" cy="211.4" r="0.8"/>
	<circle id="rightEye3" cx="611.4" cy="215.6" r="0.8"/>
	<circle id="nose0" cx="623.7" cy="210.3" r="0.8"/>
	<circle id="nose3" cx="623.7" cy="228.7" r="0.8"/>
	<circle id="rightNose0" cx="613" cy="233.2" r="0.8"/>
	<circle id="rightMouthCorner" cx="607" cy="255.3" r="0.8"/>
	<circle id="rightNose1" cx="618.2" cy="233.2" r="0.8"/>
	<circle id="rightUpperLipTop0" cx="613.9" cy="251.9" r="0.8"/>
	<circle id="nose2" cx="623.7" cy="221.6" r="0.8"/>
	<circle id="nose4" cx="623.7" cy="234" r="0.8"/>
	<circle id="upperLipTopMid" cx="624.5" cy="251.7" r="0.8"/>
	<circle id="rightUpperLipTop1" cx="620.4" cy="250.8" r="0.8"/>
	<path id="rightMiddleLip" d="M610.6,254.8c0.4,0,0.8,0.4,0.8,0.8c0,0.4-0.4,0.8-0.8,0.8s-0.8-0.4-0.8-0.8S610.2,254.8,610.6,254.8z
		"/>
	<circle id="lowerLipBottomMid" cx="624.5" cy="264.9" r="0.8"/>
	<circle id="upperLipBottomMid" cx="624.5" cy="255.3" r="0.8"/>
	<circle id="lowerLipTopMid" cx="624.5" cy="258.4" r="0.8"/>
	<circle id="rightUpperLipBottom1" cx="620.6" cy="254.8" r="0.8"/>
	<circle id="rightLowerLipTop0" cx="620.6" cy="257.7" r="0.8"/>
	<circle id="rightLowerLipBottom1" cx="620.4" cy="264.4" r="0.8"/>
	<circle id="rightLowerLipBottom0" cx="613.4" cy="261.6" r="0.8"/>
	<circle id="rightEye4" cx="606.2" cy="216.6" r="0.8"/>
	<circle id="jawMid" cx="624.5" cy="290.7" r="0.8"/>
	<circle id="rightJaw7" cx="609.5" cy="287.5" r="0.8"/>
	<circle id="rightJaw6" cx="599.5" cy="280.8" r="0.8"/>
	<circle id="rightJaw5" cx="587.9" cy="268.3" r="0.8"/>
	<circle id="rightJaw4" cx="581.1" cy="248.3" r="0.8"/>
	<circle id="rightJaw3" cx="580.3" cy="226.6" r="0.8"/>
	<circle id="rightJaw2" cx="580.3" cy="217.1" r="0.8"/>
	<circle id="rightJaw1" cx="581.1" cy="205.4" r="0.8"/>
	<circle id="rightJaw0" cx="583.6" cy="196.1" r="0.8"/>
	<circle id="topMid" cx="624.7" cy="170" r="0.8"/>
	<circle id="leftTop0" cx="644.4" cy="172.5" r="0.8"/>
	<circle id="leftTop1" cx="657" cy="182" r="0.8"/>
	<circle id="leftEye0" cx="654.3" cy="215.1" r="0.8"/>
	<circle id="leftBrow1" cx="656.2" cy="203.6" r="0.8"/>
	<circle id="leftBrow4" cx="632.6" cy="205.7" r="0.8"/>
	<circle id="leftBrow3" cx="642.6" cy="202.5" r="0.8"/>
	<circle id="leftEye1" cx="649.1" cy="211.4" r="0.8"/>
	<circle id="leftBrow0" cx="660.2" cy="206.5" r="0.8"/>
	<circle id="leftBrow2" cx="649.9" cy="202.1" r="0.8"/>
	<circle id="leftEye5" cx="649.1" cy="217.4" r="0.8"/>
	<circle id="leftEye2" cx="642.8" cy="211.4" r="0.8"/>
	<circle id="leftEye3" cx="637.6" cy="215.6" r="0.8"/>
	<circle id="leftNose0" cx="634.1" cy="233.2" r="0.8"/>
	<circle id="leftMouthCorner" cx="642" cy="255.3" r="0.8"/>
	<circle id="leftNose1" cx="629.3" cy="233.2" r="0.8"/>
	<circle id="leftUpperLipTop0" cx="635.1" cy="251.9" r="0.8"/>
	<circle id="leftUpperLipTop1" cx="628.7" cy="250.8" r="0.8"/>
	<path id="leftMiddleLip" d="M638.4,254.8c0.4,0,0.8,0.4,0.8,0.8c0,0.4-0.4,0.8-0.8,0.8s-0.8-0.4-0.8-0.8S638,254.8,638.4,254.8z"/>
	<circle id="leftUpperLipBottom1" cx="628.5" cy="254.8" r="0.8"/>
	<circle id="leftLowerLipTop0" cx="628.5" cy="257.7" r="0.8"/>
	<circle id="leftLowerLipBottom1" cx="628.7" cy="264.4" r="0.8"/>
	<circle id="leftLowerLipBottom0" cx="635.6" cy="261.6" r="0.8"/>
	<circle id="leftEye4" cx="642.8" cy="216.6" r="0.8"/>
	<circle id="leftJaw7" cx="639.3" cy="287.9" r="0.8"/>
	<circle id="leftJaw6" cx="649.3" cy="281.2" r="0.8"/>
	<circle id="leftJaw5" cx="660.9" cy="268.6" r="0.8"/>
	<circle id="leftJaw4" cx="667.7" cy="248.6" r="0.8"/>
	<circle id="leftJaw3" cx="668.5" cy="227" r="0.8"/>
	<circle id="leftJaw2" cx="668.5" cy="217.4" r="0.8"/>
	<circle id="leftJaw1" cx="667.7" cy="205.7" r="0.8"/>
	<circle id="leftJaw0" cx="665.2" cy="196.5" r="0.8"/>
	<circle id="rightTop0" cx="604.8" cy="172.5" r="0.8"/>
	<circle id="rightTop1" cx="592.2" cy="182" r="0.8"/>
	<circle id="leftShoulder" cx="731.8" cy="349.2" r="8.2"/>
</g>
</svg>
