<?xml version="1.0" encoding="utf-8"?>
<!-- Generator: Adobe Illustrator 25.0.0, SVG Export Plug-In . SVG Version: 6.00 Build 0)  -->
<svg version="1.1" id="Layer_1" xmlns="http://www.w3.org/2000/svg" xmlns:xlink="http://www.w3.org/1999/xlink" x="0px" y="0px"
	 viewBox="0 0 1200 1200" style="enable-background:new 0 0 1200 1200;" xml:space="preserve">
<style type="text/css">
	.st0{fill:#D6D6D6;}
	.st1{fill:#F5F5F5;stroke:#B5B5B5;stroke-miterlimit:10;}
	.st2{fill:#FFCC33;}
	.st3{fill:#FFD4E1;}
	.st4{fill:#F2F2F2;stroke:#B5B5B5;stroke-miterlimit:10;}
	.st5{fill:#FFFFFF;stroke:#000000;stroke-miterlimit:10;}
	.st6{fill:#FFFFFF;}
	.st7{fill:#D1D1D1;}
	.st8{fill:#FF6666;}
	.st9{fill:none;stroke:#000000;stroke-linecap:round;stroke-miterlimit:10;}
	.st10{fill:none;stroke:#000000;stroke-miterlimit:10;}
</style>
<g id="illustration">
	<g>
		<path class="st0" d="M625,281.4c8,0,11.1-8.2,11.1-8.2c-4.1,3.1-10.6,3.2-11,3.3h-0.8c-0.4-0.1-6.4,0-11-3.3c0,0,3.1,8.2,11.1,8.2
			H625z"/>
	</g>
	<path class="st1" d="M720.6,549.2L520.2,550c0,64.2-1.3,143.2-1.3,219.9v141.2l0,0c-0.8,13.5,7.7,63.1,50.2,59.5
		c41.2-3.5,42.7-48.3,42.4-60.1V771.2V595.4c0-5.3,4.3-9.6,9.6-9.6h6.8c5.3,0,9.6,4.3,9.6,9.6v175.8v139.9c0,0.1,0,0.2,0,0.3
		c-0.6,13.8,8,62.8,50.2,59.2c40.3-3.4,42.6-46.5,42.5-59.3c0-0.1,0-0.1,0-0.2V771.2V558.8C730.2,553.5,725.9,549.2,720.6,549.2z"/>
	<path class="st1" d="M520.3,559.1c-1.4-74.9-13.5-131.9,8.4-171.3c13.4-24.2,29.7-41.7,47.4-52.8c15.5-9.7,32.3-12.4,48.9-12.2
		c16.5,0.2,33.2,3.3,48.6,13.2c17.4,11.1,33.7,28.4,46.9,52c22.5,39.7,9.6,171.3,9.6,171.3"/>
	<path class="st1" d="M904.6,463.8"/>
	<path class="st1" d="M728.6,407.1c0,0,40.9,36.8,54.2,51.3s75.5,93.7,82.9,100.9c9.5,9.3,33.3,10.7,44.2,1.2
		c2-1.7,12.5-10.4,5.8-26.4s-57.7-84.9-82.5-115.2l0,0l0,0c-1-1.3-2-2.5-3-3.6l0,0c-2.2-2.7-4.4-5.4-6.6-8c-1.3-1.6-2-2.4-2-2.4l0,0
		c-70.3-80.3-157.2-80.6-170.1-79.5"/>
	<path class="st1" d="M874.5,547.9c0,0-2.1,8-4,16.9c-1.8,8.8-21.3,7.2-19.4-5.8c1.8-13.2,6.8-20.6,6.8-20.6"/>
	<path class="st1" d="M597.5,325c-15-1.3-97.4-4.7-169.9,78.1l0,0c0,0-0.7,0.8-2,2.4c-2.2,2.6-4.4,5.3-6.6,8l0,0c-1,1.1-2,2.3-3,3.6
		l0,0l0,0c-24.8,30.3-75.8,99.2-82.5,115.2s3.8,24.7,5.8,26.4c10.9,9.5,34.7,8.1,44.2-1.2c7.4-7.2,69.6-86.4,82.9-100.9
		s57.3-54.4,57.3-54.4"/>
	<path class="st1" d="M390.3,538.5c0,0,5,7.4,6.8,20.6c1.9,13-17.5,14.6-19.4,5.8c-1.8-8.9-4-16.9-4-16.9"/>
	<path class="st1" d="M592.7,328.4l8.3-33.2h49.5c0,0,4,17.7,7.5,33.7"/>
	<circle class="st1" cx="562.8" cy="152.2" r="18.3"/>
	<circle class="st1" cx="685.8" cy="152.2" r="18.3"/>
	<circle class="st2" cx="686.9" cy="154.4" r="9.8"/>
	<circle class="st2" cx="561.7" cy="154.4" r="9.8"/>
	<path class="st1" d="M624,137.2c0,0-32.2,0.5-43.5,7.9s-22.7,27.6-30,42.5c-7.3,15-13.4,31.8-12.7,46.4s17.8,43.1,32.3,53
		c13.8,9.4,43.7,11.6,54.3,11.5c10.7,0.1,40.6-2.1,54.3-11.5c14.5-9.9,31.6-38.4,32.3-53s-5.4-31.4-12.7-46.4s-18.7-35.1-30-42.5
		s-43.5-7.9-43.5-7.9"/>
	<path class="st3" d="M624.1,239.8c0.7,0,1.4,0,2.1,0.1s1.4,0.1,2.2,0.3c0.7,0.1,1.3,0.2,1.8,0.6c0.5,0.4,0.9,1.1,0.8,1.8
		c-0.1,0.5-0.3,0.9-0.6,1.2c-0.7,0.8-1.8,1.4-2.8,1.9c-0.8,0.4-1.6,0.7-2.4,0.8c-0.6,0.2-1.1,0.2-1.7,0c-1-0.2-1.9-0.6-2.8-1
		c-1-0.5-2.1-1.1-2.7-2.1c-0.6-0.9-0.4-2,0.5-2.7c0.6-0.4,1.3-0.5,2-0.6C621.6,239.9,622.8,239.8,624.1,239.8z"/>
	<path d="M622.9,243.9c0.1-0.5-0.7-0.9-1-1.1c-0.4-0.2-1.5-0.3-1.4,0.4C620.7,243.9,622.5,244.3,622.9,243.9z"/>
	<path d="M625.7,243.9c-0.1-0.5,0.7-0.9,1-1.1c0.4-0.2,1.5-0.3,1.4,0.4C627.9,243.9,626.1,244.3,625.7,243.9z"/>
	<path class="st4" d="M610.3,139.1c0.7-0.2,13.6-5.7,16.4-13.3c0,0,0.6,3.4-1.3,8c0.2-0.6,5.3-1,7.9-6.6c0,0,0.3,4.2-3.1,8.7
		c0.4-0.6,2.6,1.4,5.7-2.8c0,0,0.8,3.5-3,8.3"/>
	<g>
		<path d="M597,186.8c-1.5-0.1-3.3,1.6-4.4,2.4c-0.6,0.4-3.1,2.3-2.7,3.2c0.8,0,2-0.9,2.8-1.1c1.2-0.3,2.1-0.5,3.3-0.3
			c2.4,0.5,4.8,1.2,7.2,1.9c1.4,0.4,2.8,0.8,4.2,1.2c0.7,0.2,1.4,0.4,2.1,0.5c0.6,0.1,1,0.2,1.5-0.1c0.6-0.4,1.8-1.4,1.6-2.2
			c-0.1-0.3-0.5-0.4-0.7-0.5c-0.5-0.3-1-0.5-1.5-0.7c-0.7-0.3-1.4-0.7-2.1-1c-1.5-0.7-2.9-1.3-4.4-2c-1.6-0.7-3.2-1.2-4.9-1.3
			C598.3,186.9,597.2,186.9,597,186.8z"/>
		<circle id="rightBrow1_2_" cx="592.4" cy="203.2" r="0.8"/>
		<circle id="rightBrow4_2_" cx="615.7" cy="206.2" r="0.8"/>
		<circle id="rightBrow3_2_" cx="605.9" cy="202.2" r="0.8"/>
		<circle id="rightBrow0_2_" cx="588.4" cy="206.9" r="0.8"/>
		<circle id="rightBrow2_2_" cx="598.6" cy="202.2" r="0.8"/>
	</g>
	<g>
		<path d="M651.6,186.8c1.5-0.1,3.3,1.6,4.4,2.4c0.6,0.4,3.1,2.3,2.7,3.2c-0.8,0-2-0.9-2.8-1.1c-1.2-0.3-2.1-0.5-3.3-0.3
			c-2.4,0.5-4.8,1.2-7.2,1.9c-1.4,0.4-2.8,0.8-4.2,1.2c-0.7,0.2-1.4,0.4-2.1,0.5c-0.6,0.1-1,0.2-1.5-0.1c-0.6-0.4-1.8-1.4-1.6-2.2
			c0.1-0.3,0.5-0.4,0.7-0.5c0.5-0.3,1-0.5,1.5-0.7c0.7-0.3,1.4-0.7,2.1-1c1.5-0.7,2.9-1.3,4.4-2c1.6-0.7,3.2-1.2,4.9-1.3
			C650.3,186.9,651.4,186.9,651.6,186.8z"/>
		<circle id="leftBrow1_2_" cx="656.1" cy="203.6" r="0.8"/>
		<circle id="leftBrow4_2_" cx="632.5" cy="205.7" r="0.8"/>
		<circle id="leftBrow3_2_" cx="642.5" cy="202.5" r="0.8"/>
		<circle id="leftBrow0_2_" cx="660.1" cy="206.5" r="0.8"/>
		<circle id="leftBrow2_2_" cx="649.8" cy="202.1" r="0.8"/>
	</g>
	<g>
		<path class="st5" d="M592.7,209.8c0.2-0.4,5.3-5.5,5.3-5.5l9.7,0.5l5.5,6c0,0-3.6,7.3-11.1,6.5
			C594.7,216.5,592.7,209.8,592.7,209.8z"/>
		<g>
			<path d="M609.4,240.9c-5.5-1.8-11.3-2.5-17-2.9c-2.9-0.2-5.8-0.2-8.7-0.2l-8.7,0.1c2.9-0.4,5.8-0.7,8.7-0.8
				c2.9-0.2,5.8-0.2,8.8-0.1c5.8,0.2,11.7,1,17.3,2.9L609.4,240.9z"/>
		</g>
		<g>
			<path d="M608.1,243.9c-5.3-0.9-10.6-0.6-15.9,0.1c-1.3,0.2-2.6,0.4-4,0.6c-1.3,0.2-2.6,0.5-4,0.7c-2.6,0.5-5.3,1-8,1.5
				c2.6-0.9,5.1-1.7,7.8-2.3c1.3-0.3,2.6-0.6,4-0.9c1.3-0.3,2.7-0.5,4-0.7c5.3-0.8,10.9-1,16.3,0.1L608.1,243.9z"/>
		</g>
		<g>
			<path d="M607.8,246.5c-2.4,0.4-4.7,1-7,1.7c-2.3,0.8-4.5,1.7-6.7,2.7c-4.4,2-8.6,4.4-13,6.5c3.8-3.1,8-5.7,12.4-7.8
				c2.2-1.1,4.5-2,6.9-2.7s4.8-1.2,7.3-1.4L607.8,246.5z"/>
		</g>
		<g>
			<path d="M610.5,207.9l-2.6-2.8l-9.7-0.5c0,0-0.7,0.7-1.6,1.6c-0.8,1.2-1.2,2.6-1.2,4.2c0,2.4,1.1,4.5,2.8,6
				c1.1,0.6,2.5,1.1,4.1,1.2c2.1,0.2,3.9-0.2,5.4-0.9c1.9-1.4,3.2-3.7,3.2-6.2C610.9,209.5,610.8,208.7,610.5,207.9z M600.1,209.8
				c-1,0-1.9-0.8-1.9-1.9c0-1,0.8-1.9,1.9-1.9c1.1,0,1.9,0.8,1.9,1.9C602,208.9,601.1,209.8,600.1,209.8z"/>
			<path class="st6" d="M600.1,206c-1,0-1.9,0.8-1.9,1.9c0,1,0.8,1.9,1.9,1.9c1.1,0,1.9-0.8,1.9-1.9C602,206.9,601.1,206,600.1,206z
				"/>
			<path class="st7" d="M591.3,213.7c0,0,0.5,3.3,1.6,4.4c8,8.3,17.6,0,17.6,0C599.7,223.8,591.3,213.7,591.3,213.7z"/>
		</g>
		<circle id="rightEye0_2_" cx="594.6" cy="215.1" r="0.8"/>
		<circle id="rightEye1_2_" cx="599.8" cy="211.4" r="0.8"/>
		<circle id="rightEye5_2_" cx="599.8" cy="217.4" r="0.8"/>
		<circle id="rightEye2_2_" cx="606.1" cy="211.4" r="0.8"/>
		<circle id="rightEye3_2_" cx="611.3" cy="215.6" r="0.8"/>
		<circle id="rightEye4_2_" cx="606.1" cy="216.6" r="0.8"/>
	</g>
	<g>
		<path class="st5" d="M655.9,209.8c-0.2-0.4-5.3-5.5-5.3-5.5l-9.7,0.5l-5.5,6c0,0,3.6,7.3,11.1,6.5
			C653.9,216.5,655.9,209.8,655.9,209.8z"/>
		<g>
			<path d="M638.9,239.9c5.6-1.9,11.5-2.7,17.3-2.9c2.9-0.1,5.8-0.1,8.8,0.1c2.9,0.1,5.8,0.4,8.7,0.8l-8.7-0.1c-2.9,0-5.8,0-8.7,0.2
				c-5.8,0.3-11.6,1.1-17,2.9L638.9,239.9z"/>
		</g>
		<g>
			<path d="M640.3,242.9c5.4-1.2,10.9-1,16.3-0.1c1.3,0.2,2.7,0.4,4,0.7s2.6,0.6,4,0.9c2.6,0.7,5.2,1.4,7.8,2.3
				c-2.7-0.4-5.3-1-8-1.5c-1.3-0.3-2.6-0.5-4-0.7c-1.3-0.2-2.6-0.4-4-0.6c-5.3-0.7-10.7-0.9-15.9-0.1L640.3,242.9z"/>
		</g>
		<g>
			<path d="M640.9,245.5c2.5,0.2,4.9,0.6,7.3,1.4c2.4,0.7,4.7,1.6,6.9,2.7c4.4,2.1,8.6,4.7,12.4,7.8c-4.5-2-8.7-4.4-13-6.5
				c-2.2-1-4.4-1.9-6.7-2.7c-2.3-0.7-4.6-1.3-7-1.7L640.9,245.5z"/>
		</g>
		<g>
			<path d="M653.5,210.1c0-1.5-0.5-3-1.2-4.2c-0.9-0.9-1.6-1.6-1.6-1.6l-9.7,0.5l-2.6,2.8c-0.3,0.8-0.4,1.6-0.4,2.5
				c0,2.6,1.3,4.8,3.2,6.2c1.5,0.7,3.3,1.2,5.4,0.9c1.6-0.2,3-0.6,4.1-1.2C652.4,214.6,653.5,212.5,653.5,210.1z M648.8,209.5
				c-1,0-1.9-0.8-1.9-1.9c0-1,0.8-1.9,1.9-1.9c1,0,1.9,0.8,1.9,1.9C650.7,208.6,649.9,209.5,648.8,209.5z"/>
			<path class="st6" d="M648.8,205.7c-1,0-1.9,0.8-1.9,1.9c0,1,0.8,1.9,1.9,1.9c1,0,1.9-0.8,1.9-1.9S649.9,205.7,648.8,205.7z"/>
			<path class="st7" d="M638.7,217.9c0,0,9.6,8.3,17.6,0c1.1-1.2,1.6-4.4,1.6-4.4S649.4,223.5,638.7,217.9z"/>
		</g>
		<circle id="leftEye0_2_" cx="654.2" cy="215.1" r="0.8"/>
		<circle id="leftEye1_2_" cx="649" cy="211.4" r="0.8"/>
		<circle id="leftEye5_2_" cx="649" cy="217.4" r="0.8"/>
		<circle id="leftEye2_2_" cx="642.7" cy="211.4" r="0.8"/>
		<circle id="leftEye3_2_" cx="637.5" cy="215.6" r="0.8"/>
		<circle id="leftEye4_2_" cx="642.7" cy="216.6" r="0.8"/>
	</g>
	<path class="st8" d="M624.8,251.8c-1.4,0.2-3,0.7-4.3,1.3s-5.4,2.5-4.8,4.4c0.5,1.5,2.2,2.8,3.5,3.5c1.8,1,3.6,1.6,5.5,1.7
		c1.9-0.1,3.7-0.7,5.5-1.7c1.3-0.8,3.1-2,3.5-3.5c0.6-1.9-3.4-3.8-4.8-4.4C627.8,252.5,626.2,252,624.8,251.8z"/>
	<path class="st9" d="M602.2,253c2.3,2.7,5,3.9,8.5,4.1c4.6,0.2,7.7-2.8,11.7-4.6c0.8-0.4,1.6-0.6,2.4-0.7c0.8,0.2,1.6,0.3,2.4,0.7
		c4,1.8,7.1,4.8,11.7,4.6c3.6-0.1,6.2-1.4,8.5-4.1"/>
	<path d="M624.8,265c-1,0-1.9,0-2.2-0.1c-1.8-0.3-3.8-0.9-5.4-1.9c-1.5-0.9-2.7-2.1-3.6-3.6c-0.5-0.8-0.9-1.6-0.9-2.6
		c1.2-0.2,2.4-0.9,3.4-1.1c0-0.1-0.1-0.1-0.1-0.1c0.9,2.2,2.6,3.8,4.6,4.9c1,0.5,2.1,0.7,3.2,0.7c0.2,0,0.5,0,0.9,0s0.8,0,0.9,0
		c1.1,0,2.2-0.2,3.2-0.7c2-1.1,3.8-2.8,4.6-4.9c-0.1,0-0.1,0-0.1,0.1c1,0.3,2.2,0.9,3.4,1.1c0.1,1-0.4,1.8-0.9,2.6
		c-0.9,1.5-2.1,2.7-3.6,3.6c-1.6,1-3.6,1.6-5.4,1.9C626.6,265,625.8,265,624.8,265z"/>
</g>
<g id="skeleton_1_">
	<polygon class="st10" points="518.8,349.5 569.1,565.3 685.5,564.5 731.7,349.5 	"/>
	<polyline class="st10" points="517.8,349.5 445.4,431.1 352,547.5 	"/>
	<polyline class="st10" points="733.2,349.1 806.2,430.7 899.6,547 	"/>
	<polyline class="st10" points="569.1,565.3 575.5,725.5 575.5,933.5 	"/>
	<polyline class="st10" points="685.5,564.5 685.5,725.5 685.5,933.5 	"/>
	<polyline class="st10" points="624.5,170 604.7,172.5 592.2,182 583.6,196.1 581.1,205.4 580.3,217.1 580.3,226.6 581.1,248.3 
		587.9,268.3 599.5,280.8 609.5,287.5 624.5,290.7 639.3,287.9 649.3,281.2 660.9,268.6 667.7,248.6 668.5,227 668.5,217.4 
		667.7,205.7 665.2,196.5 657,182 644.4,172.5 624.5,170 	"/>
	<polyline class="st10" points="588.5,206.9 592.5,203.2 598.7,202.2 606,202.2 615.8,206.2 	"/>
	<polygon class="st10" points="594.7,215.1 599.9,211.4 606.2,211.4 611.4,215.6 606.2,216.6 599.9,217.4 	"/>
	<polyline class="st10" points="613,233.2 618.2,233.2 623.7,234 623.7,228.7 623.7,221.6 623.7,216.1 623.7,210.3 	"/>
	<polyline class="st10" points="660,206.5 656,203.6 649.7,202.1 642.4,202.5 632.4,205.7 	"/>
	<polygon class="st10" points="654.1,215.1 648.8,211.4 642.5,211.4 637.4,215.6 642.5,216.6 648.8,217.4 	"/>
	<polyline class="st10" points="634.1,233.2 629.1,233.2 623.7,234 	"/>
	<polygon class="st10" points="607,255.3 613.9,251.9 620.4,250.8 624.5,251.7 628.7,250.8 635.1,251.9 642,255.3 635.6,261.6 
		628.5,264.4 624.5,264.9 620.4,264.4 613.4,261.6 	"/>
	<polyline class="st10" points="607,255.3 610.6,255.6 620.6,254.8 624.5,255.3 628.5,254.8 638.4,255.6 642,255.3 	"/>
	<polyline class="st10" points="607,255.3 610.6,255.6 620.6,257.7 624.5,258.5 628.5,257.7 638.4,255.6 642,255.3 	"/>
	<circle id="rightShoulder" cx="518.9" cy="349.2" r="8.2"/>
	<circle id="rightElbow" cx="445.4" cy="439.3" r="8.2"/>
	<circle id="rightWrist" cx="352" cy="555.7" r="8.2"/>
	<circle id="rightHip" cx="569.2" cy="565" r="8.2"/>
	<circle id="rightKnee" cx="575.6" cy="725.2" r="8.2"/>
	<circle id="rightAnkle" cx="575.6" cy="933.2" r="8.2"/>
	<circle id="leftElbow" cx="806.2" cy="438.9" r="8.2"/>
	<circle id="leftWrist" cx="899.6" cy="555.2" r="8.2"/>
	<circle id="leftHip" cx="685.6" cy="564.2" r="8.2"/>
	<circle id="leftKnee" cx="685.6" cy="725.2" r="8.2"/>
	<circle id="leftAnkle" cx="685.6" cy="933.2" r="8.2"/>
	<circle id="rightEye0" cx="594.7" cy="215.1" r="0.8"/>
	<circle id="rightBrow1" cx="592.5" cy="203.2" r="0.8"/>
	<circle id="rightBrow4" cx="615.8" cy="206.2" r="0.8"/>
	<circle id="nose1" cx="623.7" cy="216.1" r="0.8"/>
	<circle id="rightBrow3" cx="606" cy="202.2" r="0.8"/>
	<circle id="rightEye1" cx="599.9" cy="211.4" r="0.8"/>
	<circle id="rightBrow0" cx="588.5" cy="206.9" r="0.8"/>
	<circle id="rightBrow2" cx="598.7" cy="202.2" r="0.8"/>
	<circle id="rightEye5" cx="599.9" cy="217.4" r="0.8"/>
	<circle id="rightEye2" cx="606.2" cy="211.4" r="0.8"/>
	<circle id="rightEye3" cx="611.4" cy="215.6" r="0.8"/>
	<circle id="nose0" cx="623.7" cy="210.3" r="0.8"/>
	<circle id="nose3" cx="623.7" cy="228.7" r="0.8"/>
	<circle id="rightNose0" cx="613" cy="233.2" r="0.8"/>
	<circle id="rightMouthCorner" cx="607" cy="255.3" r="0.8"/>
	<circle id="rightNose1" cx="618.2" cy="233.2" r="0.8"/>
	<circle id="rightUpperLipTop0" cx="613.9" cy="251.9" r="0.8"/>
	<circle id="nose2" cx="623.7" cy="221.6" r="0.8"/>
	<circle id="nose4" cx="623.7" cy="234" r="0.8"/>
	<circle id="upperLipTopMid" cx="624.5" cy="251.7" r="0.8"/>
	<circle id="rightUpperLipTop1" cx="620.4" cy="250.8" r="0.8"/>
	<path id="rightMiddleLip" d="M610.6,254.8c0.4,0,0.8,0.4,0.8,0.8c0,0.4-0.4,0.8-0.8,0.8s-0.8-0.4-0.8-0.8S610.2,254.8,610.6,254.8z
		"/>
	<circle id="lowerLipBottomMid" cx="624.5" cy="264.9" r="0.8"/>
	<circle id="upperLipBottomMid" cx="624.5" cy="255.3" r="0.8"/>
	<circle id="lowerLipTopMid" cx="624.5" cy="258.4" r="0.8"/>
	<circle id="rightUpperLipBottom1" cx="620.6" cy="254.8" r="0.8"/>
	<circle id="rightLowerLipTop0" cx="620.6" cy="257.7" r="0.8"/>
	<circle id="rightLowerLipBottom1" cx="620.4" cy="264.4" r="0.8"/>
	<circle id="rightLowerLipBottom0" cx="613.4" cy="261.6" r="0.8"/>
	<circle id="rightEye4" cx="606.2" cy="216.6" r="0.8"/>
	<circle id="jawMid" cx="624.5" cy="290.7" r="0.8"/>
	<circle id="rightJaw7" cx="609.5" cy="287.5" r="0.8"/>
	<circle id="rightJaw6" cx="599.5" cy="280.8" r="0.8"/>
	<circle id="rightJaw5" cx="587.9" cy="268.3" r="0.8"/>
	<circle id="rightJaw4" cx="581.1" cy="248.3" r="0.8"/>
	<circle id="rightJaw3" cx="580.3" cy="226.6" r="0.8"/>
	<circle id="rightJaw2" cx="580.3" cy="217.1" r="0.8"/>
	<circle id="rightJaw1" cx="581.1" cy="205.4" r="0.8"/>
	<circle id="rightJaw0" cx="583.6" cy="196.1" r="0.8"/>
	<circle id="topMid" cx="624.7" cy="170" r="0.8"/>
	<circle id="leftTop0" cx="644.4" cy="172.5" r="0.8"/>
	<circle id="leftTop1" cx="657" cy="182" r="0.8"/>
	<circle id="leftEye0" cx="654.3" cy="215.1" r="0.8"/>
	<circle id="leftBrow1" cx="656.2" cy="203.6" r="0.8"/>
	<circle id="leftBrow4" cx="632.6" cy="205.7" r="0.8"/>
	<circle id="leftBrow3" cx="642.6" cy="202.5" r="0.8"/>
	<circle id="leftEye1" cx="649.1" cy="211.4" r="0.8"/>
	<circle id="leftBrow0" cx="660.2" cy="206.5" r="0.8"/>
	<circle id="leftBrow2" cx="649.9" cy="202.1" r="0.8"/>
	<circle id="leftEye5" cx="649.1" cy="217.4" r="0.8"/>
	<circle id="leftEye2" cx="642.8" cy="211.4" r="0.8"/>
	<circle id="leftEye3" cx="637.6" cy="215.6" r="0.8"/>
	<circle id="leftNose0" cx="634.1" cy="233.2" r="0.8"/>
	<circle id="leftMouthCorner" cx="642" cy="255.3" r="0.8"/>
	<circle id="leftNose1" cx="629.3" cy="233.2" r="0.8"/>
	<circle id="leftUpperLipTop0" cx="635.1" cy="251.9" r="0.8"/>
	<circle id="leftUpperLipTop1" cx="628.7" cy="250.8" r="0.8"/>
	<path id="leftMiddleLip" d="M638.4,254.8c0.4,0,0.8,0.4,0.8,0.8c0,0.4-0.4,0.8-0.8,0.8s-0.8-0.4-0.8-0.8S638,254.8,638.4,254.8z"/>
	<circle id="leftUpperLipBottom1" cx="628.5" cy="254.8" r="0.8"/>
	<circle id="leftLowerLipTop0" cx="628.5" cy="257.7" r="0.8"/>
	<circle id="leftLowerLipBottom1" cx="628.7" cy="264.4" r="0.8"/>
	<circle id="leftLowerLipBottom0" cx="635.6" cy="261.6" r="0.8"/>
	<circle id="leftEye4" cx="642.8" cy="216.6" r="0.8"/>
	<circle id="leftJaw7" cx="639.3" cy="287.9" r="0.8"/>
	<circle id="leftJaw6" cx="649.3" cy="281.2" r="0.8"/>
	<circle id="leftJaw5" cx="660.9" cy="268.6" r="0.8"/>
	<circle id="leftJaw4" cx="667.7" cy="248.6" r="0.8"/>
	<circle id="leftJaw3" cx="668.5" cy="227" r="0.8"/>
	<circle id="leftJaw2" cx="668.5" cy="217.4" r="0.8"/>
	<circle id="leftJaw1" cx="667.7" cy="205.7" r="0.8"/>
	<circle id="leftJaw0" cx="665.2" cy="196.5" r="0.8"/>
	<circle id="rightTop0" cx="604.8" cy="172.5" r="0.8"/>
	<circle id="rightTop1" cx="592.2" cy="182" r="0.8"/>
	<circle id="leftShoulder" cx="731.8" cy="349.2" r="8.2"/>
</g>
</svg>
