<?xml version="1.0" encoding="utf-8"?>
<!-- Generator: Adobe Illustrator 25.0.0, SVG Export Plug-In . SVG Version: 6.00 Build 0)  -->
<svg version="1.1" id="Layer_1" xmlns="http://www.w3.org/2000/svg" xmlns:xlink="http://www.w3.org/1999/xlink" x="0px" y="0px"
	 viewBox="0 0 1200 1200" style="enable-background:new 0 0 1200 1200;" xml:space="preserve">
<style type="text/css">
	.st0{fill:#CC9966;stroke:#7F5100;stroke-miterlimit:10;}
	.st1{fill:#FFC57C;}
	.st2{fill:#996600;}
	.st3{fill:#7F5100;}
	.st4{fill:#9B6A3E;}
	.st5{fill:#70411A;}
	.st6{fill:none;stroke:#9B6A3E;stroke-miterlimit:10;}
	.st7{fill:#C18243;}
	.st8{fill:#FFFFFF;}
	.st9{fill:#FF94A8;}
	.st10{fill:#E55C51;}
	.st11{fill:#FFFFFF;stroke:#ABABAB;stroke-linecap:round;stroke-linejoin:round;stroke-miterlimit:10;}
	.st12{fill:#FFFFFF;stroke:#ABABAB;stroke-miterlimit:10;}
	.st13{fill:#2D0808;stroke:#000000;stroke-miterlimit:10;}
	.st14{fill:#CC9966;stroke:#9B6A3E;stroke-miterlimit:10;}
	.st15{fill:none;stroke:#000000;stroke-miterlimit:10;}
</style>
<g id="illustration">
	<path class="st0" d="M585.6,122.5c0.2-0.4,0.9-0.3,0.9,0.1c0.2,3.1,1.9,7.4,2.6,9.5c1.7,5.1,4.6,9.6,7.7,13.9
		c6.7,9.3,17.8,18,16.4,30.9c-0.6,5.1-5.6,7.9-10.1,9.4c-5.2,1.8-10.7,1-14.2-3.6c-8.3-10.7-8.6-25.7-7.7-38.6
		c0.3-4.5,0.6-9.2,1.4-13.7C583.1,128.1,584.2,125.6,585.6,122.5z"/>
	<path class="st1" d="M603.6,174.6c0.3-6.2-5-12.5-8.1-17.6c-3.2-5.3-7.1-10.3-8.4-16.4c-0.7,8.5-1,17.3,1.2,25.6
		c1.4,5.2,4.2,13.3,10.8,13.7C602.8,180.3,603.8,174.4,603.6,174.6z"/>
	<path class="st0" d="M659.9,132.2c-1.9,5-4.6,9.6-7.7,13.9c-6.7,9.3-17.8,18-16.4,30.9c0.6,5.1,5.6,7.9,10.1,9.4
		c5.2,1.8,10.7,1,14.2-3.6c8.3-10.7,8.6-25.7,7.7-38.6c-0.3-4.5-1.8-16.1-2.7-20.6C664.6,120.5,661.3,128.5,659.9,132.2z"/>
	<path class="st1" d="M645.5,174.6c-0.3-6.2,5-12.5,8.1-17.6c3.2-5.3,7.1-10.3,8.4-16.4c0.7,8.5,1,17.3-1.2,25.6
		c-1.4,5.2-4.2,13.3-10.8,13.7C646.3,180.3,645.3,174.4,645.5,174.6z"/>
	<path class="st0" d="M720.6,549.2L520.2,550c0,64.2-1.3,143.2-1.3,219.9v141.2l0,0c-0.8,13.5,7.7,63.1,50.2,59.5
		c41.2-3.5,42.7-48.3,42.4-60.1V771.2V595.4c0-5.3,4.3-9.6,9.6-9.6h6.8c5.3,0,9.6,4.3,9.6,9.6v175.8v139.9c0,0.1,0,0.2,0,0.3
		c-0.6,13.8,8,62.8,50.2,59.2c40.3-3.4,42.6-46.5,42.5-59.3c0-0.1,0-0.1,0-0.2V771.2V558.8C730.2,553.5,725.9,549.2,720.6,549.2z"/>
	<path class="st0" d="M520.3,559.1c-1.4-74.9-13.5-131.9,8.4-171.3c13.4-24.2,29.7-41.7,47.4-52.8c15.5-9.7,32.3-12.4,48.9-12.2
		c16.5,0.2,33.2,3.3,48.6,13.2c17.4,11.1,33.7,28.4,46.9,52c22.5,39.7,9.6,171.3,9.6,171.3"/>
	<path class="st0" d="M904.6,463.8"/>
	<path class="st0" d="M728.6,407.1c0,0,40.9,36.8,54.2,51.3s75.5,93.7,82.9,100.9c9.5,9.3,33.3,10.7,44.2,1.2
		c2-1.7,12.5-10.4,5.8-26.4s-57.7-84.9-82.5-115.2l0,0l0,0c-1-1.3-2-2.5-3-3.6l0,0c-2.2-2.7-4.4-5.4-6.6-8c-1.3-1.6-2-2.4-2-2.4l0,0
		c-70.3-80.3-157.2-80.6-170.1-79.5"/>
	<path class="st0" d="M874.5,547.9c0,0-2.1,8-4,16.9c-1.8,8.8-21.3,7.2-19.4-5.8c1.8-13.2,6.8-20.6,6.8-20.6"/>
	<path class="st0" d="M597.5,325c-15-1.3-97.4-4.7-169.9,78.1l0,0c0,0-0.7,0.8-2,2.4c-2.2,2.6-4.4,5.3-6.6,8l0,0c-1,1.1-2,2.3-3,3.6
		l0,0l0,0c-24.8,30.3-75.8,99.2-82.5,115.2s3.8,24.7,5.8,26.4c10.9,9.5,34.7,8.1,44.2-1.2c7.4-7.2,69.6-86.4,82.9-100.9
		s57.3-54.4,57.3-54.4"/>
	<path class="st0" d="M390.3,538.5c0,0,5,7.4,6.8,20.6c1.9,13-17.5,14.6-19.4,5.8c-1.8-8.9-4-16.9-4-16.9"/>
	<path class="st2" d="M593.7,212.2c0,8.7-0.2,17.4-0.7,26.1c-0.5,8.4-1.4,16.9-1.3,25.3c0.1,9.9,2.2,20,0.2,29.8
		c-0.2,0.8,0.2,1.2-0.5,1.7c-0.3,0.2-1.2,0.2-1.6,0.2c-1.8,0.3-3.5,0.8-5.2,1.3s-3.4,1-5.1,1.6c-3.3,1-6.7,2.2-9.8,3.5
		c-1.8,0.8-3.9,2.3-6,2.6c-0.3-2.3,1.1-5.3,1.6-7.6c0.9-3.5,1.7-7.3,1.5-10.8c-0.2-3.2,0-6.3,0.2-9.4c0.1-1.2-0.4-2.7,0.3-3.7
		c-1.5,1.1-3.1,2.2-4.7,3.2c-1.2,0.8-3,2.4-4.3,2.5c0.6-2.9,2.1-5.6,2.4-8.6c0.4-3.6,0-7.3,0-10.9c0-5.1,0.2-11,2.8-15.7
		c-1.9,1.3-4,2.4-6,3.7c-1.3,0.8-2.7,2.2-4.2,2.8c0-1.9,0.6-4.2,0.9-6.2c0.5-3.4,1.3-7.1,2.5-10.4c1.3-3.3,2.9-7.3,5.2-10.4
		c-2.7,2.9-7.6,4.6-11.1,5.7c2.4-2.4,4-5.6,5.7-8.5c2.1-3.5,3.9-7.1,5.2-10.9c1.9-5.2,5.6-10.9,9-15.5c2.7-3.8,8.1-10.8,11.8-13.9
		c0.3-0.3,0.4-0.4,0.5-0.5c0.1,0.1,0.4,0.1,0.9,0.1c1-0.8,3.7-2,6.2-1.8c2.4,0.1,3,2,3.2,3.8c0.5,3.7,0.1,7.4,0.2,11.1
		c0,0.8,0.1,1.7,0.1,2.6C593.8,200.7,593.7,206.5,593.7,212.2z"/>
	<path class="st3" d="M596.4,177c0.1,5.7,9.8,28.4,9.9,34.1c0,8.7-0.2,17.3-0.9,26c-0.6,8.3-1.7,16.8-1.6,25
		c0.1,9.9,2.7,19.8,0.2,29.6c-0.2,0.8,0.2,1.1-0.6,1.7c-0.4,0.2-1.5,0.2-2,0.2c-2.2,0.3-13.2,2.4-15.3,3.4
		c-1.5,0.7-15.3,5.2-16.9,5.4c5.2-5.4,8.3-11.9,9.5-14.8c1.9-4.7,2.5-12.7,2.5-16.4c0-5.1,0.1-4,0.1-7c-2.3,1.3-5.1,5.6-7.5,7
		c-1.6,0.8-9.4,5.1-11.2,5.6c9.9-10.6,11.4-16.5,11.7-18.3c0.6-3.4,0.4-9.5,2-12.8s3.6-7.3,6.4-10.3c-3.3,2.9-22,11.9-26.3,12.9
		c3-2.4,10.1-10.1,11.9-16.1c1.1-3.9,2.8-11,4.6-14.7c-3,3-6.6,5.2-10.6,7C564,217.1,592.1,180.5,596.4,177z"/>
	<path class="st0" d="M592.7,328.3l8.3-39.6h49.5c0,0,4,21.2,7.5,40.2"/>
	<path class="st0" d="M671.7,269.4c0-0.1,0-0.2,0-0.4c0.6-10.6-0.9-21-2.5-31.3c-1.5-10.4-3.6-20.7-5.5-31
		c-2.8-15.5-8.7-31.6-18.7-40.6c-4.3-3.9-9.1-7.4-14-9.5c-1.5-0.7-4.5-2.5-6.7-2.7c-0.6-0.1-1.4-0.1-2,0c-2.3,0.3-5.3,2.1-6.7,2.7
		c-4.9,2.2-9.7,5.7-14,9.5c-10,9-14.4,25.2-17.2,40.7c-1.8,10.3-5.5,20.5-7,30.9c-1.5,10.3-3.1,20.8-2.5,31.3c0,0.1,0,0.2,0,0.3
		C574.9,310.7,671.6,310.8,671.7,269.4z"/>
	<path class="st2" d="M589.1,178.4C588.9,178.3,589.3,178.2,589.1,178.4L589.1,178.4z"/>
	<path class="st4" d="M610.1,223.2c-0.5-0.2-1.5,0.6-1.8,1c-0.9,0.8-1.6,2-2.2,3c-0.7,1.4-0.9,2.9-0.6,4.4c0.1,0.7,0.4,2.3,1.3,2.4
		c0-2.4-0.8-4.6,0.5-6.9c0.5-0.9,1.1-1.8,1.9-2.6c0.3-0.3,0.8-0.7,1-1.1C610.2,223.3,610.1,223.3,610.1,223.2z"/>
	<path class="st4" d="M639,223.2c0.5-0.2,1.5,0.6,1.8,1c0.9,0.8,1.6,2,2.2,3c0.7,1.4,0.9,2.9,0.6,4.4c-0.1,0.7-0.4,2.3-1.3,2.4
		c0-2.4,0.8-4.6-0.5-6.9c-0.5-0.9-1.1-1.8-1.9-2.6c-0.3-0.3-0.8-0.7-1-1.1C638.9,223.3,638.9,223.3,639,223.2z"/>
	<path class="st5" d="M610.7,230.3c-0.1-0.7,1.4-0.8,1.9-0.8c1,0.1,1.9,0.7,2.6,1.3c1.1,1,2.2,2.2,2.9,3.4c0.5,0.9,0.7,2.6-0.6,3
		c-1.3,0.3-2.7-0.9-3.3-1.9c-0.6-1.1-0.8-2.3-1.3-3.4C612.7,231.5,611.4,229.4,610.7,230.3z"/>
	<path class="st5" d="M638.3,230.3c0.1-0.7-1.4-0.8-1.9-0.8c-1,0.1-1.9,0.7-2.6,1.3c-1.1,1-2.2,2.2-2.9,3.4c-0.5,0.9-0.7,2.6,0.6,3
		c1.3,0.3,2.7-0.9,3.3-1.9c0.6-1.1,0.8-2.3,1.3-3.4C636.3,231.5,637.7,229.4,638.3,230.3z"/>
	<path class="st6" d="M604.5,265.8c0.1,0.2,6,12.5,20,12.5s19.9-12.3,20-12.5"/>
	<path class="st2" d="M634.5,173.4c-5.8,4.5-6.5,12.8-6.2,13.8c-2.9-4.1-2.7-9-2.7-9c-2.4,5.5-6.2,5.3-7.3,9.9
		c-0.6,2.5-0.4,5.8-0.3,7.7c0,0.3,0,0.6,0,0.8l0,0c0,0.5,0,0.7-0.1,0.5c0-0.1-0.1-0.2-0.2-0.3c-0.9-1.1-2.1-2.4-5.5-5.2
		c-3.2-2.6-3.7-7.3-3.8-8.7c0-0.3,0-0.4,0-0.4c-1.2,4.8-7.5,9.3-7.5,9.3c0-0.1-0.1-0.1-0.1-0.2c-4.2-10.9,1.9-18.4,1.9-18.4
		c-5.9,2.9-12.8,4.2-12.8,4.2c5.3-2,10.4-10.5,10.4-10.5c-6.2,0.5-10.1-4.3-10.1-4.3s4.5,0.5,9.5-0.9c5.5-1.5,4.6-5.2,17.4-9
		c9.2-2.8,14.2-2.5,20.4,0.1l0.6,0.4l0,0c1.2,1.1,2.2,2.4,2.9,3.9C644.5,165,639.8,169.3,634.5,173.4z"/>
	<path class="st3" d="M604.2,169.9c0,0.3-2.4,2.7-2.7,2.9c-0.7,0.5-1.6,1.3-2.7,1.8c-0.9,0.4-2.8,1.2-3.7,1.5
		c-2.1,0.7-4.6,1.2-5.1,1.3c1.6,0.4,6-0.3,6.6-0.4c1.3-0.3,3.4-0.9,5-2.2c0.6-0.6,1.2-1.3,1.6-2.1
		C603.2,172.3,604.1,170,604.2,169.9z"/>
	<path class="st3" d="M590.4,162.8c0.6,0.5,1.6,1.1,2.1,1.3c1.4,0.5,3,1,4.5,1.2c1.6,0.2,3.2,0.2,4.8-0.1c1.1-0.2,2-0.6,3-1
		c-0.8,0.9-1.9,1.9-3,2.4c-1.5,0.7-3.1,0.6-4.7,0.2c-1.2-0.3-2.4-0.5-3.4-1.3c-0.5-0.3-0.8-0.6-1.3-0.9c-0.4-0.2-1.5-1-2.1-1.9
		L590.4,162.8z"/>
	<path class="st3" d="M634.5,173.4c-5.8,4.5-6.5,12.8-6.2,13.8c-2.9-4.1-2.7-9-2.7-9c-2.4,5.5-6.2,5.3-7.3,9.9
		c-0.6,2.5-0.4,5.8-0.3,7.7c0,0.3,0,0.5,0,0.8l0,0c0.1,0.5,0.2,0.9,0.2,1.4c-0.3-0.4-0.4-0.8-0.6-1.2c-0.2-0.5-0.3-1.1-0.5-1.6
		c-0.4-1.3-0.6-2.6-0.8-4c-0.6-3.4-0.4-6.6,0.8-9.9c-0.5,0.3-0.9,0.7-1.3,1.2c-0.3,0.3-0.6,1.1-1,1.3c0.2-1.2,0.8-2.3,1.3-3.5
		c0.3-0.9,0.7-1.8,1.3-2.6c0.6-0.9,1.2-1.8,1.9-2.6c0.2-0.2,0.4-0.5,0.7-0.6c-1.2,0.4-2.5,0.5-3.7,0.8c-0.5,0.2-1.2,0.3-1.6,0.6
		c1.6-1.5,3.2-2.9,5.2-3.9c2.1-0.9,4.3-1.6,6.4-2.5c2.8-1.1,5.4-2.5,7.8-4.3c2.2-1.5,3.5-3.8,4.3-6.3c0.4-1.4,0.8-2.9,0.3-4.4
		c-0.1-0.4-0.3-0.9-0.5-1.4l0,0c1.2,1.1,2.2,2.4,2.9,3.9C644.5,165,639.8,169.2,634.5,173.4z"/>
	<path class="st3" d="M608.8,179.6c0,1-0.2,2-0.3,3c0,0.1,0,0.2,0,0.3c0-0.3,0-0.4,0-0.4c-1.2,4.8-7.5,9.3-7.5,9.3
		c0-0.1-0.1-0.1-0.1-0.2c0.4-0.5,0.6-1.1,1-1.6c0.4-0.7,0.8-1.3,1.2-1.9c0.5-0.9,1.2-1.6,1.8-2.5c0.9-1.5,1.8-2.9,2.6-4.5
		c0.3-0.7,0.7-1.3,0.9-2.1c0.1-0.3,0.2-0.6,0.3-0.9C608.9,178.5,608.8,179.2,608.8,179.6z"/>
	<path class="st4" d="M635.1,204.2c0.2-0.1,0.3-0.2,0.5-0.2c0,0.2-0.1,0.5-0.2,0.7c-0.2,0.5-0.4,1-0.6,1.6c-0.5,1.2-1,2.4-1.4,3.7
		c-0.5,1.8-0.9,3.5-0.8,5.4c0,0.9,0,1.7,0.1,2.6c0.1,0.5,0.1,0.9,0.2,1.4c0,0.1,0.2,1.3,0.4,1.3c-1-0.2-1.6-1.8-1.8-2.6
		c-0.4-2.3-0.1-4.4,0.4-6.6c0.4-1.7,0.9-3.3,1.7-4.9c0.3-0.5,0.6-1,0.9-1.4C634.6,204.8,634.9,204.4,635.1,204.2z"/>
	<g>
		<g>
			<path class="st7" d="M642.3,206.5c0,0,0.5-0.8,1.2-2c1.8-2.8,5.2-7.4,8.8-7.7c0.1,0,0.3,0,0.4,0c5,0,4.5,7.7,4.6,8.7l0,0l0,0v0.1
				c0.3-0.5,0.8-2.7,0.8-4c0.1-3.9-2.4-6.9-6.2-6c-1.3,0.3-3.1,1.2-4,2.1c-4.6,4.8-5.5,8.2-5.7,8.9
				C642.2,206.5,642.3,206.5,642.3,206.5C642.3,206.6,642.3,206.5,642.3,206.5L642.3,206.5z"/>
			<path class="st7" d="M653,210.5c-0.5,0.3-1,0.5-1.5,0.7c-2.5,0.8-5.2-0.9-7-2.5c-1.3-1.1-2.2-2.2-2.2-2.2v0.1
				c0.2,0.5,0.9,1.6,1.1,1.9c1.1,1.8,1,1.8,1.8,2.5c1.9,1.8,3.4,2.6,6.1,2.4c2.1-0.1,4-1.6,5-3.4c0.6-1.2,1-2.8,1-4
				c0-0.2,0-0.3,0-0.4C657,206.1,655.8,208.9,653,210.5z"/>
			<path class="st7" d="M657.3,205.4L657.3,205.4L657.3,205.4L657.3,205.4z"/>
			<path class="st8" d="M657.3,205.4L657.3,205.4c-0.1-1,0.4-8.7-4.6-8.7c-0.1,0-0.3,0-0.4,0c1.7,1.5,2.8,4.2,2.8,7.3
				c0,2.6-0.8,4.9-2.1,6.5c2.8-1.6,4-4.4,4.2-4.9C657.3,205.5,657.3,205.5,657.3,205.4C657.3,205.5,657.3,205.4,657.3,205.4z"/>
			<path class="st8" d="M643.5,204.5c-0.8,1.2-1.2,2-1.2,2l0,0c0,0,0.9,1,2.2,2.2C643.9,207.4,643.6,206,643.5,204.5z"/>
			<path d="M643.5,204.5c0.1,1.5,0.4,3,0.9,4.2c1.8,1.6,4.6,3.4,7,2.5c0.6-0.2,1.1-0.4,1.5-0.7c1.3-1.6,2.1-3.9,2.1-6.5
				c0-3.1-1.1-5.8-2.8-7.3C648.8,197.1,645.3,201.7,643.5,204.5z"/>
		</g>
		<path class="st9" d="M642.3,216.2c0.2-0.5,0.7-0.3,1.2-0.3c1,0,2-0.2,3-0.2c2-0.1,4-0.1,6-0.1c1.4,0,3.3,0.4,4.2,1.7
			c1.3,1.8-1.6,3.2-3,3.6c-2.9,0.9-5.9,0.3-8.9,0.2c-1.3,0-3.2,0-3.8-1.4C640.2,218.2,641,216.2,642.3,216.2z"/>
		<circle id="leftEye0_2_" cx="654.4" cy="214.9" r="0.8"/>
		<circle id="leftEye1_2_" cx="649.2" cy="211.2" r="0.8"/>
		<circle id="leftEye5_2_" cx="649.2" cy="217.2" r="0.8"/>
		<circle id="leftEye2_2_" cx="642.9" cy="211.2" r="0.8"/>
		<circle id="leftEye3_2_" cx="637.7" cy="215.4" r="0.8"/>
		<circle id="leftEye4_2_" cx="642.9" cy="216.4" r="0.8"/>
	</g>
	<path class="st4" d="M613.9,204.2c-0.2-0.1-0.3-0.2-0.5-0.2c0,0.2,0.1,0.5,0.2,0.7c0.2,0.5,0.4,1,0.6,1.6c0.5,1.2,1,2.4,1.4,3.7
		c0.5,1.8,0.9,3.5,0.8,5.4c0,0.9,0,1.7-0.1,2.6c-0.1,0.5-0.1,0.9-0.2,1.4c0,0.1-0.2,1.3-0.4,1.3c1-0.2,1.6-1.8,1.8-2.6
		c0.4-2.3,0.1-4.4-0.4-6.6c-0.4-1.7-0.9-3.3-1.7-4.9c-0.3-0.5-0.6-1-0.9-1.4C614.4,204.8,614.2,204.4,613.9,204.2z"/>
	<g>
		<g>
			<path class="st3" d="M601.7,194.3C601.9,194,601.5,194.1,601.7,194.3L601.7,194.3z"/>
			<path class="st7" d="M591.8,205.5c0-0.4-0.6-8.8,4.6-8.8c0.1,0,0.2,0,0.3,0c3.6,0.3,7,4.8,8.8,7.6c0.8,1.3,1.3,2.2,1.3,2.2
				c-0.2-0.7-1.1-4.1-5.7-8.9c-0.9-0.9-2.7-1.8-4-2.1c-3.8-0.9-6.3,2.1-6.2,6c0,1.3,0.5,3.5,0.8,4c0,0.1,0.1,0.1,0.1,0.2
				C591.8,205.6,591.8,205.6,591.8,205.5L591.8,205.5z"/>
			<path class="st7" d="M606.8,206.5c-0.1,0.1-1,1.2-2.3,2.3c-1.8,1.6-4.5,3.2-6.9,2.4c-0.6-0.2-1.2-0.5-1.7-0.8
				c-2.7-1.6-3.9-4.3-4.1-4.8v0.1c0,0.1,0,0.2,0,0.3c0,1.2,0.4,2.8,1,4c1,1.8,2.9,3.3,5.1,3.4c2.7,0.2,4.2-0.6,6.1-2.4
				c0.8-0.7,0.7-0.7,1.8-2.5C606,208.2,606.8,206.9,606.8,206.5C606.9,206.5,606.8,206.5,606.8,206.5z"/>
			<path class="st8" d="M604.5,208.8c1.3-1.1,2.2-2.1,2.3-2.3l0,0c0,0-0.5-0.9-1.3-2.2C605.5,206,605.1,207.5,604.5,208.8z"/>
			<path class="st8" d="M593.9,204c0-3.1,1.1-5.8,2.8-7.3c-0.1,0-0.2,0-0.3,0c-5.2,0-4.6,8.4-4.6,8.8c0,0,0,0,0,0.1
				c0.2,0.5,1.4,3.2,4.1,4.8C594.7,208.8,593.9,206.6,593.9,204z"/>
			<path d="M605.5,204.3c-1.8-2.8-5.2-7.3-8.8-7.6c-1.7,1.5-2.8,4.2-2.8,7.3c0,2.6,0.8,4.8,2,6.4c0.5,0.3,1.1,0.6,1.7,0.8
				c2.4,0.8,5-0.8,6.9-2.4C605.1,207.5,605.5,206,605.5,204.3z"/>
		</g>
		<path class="st9" d="M606.7,216.2c-0.2-0.5-0.7-0.3-1.2-0.3c-1,0-2-0.2-3-0.2c-2-0.1-4-0.1-6-0.1c-1.4,0-3.3,0.4-4.2,1.7
			c-1.3,1.8,1.6,3.2,3,3.6c2.9,0.9,5.9,0.3,8.9,0.2c1.3,0,3.2,0,3.8-1.4C608.8,218.2,608.1,216.2,606.7,216.2z"/>
		<circle id="rightEye0_2_" cx="594.8" cy="214.9" r="0.8"/>
		<circle id="rightEye1_2_" cx="600" cy="211.2" r="0.8"/>
		<circle id="rightEye5_2_" cx="600" cy="217.2" r="0.8"/>
		<circle id="rightEye2_2_" cx="606.3" cy="211.2" r="0.8"/>
		<circle id="rightEye3_2_" cx="611.5" cy="215.4" r="0.8"/>
		<circle id="rightEye4_2_" cx="606.3" cy="216.4" r="0.8"/>
	</g>
	<g>
		<path d="M635.1,197.2c1.7-3.8,4.6-6.8,8.6-8.3c3.8-1.5,10.9-2.9,13.6,1.2c-1,1-3.5,0.6-4.8,0.5c-2.9-0.1-5.7,0.2-8.4,1.3
			c-1.9,0.7-3.8,1.9-5.5,3.1C637.8,195.5,636.6,196.9,635.1,197.2z"/>
		<circle id="leftBrow1_2_" cx="656.3" cy="203.3" r="0.8"/>
		<circle id="leftBrow4_2_" cx="632.7" cy="205.4" r="0.8"/>
		<circle id="leftBrow3_2_" cx="642.7" cy="202.2" r="0.8"/>
		<circle id="leftBrow0_2_" cx="660.3" cy="206.2" r="0.8"/>
		<circle id="leftBrow2_2_" cx="650" cy="201.8" r="0.8"/>
	</g>
	<path class="st10" d="M606.2,253.1c0,0,2.9,14.1,18.3,14.3s18.9-14,18.9-14S622.2,255.5,606.2,253.1z"/>
	<g>
		<path d="M614,197.2c-1.7-3.8-4.6-6.8-8.6-8.3c-3.8-1.5-10.9-2.9-13.6,1.2c1,1,3.5,0.6,4.8,0.5c2.9-0.1,5.7,0.2,8.4,1.3
			c1.9,0.7,3.8,1.9,5.5,3.1C611.3,195.5,612.4,196.9,614,197.2z"/>
		<circle id="rightBrow1_2_" cx="592.6" cy="203" r="0.8"/>
		<circle id="rightBrow4_2_" cx="615.9" cy="206" r="0.8"/>
		<circle id="rightBrow3_2_" cx="606.1" cy="202" r="0.8"/>
		<circle id="rightBrow0_2_" cx="588.6" cy="206.7" r="0.8"/>
		<circle id="rightBrow2_2_" cx="598.8" cy="202" r="0.8"/>
	</g>
	<path class="st11" d="M611,259.6c-2.1-0.9-2.2-4.3-0.7-5.8c1-1,3-1,4,0c0.9,0.9,0.6,3.2,0.4,4.4C614.2,259.7,612.4,260.1,611,259.6
		z"/>
	<path class="st11" d="M638,259.6c2.1-0.9,2.2-4.3,0.7-5.8c-1-1-3-1-4,0c-0.9,0.9-0.6,3.2-0.4,4.4
		C634.9,259.7,636.7,260.1,638,259.6z"/>
	<path class="st12" d="M612.5,262.7c-2.1-0.9-2.2-4.3-0.7-5.8c1-1,3-1,4,0c0.9,0.9,0.6,3.2,0.4,4.4
		C615.7,262.8,613.9,263.2,612.5,262.7z"/>
	<path class="st11" d="M636.6,262.7c2.1-0.9,2.2-4.3,0.7-5.8c-1-1-3-1-4,0c-0.9,0.9-0.6,3.2-0.4,4.4
		C633.4,262.8,635.2,263.2,636.6,262.7z"/>
	<path class="st11" d="M615.7,264.6c-2.1-0.9-2.2-4.3-0.7-5.8c1-1,3-1,4,0c0.9,0.9,0.6,3.2,0.4,4.4
		C618.9,264.7,617,265.1,615.7,264.6z"/>
	<path class="st11" d="M633.4,264.6c2.1-0.9,2.2-4.3,0.7-5.8c-1-1-3-1-4,0c-0.9,0.9-0.6,3.2-0.4,4.4
		C630.2,264.7,632,265.1,633.4,264.6z"/>
	<path class="st11" d="M624.5,264.8c-0.4,0.6-0.8,1-1.5,1.3c-0.3,0.1-0.7,0.2-1,0.2c-0.4,0-0.7-0.1-1-0.2c-2.1-0.9-2.8-4.4-1.3-5.9
		c0.4-0.5,1.7-0.6,2.4-0.7c0.7,0,1.9,0.2,2.4,0.7c0.1,0.1,0.1,0.1,0.1,0.2c0-0.1,0.1-0.1,0.1-0.2c0.4-0.5,1.7-0.6,2.4-0.7
		c0.7,0,1.9,0.2,2.4,0.7c1.5,1.5,0.8,5.1-1.3,5.9c-0.3,0.1-0.7,0.2-1,0.2c-0.4,0-0.7-0.1-1-0.2C625.4,265.9,624.9,265.4,624.5,264.8
		z"/>
	<path class="st13" d="M624.5,267.8c-15.9,0-18.1-13.4-18.3-14.3c0,0,1.2,0.2,1.7,0.2c0.3,0,1.6,0.2,1.8,0.2c0,0,2.1,10.7,14.9,10.7
		s14.9-10.7,14.9-10.7c0.3,0,1.6-0.2,1.8-0.2c0.5,0,1.7-0.2,1.7-0.2C642.8,254.4,640.3,267.8,624.5,267.8z"/>
	<path class="st14" d="M603.1,238.1c0,0.7-0.2,1.3-0.4,2c-0.3,1.1-0.5,2.1-0.9,3.2c-0.8,2.2-1.5,4.1-0.9,6.4c0.5,2,2.6,2.9,4.5,3.5
		c3.6,1.2,34.6,1.2,38.2,0c1.8-0.6,3.9-1.5,4.5-3.5c0.6-2.3-0.1-4.2-0.9-6.4c-0.4-1.1-0.6-2.1-0.9-3.2c-0.2-0.6-0.5-1.3-0.4-2"/>
	<path class="st5" d="M623.6,241.8c-1.1,1.5-1.8,4.6-1,6.4c0.2,0.4,1.7,2,1.9,0.8c0.1-0.4-0.5-0.6-0.7-0.8c-0.4-0.6-0.5-1.6-0.6-2.4
		C623.1,244.4,623.2,242.4,623.6,241.8z"/>
	<circle class="st5" cx="609" cy="240.5" r="0.6"/>
	<circle class="st5" cx="640.1" cy="240.5" r="0.6"/>
	<circle class="st5" cx="606" cy="244.9" r="0.6"/>
	<circle class="st5" cx="643.1" cy="244.9" r="0.6"/>
	<circle class="st5" cx="609.6" cy="247.9" r="0.6"/>
	<circle class="st5" cx="639.5" cy="247.9" r="0.6"/>
	<circle class="st5" cx="611.6" cy="244" r="0.3"/>
	<circle class="st5" cx="637.4" cy="244" r="0.3"/>
	<circle class="st5" cx="615.4" cy="247.2" r="0.7"/>
	<circle class="st5" cx="633.7" cy="247.2" r="0.7"/>
</g>
<g id="skeleton_1_">
	<polygon class="st15" points="518.8,349.5 569.1,565.3 685.5,564.5 731.7,349.5 	"/>
	<polyline class="st15" points="517.8,349.5 445.4,431.1 352,547.5 	"/>
	<polyline class="st15" points="733.2,349.1 806.2,430.7 899.6,547 	"/>
	<polyline class="st15" points="569.1,565.3 575.5,725.5 575.5,933.5 	"/>
	<polyline class="st15" points="685.5,564.5 685.5,725.5 685.5,933.5 	"/>
	<polyline class="st15" points="624.5,170 604.7,172.5 592.2,182 583.6,196.1 581.1,205.4 580.3,217.1 580.3,226.6 581.1,248.3 
		587.9,268.3 599.5,280.8 609.5,287.5 624.5,290.7 639.3,287.9 649.3,281.2 660.9,268.6 667.7,248.6 668.5,227 668.5,217.4 
		667.7,205.7 665.2,196.5 657,182 644.4,172.5 624.5,170 	"/>
	<polyline class="st15" points="588.5,206.9 592.5,203.2 598.7,202.2 606,202.2 615.8,206.2 	"/>
	<polygon class="st15" points="594.7,215.1 599.9,211.4 606.2,211.4 611.4,215.6 606.2,216.6 599.9,217.4 	"/>
	<polyline class="st15" points="613,233.2 618.2,233.2 623.7,234 623.7,228.7 623.7,221.6 623.7,216.1 623.7,210.3 	"/>
	<polyline class="st15" points="660,206.5 656,203.6 649.7,202.1 642.4,202.5 632.4,205.7 	"/>
	<polygon class="st15" points="654.1,215.1 648.8,211.4 642.5,211.4 637.4,215.6 642.5,216.6 648.8,217.4 	"/>
	<polyline class="st15" points="634.1,233.2 629.1,233.2 623.7,234 	"/>
	<polygon class="st15" points="607,255.3 613.9,251.9 620.4,250.8 624.5,251.7 628.7,250.8 635.1,251.9 642,255.3 635.6,261.6 
		628.5,264.4 624.5,264.9 620.4,264.4 613.4,261.6 	"/>
	<polyline class="st15" points="607,255.3 610.6,255.6 620.6,254.8 624.5,255.3 628.5,254.8 638.4,255.6 642,255.3 	"/>
	<polyline class="st15" points="607,255.3 610.6,255.6 620.6,257.7 624.5,258.5 628.5,257.7 638.4,255.6 642,255.3 	"/>
	<circle id="rightShoulder" cx="518.9" cy="349.2" r="8.2"/>
	<circle id="rightElbow" cx="445.4" cy="439.3" r="8.2"/>
	<circle id="rightWrist" cx="352" cy="555.7" r="8.2"/>
	<circle id="rightHip" cx="569.2" cy="565" r="8.2"/>
	<circle id="rightKnee" cx="575.6" cy="725.2" r="8.2"/>
	<circle id="rightAnkle" cx="575.6" cy="933.2" r="8.2"/>
	<circle id="leftElbow" cx="806.2" cy="438.9" r="8.2"/>
	<circle id="leftWrist" cx="899.6" cy="555.2" r="8.2"/>
	<circle id="leftHip" cx="685.6" cy="564.2" r="8.2"/>
	<circle id="leftKnee" cx="685.6" cy="725.2" r="8.2"/>
	<circle id="leftAnkle" cx="685.6" cy="933.2" r="8.2"/>
	<circle id="rightEye0" cx="594.7" cy="215.1" r="0.8"/>
	<circle id="rightBrow1" cx="592.5" cy="203.2" r="0.8"/>
	<circle id="rightBrow4" cx="615.8" cy="206.2" r="0.8"/>
	<circle id="nose1" cx="623.7" cy="216.1" r="0.8"/>
	<circle id="rightBrow3" cx="606" cy="202.2" r="0.8"/>
	<circle id="rightEye1" cx="599.9" cy="211.4" r="0.8"/>
	<circle id="rightBrow0" cx="588.5" cy="206.9" r="0.8"/>
	<circle id="rightBrow2" cx="598.7" cy="202.2" r="0.8"/>
	<circle id="rightEye5" cx="599.9" cy="217.4" r="0.8"/>
	<circle id="rightEye2" cx="606.2" cy="211.4" r="0.8"/>
	<circle id="rightEye3" cx="611.4" cy="215.6" r="0.8"/>
	<circle id="nose0" cx="623.7" cy="210.3" r="0.8"/>
	<circle id="nose3" cx="623.7" cy="228.7" r="0.8"/>
	<circle id="rightNose0" cx="613" cy="233.2" r="0.8"/>
	<circle id="rightMouthCorner" cx="607" cy="255.3" r="0.8"/>
	<circle id="rightNose1" cx="618.2" cy="233.2" r="0.8"/>
	<circle id="rightUpperLipTop0" cx="613.9" cy="251.9" r="0.8"/>
	<circle id="nose2" cx="623.7" cy="221.6" r="0.8"/>
	<circle id="nose4" cx="623.7" cy="234" r="0.8"/>
	<circle id="upperLipTopMid" cx="624.5" cy="251.7" r="0.8"/>
	<circle id="rightUpperLipTop1" cx="620.4" cy="250.8" r="0.8"/>
	<path id="rightMiddleLip" d="M610.6,254.8c0.4,0,0.8,0.4,0.8,0.8c0,0.4-0.4,0.8-0.8,0.8s-0.8-0.4-0.8-0.8S610.2,254.8,610.6,254.8z
		"/>
	<circle id="lowerLipBottomMid" cx="624.5" cy="264.9" r="0.8"/>
	<circle id="upperLipBottomMid" cx="624.5" cy="255.3" r="0.8"/>
	<circle id="lowerLipTopMid" cx="624.5" cy="258.4" r="0.8"/>
	<circle id="rightUpperLipBottom1" cx="620.6" cy="254.8" r="0.8"/>
	<circle id="rightLowerLipTop0" cx="620.6" cy="257.7" r="0.8"/>
	<circle id="rightLowerLipBottom1" cx="620.4" cy="264.4" r="0.8"/>
	<circle id="rightLowerLipBottom0" cx="613.4" cy="261.6" r="0.8"/>
	<circle id="rightEye4" cx="606.2" cy="216.6" r="0.8"/>
	<circle id="jawMid" cx="624.5" cy="290.7" r="0.8"/>
	<circle id="rightJaw7" cx="609.5" cy="287.5" r="0.8"/>
	<circle id="rightJaw6" cx="599.5" cy="280.8" r="0.8"/>
	<circle id="rightJaw5" cx="587.9" cy="268.3" r="0.8"/>
	<circle id="rightJaw4" cx="581.1" cy="248.3" r="0.8"/>
	<circle id="rightJaw3" cx="580.3" cy="226.6" r="0.8"/>
	<circle id="rightJaw2" cx="580.3" cy="217.1" r="0.8"/>
	<circle id="rightJaw1" cx="581.1" cy="205.4" r="0.8"/>
	<circle id="rightJaw0" cx="583.6" cy="196.1" r="0.8"/>
	<circle id="topMid" cx="624.7" cy="170" r="0.8"/>
	<circle id="leftTop0" cx="644.4" cy="172.5" r="0.8"/>
	<circle id="leftTop1" cx="657" cy="182" r="0.8"/>
	<circle id="leftEye0" cx="654.3" cy="215.1" r="0.8"/>
	<circle id="leftBrow1" cx="656.2" cy="203.6" r="0.8"/>
	<circle id="leftBrow4" cx="632.6" cy="205.7" r="0.8"/>
	<circle id="leftBrow3" cx="642.6" cy="202.5" r="0.8"/>
	<circle id="leftEye1" cx="649.1" cy="211.4" r="0.8"/>
	<circle id="leftBrow0" cx="660.2" cy="206.5" r="0.8"/>
	<circle id="leftBrow2" cx="649.9" cy="202.1" r="0.8"/>
	<circle id="leftEye5" cx="649.1" cy="217.4" r="0.8"/>
	<circle id="leftEye2" cx="642.8" cy="211.4" r="0.8"/>
	<circle id="leftEye3" cx="637.6" cy="215.6" r="0.8"/>
	<circle id="leftNose0" cx="634.1" cy="233.2" r="0.8"/>
	<circle id="leftMouthCorner" cx="642" cy="255.3" r="0.8"/>
	<circle id="leftNose1" cx="629.3" cy="233.2" r="0.8"/>
	<circle id="leftUpperLipTop0" cx="635.1" cy="251.9" r="0.8"/>
	<circle id="leftUpperLipTop1" cx="628.7" cy="250.8" r="0.8"/>
	<path id="leftMiddleLip" d="M638.4,254.8c0.4,0,0.8,0.4,0.8,0.8c0,0.4-0.4,0.8-0.8,0.8s-0.8-0.4-0.8-0.8S638,254.8,638.4,254.8z"/>
	<circle id="leftUpperLipBottom1" cx="628.5" cy="254.8" r="0.8"/>
	<circle id="leftLowerLipTop0" cx="628.5" cy="257.7" r="0.8"/>
	<circle id="leftLowerLipBottom1" cx="628.7" cy="264.4" r="0.8"/>
	<circle id="leftLowerLipBottom0" cx="635.6" cy="261.6" r="0.8"/>
	<circle id="leftEye4" cx="642.8" cy="216.6" r="0.8"/>
	<circle id="leftJaw7" cx="639.3" cy="287.9" r="0.8"/>
	<circle id="leftJaw6" cx="649.3" cy="281.2" r="0.8"/>
	<circle id="leftJaw5" cx="660.9" cy="268.6" r="0.8"/>
	<circle id="leftJaw4" cx="667.7" cy="248.6" r="0.8"/>
	<circle id="leftJaw3" cx="668.5" cy="227" r="0.8"/>
	<circle id="leftJaw2" cx="668.5" cy="217.4" r="0.8"/>
	<circle id="leftJaw1" cx="667.7" cy="205.7" r="0.8"/>
	<circle id="leftJaw0" cx="665.2" cy="196.5" r="0.8"/>
	<circle id="rightTop0" cx="604.8" cy="172.5" r="0.8"/>
	<circle id="rightTop1" cx="592.2" cy="182" r="0.8"/>
	<circle id="leftShoulder" cx="731.8" cy="349.2" r="8.2"/>
</g>
</svg>
