<?xml version="1.0" encoding="utf-8"?>
<!-- Generator: Adobe Illustrator 25.0.0, SVG Export Plug-In . SVG Version: 6.00 Build 0)  -->
<svg version="1.1" id="Layer_1" xmlns="http://www.w3.org/2000/svg" xmlns:xlink="http://www.w3.org/1999/xlink" x="0px" y="0px"
	 viewBox="0 0 1200 1200" style="enable-background:new 0 0 1200 1200;" xml:space="preserve">
<style type="text/css">
	.st0{fill:#CC9966;stroke:#895B3D;stroke-miterlimit:10;}
	.st1{fill:#CC9966;}
	.st2{fill:#F2F2F2;}
	.st3{fill:#BF8958;}
	.st4{fill:#C43E1A;}
	.st5{fill:#E7744D;}
	.st6{fill:#721B09;}
	.st7{fill:#C6421E;}
	.st8{fill:#FFFFFF;}
	.st9{fill:#A56F3D;}
	.st10{fill:#B77B46;}
	.st11{fill:#DDAB72;}
	.st12{fill:none;stroke:#000000;stroke-miterlimit:10;}
</style>
<g id="illustration">
	<path class="st0" d="M720.6,549.2L520.2,550c0,64.2-1.3,143.2-1.3,219.9v141.2l0,0c-0.8,13.5,7.7,63.1,50.2,59.5
		c41.2-3.5,42.7-48.3,42.4-60.1V771.2V595.4c0-5.3,4.3-9.6,9.6-9.6h6.8c5.3,0,9.6,4.3,9.6,9.6v175.8v139.9c0,0.1,0,0.2,0,0.3
		c-0.6,13.8,8,62.8,50.2,59.2c40.3-3.4,42.6-46.5,42.5-59.3c0-0.1,0-0.1,0-0.2V771.2V558.8C730.2,553.5,725.9,549.2,720.6,549.2z"/>
	<path class="st0" d="M520.3,559.1c-1.4-74.9-13.5-131.9,8.4-171.3c13.4-24.2,29.7-41.7,47.4-52.8c15.5-9.7,32.3-12.4,48.9-12.2
		c16.5,0.2,33.2,3.3,48.6,13.2c17.4,11.1,33.7,28.4,46.9,52c22.5,39.7,9.6,171.3,9.6,171.3"/>
	<path class="st0" d="M904.6,463.8"/>
	<path class="st0" d="M728.6,407.1c0,0,40.9,36.8,54.2,51.3s75.5,93.7,82.9,100.9c9.5,9.3,33.3,10.7,44.2,1.2
		c2-1.7,12.5-10.4,5.8-26.4s-57.7-84.9-82.5-115.2l0,0l0,0c-1-1.3-2-2.5-3-3.6l0,0c-2.2-2.7-4.4-5.4-6.6-8c-1.3-1.6-2-2.4-2-2.4l0,0
		c-70.3-80.3-157.2-80.6-170.1-79.5"/>
	<path class="st0" d="M874.5,547.9c0,0-2.1,8-4,16.9c-1.8,8.8-21.3,7.2-19.4-5.8c1.8-13.2,6.8-20.6,6.8-20.6"/>
	<path class="st0" d="M597.5,325c-15-1.3-97.4-4.7-169.9,78.1l0,0c0,0-0.7,0.8-2,2.4c-2.2,2.6-4.4,5.3-6.6,8l0,0c-1,1.1-2,2.3-3,3.6
		l0,0l0,0c-24.8,30.3-75.8,99.2-82.5,115.2s3.8,24.7,5.8,26.4c10.9,9.5,34.7,8.1,44.2-1.2c7.4-7.2,69.6-86.4,82.9-100.9
		s57.3-54.4,57.3-54.4"/>
	<path class="st0" d="M390.3,538.5c0,0,5,7.4,6.8,20.6c1.9,13-17.5,14.6-19.4,5.8c-1.8-8.9-4-16.9-4-16.9"/>
	<path class="st0" d="M592.7,328.4l8.3-33.2h49.5c0,0,4,17.7,7.5,33.7"/>
	<path class="st1" d="M617.8,146.9c-0.1-0.2-0.2-0.4-0.3-0.6c-0.4-1-0.7-2-0.6-3.1L617.8,146.9z"/>
	<path class="st1" d="M629.8,146.9c0.1-0.2,0.2-0.4,0.3-0.6c0.4-1,0.7-2,0.6-3.1L629.8,146.9z"/>
	<path class="st0" d="M617.8,166c-2.2,5-4.7,10-8.6,13.8c-3,3-6.8,5.1-10.7,6.8c-6.6,3-13.7,5-20.9,4.3c-7.1-0.7-14.3-4.5-17.6-10.9
		c-0.8,2-1.7,4-2.8,5.9c-0.4,0.7-0.9,1.5-1.7,1.8c-1.5,0.5-3-1.2-3.1-2.8c-0.2-1.6,0.4-3.2,0.2-4.8c-0.5,2.1-1.3,4.2-2.3,6.1
		c-0.4,0.8-1.1,1.7-2,1.8c-0.6,0-1.2-0.3-1.7-0.8c-2.2-1.9-3-5.1-2.2-7.9c-1.6,2-3.2,4.1-4.8,6.1c-0.4,0.5-0.8,1-1.5,1.2
		c-1,0.2-1.9-0.5-2.5-1.2c-2.9-3.3-3.9-8.1-2.6-12.3c-1.3,2.7-3.1,5.1-5.3,7.1c-0.3,0.3-0.6,0.5-1,0.6c-0.8,0.1-1.4-0.7-1.8-1.4
		c-1.3-2.7-1.5-5.9-0.6-8.8c-0.8,1.8-1.8,3.5-3,5c-0.6,0.8-1.7,1.7-2.6,1.2c-0.7-0.3-0.9-1.2-1-1.9v-0.1
		c-1.8-12.9,1.3-26.5,8.6-37.2c5.1-7.5,12.1-13.6,19.8-18.6c10.2-6.6,22.4-11.2,34.3-8.9c8.9,1.8,16.6,7.4,22.6,14.2
		c5.8,6.6,10.2,14.4,14.5,22.1c0.7,1.8,1.9,3.4,2.6,5.2c0,0,0,0,0,0.1C621.8,156.3,619.8,161.4,617.8,166z"/>
	<path class="st0" d="M629.7,166c2.2,5,4.7,10,8.6,13.8c3,3,6.8,5.1,10.7,6.8c6.6,3,13.7,5,20.9,4.3c7.1-0.7,14.3-4.5,17.6-10.9
		c0.8,2,1.7,4,2.8,5.9c0.4,0.7,0.9,1.5,1.7,1.8c1.5,0.5,3-1.2,3.1-2.8c0.2-1.6-0.4-3.2-0.2-4.8c0.5,2.1,1.3,4.2,2.3,6.1
		c0.4,0.8,1.1,1.7,2,1.8c0.6,0,1.2-0.3,1.7-0.8c2.2-1.9,3-5.1,2.2-7.9c1.6,2,3.2,4.1,4.8,6.1c0.4,0.5,0.8,1,1.5,1.2
		c1,0.2,1.9-0.5,2.5-1.2c2.9-3.3,3.9-8.1,2.6-12.3c1.3,2.7,3.1,5.1,5.3,7.1c0.3,0.3,0.6,0.5,1,0.6c0.8,0.1,1.4-0.7,1.8-1.4
		c1.3-2.7,1.5-5.9,0.6-8.8c0.8,1.8,1.8,3.5,3,5c0.6,0.8,1.7,1.7,2.6,1.2c0.7-0.3,0.9-1.2,1-1.9v-0.1c1.8-12.9-1.3-26.5-8.6-37.2
		C716,130.1,709,124,701.3,119c-10.2-6.6-22.4-11.2-34.3-8.9c-8.9,1.8-16.6,7.4-22.6,14.2c-5.8,6.6-10.2,14.4-14.5,22.1
		c-0.7,1.8-1.9,3.4-2.6,5.2c0,0,0,0,0,0.1C625.7,156.3,627.7,161.4,629.7,166z"/>
	<path class="st2" d="M595.7,152.5c-3.6-8.9-8.1-18.2-16.5-23c-4.7-2.7-10.4-3.7-15.8-3.2c-5.4,0.4-10.7,2.2-15.6,4.7
		c-9,4.6-17,11.8-20.6,21.2c-1.4,3.6-2.1,7.9-0.1,11.2c0.5,0.9,1.3,1.7,2.3,2c1.5,0.6,3.4-0.1,4.8,0.7c2.2,1.2,1.9,5,4.2,6.1
		c2.1,0.9,4.7-1.2,6.7-0.1c1,0.6,1.4,1.7,2.4,2.3c1.1,0.6,2.5,0.2,3.7-0.3c1.1-0.6,2.2-1.4,3.5-1.5c2.2-0.3,4.1,1.3,6.1,2.3
		c1.9,0.9,4,1.3,6,1.6c6.1,0.9,12.4,1.2,18.2-0.9c5.8-2.1,10.9-6.8,11.9-12.9c0.7-4.4-0.7-8.8-2-13"/>
	<path class="st2" d="M651.8,152.5c3.6-8.9,8.1-18.2,16.5-23c4.7-2.7,10.4-3.7,15.8-3.2c5.4,0.4,10.7,2.2,15.6,4.7
		c9,4.6,17,11.8,20.6,21.2c1.4,3.6,2.1,7.9,0.1,11.2c-0.5,0.9-1.3,1.7-2.3,2c-1.5,0.6-3.4-0.1-4.8,0.7c-2.2,1.2-1.9,5-4.2,6.1
		c-2.1,0.9-4.7-1.2-6.7-0.1c-1,0.6-1.4,1.7-2.4,2.3c-1.1,0.6-2.5,0.2-3.7-0.3c-1.1-0.6-2.2-1.4-3.5-1.5c-2.2-0.3-4.1,1.3-6.1,2.3
		c-1.9,0.9-4,1.3-6,1.6c-6.1,0.9-12.4,1.2-18.2-0.9c-5.8-2.1-10.9-6.8-11.9-12.9c-0.7-4.4,0.7-8.8,2-13"/>
	<path class="st1" d="M617.8,146.9c-0.1-0.2-0.2-0.4-0.3-0.6c-0.4-1-0.7-2-0.6-3.1L617.8,146.9z"/>
	<path class="st1" d="M629.8,146.9c0.1-0.2,0.2-0.4,0.3-0.6c0.4-1,0.7-2,0.6-3.1L629.8,146.9z"/>
	<path class="st3" d="M620.1,151.6c-0.5,1.8-1.7,3.5-3.5,3.8c-1.7,0.2-3.3-1-4.6-2.2c-6.5-6.2-11.5-13.7-17.4-20.4
		s-13.2-12.8-22-14.5s-18,1.4-25.8,5.9c-14.9,8.7-26.7,23.9-28.3,41.1c-0.3,3.1-0.3,6.3-0.8,9.3c-1.8-12.9,1.3-26.5,8.6-37.2
		c5.1-7.5,12.1-13.6,19.8-18.6c10.2-6.6,22.4-11.2,34.3-8.9c8.9,1.8,16.6,7.4,22.6,14.2c5.8,6.6,10.2,14.4,14.5,22.1
		C618.2,148.1,619.3,149.8,620.1,151.6L620.1,151.6z"/>
	<path class="st3" d="M627.3,151.6c0.5,1.8,1.7,3.5,3.5,3.8c1.7,0.2,3.3-1,4.6-2.2c6.5-6.2,11.5-13.7,17.4-20.4s13.2-12.8,22-14.5
		s18,1.4,25.8,5.9c14.9,8.7,26.7,23.9,28.3,41.1c0.3,3.1,0.3,6.3,0.8,9.3c1.8-12.9-1.3-26.5-8.6-37.2c-5.1-7.5-12.1-13.6-19.8-18.6
		c-10.2-6.6-22.4-11.2-34.3-8.9c-8.9,1.8-16.6,7.4-22.6,14.2c-5.8,6.6-10.2,14.4-14.5,22.1C629.2,148.1,628.1,149.8,627.3,151.6
		C627.5,151.6,627.3,151.6,627.3,151.6z"/>
	<path class="st0" d="M696.2,227.3c-0.6-11.1-4.3-37.2-8.8-47.4c-5.4-12.2-15.5-22-27.3-28.4c-7.8-4.3-16.3-7.1-25-8.9
		c-0.4-0.4-2.1-7.9-5.8-11.3c0,2.7,0.7,4.8-1.3,5.8c-0.1-3-3.5-4.6-6.5-6.6c0.8,1.9,1.8,4.5,1.1,5.3c-1.6-1-5.2-3-6.8-4.1
		c0.7,2.7,0.9,4,2.1,6.4c-3.5-1.5-3.2-1.1-6.7-2.6c0.7,1.6,0.8,4,3.4,5.4c0.2,0.1-4.2-0.9-7.4-0.8c-0.3,0,1.1,2.4,2.3,3.1
		c0,0-0.2,0.1-0.6,0.3c-7.5,1.8-14.8,4.4-21.5,8.1c-11.7,6.4-21.8,16.2-27.3,28.4c-4.5,10.2-8.2,36.2-8.8,47.4
		c-0.9,16,15.8,76.3,73.2,76.3S697.1,243.3,696.2,227.3z"/>
	<path class="st4" d="M623.8,264.7c-1.7,0.1-3.4,0.2-5.1,0.1c-1.6-0.1-3.3-0.3-4.9-0.7c-0.8-0.2-1.6-0.5-2.3-0.8
		c-0.2-0.1-3.9-2.3-5.7-3.1c-2.8-1.3,3.7,3.8,4.9,4.3s4.6,1.6,5.8,1.8c2.8,0.5,4.7,0.5,7.4,0.5s4.5,0,7.4-0.5
		c1.2-0.2,4.7-1.3,5.8-1.8s7.6-5.6,4.9-4.3c-1.8,0.8-5.6,3-5.7,3.1c-0.7,0.3-1.5,0.6-2.3,0.8c-1.6,0.4-3.2,0.6-4.9,0.7
		C627.2,264.9,625.5,264.8,623.8,264.7z"/>
	<path class="st5" d="M623.8,257.2c-1-0.1-1.9-0.3-2.8-0.6c-0.8-0.3-1.5-0.8-2.4-1.1c-1.5-0.5-3.2-0.3-4.7-0.1
		c-2.1,0.3-4.2,0.7-6.3,1.1c-1.6,0.3-3.2,0.6-4.8,0.9c-1.8,0.4-0.5,1,0.5,1.6c2.5,1.4,4.6,3.2,7.2,4.4c1.7,0.8,3.6,1.3,5.5,1.6
		c2.6,0.4,5.2,0.7,7.8,0.7s5.2-0.2,7.8-0.7c1.9-0.3,3.8-0.8,5.5-1.6c2.6-1.2,4.7-3.1,7.2-4.4c1-0.5,2.3-1.2,0.5-1.6
		c-1.6-0.3-3.2-0.6-4.8-0.9c-2.1-0.4-4.2-0.8-6.3-1.1c-1.6-0.2-3.2-0.4-4.7,0.1c-0.8,0.3-1.6,0.7-2.4,1.1
		C625.7,256.9,624.7,257.1,623.8,257.2z"/>
	<path class="st5" d="M623.8,258.1c-1,0.1-1.9,0.3-2.8,0.6c-0.8,0.3-1.5,0.8-2.4,1.1c-1.5,0.5-3.2,0.3-4.7,0.1
		c-2.1-0.3-4.2-0.7-6.3-1.1c-1.6-0.3-3.2-0.6-4.8-0.9c-1.8-0.4-0.5-1,0.5-1.6c2.5-1.4,4.6-3.2,7.2-4.4c1.7-0.8,3.6-1.3,5.5-1.6
		c2.6-0.4,5.2-0.7,7.8-0.7s5.2,0.2,7.8,0.7c1.9,0.3,3.8,0.8,5.5,1.6c2.6,1.2,4.7,3.1,7.2,4.4c1,0.5,2.3,1.2,0.5,1.6
		c-1.6,0.3-3.2,0.6-4.8,0.9c-2.1,0.4-4.2,0.8-6.3,1.1c-1.6,0.2-3.2,0.4-4.7-0.1c-0.8-0.3-1.6-0.7-2.4-1.1
		C625.7,258.4,624.7,258.2,623.8,258.1z"/>
	<path class="st6" d="M623.8,256.2c-0.7,0-1.5-0.3-2.1-0.6c-0.5-0.2-1.4-0.6-1.9-0.8c-0.7-0.3-2.1-0.4-3-0.3
		c-3.4,0.2-5.4,0.2-8.8,0.8c-2.1,0.4-2.6,0.5-4.6,1.1c-1.2,0.3-4.4,1.6-4.7,1.9c0.1-0.1,16.3-2.3,18.3-1.9c2.8,0.7,4.6,1.5,6.9,1.5
		c2.3,0.1,4.1-0.8,6.9-1.5c2-0.5,18.1,1.7,18.3,1.9c-0.3-0.2-3.5-1.6-4.7-1.9c-2-0.5-2.6-0.7-4.6-1.1c-3.4-0.6-5.3-0.6-8.8-0.8
		c-1-0.1-2.4,0-3,0.3c-0.5,0.2-1.4,0.6-1.9,0.8C625.2,255.9,624.5,256.2,623.8,256.2z"/>
	<path class="st7" d="M628.1,253c0.1,0.2,0.2,0.5,0.1,0.7l-0.1,0.1c-0.1,0-0.1,0-0.2,0c-0.1,0,0-0.1,0-0.1c0-0.2,0-0.4-0.1-0.6
		c-0.1-0.2-0.2-0.3-0.3-0.5c-0.2-0.4-0.5-0.7-0.9-1l0,0l0.1-0.1c0,0,0.1,0,0.2,0.1c0.4,0.2,0.6,0.4,0.8,0.7
		C627.8,252.5,627.8,252.7,628.1,253z"/>
	<path class="st7" d="M614.3,260.9c-0.1,0.3-0.3,0.5-0.3,0.9c0,0.1,0,0.2,0.1,0.2s0.1-0.1,0.2-0.2c0.3-0.7,0.7-1.3,1.2-1.9
		c0.1-0.1,0.2-0.2,0.3-0.4c0.1-0.1,0.3-0.3,0.4-0.4s0.7-0.8,0.7-0.8c-0.4-0.2-1.1,0.7-1.4,0.9C615.1,259.8,614.7,260.3,614.3,260.9z
		"/>
	<path class="st7" d="M633.1,260.9c0.1,0.3,0.3,0.5,0.3,0.9c0,0.1,0,0.2-0.1,0.2s-0.1-0.1-0.2-0.2c-0.3-0.7-0.7-1.3-1.2-1.9
		c-0.1-0.1-0.2-0.2-0.3-0.4c-0.1-0.1-0.3-0.3-0.4-0.4s-0.7-0.8-0.7-0.8c0.4-0.2,1.1,0.7,1.4,0.9
		C632.3,259.8,632.8,260.3,633.1,260.9z"/>
	<path class="st7" d="M610.1,258.1c-0.8,0.4-1.5,1-2,1.7c-0.1,0.1-0.1,0.3,0,0.3c0.1,0.1,0.2-0.1,0.3-0.2s0.2-0.3,0.3-0.4
		c0.3-0.4,0.7-0.7,1.1-1c0.2-0.1,0.4-0.3,0.6-0.4s0.5-0.2,0.7-0.4c0,0,0,0,0-0.1C610.7,257.7,610.3,257.9,610.1,258.1z"/>
	<path class="st7" d="M613.2,252.2c-0.8,0.3-1.5,0.8-2,1.4c-0.1,0.1-0.1,0.2,0,0.3s0.2-0.1,0.3-0.1c0.1-0.1,0.2-0.2,0.3-0.3
		c0.3-0.3,0.7-0.6,1.1-0.8c0.2-0.1,0.4-0.2,0.6-0.3s0.5-0.2,0.7-0.3l0,0C613.8,251.9,613.5,252,613.2,252.2z"/>
	<path class="st7" d="M637.3,258.1c0.8,0.4,1.5,1,2,1.7c0.1,0.1,0.1,0.3,0,0.3c-0.1,0.1-0.2-0.1-0.3-0.2s-0.2-0.3-0.3-0.4
		c-0.3-0.4-0.7-0.7-1.1-1c-0.2-0.1-0.4-0.3-0.6-0.4s-0.5-0.2-0.7-0.4c0,0,0,0,0-0.1C636.8,257.7,637.1,257.9,637.3,258.1z"/>
	<path class="st7" d="M633.8,252.2c0.8,0.3,1.5,0.8,2,1.4c0.1,0.1,0.1,0.2,0,0.3s-0.2-0.1-0.3-0.1c-0.1-0.1-0.2-0.2-0.3-0.3
		c-0.3-0.3-0.7-0.6-1.1-0.8c-0.2-0.1-0.4-0.2-0.6-0.3s-0.5-0.2-0.7-0.3l0,0C633.2,251.9,633.5,252,633.8,252.2z"/>
	<path class="st7" d="M604.8,258.1c-0.1,0.1-0.3,0.2-0.4,0.3c0,0.1,0,0.1,0,0.1h0.1c0.3-0.2,0.6-0.3,0.8-0.5
		c0.3-0.2,0.6-0.2,0.9-0.4c-0.1-0.1-0.5,0-0.7,0.1C605.2,257.8,605.1,257.9,604.8,258.1z"/>
	<path class="st7" d="M623.7,258.5c-0.3,1.9-0.2,3.4-0.1,5.1c0,0.1,0.1,0.2,0.1,0.2l0,0l0,0c0.1,0,0.1-0.1,0.1-0.2
		C624,261.9,624.1,260.4,623.7,258.5"/>
	<path class="st7" d="M624,251.5c-0.3,0.8-0.2,1.4-0.1,2.2l0.1,0.1l0,0l0,0c0.1,0,0.1,0,0.1-0.1C624.2,252.9,624.2,252.3,624,251.5"
		/>
	<g>
		<g>
			<path class="st8" d="M601.2,202c-1.3-1.1-2.9-1.8-4.5-2.4c-1.2-0.4-2.5-0.8-3.9-0.7c-1.2,0.1-2.4,0.5-3.5,1c-2.1,1-4,2.4-5.3,4.4
				c1.2,1.5,2.5,2.9,4.2,3.7c1.2,0.5,2.5,0.7,3.8,0.7c2.7,0.1,5.5-0.2,8-1.2c1.4-0.6,2.9-1.5,3.5-2.9
				C603,203.6,602.2,202.7,601.2,202z"/>
		</g>
		<path d="M602.5,206.1c-0.6,0.9-2.4,2.1-3.4,2.3c-3.2,0.7-8.5,1.1-11.8-1c1,0.1,2.8,0.5,3.5,0.6c1.2,0.1,2.4,0.2,3.6,0.1
			C596.8,207.9,599.8,207.4,602.5,206.1z"/>
		<path class="st9" d="M585.8,214c2.6,3.6,7.7,4.9,11.9,3.7c1.5-0.4,2.9-1.1,3.9-2.3c0.7-0.8,2-3,0.2-3.3c-1.4-0.3-3.5,1.1-4.8,1.5
			c-1.9,0.5-3.8,0.8-5.7,0.9C590.5,214.5,586.3,214.8,585.8,214z"/>
		<path d="M593,197.6c-4.1,0.4-7.9,3.4-9.2,7.3c2.7-2.5,5.7-5.1,9.4-5.3c2.1-0.1,4.1,0.5,5.9,1.5c1.4,0.8,4.2,3.1,4.5,3.4
			c0,0-1-3-2.1-4C599.2,198.5,596.1,197.3,593,197.6z"/>
		<circle cx="594.1" cy="204.2" r="1"/>
		<circle class="st5" cx="582.7" cy="231.6" r="8.7"/>
		<circle id="rightEye0_1_" cx="594.8" cy="214.8" r="0.8"/>
		<circle id="rightEye1_1_" cx="600" cy="211.1" r="0.8"/>
		<circle id="rightEye5_1_" cx="600" cy="217.1" r="0.8"/>
		<circle id="rightEye2_1_" cx="606.2" cy="211.1" r="0.8"/>
		<circle id="rightEye3_1_" cx="611.5" cy="215.3" r="0.8"/>
		<circle id="rightEye4_1_" cx="606.2" cy="216.3" r="0.8"/>
		<g>
			<path class="st8" d="M646.2,202c1.3-1.1,2.9-1.8,4.5-2.4c1.2-0.4,2.5-0.8,3.9-0.7c1.2,0.1,2.4,0.5,3.5,1c2.1,1,4,2.4,5.3,4.4
				c-1.2,1.5-2.5,2.9-4.2,3.7c-1.2,0.5-2.5,0.7-3.8,0.7c-2.7,0.1-5.5-0.2-8-1.2c-1.4-0.6-2.9-1.5-3.5-2.9
				C644.5,203.6,645.2,202.7,646.2,202z"/>
		</g>
		<path d="M645.1,206.1c0.6,0.9,2.4,2.1,3.4,2.3c3.2,0.7,8.5,1.1,11.8-1c-1,0.1-2.8,0.5-3.5,0.6c-1.2,0.1-2.4,0.2-3.6,0.1
			C650.7,207.9,647.6,207.4,645.1,206.1z"/>
		<path class="st9" d="M661.7,214c-2.6,3.6-7.7,4.9-11.9,3.7c-1.5-0.4-2.9-1.1-3.9-2.3c-0.7-0.8-2-3-0.2-3.3
			c1.4-0.3,3.5,1.1,4.8,1.5c1.9,0.5,3.8,0.8,5.7,0.9C657,214.5,661.1,214.8,661.7,214z"/>
		<path d="M654.5,197.6c4.1,0.4,7.9,3.4,9.2,7.3c-2.7-2.5-5.7-5.1-9.4-5.3c-2.1-0.1-4.1,0.5-5.9,1.5c-1.4,0.8-4.2,3.1-4.5,3.4
			c0,0,1-3,2.1-4C648.2,198.5,651.3,197.3,654.5,197.6z"/>
		<circle cx="653.3" cy="204.2" r="1"/>
		<circle class="st5" cx="664.8" cy="231.6" r="8.7"/>
		<circle id="leftEye0_1_" cx="654.3" cy="214.8" r="0.8"/>
		<circle id="leftEye1_1_" cx="649.2" cy="211.1" r="0.8"/>
		<circle id="leftEye5_1_" cx="649.2" cy="217.1" r="0.8"/>
		<circle id="leftEye2_1_" cx="642.8" cy="211.1" r="0.8"/>
		<circle id="leftEye3_1_" cx="637.7" cy="215.3" r="0.8"/>
		<circle id="leftEye4_1_" cx="642.8" cy="216.3" r="0.8"/>
	</g>
	<g>
		<path d="M645,188.1c3.2-1.5,6.9-1.8,10.5-1.6c4.6,0.2,9.3,1.3,13,4c-1.2-2.2-3.5-3.6-5.8-4.6c-4.9-2.1-10.2-2.9-15.5-2.3
			c-2.7,0.3-5.3,0.9-7.8,1.8c-1.1,0.4-2.7,0.8-3,2c-0.2,0.8,0.2,1.5,0.9,1.9C640,191,642.6,189.3,645,188.1z"/>
		<circle id="leftBrow4_1_" cx="632.7" cy="205.4" r="0.8"/>
		<circle id="leftBrow3_1_" cx="642.7" cy="202.2" r="0.8"/>
		<circle id="leftBrow0_1_" cx="660.2" cy="206.2" r="0.8"/>
		<path d="M602.5,188.1c-3.2-1.5-6.9-1.8-10.5-1.6c-4.6,0.2-9.3,1.3-13,4c1.2-2.2,3.5-3.6,5.8-4.6c4.9-2.1,10.2-2.9,15.5-2.3
			c2.7,0.3,5.3,0.9,7.8,1.8c1.1,0.4,2.7,0.8,3,2c0.2,0.8-0.2,1.5-0.9,1.9C607.5,191,604.8,189.3,602.5,188.1z"/>
		<circle id="rightBrow4_1_" cx="615.8" cy="205.9" r="0.8"/>
		<circle id="rightBrow3_1_" cx="606.1" cy="201.9" r="0.8"/>
		<circle id="rightBrow0_1_" cx="588.6" cy="206.6" r="0.8"/>
		<circle id="rightBrow1_1_" cx="592.6" cy="202.9" r="0.8"/>
		<circle id="rightBrow2_1_" cx="598.8" cy="201.9" r="0.8"/>
		<circle id="leftBrow2_1_" cx="650" cy="201.8" r="0.8"/>
		<circle id="leftBrow1_1_" cx="656.2" cy="203.3" r="0.8"/>
	</g>
	<path class="st9" d="M618.2,226.3c-0.6,0.6-2.8,4.1-4,5.7c-0.7,1-2.6,3.4-3.9,4.6c-1.8,1.6-2.5,2.5-4.4,3.9
		c-2.9,2.3-4.6,3.6-6.1,6.6c-1.5,2.9-2.6,6.1-3.3,9.3c0.5-0.6,0.8-2.1,1.1-2.9c0.6-1.7,1.5-3.2,2.3-4.8c1.7-3,4.3-5.8,7.5-7.4
		c1.4-0.7,2.9-1.3,4.2-2.1c1-0.6,3.3-2,3.7-3.1c0.3-0.9,1.1-2.3,1.2-3.3C616.7,231.9,619,226.5,618.2,226.3z"/>
	<path class="st9" d="M628.6,226.1c0.7,0.6,3.1,4,4.4,5.4c0.8,0.9,2.9,3.2,4.2,4.3c1.9,1.5,2.6,2.3,4.6,3.6c3.1,2.1,4.9,3.3,6.6,6.2
		c1.7,2.8,3,5.9,3.9,9.1c-0.6-0.6-0.9-2-1.2-2.8c-0.7-1.6-1.7-3.1-2.6-4.6c-1.9-2.9-4.7-5.6-7.9-6.9c-1.5-0.6-3-1.1-4.4-1.8
		c-1-0.5-2.4-1.2-2.9-2.3c-0.4-0.9-0.4-2.1-0.6-3C632.3,232.2,627.8,226.3,628.6,226.1z"/>
	<path class="st7" d="M642.7,258.1c0.1,0.1,0.3,0.2,0.4,0.3c0,0.1,0,0.1,0,0.1H643c-0.3-0.2-0.6-0.3-0.8-0.5
		c-0.3-0.2-0.6-0.2-0.9-0.4c0.1-0.1,0.5,0,0.7,0.1C642.2,257.8,642.5,257.9,642.7,258.1z"/>
	<path class="st10" d="M624.5,204.9c-2.1,0.4-7.6,2.2-9.2,11c-0.9,4.7-1.2,9.4-1.3,13.2c3.5-1.5,7-2.3,10.6-2.6
		c3.6,0.3,7.1,1.1,10.6,2.6c-0.1-3.8-0.5-8.5-1.3-13.2C632.2,207.1,626.6,205.3,624.5,204.9z"/>
	<path class="st11" d="M624.5,226.4c-3.6,0.3-7.1,1.1-10.6,2.6c-0.2,5,0.1,8.4,0.1,8.4s2.2,4.4,10.5,4.3c8.3,0.1,10.5-4.3,10.5-4.3
		s0.2-3.5,0.1-8.4C631.6,227.6,628.1,226.8,624.5,226.4z"/>
	<path d="M621.2,239.2c0.3-0.1,0.5-0.3,0.6-0.7c0-0.2,0-0.4-0.1-0.6c-0.1-0.4-0.4-0.7-0.6-1c-0.6-0.6-1.2-1.2-1.9-1.5
		c-0.4-0.2-0.8-0.4-1.1-0.3c-0.4,0.1-0.7,0.6-0.7,1.1c0,0.2,0.1,0.4,0.2,0.6C618.2,238.5,619.7,240,621.2,239.2z"/>
	<path d="M627.8,239.2c-0.3-0.1-0.5-0.3-0.6-0.7c0-0.2,0-0.4,0.1-0.6c0.1-0.4,0.4-0.7,0.6-1c0.6-0.6,1.2-1.2,1.9-1.5
		c0.4-0.2,0.8-0.4,1.1-0.3c0.4,0.1,0.7,0.6,0.7,1.1c0,0.2-0.1,0.4-0.2,0.6C630.8,238.5,629.3,240,627.8,239.2z"/>
	<path class="st7" d="M621.1,252.9c-0.1,0.2-0.2,0.5-0.1,0.7c0,0,0,0.1,0.1,0.1s0.1,0,0.1,0v-0.1c0-0.2,0-0.4,0.1-0.6
		c0.1-0.2,0.2-0.3,0.2-0.5c0.2-0.3,0.4-0.7,0.7-1l0,0c0,0-0.1-0.1-0.1,0s-0.1,0-0.1,0.1c-0.3,0.2-0.5,0.4-0.6,0.7
		C621.2,252.5,621.2,252.7,621.1,252.9z"/>
</g>
<g id="skeleton_1_">
	<polygon class="st12" points="518.8,349.5 569.1,565.3 685.5,564.5 731.7,349.5 	"/>
	<polyline class="st12" points="517.8,349.5 445.4,431.1 352,547.5 	"/>
	<polyline class="st12" points="733.2,349.1 806.2,430.7 899.6,547 	"/>
	<polyline class="st12" points="569.1,565.3 575.5,725.5 575.5,933.5 	"/>
	<polyline class="st12" points="685.5,564.5 685.5,725.5 685.5,933.5 	"/>
	<polyline class="st12" points="624.5,170 604.7,172.5 592.2,182 583.6,196.1 581.1,205.4 580.3,217.1 580.3,226.6 581.1,248.3 
		587.9,268.3 599.5,280.8 609.5,287.5 624.5,290.7 639.3,287.9 649.3,281.2 660.9,268.6 667.7,248.6 668.5,227 668.5,217.4 
		667.7,205.7 665.2,196.5 657,182 644.4,172.5 624.5,170 	"/>
	<polyline class="st12" points="588.5,206.9 592.5,203.2 598.7,202.2 606,202.2 615.8,206.2 	"/>
	<polygon class="st12" points="594.7,215.1 599.9,211.4 606.2,211.4 611.4,215.6 606.2,216.6 599.9,217.4 	"/>
	<polyline class="st12" points="613,233.2 618.2,233.2 623.7,234 623.7,228.7 623.7,221.6 623.7,216.1 623.7,210.3 	"/>
	<polyline class="st12" points="660,206.5 656,203.6 649.7,202.1 642.4,202.5 632.4,205.7 	"/>
	<polygon class="st12" points="654.1,215.1 648.8,211.4 642.5,211.4 637.4,215.6 642.5,216.6 648.8,217.4 	"/>
	<polyline class="st12" points="634.1,233.2 629.1,233.2 623.7,234 	"/>
	<polygon class="st12" points="607,255.3 613.9,251.9 620.4,250.8 624.5,251.7 628.7,250.8 635.1,251.9 642,255.3 635.6,261.6 
		628.5,264.4 624.5,264.9 620.4,264.4 613.4,261.6 	"/>
	<polyline class="st12" points="607,255.3 610.6,255.6 620.6,254.8 624.5,255.3 628.5,254.8 638.4,255.6 642,255.3 	"/>
	<polyline class="st12" points="607,255.3 610.6,255.6 620.6,257.7 624.5,258.5 628.5,257.7 638.4,255.6 642,255.3 	"/>
	<circle id="rightShoulder" cx="518.9" cy="349.2" r="8.2"/>
	<circle id="rightElbow" cx="445.4" cy="439.3" r="8.2"/>
	<circle id="rightWrist" cx="352" cy="555.7" r="8.2"/>
	<circle id="rightHip" cx="569.2" cy="565" r="8.2"/>
	<circle id="rightKnee" cx="575.6" cy="725.2" r="8.2"/>
	<circle id="rightAnkle" cx="575.6" cy="933.2" r="8.2"/>
	<circle id="leftElbow" cx="806.2" cy="438.9" r="8.2"/>
	<circle id="leftWrist" cx="899.6" cy="555.2" r="8.2"/>
	<circle id="leftHip" cx="685.6" cy="564.2" r="8.2"/>
	<circle id="leftKnee" cx="685.6" cy="725.2" r="8.2"/>
	<circle id="leftAnkle" cx="685.6" cy="933.2" r="8.2"/>
	<circle id="rightEye0" cx="594.7" cy="215.1" r="0.8"/>
	<circle id="rightBrow1" cx="592.5" cy="203.2" r="0.8"/>
	<circle id="rightBrow4" cx="615.8" cy="206.2" r="0.8"/>
	<circle id="nose1" cx="623.7" cy="216.1" r="0.8"/>
	<circle id="rightBrow3" cx="606" cy="202.2" r="0.8"/>
	<circle id="rightEye1" cx="599.9" cy="211.4" r="0.8"/>
	<circle id="rightBrow0" cx="588.5" cy="206.9" r="0.8"/>
	<circle id="rightBrow2" cx="598.7" cy="202.2" r="0.8"/>
	<circle id="rightEye5" cx="599.9" cy="217.4" r="0.8"/>
	<circle id="rightEye2" cx="606.2" cy="211.4" r="0.8"/>
	<circle id="rightEye3" cx="611.4" cy="215.6" r="0.8"/>
	<circle id="nose0" cx="623.7" cy="210.3" r="0.8"/>
	<circle id="nose3" cx="623.7" cy="228.7" r="0.8"/>
	<circle id="rightNose0" cx="613" cy="233.2" r="0.8"/>
	<circle id="rightMouthCorner" cx="607" cy="255.3" r="0.8"/>
	<circle id="rightNose1" cx="618.2" cy="233.2" r="0.8"/>
	<circle id="rightUpperLipTop0" cx="613.9" cy="251.9" r="0.8"/>
	<circle id="nose2" cx="623.7" cy="221.6" r="0.8"/>
	<circle id="nose4" cx="623.7" cy="234" r="0.8"/>
	<circle id="upperLipTopMid" cx="624.5" cy="251.7" r="0.8"/>
	<circle id="rightUpperLipTop1" cx="620.4" cy="250.8" r="0.8"/>
	<path id="rightMiddleLip" d="M610.6,254.8c0.4,0,0.8,0.4,0.8,0.8c0,0.4-0.4,0.8-0.8,0.8s-0.8-0.4-0.8-0.8S610.2,254.8,610.6,254.8z
		"/>
	<circle id="lowerLipBottomMid" cx="624.5" cy="264.9" r="0.8"/>
	<circle id="upperLipBottomMid" cx="624.5" cy="255.3" r="0.8"/>
	<circle id="lowerLipTopMid" cx="624.5" cy="258.4" r="0.8"/>
	<circle id="rightUpperLipBottom1" cx="620.6" cy="254.8" r="0.8"/>
	<circle id="rightLowerLipTop0" cx="620.6" cy="257.7" r="0.8"/>
	<circle id="rightLowerLipBottom1" cx="620.4" cy="264.4" r="0.8"/>
	<circle id="rightLowerLipBottom0" cx="613.4" cy="261.6" r="0.8"/>
	<circle id="rightEye4" cx="606.2" cy="216.6" r="0.8"/>
	<circle id="jawMid" cx="624.5" cy="290.7" r="0.8"/>
	<circle id="rightJaw7" cx="609.5" cy="287.5" r="0.8"/>
	<circle id="rightJaw6" cx="599.5" cy="280.8" r="0.8"/>
	<circle id="rightJaw5" cx="587.9" cy="268.3" r="0.8"/>
	<circle id="rightJaw4" cx="581.1" cy="248.3" r="0.8"/>
	<circle id="rightJaw3" cx="580.3" cy="226.6" r="0.8"/>
	<circle id="rightJaw2" cx="580.3" cy="217.1" r="0.8"/>
	<circle id="rightJaw1" cx="581.1" cy="205.4" r="0.8"/>
	<circle id="rightJaw0" cx="583.6" cy="196.1" r="0.8"/>
	<circle id="topMid" cx="624.7" cy="170" r="0.8"/>
	<circle id="leftTop0" cx="644.4" cy="172.5" r="0.8"/>
	<circle id="leftTop1" cx="657" cy="182" r="0.8"/>
	<circle id="leftEye0" cx="654.3" cy="215.1" r="0.8"/>
	<circle id="leftBrow1" cx="656.2" cy="203.6" r="0.8"/>
	<circle id="leftBrow4" cx="632.6" cy="205.7" r="0.8"/>
	<circle id="leftBrow3" cx="642.6" cy="202.5" r="0.8"/>
	<circle id="leftEye1" cx="649.1" cy="211.4" r="0.8"/>
	<circle id="leftBrow0" cx="660.2" cy="206.5" r="0.8"/>
	<circle id="leftBrow2" cx="649.9" cy="202.1" r="0.8"/>
	<circle id="leftEye5" cx="649.1" cy="217.4" r="0.8"/>
	<circle id="leftEye2" cx="642.8" cy="211.4" r="0.8"/>
	<circle id="leftEye3" cx="637.6" cy="215.6" r="0.8"/>
	<circle id="leftNose0" cx="634.1" cy="233.2" r="0.8"/>
	<circle id="leftMouthCorner" cx="642" cy="255.3" r="0.8"/>
	<circle id="leftNose1" cx="629.3" cy="233.2" r="0.8"/>
	<circle id="leftUpperLipTop0" cx="635.1" cy="251.9" r="0.8"/>
	<circle id="leftUpperLipTop1" cx="628.7" cy="250.8" r="0.8"/>
	<path id="leftMiddleLip" d="M638.4,254.8c0.4,0,0.8,0.4,0.8,0.8c0,0.4-0.4,0.8-0.8,0.8s-0.8-0.4-0.8-0.8S638,254.8,638.4,254.8z"/>
	<circle id="leftUpperLipBottom1" cx="628.5" cy="254.8" r="0.8"/>
	<circle id="leftLowerLipTop0" cx="628.5" cy="257.7" r="0.8"/>
	<circle id="leftLowerLipBottom1" cx="628.7" cy="264.4" r="0.8"/>
	<circle id="leftLowerLipBottom0" cx="635.6" cy="261.6" r="0.8"/>
	<circle id="leftEye4" cx="642.8" cy="216.6" r="0.8"/>
	<circle id="leftJaw7" cx="639.3" cy="287.9" r="0.8"/>
	<circle id="leftJaw6" cx="649.3" cy="281.2" r="0.8"/>
	<circle id="leftJaw5" cx="660.9" cy="268.6" r="0.8"/>
	<circle id="leftJaw4" cx="667.7" cy="248.6" r="0.8"/>
	<circle id="leftJaw3" cx="668.5" cy="227" r="0.8"/>
	<circle id="leftJaw2" cx="668.5" cy="217.4" r="0.8"/>
	<circle id="leftJaw1" cx="667.7" cy="205.7" r="0.8"/>
	<circle id="leftJaw0" cx="665.2" cy="196.5" r="0.8"/>
	<circle id="rightTop0" cx="604.8" cy="172.5" r="0.8"/>
	<circle id="rightTop1" cx="592.2" cy="182" r="0.8"/>
	<circle id="leftShoulder" cx="731.8" cy="349.2" r="8.2"/>
</g>
</svg>
