<?xml version="1.0" encoding="utf-8"?>
<!-- Generator: Adobe Illustrator 25.0.0, SVG Export Plug-In . SVG Version: 6.00 Build 0)  -->
<svg version="1.1" id="Layer_1" xmlns="http://www.w3.org/2000/svg" xmlns:xlink="http://www.w3.org/1999/xlink" x="0px" y="0px"
	 viewBox="0 0 1200 1200" style="enable-background:new 0 0 1200 1200;" xml:space="preserve">
<style type="text/css">
	.st0{fill:#B57243;stroke:#4C3612;stroke-miterlimit:10;}
	.st1{fill:#91592C;stroke:#4C3612;stroke-miterlimit:10;}
	.st2{fill:#CC885A;}
	.st3{fill:#B57243;}
	.st4{fill:#EFB18F;}
	.st5{fill:#993333;}
	.st6{fill:#996633;}
	.st7{fill:#663300;}
	.st8{fill:#990000;}
	.st9{fill:#560000;}
	.st10{fill:#FFFFCD;stroke:#CFCFCF;stroke-width:0.75;stroke-miterlimit:10;}
	.st11{fill:#FFFFFF;}
	.st12{opacity:0.26;fill:#FFFFFF;enable-background:new    ;}
	.st13{opacity:0.26;fill:#FF75F0;enable-background:new    ;}
	.st14{fill:#EFC3A5;}
	.st15{fill:none;stroke:#000000;stroke-miterlimit:10;}
</style>
<g id="illustration">
	<path class="st0" d="M720.6,549.2L520.2,550c0,64.2-1.3,143.2-1.3,219.9v141.2l0,0c-0.8,13.5,7.7,63.1,50.2,59.5
		c41.2-3.5,42.7-48.3,42.4-60.1V771.2V595.4c0-5.3,4.3-9.6,9.6-9.6h6.8c5.3,0,9.6,4.3,9.6,9.6v175.8v139.9c0,0.1,0,0.2,0,0.3
		c-0.6,13.8,8,62.8,50.2,59.2c40.3-3.4,42.6-46.5,42.5-59.3c0-0.1,0-0.1,0-0.2V771.2V558.8C730.2,553.5,725.9,549.2,720.6,549.2z"/>
	<path class="st0" d="M520.3,559.1c-1.4-74.9-13.5-131.9,8.4-171.3c13.4-24.2,29.7-41.7,47.4-52.8c15.5-9.7,32.3-12.4,48.9-12.2
		c16.5,0.2,33.2,3.3,48.6,13.2c17.4,11.1,33.7,28.4,46.9,52c22.5,39.7,9.6,171.3,9.6,171.3"/>
	<path class="st0" d="M904.6,463.8"/>
	<path class="st0" d="M725.6,407.1c0,0,40.9,36.8,54.2,51.3s75.5,93.7,82.9,100.9c9.5,9.3,33.3,10.7,44.2,1.2
		c2-1.7,12.5-10.4,5.8-26.4s-57.7-84.9-82.5-115.2l0,0l0,0c-1-1.3-2-2.5-3-3.6l0,0c-2.2-2.7-4.4-5.4-6.6-8c-1.3-1.6-2-2.4-2-2.4l0,0
		c-70.3-80.3-157.2-80.6-170.1-79.5"/>
	<path class="st0" d="M874.5,547.9c0,0-2.1,8-4,16.9c-1.8,8.8-21.3,7.2-19.4-5.8c1.8-13.2,6.8-20.6,6.8-20.6"/>
	<path class="st0" d="M597.5,327c-15-1.3-97.4-4.7-169.9,78.1l0,0c0,0-0.7,0.8-2,2.4c-2.2,2.6-4.4,5.3-6.6,8l0,0c-1,1.1-2,2.3-3,3.6
		l0,0l0,0c-24.8,30.3-75.8,99.2-82.5,115.2s3.8,24.7,5.8,26.4c10.9,9.5,34.7,8.1,44.2-1.2c7.4-7.2,69.6-86.4,82.9-100.9
		s57.3-54.4,57.3-54.4"/>
	<path class="st0" d="M390.3,538.5c0,0,5,7.4,6.8,20.6c1.9,13-17.5,14.6-19.4,5.8c-1.8-8.9-4-16.9-4-16.9"/>
	<path class="st0" d="M587.8,337.7c-0.4-0.3-0.6-0.7-0.7-1l12.6-57.6h43.8c0,0,8.9,43.3,11.9,58.4c-0.2,0.2-0.4,0.6-0.6,0.8"/>
	<path class="st1" d="M624.3,107.2c-1.7,0.1-3.3,0.1-5,0c-7-0.4-13.7-1.9-20.7-0.4c-3.2,0.7-6.3,1.6-9.4,2.7
		c-6.1,2.2-11.9,5.4-17.2,9.1c-10.5,7.5-19.1,17.6-24.2,29.2c-2.1,4.7-3.6,9.7-4.5,14.8c-1.2,7.4-2.4,13.8-4,21s-6.2,52.8,1.9,67
		c-0.5-4.8,1.4-9.7,5.1-12.9c3.5,17.7,12.7,34.2,26,47c-1.1-3.4-2.1-7-3.2-10.4c4.5,9.5,13.6,16.8,24.1,19.6
		c0.2-2.9-1.3-5.7-3.9-7.2c11.5,8.4,21.5,18.8,29.4,30.5c-0.2-3.5-0.5-7.1-0.7-10.6c3,3.6,5,7.9,6,12.5c0.9-4.5,3-8.9,6-12.5
		c-0.2,3.5-0.5,7.1-0.7,10.6c7.9-11.7,17.9-22.1,29.4-30.5c-2.5,1.5-4.1,4.4-3.9,7.2c10.5-2.7,19.6-10,24.1-19.6
		c-1.1,3.4-2.1,7-3.2,10.4c13.3-12.7,22.5-29.3,26-47c3.7,3.3,5.6,8.2,5.1,12.9c8.1-14.3-0.8-80.7-2.1-88.1
		c-0.9-5.1-2.4-10-4.5-14.8c-5.1-11.6-13.7-21.7-24.2-29.2c-5.3-3.7-11.1-6.8-17.2-9.1c-0.5-0.2-1-0.4-1.5-0.6
		c-3-1.1-6.1-1.9-9.1-2.5c-3.5-0.7-6-0.8-8.9-0.6C634.3,106.1,629.3,106.9,624.3,107.2z"/>
	<path class="st2" d="M566.2,189.1c-4.3,13.8,8.3,44.1,13.3,49.9s5.8,10.8,13,13l4.3,1c0,0,0.5,6.8,2.7,13.9c2.2,7,5.4,13,10.1,14.5
		c4.7,1.4,9.7,2.4,9.7,2.4s2,9.1-2.9,14.3c0,0,2,0,6.5-3.3c0,0,0.8,7-1.3,9.9c1-0.3,1.9-0.7,2.7-1.1c0.8,0.5,1.7,0.8,2.7,1.1
		c-2.2-3-1.3-9.9-1.3-9.9c4.5,3.3,6.5,3.3,6.5,3.3c-4.9-5.2-2.9-14.3-2.9-14.3s5-0.9,9.7-2.4c4.7-1.4,7.9-7.5,10.1-14.5
		c2.2-7,2.7-13.9,2.7-13.9l4.3-1c7.2-2.3,8-7.2,13-13s15.1-35.6,13.3-49.9C673.9,122.7,567.3,134.3,566.2,189.1z"/>
	<path class="st3" d="M577.5,213c5.5,4.8,7.8,12.7,7.8,19.9c0,2.6-0.2,4.6-0.4,7.3c-0.1,1.2-0.2,4.7-1.1,5.6c-0.4-1.8-1.3-5.1-1.5-6
		c-0.2-1.5-0.7-5.8-2.3-12.2c-0.4-1.7-3-7.9-3.4-9.6C576.4,217.4,576.3,212.6,577.5,213z"/>
	<path class="st4" d="M624.2,260.3c-0.2-0.3-0.4-0.7-0.6-1c0,0.1-0.1,0.1-0.1,0.2c0-0.1-0.1-0.1-0.1-0.2c0,0.1-0.1,0.1-0.1,0.2
		c0-0.1-0.1-0.1-0.1-0.2c-3.3,6.3-16.6,12.4-24.4,12.4c-11.1,0-15.6-4.5-15.6-15.3c0-10.8,16.6-23.2,27.7-23.2c7.8,0,9,1.9,12.3,8.2
		c0-0.1,0.1-0.1,0.1-0.2c0,0.1,0.1,0.1,0.1,0.2c0-0.1,0.1-0.1,0.1-0.2c0,0.1,0.1,0.1,0.1,0.2c0.2-0.4,0.4-0.7,0.6-1
		c0.2,0.3,0.4,0.7,0.6,1c0-0.1,0.1-0.1,0.1-0.2c0,0.1,0.1,0.1,0.1,0.2c0-0.1,0.1-0.1,0.1-0.2c0,0.1,0.1,0.1,0.1,0.2
		c3.3-6.3,4.5-8.2,12.3-8.2c11.1,0,27.7,12.4,27.7,23.2c0,10.8-4.6,15.3-15.6,15.3c-7.8,0-21.1-6.1-24.4-12.4c0,0.1-0.1,0.1-0.1,0.2
		c0-0.1-0.1-0.1-0.1-0.2c0,0.1-0.1,0.1-0.1,0.2c0-0.1-0.1-0.1-0.1-0.2C624.6,259.6,624.4,259.9,624.2,260.3z"/>
	<circle class="st5" cx="618.3" cy="252.1" r="0.6"/>
	<circle class="st5" cx="630.1" cy="252.1" r="0.6"/>
	<circle class="st5" cx="618.4" cy="259.4" r="0.8"/>
	<circle class="st5" cx="630.1" cy="259.4" r="0.8"/>
	<circle class="st5" cx="611.4" cy="261.3" r="0.4"/>
	<circle class="st5" cx="637.1" cy="261.3" r="0.4"/>
	<circle class="st5" cx="611.4" cy="253.7" r="0.4"/>
	<circle class="st5" cx="637.1" cy="253.7" r="0.4"/>
	<circle class="st5" cx="614.7" cy="250.6" r="0.3"/>
	<circle class="st5" cx="633.8" cy="250.6" r="0.3"/>
	<circle class="st5" cx="606.9" cy="257.7" r="0.4"/>
	<circle class="st5" cx="641.6" cy="257.7" r="0.4"/>
	<circle class="st5" cx="605.1" cy="261.1" r="0.2"/>
	<circle class="st5" cx="643.3" cy="261.1" r="0.2"/>
	<path class="st6" d="M624.2,192.5c-1.2,0-8,0.7-9.1,4.9c-1.7,6.6-4.3,24.5-4.2,28.8s-0.2,6.5,1.7,8.4s5.2,3.8,8,4.5
		c1.5,0.4,2.7,0.5,3.5,0.6c0.8-0.1,2-0.3,3.5-0.6c2.9-0.7,6.1-2.5,8-4.5s1.6-4.1,1.7-8.4c0.1-4.3-2.5-22.2-4.2-28.8
		C632.2,193.2,625.4,192.6,624.2,192.5z"/>
	<path class="st7" d="M624.2,246.7c-0.9,0.1-2-0.2-3.2-0.6c-1.1-0.4-2.3-0.8-3.5-1.3c-1.1-0.5-2.2-1.1-3.1-1.8c-1.2-1-2.2-2.1-2.8-3
		c-1.1-1.5-0.6-5-0.6-5.7s0.7-2.2,4.9-3.8c3.6-1.4,7.4-1.2,8.3-1.1c0.9-0.1,4.7-0.3,8.3,1.1c4.2,1.7,4.9,3.1,4.9,3.8
		s0.4,4.2-0.6,5.7c-0.6,0.9-1.6,2-2.8,3c-0.9,0.7-1.9,1.4-3.1,1.8c-1.2,0.5-2.4,1-3.5,1.3C626.2,246.6,625.2,246.8,624.2,246.7z"/>
	<path d="M627.4,246.2c1.1-0.4,2.3-0.8,3.5-1.3c1.1-0.5,2.2-1.1,3.1-1.8c0-0.1,0.1-0.2,0.1-0.2c0.1-0.5-0.4-1.1-0.7-1.4
		c-0.8-0.9-2.2-1.5-3.3-0.9c-1.2,0.6-1.8,2.2-2.3,3.4c-0.2,0.6-0.5,1.3-0.3,1.9C627.2,245.8,627.3,246,627.4,246.2z"/>
	<path d="M621,246.2c-1.1-0.4-2.3-0.8-3.5-1.3c-1.1-0.5-2.2-1.1-3.1-1.8c0-0.1-0.1-0.2-0.1-0.2c-0.1-0.5,0.4-1.1,0.7-1.4
		c0.8-0.9,2.2-1.5,3.3-0.9c1.2,0.6,1.8,2.2,2.3,3.4c0.2,0.6,0.5,1.3,0.3,1.9C621.3,245.8,621.2,246,621,246.2z"/>
	<path class="st8" d="M624.2,256.7c-0.3,0.2-0.6,0.5-0.8,0.6c-2.5,1.5-4.8,3.4-7.4,4.7c-1.7,0.8-4.2,1.3-5.4,3
		c-0.8,1.3,0.6,1.8,1.6,2.2c3.8,1.3,7.9,2.1,12,2.1s8.2-0.8,12-2.1c1-0.3,2.4-0.9,1.6-2.2c-1.1-1.7-3.7-2.2-5.4-3
		c-2.6-1.3-4.9-3.2-7.4-4.7C624.9,257.2,624.6,256.9,624.2,256.7z"/>
	<path class="st9" d="M624.2,256.8c-0.5,0.2-1.7,0.8-1.7,0.8l1.7,6.9l1.7-6.9C625.9,257.7,624.8,257.1,624.2,256.8z"/>
	<path class="st10" d="M624.2,268.9c0-0.1,0-0.2-0.1-0.3c-0.1-0.3-0.3-0.7-0.5-1c-0.3-0.3-0.8-0.2-1.2-0.3c-0.5,0-0.9,0-1.3,0.3
		c-0.5,0.5-0.8,1-0.8,1.7c-0.1,0.7-0.2,1.5,0.1,2.1s1.1,0.9,1.7,1c0.7,0,2,0.1,2.1-0.8c0.1,0.9,1.5,0.8,2.1,0.8s1.4-0.4,1.7-1
		s0.2-1.5,0.1-2.1c-0.1-0.7-0.3-1.2-0.8-1.7c-0.4-0.3-0.8-0.3-1.3-0.3c-0.4,0-0.9,0-1.2,0.3c-0.3,0.2-0.4,0.6-0.5,1
		C624.3,268.7,624.3,268.8,624.2,268.9z"/>
	<path class="st10" d="M619.6,270.9c0.1-0.4,0.1-0.9,0.1-1.3c0-0.5,0-1.1-0.2-1.6c-0.1-0.3-0.3-0.7-0.5-1c-0.3-0.3-0.8-0.2-1.2-0.3
		c-0.5,0-0.9,0-1.3,0.3c-0.5,0.5-0.8,1-0.8,1.7c-0.1,0.7-0.2,1.5,0.1,2.1s1.1,0.9,1.7,1C618.1,271.8,619.5,271.8,619.6,270.9z"/>
	<path class="st10" d="M628.9,270.9c-0.1-0.4-0.1-0.9-0.1-1.3c0-0.5,0-1.1,0.2-1.6c0.1-0.3,0.3-0.7,0.5-1c0.3-0.3,0.8-0.2,1.2-0.3
		c0.5,0,0.9,0,1.3,0.3c0.5,0.5,0.8,1,0.8,1.7c0.1,0.7,0.2,1.5-0.1,2.1s-1.1,0.9-1.7,1C630.4,271.8,628.9,271.8,628.9,270.9z"/>
	<path class="st10" d="M612.5,268.3c0.1-0.4,0.1-0.9,0.1-1.3c0-0.5,0-1.1-0.2-1.6c-0.1-0.3-0.3-0.7-0.5-1c-0.3-0.3-0.8-0.2-1.2-0.3
		c-0.5,0-0.9,0-1.3,0.3c-0.5,0.5-0.8,1-0.8,1.7c-0.1,0.7-0.2,1.5,0.1,2.1s1.1,0.9,1.7,1C611.1,269.2,612.5,269.3,612.5,268.3z"/>
	<path class="st10" d="M635.9,268.3c-0.1-0.4-0.1-0.9-0.1-1.3c0-0.5,0-1.1,0.2-1.6c0.1-0.3,0.3-0.7,0.5-1c0.3-0.3,0.8-0.2,1.2-0.3
		c0.5,0,0.9,0,1.3,0.3c0.5,0.5,0.8,1,0.8,1.7c0.1,0.7,0.2,1.5-0.1,2.1s-1.1,0.9-1.7,1C637.4,269.2,636,269.3,635.9,268.3z"/>
	<path class="st10" d="M615.4,269.9c0.1-0.4,0.1-0.9,0.1-1.3c0-0.5,0-1.1-0.2-1.6c-0.1-0.3-0.3-0.7-0.5-1c-0.3-0.3-0.8-0.2-1.2-0.3
		c-0.5,0-0.9,0-1.3,0.3c-0.5,0.5-0.8,1-0.8,1.7c-0.1,0.7-0.2,1.5,0.1,2.1s1.1,0.9,1.7,1C614,270.8,615.4,270.9,615.4,269.9z"/>
	<path class="st10" d="M633.1,269.9c-0.1-0.4-0.1-0.9-0.1-1.3c0-0.5,0-1.1,0.2-1.6c0.1-0.3,0.3-0.7,0.5-1c0.3-0.3,0.8-0.2,1.2-0.3
		c0.5,0,0.9,0,1.3,0.3c0.5,0.5,0.8,1,0.8,1.7c0.1,0.7,0.2,1.5-0.1,2.1s-1.1,0.9-1.7,1C634.5,270.8,633.1,270.9,633.1,269.9z"/>
	<path d="M624.2,270.8c-0.2,0-0.4,0-0.5,0c-0.8,0-1.6-0.1-2.4-0.2c-1.3-0.1-3-0.2-4.2-0.3c-1.6-0.2-2.4-0.6-4-1
		c-1.2-0.3-2.2-0.7-3.2-1.4c-0.5-0.4-1-0.8-1.5-1.1c-0.6-0.4-1.8-0.6-1.7,0.4c1.8,2.3,4.5,4,7.2,4.9c1.8,0.6,3.8,0.8,5.7,0.9
		c1.4,0.1,2.9,0.3,4.3,0.2c0.1,0,0.1,0,0.2,0c0.1,0,0.1,0,0.2,0c1.4,0.1,2.9-0.1,4.3-0.2c1.9-0.1,3.9-0.3,5.7-0.9
		c2.7-0.9,5.4-2.7,7.2-4.9c0.1-1-1.1-0.8-1.7-0.4c-0.5,0.3-1,0.8-1.5,1.1c-1,0.7-2,1.1-3.2,1.4c-1.5,0.4-2.4,0.9-4,1
		c-1.2,0.1-2.9,0.2-4.2,0.3c-0.8,0.1-1.6,0.2-2.4,0.2C624.6,270.8,624.5,270.8,624.2,270.8z"/>
	<path d="M624.2,253.3c-0.6,0.9-2.4,3.4-3.2,4c-3.1,2.5-5.6,3.9-9.2,5.6c-2.8,1.3-4.7,2.3-7.8,3c-1.3,0.3-3.8,1-5.2,0.6
		c0.2,0.6,1.4,0.6,2.1,0.7c2.8,0.2,4.3,0.3,7.2-0.6c2.6-0.8,5.9-2.2,9.1-4.1c2-1.2,6.1-4.3,6.7-4.9c0,0,0.2-0.1,0.3-0.3
		c0.1,0.1,0.3,0.3,0.3,0.3c0.5,0.6,4.7,3.8,6.7,4.9c3.1,1.9,6.5,3.3,9.1,4.1c2.9,0.9,4.4,0.9,7.2,0.6c0.6,0,1.9,0,2.1-0.7
		c-1.4,0.4-3.8-0.3-5.2-0.6c-3-0.8-4.9-1.7-7.8-3c-3.6-1.7-6.1-3.1-9.2-5.6C626.7,256.7,624.8,254.2,624.2,253.3z"/>
	<g>
		<path class="st3" d="M671,213c-5.5,4.8-7.8,12.7-7.8,19.9c0,2.6,0.2,4.6,0.4,7.3c0.1,1.2,0.2,4.7,1.1,5.6c0.4-1.8,1.3-5.1,1.5-6
			c0.2-1.5,0.7-5.8,2.3-12.2c0.4-1.7,3-7.9,3.4-9.6C672,217.4,672.2,212.6,671,213z"/>
		<g>
			<path class="st11" d="M637.5,250.4c0.1-0.1,0.4-0.1,0.6-0.2l0.7-0.3c0.5-0.2,0.9-0.3,1.4-0.5c0.9-0.3,1.9-0.6,2.9-0.9
				s1.9-0.5,2.9-0.7s2-0.4,2.9-0.6c3.9-0.7,7.9-1.1,11.9-1.3c4-0.1,8-0.1,11.9,0.3c1,0.1,2,0.2,3,0.3l3,0.4c1,0.1,2,0.4,2.9,0.5
				l2.9,0.6c-2-0.2-3.9-0.4-5.9-0.6c-2-0.1-3.9-0.3-5.9-0.4l-3-0.1c-1,0-2,0-3,0c-2-0.1-3.9,0.1-5.9,0.1c-3.9,0.2-7.8,0.6-11.7,1.3
				c-1.9,0.3-3.9,0.8-5.8,1.2c-1,0.2-1.9,0.5-2.8,0.8c-0.5,0.1-0.9,0.3-1.4,0.4l-0.7,0.2c-0.2,0.1-0.5,0.2-0.8,0.3L637.5,250.4z"/>
		</g>
		<g>
			<path class="st11" d="M639.9,253.6c4-0.5,8.1-0.7,12.2-0.5c1,0,2,0.1,3,0.2s2,0.2,3,0.3c2,0.2,4,0.6,6,0.9
				c4,0.7,7.9,1.6,11.8,2.7c3.9,1.1,7.7,2.4,11.5,3.7c-8-1.2-15.7-3.5-23.6-4.8c-2-0.3-3.9-0.6-5.9-0.9c-1-0.1-2-0.2-3-0.3
				s-2-0.2-3-0.2c-4-0.3-8-0.3-12,0V253.6z"/>
		</g>
		<g>
			<path class="st11" d="M641.2,258.9c3.2,0.1,6.5,0.5,9.6,1.2c3.2,0.6,6.3,1.6,9.3,2.8c3,1.2,6,2.6,8.8,4.1
				c1.4,0.8,2.8,1.6,4.1,2.5c1.4,0.9,2.7,1.8,3.9,2.8l-8.6-4.3c-2.9-1.4-5.7-2.8-8.7-3.9s-6-2-9.1-2.7s-6.2-1.2-9.4-1.5L641.2,258.9
				z"/>
		</g>
		<path class="st6" d="M647.9,192.7c6.4,0,8.4,2.7,9.6,4.4c1.2,1.6,1.6,3.3,1.6,3.3s-5.9-0.7-10.4-0.9s-11.1,2.4-11.1,2.4
			S641.5,192.7,647.9,192.7z"/>
		<path class="st12" d="M638.5,201.5c0.4,2.8,8.1,7.1,14.3,7c3.6,0,6.9-2.7,6.6-5.8c-0.1-0.5-0.1-2.4-0.1-2.4
			c0.1-0.2-0.7-0.1-0.9-0.2c-0.6-0.3-0.9-0.4-1.3-0.4c-0.8-0.1-1.5,0-2.3,0.2C649.6,201.3,643.7,202.6,638.5,201.5z"/>
		<path class="st13" d="M638.5,201.5c0.8,2.3,4.4,3.7,6.9,4.6c2.2,0.8,5.4,0.7,7.4,0c2.6-0.9,4.8-3.1,5.8-5.6
			c-0.6-0.3-1.2-0.7-1.6-0.8c-0.8-0.1-1.5,0-2.3,0.2C649.6,201.3,643.7,202.6,638.5,201.5z"/>
		<path class="st11" d="M638.2,201.5c0.3,0.1,1.1,1.4,2.4,2.1c0.4,0.2,2.5,1.5,5.3,1.6c0.6,0,1.2,0.1,1.9,0c0.5,0,1.8-0.2,2.3-0.4
			c4-1.5,5.9-4.9,5.9-5.1c-0.6-0.2-2.7-0.2-5-0.3c-3.3,0-7.3,0-8.8,0c-0.3,0-0.6,0-0.6,0C641.4,199.5,638.3,201.4,638.2,201.5z"/>
		<path class="st7" d="M642,200.5c0,2.2,1.5,3.9,3.5,4.4c0.3,0.1,0.7,0.1,1,0.1c0.4,0,0.7,0,1-0.1c2-0.5,3.5-2.3,3.5-4.4
			c0-0.4,0-0.7-0.1-1.1c-0.2,0-0.5,0-0.7,0c-0.4,0-0.7,0-1.1,0c-0.6,0-1.2,0-1.8,0c-1.3,0-2.5,0-3.5,0c-0.7,0-1.4,0-1.8,0
			C642.1,199.8,642,200.1,642,200.5z"/>
		<path d="M643.6,200.8c0,1.7,1.3,3,3,3c1.6,0,2.9-1.2,3-2.8c0-0.1,0-0.1,0-0.2c0-0.5-0.1-1-0.4-1.4c-0.6,0-1.2,0-1.8,0
			c-1.3,0-2.5,0-3.5,0C643.7,199.8,643.6,200.3,643.6,200.8z"/>
		<path class="st11" d="M647.3,199.8c0,0.8,0.7,1.5,1.5,1.5c0.3,0,0.5-0.1,0.7-0.2c0.5-0.2,0.8-0.7,0.8-1.3c0-0.1,0-0.2,0-0.4
			c-0.4,0-0.7,0-1.1,0c-0.6,0-1.2,0-1.8,0C647.4,199.5,647.3,199.6,647.3,199.8z"/>
		<path d="M659.2,200.3c0,0-0.4-0.5-3-1.4c-2.4-0.8-8.1-0.7-9.8-0.6s-3.3,0.5-3.3,0.5c-1.5,0.4-2.9,1.1-4.1,2l-1.4,1l2.5-1
			c1.6-0.7,5.6-1.3,7.4-1.3c3.6-0.1,7.7,0.2,8.4,0.3c1.1,0.2,1.3,0.4,2.4,0.6C658.9,200.5,659.2,200.3,659.2,200.3z"/>
		<path id="leftEye0_1_" d="M654.1,214.2c1,0,1,1.6,0,1.6S653.1,214.2,654.1,214.2z"/>
		<path id="leftEye1_1_" d="M648.9,210.4c1,0,1,1.6,0,1.6S647.9,210.4,648.9,210.4z"/>
		<path id="leftEye5_1_" d="M648.9,216.6c1,0,1,1.6,0,1.6S647.9,216.6,648.9,216.6z"/>
		<path id="leftEye2_1_" d="M642.7,210.6c1,0,1,1.6,0,1.6S641.7,210.6,642.7,210.6z"/>
		<path id="leftEye3_1_" d="M637.4,214.8c1,0,1,1.6,0,1.6S636.4,214.8,637.4,214.8z"/>
		<path id="leftEye4_1_" d="M642.7,215.8c1,0,1,1.6,0,1.6S641.7,215.8,642.7,215.8z"/>
	</g>
	<g>
		<g>
			<path class="st11" d="M610.9,251.4c-0.4-0.1-0.6-0.2-0.8-0.3l-0.7-0.2c-0.5-0.2-0.9-0.3-1.4-0.4c-0.9-0.3-1.9-0.5-2.8-0.8
				c-1.9-0.5-3.8-0.9-5.8-1.2c-3.9-0.7-7.8-1.1-11.7-1.3c-2,0-3.9-0.2-5.9-0.1c-1,0-2,0-3,0l-3,0.1c-2,0.1-3.9,0.3-5.9,0.4
				c-2,0.2-3.9,0.4-5.9,0.6l2.9-0.6c1-0.2,1.9-0.4,2.9-0.5l3-0.4c1-0.2,2-0.3,3-0.3c4-0.4,8-0.4,11.9-0.3c4,0.2,8,0.5,11.9,1.3
				c1,0.2,2,0.4,2.9,0.6c1,0.2,1.9,0.5,2.9,0.7c1,0.3,1.9,0.5,2.9,0.9c0.5,0.2,1,0.3,1.4,0.5l0.7,0.3c0.2,0.1,0.5,0.2,0.6,0.2
				L610.9,251.4z"/>
		</g>
		<g>
			<path class="st11" d="M608.5,254.6c-4-0.3-8-0.2-12,0c-1,0.1-2,0.1-3,0.2s-2,0.2-3,0.3c-2,0.2-4,0.5-5.9,0.9
				c-7.9,1.3-15.6,3.6-23.6,4.8c3.8-1.4,7.6-2.6,11.5-3.7s7.8-1.9,11.8-2.7c2-0.4,4-0.7,6-0.9c1-0.1,2-0.2,3-0.3s2-0.2,3-0.2
				c4.1-0.2,8.1-0.1,12.2,0.5V254.6z"/>
		</g>
		<g>
			<path class="st11" d="M607.3,259.9c-3.2,0.3-6.3,0.8-9.4,1.5c-3.1,0.7-6.1,1.6-9.1,2.7s-5.9,2.5-8.7,3.9l-8.6,4.3
				c1.3-1,2.6-1.9,3.9-2.8c1.3-0.9,2.7-1.7,4.1-2.5c2.8-1.6,5.8-3,8.8-4.1c3-1.2,6.1-2.1,9.3-2.8c3.2-0.7,6.4-1,9.6-1.2L607.3,259.9
				z"/>
		</g>
		<g>
			<path class="st6" d="M600.6,192.7c-6.4,0-8.4,2.7-9.6,4.4c-1.2,1.6-1.6,3.3-1.6,3.3s5.9-0.7,10.4-0.9s11.1,2.4,11.1,2.4
				S607,192.7,600.6,192.7z"/>
			<path class="st12" d="M610,201.5c-0.4,2.8-8.1,7.1-14.3,7c-3.6,0-6.9-2.7-6.6-5.8c0.1-0.5,0.1-2.4,0.1-2.4
				c-0.1-0.2,0.7-0.1,0.9-0.2c0.6-0.3,0.9-0.4,1.3-0.4c0.8-0.1,1.5,0,2.3,0.2C598.9,201.3,604.8,202.6,610,201.5z"/>
			<path class="st13" d="M610,201.5c-0.8,2.3-4.4,3.7-6.9,4.6c-2.2,0.8-5.4,0.7-7.4,0c-2.6-0.9-4.8-3.1-5.8-5.6
				c0.6-0.3,1.2-0.7,1.6-0.8c0.8-0.1,1.5,0,2.3,0.2C598.9,201.3,604.8,202.6,610,201.5z"/>
			<path class="st11" d="M610.3,201.5c-0.3,0.1-1.1,1.4-2.4,2.1c-0.4,0.2-2.5,1.5-5.3,1.6c-0.6,0-1.2,0.1-1.9,0
				c-0.5,0-1.8-0.2-2.3-0.4c-4-1.5-5.9-4.9-5.9-5.1c0.6-0.2,2.7-0.2,5-0.3c3.3,0,7.3,0,8.8,0c0.3,0,0.6,0,0.6,0
				C607.1,199.5,610.2,201.4,610.3,201.5z"/>
			<path class="st7" d="M606.5,200.5c0,2.2-1.5,3.9-3.5,4.4c-0.3,0.1-0.7,0.1-1,0.1c-0.4,0-0.7,0-1-0.1c-2-0.5-3.5-2.3-3.5-4.4
				c0-0.4,0-0.7,0.1-1.1c0.2,0,0.5,0,0.7,0c0.4,0,0.7,0,1.1,0c0.6,0,1.2,0,1.8,0c1.3,0,2.5,0,3.5,0c0.7,0,1.4,0,1.8,0
				C606.4,199.8,606.5,200.1,606.5,200.5z"/>
			<path d="M604.9,200.8c0,1.7-1.3,3-3,3c-1.6,0-2.9-1.2-3-2.8c0-0.1,0-0.1,0-0.2c0-0.5,0.1-1,0.4-1.4c0.6,0,1.2,0,1.8,0
				c1.3,0,2.5,0,3.5,0C604.8,199.8,604.9,200.3,604.9,200.8z"/>
			<path class="st11" d="M601.1,199.8c0,0.8-0.7,1.5-1.5,1.5c-0.3,0-0.5-0.1-0.7-0.2c-0.5-0.2-0.8-0.7-0.8-1.3c0-0.1,0-0.2,0-0.4
				c0.4,0,0.7,0,1.1,0c0.6,0,1.2,0,1.8,0C601.1,199.5,601.1,199.6,601.1,199.8z"/>
			<path d="M589.3,200.3c0,0,0.4-0.5,3-1.4c2.4-0.8,8.1-0.7,9.8-0.6s3.3,0.5,3.3,0.5c1.5,0.4,2.9,1.1,4.1,2l1.4,1l-2.5-1
				c-1.6-0.7-5.6-1.3-7.4-1.3c-3.6-0.1-7.7,0.2-8.4,0.3c-1.1,0.2-1.3,0.4-2.4,0.6C589.6,200.5,589.3,200.3,589.3,200.3z"/>
			<path id="rightEye0_1_" d="M606.1,210.6c1,0,1,1.6,0,1.6S605.1,210.6,606.1,210.6z"/>
			<path id="rightEye1_1_" d="M594.6,214.3c1,0,1,1.6,0,1.6S593.6,214.3,594.6,214.3z"/>
			<path id="rightEye5_1_" d="M599.8,216.6c1,0,1,1.6,0,1.6S598.8,216.6,599.8,216.6z"/>
			<path id="rightEye2_1_" d="M599.8,210.6c1,0,1,1.6,0,1.6S598.8,210.6,599.8,210.6z"/>
			<path id="rightEye3_1_" d="M611.3,214.8c1,0,1,1.6,0,1.6S610.3,214.8,611.3,214.8z"/>
			<path id="rightEye4_1_" d="M606.1,215.8c1,0,1,1.6,0,1.6S605.1,215.8,606.1,215.8z"/>
		</g>
	</g>
	<g>
		<g>
			<g>
				<path class="st3" d="M607.3,174.6c0.7-0.3,1.5,0,2.1,0.2c0.7,0.2,1.3,0.1,2,0.1c1.4-0.1,2.8-0.2,4.2-0.3c1.5-0.1,2.9,0,4.3,0.1
					c0.7,0.1,1.4,0.1,2.1,0.1c0.7,0,1.4-0.1,2.1-0.1l0,0l0,0c0.7,0,1.4,0.1,2.1,0.1c0.7,0,1.4-0.1,2.1-0.1c1.4-0.1,2.8-0.2,4.3-0.1
					c1.4,0.1,2.8,0.2,4.2,0.3c0.7,0,1.4,0.1,2-0.1c0.7-0.1,1.4-0.5,2.1-0.2v0.1c-0.7-0.1-1.3,0.2-2,0.5s-1.5,0.3-2.2,0.3
					c-1.4,0-2.9,0-4.3-0.1c-0.7,0-1.4,0-2.1,0c-0.7,0-1.4-0.1-2.1-0.2c-0.7-0.1-1.4-0.1-2.1-0.2c-0.7,0-1.4,0.1-2.1,0.1l0,0
					c-0.7,0-1.4-0.1-2.1-0.1c-0.7,0-1.4,0.1-2.1,0.2c-0.7,0.1-1.4,0.1-2.1,0.2c-0.7,0-1.4,0-2.1,0c-1.4,0.1-2.8,0.1-4.3,0.1
					c-0.7,0-1.5,0-2.2-0.3C608.6,175,608,174.6,607.3,174.6L607.3,174.6z"/>
			</g>
			<g>
				<path class="st3" d="M605.9,169.6c0.2-0.4,0.6-0.6,1-0.7c0.4-0.1,0.8-0.2,1.2-0.1c0.8,0,1.6,0.2,2.4,0.3l2.3,0.5
					c0.2,0,0.4,0.1,0.5,0.1c0.2,0,0.3,0,0.5,0c0.4,0,0.7-0.1,1.1-0.1c1.5-0.3,3.1-0.8,4.7-0.7c0.8,0,1.6,0.1,2.3,0.1
					c0.8,0,1.6,0,2.3,0l0,0c0.8,0,1.6,0,2.3,0c0.8,0,1.6-0.1,2.3-0.1c1.6-0.2,3.2,0.4,4.7,0.7c0.4,0.1,0.7,0.1,1.1,0.1
					c0.2,0,0.3,0,0.5,0s0.4,0,0.5-0.1l2.3-0.5c0.8-0.2,1.6-0.3,2.4-0.3c0.4,0,0.8,0,1.2,0.1s0.8,0.4,1,0.7l-0.1,0.1
					c-0.5-0.6-1.4-0.5-2.1-0.4c-0.7,0.1-1.5,0.3-2.2,0.5s-1.5,0.5-2.3,0.6c-0.2,0-0.4,0.1-0.6,0.1c-0.2,0-0.5,0-0.7,0
					c-0.4,0-0.8-0.1-1.2-0.2c-1.6-0.4-2.9-1.1-4.5-1.1c-0.8,0-1.6-0.1-2.3,0c-0.8,0-1.6,0.1-2.3,0.1l0,0l0,0c-0.8,0-1.6-0.1-2.3-0.1
					c-0.8,0-1.6,0-2.3,0c-1.5,0-2.9,0.7-4.5,1.1c-0.4,0.1-0.8,0.2-1.2,0.2c-0.2,0-0.4,0-0.7,0c-0.2,0-0.4-0.1-0.6-0.1
					c-0.8-0.2-1.5-0.4-2.3-0.6c-0.7-0.2-1.5-0.4-2.2-0.5C607.4,169.2,606.5,169.1,605.9,169.6L605.9,169.6z"/>
			</g>
			<g>
				<path class="st3" d="M611.6,165.6c0.2-0.5,0.8-0.9,1.4-1c0.6-0.1,1.1-0.2,1.7-0.1c1.1,0,2.2,0.3,3.2,0.5c1,0.1,2.1,0.1,3.1,0
					l1.6-0.2c0.5-0.1,1.1-0.2,1.6-0.3l0,0l0,0c0.6,0,1.1,0.2,1.6,0.3l1.6,0.2c1.1,0.1,2.1,0.2,3.1,0c1-0.1,2.1-0.4,3.2-0.5
					c0.6,0,1.1,0,1.7,0.1c0.5,0.1,1.1,0.5,1.4,1l-0.1,0.1c-0.4-0.4-0.9-0.5-1.4-0.6c-0.5,0-1,0-1.5,0.1c-1,0.1-2,0.5-3.2,0.6
					s-2.3-0.2-3.3-0.4l-1.6-0.4c-0.5-0.1-1.1-0.1-1.6-0.2l0,0c-0.5,0-1.1,0-1.6,0.2l-1.6,0.4c-1.1,0.3-2.2,0.5-3.3,0.4
					s-2.1-0.5-3.2-0.6c-0.5-0.1-1-0.1-1.5-0.1C612.5,165.1,612,165.2,611.6,165.6L611.6,165.6z"/>
			</g>
		</g>
		<path class="st14" d="M591.4,185.8c-0.6,0.1,3.2-1.7,7.7-1.3s7.7,3.2,10.1,4.2c2.4,1.1,6.8,2.6,6.8,2.6s-3.2,3.4-5.9,3
			c-2.7-0.3-7.1-5.9-9.2-6.9S593.6,185.5,591.4,185.8z"/>
		<path class="st14" d="M657.1,185.8c0.6,0.1-3.2-1.7-7.7-1.3s-7.7,3.2-10.1,4.2c-2.4,1.1-6.8,2.6-6.8,2.6s3.2,3.4,5.9,3
			c2.7-0.3,7.1-5.9,9.2-6.9S654.9,185.5,657.1,185.8z"/>
		<g>
			<path id="rightBrow1_1_" d="M592.3,202.4c1,0,1,1.6,0,1.6S591.3,202.4,592.3,202.4z"/>
			<path id="rightBrow4_1_" d="M615.7,205.4c1,0,1,1.6,0,1.6S614.7,205.4,615.7,205.4z"/>
			<path id="rightBrow3_1_" d="M605.8,201.4c1,0,1,1.6,0,1.6S604.8,201.4,605.8,201.4z"/>
			<path id="rightBrow0_1_" d="M588.3,206c1,0,1,1.6,0,1.6S587.3,206,588.3,206z"/>
			<path id="rightBrow2_1_" d="M598.6,201.4c1,0,1,1.6,0,1.6S597.6,201.4,598.6,201.4z"/>
			<path id="leftBrow1_1_" d="M656.1,202.8c1,0,1,1.6,0,1.6S655.1,202.8,656.1,202.8z"/>
			<path id="leftBrow4_1_" d="M632.3,204.9c1,0,1,1.6,0,1.6S631.3,204.9,632.3,204.9z"/>
			<path id="leftBrow3_1_" d="M642.4,201.6c1,0,1,1.6,0,1.6S641.4,201.6,642.4,201.6z"/>
			<path id="leftBrow0_1_" d="M660.1,205.6c1,0,1,1.6,0,1.6S659.1,205.6,660.1,205.6z"/>
			<path id="leftBrow2_1_" d="M649.7,201.2c1,0,1,1.6,0,1.6S648.7,201.2,649.7,201.2z"/>
		</g>
	</g>
</g>
<g id="skeleton_1_">
	<polygon class="st15" points="518.8,349.5 569.1,565.3 685.5,564.5 731.7,349.5 	"/>
	<polyline class="st15" points="517.8,349.5 445.4,431.1 352,547.5 	"/>
	<polyline class="st15" points="733.2,349.1 806.2,430.7 899.6,547 	"/>
	<polyline class="st15" points="569.1,565.3 575.5,725.5 575.5,933.5 	"/>
	<polyline class="st15" points="685.5,564.5 685.5,725.5 685.5,933.5 	"/>
	<polyline class="st15" points="624.5,170 604.7,172.5 592.2,182 583.6,196.1 581.1,205.4 580.3,217.1 580.3,226.6 581.1,248.3 
		587.9,268.3 599.5,280.8 609.5,287.5 624.5,290.7 639.3,287.9 649.3,281.2 660.9,268.6 667.7,248.6 668.5,227 668.5,217.4 
		667.7,205.7 665.2,196.5 657,182 644.4,172.5 624.5,170 	"/>
	<polyline class="st15" points="588.5,206.9 592.5,203.2 598.7,202.2 606,202.2 615.8,206.2 	"/>
	<polygon class="st15" points="594.7,215.1 599.9,211.4 606.2,211.4 611.4,215.6 606.2,216.6 599.9,217.4 	"/>
	<polyline class="st15" points="613,233.2 618.2,233.2 623.7,234 623.7,228.7 623.7,221.6 623.7,216.1 623.7,210.3 	"/>
	<polyline class="st15" points="660,206.5 656,203.6 649.7,202.1 642.4,202.5 632.4,205.7 	"/>
	<polygon class="st15" points="654.1,215.1 648.8,211.4 642.5,211.4 637.4,215.6 642.5,216.6 648.8,217.4 	"/>
	<polyline class="st15" points="634.1,233.2 629.1,233.2 623.7,234 	"/>
	<polygon class="st15" points="607,255.3 613.9,251.9 620.4,250.8 624.5,251.7 628.7,250.8 635.1,251.9 642,255.3 635.6,261.6 
		628.5,264.4 624.5,264.9 620.4,264.4 613.4,261.6 	"/>
	<polyline class="st15" points="607,255.3 610.6,255.6 620.6,254.8 624.5,255.3 628.5,254.8 638.4,255.6 642,255.3 	"/>
	<polyline class="st15" points="607,255.3 610.6,255.6 620.6,257.7 624.5,258.5 628.5,257.7 638.4,255.6 642,255.3 	"/>
	<circle id="rightShoulder" cx="518.9" cy="349.2" r="8.2"/>
	<circle id="rightElbow" cx="445.4" cy="439.3" r="8.2"/>
	<circle id="rightWrist" cx="352" cy="555.7" r="8.2"/>
	<circle id="rightHip" cx="569.2" cy="565" r="8.2"/>
	<circle id="rightKnee" cx="575.6" cy="725.2" r="8.2"/>
	<circle id="rightAnkle" cx="575.6" cy="933.2" r="8.2"/>
	<circle id="leftElbow" cx="806.2" cy="438.9" r="8.2"/>
	<circle id="leftWrist" cx="899.6" cy="555.2" r="8.2"/>
	<circle id="leftHip" cx="685.6" cy="564.2" r="8.2"/>
	<circle id="leftKnee" cx="685.6" cy="725.2" r="8.2"/>
	<circle id="leftAnkle" cx="685.6" cy="933.2" r="8.2"/>
	<circle id="rightEye0" cx="594.7" cy="215.1" r="0.8"/>
	<circle id="rightBrow1" cx="592.5" cy="203.2" r="0.8"/>
	<circle id="rightBrow4" cx="615.8" cy="206.2" r="0.8"/>
	<circle id="nose1" cx="623.7" cy="216.1" r="0.8"/>
	<circle id="rightBrow3" cx="606" cy="202.2" r="0.8"/>
	<circle id="rightEye1" cx="599.9" cy="211.4" r="0.8"/>
	<circle id="rightBrow0" cx="588.5" cy="206.9" r="0.8"/>
	<circle id="rightBrow2" cx="598.7" cy="202.2" r="0.8"/>
	<circle id="rightEye5" cx="599.9" cy="217.4" r="0.8"/>
	<circle id="rightEye2" cx="606.2" cy="211.4" r="0.8"/>
	<circle id="rightEye3" cx="611.4" cy="215.6" r="0.8"/>
	<circle id="nose0" cx="623.7" cy="210.3" r="0.8"/>
	<circle id="nose3" cx="623.7" cy="228.7" r="0.8"/>
	<circle id="rightNose0" cx="613" cy="233.2" r="0.8"/>
	<circle id="rightMouthCorner" cx="607" cy="255.3" r="0.8"/>
	<circle id="rightNose1" cx="618.2" cy="233.2" r="0.8"/>
	<circle id="rightUpperLipTop0" cx="613.9" cy="251.9" r="0.8"/>
	<circle id="nose2" cx="623.7" cy="221.6" r="0.8"/>
	<circle id="nose4" cx="623.7" cy="234" r="0.8"/>
	<circle id="upperLipTopMid" cx="624.5" cy="251.7" r="0.8"/>
	<circle id="rightUpperLipTop1" cx="620.4" cy="250.8" r="0.8"/>
	<path id="rightMiddleLip" d="M610.6,254.8c0.4,0,0.8,0.4,0.8,0.8c0,0.4-0.4,0.8-0.8,0.8s-0.8-0.4-0.8-0.8S610.2,254.8,610.6,254.8z
		"/>
	<circle id="lowerLipBottomMid" cx="624.5" cy="264.9" r="0.8"/>
	<circle id="upperLipBottomMid" cx="624.5" cy="255.3" r="0.8"/>
	<circle id="lowerLipTopMid" cx="624.5" cy="258.4" r="0.8"/>
	<circle id="rightUpperLipBottom1" cx="620.6" cy="254.8" r="0.8"/>
	<circle id="rightLowerLipTop0" cx="620.6" cy="257.7" r="0.8"/>
	<circle id="rightLowerLipBottom1" cx="620.4" cy="264.4" r="0.8"/>
	<circle id="rightLowerLipBottom0" cx="613.4" cy="261.6" r="0.8"/>
	<circle id="rightEye4" cx="606.2" cy="216.6" r="0.8"/>
	<circle id="jawMid" cx="624.5" cy="290.7" r="0.8"/>
	<circle id="rightJaw7" cx="609.5" cy="287.5" r="0.8"/>
	<circle id="rightJaw6" cx="599.5" cy="280.8" r="0.8"/>
	<circle id="rightJaw5" cx="587.9" cy="268.3" r="0.8"/>
	<circle id="rightJaw4" cx="581.1" cy="248.3" r="0.8"/>
	<circle id="rightJaw3" cx="580.3" cy="226.6" r="0.8"/>
	<circle id="rightJaw2" cx="580.3" cy="217.1" r="0.8"/>
	<circle id="rightJaw1" cx="581.1" cy="205.4" r="0.8"/>
	<circle id="rightJaw0" cx="583.6" cy="196.1" r="0.8"/>
	<circle id="topMid" cx="624.7" cy="170" r="0.8"/>
	<circle id="leftTop0" cx="644.4" cy="172.5" r="0.8"/>
	<circle id="leftTop1" cx="657" cy="182" r="0.8"/>
	<circle id="leftEye0" cx="654.3" cy="215.1" r="0.8"/>
	<circle id="leftBrow1" cx="656.2" cy="203.6" r="0.8"/>
	<circle id="leftBrow4" cx="632.6" cy="205.7" r="0.8"/>
	<circle id="leftBrow3" cx="642.6" cy="202.5" r="0.8"/>
	<circle id="leftEye1" cx="649.1" cy="211.4" r="0.8"/>
	<circle id="leftBrow0" cx="660.2" cy="206.5" r="0.8"/>
	<circle id="leftBrow2" cx="649.9" cy="202.1" r="0.8"/>
	<circle id="leftEye5" cx="649.1" cy="217.4" r="0.8"/>
	<circle id="leftEye2" cx="642.8" cy="211.4" r="0.8"/>
	<circle id="leftEye3" cx="637.6" cy="215.6" r="0.8"/>
	<circle id="leftNose0" cx="634.1" cy="233.2" r="0.8"/>
	<circle id="leftMouthCorner" cx="642" cy="255.3" r="0.8"/>
	<circle id="leftNose1" cx="629.3" cy="233.2" r="0.8"/>
	<circle id="leftUpperLipTop0" cx="635.1" cy="251.9" r="0.8"/>
	<circle id="leftUpperLipTop1" cx="628.7" cy="250.8" r="0.8"/>
	<path id="leftMiddleLip" d="M638.4,254.8c0.4,0,0.8,0.4,0.8,0.8c0,0.4-0.4,0.8-0.8,0.8s-0.8-0.4-0.8-0.8S638,254.8,638.4,254.8z"/>
	<circle id="leftUpperLipBottom1" cx="628.5" cy="254.8" r="0.8"/>
	<circle id="leftLowerLipTop0" cx="628.5" cy="257.7" r="0.8"/>
	<circle id="leftLowerLipBottom1" cx="628.7" cy="264.4" r="0.8"/>
	<circle id="leftLowerLipBottom0" cx="635.6" cy="261.6" r="0.8"/>
	<circle id="leftEye4" cx="642.8" cy="216.6" r="0.8"/>
	<circle id="leftJaw7" cx="639.3" cy="287.9" r="0.8"/>
	<circle id="leftJaw6" cx="649.3" cy="281.2" r="0.8"/>
	<circle id="leftJaw5" cx="660.9" cy="268.6" r="0.8"/>
	<circle id="leftJaw4" cx="667.7" cy="248.6" r="0.8"/>
	<circle id="leftJaw3" cx="668.5" cy="227" r="0.8"/>
	<circle id="leftJaw2" cx="668.5" cy="217.4" r="0.8"/>
	<circle id="leftJaw1" cx="667.7" cy="205.7" r="0.8"/>
	<circle id="leftJaw0" cx="665.2" cy="196.5" r="0.8"/>
	<circle id="rightTop0" cx="604.8" cy="172.5" r="0.8"/>
	<circle id="rightTop1" cx="592.2" cy="182" r="0.8"/>
	<circle id="leftShoulder" cx="731.8" cy="349.2" r="8.2"/>
</g>
</svg>
