<?xml version="1.0" encoding="utf-8"?>
<!-- Generator: Adobe Illustrator 25.0.0, SVG Export Plug-In . SVG Version: 6.00 Build 0)  -->
<svg version="1.1" id="Layer_1" xmlns="http://www.w3.org/2000/svg" xmlns:xlink="http://www.w3.org/1999/xlink" x="0px" y="0px"
	 viewBox="0 0 1200 1200" style="enable-background:new 0 0 1200 1200;" xml:space="preserve">
<style type="text/css">
	.st0{fill:#A7D100;stroke:#82A004;stroke-miterlimit:10;}
	.st1{fill:#EEFFD1;}
	.st2{fill:#A7D100;}
	.st3{fill:#82A004;}
	.st4{fill:#92B700;}
	.st5{fill:#FFFFFF;}
	.st6{fill:#6F4700;}
	.st7{fill:none;stroke:#000000;stroke-miterlimit:10;}
</style>
<g id="illustration">
	<path class="st0" d="M720.6,549.2L520.2,550c0,64.2-1.3,143.2-1.3,219.9v141.2l0,0c-0.8,13.5,7.7,63.1,50.2,59.5
		c41.2-3.5,42.7-48.3,42.4-60.1V771.2V595.4c0-5.3,4.3-9.6,9.6-9.6h6.8c5.3,0,9.6,4.3,9.6,9.6v175.8v139.9c0,0.1,0,0.2,0,0.3
		c-0.6,13.8,8,62.8,50.2,59.2c40.3-3.4,42.6-46.5,42.5-59.3c0-0.1,0-0.1,0-0.2V771.2V558.8C730.2,553.5,725.9,549.2,720.6,549.2z"/>
	<path class="st0" d="M520.3,559.1c-1.4-74.9-13.5-131.9,8.4-171.3c13.4-24.2,29.7-41.7,47.4-52.8c15.5-9.7,32.3-12.4,48.9-12.2
		c16.5,0.2,33.2,3.3,48.6,13.2c17.4,11.1,33.7,28.4,46.9,52c22.5,39.7,9.6,171.3,9.6,171.3"/>
	<path class="st0" d="M904.6,463.8"/>
	<path class="st0" d="M728.6,407.1c0,0,40.9,36.8,54.2,51.3s75.5,93.7,82.9,100.9c9.5,9.3,33.3,10.7,44.2,1.2
		c2-1.7,12.5-10.4,5.8-26.4s-57.7-84.9-82.5-115.2l0,0l0,0c-1-1.3-2-2.5-3-3.6l0,0c-2.2-2.7-4.4-5.4-6.6-8c-1.3-1.6-2-2.4-2-2.4l0,0
		c-70.3-80.3-157.2-80.6-170.1-79.5"/>
	<path class="st0" d="M874.5,547.9c0,0-2.1,8-4,16.9c-1.8,8.8-21.3,7.2-19.4-5.8c1.8-13.2,6.8-20.6,6.8-20.6"/>
	<path class="st0" d="M597.5,325c-15-1.3-97.4-4.7-169.9,78.1l0,0c0,0-0.7,0.8-2,2.4c-2.2,2.6-4.4,5.3-6.6,8l0,0c-1,1.1-2,2.3-3,3.6
		l0,0l0,0c-24.8,30.3-75.8,99.2-82.5,115.2s3.8,24.7,5.8,26.4c10.9,9.5,34.7,8.1,44.2-1.2c7.4-7.2,69.6-86.4,82.9-100.9
		s57.3-54.4,57.3-54.4"/>
	<path class="st0" d="M390.3,538.5c0,0,5,7.4,6.8,20.6c1.9,13-17.5,14.6-19.4,5.8c-1.8-8.9-4-16.9-4-16.9"/>
	<path class="st0" d="M592.7,328.4l8.3-33.2h49.5c0,0,4,17.7,7.5,33.7"/>
	<path class="st0" d="M719.7,256.6c-0.4,8.4-4.5,15.2-9.5,20.4c-6,6.4-13.4,10.6-17.3,12.8c-9.4,5.3-34.5,15.3-68.6,15.3h-1.9
		c-34.1,0-59.1-10.1-68.6-15.3c-3.9-2.2-11.3-6.4-17.3-12.8c-5-5.3-9-12.1-9.5-20.4c-1-18.5,21.5-24.3,21.5-24.3s0-26.1,2.8-39.9
		s10.6-27.4,23.4-32.7c6.2-2.5,11.9-2.5,16.5-1.7c4.7,0.9,8.3,2.6,10.3,3.5h0.1c1.1,0.4,3.2,0.7,5.8,0.9c6.3,0.5,14.9,0.4,14.9,0.4
		h1.9c0,0,8.6,0.1,14.9-0.4c2.5-0.2,4.7-0.5,5.8-0.9h0.1c1.4-0.6,3.8-1.7,6.8-2.6c5.1-1.5,12-2.4,20,0.9
		c12.8,5.3,20.7,18.9,23.4,32.7c2.8,13.8,2.8,39.9,2.8,39.9S720.7,238.1,719.7,256.6z"/>
	<path class="st1" d="M621.7,304.5c-34.1,0-58.1-9.9-67.5-15.2c0,0-0.3-0.1-0.3-0.2c-9.6-5.4-10.3-18.3-1.3-24.6
		c2.9-2,5.7-3.8,7.7-4.8c6-3,40-19.3,48.8-19.3s8.4,4.8,14.3,4.6s6.9-4.6,14.3-4.6c7.5,0,42.8,16.3,48.8,19.3c2.1,1,4.8,2.8,7.7,4.8
		c9,6.3,8.3,19.3-1.3,24.6c0,0-0.3,0.1-0.3,0.2c-9.4,5.3-33.4,15.2-67.5,15.2H621.7z"/>
	<path class="st2" d="M599.4,159.3l-0.2-0.2C599.5,159.1,599.5,159.1,599.4,159.3z"/>
	<path class="st2" d="M647.5,159.3l0.2-0.2C647.4,159.1,647.4,159.1,647.5,159.3z"/>
	<path class="st3" d="M613.1,171c-1.6-1.8-3.4-3.6-5.3-5.2c-1.1-0.9-4-2.9-6.1-4.3h0.1c1.1,0.4,3.2,0.7,5.8,0.9
		c0.8,1.1,1.7,2.3,2.2,3c0.8,1.1,0.8,1.3,1.7,2.6C611.9,168.7,612.6,170,613.1,171z"/>
	<path class="st3" d="M633.8,171c1.6-1.8,3.4-3.6,5.3-5.2c1.1-0.9,4-2.9,6.1-4.3h-0.1c-1.1,0.4-3.2,0.7-5.8,0.9
		c-0.8,1.1-1.7,2.3-2.2,3c-0.8,1.1-0.8,1.3-1.7,2.6C635,168.7,634.3,170,633.8,171z"/>
	<ellipse transform="matrix(0.3143 -0.9493 0.9493 0.3143 199.4687 748.3658)" cx="617.8" cy="236.1" rx="1.2" ry="2.1"/>
	<ellipse transform="matrix(0.9493 -0.3143 0.3143 0.9493 -42.3151 209.6467)" cx="629" cy="236" rx="2.1" ry="1.2"/>
	<path class="st3" d="M623.5,255.2c-2.2,0-31,3.6-30.1,7.4s26-2.2,30.1-2.2s30.1,6.4,30.1,2.2S625.6,255.2,623.5,255.2z"/>
	<path class="st4" d="M552.7,194.1c-1.7,2.7-1.3,5.2-1.5,8.2c-0.1,1.6,1.1,5.3,3.6,4.1c1.5-0.7,1.1-4.3,0.8-5.5
		c-0.2-0.9-0.8-1.5-1.2-2.3C554,197.6,553.9,196.1,552.7,194.1z"/>
	<path class="st4" d="M694.2,194.1c1.7,2.7,1.3,5.2,1.5,8.2c0.1,1.6-1.1,5.3-3.6,4.1c-1.5-0.7-1.1-4.3-0.8-5.5
		c0.2-0.9,0.8-1.5,1.2-2.3C692.9,197.6,693,196.1,694.2,194.1z"/>
	<path class="st4" d="M553.1,213.8c-1.6,0.2-2.2,3.8-1.2,5c0.4,0.5,2.3,1,2.9,0.6c1.7-1.4-0.4-6-2.4-5.9"/>
	<path class="st4" d="M693.8,213.8c1.6,0.2,2.2,3.8,1.2,5c-0.4,0.5-2.3,1-2.9,0.6c-1.7-1.4,0.4-6,2.4-5.9"/>
	<path class="st4" d="M531.1,252.3c-0.2-0.1-0.5-0.1-0.7-0.2c-2,2.8-2,8.8,0.8,11.4c2.2,2,4.7-0.3,6.5-1.9
		C541.6,258,533.8,253.3,531.1,252.3z"/>
	<path class="st4" d="M715.8,252.3c0.2-0.1,0.5-0.1,0.7-0.2c2,2.8,2,8.8-0.8,11.4c-2.2,2-4.7-0.3-6.5-1.9
		C705.3,258,713.1,253.3,715.8,252.3z"/>
	<path class="st4" d="M559.8,234.1c-1.4-0.9-4-1.5-5.6-0.9c-2.4,0.8-1.2,3,0.5,3.8C557.5,238.2,559,236.8,559.8,234.1z"/>
	<path class="st4" d="M687.1,234.1c1.4-0.9,4-1.5,5.6-0.9c2.4,0.8,1.2,3-0.5,3.8C689.4,238.2,687.9,236.8,687.1,234.1z"/>
	<path class="st4" d="M590,160.4c-1.1-0.7-2.8-0.2-4.1-0.2c-1.8,0.1-4-0.2-5.7,0.5c-0.7,0.3-2.7,1.7-2.4,2.7
		c0.4,1.1,3.1,0.9,3.9,0.8c4-0.1,8-0.6,11.6,1.6c1.7,1,3.4,2.5,5.6,1.8C599.4,163.7,593.5,161.3,590,160.4z"/>
	<path class="st4" d="M656.9,160.4c1.1-0.7,2.8-0.2,4.1-0.2c1.8,0.1,4-0.2,5.7,0.5c0.7,0.3,2.7,1.7,2.4,2.7
		c-0.4,1.1-3.1,0.9-3.9,0.8c-4-0.1-8-0.6-11.6,1.6c-1.7,1-3.4,2.5-5.6,1.8C647.5,163.7,653.4,161.3,656.9,160.4z"/>
	<path class="st4" d="M562.3,171.7c-1.7,0.5-6.1,6.7-3.5,6.3C560.4,177.8,562.6,173.2,562.3,171.7z"/>
	<path class="st4" d="M684.6,171.7c1.7,0.5,6.1,6.7,3.5,6.3C686.5,177.8,684.3,173.2,684.6,171.7z"/>
	<path class="st4" d="M572.7,165.7c-2.5,0.1-5.7,1.7-6.3,4.5c-0.5,2.3,1.3,2.8,3.1,2c1.3-0.6,2.8-1.6,3.4-3
		C573.2,168.2,573.8,165.4,572.7,165.7z"/>
	<path class="st4" d="M557.5,182.8c-0.3,0-0.6,0-0.9,0c-0.9,1.8-3.5,5.7-1.4,7.5C557.3,188.7,558.2,185.1,557.5,182.8z"/>
	<path class="st4" d="M534.3,242.5c-1.7,1.1-4.8,4.8-4,7.1c0.4,1.2,4.6,2.5,5.6,1.4c0.8-0.8-0.3-1.7-0.5-2.6
		c-0.3-1.1-0.1-2.4-0.1-3.5C535.4,243.9,535.6,242.2,534.3,242.5z"/>
	<path class="st4" d="M533.8,269.9c0.7-2.3,3.3-0.3,4.2,0.7c0.8,0.9,3,5.3,1.5,6.1C537.7,277.6,533,270,533.8,269.9z"/>
	<path class="st4" d="M715,246.3c-0.9-0.7-1.9-1.4-2.8-2.2c-1.4,1.7-0.5,4.4-1.6,6.2c-0.7,1.1-2.5,2,0.2,2.1
		c1.2,0.1,4.3-1.4,4.9-2.5C716.5,248.7,715.4,247.6,715,246.3z"/>
	<path class="st4" d="M712.5,267.4c-1.3-1.3-3.2-2.2-5-1.9c-0.1,1.6-2.9,10.3,0.7,8.9C709.5,273.9,714.5,267.6,712.5,267.4z"/>
	<path class="st4" d="M676.8,166.7c-0.9-0.5-2-1-3-1c-1.9,0-2.5,1.6-4,2.4c-0.8,0.4-2.9,0.2-3,1.3c-0.2,1.4,3.4,2.1,4.3,2.3
		c1.7,0.4,3.2,0.7,4.7,1.7c1.2,0.7,1.9,2.1,3,1.1C680.7,172.6,679,167.9,676.8,166.7z"/>
	<path class="st4" d="M689.7,182.6c-3.2-1.3-0.2,11,2.5,8c0.9-1.1-0.1-5.2-0.6-6.4C691,182.7,689.6,183,689.7,182.6z"/>
	<g>
		<path class="st4" d="M637.3,221.2c0.5-7.1,7.6-25.1,11.5-30s11.9-10.2,18.4-9.6c8.4,0.9,17,5.5,19.4,14.2c1,3.8,1.7,7.9,1.2,11.8
			c-0.3,2.3-0.3,5.4-1.2,7.6c-1.3-0.6-3-4.1-4.1-5.1c-4.3-4.3-9.7-6.4-15.8-6.6c-7.1-0.3-14.5,1.5-19.9,6.3c-3,2.6-4.7,6.2-7.2,9.2
			C639.2,219.5,638.5,220.7,637.3,221.2z"/>
		<circle id="leftBrow1_1_" cx="656.1" cy="203.5" r="0.8"/>
		<circle id="leftBrow4_1_" cx="632.5" cy="205.6" r="0.8"/>
		<circle id="leftBrow3_1_" cx="642.5" cy="202.4" r="0.8"/>
		<circle id="leftBrow0_1_" cx="660.1" cy="206.4" r="0.8"/>
		<circle id="leftBrow2_1_" cx="649.8" cy="202" r="0.8"/>
	</g>
	<g>
		<path class="st4" d="M609.6,221.2c-0.5-7.1-7.6-25.1-11.5-30s-11.9-10.2-18.4-9.6c-8.4,0.9-17,5.5-19.4,14.2
			c-1,3.8-1.7,7.9-1.2,11.8c0.3,2.3,0.3,5.4,1.2,7.6c1.3-0.6,3-4.1,4.1-5.1c4.3-4.3,9.7-6.4,15.8-6.6c7.1-0.3,14.5,1.5,19.9,6.3
			c3,2.6,4.7,6.2,7.2,9.2C607.7,219.5,608.4,220.7,609.6,221.2z"/>
		<circle id="rightBrow1_1_" cx="592.4" cy="203.1" r="0.8"/>
		<circle id="rightBrow4_1_" cx="615.7" cy="206.1" r="0.8"/>
		<circle id="rightBrow3_1_" cx="605.9" cy="202.1" r="0.8"/>
		<circle id="rightBrow0_1_" cx="588.4" cy="206.8" r="0.8"/>
		<circle id="rightBrow2_1_" cx="598.6" cy="202.1" r="0.8"/>
	</g>
	<g>
		<path class="st5" d="M637.8,222.6c0,0,3,5.6,9,9.8c4.6,3.2,11.1,5.7,19.3,4.2c6.5-1.1,10.9-3.8,13.9-6.8
			c5.8-5.8,6.4-12.9,6.4-12.9s-1.6-8.5-6.2-15.6c-3.7-5.6-9.3-10.3-17.6-9.1c-7.4,1.1-12.9,6-16.7,11.7
			C640,212.6,637.8,222.6,637.8,222.6z"/>
		<path class="st6" d="M645.2,215.1c0,6.2,0.6,12,1.6,17.3c4.6,3.2,11.1,5.7,19.3,4.2c6.5-1.1,10.9-3.8,13.9-6.8
			c0.7-4.6,1.1-9.6,1.1-14.8c0-4.8-0.3-9.4-1-13.7c-3.7-5.6-9.3-10.3-17.6-9.1c-7.4,1.1-12.9,6-16.7,11.7
			C645.5,207.6,645.2,211.3,645.2,215.1z"/>
		<ellipse cx="664.5" cy="215.3" rx="2.4" ry="14.9"/>
		<path class="st0" d="M637.8,222.6c0,0,4.9-34.3,28-33.8s20.6,28.2,20.6,28.2C678.3,210.5,661.1,213.4,637.8,222.6z"/>
		<circle id="leftEye0_1_" cx="654.2" cy="215" r="0.8"/>
		<circle id="leftEye1_1_" cx="649" cy="211.3" r="0.8"/>
		<circle id="leftEye5_1_" cx="649" cy="217.3" r="0.8"/>
		<circle id="leftEye2_1_" cx="642.7" cy="211.3" r="0.8"/>
		<circle id="leftEye3_1_" cx="637.5" cy="215.5" r="0.8"/>
		<circle id="leftEye4_1_" cx="642.7" cy="216.5" r="0.8"/>
	</g>
	<g>
		<path class="st5" d="M609.1,222.6c0,0-3,5.6-9,9.8c-4.6,3.2-11.1,5.7-19.3,4.2c-6.5-1.1-10.9-3.8-13.9-6.8
			c-5.8-5.8-6.4-12.9-6.4-12.9s1.6-8.5,6.2-15.6c3.7-5.6,9.3-10.3,17.6-9.1c7.4,1.1,12.9,6,16.7,11.7
			C606.9,212.6,609.1,222.6,609.1,222.6z"/>
		<path class="st6" d="M601.7,215.1c0,6.2-0.6,12-1.6,17.3c-4.6,3.2-11.1,5.7-19.3,4.2c-6.5-1.1-10.9-3.8-13.9-6.8
			c-0.7-4.6-1.1-9.6-1.1-14.8c0-4.8,0.3-9.4,1-13.7c3.7-5.6,9.3-10.3,17.6-9.1c7.4,1.1,12.9,6,16.7,11.7
			C601.4,207.6,601.7,211.3,601.7,215.1z"/>
		<ellipse cx="582.4" cy="215.3" rx="2.4" ry="14.9"/>
		<path class="st0" d="M609.1,222.6c0,0-4.9-34.3-28-33.8S560.5,217,560.5,217C568.6,210.5,585.8,213.4,609.1,222.6z"/>
		<circle id="rightEye0_1_" cx="594.6" cy="215" r="0.8"/>
		<circle id="rightEye1_1_" cx="599.8" cy="211.3" r="0.8"/>
		<circle id="rightEye5_1_" cx="599.8" cy="217.3" r="0.8"/>
		<circle id="rightEye2_1_" cx="606.1" cy="211.3" r="0.8"/>
		<circle id="rightEye3_1_" cx="611.3" cy="215.5" r="0.8"/>
		<circle id="rightEye4_1_" cx="606.1" cy="216.5" r="0.8"/>
	</g>
</g>
<g id="skeleton_1_">
	<polygon class="st7" points="518.8,349.5 569.1,565.3 685.5,564.5 731.7,349.5 	"/>
	<polyline class="st7" points="517.8,349.5 445.4,431.1 352,547.5 	"/>
	<polyline class="st7" points="733.2,349.1 806.2,430.7 899.6,547 	"/>
	<polyline class="st7" points="569.1,565.3 575.5,725.5 575.5,933.5 	"/>
	<polyline class="st7" points="685.5,564.5 685.5,725.5 685.5,933.5 	"/>
	<polyline class="st7" points="624.5,170 604.7,172.5 592.2,182 583.6,196.1 581.1,205.4 580.3,217.1 580.3,226.6 581.1,248.3 
		587.9,268.3 599.5,280.8 609.5,287.5 624.5,290.7 639.3,287.9 649.3,281.2 660.9,268.6 667.7,248.6 668.5,227 668.5,217.4 
		667.7,205.7 665.2,196.5 657,182 644.4,172.5 624.5,170 	"/>
	<polyline class="st7" points="588.5,206.9 592.5,203.2 598.7,202.2 606,202.2 615.8,206.2 	"/>
	<polygon class="st7" points="594.7,215.1 599.9,211.4 606.2,211.4 611.4,215.6 606.2,216.6 599.9,217.4 	"/>
	<polyline class="st7" points="613,233.2 618.2,233.2 623.7,234 623.7,228.7 623.7,221.6 623.7,216.1 623.7,210.3 	"/>
	<polyline class="st7" points="660,206.5 656,203.6 649.7,202.1 642.4,202.5 632.4,205.7 	"/>
	<polygon class="st7" points="654.1,215.1 648.8,211.4 642.5,211.4 637.4,215.6 642.5,216.6 648.8,217.4 	"/>
	<polyline class="st7" points="634.1,233.2 629.1,233.2 623.7,234 	"/>
	<polygon class="st7" points="607,255.3 613.9,251.9 620.4,250.8 624.5,251.7 628.7,250.8 635.1,251.9 642,255.3 635.6,261.6 
		628.5,264.4 624.5,264.9 620.4,264.4 613.4,261.6 	"/>
	<polyline class="st7" points="607,255.3 610.6,255.6 620.6,254.8 624.5,255.3 628.5,254.8 638.4,255.6 642,255.3 	"/>
	<polyline class="st7" points="607,255.3 610.6,255.6 620.6,257.7 624.5,258.5 628.5,257.7 638.4,255.6 642,255.3 	"/>
	<circle id="rightShoulder" cx="518.9" cy="349.2" r="8.2"/>
	<circle id="rightElbow" cx="445.4" cy="439.3" r="8.2"/>
	<circle id="rightWrist" cx="352" cy="555.7" r="8.2"/>
	<circle id="rightHip" cx="569.2" cy="565" r="8.2"/>
	<circle id="rightKnee" cx="575.6" cy="725.2" r="8.2"/>
	<circle id="rightAnkle" cx="575.6" cy="933.2" r="8.2"/>
	<circle id="leftElbow" cx="806.2" cy="438.9" r="8.2"/>
	<circle id="leftWrist" cx="899.6" cy="555.2" r="8.2"/>
	<circle id="leftHip" cx="685.6" cy="564.2" r="8.2"/>
	<circle id="leftKnee" cx="685.6" cy="725.2" r="8.2"/>
	<circle id="leftAnkle" cx="685.6" cy="933.2" r="8.2"/>
	<circle id="rightEye0" cx="594.7" cy="215.1" r="0.8"/>
	<circle id="rightBrow1" cx="592.5" cy="203.2" r="0.8"/>
	<circle id="rightBrow4" cx="615.8" cy="206.2" r="0.8"/>
	<circle id="nose1" cx="623.7" cy="216.1" r="0.8"/>
	<circle id="rightBrow3" cx="606" cy="202.2" r="0.8"/>
	<circle id="rightEye1" cx="599.9" cy="211.4" r="0.8"/>
	<circle id="rightBrow0" cx="588.5" cy="206.9" r="0.8"/>
	<circle id="rightBrow2" cx="598.7" cy="202.2" r="0.8"/>
	<circle id="rightEye5" cx="599.9" cy="217.4" r="0.8"/>
	<circle id="rightEye2" cx="606.2" cy="211.4" r="0.8"/>
	<circle id="rightEye3" cx="611.4" cy="215.6" r="0.8"/>
	<circle id="nose0" cx="623.7" cy="210.3" r="0.8"/>
	<circle id="nose3" cx="623.7" cy="228.7" r="0.8"/>
	<circle id="rightNose0" cx="613" cy="233.2" r="0.8"/>
	<circle id="rightMouthCorner" cx="607" cy="255.3" r="0.8"/>
	<circle id="rightNose1" cx="618.2" cy="233.2" r="0.8"/>
	<circle id="rightUpperLipTop0" cx="613.9" cy="251.9" r="0.8"/>
	<circle id="nose2" cx="623.7" cy="221.6" r="0.8"/>
	<circle id="nose4" cx="623.7" cy="234" r="0.8"/>
	<circle id="upperLipTopMid" cx="624.5" cy="251.7" r="0.8"/>
	<circle id="rightUpperLipTop1" cx="620.4" cy="250.8" r="0.8"/>
	<path id="rightMiddleLip" d="M610.6,254.8c0.4,0,0.8,0.4,0.8,0.8c0,0.4-0.4,0.8-0.8,0.8s-0.8-0.4-0.8-0.8S610.2,254.8,610.6,254.8z
		"/>
	<circle id="lowerLipBottomMid" cx="624.5" cy="264.9" r="0.8"/>
	<circle id="upperLipBottomMid" cx="624.5" cy="255.3" r="0.8"/>
	<circle id="lowerLipTopMid" cx="624.5" cy="258.4" r="0.8"/>
	<circle id="rightUpperLipBottom1" cx="620.6" cy="254.8" r="0.8"/>
	<circle id="rightLowerLipTop0" cx="620.6" cy="257.7" r="0.8"/>
	<circle id="rightLowerLipBottom1" cx="620.4" cy="264.4" r="0.8"/>
	<circle id="rightLowerLipBottom0" cx="613.4" cy="261.6" r="0.8"/>
	<circle id="rightEye4" cx="606.2" cy="216.6" r="0.8"/>
	<circle id="jawMid" cx="624.5" cy="290.7" r="0.8"/>
	<circle id="rightJaw7" cx="609.5" cy="287.5" r="0.8"/>
	<circle id="rightJaw6" cx="599.5" cy="280.8" r="0.8"/>
	<circle id="rightJaw5" cx="587.9" cy="268.3" r="0.8"/>
	<circle id="rightJaw4" cx="581.1" cy="248.3" r="0.8"/>
	<circle id="rightJaw3" cx="580.3" cy="226.6" r="0.8"/>
	<circle id="rightJaw2" cx="580.3" cy="217.1" r="0.8"/>
	<circle id="rightJaw1" cx="581.1" cy="205.4" r="0.8"/>
	<circle id="rightJaw0" cx="583.6" cy="196.1" r="0.8"/>
	<circle id="topMid" cx="624.7" cy="170" r="0.8"/>
	<circle id="leftTop0" cx="644.4" cy="172.5" r="0.8"/>
	<circle id="leftTop1" cx="657" cy="182" r="0.8"/>
	<circle id="leftEye0" cx="654.3" cy="215.1" r="0.8"/>
	<circle id="leftBrow1" cx="656.2" cy="203.6" r="0.8"/>
	<circle id="leftBrow4" cx="632.6" cy="205.7" r="0.8"/>
	<circle id="leftBrow3" cx="642.6" cy="202.5" r="0.8"/>
	<circle id="leftEye1" cx="649.1" cy="211.4" r="0.8"/>
	<circle id="leftBrow0" cx="660.2" cy="206.5" r="0.8"/>
	<circle id="leftBrow2" cx="649.9" cy="202.1" r="0.8"/>
	<circle id="leftEye5" cx="649.1" cy="217.4" r="0.8"/>
	<circle id="leftEye2" cx="642.8" cy="211.4" r="0.8"/>
	<circle id="leftEye3" cx="637.6" cy="215.6" r="0.8"/>
	<circle id="leftNose0" cx="634.1" cy="233.2" r="0.8"/>
	<circle id="leftMouthCorner" cx="642" cy="255.3" r="0.8"/>
	<circle id="leftNose1" cx="629.3" cy="233.2" r="0.8"/>
	<circle id="leftUpperLipTop0" cx="635.1" cy="251.9" r="0.8"/>
	<circle id="leftUpperLipTop1" cx="628.7" cy="250.8" r="0.8"/>
	<path id="leftMiddleLip" d="M638.4,254.8c0.4,0,0.8,0.4,0.8,0.8c0,0.4-0.4,0.8-0.8,0.8s-0.8-0.4-0.8-0.8S638,254.8,638.4,254.8z"/>
	<circle id="leftUpperLipBottom1" cx="628.5" cy="254.8" r="0.8"/>
	<circle id="leftLowerLipTop0" cx="628.5" cy="257.7" r="0.8"/>
	<circle id="leftLowerLipBottom1" cx="628.7" cy="264.4" r="0.8"/>
	<circle id="leftLowerLipBottom0" cx="635.6" cy="261.6" r="0.8"/>
	<circle id="leftEye4" cx="642.8" cy="216.6" r="0.8"/>
	<circle id="leftJaw7" cx="639.3" cy="287.9" r="0.8"/>
	<circle id="leftJaw6" cx="649.3" cy="281.2" r="0.8"/>
	<circle id="leftJaw5" cx="660.9" cy="268.6" r="0.8"/>
	<circle id="leftJaw4" cx="667.7" cy="248.6" r="0.8"/>
	<circle id="leftJaw3" cx="668.5" cy="227" r="0.8"/>
	<circle id="leftJaw2" cx="668.5" cy="217.4" r="0.8"/>
	<circle id="leftJaw1" cx="667.7" cy="205.7" r="0.8"/>
	<circle id="leftJaw0" cx="665.2" cy="196.5" r="0.8"/>
	<circle id="rightTop0" cx="604.8" cy="172.5" r="0.8"/>
	<circle id="rightTop1" cx="592.2" cy="182" r="0.8"/>
	<circle id="leftShoulder" cx="731.8" cy="349.2" r="8.2"/>
</g>
</svg>
