<?xml version="1.0" encoding="utf-8"?>
<!-- Generator: Adobe Illustrator 25.0.0, SVG Export Plug-In . SVG Version: 6.00 Build 0)  -->
<svg version="1.1" id="Layer_1" xmlns="http://www.w3.org/2000/svg" xmlns:xlink="http://www.w3.org/1999/xlink" x="0px" y="0px"
	 viewBox="0 0 1200 1200" style="enable-background:new 0 0 1200 1200;" xml:space="preserve">
<style type="text/css">
	.st0{fill:#EFEFEF;stroke:#7A7A7A;stroke-miterlimit:10;}
	.st1{fill:#CC9966;stroke:#7F5100;stroke-miterlimit:10;}
	.st2{fill:#E0A6D1;}
	.st3{fill:#EFEFEF;stroke:#7A7A7A;stroke-linecap:round;stroke-linejoin:round;stroke-miterlimit:10;}
	.st4{fill:#FFFFFF;}
	.st5{fill:none;stroke:#E0E0E0;stroke-width:0.7087;stroke-miterlimit:10;}
	.st6{fill:#F49898;}
	.st7{fill:#AFAEAF;}
	.st8{fill:#DEB0D0;}
	.st9{fill:#88567C;}
	.st10{fill:#F3CABB;}
	.st11{fill:#9FA0A0;}
	.st12{fill:#221714;}
	.st13{fill:#8C8C8C;}
	.st14{fill:none;stroke:#000000;stroke-miterlimit:10;}
</style>
<g id="illustration">
	<path class="st0" d="M720.6,549.2L520.2,550c0,64.2-1.3,143.2-1.3,219.9v141.2l0,0c-0.8,13.5,7.7,63.1,50.2,59.5
		c41.2-3.5,42.7-48.3,42.4-60.1V771.2V595.4c0-5.3,4.3-9.6,9.6-9.6h6.8c5.3,0,9.6,4.3,9.6,9.6v175.8v139.9c0,0.1,0,0.2,0,0.3
		c-0.6,13.8,8,62.8,50.2,59.2c40.3-3.4,42.6-46.5,42.5-59.3c0-0.1,0-0.1,0-0.2V771.2V558.8C730.2,553.5,725.9,549.2,720.6,549.2z"/>
	<path class="st0" d="M520.3,559.1c-1.4-74.9-13.5-131.9,8.4-171.3c13.4-24.2,29.7-41.7,47.4-52.8c15.5-9.7,32.3-12.4,48.9-12.2
		c16.5,0.2,33.2,3.3,48.6,13.2c17.4,11.1,33.7,28.4,46.9,52c22.5,39.7,9.6,171.3,9.6,171.3"/>
	<path class="st1" d="M904.6,463.8"/>
	<path class="st0" d="M728.6,407.1c0,0,40.9,36.8,54.2,51.3s75.5,93.7,82.9,100.9c9.5,9.3,33.3,10.7,44.2,1.2
		c2-1.7,12.5-10.4,5.8-26.4s-57.7-84.9-82.5-115.2l0,0l0,0c-1-1.3-2-2.5-3-3.6l0,0c-2.2-2.7-4.4-5.4-6.6-8c-1.3-1.6-2-2.4-2-2.4l0,0
		c-70.3-80.3-157.2-80.6-170.1-79.5"/>
	<path class="st0" d="M874.5,547.9c0,0-2.1,8-4,16.9c-1.8,8.8-21.3,7.2-19.4-5.8c1.8-13.2,6.8-20.6,6.8-20.6"/>
	<path class="st0" d="M597.5,325c-15-1.3-97.4-4.7-169.9,78.1l0,0c0,0-0.7,0.8-2,2.4c-2.2,2.6-4.4,5.3-6.6,8l0,0c-1,1.1-2,2.3-3,3.6
		l0,0l0,0c-24.8,30.3-75.8,99.2-82.5,115.2s3.8,24.7,5.8,26.4c10.9,9.5,34.7,8.1,44.2-1.2c7.4-7.2,69.6-86.4,82.9-100.9
		s57.3-54.4,57.3-54.4"/>
	<path class="st0" d="M390.3,538.5c0,0,5,7.4,6.8,20.6c1.9,13-17.5,14.6-19.4,5.8c-1.8-8.9-4-16.9-4-16.9"/>
	<path class="st0" d="M592.7,328.3l8.3-39.6h49.5c0,0,4,21.2,7.5,40.2"/>
	<path class="st0" d="M553.5,101.8c0.2-1.4,1.4-1.9,2.6-1.3c6.3,3.5,24.9,15,34.5,34.7c11.7,23.9,14.3,46.7,5.8,50.8
		s-24.9-11.8-36.6-35.8C550,130.6,552.3,108.9,553.5,101.8z"/>
	<path class="st2" d="M571.5,135.2c0-0.7,0.6-1,1.2-0.7c3.2,1.6,12.8,6.9,18,16.6c6.4,11.6,8.2,23,4,25.2s-12.7-5.4-19.1-17.1
		C570.4,149.6,571,138.7,571.5,135.2z"/>
	<path class="st0" d="M684,150.2c-11.7,24-28.1,39.9-36.6,35.8s-5.9-27,5.8-50.8c9.6-19.7,28.1-31.2,34.5-34.7
		c1.2-0.7,2.4-0.1,2.6,1.3C691.4,108.9,693.7,130.6,684,150.2z"/>
	<path class="st2" d="M671.1,159.2c-6.4,11.7-15,19.3-19.1,17.1s-2.3-13.6,4-25.2c5.2-9.6,14.8-14.9,18-16.6c0.6-0.3,1.2,0,1.2,0.7
		C675.7,138.7,676.4,149.6,671.1,159.2z"/>
	<path class="st3" d="M615.3,168.4c-1.5,0.1-2.9,0.1-4.5,0.2c-41.4,1.8-43.8,32.7-50,61.6c-28.6,14.9-3.5,50.9,21.1,61.2
		c13.3,6.4,28.5,8.9,43.3,8.3c12.1-0.2,24.6-1.9,35.6-6.4c25.7-8.3,56.3-47.6,25.7-63.3c-8.1-44.7-16.1-60.7-56.4-61.8"/>
	<path class="st4" d="M615.1,255.6c0,0,0.6,14.8,1.2,17.2c0.7,2.4,5.7,2.3,7,2c1.2-0.3,6.5,0.5,7.6-0.6c3-2.6,1.7-16.2,2.3-18.6
		H615.1L615.1,255.6z"/>
	<line class="st5" x1="624.1" y1="254.6" x2="624.1" y2="273.1"/>
	<path class="st6" d="M624.2,256.3l20-0.7c0,0-12.7-6.3-15.5-6.5c-2.4-0.2-4.3,1.9-4.7,2.3c-2.8-6.4-18.5,3.9-20.2,4.2l20,0.7H624.2
		L624.2,256.3z"/>
	<path class="st7" d="M606,250.9c0.3-0.5-7.4,4.4-2.2,8.8C603.8,259.6,602.8,255.2,606,250.9z"/>
	<path class="st7" d="M641.2,250.5c-0.3-0.5,7.4,4.4,2.2,8.8C643.4,259.2,644.3,254.8,641.2,250.5z"/>
	<g>
		<g>
			<path id="nose1_1_" d="M623.5,215.3c1,0,1,1.6,0,1.6S622.5,215.3,623.5,215.3z"/>
			<path id="nose0_1_" d="M623.5,209.5c1,0,1,1.6,0,1.6S622.5,209.5,623.5,209.5z"/>
			<path id="nose3_1_" d="M623.5,227.9c1,0,1,1.6,0,1.6S622.5,227.9,623.5,227.9z"/>
			<path id="rightNose0_1_" d="M612.8,232.4c1,0,1,1.6,0,1.6S611.8,232.4,612.8,232.4z"/>
			<path id="rightNose1_1_" d="M618,232.4c1,0,1,1.6,0,1.6S617,232.4,618,232.4z"/>
			<path id="nose2_1_" d="M623.5,220.8c1,0,1,1.6,0,1.6S622.5,220.8,623.5,220.8z"/>
			<path id="nose4_1_" d="M623.5,233.2c1,0,1,1.6,0,1.6C622.5,234.8,622.5,233.2,623.5,233.2z"/>
			<path id="leftNose0_1_" d="M633.9,232.4c1,0,1,1.6,0,1.6S632.9,232.4,633.9,232.4z"/>
			<path id="leftNose1_1_" d="M629.1,232.4c1,0,1,1.6,0,1.6S628.1,232.4,629.1,232.4z"/>
		</g>
		<g>
			<path class="st8" d="M630.1,238.8c-2.9,0.8-4.8,2.2-7.8,1.5c-1.7-0.2-5.5-2.7-7-0.9c-0.9,1.1,1.1,2.5,1.7,3.1
				C626.7,252.2,638.2,236.9,630.1,238.8z"/>
			<path class="st9" d="M621.6,245.1c1.6-2.3-2.5-2.1-3.3-2.6c-0.5-0.5-1.2-2.3-2-1.8C615.2,241.8,620.6,245.6,621.6,245.1z"/>
			<path class="st9" d="M626.7,245.1c-1.6-2.3,2.5-2.1,3.3-2.6c0.5-0.5,1.2-2.3,2-1.8C633.1,241.8,627.7,245.6,626.7,245.1z"/>
		</g>
	</g>
	<path id="nose0_5_" d="M623.6,209.5"/>
	<g>
		<g>
			<g>
				<path class="st10" d="M582.6,207.3c0.1,21.8,17.7,24.8,30.1,14.3c0,0-21.2,9.3-30-15.8"/>
				<path class="st11" d="M582.6,205.8c0,0,27.7-11.5,30,15.8C612.7,221.6,610.3,208.4,582.6,205.8"/>
				<path class="st4" d="M582.6,205.8c-0.1-0.9,22.8-5.8,30,15.8C612.7,221.6,585.3,233.8,582.6,205.8z"/>
			</g>
			<path class="st12" d="M598,213.8c1.9,0,1.9,3,0,3S596.1,213.8,598,213.8z"/>
			<g>
				<path class="st4" d="M596.2,246.4c-6.1-2-18.9-7.1-42.7-4"/>
				<path class="st12" d="M596.2,246.4c-13.8-4.6-28.4-5.5-42.8-4C567.7,240,582.8,240.7,596.2,246.4z"/>
			</g>
			<g>
				<path class="st4" d="M560.1,257.7c0,0,19.6-8.5,35.4-8.5"/>
				<path class="st12" d="M560.1,257.7c11.1-5.1,23.1-8.6,35.4-8.4C583.4,250,571.5,253.8,560.1,257.7z"/>
			</g>
			<g>
				<path class="st4" d="M564.1,268.7c0,0,16.3-13.5,33.5-16.5"/>
				<path class="st12" d="M564.1,268.7c9.5-8.2,20.9-14.5,33.4-16.4C585.3,255.3,574.4,261.6,564.1,268.7z"/>
			</g>
			<path class="st2" d="M595.5,233.1c11.2-0.1,11.2,9.7,0,9.6C584.4,242.8,584.4,233,595.5,233.1z"/>
		</g>
		<path id="rightEye0_2_" d="M594.6,214.3c1,0,1,1.6,0,1.6S593.6,214.3,594.6,214.3z"/>
		<path id="rightEye1_2_" d="M599.8,210.6c1,0,1,1.6,0,1.6S598.8,210.6,599.8,210.6z"/>
		<path id="rightEye5_2_" d="M599.8,216.6c1,0,1,1.6,0,1.6S598.8,216.6,599.8,216.6z"/>
		<path id="rightEye2_2_" d="M606.1,210.6c1,0,1,1.6,0,1.6S605.1,210.6,606.1,210.6z"/>
		<path id="rightEye3_2_" d="M611.3,214.8c1,0,1,1.6,0,1.6S610.3,214.8,611.3,214.8z"/>
		<path id="rightEye4_2_" d="M606.1,215.8c1,0,1,1.6,0,1.6S605.1,215.8,606.1,215.8z"/>
	</g>
	<g>
		<g>
			<g>
				<path class="st10" d="M665.7,206.8c-8.8,25.1-30,15.8-30,15.8c12.5,10.5,30,7.4,30.1-14.3"/>
				<path class="st11" d="M665.8,206.8c-27.7,2.6-30.1,15.8-30,15.8C638.1,195.3,665.8,206.8,665.8,206.8"/>
				<path class="st4" d="M635.8,222.6c7.2-21.6,30.1-16.7,30-15.8C663.1,234.8,635.7,222.6,635.8,222.6z"/>
			</g>
			<path class="st12" d="M650.4,214.8c1.9,0,1.9,3,0,3S648.5,214.8,650.4,214.8z"/>
			<g>
				<path class="st4" d="M694.9,243.4c-23.8-3.1-36.6,2-42.7,4"/>
				<path class="st12" d="M662.6,244c10.6-2.6,21.7-2.3,32.4-0.6c-14.4-1.5-29-0.6-42.8,4C655.6,246.1,659,244.9,662.6,244z"/>
			</g>
			<g>
				<path class="st4" d="M652.9,250.2c15.8,0,35.4,8.5,35.4,8.5"/>
				<path class="st12" d="M679.5,255.9c-8.6-2.9-17.5-5-26.6-5.6c12.3-0.2,24.3,3.3,35.4,8.4C685.5,257.7,682.6,256.7,679.5,255.9z"
					/>
			</g>
			<g>
				<path class="st4" d="M650.8,253.1c17.2,3,33.5,16.5,33.5,16.5"/>
				<path class="st12" d="M676.4,264.5c-7.8-5.1-16.5-9-25.5-11.3c12.5,1.9,23.9,8.2,33.4,16.4C681.7,267.8,679,266.2,676.4,264.5z"
					/>
			</g>
			<path class="st2" d="M652.9,234.1c11.2-0.1,11.2,9.7,0,9.6C641.8,243.8,641.8,234,652.9,234.1z"/>
		</g>
		<path id="leftEye0_2_" d="M654.2,214.3c1,0,1,1.6,0,1.6S653.2,214.3,654.2,214.3z"/>
		<path id="leftEye1_2_" d="M649,210.6c1,0,1,1.6,0,1.6S648,210.6,649,210.6z"/>
		<path id="leftEye5_2_" d="M649,216.6c1,0,1,1.6,0,1.6S648,216.6,649,216.6z"/>
		<path id="leftEye2_2_" d="M642.7,210.6c1,0,1,1.6,0,1.6S641.7,210.6,642.7,210.6z"/>
		<path id="leftEye3_2_" d="M637.5,214.8c1,0,1,1.6,0,1.6S636.5,214.8,637.5,214.8z"/>
		<path id="leftEye4_2_" d="M642.7,215.8c1,0,1,1.6,0,1.6S641.7,215.8,642.7,215.8z"/>
	</g>
	<g>
		<path id="rightBrow1_2_" d="M592.4,202.4c1,0,1,1.6,0,1.6S591.4,202.4,592.4,202.4z"/>
		<path id="rightBrow4_2_" d="M615.7,205.4c1,0,1,1.6,0,1.6S614.7,205.4,615.7,205.4z"/>
		<path id="rightBrow3_2_" d="M605.9,201.4c1,0,1,1.6,0,1.6S604.9,201.4,605.9,201.4z"/>
		<path id="rightBrow0_2_" d="M588.4,206.1c1,0,1,1.6,0,1.6S587.4,206.1,588.4,206.1z"/>
		<path id="rightBrow2_2_" d="M598.6,201.4c1,0,1,1.6,0,1.6S597.6,201.4,598.6,201.4z"/>
		<path id="leftBrow1_2_" d="M656.1,202.8c1,0,1,1.6,0,1.6S655.1,202.8,656.1,202.8z"/>
		<path id="leftBrow4_2_" d="M632.5,204.9c1,0,1,1.6,0,1.6S631.5,204.9,632.5,204.9z"/>
		<path id="leftBrow3_2_" d="M642.5,201.7c1,0,1,1.6,0,1.6C641.5,203.3,641.5,201.7,642.5,201.7z"/>
		<path id="leftBrow0_2_" d="M660.1,205.7c1,0,1,1.6,0,1.6C659.1,207.3,659.1,205.7,660.1,205.7z"/>
		<path id="leftBrow2_2_" d="M649.8,201.3c1,0,1,1.6,0,1.6S648.8,201.3,649.8,201.3z"/>
		<g>
			<path class="st13" d="M582.5,194.8c7.6-6.8,20.6-7.8,27.9,0C601.7,189.8,591.4,190.6,582.5,194.8z"/>
		</g>
		<g>
			<path class="st13" d="M665.9,194.8c-8.9-4.1-19.3-4.9-28,0.1C645.2,187.2,658.3,188.1,665.9,194.8z"/>
		</g>
	</g>
	<path class="st3" d="M612.2,169.2c1-0.7,12.9-7.2,14.8-15.1c0,0,1,3.3-0.4,8.1c0.1-0.6,5.2-1.6,7.1-7.5c0,0,0.8,4.1-2.1,9
		c0.3-0.6,2.7,1.1,5.3-3.4c0,0,1.2,3.4-2,8.6"/>
</g>
<g id="skeleton_1_">
	<polygon class="st14" points="518.8,349.5 569.1,565.3 685.5,564.5 731.7,349.5 	"/>
	<polyline class="st14" points="517.8,349.5 445.4,431.1 352,547.5 	"/>
	<polyline class="st14" points="733.2,349.1 806.2,430.7 899.6,547 	"/>
	<polyline class="st14" points="569.1,565.3 575.5,725.5 575.5,933.5 	"/>
	<polyline class="st14" points="685.5,564.5 685.5,725.5 685.5,933.5 	"/>
	<polyline class="st14" points="624.5,170 604.7,172.5 592.2,182 583.6,196.1 581.1,205.4 580.3,217.1 580.3,226.6 581.1,248.3 
		587.9,268.3 599.5,280.8 609.5,287.5 624.5,290.7 639.3,287.9 649.3,281.2 660.9,268.6 667.7,248.6 668.5,227 668.5,217.4 
		667.7,205.7 665.2,196.5 657,182 644.4,172.5 624.5,170 	"/>
	<polyline class="st14" points="588.5,206.9 592.5,203.2 598.7,202.2 606,202.2 615.8,206.2 	"/>
	<polygon class="st14" points="594.7,215.1 599.9,211.4 606.2,211.4 611.4,215.6 606.2,216.6 599.9,217.4 	"/>
	<polyline class="st14" points="613,233.2 618.2,233.2 623.7,234 623.7,228.7 623.7,221.6 623.7,216.1 623.7,210.3 	"/>
	<polyline class="st14" points="660,206.5 656,203.6 649.7,202.1 642.4,202.5 632.4,205.7 	"/>
	<polygon class="st14" points="654.1,215.1 648.8,211.4 642.5,211.4 637.4,215.6 642.5,216.6 648.8,217.4 	"/>
	<polyline class="st14" points="634.1,233.2 629.1,233.2 623.7,234 	"/>
	<polygon class="st14" points="607,255.3 613.9,251.9 620.4,250.8 624.5,251.7 628.7,250.8 635.1,251.9 642,255.3 635.6,261.6 
		628.5,264.4 624.5,264.9 620.4,264.4 613.4,261.6 	"/>
	<polyline class="st14" points="607,255.3 610.6,255.6 620.6,254.8 624.5,255.3 628.5,254.8 638.4,255.6 642,255.3 	"/>
	<polyline class="st14" points="607,255.3 610.6,255.6 620.6,257.7 624.5,258.5 628.5,257.7 638.4,255.6 642,255.3 	"/>
	<circle id="rightShoulder" cx="518.9" cy="349.2" r="8.2"/>
	<circle id="rightElbow" cx="445.4" cy="439.3" r="8.2"/>
	<circle id="rightWrist" cx="352" cy="555.7" r="8.2"/>
	<circle id="rightHip" cx="569.2" cy="565" r="8.2"/>
	<circle id="rightKnee" cx="575.6" cy="725.2" r="8.2"/>
	<circle id="rightAnkle" cx="575.6" cy="933.2" r="8.2"/>
	<circle id="leftElbow" cx="806.2" cy="438.9" r="8.2"/>
	<circle id="leftWrist" cx="899.6" cy="555.2" r="8.2"/>
	<circle id="leftHip" cx="685.6" cy="564.2" r="8.2"/>
	<circle id="leftKnee" cx="685.6" cy="725.2" r="8.2"/>
	<circle id="leftAnkle" cx="685.6" cy="933.2" r="8.2"/>
	<circle id="rightEye0" cx="594.7" cy="215.1" r="0.8"/>
	<circle id="rightBrow1" cx="592.5" cy="203.2" r="0.8"/>
	<circle id="rightBrow4" cx="615.8" cy="206.2" r="0.8"/>
	<circle id="nose1" cx="623.7" cy="216.1" r="0.8"/>
	<circle id="rightBrow3" cx="606" cy="202.2" r="0.8"/>
	<circle id="rightEye1" cx="599.9" cy="211.4" r="0.8"/>
	<circle id="rightBrow0" cx="588.5" cy="206.9" r="0.8"/>
	<circle id="rightBrow2" cx="598.7" cy="202.2" r="0.8"/>
	<circle id="rightEye5" cx="599.9" cy="217.4" r="0.8"/>
	<circle id="rightEye2" cx="606.2" cy="211.4" r="0.8"/>
	<circle id="rightEye3" cx="611.4" cy="215.6" r="0.8"/>
	<circle id="nose0" cx="623.7" cy="210.3" r="0.8"/>
	<circle id="nose3" cx="623.7" cy="228.7" r="0.8"/>
	<circle id="rightNose0" cx="613" cy="233.2" r="0.8"/>
	<circle id="rightMouthCorner" cx="607" cy="255.3" r="0.8"/>
	<circle id="rightNose1" cx="618.2" cy="233.2" r="0.8"/>
	<circle id="rightUpperLipTop0" cx="613.9" cy="251.9" r="0.8"/>
	<circle id="nose2" cx="623.7" cy="221.6" r="0.8"/>
	<circle id="nose4" cx="623.7" cy="234" r="0.8"/>
	<circle id="upperLipTopMid" cx="624.5" cy="251.7" r="0.8"/>
	<circle id="rightUpperLipTop1" cx="620.4" cy="250.8" r="0.8"/>
	<path id="rightMiddleLip" d="M610.6,254.8c0.4,0,0.8,0.4,0.8,0.8c0,0.4-0.4,0.8-0.8,0.8s-0.8-0.4-0.8-0.8S610.2,254.8,610.6,254.8z
		"/>
	<circle id="lowerLipBottomMid" cx="624.5" cy="264.9" r="0.8"/>
	<circle id="upperLipBottomMid" cx="624.5" cy="255.3" r="0.8"/>
	<circle id="lowerLipTopMid" cx="624.5" cy="258.4" r="0.8"/>
	<circle id="rightUpperLipBottom1" cx="620.6" cy="254.8" r="0.8"/>
	<circle id="rightLowerLipTop0" cx="620.6" cy="257.7" r="0.8"/>
	<circle id="rightLowerLipBottom1" cx="620.4" cy="264.4" r="0.8"/>
	<circle id="rightLowerLipBottom0" cx="613.4" cy="261.6" r="0.8"/>
	<circle id="rightEye4" cx="606.2" cy="216.6" r="0.8"/>
	<circle id="jawMid" cx="624.5" cy="290.7" r="0.8"/>
	<circle id="rightJaw7" cx="609.5" cy="287.5" r="0.8"/>
	<circle id="rightJaw6" cx="599.5" cy="280.8" r="0.8"/>
	<circle id="rightJaw5" cx="587.9" cy="268.3" r="0.8"/>
	<circle id="rightJaw4" cx="581.1" cy="248.3" r="0.8"/>
	<circle id="rightJaw3" cx="580.3" cy="226.6" r="0.8"/>
	<circle id="rightJaw2" cx="580.3" cy="217.1" r="0.8"/>
	<circle id="rightJaw1" cx="581.1" cy="205.4" r="0.8"/>
	<circle id="rightJaw0" cx="583.6" cy="196.1" r="0.8"/>
	<circle id="topMid" cx="624.7" cy="170" r="0.8"/>
	<circle id="leftTop0" cx="644.4" cy="172.5" r="0.8"/>
	<circle id="leftTop1" cx="657" cy="182" r="0.8"/>
	<circle id="leftEye0" cx="654.3" cy="215.1" r="0.8"/>
	<circle id="leftBrow1" cx="656.2" cy="203.6" r="0.8"/>
	<circle id="leftBrow4" cx="632.6" cy="205.7" r="0.8"/>
	<circle id="leftBrow3" cx="642.6" cy="202.5" r="0.8"/>
	<circle id="leftEye1" cx="649.1" cy="211.4" r="0.8"/>
	<circle id="leftBrow0" cx="660.2" cy="206.5" r="0.8"/>
	<circle id="leftBrow2" cx="649.9" cy="202.1" r="0.8"/>
	<circle id="leftEye5" cx="649.1" cy="217.4" r="0.8"/>
	<circle id="leftEye2" cx="642.8" cy="211.4" r="0.8"/>
	<circle id="leftEye3" cx="637.6" cy="215.6" r="0.8"/>
	<circle id="leftNose0" cx="634.1" cy="233.2" r="0.8"/>
	<circle id="leftMouthCorner" cx="642" cy="255.3" r="0.8"/>
	<circle id="leftNose1" cx="629.3" cy="233.2" r="0.8"/>
	<circle id="leftUpperLipTop0" cx="635.1" cy="251.9" r="0.8"/>
	<circle id="leftUpperLipTop1" cx="628.7" cy="250.8" r="0.8"/>
	<path id="leftMiddleLip" d="M638.4,254.8c0.4,0,0.8,0.4,0.8,0.8c0,0.4-0.4,0.8-0.8,0.8s-0.8-0.4-0.8-0.8S638,254.8,638.4,254.8z"/>
	<circle id="leftUpperLipBottom1" cx="628.5" cy="254.8" r="0.8"/>
	<circle id="leftLowerLipTop0" cx="628.5" cy="257.7" r="0.8"/>
	<circle id="leftLowerLipBottom1" cx="628.7" cy="264.4" r="0.8"/>
	<circle id="leftLowerLipBottom0" cx="635.6" cy="261.6" r="0.8"/>
	<circle id="leftEye4" cx="642.8" cy="216.6" r="0.8"/>
	<circle id="leftJaw7" cx="639.3" cy="287.9" r="0.8"/>
	<circle id="leftJaw6" cx="649.3" cy="281.2" r="0.8"/>
	<circle id="leftJaw5" cx="660.9" cy="268.6" r="0.8"/>
	<circle id="leftJaw4" cx="667.7" cy="248.6" r="0.8"/>
	<circle id="leftJaw3" cx="668.5" cy="227" r="0.8"/>
	<circle id="leftJaw2" cx="668.5" cy="217.4" r="0.8"/>
	<circle id="leftJaw1" cx="667.7" cy="205.7" r="0.8"/>
	<circle id="leftJaw0" cx="665.2" cy="196.5" r="0.8"/>
	<circle id="rightTop0" cx="604.8" cy="172.5" r="0.8"/>
	<circle id="rightTop1" cx="592.2" cy="182" r="0.8"/>
	<circle id="leftShoulder" cx="731.8" cy="349.2" r="8.2"/>
</g>
</svg>
