<?xml version="1.0" encoding="utf-8"?>
<!-- Generator: Adobe Illustrator 25.0.0, SVG Export Plug-In . SVG Version: 6.00 Build 0)  -->
<svg version="1.1" id="Layer_1" xmlns="http://www.w3.org/2000/svg" xmlns:xlink="http://www.w3.org/1999/xlink" x="0px" y="0px"
	 viewBox="0 0 1200 1200" style="enable-background:new 0 0 1200 1200;" xml:space="preserve">
<style type="text/css">
	.st0{fill:#F2D99C;stroke:#9B733A;stroke-miterlimit:10;}
	.st1{fill:#966000;}
	.st2{fill:#916633;}
	.st3{fill:#9B733A;}
	.st4{fill:#A57F42;}
	.st5{fill:#F2D99C;}
	.st6{fill:#B28E4F;}
	.st7{fill:#BF9D5A;}
	.st8{fill:#DDBF7A;}
	.st9{fill:#DDBE78;}
	.st10{fill:#CEAE6E;}
	.st11{fill:#CCAB62;}
	.st12{fill:#DDA87A;}
	.st13{fill:#FFFFFF;}
	.st14{fill:#542B00;}
	.st15{fill:none;stroke:#000000;stroke-miterlimit:10;}
</style>
<g id="illustration">
	<path class="st0" d="M720.6,549.2L520.2,550c0,64.2-1.3,143.2-1.3,219.9v141.2l0,0c-0.8,13.5,7.7,63.1,50.2,59.5
		c41.2-3.5,42.7-48.3,42.4-60.1V771.2V595.4c0-5.3,4.3-9.6,9.6-9.6h6.8c5.3,0,9.6,4.3,9.6,9.6v175.8v139.9c0,0.1,0,0.2,0,0.3
		c-0.6,13.8,8,62.8,50.2,59.2c40.3-3.4,42.6-46.5,42.5-59.3c0-0.1,0-0.1,0-0.2V771.2V558.8C730.2,553.5,725.9,549.2,720.6,549.2z"/>
	<path class="st0" d="M520.3,559.1c-1.4-74.9-13.5-131.9,8.4-171.3c13.4-24.2,29.7-41.7,47.4-52.8c15.5-9.7,32.3-12.4,48.9-12.2
		c16.5,0.2,33.2,3.3,48.6,13.2c17.4,11.1,33.7,28.4,46.9,52c22.5,39.7,9.6,171.3,9.6,171.3"/>
	<path class="st0" d="M904.6,463.8"/>
	<path class="st0" d="M728.6,407.1c0,0,40.9,36.8,54.2,51.3s75.5,93.7,82.9,100.9c9.5,9.3,33.3,10.7,44.2,1.2
		c2-1.7,12.5-10.4,5.8-26.4s-57.7-84.9-82.5-115.2l0,0l0,0c-1-1.3-2-2.5-3-3.6l0,0c-2.2-2.7-4.4-5.4-6.6-8c-1.3-1.6-2-2.4-2-2.4l0,0
		c-70.3-80.3-157.2-80.6-170.1-79.5"/>
	<path class="st0" d="M874.5,547.9c0,0-2.1,8-4,16.9c-1.8,8.8-21.3,7.2-19.4-5.8c1.8-13.2,6.8-20.6,6.8-20.6"/>
	<path class="st0" d="M597.5,325c-15-1.3-97.4-4.7-169.9,78.1l0,0c0,0-0.7,0.8-2,2.4c-2.2,2.6-4.4,5.3-6.6,8l0,0c-1,1.1-2,2.3-3,3.6
		l0,0l0,0c-24.8,30.3-75.8,99.2-82.5,115.2s3.8,24.7,5.8,26.4c10.9,9.5,34.7,8.1,44.2-1.2c7.4-7.2,69.6-86.4,82.9-100.9
		s57.3-54.4,57.3-54.4"/>
	<path class="st0" d="M390.3,538.5c0,0,5,7.4,6.8,20.6c1.9,13-17.5,14.6-19.4,5.8c-1.8-8.9-4-16.9-4-16.9"/>
	<path class="st0" d="M592.7,328.3l8.3-39.6h49.5c0,0,4,21.2,7.5,40.2"/>
	<path class="st0" d="M623.8,295.4c-13.1,0-40.1-6.2-53.8-12.9c-4-2-7.2-4.5-9.5-7.4l0,0c-3.3-4.1-5-9-5.6-14.6
		c-0.4-3.9-0.2-8.1,0.4-12.5c0.5-3.2,1.1-6.8,2-10.8c1.3-5.7,3.1-12,5.4-18.8c0.8-2.4,1.7-4.9,2.7-7.5c1.6-4.2,3.4-8.6,5.4-13.1
		c2.2-5,4.6-10,7.3-15.1c12.2-23,40.5-24.7,45.9-24.8c5.4,0.1,33.7,1.8,45.9,24.8c2.7,5.1,5.1,10.1,7.3,15.1c2,4.5,3.8,8.9,5.4,13.1
		c1,2.5,1.9,5,2.7,7.5c2.3,6.8,4.1,13.1,5.4,18.8c0.9,4,1.6,7.6,2,10.8c0.6,4.4,0.8,8.6,0.4,12.5c-0.6,5.6-2.3,10.5-5.6,14.6l0,0
		c-2.3,2.9-5.5,5.4-9.5,7.4c-13.7,6.7-40.7,12.9-53.8,12.9H623.8z"/>
	<path d="M620.5,222.8c-0.4-0.4-0.9-0.8-1.5-1c-0.7-0.2-1.4-0.2-1.8,0.5c-0.8,1.1-0.9,4.9,1.4,3.5
		C619.3,225.4,621,223.8,620.5,222.8z"/>
	<path d="M627.7,222.8c0.4-0.4,0.9-0.8,1.5-1c0.7-0.2,1.4-0.2,1.8,0.5c0.8,1.1,0.9,4.9-1.4,3.5C628.9,225.4,627.2,223.8,627.7,222.8
		z"/>
	<path class="st1" d="M604.6,249.8c-2.5,0.9-4.4,3.9-3.2,6.4s4.7,4.4,7.5,4.3c-1.5,0.8-4.5-0.4-5.9-1.2c-1.7-1-3.3-2.3-3.7-4.3
		C598.7,251.8,602.4,249.8,604.6,249.8z"/>
	<path class="st1" d="M643.6,249.8c2.5,0.9,4.4,3.9,3.2,6.4s-4.7,4.4-7.5,4.3c1.5,0.8,4.5-0.4,5.9-1.2c1.7-1,3.3-2.3,3.7-4.3
		C649.5,251.8,645.8,249.8,643.6,249.8z"/>
	<path class="st1" d="M624.1,284.2c-0.4,0-9.3-0.2-16.1-5.6c0,0,4.2,7.4,16.1,7.9c11.9-0.5,16.1-7.9,16.1-7.9
		C633.4,284.1,624.5,284.2,624.1,284.2z"/>
	<path class="st1" d="M604.7,165.4c-0.9-0.6-2.3-0.1-3.2,0.2c-2,0.6-4,1.5-5.8,2.5c-2.4,1.3-5.4,2.8-6.5,5.5c-1.7,4,8.3,2.9,9.9,3
		c2.7,0.1,5.7,1.6,8.4,0.6c1.8-0.7,0.5-4,0.1-5.3c-0.5-1.8-1.3-3.5-1.9-5.3c-0.1-0.3-0.3-0.7-0.5-0.9
		C604.8,165.4,604.5,165.5,604.7,165.4z"/>
	<path class="st1" d="M643.5,165.4c0.9-0.6,2.3-0.1,3.2,0.2c2,0.6,4,1.5,5.8,2.5c2.4,1.3,5.4,2.8,6.5,5.5c1.7,4-8.3,2.9-9.9,3
		c-2.7,0.1-5.7,1.6-8.4,0.6c-1.8-0.7-0.5-4-0.1-5.3c0.5-1.8,1.3-3.5,1.9-5.3c0.1-0.3,0.3-0.7,0.5-0.9
		C643.4,165.4,643.7,165.5,643.5,165.4z"/>
	<path class="st1" d="M619.2,160.6c-2.4,0.1-4.9,0.4-7.2,0.9c-1.1,0.3-3.7,1.2-3.9,2.6c-0.1,0.7,0.4,1.4,0.8,1.9
		c0.7,0.9,1.3,1.8,2.1,2.7c1,1,2.2,3,3.7,2.1c1.8-1.1,1.1-3,1.6-4.7c0.4-1.3,1.2-2.5,2.1-3.6C618.9,161.9,619.8,160.8,619.2,160.6z"
		/>
	<path class="st1" d="M629,160.6c2.4,0.1,4.9,0.4,7.2,0.9c1.1,0.3,3.7,1.2,3.9,2.6c0.1,0.7-0.4,1.4-0.8,1.9
		c-0.7,0.9-1.3,1.8-2.1,2.7c-1,1-2.2,3-3.7,2.1c-1.8-1.1-1.1-3-1.6-4.7c-0.4-1.3-1.2-2.5-2.1-3.6C629.3,161.9,628.4,160.8,629,160.6
		z"/>
	<path class="st2" d="M585,177.8C585,177.8,585,177.7,585,177.8c-1.3-0.5-3.3,2.9-3.8,3.7c-0.9,1.4-1.5,2.9-1.7,4.5
		c-0.3,2.7,4.1,2.9,5.9,2.9c1.5,0,2.2-0.4,2.1-2c-0.2-2-0.8-4.3-1.3-6.3C586.1,179.9,585.8,178.2,585,177.8z"/>
	<path class="st2" d="M663.2,177.8C663.2,177.8,663.2,177.7,663.2,177.8c1.3-0.5,3.3,2.9,3.8,3.7c0.9,1.4,1.5,2.9,1.7,4.5
		c0.3,2.7-4.1,2.9-5.9,2.9c-1.5,0-2.2-0.4-2.1-2c0.2-2,0.8-4.3,1.3-6.3C662.1,179.9,662.4,178.2,663.2,177.8z"/>
	<path class="st3" d="M577.5,190.9c-1,0.6-1.7,1.5-2.4,2.4c-0.7,0.8-2.1,2.2-2,3.4c0,0.6,0.6,1.1,1.2,1.4c0.9,0.4,2.5,0.8,3.5,0.7
		c3.1-0.3,2.1-3.6,1.8-5.7C579.4,191.9,578.5,190.2,577.5,190.9z"/>
	<path class="st3" d="M670.7,190.9c1,0.6,1.7,1.5,2.4,2.4c0.7,0.8,2.1,2.2,2,3.4c0,0.6-0.6,1.1-1.2,1.4c-0.9,0.4-2.5,0.8-3.5,0.7
		c-3.1-0.3-2.1-3.6-1.8-5.7C668.8,191.9,669.7,190.2,670.7,190.9z"/>
	<path class="st3" d="M575.6,202.4c-0.2-0.9-1.2-1.2-2.1-0.9c-1.1,0.4-1.9,1.8-2.4,2.7c-0.7,1.5-1.2,4.1,0.5,5c1.7,0.8,3.2-1,4-2.3
		C576.5,205.7,576.3,204.7,575.6,202.4z"/>
	<path class="st3" d="M672.6,202.4c0.2-0.9,1.2-1.2,2.1-0.9c1.1,0.4,1.9,1.8,2.4,2.7c0.7,1.5,1.2,4.1-0.5,5c-1.7,0.8-3.2-1-4-2.3
		C671.7,205.7,671.9,204.7,672.6,202.4z"/>
	<path class="st4" d="M574.6,212.9c-0.1-0.1-0.2-0.2-0.3-0.3c-0.7-0.5-1.1-0.3-1.9-0.2c-1.6,0.3-3.2,0.1-4.4,1.5
		c-1.1,1.3-1.6,2.7-1.7,4.5c-0.1,1.2-1,4.3,0,5.2c1.3,1.1,3.1-1.3,4.1-1.9c0.6-0.3,1.4-0.6,2.1-0.5c0.7,0.1,1.1,0.4,1.8,0
		c1.2-0.6,0.3-1.6-0.2-2.5c-0.6-1-0.8-2-0.1-3C574.6,214.8,575.5,213.8,574.6,212.9z"/>
	<path class="st4" d="M673.6,212.9c0.1-0.1,0.2-0.2,0.3-0.3c0.7-0.5,1.1-0.3,1.9-0.2c1.6,0.3,3.2,0.1,4.4,1.5
		c1.1,1.3,1.6,2.7,1.7,4.5c0.1,1.2,1,4.3,0,5.2c-1.3,1.1-3.1-1.3-4.1-1.9c-0.6-0.3-1.4-0.6-2.1-0.5c-0.7,0.1-1.1,0.4-1.8,0
		c-1.2-0.6-0.3-1.6,0.2-2.5c0.6-1,0.8-2,0.1-3C673.6,214.8,672.7,213.8,673.6,212.9z"/>
	<path class="st5" d="M571,225.2c-1.2-1-3.5,1.1-4.4,1.8c-1.6,1.3-2.3,2.4-0.9,4.3c0.6,0.8,1.8,2.3,2.9,2.3c0.9,0.1,2.2-1.1,2.9-1.6
		c1.2-0.8,1-1.6,0.6-2.9C571.9,228.3,571.4,225.4,571,225.2z"/>
	<path class="st6" d="M565.4,236c-0.7-0.9-2.4-1.3-3.4-0.7c-1.4,0.7-1.9,2.7-2.3,4.1c-0.7,2.6-1.7,5.1-1.6,7.9
		c0.1,1.4,1,2.1,2.4,1.8c1.6-0.2,3.3-0.8,5-1.2c0.8-0.2,2.4-0.3,2.8-1.1c0.9-1.6-0.5-3.6-1-5C567.3,241.2,566.5,235.3,565.4,236z"/>
	<path class="st6" d="M682.8,236c0.7-0.9,2.4-1.3,3.4-0.7c1.4,0.7,1.9,2.7,2.3,4.1c0.7,2.6,1.7,5.1,1.6,7.9c-0.1,1.4-1,2.1-2.4,1.8
		c-1.6-0.2-3.3-0.8-5-1.2c-0.8-0.2-2.4-0.3-2.8-1.1c-0.9-1.6,0.5-3.6,1-5C680.9,241.2,681.7,235.3,682.8,236z"/>
	<path class="st7" d="M561.1,252.4c-1.3,0-2.3-0.8-3.4,0.4c-1,1.2-1.1,3-1,4.4c0,1.2,0.3,2.8,1.1,3.8c1.1,1.3,2.4,0.2,3.5-0.3
		c0.9-0.4,2.4-0.8,3-1.7c0.7-0.9,0.3-2.2-0.1-3.1C563.6,254.8,562,252.6,561.1,252.4z"/>
	<path class="st7" d="M687.1,252.4c1.3,0,2.3-0.8,3.4,0.4c1,1.2,1.1,3,1,4.4c0,1.2-0.3,2.8-1.1,3.8c-1.1,1.3-2.4,0.2-3.5-0.3
		c-0.9-0.4-2.4-0.8-3-1.7c-0.7-0.9-0.3-2.2,0.1-3.1C684.6,254.8,686.2,252.6,687.1,252.4z"/>
	<path class="st8" d="M575.3,276.1c-1.1,0.1-2.2-0.2-3.2,0.3c-1.3,0.8-0.8,1.4,0.1,2.2c1.1,1,2.2,1.7,3.7,2.3
		c0.5,0.2,1.7,0.9,2.3,0.7C580.6,280.7,575.9,276.8,575.3,276.1z"/>
	<path class="st8" d="M672.9,276.1c1.1,0.1,2.2-0.2,3.2,0.3c1.3,0.8,0.8,1.4-0.1,2.2c-1.1,1-2.2,1.7-3.7,2.3
		c-0.5,0.2-1.7,0.9-2.3,0.7C667.6,280.7,672.3,276.8,672.9,276.1z"/>
	<path class="st9" d="M564.7,272.4c-0.7-0.3-2.1-1.6-2.9-1.4c-1.3,0.4,0.7,3.1,1.1,3.6c0.4,0.5,4.2,4.3,3.9,1.6
		c-0.1-0.5-0.5-1.1-0.7-1.5c-0.1-0.3-0.1-0.7-0.3-1C565.5,273.2,564.9,272.7,564.7,272.4z"/>
	<path class="st9" d="M683.5,272.4c0.7-0.3,2.1-1.6,2.9-1.4c1.3,0.4-0.7,3.1-1.1,3.6c-0.4,0.5-4.2,4.3-3.9,1.6
		c0.1-0.5,0.5-1.1,0.7-1.5c0.1-0.3,0.1-0.7,0.3-1C682.7,273.2,683.3,272.7,683.5,272.4z"/>
	<path class="st10" d="M587.6,282.5c-0.8-1.2-4.4-0.9-5.3,0c0.5,0.6,1.5,0.9,2.2,1.2c0.7,0.3,1.4,0.7,2.2,1c0.5,0.2,2.3,1,2.9,0.8
		C591,285.1,588.3,283,587.6,282.5z"/>
	<path class="st10" d="M660.6,282.5c0.8-1.2,4.4-0.9,5.3,0c-0.5,0.6-1.5,0.9-2.2,1.2c-0.7,0.3-1.4,0.7-2.2,1c-0.5,0.2-2.3,1-2.9,0.8
		C657.2,285.1,659.9,283,660.6,282.5z"/>
	<path class="st11" d="M560.5,275c-3.3-4.1-5-9-5.6-14.6c0.3,0.6,0.7,1.2,1.1,1.8c0.9,1.3,2.3,2,3,3.3c0.6,1,0.7,2.3,0.7,3.5
		c0.1,1.7,0.1,3.3,0.4,5C560.3,274.2,560.4,274.6,560.5,275z"/>
	<path class="st11" d="M687.7,275c3.3-4.1,5-9,5.6-14.6c-0.3,0.6-0.7,1.2-1.1,1.8c-0.9,1.3-2.3,2-3,3.3c-0.6,1-0.7,2.3-0.7,3.5
		c-0.1,1.7-0.1,3.3-0.4,5C687.9,274.2,687.8,274.6,687.7,275z"/>
	<path class="st1" d="M624.1,162.5c-2,0.4-4.1,0.5-5,2.7c-0.4,1.2-0.8,2.5-0.9,3.7c-0.2,1.1-0.5,2.3-0.2,3.5c0.6,1.8,2.7,3.3,4,4.5
		c0.5,0.4,1.3,1.1,2,1.3c0.7-0.2,1.5-0.9,2-1.3c1.4-1.2,3.4-2.8,4-4.5c0.4-1.1,0-2.3-0.2-3.5c-0.2-1.2-0.5-2.5-0.9-3.7
		C628.2,163,626.1,162.9,624.1,162.5z"/>
	<path class="st8" d="M634.2,219.2c-0.6-4.7-4.1-9.2-6.9-12c-1.9-2-5.1-2-7,0c-2.8,2.9-6.3,7.3-6.9,12c0,0-0.3,2.1,2.2-0.5
		c3-3.1,10.6-7,16.4,0C634.3,221.5,634.2,219.2,634.2,219.2z"/>
	<g>
		<path d="M596.4,194.5c-0.7-0.3-2.1-0.1-1.6,0.9c0.2,0.5,0.9,1,1.3,1.3c0.8,0.6,1.4,1.2,2.2,1.8c1.3,1.1,2.7,2.3,4.2,3.3
			c0.6,0.4,1.9,1.7,2.7,1.4c1.5-0.4-1-2.1-1.3-2.4c-0.9-0.7-1.8-1.6-2.8-2.3c-0.9-0.6-1.7-1.1-2.4-1.9
			C597.6,195.9,596.7,195.1,596.4,194.5z"/>
		<circle id="rightBrow1_1_" cx="592.4" cy="203.2" r="0.8"/>
		<circle id="rightBrow4_1_" cx="615.7" cy="206.2" r="0.8"/>
		<circle id="rightBrow3_1_" cx="605.9" cy="202.2" r="0.8"/>
		<circle id="rightBrow0_1_" cx="588.4" cy="206.9" r="0.8"/>
		<circle id="rightBrow2_1_" cx="598.6" cy="202.2" r="0.8"/>
	</g>
	<g>
		<path d="M651.8,194.5c0.7-0.3,2.1-0.1,1.6,0.9c-0.2,0.5-0.9,1-1.3,1.3c-0.8,0.6-1.4,1.2-2.2,1.8c-1.3,1.1-2.7,2.3-4.2,3.3
			c-0.6,0.4-1.9,1.7-2.7,1.4c-1.5-0.4,1-2.1,1.3-2.4c0.9-0.7,1.8-1.6,2.8-2.3c0.9-0.6,1.7-1.1,2.4-1.9
			C650.6,195.9,651.5,195.1,651.8,194.5z"/>
		<circle id="leftBrow1_1_" cx="656.1" cy="203.6" r="0.8"/>
		<circle id="leftBrow4_1_" cx="632.5" cy="205.7" r="0.8"/>
		<circle id="leftBrow3_1_" cx="642.5" cy="202.5" r="0.8"/>
		<circle id="leftBrow0_1_" cx="660.1" cy="206.5" r="0.8"/>
		<circle id="leftBrow2_1_" cx="649.8" cy="202.1" r="0.8"/>
	</g>
	<g>
		<path class="st12" d="M584.1,213.7c0,0.5-4.2,9.2-1.4,11.2c7.2,5.2,18.8-4.6,18.8-4.6L584.1,213.7z"/>
		<path class="st8" d="M584.1,213.7c0,0,3-7,9.7-7.1c2.2,0,3.4,2,4.8,4.6c1.4,2.6,3,9,3,9L584.1,213.7z"/>
		<path d="M601.6,220.3c0,0-8,4.9-12.9,2.9c-5-2-4.5-9.5-4.5-9.5s6-6.3,10.7-4.1C599.5,211.7,601.6,220.3,601.6,220.3z"/>
		
			<ellipse transform="matrix(0.4422 -0.8969 0.8969 0.4422 137.6127 647.1742)" class="st13" cx="589.1" cy="212.9" rx="1.6" ry="0.9"/>
		<circle id="rightEye0_1_" cx="594.6" cy="215.1" r="0.8"/>
		<circle id="rightEye1_1_" cx="599.8" cy="211.4" r="0.8"/>
		<circle id="rightEye5_1_" cx="599.8" cy="217.4" r="0.8"/>
		<circle id="rightEye2_1_" cx="606.1" cy="211.4" r="0.8"/>
		<circle id="rightEye3_1_" cx="611.3" cy="215.6" r="0.8"/>
		<circle id="rightEye4_1_" cx="606.1" cy="216.6" r="0.8"/>
	</g>
	<g>
		<path class="st12" d="M664.1,213.7c0,0.5,4.2,9.2,1.4,11.2c-7.2,5.2-18.8-4.6-18.8-4.6L664.1,213.7z"/>
		<path class="st8" d="M664.1,213.7c0,0-3-7-9.7-7.1c-2.2,0-3.4,2-4.8,4.6c-1.4,2.6-3,9-3,9L664.1,213.7z"/>
		<path d="M646.6,220.3c0,0,8,4.9,12.9,2.9c5-2,4.5-9.5,4.5-9.5s-6-6.3-10.7-4.1C648.7,211.7,646.6,220.3,646.6,220.3z"/>
		
			<ellipse transform="matrix(0.8969 -0.4422 0.4422 0.8969 -26.2272 313.4048)" class="st13" cx="659.1" cy="213" rx="0.9" ry="1.6"/>
		<circle id="leftEye0_1_" cx="654.2" cy="215.1" r="0.8"/>
		<circle id="leftEye1_1_" cx="649" cy="211.4" r="0.8"/>
		<circle id="leftEye5_1_" cx="649" cy="217.4" r="0.8"/>
		<circle id="leftEye2_1_" cx="642.7" cy="211.4" r="0.8"/>
		<circle id="leftEye3_1_" cx="637.5" cy="215.6" r="0.8"/>
		<circle id="leftEye4_1_" cx="642.7" cy="216.6" r="0.8"/>
	</g>
	<path class="st14" d="M624.1,253.7c-0.3,0-2.2-0.7-4.1-0.8c-3-0.1-4.7,0.4-8.9,2.5c0.4,0.2,1.5,1,2,1.2c1.8,0.9,3.2,1.7,5.1,2.4
		c1.7,0.6,4.3,1.3,5.9,1.3s4.2-0.7,5.9-1.3c1.9-0.7,3.3-1.4,5.1-2.4c0.5-0.3,1.6-1,2-1.2c-4.2-2.1-5.9-2.6-8.9-2.5
		C626.3,253,624.4,253.6,624.1,253.7z"/>
</g>
<g id="skeleton_1_">
	<polygon class="st15" points="518.8,349.5 569.1,565.3 685.5,564.5 731.7,349.5 	"/>
	<polyline class="st15" points="517.8,349.5 445.4,431.1 352,547.5 	"/>
	<polyline class="st15" points="733.2,349.1 806.2,430.7 899.6,547 	"/>
	<polyline class="st15" points="569.1,565.3 575.5,725.5 575.5,933.5 	"/>
	<polyline class="st15" points="685.5,564.5 685.5,725.5 685.5,933.5 	"/>
	<polyline class="st15" points="624.5,170 604.7,172.5 592.2,182 583.6,196.1 581.1,205.4 580.3,217.1 580.3,226.6 581.1,248.3 
		587.9,268.3 599.5,280.8 609.5,287.5 624.5,290.7 639.3,287.9 649.3,281.2 660.9,268.6 667.7,248.6 668.5,227 668.5,217.4 
		667.7,205.7 665.2,196.5 657,182 644.4,172.5 624.5,170 	"/>
	<polyline class="st15" points="588.5,206.9 592.5,203.2 598.7,202.2 606,202.2 615.8,206.2 	"/>
	<polygon class="st15" points="594.7,215.1 599.9,211.4 606.2,211.4 611.4,215.6 606.2,216.6 599.9,217.4 	"/>
	<polyline class="st15" points="613,233.2 618.2,233.2 623.7,234 623.7,228.7 623.7,221.6 623.7,216.1 623.7,210.3 	"/>
	<polyline class="st15" points="660,206.5 656,203.6 649.7,202.1 642.4,202.5 632.4,205.7 	"/>
	<polygon class="st15" points="654.1,215.1 648.8,211.4 642.5,211.4 637.4,215.6 642.5,216.6 648.8,217.4 	"/>
	<polyline class="st15" points="634.1,233.2 629.1,233.2 623.7,234 	"/>
	<polygon class="st15" points="607,255.3 613.9,251.9 620.4,250.8 624.5,251.7 628.7,250.8 635.1,251.9 642,255.3 635.6,261.6 
		628.5,264.4 624.5,264.9 620.4,264.4 613.4,261.6 	"/>
	<polyline class="st15" points="607,255.3 610.6,255.6 620.6,254.8 624.5,255.3 628.5,254.8 638.4,255.6 642,255.3 	"/>
	<polyline class="st15" points="607,255.3 610.6,255.6 620.6,257.7 624.5,258.5 628.5,257.7 638.4,255.6 642,255.3 	"/>
	<circle id="rightShoulder" cx="518.9" cy="349.2" r="8.2"/>
	<circle id="rightElbow" cx="445.4" cy="439.3" r="8.2"/>
	<circle id="rightWrist" cx="352" cy="555.7" r="8.2"/>
	<circle id="rightHip" cx="569.2" cy="565" r="8.2"/>
	<circle id="rightKnee" cx="575.6" cy="725.2" r="8.2"/>
	<circle id="rightAnkle" cx="575.6" cy="933.2" r="8.2"/>
	<circle id="leftElbow" cx="806.2" cy="438.9" r="8.2"/>
	<circle id="leftWrist" cx="899.6" cy="555.2" r="8.2"/>
	<circle id="leftHip" cx="685.6" cy="564.2" r="8.2"/>
	<circle id="leftKnee" cx="685.6" cy="725.2" r="8.2"/>
	<circle id="leftAnkle" cx="685.6" cy="933.2" r="8.2"/>
	<circle id="rightEye0" cx="594.7" cy="215.1" r="0.8"/>
	<circle id="rightBrow1" cx="592.5" cy="203.2" r="0.8"/>
	<circle id="rightBrow4" cx="615.8" cy="206.2" r="0.8"/>
	<circle id="nose1" cx="623.7" cy="216.1" r="0.8"/>
	<circle id="rightBrow3" cx="606" cy="202.2" r="0.8"/>
	<circle id="rightEye1" cx="599.9" cy="211.4" r="0.8"/>
	<circle id="rightBrow0" cx="588.5" cy="206.9" r="0.8"/>
	<circle id="rightBrow2" cx="598.7" cy="202.2" r="0.8"/>
	<circle id="rightEye5" cx="599.9" cy="217.4" r="0.8"/>
	<circle id="rightEye2" cx="606.2" cy="211.4" r="0.8"/>
	<circle id="rightEye3" cx="611.4" cy="215.6" r="0.8"/>
	<circle id="nose0" cx="623.7" cy="210.3" r="0.8"/>
	<circle id="nose3" cx="623.7" cy="228.7" r="0.8"/>
	<circle id="rightNose0" cx="613" cy="233.2" r="0.8"/>
	<circle id="rightMouthCorner" cx="607" cy="255.3" r="0.8"/>
	<circle id="rightNose1" cx="618.2" cy="233.2" r="0.8"/>
	<circle id="rightUpperLipTop0" cx="613.9" cy="251.9" r="0.8"/>
	<circle id="nose2" cx="623.7" cy="221.6" r="0.8"/>
	<circle id="nose4" cx="623.7" cy="234" r="0.8"/>
	<circle id="upperLipTopMid" cx="624.5" cy="251.7" r="0.8"/>
	<circle id="rightUpperLipTop1" cx="620.4" cy="250.8" r="0.8"/>
	<path id="rightMiddleLip" d="M610.6,254.8c0.4,0,0.8,0.4,0.8,0.8c0,0.4-0.4,0.8-0.8,0.8s-0.8-0.4-0.8-0.8S610.2,254.8,610.6,254.8z
		"/>
	<circle id="lowerLipBottomMid" cx="624.5" cy="264.9" r="0.8"/>
	<circle id="upperLipBottomMid" cx="624.5" cy="255.3" r="0.8"/>
	<circle id="lowerLipTopMid" cx="624.5" cy="258.4" r="0.8"/>
	<circle id="rightUpperLipBottom1" cx="620.6" cy="254.8" r="0.8"/>
	<circle id="rightLowerLipTop0" cx="620.6" cy="257.7" r="0.8"/>
	<circle id="rightLowerLipBottom1" cx="620.4" cy="264.4" r="0.8"/>
	<circle id="rightLowerLipBottom0" cx="613.4" cy="261.6" r="0.8"/>
	<circle id="rightEye4" cx="606.2" cy="216.6" r="0.8"/>
	<circle id="jawMid" cx="624.5" cy="290.7" r="0.8"/>
	<circle id="rightJaw7" cx="609.5" cy="287.5" r="0.8"/>
	<circle id="rightJaw6" cx="599.5" cy="280.8" r="0.8"/>
	<circle id="rightJaw5" cx="587.9" cy="268.3" r="0.8"/>
	<circle id="rightJaw4" cx="581.1" cy="248.3" r="0.8"/>
	<circle id="rightJaw3" cx="580.3" cy="226.6" r="0.8"/>
	<circle id="rightJaw2" cx="580.3" cy="217.1" r="0.8"/>
	<circle id="rightJaw1" cx="581.1" cy="205.4" r="0.8"/>
	<circle id="rightJaw0" cx="583.6" cy="196.1" r="0.8"/>
	<circle id="topMid" cx="624.7" cy="170" r="0.8"/>
	<circle id="leftTop0" cx="644.4" cy="172.5" r="0.8"/>
	<circle id="leftTop1" cx="657" cy="182" r="0.8"/>
	<circle id="leftEye0" cx="654.3" cy="215.1" r="0.8"/>
	<circle id="leftBrow1" cx="656.2" cy="203.6" r="0.8"/>
	<circle id="leftBrow4" cx="632.6" cy="205.7" r="0.8"/>
	<circle id="leftBrow3" cx="642.6" cy="202.5" r="0.8"/>
	<circle id="leftEye1" cx="649.1" cy="211.4" r="0.8"/>
	<circle id="leftBrow0" cx="660.2" cy="206.5" r="0.8"/>
	<circle id="leftBrow2" cx="649.9" cy="202.1" r="0.8"/>
	<circle id="leftEye5" cx="649.1" cy="217.4" r="0.8"/>
	<circle id="leftEye2" cx="642.8" cy="211.4" r="0.8"/>
	<circle id="leftEye3" cx="637.6" cy="215.6" r="0.8"/>
	<circle id="leftNose0" cx="634.1" cy="233.2" r="0.8"/>
	<circle id="leftMouthCorner" cx="642" cy="255.3" r="0.8"/>
	<circle id="leftNose1" cx="629.3" cy="233.2" r="0.8"/>
	<circle id="leftUpperLipTop0" cx="635.1" cy="251.9" r="0.8"/>
	<circle id="leftUpperLipTop1" cx="628.7" cy="250.8" r="0.8"/>
	<path id="leftMiddleLip" d="M638.4,254.8c0.4,0,0.8,0.4,0.8,0.8c0,0.4-0.4,0.8-0.8,0.8s-0.8-0.4-0.8-0.8S638,254.8,638.4,254.8z"/>
	<circle id="leftUpperLipBottom1" cx="628.5" cy="254.8" r="0.8"/>
	<circle id="leftLowerLipTop0" cx="628.5" cy="257.7" r="0.8"/>
	<circle id="leftLowerLipBottom1" cx="628.7" cy="264.4" r="0.8"/>
	<circle id="leftLowerLipBottom0" cx="635.6" cy="261.6" r="0.8"/>
	<circle id="leftEye4" cx="642.8" cy="216.6" r="0.8"/>
	<circle id="leftJaw7" cx="639.3" cy="287.9" r="0.8"/>
	<circle id="leftJaw6" cx="649.3" cy="281.2" r="0.8"/>
	<circle id="leftJaw5" cx="660.9" cy="268.6" r="0.8"/>
	<circle id="leftJaw4" cx="667.7" cy="248.6" r="0.8"/>
	<circle id="leftJaw3" cx="668.5" cy="227" r="0.8"/>
	<circle id="leftJaw2" cx="668.5" cy="217.4" r="0.8"/>
	<circle id="leftJaw1" cx="667.7" cy="205.7" r="0.8"/>
	<circle id="leftJaw0" cx="665.2" cy="196.5" r="0.8"/>
	<circle id="rightTop0" cx="604.8" cy="172.5" r="0.8"/>
	<circle id="rightTop1" cx="592.2" cy="182" r="0.8"/>
	<circle id="leftShoulder" cx="731.8" cy="349.2" r="8.2"/>
</g>
</svg>
