<?xml version="1.0" encoding="utf-8"?>
<!-- Generator: Adobe Illustrator 25.0.0, SVG Export Plug-In . SVG Version: 6.00 Build 0)  -->
<svg version="1.1" id="Shadow" xmlns="http://www.w3.org/2000/svg" xmlns:xlink="http://www.w3.org/1999/xlink" x="0px" y="0px"
	 viewBox="0 0 2560 1600" style="enable-background:new 0 0 2560 1600;" xml:space="preserve">
<style type="text/css">
	.st0{fill:url(#SVGID_1_);}
	.st1{fill:#282728;}
	.st2{fill:url(#SVGID_2_);}
	.st3{opacity:0.15;fill:#FFFFFF;}
	.st4{fill:url(#SVGID_3_);}
	.st5{fill:url(#SVGID_4_);}
	.st6{fill:#3D3C3D;}
	.st7{clip-path:url(#SVGID_6_);}
	.st8{fill:#E9E8ED;}
	.st9{fill:#EFE0D7;}
	.st10{fill:#DBC1AE;}
	.st11{fill:#C49D81;}
	.st12{fill:#8B6986;}
	.st13{fill:#7C5B79;}
	.st14{fill:#FAEDDB;}
	.st15{fill:#F0DCC2;}
	.st16{fill:#51A4AE;}
	.st17{fill:#2F969D;}
	.st18{fill:#8E88B2;}
	.st19{fill:#7D7AA3;}
	.st20{fill:#C1C1E1;}
	.st21{fill:#AEAED6;}
	.st22{fill:#6B4A69;}
	.st23{fill:#573956;}
	.st24{fill:#63536C;}
	.st25{fill:#DBEDFD;}
	.st26{fill:#EEF6FF;}
	.st27{fill:#634153;}
	.st28{fill:#4E3242;}
	.st29{fill:#7A5467;}
	.st30{fill:#684758;}
	.st31{fill:url(#SVGID_7_);}
	.st32{fill:#FBCF8A;}
	.st33{fill:#ECBD7E;}
	.st34{fill:url(#SVGID_8_);}
	.st35{fill:url(#SVGID_9_);}
	.st36{fill:#DFCFC5;}
	.st37{fill:#3C8C40;}
	.st38{fill:#378036;}
	.st39{fill:#58A955;}
	.st40{fill:#4A9746;}
	.st41{fill:#61BAB3;}
	.st42{fill:#4FACA3;}
	.st43{fill:#8CCCC8;}
	.st44{fill:#72BDB7;}
	.st45{fill:#426D99;}
	.st46{fill:#255981;}
	.st47{fill:#5279AA;}
	.st48{fill:#648CBC;}
	.st49{fill:#6C544C;}
	.st50{fill:#35648C;}
	.st51{fill:#194F74;}
	.st52{fill:#5B443F;}
	.st53{fill:#44709B;}
	.st54{fill:#5580AF;}
	.st55{fill:#636391;}
	.st56{fill:#3E3E67;}
	.st57{fill:#333356;}
	.st58{fill:#535382;}
	.st59{fill:#444472;}
	.st60{fill:url(#SVGID_10_);}
	.st61{fill:#8D716B;}
	.st62{fill:#B69689;}
	.st63{fill:#CCB0A3;}
	.st64{fill:#B9988B;}
	.st65{fill:#F18361;}
	.st66{fill:#DC6E4C;}
	.st67{fill:#124664;}
	.st68{fill:#543C61;}
	.st69{fill:#43304F;}
	.st70{clip-path:url(#SVGID_6_);fill:#A864C2;}
	.st71{fill:#FFFFFF;}
	.st72{fill:#F72814;}
	.st73{fill:none;stroke:#FFFFFF;stroke-miterlimit:10;}
	.st74{fill:none;}
	.st75{fill:#6E1908;}
	.st76{fill:#F8B0AA;}
	.st77{fill:#F88C87;}
	.st78{fill:#E8215F;}
	.st79{fill:#891937;}
	.st80{fill:none;stroke:#000000;stroke-width:0;stroke-linecap:round;stroke-linejoin:round;}
	.st81{fill:#FA1B1C;}
	.st82{fill:#B5B5B5;}
	.st83{fill:#D1D1D1;}
	.st84{opacity:0.4;fill:#A864C2;}
	.st85{fill:#ABAFD4;}
	.st86{fill:#FCFCFC;}
	.st87{font-family:'MyriadPro-Regular';}
	.st88{font-size:29.7248px;}
	.st89{fill:#90CCD6;}
	.st90{fill:#CCCCCC;}
	.st91{fill:#737373;}
	.st92{fill:#358084;}
	.st93{fill:#549E9E;}
	.st94{fill:#7C3000;stroke:#000000;stroke-miterlimit:10;}
	.st95{fill:#FFFFD4;stroke:#5E5D37;stroke-miterlimit:10;}
	.st96{fill:#FFFFFF;stroke:#647777;stroke-miterlimit:10;}
	.st97{fill:#CCCCCC;stroke:#636363;stroke-miterlimit:10;}
	.st98{fill:#90CCD6;stroke:#358084;stroke-miterlimit:10;}
</style>
<g>	
	<g>		
		<g>
			<g>
				<g>
					<linearGradient id="SVGID_1_" gradientUnits="userSpaceOnUse" x1="233.4845" y1="679.3633" x2="929.2927" y2="-16.4449">
						<stop  offset="0" style="stop-color:#969696"/>
						<stop  offset="0.6002" style="stop-color:#F0F0F0"/>
						<stop  offset="1" style="stop-color:#E5E5E6"/>
					</linearGradient>
					<path class="st0" d="M999.8,600.8c0,10.7-8.6,19.3-19.2,19.3H182.2c-10.6,0-19.2-8.6-19.2-19.3V62.1c0-10.7,8.6-19.3,19.2-19.3
						h798.4c10.6,0,19.2,8.6,19.2,19.3V600.8z"/>
					<path class="st1" d="M999.8,544.1v-482c0-10.7-8.6-19.3-19.2-19.3H182.2c-10.6,0-19.2,8.6-19.2,19.3v482H999.8z"/>
					<linearGradient id="SVGID_2_" gradientUnits="userSpaceOnUse" x1="276.3794" y1="-12.6982" x2="886.3964" y2="597.3188">
						<stop  offset="0" style="stop-color:#00A8C3"/>
						<stop  offset="1" style="stop-color:#152B84"/>
					</linearGradient>
					<rect x="193.7" y="70" class="st2" width="775.4" height="444.6"/>
					<path class="st3" d="M981.5,42.8H770.5L581.4,544.1h419.4v-482C1000.8,51.4,992.2,42.8,981.5,42.8z"/>
				</g>
				<g>
					<linearGradient id="SVGID_3_" gradientUnits="userSpaceOnUse" x1="581.8578" y1="706.1794" x2="581.8578" y2="620.1089">
						<stop  offset="0" style="stop-color:#A4A4A4"/>
						<stop  offset="0.1133" style="stop-color:#989898"/>
						<stop  offset="0.2042" style="stop-color:#C8C9CA"/>
						<stop  offset="0.4537" style="stop-color:#FFFFFF"/>
						<stop  offset="1" style="stop-color:#969696"/>
					</linearGradient>
					<path class="st4" d="M722.6,705c-1.4-0.4-28.5-5.5-30.2-6.2c-1.8-0.7-4.1-1.3-4.8-2.9c-7-17-12-75.8-12-75.8h-95.7H488
						c0,0-5,58.8-12,75.8c-0.7,1.6-3,2.2-4.8,2.9c-1.7,0.7-28.8,5.9-30.2,6.2c-1.4,0.8-1.1,1.1-1.1,1.1h140h143.8
						C723.8,706.2,724,705.5,722.6,705z"/>
					<linearGradient id="SVGID_4_" gradientUnits="userSpaceOnUse" x1="439.9446" y1="707.1688" x2="723.7964" y2="707.1688">
						<stop  offset="1.108100e-02" style="stop-color:#1F1F1F"/>
						<stop  offset="5.066170e-02" style="stop-color:#848484"/>
						<stop  offset="0.5463" style="stop-color:#FFFFFF"/>
						<stop  offset="0.7958" style="stop-color:#C8C9CA"/>
						<stop  offset="0.8867" style="stop-color:#989898"/>
						<stop  offset="0.9477" style="stop-color:#ACADAE"/>
						<stop  offset="1" style="stop-color:#393939"/>
					</linearGradient>
					<rect x="439.9" y="706.2" class="st5" width="283.9" height="2"/>
					<rect x="441.3" y="708.2" class="st6" width="281.3" height="1.5"/>
				</g>
			</g>
		</g>
	</g>
	<g>
		<defs>
			<rect id="SVGID_5_" x="192.7" y="68.2" width="775.4" height="448.3"/>
		</defs>
		<clipPath id="SVGID_6_">
			<use xlink:href="#SVGID_5_"  style="overflow:visible;"/>
		</clipPath>
		<g class="st7">
			<g>
				<rect x="193.8" y="69.8" class="st8" width="774.5" height="409.2"/>
				<g>
					<rect x="193.8" y="489.6" class="st9" width="774.5" height="96.4"/>
					<g>
						<rect x="193.8" y="471.5" class="st10" width="774.5" height="18.1"/>
						<rect x="193.8" y="470.3" class="st11" width="774.5" height="1.8"/>
					</g>
				</g>
			</g>
			<g>
				<g>
					<rect x="241.4" y="204.6" class="st12" width="104.4" height="207.9"/>
					<path class="st13" d="M315.4,303.5c0.7,38-9.4,76.2-28.5,109h58.9V204.6h-57.5C305.3,234.7,314.8,269,315.4,303.5z"/>
					<path class="st13" d="M315.4,303.5c0.7,38-9.4,76.2-28.5,109h58.9V204.6h-57.5C305.3,234.7,314.8,269,315.4,303.5z"/>
					<g>
						<rect x="247.3" y="210.6" class="st14" width="92.5" height="196"/>
						<path class="st15" d="M339.8,406.5v-196h-48.3c14.9,28.6,23.3,60.7,23.9,92.9c0.7,35.8-8.2,71.6-25.2,103H339.8z"/>
					</g>
					<g>
						<g>
							<rect x="261.7" y="224.9" class="st16" width="63.8" height="167.3"/>
							<path class="st17" d="M315.4,303.5c0.6,30.4-5.8,60.9-18.2,88.7h28.2V224.9h-27.2C309,249.7,314.9,276.5,315.4,303.5z"/>
						</g>
						<g>
							<polygon class="st18" points="325.5,224.9 261.7,302.3 261.7,224.9 							"/>
							<path class="st19" d="M306.6,247.8l18.8-22.9h-27.2C301.5,232.3,304.3,240,306.6,247.8z"/>
						</g>
						<g>
							<polygon class="st20" points="281,278.8 316.9,392.2 325.5,392.2 325.5,224.9 							"/>
							<path class="st21" d="M315.4,303.5c0.4,20.1-2.3,40.3-7.7,59.7l9.2,29h8.6V224.9l-18.8,22.9
								C312.1,265.8,315.1,284.6,315.4,303.5z"/>
						</g>
					</g>
					<g>
						<g>
							<polygon class="st22" points="345.8,412.5 339.8,406.5 247.3,406.5 241.4,412.5 							"/>
							<path class="st23" d="M290.2,406.5c-1.1,2-2.2,4-3.3,6h58.9l-6-6H290.2z"/>
						</g>
						<g>
							<polygon class="st22" points="345.8,204.6 339.8,210.6 247.3,210.6 241.4,204.6 							"/>
							<path class="st23" d="M339.8,210.6l6-6h-57.5c1.1,2,2.2,4,3.2,6H339.8z"/>
						</g>
					</g>
				</g>
				<g>
					<rect x="357.9" y="283.5" class="st12" width="104.4" height="152.7"/>
					<path class="st13" d="M424.7,313.7c11.1,40.2,8.1,84-7.7,122.6h45.4V283.5h-49.5C418,293,421.8,303.3,424.7,313.7z"/>
					<g>
						<rect x="363.9" y="289.5" class="st14" width="92.5" height="140.8"/>
						<path class="st15" d="M424.7,313.7c10.5,38.1,8.3,79.5-5.4,116.6h37.1V289.5h-40.5C419.5,297.2,422.4,305.4,424.7,313.7z"/>
					</g>
					<g>
						<g>
							<polygon class="st22" points="363.9,430.3 357.9,436.2 462.3,436.2 456.3,430.3 							"/>
							<path class="st23" d="M419.2,430.3c-0.7,2-1.5,4-2.3,6h45.4l-6-6H419.2z"/>
						</g>
						<g>
							<polygon class="st22" points="357.9,283.5 363.9,289.5 456.3,289.5 462.3,283.5 							"/>
							<path class="st23" d="M456.3,289.5l6-6h-49.5c1.1,2,2,3.9,3,6H456.3z"/>
						</g>
					</g>
					<g>
						<rect x="378.2" y="303.8" class="st18" width="63.8" height="112.1"/>
						<g>
							<polygon class="st16" points="402.2,415.9 442,312.5 442,415.9 							"/>
							<path class="st17" d="M423.9,415.9H442V312.5l-11.8,30.7C432.8,367.5,430.6,392.4,423.9,415.9z"/>
						</g>
						<g>
							<polygon class="st20" points="378.2,316.3 413.1,387.5 442,312.5 442,303.8 378.2,303.8 							"/>
							<path class="st21" d="M424.7,313.7c2.7,9.7,4.5,19.5,5.5,29.5l11.8-30.7v-8.6h-20.4C422.7,307.1,423.7,310.4,424.7,313.7z"/>
						</g>
					</g>
				</g>
				<g>
					<rect x="357.9" y="166.8" class="st12" width="104.4" height="104.4"/>
					<path class="st13" d="M462.3,271.2V166.8h-51.9c9.5,15.3,14.9,33.2,15.2,51.2c0.2,18.6-5,37.3-14.7,53.2H462.3z"/>
					<g>
						<rect x="363.9" y="172.8" class="st14" width="92.5" height="92.5"/>
						<path class="st15" d="M425.5,218c0.2,16.4-3.8,32.7-11.4,47.2h42.2v-92.5h-42.6C421.2,186.7,425.3,202.3,425.5,218z"/>
					</g>
					<g>
						<g>
							<polygon class="st22" points="363.9,265.2 357.9,271.2 462.3,271.2 456.3,265.2 							"/>
							<path class="st23" d="M414.1,265.2c-1.1,2-2.2,4-3.4,6h51.5l-6-6H414.1z"/>
						</g>
						<g>
							<polygon class="st22" points="357.9,166.8 363.9,172.8 456.3,172.8 462.3,166.8 							"/>
							<path class="st23" d="M456.3,172.8l6-6h-51.9c1.2,1.9,2.3,3.9,3.4,6H456.3z"/>
						</g>
					</g>
					<g>
						<g>
							<rect x="378.2" y="187.1" class="st20" width="63.8" height="63.8"/>
							<path class="st21" d="M425.5,218c0.1,11.2-1.7,22.3-5.3,32.9H442v-63.8h-22C423.5,197,425.4,207.5,425.5,218z"/>
						</g>
						<g>
							<polygon class="st18" points="397.8,187.1 434.5,250.9 442,250.9 442,187.1 							"/>
							<path class="st19" d="M425.5,218c0.1,5.2-0.3,10.3-1.1,15.5l10,17.4h7.5v-63.8h-22C423.5,197,425.4,207.5,425.5,218z"/>
						</g>
						<polygon class="st16" points="378.2,239.6 411.4,210.6 397.8,187.1 378.2,187.1 						"/>
					</g>
				</g>
			</g>
			<g>
				<g>
					<rect x="518.5" y="152.8" class="st24" width="154.5" height="336.8"/>
					<g>
						<g>
							<rect x="528.7" y="163.1" class="st25" width="134" height="316.3"/>
							<g>
								<polygon class="st26" points="528.7,338.6 528.7,409.7 603.5,163.1 582,163.1 								"/>
								<polygon class="st26" points="531.9,479.4 567.2,479.4 662.8,164.3 662.8,163.1 627.8,163.1 								"/>
								<polygon class="st26" points="662.8,293.3 662.8,243 591.1,479.4 606.3,479.4 								"/>
							</g>
						</g>
						<polygon class="st24" points="667.1,210.6 667.1,208.5 596.8,208.5 596.8,159.3 594.7,159.3 594.7,208.5 525.4,208.5 
							525.4,210.6 594.7,210.6 594.7,431.4 525.4,431.4 525.4,433.4 594.7,433.4 594.7,484.8 596.8,484.8 596.8,433.4 667.1,433.4 
							667.1,431.4 596.8,431.4 596.8,210.6 						"/>
					</g>
				</g>
				<g>
					<rect x="689.3" y="152.8" class="st24" width="154.5" height="336.8"/>
					<g>
						<g>
							<rect x="699.5" y="163.1" class="st25" width="134" height="316.3"/>
							<g>
								<polygon class="st26" points="699.5,338.6 699.5,409.7 774.3,163.1 752.8,163.1 								"/>
								<polygon class="st26" points="702.7,479.4 738,479.4 833.6,164.3 833.6,163.1 798.6,163.1 								"/>
								<polygon class="st26" points="833.6,293.3 833.6,243 761.9,479.4 777.2,479.4 								"/>
							</g>
						</g>
						<polygon class="st24" points="837.9,210.6 837.9,208.5 767.6,208.5 767.6,159.3 765.5,159.3 765.5,208.5 696.2,208.5 
							696.2,210.6 765.5,210.6 765.5,431.4 696.2,431.4 696.2,433.4 765.5,433.4 765.5,484.8 767.6,484.8 767.6,433.4 837.9,433.4 
							837.9,431.4 767.6,431.4 767.6,210.6 						"/>
					</g>
				</g>
				<g>
					<rect x="860.1" y="152.8" class="st24" width="109.1" height="336.8"/>
					<g>
						<g>
							<rect x="870.3" y="163.1" class="st25" width="98.9" height="316.3"/>
							<g>
								<polygon class="st26" points="870.3,338.6 870.3,409.7 945.1,163.1 923.6,163.1 								"/>
								<polygon class="st26" points="969.2,163.8 873.5,479.4 908.8,479.4 969.2,280.3 								"/>
								<polygon class="st26" points="969.2,358.9 932.7,479.4 948,479.4 969.2,409.3 								"/>
							</g>
						</g>
						<g>
							<g>
								<rect x="936.3" y="159.3" class="st24" width="2.1" height="325.5"/>
							</g>
							<g>
								<rect x="867" y="208.5" class="st24" width="101.6" height="2.1"/>
							</g>
							<g>
								<rect x="867" y="431.4" class="st24" width="102.3" height="2.1"/>
							</g>
						</g>
					</g>
				</g>
			</g>
			<g>
				<g>
					<path class="st27" d="M728.3,79.9h-88.6V69.8H637v10.1H527V69.8h-2.7v10.1h-88.6c-1.6,0-3,1.3-3,3c0,1.6,1.3,3,3,3h292.5
						c1.6,0,3-1.3,3-3C731.2,81.2,729.9,79.9,728.3,79.9z"/>
					<path class="st28" d="M731.2,82.8c0-1.6-1.3-3-3-3h-88.6V69.8H637v10.1h-53c0.8,1.6,1.6,3.2,2.3,4.9c0.1,0.3,0.2,0.7,0.4,1
						h141.6C729.9,85.8,731.2,84.5,731.2,82.8z"/>
				</g>
				<g>
					<g>
						<g>
							<path class="st29" d="M479,93.2c0-0.2,0-0.4,0-0.6c0-5.4-4.4-9.8-9.8-9.8c-5.4,0-9.8,4.4-9.8,9.8c0,0.2,0,0.4,0,0.6
								c-12.6,4.1-21.7,15.9-21.7,29.9h62.8C500.7,109.1,491.6,97.3,479,93.2z"/>
							<path class="st30" d="M500.7,123c0-13.9-9.1-25.8-21.7-29.9c0-0.2,0-0.4,0-0.6c0-5.4-4.4-9.8-9.8-9.8c-1.5,0-3,0.4-4.3,1
								c2.7,5.4,4.6,11.3,5.5,17.3c1.1,7.3,0.8,14.7-0.8,21.9H500.7z"/>
						</g>
						<g>
							<path class="st27" d="M503.4,126h-68.2c-0.8,0-1.5-0.7-1.5-1.5l0,0c0-0.8,0.7-1.5,1.5-1.5h68.2c0.8,0,1.5,0.7,1.5,1.5l0,0
								C504.9,125.4,504.2,126,503.4,126z"/>
							<path class="st28" d="M503.4,123h-33.7c-0.2,1-0.5,2-0.8,3h34.5c0.8,0,1.5-0.7,1.5-1.5C504.9,123.7,504.2,123,503.4,123z"/>
						</g>
						<g>
							<linearGradient id="SVGID_7_" gradientUnits="userSpaceOnUse" x1="469.2928" y1="148.7021" x2="469.2928" y2="126.0482">
								<stop  offset="0" style="stop-color:#FFFFFF;stop-opacity:0"/>
								<stop  offset="1" style="stop-color:#F8CD7B"/>
							</linearGradient>
							<polygon class="st31" points="489.2,148.7 449.4,148.7 454.6,126 484,126 							"/>
							<g>
								<path class="st32" d="M454.6,126.1c2.6,5.5,8.2,9.4,14.7,9.4c6.5,0,12.1-3.8,14.7-9.4H454.6z"/>
								<path class="st33" d="M484,126.1h-11.3c-0.5,1.4-1.3,2.7-2.3,3.7c-2.1,2.1-4.9,3.4-7.8,4.1c0,0-0.1,0-0.1,0
									c2.1,1,4.4,1.5,6.9,1.5C475.8,135.4,481.4,131.6,484,126.1z"/>
							</g>
						</g>
					</g>
					<g>
						<g>
							<path class="st29" d="M591.7,93.2c0-0.2,0-0.4,0-0.6c0-5.4-4.4-9.8-9.8-9.8c-5.4,0-9.8,4.4-9.8,9.8c0,0.2,0,0.4,0,0.6
								c-12.6,4.1-21.7,15.9-21.7,29.9h62.8C613.4,109.1,604.3,97.3,591.7,93.2z"/>
							<path class="st30" d="M613.4,123c0-13.9-9.1-25.8-21.7-29.9c0-0.2,0-0.4,0-0.6c0-5.4-4.4-9.8-9.8-9.8c-1.5,0-3,0.4-4.3,1
								c2.7,5.4,4.6,11.3,5.5,17.3c1.1,7.3,0.8,14.7-0.8,21.9H613.4z"/>
						</g>
						<g>
							<path class="st27" d="M616.1,126h-68.2c-0.8,0-1.5-0.7-1.5-1.5l0,0c0-0.8,0.7-1.5,1.5-1.5h68.2c0.8,0,1.5,0.7,1.5,1.5l0,0
								C617.6,125.4,616.9,126,616.1,126z"/>
							<path class="st28" d="M616.1,123h-33.7c-0.2,1-0.5,2-0.8,3h34.5c0.8,0,1.5-0.7,1.5-1.5C617.6,123.7,616.9,123,616.1,123z"/>
						</g>
						<g>
							<linearGradient id="SVGID_8_" gradientUnits="userSpaceOnUse" x1="581.9787" y1="148.7021" x2="581.9787" y2="126.0482">
								<stop  offset="0" style="stop-color:#FFFFFF;stop-opacity:0"/>
								<stop  offset="1" style="stop-color:#F8CD7B"/>
							</linearGradient>
							<polygon class="st34" points="601.9,148.7 562.1,148.7 567.2,126 596.7,126 							"/>
							<g>
								<path class="st32" d="M567.2,126.1c2.6,5.5,8.2,9.4,14.7,9.4c6.5,0,12.1-3.8,14.7-9.4H567.2z"/>
								<path class="st33" d="M596.7,126.1h-11.3c-0.5,1.4-1.3,2.7-2.3,3.7c-2.1,2.1-4.9,3.4-7.8,4.1c0,0-0.1,0-0.1,0
									c2.1,1,4.4,1.5,6.9,1.5C588.5,135.4,594.1,131.6,596.7,126.1z"/>
							</g>
						</g>
					</g>
					<g>
						<g>
							<path class="st29" d="M704.4,93.2c0-0.2,0-0.4,0-0.6c0-5.4-4.4-9.8-9.8-9.8c-5.4,0-9.8,4.4-9.8,9.8c0,0.2,0,0.4,0,0.6
								c-12.6,4.1-21.7,15.9-21.7,29.9h62.8C726.1,109.1,717,97.3,704.4,93.2z"/>
							<path class="st30" d="M726.1,123c0-13.9-9.1-25.8-21.7-29.9c0-0.2,0-0.4,0-0.6c0-5.4-4.4-9.8-9.8-9.8c-1.5,0-3,0.4-4.3,1
								c2.7,5.4,4.6,11.3,5.5,17.3c1.1,7.3,0.8,14.7-0.8,21.9H726.1z"/>
						</g>
						<g>
							<path class="st27" d="M728.8,126h-68.2c-0.8,0-1.5-0.7-1.5-1.5l0,0c0-0.8,0.7-1.5,1.5-1.5h68.2c0.8,0,1.5,0.7,1.5,1.5l0,0
								C730.3,125.4,729.6,126,728.8,126z"/>
							<path class="st28" d="M728.8,123h-33.7c-0.2,1-0.5,2-0.8,3h34.5c0.8,0,1.5-0.7,1.5-1.5C730.3,123.7,729.6,123,728.8,123z"/>
						</g>
						<g>
							<linearGradient id="SVGID_9_" gradientUnits="userSpaceOnUse" x1="694.6646" y1="148.7021" x2="694.6646" y2="126.0482">
								<stop  offset="0" style="stop-color:#FFFFFF;stop-opacity:0"/>
								<stop  offset="1" style="stop-color:#F8CD7B"/>
							</linearGradient>
							<polygon class="st35" points="714.5,148.7 674.8,148.7 679.9,126 709.4,126 							"/>
							<g>
								<path class="st32" d="M679.9,126.1c2.6,5.5,8.2,9.4,14.7,9.4s12.1-3.8,14.7-9.4H679.9z"/>
								<path class="st33" d="M709.4,126.1h-11.3c-0.5,1.4-1.3,2.7-2.3,3.7c-2.1,2.1-4.9,3.4-7.8,4.1c0,0-0.1,0-0.1,0
									c2.1,1,4.4,1.5,6.9,1.5C701.2,135.4,706.8,131.6,709.4,126.1z"/>
							</g>
						</g>
					</g>
				</g>
			</g>
			<g>
				<g>
					<ellipse class="st36" cx="890.7" cy="530.9" rx="37.7" ry="5.8"/>
					<g>
						<g>
							<path class="st37" d="M900.3,406.2c0.6,0.9,1.7,0.6,1.9-0.4c2.1-14.8,10.8-86.6-18.6-80.1
								C854.2,332.2,892.2,393.7,900.3,406.2z"/>
							<path class="st38" d="M883.6,325.7c-4.4,1-7.3,3.2-9,6.3c0.9,0.4,1.7,0.8,2.6,1.3c3.4,2,6.1,5,8.6,8.1
								c9.4,11.8,15.9,26,18.9,40.8C906.1,356.3,904.5,321.1,883.6,325.7z"/>
							<path class="st39" d="M887.4,384.2l9.6,4.3l-6.6-30l-16.7-8.6c-0.1-0.3-0.1-0.6-0.2-0.9l16.7,8.6l-7-31.8
								c0.1,0,0.2-0.1,0.3-0.1c0.1,0,0.2,0,0.3-0.1l4.1,18.8l10.4-12.3c0.1,0.2,0.3,0.4,0.4,0.6l-10.6,12.5l6.6,29.9l10.1-13.2
								c0,0.4,0,0.7,0,1.1l-9.9,13l6.7,30.5c-0.2,0.1-0.5,0.1-0.7,0.1l-3.8-17.4l-9.2-4.1C887.8,384.9,887.6,384.5,887.4,384.2z"/>
							<g>
								<path class="st39" d="M898.4,332.2L888,344.4l-4.1-18.8c-0.1,0-0.2,0-0.3,0.1c-0.1,0-0.2,0.1-0.3,0.1l3.8,17.3
									c0.5,0.6,1,1.3,1.4,1.9l10.4-12.3C898.7,332.6,898.5,332.4,898.4,332.2z"/>
								<path class="st39" d="M904.9,362.1l-4.4,5.7c0.1,0.3,0.2,0.5,0.3,0.8l4.1-5.4C904.9,362.8,904.9,362.4,904.9,362.1z"/>
							</g>
						</g>
						<g>
							<path class="st39" d="M895.9,437.8c-0.8,0.8-1.8,0.3-1.8-0.8c0.9-15.2,6.6-88.8,34.7-76.5
								C956.9,372.9,906.5,426.8,895.9,437.8z"/>
							<path class="st40" d="M918.2,411.9c14.9-19.6,28.1-43.7,10.5-51.4c-4.5-2-8.5-1.7-11.9,0.1c3.2,11.6,5.1,23.7,4.2,35.7
								C920.7,401.6,919.7,406.9,918.2,411.9z"/>
							<path class="st37" d="M913.2,418.3l-10.4,2.4l12.6-28.7l18.5-5.2c0.1-0.3,0.2-0.6,0.4-0.8l-18.5,5.2l13.4-30.5
								c-0.1-0.1-0.2-0.1-0.3-0.2c-0.1,0-0.2-0.1-0.3-0.1l-7.9,18l-7.9-14.4c-0.2,0.2-0.3,0.4-0.5,0.6l8.1,14.6l-12.6,28.7
								l-7.5-15.2c-0.1,0.4-0.2,0.7-0.3,1.1l7.4,15l-12.8,29.2c0.2,0.2,0.4,0.2,0.7,0.2l7.3-16.6l10-2.3
								C912.7,418.9,912.9,418.6,913.2,418.3z"/>
							<g>
								<path class="st38" d="M921.3,389.6c0,0.2,0,0.5,0,0.7l12.6-3.6c0.1-0.3,0.2-0.6,0.4-0.8L921.3,389.6z"/>
								<path class="st38" d="M920.5,378.4l-0.1-0.2c0.1,0.6,0.1,1.2,0.2,1.7l8.4-19.2c-0.1-0.1-0.2-0.1-0.3-0.2c0,0,0,0,0,0
									c0,0,0,0,0,0c-0.1,0-0.2-0.1-0.3-0.1L920.5,378.4z"/>
							</g>
						</g>
						<g>
							<path class="st37" d="M897.5,451.9c-0.1,1.1-1.2,1.4-1.9,0.6c-9.3-12.1-53-71.6-23.7-80.6
								C901.4,362.9,898.4,436.6,897.5,451.9z"/>
							<path class="st38" d="M898,427.4c-0.6-26.5-5.1-61.9-26-55.5c-3.6,1.1-6.1,3-7.7,5.4c7.9,4.3,14.6,11,19.7,18.5
								c6.2,9.2,10.3,19.6,13.6,30.1C897.7,426.4,897.8,426.9,898,427.4z"/>
							<path class="st39" d="M897.9,425.8l-6.3,8.6l-9.2-29.9l10.6-16c-0.1-0.3-0.2-0.6-0.3-0.9l-10.6,16l-9.8-31.8
								c-0.1,0-0.2,0.1-0.3,0.1c-0.1,0-0.2,0.1-0.3,0.1l5.8,18.8l-15.4-5.7c0,0.2,0,0.5,0,0.8l15.7,5.8l9.2,29.9l-15.6-6.6
								c0.2,0.3,0.3,0.7,0.5,1l15.3,6.5l9.4,30.5c0.2,0,0.5-0.1,0.7-0.3l-5.3-17.4l6.1-8.3C898,426.6,897.9,426.2,897.9,425.8z"/>
							<g>
								<path class="st40" d="M877.1,387.2l-4.8-15.5c-0.1,0-0.2,0.1-0.3,0.1c-0.1,0-0.2,0.1-0.3,0.1l4.4,14.2
									C876.4,386.5,876.7,386.9,877.1,387.2z"/>
								<path class="st40" d="M885.6,398.3c0.1,0.2,0.3,0.4,0.4,0.7l6.9-10.5c-0.1-0.3-0.2-0.5-0.2-0.8c0,0,0-0.1,0-0.1L885.6,398.3
									z"/>
								<path class="st40" d="M897.9,426.3c0-0.1,0-0.2,0-0.3c0-0.1,0-0.1,0-0.2l-0.3,0.4c0.1,0.3,0.2,0.6,0.3,0.9l0.1-0.1
									C898,426.8,898,426.5,897.9,426.3z"/>
							</g>
						</g>
						<g>
							<path class="st39" d="M891.9,485.9c0,1.1-1.1,1.5-1.8,0.6c-9.8-11.7-56-69.2-27.1-79.5C891.9,396.8,892.1,470.6,891.9,485.9z
								"/>
							<path class="st40" d="M863,407.1c-4.1,1.4-6.6,3.8-8,6.8c1,0.3,1.9,0.7,2.9,1.2c4,2,7.4,4.9,10.6,8.1
								c11.1,11.2,19.1,25.4,23.1,40.7C890,437.2,884.2,399.6,863,407.1z"/>
							<path class="st37" d="M891.2,459.8l-6,8.9l-10.5-29.5l9.9-16.5c-0.1-0.3-0.2-0.6-0.3-0.9l-9.9,16.4L863.3,407
								c-0.1,0-0.2,0.1-0.3,0.1c-0.1,0-0.2,0.1-0.3,0.1l6.6,18.5l-15.6-5c0,0.2,0,0.5,0,0.8l15.9,5.1L880,456l-15.9-6
								c0.2,0.3,0.4,0.7,0.6,1l15.6,5.9l10.7,30c0.2,0,0.5-0.1,0.6-0.3l-6.1-17.1l5.8-8.5C891.2,460.6,891.2,460.2,891.2,459.8z"/>
							<g>
								<path class="st38" d="M862.6,407.2l5.6,15.9c0,0,0,0,0.1,0.1c0.4,0.4,0.8,0.8,1.1,1.2l-6.2-17.4c-0.1,0-0.2,0.1-0.3,0.1
									c0,0,0,0,0,0C862.8,407.1,862.7,407.1,862.6,407.2z"/>
								<path class="st38" d="M890.8,461.7l0.4-0.7c0,0,0,0,0,0c0-0.4-0.1-0.8-0.1-1.2l-0.6,0.9
									C890.7,461.1,890.7,461.4,890.8,461.7z"/>
								<path class="st38" d="M877.2,433.7c0.2,0.2,0.3,0.4,0.5,0.6l7-11.6c-0.1-0.2-0.2-0.5-0.3-0.7c0,0,0-0.1,0-0.1L877.2,433.7z"
									/>
							</g>
						</g>
						<g>
							<path class="st37" d="M888.8,482.2c-0.1,1,0.8,1.5,1.5,0.8c10.3-9.1,59-53.9,34.7-66.9C900.7,403.2,890.6,468.6,888.8,482.2z
								"/>
							<path class="st38" d="M925,416.1c-6.5-3.5-12-1.3-16.5,3.9c3.5,17.4,1.2,36.1-6.5,52.1C918.9,455.3,943.8,426.1,925,416.1z"
								/>
							<path class="st39" d="M892.9,459.2l4.1,8.7l13.2-24.8l-6.6-15.9c0.1-0.2,0.3-0.5,0.4-0.7l6.6,15.9l14.1-26.3
								c0.1,0,0.2,0.1,0.3,0.1c0.1,0.1,0.2,0.1,0.3,0.2l-8.3,15.6l14.6-2.4c0,0.2-0.1,0.4-0.1,0.7l-14.8,2.4l-13.2,24.8l14.9-3.2
								c-0.2,0.3-0.4,0.5-0.6,0.8l-14.6,3.1l-13.5,25.2c-0.2,0-0.4-0.2-0.5-0.4l7.7-14.4l-4-8.3
								C892.7,459.9,892.8,459.5,892.9,459.2z"/>
							<g>
								<path class="st40" d="M917.7,454.8c0.2-0.2,0.3-0.4,0.5-0.6l-10.6,2.3c-0.1,0.2-0.1,0.5-0.2,0.7l10.2-2.2
									C917.6,454.9,917.7,454.9,917.7,454.8z"/>
								<path class="st40" d="M910.6,442.3l-0.7-1.7c0,0.5-0.1,1-0.1,1.5l0.4,1l-0.6,1.1c-0.1,0.6-0.1,1.1-0.2,1.7l7.1-13.3
									l14.8-2.4c0-0.2,0.1-0.4,0.1-0.7l-14.6,2.4l8.3-15.6c-0.1-0.1-0.2-0.1-0.3-0.2c-0.1-0.1-0.2-0.1-0.3-0.1L910.6,442.3z"/>
							</g>
						</g>
						<g>
							<g>
								<path class="st41" d="M925.5,483.2h-69.6c-1.8,0-3.3-1.5-3.3-3.3l0,0c0-1.8,1.5-3.3,3.3-3.3h69.6c1.8,0,3.3,1.5,3.3,3.3l0,0
									C928.8,481.8,927.3,483.2,925.5,483.2z"/>
								<path class="st42" d="M925.5,476.6h-30.8c0.9,2.2,1.7,4.4,2.4,6.6h28.4c1.8,0,3.3-1.5,3.3-3.3l0,0
									C928.8,478.1,927.3,476.6,925.5,476.6z"/>
							</g>
							<g>
								<path class="st43" d="M923.4,483.2l-9.2,38.2c-1.3,5.6-6.3,9.5-12,9.5h-23c-5.7,0-10.7-3.9-12-9.5l-9.2-38.2H923.4z"/>
								<path class="st44" d="M899.9,504.2c-0.3,9.3-2.6,18.4-6.6,26.7h8.9c5.7,0,10.7-3.9,12-9.5l9.2-38.2h-26.3
									C899.1,490,900.1,497.1,899.9,504.2z"/>
							</g>
						</g>
					</g>
				</g>
				<g>
					<g>
						<ellipse class="st36" cx="745.6" cy="536.6" rx="70.7" ry="10.8"/>
						<ellipse class="st36" cx="418.3" cy="536.6" rx="70.7" ry="10.8"/>
					</g>
					<g>
						<g>
							<g>
								<path class="st45" d="M463.3,478.6h-89.9l-5.1-116.8c-0.3-6.8,4.8-12.4,11.2-12.4h77.6c6.4,0,11.5,5.7,11.2,12.4
									L463.3,478.6z"/>
								<path class="st46" d="M480.4,416.1l-8.9-0.6l-1.7-4.2l-7.1,4.1l0,0c-0.8,0.5-1.4,1.5-1.5,2.6l-1.8,32.1h22l1.7-30.5
									C483.2,417.8,481.9,416.3,480.4,416.1z"/>
								<path class="st46" d="M356.3,416.1l8.9-0.6l1.7-4.2l7.1,4.1l0,0c0.8,0.5,1.4,1.5,1.5,2.6l1.8,32.1h-22l-1.7-30.5
									C353.5,417.8,354.7,416.3,356.3,416.1z"/>
								<path class="st47" d="M487.5,411.9l-16.1-1.2c-1.6-0.1-3,1.3-3.1,3.1l-3.5,61.5h-93.2l-3.5-61.5c-0.1-1.8-1.5-3.2-3.1-3.1
									l-16.1,1.2c-1.6,0.1-2.8,1.7-2.7,3.5l4.4,78c0.3,5.7,4.5,10.2,9.6,10.2h115.8c5.1,0,9.3-4.5,9.6-10.2l4.4-78
									C490.3,413.6,489.1,412,487.5,411.9z"/>
								<path class="st48" d="M467.1,478.6h-97.5c-2.2,0-4-1.8-4-4v-20.5c0-2.2,1.8-4,4-4h97.5c2.2,0,4,1.8,4,4v20.5
									C471.1,476.8,469.3,478.6,467.1,478.6z"/>
								<path class="st49" d="M474.1,540.7h4.2c1.6,0,2.6-1.6,2-3l-14.4-34.1h-9.1l15.2,35.8C472.4,540.2,473.2,540.7,474.1,540.7z"
									/>
								<path class="st49" d="M362.6,540.7h-4.2c-1.6,0-2.6-1.6-2-3l14.4-34.1h9.1l-15.2,35.8C364.2,540.2,363.5,540.7,362.6,540.7z
									"/>
								<path class="st49" d="M377.9,530.9h-3.1c-1.1,0-1.9-1.2-1.5-2.2l10.6-25.1h6.7L379.4,530
									C379.1,530.6,378.5,530.9,377.9,530.9z"/>
								<path class="st49" d="M458.7,530.9h3.1c1.1,0,1.9-1.2,1.5-2.2l-10.6-25.1H446l11.2,26.4
									C457.5,530.6,458.1,530.9,458.7,530.9z"/>
							</g>
							<g>
								<path class="st50" d="M457.1,349.3h-40.3c10.8,23.3,16.4,49,16.2,74.7c-0.2,18.5-3.4,37-9.5,54.6h39.8l5.1-116.8
									C468.6,355,463.5,349.3,457.1,349.3z"/>
								<path class="st51" d="M480.4,416.1l-8.9-0.6l-1.7-4.2l-7.1,4.1l0,0c-0.8,0.5-1.4,1.5-1.5,2.6l-1.8,32.1h22l1.7-30.5
									C483.2,417.8,481.9,416.3,480.4,416.1z"/>
								<path class="st52" d="M474.1,540.7h4.2c1.6,0,2.6-1.6,2-3l-14.4-34.1h-9.1l15.2,35.8C472.4,540.2,473.2,540.7,474.1,540.7z"
									/>
								<path class="st49" d="M362.6,540.7h-4.2c-1.6,0-2.6-1.6-2-3l14.4-34.1h9.1l-15.2,35.8C364.2,540.2,363.5,540.7,362.6,540.7z
									"/>
								<path class="st49" d="M377.9,530.9h-3.1c-1.1,0-1.9-1.2-1.5-2.2l10.6-25.1h6.7L379.4,530
									C379.1,530.6,378.5,530.9,377.9,530.9z"/>
								<path class="st52" d="M458.7,530.9h3.1c1.1,0,1.9-1.2,1.5-2.2l-10.6-25.1H446l11.2,26.4
									C457.5,530.6,458.1,530.9,458.7,530.9z"/>
								<path class="st53" d="M487.5,411.9l-16.1-1.2c-1.6-0.1-3,1.3-3.1,3.1l-3.5,61.5h-40.3c-3.1,9.8-7.1,19.2-11.9,28.3h63.5
									c5.1,0,9.3-4.5,9.6-10.2l4.4-78C490.3,413.6,489.1,412,487.5,411.9z"/>
								<path class="st54" d="M467,450.1h-36.3c-1.6,9.7-4,19.2-7.2,28.5H467c2.3,0,4.1-1.8,4.1-4.1v-20.2
									C471.1,452,469.2,450.1,467,450.1z"/>
							</g>
							<g>
								<g>
									<circle class="st46" cx="418.3" cy="414" r="2.6"/>
									<circle class="st46" cx="392" cy="414" r="2.6"/>
									<circle class="st51" cx="444.7" cy="414" r="2.6"/>
								</g>
								<g>
									<circle class="st46" cx="418.3" cy="367.9" r="2.6"/>
									<circle class="st46" cx="392" cy="367.9" r="2.6"/>
									<circle class="st51" cx="444.7" cy="367.9" r="2.6"/>
								</g>
								<g>
									<circle class="st46" cx="418.3" cy="390.9" r="2.6"/>
									<circle class="st46" cx="392" cy="390.9" r="2.6"/>
									<circle class="st51" cx="444.7" cy="390.9" r="2.6"/>
								</g>
								<g>
									<circle class="st46" cx="418.3" cy="437" r="2.6"/>
									<circle class="st46" cx="392" cy="437" r="2.6"/>
									<circle class="st51" cx="444.7" cy="437" r="2.6"/>
								</g>
							</g>
						</g>
						<g>
							<g>
								<path class="st45" d="M790.6,478.6h-89.9l-5.1-116.8c-0.3-6.8,4.8-12.4,11.2-12.4h77.6c6.4,0,11.5,5.7,11.2,12.4
									L790.6,478.6z"/>
								<path class="st46" d="M807.7,416.1l-8.9-0.6l-1.7-4.2l-7.1,4.1l0,0c-0.8,0.5-1.4,1.5-1.5,2.6l-1.8,32.1h22l1.7-30.5
									C810.5,417.8,809.3,416.3,807.7,416.1z"/>
								<path class="st46" d="M683.6,416.1l8.9-0.6l1.7-4.2l7.1,4.1l0,0c0.8,0.5,1.4,1.5,1.5,2.6l1.8,32.1h-22l-1.7-30.5
									C680.8,417.8,682,416.3,683.6,416.1z"/>
								<path class="st47" d="M814.8,411.9l-16.1-1.2c-1.6-0.1-3,1.3-3.1,3.1l-3.5,61.5h-93.2l-3.5-61.5c-0.1-1.8-1.5-3.2-3.1-3.1
									l-16.1,1.2c-1.6,0.1-2.8,1.7-2.7,3.5l4.4,78c0.3,5.7,4.5,10.2,9.6,10.2h115.8c5.1,0,9.3-4.5,9.6-10.2l4.4-78
									C817.6,413.6,816.4,412,814.8,411.9z"/>
								<path class="st48" d="M794.4,478.6h-97.5c-2.2,0-4-1.8-4-4v-20.5c0-2.2,1.8-4,4-4h97.5c2.2,0,4,1.8,4,4v20.5
									C798.4,476.8,796.6,478.6,794.4,478.6z"/>
								<path class="st49" d="M801.4,540.7h4.2c1.6,0,2.6-1.6,2-3l-14.4-34.1h-9.1l15.2,35.8C799.7,540.2,800.5,540.7,801.4,540.7z"
									/>
								<path class="st49" d="M689.9,540.7h-4.2c-1.6,0-2.6-1.6-2-3l14.4-34.1h9.1l-15.2,35.8C691.6,540.2,690.8,540.7,689.9,540.7z
									"/>
								<path class="st49" d="M705.2,530.9h-3.1c-1.1,0-1.9-1.2-1.5-2.2l10.6-25.1h6.7L706.7,530
									C706.4,530.6,705.8,530.9,705.2,530.9z"/>
								<path class="st49" d="M786.1,530.9h3.1c1.1,0,1.9-1.2,1.5-2.2l-10.6-25.1h-6.7l11.2,26.4
									C784.8,530.6,785.4,530.9,786.1,530.9z"/>
							</g>
							<g>
								<path class="st50" d="M784.4,349.3h-40.3c10.8,23.3,16.4,49,16.2,74.7c-0.2,18.5-3.4,37-9.5,54.6h39.8l5.1-116.8
									C795.9,355,790.8,349.3,784.4,349.3z"/>
								<path class="st51" d="M807.7,416.1l-8.9-0.6l-1.7-4.2l-7.1,4.1l0,0c-0.8,0.5-1.4,1.5-1.5,2.6l-1.8,32.1h22l1.7-30.5
									C810.5,417.8,809.3,416.3,807.7,416.1z"/>
								<path class="st52" d="M801.4,540.7h4.2c1.6,0,2.6-1.6,2-3l-14.4-34.1h-9.1l15.2,35.8C799.7,540.2,800.5,540.7,801.4,540.7z"
									/>
								<path class="st49" d="M689.9,540.7h-4.2c-1.6,0-2.6-1.6-2-3l14.4-34.1h9.1l-15.2,35.8C691.6,540.2,690.8,540.7,689.9,540.7z
									"/>
								<path class="st49" d="M705.2,530.9h-3.1c-1.1,0-1.9-1.2-1.5-2.2l10.6-25.1h6.7L706.7,530
									C706.4,530.6,705.8,530.9,705.2,530.9z"/>
								<path class="st52" d="M786.1,530.9h3.1c1.1,0,1.9-1.2,1.5-2.2l-10.6-25.1h-6.7l11.2,26.4
									C784.8,530.6,785.4,530.9,786.1,530.9z"/>
								<path class="st53" d="M814.8,411.9l-16.1-1.2c-1.6-0.1-3,1.3-3.1,3.1l-3.5,61.5h-40.3c-3.1,9.8-7.1,19.2-11.9,28.3h63.5
									c5.1,0,9.3-4.5,9.6-10.2l4.4-78C817.6,413.6,816.4,412,814.8,411.9z"/>
								<path class="st54" d="M794.3,450.1H758c-1.6,9.7-4,19.2-7.2,28.5h43.5c2.3,0,4.1-1.8,4.1-4.1v-20.2
									C798.4,452,796.6,450.1,794.3,450.1z"/>
							</g>
							<g>
								<g>
									<circle class="st46" cx="745.6" cy="414" r="2.6"/>
									<circle class="st46" cx="719.3" cy="414" r="2.6"/>
									<circle class="st51" cx="772" cy="414" r="2.6"/>
								</g>
								<g>
									<circle class="st46" cx="745.6" cy="367.9" r="2.6"/>
									<circle class="st46" cx="719.3" cy="367.9" r="2.6"/>
									<circle class="st51" cx="772" cy="367.9" r="2.6"/>
								</g>
								<g>
									<circle class="st46" cx="745.6" cy="390.9" r="2.6"/>
									<circle class="st46" cx="719.3" cy="390.9" r="2.6"/>
									<circle class="st51" cx="772" cy="390.9" r="2.6"/>
								</g>
								<g>
									<circle class="st46" cx="745.6" cy="437" r="2.6"/>
									<circle class="st46" cx="719.3" cy="437" r="2.6"/>
									<circle class="st51" cx="772" cy="437" r="2.6"/>
								</g>
							</g>
						</g>
					</g>
				</g>
				<g>
					<ellipse class="st36" cx="271.4" cy="529.5" rx="33.6" ry="5.1"/>
					<g>
						<g>
							<g>
								<rect x="269.8" y="352.2" class="st55" width="3.1" height="173"/>
							</g>
							<g>
								<path class="st56" d="M310.4,364.2h-78.1c-2.8,0-4.8-2.6-4.1-5.3l10.8-40c0.5-1.8,2.2-3.1,4.1-3.1h56.4
									c1.9,0,3.6,1.3,4.1,3.1l10.8,40C315.2,361.6,313.2,364.2,310.4,364.2z"/>
								<path class="st57" d="M276.4,364.2h34c2.8,0,4.8-2.6,4.1-5.3l-10.8-40c-0.5-1.8-2.2-3.1-4.1-3.1h-28.6
									c2.3,2.9,4.2,6.1,5.5,9.4c3.9,9.6,3.9,20.5,2,30.6C277.9,358.7,277.2,361.5,276.4,364.2z"/>
							</g>
							<g>
								<path class="st56" d="M286.3,531h-30c-0.8,0-1.5-0.7-1.5-1.5l0,0c0-0.8,0.7-1.5,1.5-1.5h30c0.8,0,1.5,0.7,1.5,1.5l0,0
									C287.9,530.3,287.2,531,286.3,531z"/>
								<path class="st58" d="M281.2,528c-1.3-4.2-5.2-7.2-9.8-7.2s-8.5,3-9.8,7.2H281.2z"/>
								<path class="st59" d="M271.4,520.7c-0.1,0-0.2,0-0.3,0c1.3,2,2.2,4.2,2.5,6.5c0,0.2,0,0.4,0,0.7h7.5
									C279.9,523.8,276,520.7,271.4,520.7z"/>
								<path class="st57" d="M273.6,531h12.7c0.8,0,1.5-0.7,1.5-1.5l0,0c0-0.8-0.7-1.5-1.5-1.5h-12.7
									C273.8,529,273.8,530,273.6,531z"/>
							</g>
						</g>
						<linearGradient id="SVGID_10_" gradientUnits="userSpaceOnUse" x1="271.364" y1="388.3394" x2="271.364" y2="364.4677">
							<stop  offset="0" style="stop-color:#FFFFFF;stop-opacity:0"/>
							<stop  offset="1" style="stop-color:#F8CD7B"/>
						</linearGradient>
						<polygon class="st60" points="308.6,388.3 234.1,388.3 240.7,364.5 302,364.5 						"/>
					</g>
				</g>
				<g>
					<g>
						<path class="st36" d="M654.5,540.7c0,2.8-15,5.1-33.6,5.1c-18.5,0-33.6-2.3-33.6-5.1c0-2.8,15-5.1,33.6-5.1
							C639.5,535.6,654.5,537.8,654.5,540.7z"/>
						<ellipse class="st36" cx="558.3" cy="540.7" rx="48.9" ry="7.5"/>
					</g>
					<g>
						<g>
							<g>
								<path class="st49" d="M578.5,539.5l-17.7-40.3l-4.8,2.1l17.2,39c0.2,0.4,0.5,0.6,0.9,0.6h3.5
									C578.3,541,578.8,540.2,578.5,539.5z"/>
								<path class="st49" d="M538.2,539.5l17.7-40.3l4.8,2.1l-17.2,39c-0.2,0.4-0.5,0.6-0.9,0.6h-3.5
									C538.4,541,537.9,540.2,538.2,539.5z"/>
								<g>
									<path class="st61" d="M559.9,541h-3.2c-0.6,0-1-0.5-1-1v-83.1h5.3v83.1C561,540.5,560.5,541,559.9,541z"/>
								</g>
								<path class="st62" d="M607.2,457.2c0,3.6-21.9,6.6-48.9,6.6s-48.9-2.9-48.9-6.6v-2.1h97.7V457.2z"/>
								<path class="st63" d="M607.2,455.1c0,3.6-21.9,6.6-48.9,6.6s-48.9-2.9-48.9-6.6c0-3.6,21.9-6.6,48.9-6.6
									S607.2,451.5,607.2,455.1z"/>
							</g>
							<g>
								<path class="st49" d="M641.1,539.5l-17.7-40.3l-4.8,2.1l17.2,39c0.2,0.4,0.5,0.6,0.9,0.6h3.5
									C640.9,541,641.4,540.2,641.1,539.5z"/>
								<path class="st49" d="M600.8,539.5l17.7-40.3l4.8,2.1l-17.2,39c-0.2,0.4-0.5,0.6-0.9,0.6h-3.5
									C601,541,600.5,540.2,600.8,539.5z"/>
								<g>
									<path class="st61" d="M622.5,541h-3.2c-0.6,0-1-0.5-1-1v-61.3h5.3v61.3C623.6,540.5,623.1,541,622.5,541z"/>
								</g>
								<path class="st62" d="M587.4,479.9c0,2.5,15,4.5,33.6,4.5c18.5,0,33.6-2,33.6-4.5v-2h-67.1V479.9z"/>
								<ellipse class="st63" cx="620.9" cy="477.8" rx="33.6" ry="4.5"/>
							</g>
						</g>
						<g>
							<g>
								<ellipse class="st64" cx="641.6" cy="477.7" rx="6.3" ry="0.9"/>
								<g>
									<path class="st65" d="M649,465.7L649,465.7l0-0.3c0-1.3-1.1-2.4-2.4-2.4h-9.9c-1.3,0-2.4,1.1-2.4,2.4v4.9
										c0,4.1,3.3,7.4,7.4,7.4l0,0c2.4,0,4.6-1.2,5.9-3c0.5,0.2,0.9,0.3,1.4,0.3c3.2,0,5.6-3.3,4.2-6.6
										C652.5,466.7,650.7,465.7,649,465.7z M649,473.6c-0.2,0-0.5,0-0.7-0.1c0.5-1,0.7-2,0.7-3.1v-3.2c0,0,0,0,0,0
										c1.8,0,3.2,1.4,3.2,3.2C652.2,472.1,650.7,473.6,649,473.6z"/>
									<path class="st66" d="M649,465.7L649,465.7l0-0.3c0-1.3-1.1-2.4-2.4-2.4H643c0.1,0.3,0.2,0.6,0.4,0.9
										c1.1,3.2,1.1,6.7-0.1,9.9c-0.5,1.4-1.3,2.8-2.2,4c0.2,0,0.3,0,0.5,0c2.4,0,4.6-1.2,5.9-3c0.5,0.2,0.9,0.3,1.4,0.3
										c3.2,0,5.6-3.3,4.2-6.6C652.5,466.7,650.7,465.7,649,465.7z M649,473.6c-0.2,0-0.5,0-0.7-0.1c0.5-1,0.7-2,0.7-3.1v-3.2
										c0,0,0,0,0,0c1.8,0,3.2,1.4,3.2,3.2C652.2,472.1,650.7,473.6,649,473.6z"/>
								</g>
							</g>
							<g>
								<path class="st64" d="M529.3,454.4c0,0.5-2.8,0.9-6.3,0.9c-3.5,0-6.3-0.4-6.3-0.9c0-0.5,2.8-0.9,6.3-0.9
									C526.5,453.5,529.3,453.9,529.3,454.4z"/>
								<g>
									<path class="st41" d="M530.4,442.4L530.4,442.4l0-0.3c0-1.3-1.1-2.4-2.4-2.4h-9.9c-1.3,0-2.4,1.1-2.4,2.4v4.9
										c0,4.1,3.3,7.4,7.4,7.4l0,0c2.4,0,4.6-1.2,5.9-3c0.5,0.2,0.9,0.3,1.4,0.3c3.2,0,5.6-3.3,4.2-6.6
										C533.9,443.4,532.2,442.4,530.4,442.4z M530.4,450.3c-0.2,0-0.5,0-0.7-0.1c0.5-1,0.7-2,0.7-3.1v-3.2c0,0,0,0,0,0
										c1.8,0,3.2,1.4,3.2,3.2C533.7,448.8,532.2,450.3,530.4,450.3z"/>
									<path class="st42" d="M530.4,442.4L530.4,442.4l0-0.3c0-1.3-1.1-2.4-2.4-2.4h-3.5c0.1,0.3,0.2,0.6,0.4,0.9
										c1.1,3.2,1.1,6.7-0.1,9.9c-0.5,1.4-1.3,2.8-2.2,4c0.2,0,0.3,0,0.5,0c2.4,0,4.6-1.2,5.9-3c0.5,0.2,0.9,0.3,1.4,0.3
										c3.2,0,5.6-3.3,4.2-6.6C533.9,443.4,532.2,442.4,530.4,442.4z M530.4,450.3c-0.2,0-0.5,0-0.7-0.1c0.5-1,0.7-2,0.7-3.1v-3.2
										c0,0,0,0,0,0c1.8,0,3.2,1.4,3.2,3.2C533.7,448.8,532.2,450.3,530.4,450.3z"/>
								</g>
							</g>
							<g>
								<path class="st64" d="M574.1,455.3c0,0.9-5.2,1.6-11.5,1.6c-6.4,0-11.5-0.7-11.5-1.6s5.2-1.6,11.5-1.6
									C569,453.7,574.1,454.4,574.1,455.3z"/>
								<g>
									<g>
										<g>
											<path class="st37" d="M562.6,418.1c-0.1,0.4,0.3,0.6,0.6,0.3c4.3-3.8,24.8-22.7,14.6-28.2
												C567.6,384.8,563.3,412.4,562.6,418.1z"/>
											<path class="st38" d="M577.8,390.3c-2.7-1.5-5-0.6-7,1.6c1.5,7.3,0.5,15.2-2.8,21.9C575.3,406.8,585.7,394.5,577.8,390.3
												z"/>
											<path class="st39" d="M564.3,408.4l1.7,3.6l5.6-10.4l-2.8-6.7c0.1-0.1,0.1-0.2,0.2-0.3l2.8,6.7l5.9-11.1
												c0,0,0.1,0,0.1,0.1c0,0,0.1,0,0.1,0.1l-3.5,6.5l6.1-1c0,0.1,0,0.2,0,0.3l-6.2,1l-5.6,10.4l6.3-1.3
												c-0.1,0.1-0.2,0.2-0.3,0.3l-6.2,1.3l-5.7,10.6c-0.1,0-0.2-0.1-0.2-0.2l3.2-6.1l-1.7-3.5
												C564.2,408.7,564.3,408.6,564.3,408.4z"/>
											<g>
												<path class="st40" d="M574.7,406.6c0.1-0.1,0.1-0.2,0.2-0.3l-4.5,1c0,0.1-0.1,0.2-0.1,0.3L574.7,406.6
													C574.7,406.6,574.7,406.6,574.7,406.6z"/>
												<path class="st40" d="M571.8,401.3l-0.3-0.7c0,0.2,0,0.4,0,0.6l0.2,0.4l-0.2,0.4c0,0.2,0,0.5-0.1,0.7l3-5.6l6.2-1
													c0-0.1,0-0.2,0-0.3l-6.1,1l3.5-6.5c0,0-0.1,0-0.1-0.1c0,0-0.1,0-0.1-0.1L571.8,401.3z"/>
											</g>
										</g>
										<g>
											<path class="st39" d="M563,421.3c-0.1,0.4-0.6,0.5-0.8,0.1c-3.2-5.5-18.3-32.7-5.6-34.9C569.4,384.3,564.2,415,563,421.3
												z"/>
											<path class="st40" d="M556.6,386.5c-1.8,0.3-3,1.1-3.8,2.3c0.4,0.2,0.8,0.4,1.1,0.7c1.5,1.1,2.7,2.6,3.8,4.1
												c3.8,5.4,6.1,11.9,6.7,18.5C565.7,401,566,384.9,556.6,386.5z"/>
											<path class="st37" d="M564.6,410.4l-3.1,3.3l-2.2-13l5.3-6.1c0-0.1,0-0.3-0.1-0.4l-5.3,6.1l-2.4-13.8c-0.1,0-0.1,0-0.1,0
												c-0.1,0-0.1,0-0.1,0l1.4,8.1l-6.1-3.2c0,0.1,0,0.2,0,0.3l6.2,3.3l2.2,13l-6.2-3.6c0.1,0.1,0.1,0.3,0.2,0.4l6.1,3.5
												l2.3,13.2c0.1,0,0.2,0,0.3-0.1l-1.3-7.5l3-3.1C564.5,410.8,564.6,410.6,564.6,410.4z"/>
											<g>
												<path class="st38" d="M556.5,386.6l1.2,7c0,0,0,0,0,0c0.1,0.2,0.3,0.4,0.4,0.6l-1.3-7.7c-0.1,0-0.1,0-0.1,0c0,0,0,0,0,0
													C556.6,386.5,556.5,386.6,556.5,386.6z"/>
												<path class="st38" d="M564.3,411.2l0.2-0.2c0,0,0,0,0,0c0-0.2,0-0.3,0-0.5l-0.3,0.3C564.3,410.9,564.3,411,564.3,411.2z
													"/>
												<path class="st38" d="M560.6,398.6c0,0.1,0.1,0.2,0.1,0.3l3.7-4.3c0-0.1,0-0.2-0.1-0.3c0,0,0,0,0-0.1L560.6,398.6z"/>
											</g>
										</g>
									</g>
									<g>
										<path class="st51" d="M567.9,455.2h-11c-2.8,0-5-2.4-4.7-5.2l3.3-32.9c0.1-1,1-1.8,2-1.8h9.7c1,0,1.9,0.8,2,1.8l3.3,32.9
											C572.8,452.8,570.7,455.2,567.9,455.2z"/>
										<path class="st67" d="M567.2,415.3h-6.4c2.9,6.6,4.2,13.9,3.6,21.1c-0.5,6.6-2.6,13-5.9,18.7h9.4c2.8,0,5-2.4,4.7-5.2
											l-3.3-32.9C569.1,416.1,568.3,415.3,567.2,415.3z"/>
									</g>
								</g>
							</g>
							<g>
								<path class="st64" d="M626,478.5c0,0.9-5,1.6-11.2,1.6c-6.2,0-11.2-0.7-11.2-1.6s5-1.6,11.2-1.6
									C620.9,477,626,477.7,626,478.5z"/>
								<g>
									<path class="st68" d="M602.5,464.9c-0.8,0-1.4,0.7-1.3,1.4c0.7,6.9,6.5,12.2,13.6,12.2s12.8-5.4,13.6-12.2
										c0.1-0.8-0.5-1.4-1.3-1.4H602.5z"/>
									<path class="st69" d="M628.3,466.3c0.1-0.8-0.5-1.4-1.3-1.4h-11.8c1,2,1.8,4.2,2.1,6.4c0.4,2.3,0.3,4.7-0.1,7
										C623.1,477.2,627.7,472.3,628.3,466.3z"/>
								</g>
							</g>
						</g>
					</g>
				</g>
			</g>
		</g>
		<rect x="521.6" y="485.4" class="st70" width="180" height="40"/>
	</g>
	<g>
		<polygon points="537.1,513.2 537.1,513.2 537.1,513.2 		"/>
	</g>
	<g>
		<g>
			<path class="st71" d="M443.7,350.5v130.2c0,4-3.3,7.3-7.3,7.3h-199c-4,0-7.3-3.3-7.3-7.3V350.5H443.7z"/>
			<path class="st72" d="M443.7,335.9v14.6H230.1v-14.6c0-4,3.3-7.3,7.3-7.3h199C440.5,328.6,443.7,331.9,443.7,335.9z"/>
		</g>
		<line class="st73" x1="426.4" y1="335.5" x2="434.7" y2="343.8"/>
		<line class="st73" x1="434.5" y1="335.7" x2="426.6" y2="343.6"/>
		<g>
			<path class="st74" d="M335.4,360.9L335.4,360.9L335.4,360.9L335.4,360.9C335.3,360.9,335.3,360.9,335.4,360.9z"/>
			<path class="st74" d="M338.5,360.9C338.5,360.9,338.5,360.9,338.5,360.9L338.5,360.9L338.5,360.9L338.5,360.9z"/>
			<path class="st75" d="M300.8,460.6c0.8-7.3,5.1-13.6,11.2-17.1c0.1-2.1,1.5-3.8,3.2-3.8c1,0,1.9,0.6,2.5,1.5
				c1.8-0.5,3.7-0.7,5.6-0.7h3.1v-9c-1-0.4-1.9-0.9-2.8-1.5c-0.1-0.2-0.3,0-0.3,0c-5.5-3.9-8.9-10.6-8.9-17.4v-11v-12.3
				c2.9,0,12.7-0.1,17.6-0.1c2.3,0,4-1.4,5.2-3.2c1.3,1.8,3,3.2,5.2,3.2h3.2c5.1,0,12,0,14.4,0.1v23v0.3c0,2.1-0.3,4.2-1,6.1
				c-0.1,0.4-0.3,0.8-0.4,1.1c-0.3,0.8-0.7,1.5-1,2.2c-0.4,0.7-0.8,1.4-1.3,2.1c-1.4,2-3.2,3.7-5.3,5.2v0c-1.6,1.1-3.4,2.1-5.3,2.8
				c-0.1,0-0.1,0-0.2,0.1v0c0.1,0,0.2,0,0.2-0.1v2.8h0c0,0,0,0.1,0,0.1c0,0.7-0.1,1.4-0.2,2.1v3.5h3.6c1.4,0,2.9,0.1,4.2,0.4
				c0.6-0.7,1.4-1.2,2.3-1.2c1.5,0,2.7,1.2,3.1,2.9c7,3.3,12,10,12.9,18c0.1,0.8,0.1,1.6,0.1,2.5v7.4c5.1-6.5,8.1-14.7,8.1-23.6
				c0-11.3-4.9-21.5-12.7-28.6l-0.8-4.3c-0.9,0.4-2,0.6-3,0.6c-0.1,0-0.2,0-1.3,0v-0.8v0l0.3-14.5l1,0.1c0,0,0,0,0.1,0
				c0.3,0,0.5,0.1,0.7,0.1v-12.1c0-7.2-2.8-13.7-7.4-18.5c-4.6-4.8-11-7.9-18.1-8.2l0,0.1c0,0,0,0-0.1,0v0l0,0c-0.3,0-0.5,0-0.8,0v0
				c0,0-0.1,0-0.1,0c-0.1,0-0.2,0-0.3,0c-0.1,0-0.3,0-0.4,0c-0.1,0-0.3,0-0.4,0c-0.1,0-0.2,0-0.3,0c0,0-0.1,0-0.1,0v0
				c-0.3,0-0.5,0-0.8,0l0,0v0c0,0,0,0-0.1,0l0-0.1c-7.1,0.3-13.5,3.4-18.1,8.2c-4.6,4.8-7.4,11.3-7.4,18.5v12.2c0.3,0,0.7-0.1,1-0.1
				c0,0,0,0,0.1,0l1-0.1v14.5h0l0,0v1.1l-0.8-0.3c-0.1,0-0.2,0-0.3,0c-1.2,0-2.3-0.3-3.3-0.8l-0.8,4.4c-7.8,7-12.7,17.2-12.7,28.6
				c0,7.9,2.4,15.2,6.5,21.3v-5.2C300.6,462.3,300.7,461.4,300.8,460.6z M315,380.3h0.1H315L315,380.3z"/>
			<path class="st76" d="M363.2,399.5l-1-0.1l-0.3,14.5v0v0.8c1.1,0,1.2,0,1.3,0c1.1,0,2.1-0.2,3-0.6c2.7-1.2,4.6-3.9,4.6-7
				c0-3.9-3-7.2-6.9-7.5C363.7,399.5,363.5,399.5,363.2,399.5C363.2,399.5,363.2,399.5,363.2,399.5z"/>
			<path class="st76" d="M311.2,414.7l0.8,0.3v-1.1l0,0h0v-14.5l-1,0.1c0,0,0,0-0.1,0c-0.3,0-0.7,0.1-1,0.1
				c-3.7,0.5-6.6,3.7-6.6,7.5c0,3,1.8,5.6,4.3,6.8c1,0.5,2.1,0.8,3.3,0.8C311,414.7,311.1,414.7,311.2,414.7z"/>
			<path class="st76" d="M307.1,473.5c0-4.3,1.9-8.2,4.9-10.8v-0.5v-18.1h0c0-0.1,0-0.3,0-0.5v-0.2c-6.1,3.5-10.4,9.8-11.2,17.1
				c-0.1,0.8-0.1,1.6-0.1,2.5v5.2v19.8h11.3v-3.7C308.9,481.7,307.1,477.8,307.1,473.5z"/>
			<path class="st76" d="M371.6,463.1c0-0.8,0-1.6-0.1-2.5c-0.9-8-5.9-14.8-12.9-18c0.1,0.3,0.1,0.7,0.1,1.1c0,0.2,0,0.3,0,0.5h0
				v17.4c3.9,2.6,6.4,7,6.4,12.1c0,5-2.5,9.5-6.4,12v2.5h12.9v-17.6V463.1z"/>
			<path class="st76" d="M345.4,440.5v0.5c0,2.6-1.1,5-2.8,6.8c-1.7,1.7-4.1,2.7-6.7,2.7c-5.3,0-9.5-4.3-9.5-9.5v-0.5h-3.1
				c-1.9,0-3.8,0.2-5.6,0.7c0.5,0.7,0.7,1.5,0.7,2.5c0,0.2,0,0.3,0,0.5h0v10.2c0,1.9,0.8,3.6,2.2,4.8c1.1,1,2.6,1.6,4.2,1.6
				c0.2,0,0.5,0,0.7-0.1v0.1h19.7v-0.1c0.2,0,0.5,0.1,0.7,0.1c1.6,0,3.1-0.6,4.2-1.6c1.3-1.2,2.1-2.9,2.1-4.8v-10.2h0
				c0-0.1,0-0.3,0-0.5c0-1.1,0.4-2.1,1-2.8c-1.4-0.3-2.8-0.4-4.2-0.4H345.4z"/>
			<path class="st77" d="M335.9,450.5c2.6,0,5-1,6.7-2.7c1.8-1.7,2.8-4.1,2.8-6.8v-0.5V437c0.1-0.7,0.2-1.4,0.2-2.1c0,0,0-0.1,0-0.1
				h0v-2.8c-0.1,0-0.2,0-0.2,0.1v0c-2.7,1-5.6,1.5-8.7,1.5c-3.6,0-7.1-0.7-10.1-2.1c-0.1,0-0.1-0.1-0.2-0.1v9v0.5
				C326.4,446.2,330.6,450.5,335.9,450.5z"/>
			<polygon class="st76" points="315,380.3 315,380.3 315.1,380.3 			"/>
			<path class="st76" d="M344.2,414.9h0.1c0.7,0,1.3-0.3,1.7-0.9C345.6,414.5,344.9,414.9,344.2,414.9z"/>
			<path class="st76" d="M336.7,433.7c3.1,0,6-0.5,8.7-1.5c0.1,0,0.1,0,0.2-0.1c1.9-0.7,3.7-1.7,5.3-2.8v0c2.1-1.5,3.9-3.2,5.3-5.2
				c0.5-0.7,0.9-1.4,1.3-2.1c0.4-0.7,0.7-1.4,1-2.2c0.1-0.4,0.3-0.8,0.4-1.1c0.6-1.9,1-4,1-6.1v-0.3v-23c-2.4,0-9.2,0-14.4-0.1h-3.2
				c-2.3,0-4-1.4-5.2-3.2c-1.2,1.8-2.9,3.2-5.2,3.2c-4.9,0-14.7,0-17.6,0.1v12.3v11c0,6.8,3.4,13.5,8.9,17.4c0,0,0.2-0.2,0.3,0
				c0.9,0.6,1.8,1,2.8,1.5c0.1,0,0.1,0.1,0.2,0.1C329.6,432.9,333.1,433.7,336.7,433.7z M322.8,402.7v-4.4h0
				c0.1-1.2,1.1-2.2,2.3-2.2c1.2,0,2.2,1,2.3,2.2h0v4.4h0c-0.1,1.2-1.1,2.2-2.3,2.2C323.8,404.9,322.8,403.9,322.8,402.7
				L322.8,402.7z M339.2,406.7L339.2,406.7C339.2,406.7,339.2,406.7,339.2,406.7L339.2,406.7z M346,398.3L346,398.3
				c0.1-1.2,1.1-2.2,2.3-2.2s2.2,1,2.3,2.2h0v4.4h0c-0.1,1.2-1.1,2.2-2.3,2.2s-2.2-1-2.3-2.2h0V398.3z M336.7,404.5
				c1.2,0,2.2,1,2.3,2.2h-4.4c0,0,0,0.1,0,0.1v-0.1h-0.2C334.4,405.4,335.4,404.5,336.7,404.5z M322.4,415.2c0,0.1,0.1,0.3,0.1,0.4
				C322.5,415.5,322.5,415.3,322.4,415.2z M323.8,418.2L323.8,418.2c-0.5-0.8-0.9-1.7-1.2-2.6c0-0.1-0.1-0.3-0.1-0.4c0,0,0,0,0,0
				c-0.1-0.3-0.1-0.6-0.1-0.9c0-2.1,1.7-3.8,3.8-3.8c0.1,0,0.2,0,0.3,0h0.7h0.1h19.1h0.1h0.3c0.1,0,0.2,0,0.3,0
				c2.1,0,3.8,1.7,3.8,3.8c0,0,0,0.1,0,0.1c0,0,0,0.1,0,0.1c0,0.6-0.2,1.2-0.5,1.7c0,0,0,0.1,0,0.1c-0.2,0.6-0.5,1.3-0.9,1.8h0.1
				c-2.6,4.6-7.4,7.8-12.9,7.8C331.1,425.9,326.3,422.8,323.8,418.2z"/>
			<path d="M325.1,404.9c1.2,0,2.2-1,2.3-2.2h0v-4.4h0c-0.1-1.2-1.1-2.2-2.3-2.2c-1.2,0-2.2,1-2.3,2.2h0v4.4h0
				C322.8,403.9,323.8,404.9,325.1,404.9z"/>
			<path d="M348.3,404.9c1.2,0,2.2-1,2.3-2.2h0v-4.4h0c-0.1-1.2-1.1-2.2-2.3-2.2s-2.2,1-2.3,2.2h0v4.4h0
				C346.1,403.9,347.1,404.9,348.3,404.9z"/>
			<path class="st77" d="M334.6,406.7h4.4c-0.1-1.2-1.1-2.2-2.3-2.2s-2.2,1-2.3,2.2H334.6L334.6,406.7z"/>
			<path d="M334.6,406.8C334.6,406.7,334.6,406.7,334.6,406.8L334.6,406.8L334.6,406.8z"/>
			<path d="M339.2,406.7L339.2,406.7C339.2,406.7,339.2,406.7,339.2,406.7L339.2,406.7z"/>
			<path class="st78" d="M336.7,425.9c5.5,0,10.4-3.1,12.9-7.8h-0.1h-25.8C326.3,422.8,331.1,425.9,336.7,425.9z"/>
			<path class="st79" d="M349.5,418.2c0.3-0.6,0.6-1.2,0.9-1.8c0,0,0-0.1,0-0.1c0.3-0.5,0.5-1.1,0.5-1.7c0,0,0-0.1,0-0.1
				c0,0,0-0.1,0-0.1c0-2.1-1.7-3.8-3.8-3.8c-0.1,0-0.2,0-0.3,0h-0.3c0,1.1,0.1,1.8,0.1,2.2c0,0.1,0,0.1,0,0.1c0,0.5-0.2,1-0.5,1.3
				c-0.4,0.5-1,0.9-1.7,0.9h-0.1h-14.8h-0.1c-1.2,0-2.2-1-2.2-2.2c0,0,0-0.1,0-0.1c0-0.3,0-1.1,0.1-2.2h-0.7c-0.1,0-0.2,0-0.3,0
				c-2.1,0-3.8,1.7-3.8,3.8c0,0.3,0,0.6,0.1,0.9c0,0,0,0,0,0c0,0.1,0.1,0.3,0.1,0.4c0.3,0.9,0.7,1.7,1.1,2.6h0.1H349.5z"/>
			<path class="st80" d="M322.6,415.6c0-0.1-0.1-0.3-0.1-0.4"/>
			<path class="st71" d="M327.1,412.7c0,1.2,1,2.2,2.2,2.2h0.1h14.8c0.7,0,1.4-0.3,1.9-0.9c0.3-0.4,0.5-0.8,0.5-1.3c0,0,0-0.1,0-0.1
				c0-0.3,0-1.1-0.1-2.2h-0.1h-19.1h-0.1c0,1.1-0.1,1.9-0.1,2.2C327.1,412.6,327.1,412.7,327.1,412.7z"/>
			<path class="st81" d="M365.1,473.5c0-5-2.5-9.5-6.4-12.1v-17.4h0c0-0.1,0-0.3,0-0.5c0-0.4,0-0.7-0.1-1.1
				c-0.4-1.7-1.6-2.9-3.1-2.9c-0.9,0-1.7,0.5-2.3,1.2c-0.6,0.7-1,1.7-1,2.8c0,0.2,0,0.3,0,0.5h0v10.2c0,1.9-0.8,3.6-2.1,4.8
				c-1.1,1-2.6,1.6-4.2,1.6c-0.2,0-0.5,0-0.7-0.1v0.1h-19.7v-0.1c-0.2,0-0.5,0.1-0.7,0.1c-1.6,0-3.1-0.6-4.2-1.6
				c-1.3-1.2-2.2-2.9-2.2-4.8v-10.2h0c0-0.1,0-0.3,0-0.5c0-1-0.3-1.8-0.7-2.5c-0.6-0.9-1.5-1.5-2.5-1.5c-1.7,0-3.1,1.7-3.2,3.8v0.2
				c0,0.2,0,0.3,0,0.5h0v18.1v0.5c-3,2.6-4.9,6.5-4.9,10.8s1.9,8.2,4.9,10.8v3.7h7h30.4h1.3h8.1v-2.5
				C362.6,483,365.1,478.6,365.1,473.5z"/>
		</g>
		<g>
			<path class="st82" d="M297.1,396.3c0.4-0.7,0.7-1.5,1.3-2.1c1.1-1.3,2.7-1.4,4.4-1.2c0,6.7,0,13.3,0,20c-2.4,0.4-4.8-0.4-5.7-3.4
				C297.1,405,297.1,400.7,297.1,396.3z"/>
			<path class="st83" d="M311.8,385.6c-1.9,0-3.8,0-5.7,0c2-14.9,15.3-27.5,32.2-27c17.1,0.5,28.6,13.9,30.2,27c-1.9,0-3.7,0-5.6,0
				c-1.4-7.2-5-12.9-11.1-17.1c-4.9-3.3-10.3-4.8-16.2-4.4C324.1,364.9,314,373.3,311.8,385.6z"/>
			<path class="st82" d="M371.8,392.7c1.2,0.2,2.3,0.3,3.3,0.7c1.5,0.6,2.4,2,2.4,3.7c0.1,3.9,0.1,7.9,0,11.8c0,2.2-1.9,4-4.1,4.1
				c-0.5,0-1,0-1.6,0C371.8,406.3,371.8,399.6,371.8,392.7z"/>
			<path class="st83" d="M307.1,417.3c-0.5,0-1,0-1.4,0c-1.7-0.1-2.9-1.2-2.9-3c0-7.6,0-15.2,0-22.8c0-1.8,1.2-2.9,3-3
				c1.8,0,3.6,0,5.4,0c1.9,0,3.1,1.1,3.1,3.1c0,3.4,0,6.7,0,10.1c0,4,0,7.9,0,11.9c0,2.7-0.9,3.7-3.7,3.7c-0.2,0-0.3,0-0.5,0
				c0,0.1-0.1,0.1-0.1,0.2"/>
			<path class="st83" d="M371.8,402.9c0,3.7,0,7.3,0,11c0,2.2-1.1,3.3-3.3,3.3c-1.7,0-3.4,0-5,0c-2,0-3.1-1.1-3.1-3.1
				c0-7.5,0-15,0-22.4c0-2,1.1-3.2,3.2-3.2c1.7,0,3.4,0,5,0c2.1,0,3.2,1.1,3.3,3.3C371.8,395.5,371.8,399.2,371.8,402.9z"/>
		</g>
		<rect x="306" y="385.6" class="st83" width="5.6" height="12.8"/>
		<rect x="362.8" y="385.6" class="st83" width="5.9" height="12.8"/>
	</g>
	<path class="st72" d="M352.9,167.6H236.3c-2.8,0-5-2.2-5-5v-50c0-2.8,2.2-5,5-5h116.5c2.8,0,5,2.2,5,5v50
		C357.9,165.3,355.6,167.6,352.9,167.6z"/>
	<circle class="st71" cx="251.3" cy="137.6" r="6.8"/>
	<g>
		<path class="st71" d="M925.2,413.2H770.5c-5.5,0-10-4.5-10-10V117.1c0-5.5,4.5-10,10-10h154.7c5.5,0,10,4.5,10,10v286.1
			C935.2,408.7,930.7,413.2,925.2,413.2z"/>
		<circle class="st84" cx="795.3" cy="162.7" r="20.2"/>
		<g>
			<line class="st85" x1="831.3" y1="147.4" x2="871.7" y2="147.4"/>
			<path class="st84" d="M871.7,149.9h-40.3c-1.3,0-2.4-1.1-2.4-2.4c0-1.3,1.1-2.4,2.4-2.4h40.3c1.3,0,2.4,1.1,2.4,2.4
				C874.1,148.8,873,149.9,871.7,149.9z"/>
		</g>
		<g>
			<line class="st85" x1="831.3" y1="176.8" x2="902.2" y2="176.8"/>
			<path class="st84" d="M902.2,179.2h-70.9c-1.3,0-2.4-1.1-2.4-2.4c0-1.3,1.1-2.4,2.4-2.4h70.9c1.3,0,2.4,1.1,2.4,2.4
				C904.7,178.1,903.6,179.2,902.2,179.2z"/>
		</g>
		<circle class="st84" cx="795.3" cy="229.9" r="20.2"/>
		<g>
			<line class="st85" x1="831.3" y1="214.6" x2="871.7" y2="214.6"/>
			<path class="st84" d="M871.7,217.1h-40.3c-1.3,0-2.4-1.1-2.4-2.4c0-1.3,1.1-2.4,2.4-2.4h40.3c1.3,0,2.4,1.1,2.4,2.4
				C874.1,216,873,217.1,871.7,217.1z"/>
		</g>
		<g>
			<line class="st85" x1="831.3" y1="230.5" x2="920.5" y2="230.5"/>
			<path class="st84" d="M920.5,233h-89.2c-1.3,0-2.4-1.1-2.4-2.4c0-1.3,1.1-2.4,2.4-2.4h89.2c1.3,0,2.4,1.1,2.4,2.4
				C923,231.9,921.9,233,920.5,233z"/>
			<path class="st84" d="M920.5,165.3h-89.2c-1.3,0-2.4-1.1-2.4-2.4c0-1.3,1.1-2.4,2.4-2.4h89.2c1.3,0,2.4,1.1,2.4,2.4
				C923,164.2,921.9,165.3,920.5,165.3z"/>
		</g>
		<g>
			<line class="st85" x1="831.3" y1="244" x2="902.2" y2="244"/>
			<path class="st84" d="M902.2,246.4h-70.9c-1.3,0-2.4-1.1-2.4-2.4c0-1.3,1.1-2.4,2.4-2.4h70.9c1.3,0,2.4,1.1,2.4,2.4
				C904.7,245.3,903.6,246.4,902.2,246.4z"/>
		</g>
		<circle class="st84" cx="795.3" cy="294.7" r="20.2"/>
		<g>
			<line class="st85" x1="831.3" y1="279.4" x2="871.7" y2="279.4"/>
			<path class="st84" d="M871.7,281.8h-40.3c-1.3,0-2.4-1.1-2.4-2.4s1.1-2.4,2.4-2.4h40.3c1.3,0,2.4,1.1,2.4,2.4
				S873,281.8,871.7,281.8z"/>
		</g>
		<g>
			<line class="st85" x1="831.3" y1="295.3" x2="920.5" y2="295.3"/>
			<path class="st84" d="M920.5,297.7h-89.2c-1.3,0-2.4-1.1-2.4-2.4s1.1-2.4,2.4-2.4h89.2c1.3,0,2.4,1.1,2.4,2.4
				S921.9,297.7,920.5,297.7z"/>
		</g>
		<g>
			<line class="st85" x1="831.3" y1="308.7" x2="902.2" y2="308.7"/>
			<path class="st84" d="M902.2,311.2h-70.9c-1.3,0-2.4-1.1-2.4-2.4c0-1.3,1.1-2.4,2.4-2.4h70.9c1.3,0,2.4,1.1,2.4,2.4
				C904.7,310.1,903.6,311.2,902.2,311.2z"/>
		</g>
		<circle class="st84" cx="795.3" cy="360.6" r="20.2"/>
		<g>
			<line class="st85" x1="831.3" y1="345.4" x2="871.7" y2="345.4"/>
			<path class="st84" d="M871.7,347.8h-40.3c-1.3,0-2.4-1.1-2.4-2.4c0-1.3,1.1-2.4,2.4-2.4h40.3c1.3,0,2.4,1.1,2.4,2.4
				C874.1,346.7,873,347.8,871.7,347.8z"/>
		</g>
		<g>
			<line class="st85" x1="831.3" y1="361.3" x2="920.5" y2="361.3"/>
			<path class="st84" d="M920.5,363.7h-89.2c-1.3,0-2.4-1.1-2.4-2.4s1.1-2.4,2.4-2.4h89.2c1.3,0,2.4,1.1,2.4,2.4
				S921.9,363.7,920.5,363.7z"/>
		</g>
		<g>
			<line class="st85" x1="831.3" y1="374.7" x2="902.2" y2="374.7"/>
			<path class="st84" d="M902.2,377.1h-70.9c-1.3,0-2.4-1.1-2.4-2.4c0-1.3,1.1-2.4,2.4-2.4h70.9c1.3,0,2.4,1.1,2.4,2.4
				C904.7,376,903.6,377.1,902.2,377.1z"/>
		</g>
		<g>
			<line class="st85" x1="831.3" y1="163.3" x2="902.2" y2="163.3"/>
		</g>
	</g>
	<text transform="matrix(1 0 0 1 271.563 148.5103)" class="st86 st87 st88">LIVE</text>
	<path class="st89" d="M555.8,516.4c-0.8-44.7-7.3-78.6,4.5-102.1c7.3-14.4,16.1-24.9,25.6-31.5c8.4-5.8,17.5-7.4,26.5-7.3
		c8.9,0.1,18,2,26.3,7.9c9.4,6.6,18.2,16.9,25.4,31c12.2,23.7,5.2,102.1,5.2,102.1"/>
	<path class="st89" d="M583.4,386.1c-0.3-0.2-0.5-0.4-0.6-0.7l11-37.7h38.1c0,0,7.8,28.4,10.4,38.3c-0.2,0.1-0.3,0.4-0.5,0.5"/>
	<path class="st90" d="M545.5,297c-1.2-0.2-2.5-1.6-3.6-2.2c-2.3-1.3-4.5-2.6-6.8-3.7c-3.3-1.5-7.9-2.7-11.6-1.8
		c-4.8,1.1-5.8,7.6-6.5,11.6c-1,6.4-2.4,13.4-0.9,19.8c1,4.3,2.3,8.9,7.3,9.8c5.2,1,11-3.2,15.1-5.8c2.5-1.6,6.2-3.4,7.2-6.4
		c0.6-1.8,0.5-3.8,0.7-5.7c0.3-2.4,0.5-4.8,0.4-7.2C546.7,302.3,546.3,298.7,545.5,297z"/>
	<path class="st90" d="M682.5,297c1.2-0.2,2.5-1.6,3.6-2.2c2.3-1.3,4.5-2.6,6.8-3.7c3.3-1.5,7.9-2.7,11.6-1.8
		c4.8,1.1,5.8,7.6,6.5,11.6c1,6.4,2.4,13.4,0.9,19.8c-1,4.3-2.3,8.9-7.3,9.8c-5.2,1-11-3.2-15.1-5.8c-2.5-1.6-6.2-3.4-7.2-6.4
		c-0.6-1.8-0.5-3.8-0.7-5.7c-0.3-2.4-0.5-4.8-0.4-7.2C681.3,302.3,681.7,298.7,682.5,297z"/>
	<path class="st91" d="M541.2,305.9c-2.3-2.2-5.7-3.5-8.6-4.9c-1.6-0.8-4.7-3.3-6.5-2.3c2.2,2.8,6.7,3.8,9.7,5.5
		c1.7,1,3.4,1.9,5.2,2.6C541.4,306.6,541.5,306.4,541.2,305.9z"/>
	<path class="st91" d="M686.8,305.9c2.3-2.2,5.7-3.5,8.6-4.9c1.6-0.8,4.7-3.3,6.5-2.3c-2.2,2.8-6.7,3.8-9.7,5.5
		c-1.7,1-3.4,1.9-5.2,2.6C686.6,306.6,686.5,306.4,686.8,305.9z"/>
	<path class="st91" d="M540.4,312c-0.6-0.7-1.9-0.7-2.7-0.9c-2.1-0.5-4.1-1.3-6.1-1.7c-1.7-0.3-6.2-1.3-7.5,0.1
		c1.5,1.6,4.6,1.6,6.6,2c2.1,0.4,4.2,0.9,6.3,1.2C537.6,312.8,542.4,314.3,540.4,312z"/>
	<path class="st91" d="M687.6,312c0.6-0.7,1.9-0.7,2.7-0.9c2.1-0.5,4.1-1.3,6.1-1.7c1.7-0.3,6.2-1.3,7.5,0.1c-1.5,1.6-4.6,1.6-6.6,2
		c-2.1,0.4-4.2,0.9-6.3,1.2C690.4,312.8,685.6,314.3,687.6,312z"/>
	<path class="st91" d="M539.8,316.8c-1.1-1.2-6.4,0.7-7.8,1.2c-1,0.3-7,2.4-5.9,3.9c0.9,1.2,9.2-2.6,10.4-3c1.6-0.6,3.1-1.4,4.7-2
		C540.8,316.5,540,316.5,539.8,316.8z"/>
	<path class="st91" d="M688.2,316.8c1.1-1.2,6.4,0.7,7.8,1.2c1,0.3,7,2.4,5.9,3.9c-0.9,1.2-9.2-2.6-10.4-3c-1.6-0.6-3.1-1.4-4.7-2
		C687.2,316.5,688,316.5,688.2,316.8z"/>
	<path class="st92" d="M613.7,206.1c0,0-64.1-2.5-70.7,106.9c-1.2,19.4,13.2,36.6,33.1,39.3c9.9,1.3,22.4,2.3,37.7,2.3
		s27.8-1,37.7-2.3c19.8-2.7,34.2-19.8,33.1-39.3c-6.5-109.4-70.7-106.9-70.7-106.9"/>
	<path class="st89" d="M614,220.8c0,0-49.8-2.3-54.9,96.7c-0.9,17.6,10.3,33.1,25.7,35.5c7.7,1.2,17.4,2.1,29.3,2.1
		c11.9,0,21.6-0.9,29.3-2.1c15.4-2.4,26.6-18,25.7-35.5c-5.1-99-54.9-96.7-54.9-96.7"/>
	<path class="st93" d="M560.3,267.2c-1.5,0.2-2.8,4-3.3,5c-2.7,4.9-3.7,10.4-5.1,15.5c-1.9,7.2-2.7,15.2-2.9,23
		c-0.1,2.8,0,5.6,0.5,8.4c0.1,0.6,0,1.6,1,1.8c0.9-0.9,0.2-3.2,0.1-4.3c-0.2-2.7-0.3-5.3-0.3-8c-0.1-4.2,0.6-8.2,1.2-12.3
		c0.8-4.6,1.6-9.2,2.9-13.8c1-3.4,2.7-7.6,4.2-10.9c0.5-1.2,2.5-4,2.4-4.2C560.7,267.4,561.1,266.8,560.3,267.2z"/>
	<path class="st93" d="M666.8,267.2c1.5,0.2,2.8,4,3.3,5c2.7,4.9,3.7,10.4,5.1,15.5c2,7.5,2.7,15.3,2.9,23c0.1,2.8,0,5.6-0.5,8.4
		c-0.1,0.6,0,1.6-1,1.8c-0.9-0.9-0.2-3.2-0.1-4.3c0.2-2.7,0.3-5.3,0.3-8c0.1-4.2-0.6-8.2-1.2-12.3c-0.8-4.6-1.6-9.2-2.9-13.8
		c-1-3.4-2.7-7.6-4.2-10.9c-0.5-1.2-2.5-4-2.4-4.2C666.4,267.4,666,266.8,666.8,267.2z"/>
	<path d="M611,280.9c-0.1-0.2-0.3-0.4-0.5-0.5c-0.3-0.1-0.4,0.1-0.5,0.3c-0.2,0.6-0.1,1.4,0,2.1c0.1,0.6,0.2,3.5,1.3,3.5
		c0.6,0,0.4-1.4,0.4-1.7c-0.1-0.5-0.2-1-0.2-1.5s0-0.9-0.2-1.3C611.2,281.5,611.1,281.2,611,280.9z"/>
	<path d="M617,280.9c0.1-0.2,0.3-0.4,0.5-0.5c0.3-0.1,0.4,0.1,0.5,0.3c0.2,0.6,0.1,1.4,0,2.1c-0.1,0.6-0.2,3.5-1.3,3.5
		c-0.6,0-0.4-1.4-0.4-1.7c0.1-0.5,0.2-1,0.2-1.5s0-0.9,0.2-1.3C616.8,281.5,616.9,281.2,617,280.9z"/>
	<g>
		<circle class="st93" cx="645.2" cy="273.9" r="9.3"/>
		<circle class="st71" cx="644.5" cy="275" r="8"/>
		<circle cx="644.5" cy="275" r="4.8"/>
	</g>
	<g>
		<circle class="st93" cx="582.8" cy="273.9" r="9.3"/>
		<circle class="st71" cx="583.5" cy="275" r="8"/>
		<circle cx="583.5" cy="275" r="4.8"/>
	</g>
	<g>
		<path d="M592.6,258.2c-0.9-1.1-1.6-2.1-3-2.8c-1.9-0.9-4.1-1.1-6.2-1c-2.2,0.1-5.3,0.3-7,1.9c-1.3,1.2-0.1,1.2,1,1
			c2.4-0.4,4.5-0.7,6.9,0.1c1.6,0.5,3.1,1.1,4.6,1.7c0.8,0.3,1.7,0.7,2.5,0.3C592.4,259.2,592.9,258.2,592.6,258.2z"/>
	</g>
	<g>
		<path d="M635.4,258.2c0.9-1.1,1.6-2.1,3-2.8c1.9-0.9,4.1-1.1,6.2-1c2.2,0.1,5.3,0.3,7,1.9c1.3,1.2,0.1,1.2-1,1
			c-2.4-0.4-4.5-0.7-6.9,0.1c-1.6,0.5-3.1,1.1-4.6,1.7c-0.8,0.3-1.7,0.7-2.5,0.3C635.6,259.2,635.1,258.2,635.4,258.2z"/>
	</g>
	<path class="st94" d="M613.8,294.8c-2.7-0.1-5.4,0.7-7.5,1.8c-6.2,3.1-10.6,10.1-8.7,17.1c0.9,3.2,2.3,5.6,5.2,7.4
		c2.8,1.8,5.6,1.8,8.8,1.8c0.7,0,1.5,0,2.2,0s1.5,0,2.2,0c3.1-0.2,6-0.2,8.8-1.8c2.9-1.8,4.3-4.1,5.2-7.4c1.9-7-2.5-14-8.7-17.1
		C619.3,295.6,616.5,294.8,613.8,294.8z"/>
	<path class="st95" d="M598.1,310.2c-0.2,2.7,3,7.5,5.5,4.2c0.4-0.5,0.5-1.1,0.5-1.7c0-1.3-0.1-2.7-0.3-4c-0.1-0.4-0.1-0.9-0.4-1.1
		c-0.5-0.3-1.5-0.1-2,0c-1.1,0.2-2,0.4-2.8,1.2C598.3,309.4,597.7,310.2,598.1,310.2z"/>
	<path class="st95" d="M629.5,310.2c0.2,2.7-3,7.5-5.5,4.2c-0.4-0.5-0.5-1.1-0.5-1.7c0-1.3,0.1-2.7,0.3-4c0.1-0.4,0.1-0.9,0.4-1.1
		c0.5-0.3,1.5-0.1,2,0c1.1,0.2,2,0.4,2.8,1.2C629.3,309.4,629.9,310.2,629.5,310.2z"/>
	<path class="st96" d="M613.8,321.6c-1.1,0-2.2-0.3-3.1-0.6c-2.4-0.6-4.4-2-6.5-3.5c-1.8-1.3-3.3-3.4-5.4-4.2
		c-1.4-0.6-3-0.6-3.2,1.2c-0.2,1.9,0.9,3.6,1.8,5.2c1.1,1.8,3,3.4,4.9,4.4c3.5,2,7.5,3.1,11.4,3.2c4-0.2,7.9-1.2,11.4-3.2
		c1.8-1.1,3.8-2.6,4.9-4.4c1-1.6,2.1-3.2,1.8-5.2c-0.2-1.8-1.8-1.8-3.2-1.2c-2.1,0.8-3.6,2.9-5.4,4.2c-2,1.5-4.1,2.9-6.5,3.5
		C616,321.3,614.9,321.6,613.8,321.6z"/>
	<path class="st95" d="M600.6,305.9c-0.2,2.7,3,7.5,5.5,4.2c0.4-0.5,0.5-1.1,0.5-1.7c0-1.3-0.1-2.7-0.3-4c-0.1-0.4-0.1-0.9-0.4-1.1
		c-0.5-0.3-1.5-0.1-2,0c-1.1,0.2-2,0.4-2.8,1.2C600.9,305.1,600.3,306,600.6,305.9z"/>
	<path class="st95" d="M627,305.9c0.2,2.7-3,7.5-5.5,4.2c-0.4-0.5-0.5-1.1-0.5-1.7c0-1.3,0.1-2.7,0.3-4c0.1-0.4,0.1-0.9,0.4-1.1
		c0.5-0.3,1.5-0.1,2,0c1.1,0.2,2,0.4,2.8,1.2C626.7,305.1,627.4,306,627,305.9z"/>
	<path class="st95" d="M603.5,302.2c-0.2,2.7,3,7.5,5.5,4.2c0.4-0.5,0.5-1.1,0.5-1.7c0-1.3-0.1-2.7-0.3-4c-0.1-0.4-0.1-0.9-0.4-1.1
		c-0.5-0.3-1.5-0.1-2,0c-1.1,0.2-2,0.4-2.8,1.2C603.7,301.3,603,302.3,603.5,302.2z"/>
	<path class="st95" d="M624.1,302.2c0.2,2.7-3,7.5-5.5,4.2c-0.4-0.5-0.5-1.1-0.5-1.7c0-1.3,0.1-2.7,0.3-4c0.1-0.4,0.1-0.9,0.4-1.1
		c0.5-0.3,1.5-0.1,2,0c1.1,0.2,2,0.4,2.8,1.2C624,301.3,624.6,302.3,624.1,302.2z"/>
	<path class="st95" d="M607.6,298.9c-0.2,2.7,3,7.5,5.5,4.2c0.4-0.5,0.5-1.1,0.5-1.7c0-1.3-0.1-2.7-0.3-4c-0.1-0.4-0.1-0.9-0.4-1.1
		c-0.5-0.3-1.5-0.1-2,0c-1.1,0.2-2,0.4-2.8,1.2C607.9,298.1,607.3,299,607.6,298.9z"/>
	<path class="st95" d="M620,298.9c0.2,2.7-3,7.5-5.5,4.2c-0.4-0.5-0.5-1.1-0.5-1.7c0-1.3,0.1-2.7,0.3-4c0.1-0.4,0.1-0.9,0.4-1.1
		c0.5-0.3,1.5-0.1,2,0c1.1,0.2,2,0.4,2.8,1.2C619.7,298.1,620.4,299,620,298.9z"/>
	<path class="st97" d="M613.8,292c-3.2,0-6.5,0.8-9.1,2.6c-4.6,3-7.9,7.8-9.9,12.9c-0.9,2.3-1.8,5.3-0.6,7.6c0.6,1.1,1.8,2,3,1
		c1.9-1.8,3.1-4.5,4.4-6.8c1.4-2.6,2.7-5.2,4.7-7.3c1.7-1.8,3.2-3.1,5.6-3.6c0.6-0.1,1.3-0.2,1.9-0.2c0.6,0,1.3,0.1,1.9,0.2
		c2.4,0.5,4.1,1.8,5.6,3.6c2,2.1,3.3,4.8,4.7,7.3c1.2,2.3,2.5,5,4.4,6.8c1,1,2.3,0.1,2.9-1c1.3-2.3,0.3-5.3-0.6-7.6
		c-1.9-5.2-5.3-9.9-9.9-12.9C620.4,292.9,617,292,613.8,292z"/>
	<path class="st98" d="M587.3,378.1"/>
	<path class="st89" d="M582.8,385.4c0,0-88.7-7.3-72.3,131.1H549c0,0-4.6-57.7,7.1-72.4"/>
	<path class="st89" d="M640.8,385.4c0,0,88.7-7.3,72.3,131.1h-38.5c0,0,4.6-57.7-7.1-72.4"/>
</g>
</svg>
