<?xml version="1.0" encoding="utf-8"?>
<!-- Generator: Adobe Illustrator 25.0.0, SVG Export Plug-In . SVG Version: 6.00 Build 0)  -->
<svg version="1.1" id="레이어_1" xmlns="http://www.w3.org/2000/svg" xmlns:xlink="http://www.w3.org/1999/xlink" x="0px"
	 y="0px" viewBox="0 0 800.9 595.3" style="enable-background:new 0 0 800.9 595.3;" xml:space="preserve">
<style type="text/css">
	.st0{fill:url(#SVGID_1_);}
	.st1{fill:#282728;}
	.st2{fill:url(#SVGID_2_);}
	.st3{opacity:0.15;fill:#FFFFFF;}
	.st4{fill:url(#SVGID_3_);}
	.st5{fill:url(#SVGID_4_);}
	.st6{fill:#3D3C3D;}
	.st7{clip-path:url(#SVGID_6_);}
	.st8{fill:#E9E8ED;}
	.st9{fill:#EFE0D7;}
	.st10{fill:#DBC1AE;}
	.st11{fill:#C49D81;}
	.st12{fill:#8B6986;}
	.st13{fill:#7C5B79;}
	.st14{fill:#FAEDDB;}
	.st15{fill:#F0DCC2;}
	.st16{fill:#51A4AE;}
	.st17{fill:#2F969D;}
	.st18{fill:#8E88B2;}
	.st19{fill:#7D7AA3;}
	.st20{fill:#C1C1E1;}
	.st21{fill:#AEAED6;}
	.st22{fill:#6B4A69;}
	.st23{fill:#573956;}
	.st24{fill:#63536C;}
	.st25{fill:#DBEDFD;}
	.st26{fill:#EEF6FF;}
	.st27{fill:#634153;}
	.st28{fill:#4E3242;}
	.st29{fill:#7A5467;}
	.st30{fill:#684758;}
	.st31{fill:url(#SVGID_7_);}
	.st32{fill:#FBCF8A;}
	.st33{fill:#ECBD7E;}
	.st34{fill:url(#SVGID_8_);}
	.st35{fill:url(#SVGID_9_);}
	.st36{fill:#DFCFC5;}
	.st37{fill:#3C8C40;}
	.st38{fill:#378036;}
	.st39{fill:#58A955;}
	.st40{fill:#4A9746;}
	.st41{fill:#61BAB3;}
	.st42{fill:#4FACA3;}
	.st43{fill:#8CCCC8;}
	.st44{fill:#72BDB7;}
	.st45{fill:#426D99;}
	.st46{fill:#255981;}
	.st47{fill:#5279AA;}
	.st48{fill:#648CBC;}
	.st49{fill:#6C544C;}
	.st50{fill:#35648C;}
	.st51{fill:#194F74;}
	.st52{fill:#5B443F;}
	.st53{fill:#44709B;}
	.st54{fill:#5580AF;}
	.st55{fill:#636391;}
	.st56{fill:#3E3E67;}
	.st57{fill:#333356;}
	.st58{fill:#535382;}
	.st59{fill:#444472;}
	.st60{fill:url(#SVGID_10_);}
	.st61{fill:#8D716B;}
	.st62{fill:#B69689;}
	.st63{fill:#CCB0A3;}
	.st64{fill:#B9988B;}
	.st65{fill:#F18361;}
	.st66{fill:#DC6E4C;}
	.st67{fill:#124664;}
	.st68{fill:#543C61;}
	.st69{fill:#43304F;}
	.st70{clip-path:url(#SVGID_6_);fill:#A864C2;}
	.st71{fill:#FFFFFF;}
	.st72{fill:#F72814;}
	.st73{fill:none;stroke:#FFFFFF;stroke-miterlimit:10;}
	.st74{fill:none;}
	.st75{fill:#6E1908;}
	.st76{fill:#F8B0AA;}
	.st77{fill:#F88C87;}
	.st78{fill:#E8215F;}
	.st79{fill:#891937;}
	.st80{fill:none;stroke:#000000;stroke-width:0;stroke-linecap:round;stroke-linejoin:round;}
	.st81{fill:#FA1B1C;}
	.st82{fill:#B5B5B5;}
	.st83{fill:#D1D1D1;}
	.st84{opacity:0.4;fill:#A864C2;}
	.st85{fill:#ABAFD4;}
	.st86{fill:#90CCD6;}
	.st87{fill:#CCCCCC;}
	.st88{fill:#737373;}
	.st89{fill:#358084;}
	.st90{fill:#549E9E;}
	.st91{fill:#7C3000;stroke:#000000;stroke-miterlimit:10;}
	.st92{fill:#FFFFD4;stroke:#5E5D37;stroke-miterlimit:10;}
	.st93{fill:#FFFFFF;stroke:#647777;stroke-miterlimit:10;}
	.st94{fill:#CCCCCC;stroke:#636363;stroke-miterlimit:10;}
	.st95{fill:#90CCD6;stroke:#358084;stroke-miterlimit:10;}
</style>
<g>
	
		<image style="overflow:visible;opacity:0.33;" width="736" height="592" xlink:href="C9D942FD.png"  transform="matrix(1 0 0 1 46.1076 -613.231)">
	</image>
	<g>
		<g>
			<g>
				<linearGradient id="SVGID_1_" gradientUnits="userSpaceOnUse" x1="114.2798" y1="-69.5969" x2="699.6348" y2="-654.9519">
					<stop  offset="0" style="stop-color:#969696"/>
					<stop  offset="0.6002" style="stop-color:#F0F0F0"/>
					<stop  offset="1" style="stop-color:#E5E5E6"/>
				</linearGradient>
				<path class="st0" d="M759-135.7c0,9-7.2,16.2-16.2,16.2H71.1c-8.9,0-16.2-7.3-16.2-16.2v-453.2c0-9,7.2-16.2,16.2-16.2h671.7
					c8.9,0,16.2,7.3,16.2,16.2V-135.7z"/>
				<path class="st1" d="M759-183.4v-405.4c0-9-7.2-16.2-16.2-16.2H71.1c-8.9,0-16.2,7.3-16.2,16.2v405.4H759z"/>
				<linearGradient id="SVGID_2_" gradientUnits="userSpaceOnUse" x1="150.3655" y1="-651.7999" x2="663.5479" y2="-138.6176">
					<stop  offset="0" style="stop-color:#00A8C3"/>
					<stop  offset="1" style="stop-color:#152B84"/>
				</linearGradient>
				<rect x="80.8" y="-582.2" class="st2" width="652.3" height="374.1"/>
				<path class="st3" d="M743.6-605.1H566L407-183.4h352.8v-405.4C759.8-597.8,752.5-605.1,743.6-605.1z"/>
			</g>
			<g>
				<linearGradient id="SVGID_3_" gradientUnits="userSpaceOnUse" x1="407.352" y1="-47.0377" x2="407.352" y2="-119.4452">
					<stop  offset="0" style="stop-color:#A4A4A4"/>
					<stop  offset="0.1133" style="stop-color:#989898"/>
					<stop  offset="0.2042" style="stop-color:#C8C9CA"/>
					<stop  offset="0.4537" style="stop-color:#FFFFFF"/>
					<stop  offset="1" style="stop-color:#969696"/>
				</linearGradient>
				<path class="st4" d="M525.8-48c-1.2-0.3-24-4.6-25.4-5.2c-1.5-0.6-3.4-1.1-4-2.4c-5.9-14.3-10.1-63.8-10.1-63.8h-80.5h-77.3
					c0,0-4.2,49.4-10.1,63.8c-0.6,1.3-2.5,1.8-4,2.4c-1.4,0.6-24.2,4.9-25.4,5.2c-1.2,0.7-1,1-1,1h117.8h121
					C526.7-47,526.9-47.6,525.8-48z"/>
				<linearGradient id="SVGID_4_" gradientUnits="userSpaceOnUse" x1="287.9663" y1="-46.2053" x2="526.7592" y2="-46.2053">
					<stop  offset="1.108100e-02" style="stop-color:#1F1F1F"/>
					<stop  offset="5.066170e-02" style="stop-color:#848484"/>
					<stop  offset="0.5463" style="stop-color:#FFFFFF"/>
					<stop  offset="0.7958" style="stop-color:#C8C9CA"/>
					<stop  offset="0.8867" style="stop-color:#989898"/>
					<stop  offset="0.9477" style="stop-color:#ACADAE"/>
					<stop  offset="1" style="stop-color:#393939"/>
				</linearGradient>
				<rect x="288" y="-47" class="st5" width="238.8" height="1.7"/>
				<rect x="289.1" y="-45.4" class="st6" width="236.7" height="1.2"/>
			</g>
		</g>
	</g>
</g>
<g>
	<defs>
		<rect id="SVGID_5_" x="80" y="-583.8" width="652.3" height="377.2"/>
	</defs>
	<clipPath id="SVGID_6_">
		<use xlink:href="#SVGID_5_"  style="overflow:visible;"/>
	</clipPath>
	<g class="st7">
		<g>
			<rect x="80.9" y="-582.4" class="st8" width="651.5" height="344.2"/>
			<g>
				<rect x="80.9" y="-229.2" class="st9" width="651.5" height="81.1"/>
				<g>
					<rect x="80.9" y="-244.4" class="st10" width="651.5" height="15.2"/>
					<rect x="80.9" y="-245.4" class="st11" width="651.5" height="1.5"/>
				</g>
			</g>
		</g>
		<g>
			<g>
				<rect x="120.9" y="-469" class="st12" width="87.8" height="174.9"/>
				<path class="st13" d="M183.2-385.8c0.6,32-7.9,64.1-24,91.7h49.5V-469h-48.4C174.7-443.7,182.7-414.9,183.2-385.8z"/>
				<path class="st13" d="M183.2-385.8c0.6,32-7.9,64.1-24,91.7h49.5V-469h-48.4C174.7-443.7,182.7-414.9,183.2-385.8z"/>
				<g>
					<rect x="125.9" y="-464" class="st14" width="77.8" height="164.9"/>
					<path class="st15" d="M203.7-299.1V-464h-40.6c12.6,24.1,19.6,51,20.1,78.2c0.6,30.1-6.9,60.2-21.2,86.7H203.7z"/>
				</g>
				<g>
					<g>
						<rect x="138" y="-451.9" class="st16" width="53.7" height="140.8"/>
						<path class="st17" d="M183.2-385.8c0.5,25.6-4.9,51.2-15.3,74.6h23.7v-140.8h-22.9C177.8-431.1,182.8-408.5,183.2-385.8z"/>
					</g>
					<g>
						<polygon class="st18" points="191.7,-451.9 138,-386.8 138,-451.9 						"/>
						<path class="st19" d="M175.8-432.7l15.9-19.2h-22.9C171.5-445.7,173.9-439.2,175.8-432.7z"/>
					</g>
					<g>
						<polygon class="st20" points="154.3,-406.5 184.5,-311.2 191.7,-311.2 191.7,-451.9 						"/>
						<path class="st21" d="M183.2-385.8c0.3,16.9-1.9,33.9-6.5,50.2l7.7,24.4h7.2v-140.8l-15.9,19.2
							C180.4-417.5,182.9-401.7,183.2-385.8z"/>
					</g>
				</g>
				<g>
					<g>
						<polygon class="st22" points="208.7,-294.1 203.7,-299.1 125.9,-299.1 120.9,-294.1 						"/>
						<path class="st23" d="M162-299.1c-0.9,1.7-1.8,3.4-2.8,5h49.5l-5-5H162z"/>
					</g>
					<g>
						<polygon class="st22" points="208.7,-469 203.7,-464 125.9,-464 120.9,-469 						"/>
						<path class="st23" d="M203.7-464l5-5h-48.4c0.9,1.7,1.8,3.3,2.7,5H203.7z"/>
					</g>
				</g>
			</g>
			<g>
				<rect x="218.9" y="-402.6" class="st12" width="87.8" height="128.4"/>
				<path class="st13" d="M275.1-377.2c9.3,33.8,6.8,70.7-6.5,103.1h38.2v-128.4h-41.6C269.5-394.6,272.7-386,275.1-377.2z"/>
				<g>
					<rect x="224" y="-397.6" class="st14" width="77.8" height="118.4"/>
					<path class="st15" d="M275.1-377.2c8.8,32.1,7,66.9-4.6,98.1h31.2v-118.4h-34.1C270.8-391.1,273.2-384.2,275.1-377.2z"/>
				</g>
				<g>
					<g>
						<polygon class="st22" points="224,-279.2 218.9,-274.1 306.8,-274.1 301.8,-279.2 						"/>
						<path class="st23" d="M270.5-279.2c-0.6,1.7-1.3,3.4-1.9,5h38.2l-5-5H270.5z"/>
					</g>
					<g>
						<polygon class="st22" points="218.9,-402.6 224,-397.6 301.8,-397.6 306.8,-402.6 						"/>
						<path class="st23" d="M301.8-397.6l5-5h-41.6c0.9,1.6,1.7,3.3,2.5,5H301.8z"/>
					</g>
				</g>
				<g>
					<rect x="236" y="-385.5" class="st18" width="53.7" height="94.3"/>
					<g>
						<polygon class="st16" points="256.2,-291.2 289.7,-378.2 289.7,-291.2 						"/>
						<path class="st17" d="M274.5-291.2h15.2v-87l-9.9,25.8C281.9-332,280.1-311,274.5-291.2z"/>
					</g>
					<g>
						<polygon class="st20" points="236,-375 265.4,-315.1 289.7,-378.2 289.7,-385.5 236,-385.5 						"/>
						<path class="st21" d="M275.1-377.2c2.2,8.1,3.8,16.4,4.7,24.8l9.9-25.8v-7.3h-17.2C273.5-382.8,274.3-380,275.1-377.2z"/>
					</g>
				</g>
			</g>
			<g>
				<rect x="218.9" y="-500.8" class="st12" width="87.8" height="87.8"/>
				<path class="st13" d="M306.8-413v-87.8h-43.7c8,12.9,12.6,27.9,12.8,43.1c0.2,15.7-4.2,31.3-12.4,44.7H306.8z"/>
				<g>
					<rect x="224" y="-495.8" class="st14" width="77.8" height="77.8"/>
					<path class="st15" d="M275.8-457.7c0.2,13.8-3.2,27.5-9.6,39.7h35.5v-77.8H266C272.2-484.1,275.7-471,275.8-457.7z"/>
				</g>
				<g>
					<g>
						<polygon class="st22" points="224,-418 218.9,-413 306.8,-413 301.8,-418 						"/>
						<path class="st23" d="M266.3-418c-0.9,1.7-1.8,3.4-2.8,5h43.3l-5-5H266.3z"/>
					</g>
					<g>
						<polygon class="st22" points="218.9,-500.8 224,-495.8 301.8,-495.8 306.8,-500.8 						"/>
						<path class="st23" d="M301.8-495.8l5-5h-43.7c1,1.6,2,3.3,2.9,5H301.8z"/>
					</g>
				</g>
				<g>
					<g>
						<rect x="236" y="-483.7" class="st20" width="53.7" height="53.7"/>
						<path class="st21" d="M275.8-457.7c0.1,9.4-1.4,18.8-4.4,27.7h18.3v-53.7h-18.5C274.1-475.4,275.7-466.6,275.8-457.7z"/>
					</g>
					<g>
						<polygon class="st18" points="252.5,-483.7 283.4,-430 289.7,-430 289.7,-483.7 						"/>
						<path class="st19" d="M275.8-457.7c0.1,4.4-0.2,8.7-0.9,13l8.4,14.7h6.3v-53.7h-18.5C274.1-475.4,275.7-466.6,275.8-457.7z"/>
					</g>
					<polygon class="st16" points="236,-439.6 263.9,-463.9 252.5,-483.7 236,-483.7 					"/>
				</g>
			</g>
		</g>
		<g>
			<g>
				<rect x="354" y="-512.5" class="st24" width="130" height="283.3"/>
				<g>
					<g>
						<rect x="362.7" y="-503.9" class="st25" width="112.8" height="266.1"/>
						<g>
							<polygon class="st26" points="362.7,-356.2 362.7,-296.5 425.6,-503.9 407.4,-503.9 							"/>
							<polygon class="st26" points="365.3,-237.8 395,-237.8 475.4,-502.9 475.4,-503.9 446,-503.9 							"/>
							<polygon class="st26" points="475.4,-394.3 475.4,-436.7 415.1,-237.8 428,-237.8 							"/>
						</g>
					</g>
					<polygon class="st24" points="479.1,-464 479.1,-465.7 419.9,-465.7 419.9,-507.1 418.2,-507.1 418.2,-465.7 359.8,-465.7 
						359.8,-464 418.2,-464 418.2,-278.2 359.8,-278.2 359.8,-276.5 418.2,-276.5 418.2,-233.3 419.9,-233.3 419.9,-276.5 
						479.1,-276.5 479.1,-278.2 419.9,-278.2 419.9,-464 					"/>
				</g>
			</g>
			<g>
				<rect x="497.7" y="-512.5" class="st24" width="130" height="283.3"/>
				<g>
					<g>
						<rect x="506.3" y="-503.9" class="st25" width="112.8" height="266.1"/>
						<g>
							<polygon class="st26" points="506.3,-356.2 506.3,-296.5 569.3,-503.9 551.1,-503.9 							"/>
							<polygon class="st26" points="509,-237.8 538.7,-237.8 619.1,-502.9 619.1,-503.9 589.7,-503.9 							"/>
							<polygon class="st26" points="619.1,-394.3 619.1,-436.7 558.8,-237.8 571.6,-237.8 							"/>
						</g>
					</g>
					<polygon class="st24" points="622.8,-464 622.8,-465.7 563.6,-465.7 563.6,-507.1 561.9,-507.1 561.9,-465.7 503.5,-465.7 
						503.5,-464 561.9,-464 561.9,-278.2 503.5,-278.2 503.5,-276.5 561.9,-276.5 561.9,-233.3 563.6,-233.3 563.6,-276.5 
						622.8,-276.5 622.8,-278.2 563.6,-278.2 563.6,-464 					"/>
				</g>
			</g>
			<g>
				<rect x="641.4" y="-512.5" class="st24" width="91.8" height="283.3"/>
				<g>
					<g>
						<rect x="650" y="-503.9" class="st25" width="83.2" height="266.1"/>
						<g>
							<polygon class="st26" points="650,-356.2 650,-296.5 713,-503.9 694.8,-503.9 							"/>
							<polygon class="st26" points="733.2,-503.3 652.7,-237.8 682.4,-237.8 733.2,-405.3 							"/>
							<polygon class="st26" points="733.2,-339.2 702.5,-237.8 715.3,-237.8 733.2,-296.8 							"/>
						</g>
					</g>
					<g>
						<g>
							<rect x="705.6" y="-507.1" class="st24" width="1.7" height="273.9"/>
						</g>
						<g>
							<rect x="647.2" y="-465.7" class="st24" width="85.4" height="1.7"/>
						</g>
						<g>
							<rect x="647.2" y="-278.2" class="st24" width="86.1" height="1.7"/>
						</g>
					</g>
				</g>
			</g>
		</g>
		<g>
			<g>
				<path class="st27" d="M530.5-573.9H456v-8.5h-2.3v8.5h-92.5v-8.5h-2.3v8.5h-74.5c-1.4,0-2.5,1.1-2.5,2.5s1.1,2.5,2.5,2.5h246.1
					c1.4,0,2.5-1.1,2.5-2.5S531.9-573.9,530.5-573.9z"/>
				<path class="st28" d="M533-571.4c0-1.4-1.1-2.5-2.5-2.5H456v-8.5h-2.3v8.5h-44.6c0.7,1.3,1.3,2.7,1.9,4.1
					c0.1,0.3,0.2,0.6,0.3,0.8h119.1C531.9-568.9,533-570.1,533-571.4z"/>
			</g>
			<g>
				<g>
					<g>
						<path class="st29" d="M320.8-562.7c0-0.2,0-0.3,0-0.5c0-4.5-3.7-8.2-8.2-8.2c-4.5,0-8.2,3.7-8.2,8.2c0,0.2,0,0.3,0,0.5
							c-10.6,3.4-18.2,13.4-18.2,25.1h52.8C339.1-549.3,331.4-559.3,320.8-562.7z"/>
						<path class="st30" d="M339.1-537.6c0-11.7-7.6-21.7-18.2-25.1c0-0.2,0-0.3,0-0.5c0-4.5-3.7-8.2-8.2-8.2
							c-1.3,0-2.5,0.3-3.6,0.8c2.3,4.6,3.9,9.5,4.7,14.5c0.9,6.1,0.7,12.4-0.7,18.4H339.1z"/>
					</g>
					<g>
						<path class="st27" d="M341.4-535.1H284c-0.7,0-1.3-0.6-1.3-1.3l0,0c0-0.7,0.6-1.3,1.3-1.3h57.4c0.7,0,1.3,0.6,1.3,1.3l0,0
							C342.6-535.6,342.1-535.1,341.4-535.1z"/>
						<path class="st28" d="M341.4-537.6H313c-0.2,0.9-0.4,1.7-0.6,2.5h29c0.7,0,1.3-0.6,1.3-1.3C342.6-537,342.1-537.6,341.4-537.6
							z"/>
					</g>
					<g>
						<linearGradient id="SVGID_7_" gradientUnits="userSpaceOnUse" x1="312.6557" y1="-516.0204" x2="312.6557" y2="-535.0782">
							<stop  offset="0" style="stop-color:#FFFFFF;stop-opacity:0"/>
							<stop  offset="1" style="stop-color:#F8CD7B"/>
						</linearGradient>
						<polygon class="st31" points="329.4,-516 295.9,-516 300.3,-535.1 325.1,-535.1 						"/>
						<g>
							<path class="st32" d="M300.3-535.1c2.2,4.7,6.9,7.9,12.4,7.9s10.2-3.2,12.4-7.9H300.3z"/>
							<path class="st33" d="M325.1-535.1h-9.5c-0.4,1.2-1.1,2.2-2,3.1c-1.8,1.8-4.1,2.9-6.6,3.5c0,0-0.1,0-0.1,0
								c1.8,0.8,3.7,1.3,5.8,1.3C318.1-527.2,322.9-530.4,325.1-535.1z"/>
						</g>
					</g>
				</g>
				<g>
					<g>
						<path class="st29" d="M415.6-562.7c0-0.2,0-0.3,0-0.5c0-4.5-3.7-8.2-8.2-8.2c-4.5,0-8.2,3.7-8.2,8.2c0,0.2,0,0.3,0,0.5
							c-10.6,3.4-18.2,13.4-18.2,25.1h52.8C433.9-549.3,426.2-559.3,415.6-562.7z"/>
						<path class="st30" d="M433.9-537.6c0-11.7-7.6-21.7-18.2-25.1c0-0.2,0-0.3,0-0.5c0-4.5-3.7-8.2-8.2-8.2
							c-1.3,0-2.5,0.3-3.6,0.8c2.3,4.6,3.9,9.5,4.7,14.5c0.9,6.1,0.7,12.4-0.7,18.4H433.9z"/>
					</g>
					<g>
						<path class="st27" d="M436.2-535.1h-57.4c-0.7,0-1.3-0.6-1.3-1.3l0,0c0-0.7,0.6-1.3,1.3-1.3h57.4c0.7,0,1.3,0.6,1.3,1.3l0,0
							C437.4-535.6,436.9-535.1,436.2-535.1z"/>
						<path class="st28" d="M436.2-537.6h-28.4c-0.2,0.9-0.4,1.7-0.6,2.5h29c0.7,0,1.3-0.6,1.3-1.3
							C437.4-537,436.9-537.6,436.2-537.6z"/>
					</g>
					<g>
						<linearGradient id="SVGID_8_" gradientUnits="userSpaceOnUse" x1="407.4537" y1="-516.0204" x2="407.4537" y2="-535.0782">
							<stop  offset="0" style="stop-color:#FFFFFF;stop-opacity:0"/>
							<stop  offset="1" style="stop-color:#F8CD7B"/>
						</linearGradient>
						<polygon class="st34" points="424.2,-516 390.7,-516 395.1,-535.1 419.9,-535.1 						"/>
						<g>
							<path class="st32" d="M395.1-535.1c2.2,4.7,6.9,7.9,12.4,7.9c5.5,0,10.2-3.2,12.4-7.9H395.1z"/>
							<path class="st33" d="M419.9-535.1h-9.5c-0.4,1.2-1.1,2.2-2,3.1c-1.8,1.8-4.1,2.9-6.6,3.5c0,0-0.1,0-0.1,0
								c1.8,0.8,3.7,1.3,5.8,1.3C412.9-527.2,417.7-530.4,419.9-535.1z"/>
						</g>
					</g>
				</g>
				<g>
					<g>
						<path class="st29" d="M510.4-562.7c0-0.2,0-0.3,0-0.5c0-4.5-3.7-8.2-8.2-8.2c-4.5,0-8.2,3.7-8.2,8.2c0,0.2,0,0.3,0,0.5
							c-10.6,3.4-18.2,13.4-18.2,25.1h52.8C528.7-549.3,521-559.3,510.4-562.7z"/>
						<path class="st30" d="M528.7-537.6c0-11.7-7.6-21.7-18.2-25.1c0-0.2,0-0.3,0-0.5c0-4.5-3.7-8.2-8.2-8.2
							c-1.3,0-2.5,0.3-3.6,0.8c2.3,4.6,3.9,9.5,4.7,14.5c0.9,6.1,0.7,12.4-0.7,18.4H528.7z"/>
					</g>
					<g>
						<path class="st27" d="M530.9-535.1h-57.4c-0.7,0-1.3-0.6-1.3-1.3l0,0c0-0.7,0.6-1.3,1.3-1.3h57.4c0.7,0,1.3,0.6,1.3,1.3l0,0
							C532.2-535.6,531.6-535.1,530.9-535.1z"/>
						<path class="st28" d="M530.9-537.6h-28.4c-0.2,0.9-0.4,1.7-0.6,2.5h29c0.7,0,1.3-0.6,1.3-1.3
							C532.2-537,531.6-537.6,530.9-537.6z"/>
					</g>
					<g>
						<linearGradient id="SVGID_9_" gradientUnits="userSpaceOnUse" x1="502.2517" y1="-516.0204" x2="502.2517" y2="-535.0782">
							<stop  offset="0" style="stop-color:#FFFFFF;stop-opacity:0"/>
							<stop  offset="1" style="stop-color:#F8CD7B"/>
						</linearGradient>
						<polygon class="st35" points="519,-516 485.5,-516 489.9,-535.1 514.6,-535.1 						"/>
						<g>
							<path class="st32" d="M489.9-535.1c2.2,4.7,6.9,7.9,12.4,7.9c5.5,0,10.2-3.2,12.4-7.9H489.9z"/>
							<path class="st33" d="M514.6-535.1h-9.5c-0.4,1.2-1.1,2.2-2,3.1c-1.8,1.8-4.1,2.9-6.6,3.5c0,0-0.1,0-0.1,0
								c1.8,0.8,3.7,1.3,5.8,1.3C507.7-527.2,512.5-530.4,514.6-535.1z"/>
						</g>
					</g>
				</g>
			</g>
		</g>
		<g>
			<g>
				<ellipse class="st36" cx="667.1" cy="-194.5" rx="31.7" ry="4.8"/>
				<g>
					<g>
						<path class="st37" d="M675.2-299.4c0.5,0.7,1.4,0.5,1.6-0.3c1.8-12.4,9.1-72.8-15.6-67.4C636.4-361.7,668.4-309.9,675.2-299.4
							z"/>
						<path class="st38" d="M661.2-367.1c-3.7,0.8-6.1,2.7-7.6,5.3c0.7,0.3,1.5,0.7,2.1,1.1c2.8,1.7,5.1,4.2,7.2,6.8
							c7.9,9.9,13.4,21.8,15.9,34.3C680.1-341.4,678.8-371,661.2-367.1z"/>
						<path class="st39" d="M664.4-317.9l8,3.6l-5.5-25.2l-14.1-7.2c-0.1-0.2-0.1-0.5-0.2-0.7l14.1,7.2l-5.9-26.8
							c0.1,0,0.2-0.1,0.3-0.1c0.1,0,0.2,0,0.3-0.1l3.5,15.8l8.7-10.3c0.1,0.2,0.2,0.4,0.3,0.5l-8.9,10.5l5.5,25.2l8.5-11.1
							c0,0.3,0,0.6,0,0.9l-8.4,10.9l5.6,25.7c-0.2,0.1-0.4,0.1-0.6,0.1l-3.2-14.6l-7.7-3.5C664.7-317.3,664.5-317.6,664.4-317.9z"/>
						<g>
							<path class="st39" d="M673.6-361.7l-8.7,10.3l-3.5-15.8c-0.1,0-0.2,0-0.3,0c-0.1,0-0.2,0.1-0.3,0.1l3.2,14.6
								c0.4,0.5,0.8,1.1,1.2,1.6l8.7-10.3C673.9-361.3,673.8-361.5,673.6-361.7z"/>
							<path class="st39" d="M679.1-336.5l-3.7,4.8c0.1,0.2,0.2,0.4,0.2,0.7l3.5-4.5C679.1-335.9,679.1-336.2,679.1-336.5z"/>
						</g>
					</g>
					<g>
						<path class="st39" d="M671.5-272.8c-0.6,0.7-1.5,0.3-1.5-0.7c0.7-12.8,5.5-74.7,29.2-64.3C722.8-327.4,680.4-282,671.5-272.8z
							"/>
						<path class="st40" d="M690.3-294.6c12.6-16.5,23.7-36.7,8.9-43.2c-3.8-1.7-7.2-1.5-10.1,0.1c2.7,9.8,4.3,19.9,3.6,30
							C692.4-303.2,691.6-298.8,690.3-294.6z"/>
						<path class="st37" d="M686.1-289.2l-8.8,2l10.6-24.1l15.5-4.4c0.1-0.2,0.2-0.5,0.3-0.7l-15.5,4.4l11.2-25.6
							c-0.1,0-0.2-0.1-0.3-0.1c-0.1,0-0.2-0.1-0.3-0.1l-6.6,15.1l-6.7-12.1c-0.1,0.2-0.3,0.3-0.4,0.5l6.8,12.3L681.4-298l-6.3-12.8
							c-0.1,0.3-0.1,0.6-0.2,0.9l6.2,12.6l-10.8,24.6c0.2,0.1,0.4,0.2,0.6,0.2l6.1-14l8.4-1.9C685.7-288.7,685.9-288.9,686.1-289.2z
							"/>
						<g>
							<path class="st38" d="M692.9-313.4c0,0.2,0,0.4,0,0.6l10.6-3c0.1-0.2,0.2-0.5,0.3-0.7L692.9-313.4z"/>
							<path class="st38" d="M692.3-322.8l-0.1-0.2c0.1,0.5,0.1,1,0.2,1.5l7.1-16.2c-0.1,0-0.2-0.1-0.3-0.1c0,0,0,0,0,0c0,0,0,0,0,0
								c-0.1,0-0.2-0.1-0.3-0.1L692.3-322.8z"/>
						</g>
					</g>
					<g>
						<path class="st37" d="M672.9-261c-0.1,0.9-1,1.2-1.6,0.5c-7.8-10.2-44.6-60.2-19.9-67.8C676.1-335.8,673.7-273.8,672.9-261z"
							/>
						<path class="st38" d="M673.3-281.6c-0.5-22.3-4.3-52.1-21.9-46.7c-3,0.9-5.1,2.5-6.5,4.6c6.7,3.6,12.3,9.2,16.6,15.5
							c5.2,7.7,8.6,16.5,11.4,25.4C673-282.4,673.2-282,673.3-281.6z"/>
						<path class="st39" d="M673.3-282.9l-5.3,7.2l-7.7-25.2l8.9-13.5c-0.1-0.2-0.2-0.5-0.2-0.7l-8.9,13.5l-8.2-26.8
							c-0.1,0-0.2,0-0.3,0.1c-0.1,0-0.2,0.1-0.3,0.1l4.9,15.8l-13-4.8c0,0.2,0,0.4,0,0.6l13.2,4.9l7.7,25.2l-13.1-5.6
							c0.1,0.3,0.3,0.6,0.4,0.8l12.9,5.5l7.9,25.6c0.2,0,0.4-0.1,0.6-0.2l-4.5-14.6l5.1-7C673.3-282.2,673.3-282.6,673.3-282.9z"/>
						<g>
							<path class="st40" d="M655.7-315.3l-4-13c-0.1,0-0.2,0-0.3,0.1c-0.1,0-0.2,0.1-0.3,0.1l3.7,11.9
								C655.1-316,655.4-315.7,655.7-315.3z"/>
							<path class="st40" d="M662.9-306c0.1,0.2,0.2,0.4,0.4,0.6l5.8-8.8c-0.1-0.2-0.1-0.4-0.2-0.6c0,0,0-0.1,0-0.1L662.9-306z"/>
							<path class="st40" d="M673.3-282.5c0-0.1,0-0.2,0-0.2c0-0.1,0-0.1,0-0.2l-0.3,0.3c0.1,0.2,0.1,0.5,0.2,0.7l0.1-0.1
								C673.3-282.1,673.3-282.3,673.3-282.5z"/>
						</g>
					</g>
					<g>
						<path class="st39" d="M668.2-232.4c0,0.9-1,1.2-1.5,0.5c-8.2-9.8-47.1-58.2-22.8-66.8C668.2-307.3,668.4-245.2,668.2-232.4z"
							/>
						<path class="st40" d="M643.8-298.7c-3.4,1.2-5.6,3.2-6.8,5.8c0.8,0.3,1.6,0.6,2.4,1c3.4,1.6,6.2,4.1,8.9,6.8
							c9.3,9.4,16.1,21.4,19.4,34.3C666.6-273.3,661.7-305,643.8-298.7z"/>
						<path class="st37" d="M667.6-254.3l-5,7.5l-8.8-24.8l8.3-13.8c-0.1-0.2-0.2-0.5-0.3-0.7l-8.3,13.8l-9.4-26.4
							c-0.1,0-0.2,0.1-0.3,0.1c-0.1,0-0.2,0.1-0.3,0.1l5.5,15.6l-13.2-4.2c0,0.2,0,0.4,0,0.6l13.4,4.3l8.8,24.8l-13.3-5
							c0.2,0.3,0.3,0.5,0.5,0.8l13.1,4.9l9,25.3c0.2,0,0.4-0.1,0.5-0.3l-5.1-14.4l4.8-7.2C667.6-253.6,667.6-253.9,667.6-254.3z"/>
						<g>
							<path class="st38" d="M643.6-298.6l4.7,13.4c0,0,0,0,0.1,0.1c0.3,0.3,0.6,0.7,1,1l-5.2-14.6c-0.1,0-0.2,0.1-0.3,0.1
								c0,0,0,0,0,0C643.7-298.6,643.7-298.6,643.6-298.6z"/>
							<path class="st38" d="M667.3-252.7l0.4-0.6c0,0,0,0,0,0c0-0.3,0-0.6-0.1-1l-0.5,0.8C667.1-253.2,667.2-253,667.3-252.7z"/>
							<path class="st38" d="M655.8-276.3c0.1,0.2,0.3,0.3,0.4,0.5l5.8-9.7c-0.1-0.2-0.1-0.4-0.2-0.6c0,0,0-0.1,0-0.1L655.8-276.3z"
								/>
						</g>
					</g>
					<g>
						<path class="st37" d="M665.6-235.5c-0.1,0.8,0.7,1.2,1.3,0.7c8.6-7.6,49.6-45.4,29.2-56.3C675.6-302,667.1-246.9,665.6-235.5z
							"/>
						<path class="st38" d="M696-291.1c-5.5-2.9-10.1-1.1-13.9,3.3c3,14.7,1,30.4-5.5,43.8C690.9-258.1,711.9-282.6,696-291.1z"/>
						<path class="st39" d="M669-254.8l3.5,7.3l11.1-20.9l-5.5-13.4c0.1-0.2,0.2-0.4,0.3-0.6l5.5,13.4l11.8-22.2
							c0.1,0,0.2,0.1,0.2,0.1c0.1,0,0.2,0.1,0.2,0.1l-7,13.1l12.2-2c0,0.2-0.1,0.4-0.1,0.6l-12.5,2l-11.1,20.8l12.5-2.7
							c-0.2,0.2-0.4,0.4-0.5,0.7l-12.3,2.6l-11.3,21.2c-0.2,0-0.3-0.1-0.4-0.3l6.5-12.1l-3.3-7C668.9-254.2,668.9-254.5,669-254.8z"
							/>
						<g>
							<path class="st40" d="M689.9-258.5c0.1-0.2,0.3-0.4,0.4-0.5l-9,1.9c0,0.2-0.1,0.4-0.2,0.6l8.6-1.8
								C689.8-258.4,689.9-258.5,689.9-258.5z"/>
							<path class="st40" d="M683.9-269l-0.6-1.4c0,0.4-0.1,0.8-0.1,1.2l0.3,0.8l-0.5,0.9c0,0.5-0.1,1-0.2,1.4l6-11.2l12.5-2
								c0-0.2,0.1-0.4,0.1-0.6l-12.2,2l7-13.1c-0.1,0-0.2-0.1-0.2-0.1c-0.1,0-0.2-0.1-0.2-0.1L683.9-269z"/>
						</g>
					</g>
					<g>
						<g>
							<path class="st41" d="M696.4-234.6h-58.6c-1.5,0-2.8-1.2-2.8-2.8l0,0c0-1.5,1.2-2.8,2.8-2.8h58.6c1.5,0,2.8,1.2,2.8,2.8l0,0
								C699.2-235.8,698-234.6,696.4-234.6z"/>
							<path class="st42" d="M696.4-240.1h-25.9c0.8,1.8,1.4,3.7,2,5.6h23.9c1.5,0,2.8-1.2,2.8-2.8l0,0
								C699.2-238.9,698-240.1,696.4-240.1z"/>
						</g>
						<g>
							<path class="st43" d="M694.6-234.6l-7.7,32.1c-1.1,4.7-5.3,8-10.1,8h-19.3c-4.8,0-9-3.3-10.1-8l-7.7-32.1H694.6z"/>
							<path class="st44" d="M674.9-217c-0.2,7.8-2.2,15.5-5.6,22.5h7.4c4.8,0,9-3.3,10.1-8l7.7-32.1h-22.1
								C674.3-228.9,675.1-222.9,674.9-217z"/>
						</g>
					</g>
				</g>
			</g>
			<g>
				<g>
					<ellipse class="st36" cx="545.1" cy="-189.7" rx="59.4" ry="9.1"/>
					<ellipse class="st36" cx="269.8" cy="-189.7" rx="59.4" ry="9.1"/>
				</g>
				<g>
					<g>
						<g>
							<path class="st45" d="M307.6-238.5H232l-4.3-98.3c-0.2-5.7,4-10.5,9.4-10.5h65.3c5.4,0,9.7,4.8,9.4,10.5L307.6-238.5z"/>
							<path class="st46" d="M322-291l-7.5-0.5l-1.4-3.6l-5.9,3.5l0,0c-0.7,0.4-1.2,1.3-1.2,2.2l-1.5,27h18.5l1.4-25.7
								C324.3-289.6,323.3-290.9,322-291z"/>
							<path class="st46" d="M217.6-291l7.5-0.5l1.4-3.6l5.9,3.5l0,0c0.7,0.4,1.2,1.3,1.2,2.2l1.5,27h-18.5l-1.4-25.7
								C215.2-289.6,216.3-290.9,217.6-291z"/>
							<path class="st47" d="M328-294.6l-13.6-1c-1.3-0.1-2.5,1.1-2.6,2.6l-2.9,51.7h-78.4l-2.9-51.7c-0.1-1.5-1.2-2.7-2.6-2.6
								l-13.6,1c-1.3,0.1-2.4,1.4-2.3,2.9L213-226c0.3,4.8,3.8,8.6,8.1,8.6h97.4c4.3,0,7.8-3.8,8.1-8.6l3.7-65.6
								C330.3-293.2,329.3-294.5,328-294.6z"/>
							<path class="st48" d="M310.2-238.5h-80.8c-2.2,0-4-1.8-4-4v-16c0-2.2,1.8-4,4-4h80.8c2.2,0,4,1.8,4,4v16
								C314.2-240.3,312.4-238.5,310.2-238.5z"/>
							<path class="st49" d="M316.7-186.3h3.6c1.3,0,2.2-1.3,1.7-2.5l-12.1-28.6h-7.7l12.8,30.1
								C315.3-186.7,315.9-186.3,316.7-186.3z"/>
							<path class="st49" d="M222.9-186.3h-3.6c-1.3,0-2.2-1.3-1.7-2.5l12.1-28.6h7.7l-12.8,30.1
								C224.3-186.7,223.6-186.3,222.9-186.3z"/>
							<path class="st49" d="M235.8-194.5h-2.6c-1,0-1.6-1-1.2-1.9l8.9-21.1h5.6l-9.5,22.2C236.8-194.8,236.3-194.5,235.8-194.5z"/>
							<path class="st49" d="M303.8-194.5h2.6c1,0,1.6-1,1.2-1.9l-8.9-21.1h-5.6l9.5,22.2C302.8-194.8,303.2-194.5,303.8-194.5z"/>
						</g>
						<g>
							<path class="st50" d="M302.4-347.2h-33.9c9,19.6,13.8,41.2,13.6,62.8c-0.2,15.6-2.9,31.2-8,45.9h33.5l4.3-98.3
								C312.1-342.5,307.8-347.2,302.4-347.2z"/>
							<path class="st51" d="M322-291l-7.5-0.5l-1.4-3.6l-5.9,3.5l0,0c-0.7,0.4-1.2,1.3-1.2,2.2l-1.5,27h18.5l1.4-25.7
								C324.3-289.6,323.3-290.9,322-291z"/>
							<path class="st52" d="M316.7-186.3h3.6c1.3,0,2.2-1.3,1.7-2.5l-12.1-28.6h-7.7l12.8,30.1
								C315.3-186.7,315.9-186.3,316.7-186.3z"/>
							<path class="st49" d="M222.9-186.3h-3.6c-1.3,0-2.2-1.3-1.7-2.5l12.1-28.6h7.7l-12.8,30.1
								C224.3-186.7,223.6-186.3,222.9-186.3z"/>
							<path class="st49" d="M235.8-194.5h-2.6c-1,0-1.6-1-1.2-1.9l8.9-21.1h5.6l-9.5,22.2C236.8-194.8,236.3-194.5,235.8-194.5z"/>
							<path class="st52" d="M303.8-194.5h2.6c1,0,1.6-1,1.2-1.9l-8.9-21.1h-5.6l9.5,22.2C302.8-194.8,303.2-194.5,303.8-194.5z"/>
							<path class="st53" d="M328-294.6l-13.6-1c-1.3-0.1-2.5,1.1-2.6,2.6l-2.9,51.7h-33.9c-2.6,8.2-6,16.2-10,23.8h53.5
								c4.3,0,7.8-3.8,8.1-8.6l3.7-65.6C330.3-293.2,329.3-294.5,328-294.6z"/>
							<path class="st54" d="M310.7-262.5h-30.5c-1.3,8.1-3.4,16.2-6,24h36.6c1.9,0,3.5-1.6,3.5-3.5v-17
								C314.2-260.9,312.6-262.5,310.7-262.5z"/>
						</g>
						<g>
							<g>
								<circle class="st46" cx="269.8" cy="-292.9" r="2.2"/>
								<circle class="st46" cx="247.6" cy="-292.9" r="2.2"/>
								<circle class="st51" cx="292" cy="-292.9" r="2.2"/>
							</g>
							<g>
								<circle class="st46" cx="269.8" cy="-331.6" r="2.2"/>
								<circle class="st46" cx="247.6" cy="-331.6" r="2.2"/>
								<circle class="st51" cx="292" cy="-331.6" r="2.2"/>
							</g>
							<g>
								<circle class="st46" cx="269.8" cy="-312.2" r="2.2"/>
								<circle class="st46" cx="247.6" cy="-312.2" r="2.2"/>
								<circle class="st51" cx="292" cy="-312.2" r="2.2"/>
							</g>
							<g>
								<circle class="st46" cx="269.8" cy="-273.5" r="2.2"/>
								<circle class="st46" cx="247.6" cy="-273.5" r="2.2"/>
								<circle class="st51" cx="292" cy="-273.5" r="2.2"/>
							</g>
						</g>
					</g>
					<g>
						<g>
							<path class="st45" d="M582.9-238.5h-75.6l-4.3-98.3c-0.2-5.7,4-10.5,9.4-10.5h65.3c5.4,0,9.7,4.8,9.4,10.5L582.9-238.5z"/>
							<path class="st46" d="M597.3-291l-7.5-0.5l-1.4-3.6l-5.9,3.5l0,0c-0.7,0.4-1.2,1.3-1.2,2.2l-1.5,27h18.5l1.4-25.7
								C599.7-289.6,598.7-290.9,597.3-291z"/>
							<path class="st46" d="M492.9-291l7.5-0.5l1.4-3.6l5.9,3.5l0,0c0.7,0.4,1.2,1.3,1.2,2.2l1.5,27h-18.5l-1.4-25.7
								C490.6-289.6,491.6-290.9,492.9-291z"/>
							<path class="st47" d="M603.4-294.6l-13.6-1c-1.3-0.1-2.5,1.1-2.6,2.6l-2.9,51.7h-78.4L503-293c-0.1-1.5-1.2-2.7-2.6-2.6
								l-13.6,1c-1.3,0.1-2.4,1.4-2.3,2.9l3.7,65.6c0.3,4.8,3.8,8.6,8.1,8.6h97.4c4.3,0,7.8-3.8,8.1-8.6l3.7-65.6
								C605.7-293.2,604.7-294.5,603.4-294.6z"/>
							<path class="st48" d="M585.5-238.5h-80.8c-2.2,0-4-1.8-4-4v-16c0-2.2,1.8-4,4-4h80.8c2.2,0,4,1.8,4,4v16
								C589.5-240.3,587.7-238.5,585.5-238.5z"/>
							<path class="st49" d="M592-186.3h3.6c1.3,0,2.2-1.3,1.7-2.5l-12.1-28.6h-7.7l12.8,30.1C590.6-186.7,591.3-186.3,592-186.3z"
								/>
							<path class="st49" d="M498.2-186.3h-3.6c-1.3,0-2.2-1.3-1.7-2.5l12.1-28.6h7.7l-12.8,30.1C499.6-186.7,499-186.3,498.2-186.3
								z"/>
							<path class="st49" d="M511.1-194.5h-2.6c-1,0-1.6-1-1.2-1.9l8.9-21.1h5.6l-9.5,22.2C512.1-194.8,511.7-194.5,511.1-194.5z"/>
							<path class="st49" d="M579.1-194.5h2.6c1,0,1.6-1,1.2-1.9l-8.9-21.1h-5.6l9.5,22.2C578.1-194.8,578.6-194.5,579.1-194.5z"/>
						</g>
						<g>
							<path class="st50" d="M577.8-347.2h-33.9c9,19.6,13.8,41.2,13.6,62.8c-0.2,15.6-2.9,31.2-8,45.9h33.5l4.3-98.3
								C587.5-342.5,583.2-347.2,577.8-347.2z"/>
							<path class="st51" d="M597.3-291l-7.5-0.5l-1.4-3.6l-5.9,3.5l0,0c-0.7,0.4-1.2,1.3-1.2,2.2l-1.5,27h18.5l1.4-25.7
								C599.7-289.6,598.7-290.9,597.3-291z"/>
							<path class="st52" d="M592-186.3h3.6c1.3,0,2.2-1.3,1.7-2.5l-12.1-28.6h-7.7l12.8,30.1C590.6-186.7,591.3-186.3,592-186.3z"
								/>
							<path class="st49" d="M498.2-186.3h-3.6c-1.3,0-2.2-1.3-1.7-2.5l12.1-28.6h7.7l-12.8,30.1C499.6-186.7,499-186.3,498.2-186.3
								z"/>
							<path class="st49" d="M511.1-194.5h-2.6c-1,0-1.6-1-1.2-1.9l8.9-21.1h5.6l-9.5,22.2C512.1-194.8,511.7-194.5,511.1-194.5z"/>
							<path class="st52" d="M579.1-194.5h2.6c1,0,1.6-1,1.2-1.9l-8.9-21.1h-5.6l9.5,22.2C578.1-194.8,578.6-194.5,579.1-194.5z"/>
							<path class="st53" d="M603.4-294.6l-13.6-1c-1.3-0.1-2.5,1.1-2.6,2.6l-2.9,51.7h-33.9c-2.6,8.2-6,16.2-10,23.8h53.5
								c4.3,0,7.8-3.8,8.1-8.6l3.7-65.6C605.7-293.2,604.7-294.5,603.4-294.6z"/>
							<path class="st54" d="M586-262.5h-30.5c-1.3,8.1-3.4,16.2-6,24H586c1.9,0,3.5-1.6,3.5-3.5v-17
								C589.5-260.9,588-262.5,586-262.5z"/>
						</g>
						<g>
							<g>
								<circle class="st46" cx="545.1" cy="-292.9" r="2.2"/>
								<circle class="st46" cx="523" cy="-292.9" r="2.2"/>
								<circle class="st51" cx="567.3" cy="-292.9" r="2.2"/>
							</g>
							<g>
								<circle class="st46" cx="545.1" cy="-331.6" r="2.2"/>
								<circle class="st46" cx="523" cy="-331.6" r="2.2"/>
								<circle class="st51" cx="567.3" cy="-331.6" r="2.2"/>
							</g>
							<g>
								<circle class="st46" cx="545.1" cy="-312.2" r="2.2"/>
								<circle class="st46" cx="523" cy="-312.2" r="2.2"/>
								<circle class="st51" cx="567.3" cy="-312.2" r="2.2"/>
							</g>
							<g>
								<circle class="st46" cx="545.1" cy="-273.5" r="2.2"/>
								<circle class="st46" cx="523" cy="-273.5" r="2.2"/>
								<circle class="st51" cx="567.3" cy="-273.5" r="2.2"/>
							</g>
						</g>
					</g>
				</g>
			</g>
			<g>
				<ellipse class="st36" cx="146.1" cy="-195.7" rx="28.2" ry="4.3"/>
				<g>
					<g>
						<g>
							<rect x="144.8" y="-344.8" class="st55" width="2.6" height="145.6"/>
						</g>
						<g>
							<path class="st56" d="M179-334.7h-65.7c-2.3,0-4-2.2-3.4-4.5l9.1-33.7c0.4-1.5,1.8-2.6,3.4-2.6h47.5c1.6,0,3,1.1,3.4,2.6
								l9.1,33.7C183-336.9,181.3-334.7,179-334.7z"/>
							<path class="st57" d="M150.4-334.7H179c2.3,0,4-2.2,3.4-4.5l-9.1-33.7c-0.4-1.5-1.8-2.6-3.4-2.6h-24.1
								c1.9,2.4,3.5,5.1,4.6,7.9c3.2,8.1,3.3,17.2,1.7,25.8C151.7-339.4,151.1-337,150.4-334.7z"/>
						</g>
						<g>
							<path class="st56" d="M158.7-194.4h-25.2c-0.7,0-1.3-0.6-1.3-1.3l0,0c0-0.7,0.6-1.3,1.3-1.3h25.2c0.7,0,1.3,0.6,1.3,1.3l0,0
								C160-195,159.5-194.4,158.7-194.4z"/>
							<path class="st58" d="M154.4-197c-1.1-3.5-4.4-6.1-8.2-6.1s-7.2,2.6-8.2,6.1H154.4z"/>
							<path class="st59" d="M146.1-203.1c-0.1,0-0.1,0-0.2,0c1.1,1.6,1.9,3.5,2.1,5.5c0,0.2,0,0.4,0,0.6h6.3
								C153.3-200.5,150-203.1,146.1-203.1z"/>
							<path class="st57" d="M148.1-194.4h10.7c0.7,0,1.3-0.6,1.3-1.3l0,0c0-0.7-0.6-1.3-1.3-1.3h-10.7
								C148.2-196.1,148.2-195.3,148.1-194.4z"/>
						</g>
					</g>
					<linearGradient id="SVGID_10_" gradientUnits="userSpaceOnUse" x1="146.1463" y1="-314.4234" x2="146.1463" y2="-334.5057">
						<stop  offset="0" style="stop-color:#FFFFFF;stop-opacity:0"/>
						<stop  offset="1" style="stop-color:#F8CD7B"/>
					</linearGradient>
					<polygon class="st60" points="177.5,-314.4 114.8,-314.4 120.3,-334.5 172,-334.5 					"/>
				</g>
			</g>
			<g>
				<g>
					<path class="st36" d="M468.5-186.3c0,2.4-12.6,4.3-28.2,4.3c-15.6,0-28.2-1.9-28.2-4.3s12.6-4.3,28.2-4.3
						C455.8-190.6,468.5-188.7,468.5-186.3z"/>
					<ellipse class="st36" cx="387.5" cy="-186.3" rx="41.1" ry="6.3"/>
				</g>
				<g>
					<g>
						<g>
							<path class="st49" d="M404.5-187.2l-14.9-33.9l-4.1,1.8l14.4,32.8c0.1,0.3,0.5,0.5,0.8,0.5h3
								C404.3-186,404.8-186.7,404.5-187.2z"/>
							<path class="st49" d="M370.6-187.2l14.9-33.9l4.1,1.8l-14.4,32.8c-0.1,0.3-0.5,0.5-0.8,0.5h-3
								C370.8-186,370.3-186.7,370.6-187.2z"/>
							<g>
								<path class="st61" d="M388.9-186h-2.7c-0.5,0-0.9-0.4-0.9-0.9v-69.9h4.5v69.9C389.8-186.4,389.4-186,388.9-186z"/>
							</g>
							<path class="st62" d="M428.6-256.5c0,3.1-18.4,5.5-41.1,5.5s-41.1-2.5-41.1-5.5v-1.7h82.2V-256.5z"/>
							<path class="st63" d="M428.6-258.2c0,3.1-18.4,5.5-41.1,5.5s-41.1-2.5-41.1-5.5c0-3.1,18.4-5.5,41.1-5.5
								S428.6-261.3,428.6-258.2z"/>
						</g>
						<g>
							<path class="st49" d="M457.2-187.2l-14.9-33.9l-4.1,1.8l14.4,32.8c0.1,0.3,0.5,0.5,0.8,0.5h3
								C457-186,457.4-186.7,457.2-187.2z"/>
							<path class="st49" d="M423.3-187.2l14.9-33.9l4.1,1.8l-14.4,32.8c-0.1,0.3-0.5,0.5-0.8,0.5h-3
								C423.4-186,423-186.7,423.3-187.2z"/>
							<g>
								<path class="st61" d="M441.6-186h-2.7c-0.5,0-0.9-0.4-0.9-0.9v-51.6h4.5v51.6C442.5-186.4,442.1-186,441.6-186z"/>
							</g>
							<path class="st62" d="M412-237.4c0,2.1,12.6,3.8,28.2,3.8c15.6,0,28.2-1.7,28.2-3.8v-1.7H412V-237.4z"/>
							<ellipse class="st63" cx="440.2" cy="-239.1" rx="28.2" ry="3.8"/>
						</g>
					</g>
					<g>
						<g>
							<ellipse class="st64" cx="457.6" cy="-239.2" rx="5.3" ry="0.7"/>
							<g>
								<path class="st65" d="M463.8-249.3L463.8-249.3l0-0.3c0-1.1-0.9-2.1-2.1-2.1h-8.3c-1.1,0-2.1,0.9-2.1,2.1v4.2
									c0,3.4,2.8,6.2,6.2,6.2l0,0c2.1,0,3.9-1,5-2.5c0.4,0.1,0.8,0.2,1.2,0.2c2.7,0,4.7-2.7,3.5-5.6
									C466.7-248.5,465.3-249.3,463.8-249.3z M463.8-242.7c-0.2,0-0.4,0-0.6-0.1c0.4-0.8,0.6-1.7,0.6-2.6v-2.7c0,0,0,0,0,0
									c1.5,0,2.7,1.2,2.7,2.7S465.3-242.7,463.8-242.7z"/>
								<path class="st66" d="M463.8-249.3L463.8-249.3l0-0.3c0-1.1-0.9-2.1-2.1-2.1h-2.9c0.1,0.2,0.2,0.5,0.3,0.7
									c0.9,2.7,0.9,5.7-0.1,8.3c-0.4,1.2-1.1,2.3-1.9,3.4c0.1,0,0.3,0,0.4,0c2.1,0,3.9-1,5-2.5c0.4,0.1,0.8,0.2,1.2,0.2
									c2.7,0,4.7-2.7,3.5-5.6C466.7-248.5,465.3-249.3,463.8-249.3z M463.8-242.7c-0.2,0-0.4,0-0.6-0.1c0.4-0.8,0.6-1.7,0.6-2.6
									v-2.7c0,0,0,0,0,0c1.5,0,2.7,1.2,2.7,2.7S465.3-242.7,463.8-242.7z"/>
							</g>
						</g>
						<g>
							<path class="st64" d="M363.2-258.8c0,0.4-2.4,0.7-5.3,0.7c-2.9,0-5.3-0.3-5.3-0.7c0-0.4,2.4-0.7,5.3-0.7
								C360.8-259.6,363.2-259.2,363.2-258.8z"/>
							<g>
								<path class="st41" d="M364.1-268.9L364.1-268.9l0-0.3c0-1.1-0.9-2.1-2.1-2.1h-8.3c-1.1,0-2.1,0.9-2.1,2.1v4.2
									c0,3.4,2.8,6.2,6.2,6.2l0,0c2.1,0,3.9-1,5-2.5c0.4,0.1,0.8,0.2,1.2,0.2c2.7,0,4.7-2.7,3.5-5.6
									C367-268.1,365.6-268.9,364.1-268.9z M364.1-262.3c-0.2,0-0.4,0-0.6-0.1c0.4-0.8,0.6-1.7,0.6-2.6v-2.7c0,0,0,0,0,0
									c1.5,0,2.7,1.2,2.7,2.7C366.8-263.6,365.6-262.3,364.1-262.3z"/>
								<path class="st42" d="M364.1-268.9L364.1-268.9l0-0.3c0-1.1-0.9-2.1-2.1-2.1h-2.9c0.1,0.2,0.2,0.5,0.3,0.7
									c0.9,2.7,0.9,5.7-0.1,8.3c-0.4,1.2-1.1,2.3-1.9,3.4c0.1,0,0.3,0,0.4,0c2.1,0,3.9-1,5-2.5c0.4,0.1,0.8,0.2,1.2,0.2
									c2.7,0,4.7-2.7,3.5-5.6C367-268.1,365.6-268.9,364.1-268.9z M364.1-262.3c-0.2,0-0.4,0-0.6-0.1c0.4-0.8,0.6-1.7,0.6-2.6
									v-2.7c0,0,0,0,0,0c1.5,0,2.7,1.2,2.7,2.7C366.8-263.6,365.6-262.3,364.1-262.3z"/>
							</g>
						</g>
						<g>
							<path class="st64" d="M400.9-258.1c0,0.7-4.3,1.4-9.7,1.4c-5.3,0-9.7-0.6-9.7-1.4s4.3-1.4,9.7-1.4
								C396.5-259.4,400.9-258.8,400.9-258.1z"/>
							<g>
								<g>
									<g>
										<path class="st37" d="M391.1-289.4c0,0.3,0.3,0.5,0.5,0.3c3.6-3.2,20.9-19.1,12.3-23.7
											C395.3-317.4,391.8-294.2,391.1-289.4z"/>
										<path class="st38" d="M404-312.8c-2.3-1.2-4.2-0.5-5.9,1.4c1.2,6.2,0.4,12.8-2.3,18.5C401.8-298.9,410.6-309.2,404-312.8z
											"/>
										<path class="st39" d="M392.6-297.5l1.5,3.1l4.7-8.8l-2.3-5.6c0-0.1,0.1-0.2,0.1-0.3l2.3,5.6l5-9.3c0,0,0.1,0,0.1,0
											c0,0,0.1,0,0.1,0.1l-2.9,5.5l5.2-0.8c0,0.1,0,0.2,0,0.2L401-307l-4.7,8.8l5.3-1.1c-0.1,0.1-0.1,0.2-0.2,0.3l-5.2,1.1
											l-4.8,8.9c-0.1,0-0.1-0.1-0.2-0.1l2.7-5.1l-1.4-3C392.5-297.3,392.6-297.4,392.6-297.5z"/>
										<g>
											<path class="st40" d="M401.4-299.1c0.1-0.1,0.1-0.2,0.2-0.2l-3.8,0.8c0,0.1,0,0.2-0.1,0.2L401.4-299.1
												C401.3-299,401.4-299.1,401.4-299.1z"/>
											<path class="st40" d="M398.9-303.5l-0.2-0.6c0,0.2,0,0.3,0,0.5l0.1,0.3l-0.2,0.4c0,0.2,0,0.4-0.1,0.6l2.5-4.7l5.2-0.9
												c0-0.1,0-0.2,0-0.2l-5.2,0.8l2.9-5.5c0,0-0.1,0-0.1-0.1c0,0-0.1,0-0.1,0L398.9-303.5z"/>
										</g>
									</g>
									<g>
										<path class="st39" d="M391.5-286.7c-0.1,0.4-0.5,0.4-0.7,0.1c-2.7-4.7-15.4-27.5-4.7-29.4
											C396.8-317.8,392.5-292,391.5-286.7z"/>
										<path class="st40" d="M386.1-315.9c-1.5,0.3-2.5,0.9-3.2,1.9c0.3,0.2,0.6,0.4,0.9,0.6c1.3,0.9,2.3,2.2,3.2,3.5
											c3.2,4.6,5.1,10,5.6,15.6C393.7-303.8,394-317.3,386.1-315.9z"/>
										<path class="st37" d="M392.8-295.8l-2.6,2.7l-1.9-10.9l4.4-5.2c0-0.1,0-0.2-0.1-0.3l-4.4,5.2l-2-11.6c0,0-0.1,0-0.1,0
											c0,0-0.1,0-0.1,0l1.2,6.9l-5.2-2.7c0,0.1,0,0.2,0,0.3l5.2,2.7l1.9,10.9l-5.2-3c0,0.1,0.1,0.2,0.1,0.4l5.1,3l1.9,11.1
											c0.1,0,0.2,0,0.2-0.1l-1.1-6.3l2.5-2.6C392.8-295.6,392.8-295.7,392.8-295.8z"/>
										<g>
											<path class="st38" d="M386-315.9l1,5.9c0,0,0,0,0,0c0.1,0.2,0.2,0.3,0.3,0.5l-1.1-6.4c0,0-0.1,0-0.1,0c0,0,0,0,0,0
												C386.1-315.9,386-315.9,386-315.9z"/>
											<path class="st38" d="M392.6-295.2l0.2-0.2c0,0,0,0,0,0c0-0.1,0-0.3,0-0.4l-0.3,0.3C392.6-295.4,392.6-295.3,392.6-295.2
												z"/>
											<path class="st38" d="M389.5-305.8c0,0.1,0.1,0.2,0.1,0.2l3.1-3.6c0-0.1,0-0.2,0-0.3c0,0,0,0,0,0L389.5-305.8z"/>
										</g>
									</g>
								</g>
								<g>
									<path class="st51" d="M395.6-258.2h-9.2c-2.3,0-4.2-2-3.9-4.4l2.8-27.7c0.1-0.9,0.8-1.5,1.7-1.5h8.2c0.9,0,1.6,0.7,1.7,1.5
										l2.8,27.7C399.8-260.2,397.9-258.2,395.6-258.2z"/>
									<path class="st67" d="M395.1-291.7h-5.4c2.4,5.6,3.5,11.7,3,17.8c-0.4,5.5-2.2,11-5,15.8h7.9c2.3,0,4.2-2,3.9-4.4
										l-2.8-27.7C396.7-291,395.9-291.7,395.1-291.7z"/>
								</g>
							</g>
						</g>
						<g>
							<path class="st64" d="M444.5-238.5c0,0.7-4.2,1.3-9.4,1.3c-5.2,0-9.4-0.6-9.4-1.3s4.2-1.3,9.4-1.3
								C440.2-239.9,444.5-239.3,444.5-238.5z"/>
							<g>
								<path class="st68" d="M424.7-250c-0.6,0-1.2,0.6-1.1,1.2c0.6,5.8,5.5,10.3,11.4,10.3c5.9,0,10.8-4.5,11.4-10.3
									c0.1-0.6-0.5-1.2-1.1-1.2H424.7z"/>
								<path class="st69" d="M446.4-248.8c0.1-0.6-0.5-1.2-1.1-1.2h-9.9c0.9,1.7,1.5,3.5,1.8,5.4c0.3,1.9,0.3,3.9-0.1,5.9
									C442.1-239.7,445.9-243.8,446.4-248.8z"/>
							</g>
						</g>
					</g>
				</g>
			</g>
		</g>
	</g>
	<rect x="356.7" y="-232.8" class="st70" width="151.4" height="33.7"/>
</g>
<g>
	<polygon points="369.7,-209.3 369.7,-209.3 369.7,-209.3 	"/>
</g>
<g>
	<g>
		<path class="st71" d="M291.2-346.2v109.5c0,3.4-2.8,6.2-6.2,6.2H117.6c-3.4,0-6.2-2.8-6.2-6.2v-109.5H291.2z"/>
		<path class="st72" d="M291.2-358.5v12.3H111.5v-12.3c0-3.4,2.8-6.2,6.2-6.2H285C288.4-364.7,291.2-361.9,291.2-358.5z"/>
	</g>
	<line class="st73" x1="276.6" y1="-358.8" x2="283.5" y2="-351.9"/>
	<line class="st73" x1="283.4" y1="-358.7" x2="276.8" y2="-352.1"/>
	<g>
		<path class="st74" d="M200-337.5L200-337.5L200-337.5L200-337.5C200-337.5,200-337.5,200-337.5z"/>
		<path class="st74" d="M202.6-337.5C202.7-337.5,202.7-337.5,202.6-337.5L202.6-337.5L202.6-337.5L202.6-337.5z"/>
		<path class="st75" d="M170.9-253.6c0.7-6.2,4.3-11.5,9.4-14.4c0.1-1.8,1.3-3.2,2.7-3.2c0.9,0,1.6,0.5,2.1,1.3
			c1.5-0.4,3.1-0.6,4.7-0.6h2.6v-7.6c-0.8-0.4-1.6-0.8-2.4-1.2c-0.1-0.2-0.3,0-0.3,0c-4.6-3.2-7.5-8.9-7.5-14.6v-9.2v-10.3
			c2.5,0,10.7-0.1,14.8-0.1c1.9,0,3.4-1.2,4.4-2.7c1.1,1.5,2.5,2.7,4.4,2.7h2.7c4.3,0,10.1,0,12.1,0.1v19.3v0.2
			c0,1.8-0.3,3.5-0.8,5.1c-0.1,0.3-0.2,0.7-0.4,1c-0.3,0.6-0.6,1.2-0.9,1.8c-0.3,0.6-0.7,1.2-1.1,1.7c-1.2,1.7-2.7,3.1-4.5,4.4v0
			c-1.4,0.9-2.9,1.7-4.5,2.3c-0.1,0-0.1,0-0.2,0.1v0c0.1,0,0.1,0,0.2-0.1v2.3h0c0,0,0,0.1,0,0.1c0,0.6-0.1,1.2-0.2,1.7v2.9h3
			c1.2,0,2.4,0.1,3.6,0.3c0.5-0.6,1.2-1,1.9-1c1.2,0,2.3,1,2.6,2.5c5.9,2.7,10.1,8.4,10.9,15.2c0.1,0.7,0.1,1.4,0.1,2.1v6.2
			c4.2-5.5,6.8-12.4,6.8-19.8c0-9.5-4.1-18.1-10.7-24l-0.6-3.6c-0.8,0.3-1.6,0.5-2.5,0.5c-0.1,0-0.1,0-1.1,0v-0.7v0l0.2-12.2
			l0.8,0.1c0,0,0,0,0.1,0c0.2,0,0.4,0,0.6,0.1v-10.2c0-6-2.4-11.5-6.2-15.5c-3.9-4-9.2-6.6-15.2-6.9l0,0.1c0,0,0,0-0.1,0v0l0,0
			c-0.2,0-0.4,0-0.7,0v0c0,0-0.1,0-0.1,0c-0.1,0-0.1,0-0.2,0c-0.1,0-0.2,0-0.4,0c-0.1,0-0.2,0-0.4,0c-0.1,0-0.1,0-0.2,0
			c0,0-0.1,0-0.1,0v0c-0.2,0-0.4,0-0.7,0l0,0v0c0,0,0,0-0.1,0l0-0.1c-6,0.3-11.3,2.8-15.2,6.9c-3.9,4-6.2,9.5-6.2,15.5v10.2
			c0.3,0,0.6-0.1,0.9-0.1c0,0,0,0,0.1,0l0.8-0.1v12.2h0l0,0v0.9l-0.6-0.2c-0.1,0-0.1,0-0.2,0c-1,0-1.9-0.2-2.8-0.6l-0.7,3.7
			c-6.5,5.9-10.7,14.5-10.7,24c0,6.6,2,12.8,5.4,18v-4.4C170.8-252.2,170.8-252.9,170.9-253.6z M182.9-321.2L182.9-321.2
			L182.9-321.2L182.9-321.2z"/>
		<path class="st76" d="M223.4-305l-0.8-0.1l-0.2,12.2v0v0.7c0.9,0,1,0,1.1,0c0.9,0,1.8-0.2,2.5-0.5c2.3-1,3.9-3.2,3.9-5.9
			c0-3.3-2.5-6-5.8-6.3C223.9-305,223.7-305.1,223.4-305C223.4-305.1,223.4-305,223.4-305z"/>
		<path class="st76" d="M179.6-292.3l0.6,0.2v-0.9l0,0h0v-12.2l-0.8,0.1c0,0,0,0-0.1,0c-0.3,0-0.6,0-0.9,0.1
			c-3.1,0.4-5.5,3.1-5.5,6.3c0,2.5,1.5,4.7,3.6,5.8c0.8,0.4,1.8,0.6,2.8,0.6C179.5-292.2,179.6-292.3,179.6-292.3z"/>
		<path class="st76" d="M176.2-242.7c0-3.6,1.6-6.9,4.1-9.1v-0.4v-15.3h0c0-0.1,0-0.2,0-0.4v-0.1c-5.1,3-8.7,8.3-9.4,14.4
			c-0.1,0.7-0.1,1.4-0.1,2.1v4.4v16.6h9.5v-3.1C177.8-235.9,176.2-239.1,176.2-242.7z"/>
		<path class="st76" d="M230.5-251.5c0-0.7,0-1.4-0.1-2.1c-0.7-6.7-5-12.4-10.9-15.2c0.1,0.3,0.1,0.6,0.1,0.9c0,0.1,0,0.3,0,0.4h0
			v14.6c3.3,2.2,5.4,5.9,5.4,10.2c0,4.2-2.1,8-5.4,10.1v2.1h10.9v-14.8V-251.5z"/>
		<path class="st76" d="M208.4-270.6v0.4c0,2.2-0.9,4.2-2.4,5.7c-1.5,1.4-3.4,2.3-5.6,2.3c-4.4,0-8-3.6-8-8v-0.4h-2.6
			c-1.6,0-3.2,0.2-4.7,0.6c0.4,0.6,0.6,1.3,0.6,2.1c0,0.1,0,0.3,0,0.4h0v8.5c0,1.6,0.7,3,1.8,4c0.9,0.8,2.2,1.3,3.5,1.3
			c0.2,0,0.4,0,0.6-0.1v0.1h16.6v-0.1c0.2,0,0.4,0.1,0.6,0.1c1.4,0,2.6-0.5,3.5-1.3c1.1-1,1.8-2.4,1.8-4v-8.5h0c0-0.1,0-0.2,0-0.4
			c0-0.9,0.3-1.8,0.8-2.4c-1.2-0.2-2.3-0.3-3.6-0.3H208.4z"/>
		<path class="st77" d="M200.4-262.2c2.2,0,4.2-0.9,5.6-2.3c1.5-1.5,2.4-3.5,2.4-5.7v-0.4v-2.9c0.1-0.6,0.2-1.1,0.2-1.7
			c0,0,0-0.1,0-0.1h0v-2.3c-0.1,0-0.1,0-0.2,0.1v0c-2.3,0.8-4.7,1.3-7.3,1.3c-3.1,0-5.9-0.6-8.5-1.8c-0.1,0-0.1-0.1-0.2-0.1v7.6v0.4
			C192.4-265.7,196-262.2,200.4-262.2z"/>
		<polygon class="st76" points="182.9,-321.2 182.9,-321.2 182.9,-321.2 		"/>
		<path class="st76" d="M207.4-292.1h0.1c0.6,0,1.1-0.3,1.5-0.7C208.6-292.4,208-292.1,207.4-292.1z"/>
		<path class="st76" d="M201.1-276.3c2.6,0,5.1-0.5,7.3-1.3c0.1,0,0.1,0,0.2-0.1c1.6-0.6,3.1-1.4,4.5-2.3v0c1.7-1.2,3.2-2.7,4.5-4.4
			c0.4-0.6,0.8-1.1,1.1-1.7c0.3-0.6,0.6-1.2,0.9-1.8c0.1-0.3,0.2-0.6,0.4-1c0.5-1.6,0.8-3.4,0.8-5.1v-0.2v-19.3c-2,0-7.8,0-12.1-0.1
			h-2.7c-1.9,0-3.4-1.2-4.4-2.7c-1,1.5-2.5,2.7-4.4,2.7c-4.2,0-12.3,0-14.8,0.1v10.3v9.2c0,5.7,2.8,11.4,7.5,14.6c0,0,0.2-0.2,0.3,0
			c0.8,0.5,1.5,0.9,2.4,1.2c0.1,0,0.1,0.1,0.2,0.1C195.2-276.9,198.1-276.3,201.1-276.3z M189.4-302.3v-3.7h0c0-1,0.9-1.9,1.9-1.9
			c1,0,1.9,0.8,1.9,1.9h0v3.7h0c0,1-0.9,1.8-1.9,1.8C190.3-300.5,189.4-301.3,189.4-302.3L189.4-302.3z M203.2-299L203.2-299
			C203.2-299,203.2-299,203.2-299L203.2-299z M208.9-306L208.9-306c0-1,0.9-1.9,1.9-1.9s1.9,0.8,1.9,1.9h0v3.7h0
			c0,1-0.9,1.8-1.9,1.8c-1,0-1.9-0.8-1.9-1.8h0V-306z M201.1-300.9c1,0,1.9,0.8,1.9,1.9h-3.7c0,0,0,0.1,0,0.1v-0.1h-0.2
			C199.2-300,200.1-300.9,201.1-300.9z M189.1-291.9c0,0.1,0.1,0.2,0.1,0.4C189.2-291.6,189.1-291.7,189.1-291.9z M190.2-289.3
			L190.2-289.3c-0.4-0.7-0.7-1.4-1-2.1c0-0.1-0.1-0.2-0.1-0.4c0,0,0,0,0,0c-0.1-0.3-0.1-0.5-0.1-0.8c0-1.8,1.4-3.2,3.2-3.2
			c0.1,0,0.2,0,0.3,0h0.6h0.1h16.1h0.1h0.3c0.1,0,0.2,0,0.3,0c1.8,0,3.2,1.4,3.2,3.2c0,0,0,0.1,0,0.1c0,0,0,0.1,0,0.1
			c0,0.5-0.2,1-0.5,1.5c0,0,0,0.1,0,0.1c-0.2,0.5-0.5,1.1-0.7,1.6h0c-2.1,3.9-6.2,6.5-10.9,6.5C196.4-282.8,192.4-285.4,190.2-289.3
			z"/>
		<path d="M191.3-300.5c1,0,1.9-0.8,1.9-1.8h0v-3.7h0c0-1-0.9-1.9-1.9-1.9c-1,0-1.9,0.8-1.9,1.9h0v3.7h0
			C189.4-301.3,190.3-300.5,191.3-300.5z"/>
		<path d="M210.9-300.5c1,0,1.9-0.8,1.9-1.8h0v-3.7h0c0-1-0.9-1.9-1.9-1.9s-1.9,0.8-1.9,1.9h0v3.7h0
			C209-301.3,209.8-300.5,210.9-300.5z"/>
		<path class="st77" d="M199.3-299h3.7c0-1-0.9-1.9-1.9-1.9s-1.9,0.8-1.9,1.9H199.3L199.3-299z"/>
		<path d="M199.3-298.9C199.3-299,199.3-299,199.3-298.9L199.3-298.9L199.3-298.9z"/>
		<path d="M203.2-299L203.2-299C203.2-299,203.2-299,203.2-299L203.2-299z"/>
		<path class="st78" d="M201.1-282.8c4.7,0,8.7-2.6,10.9-6.5h0h-21.7C192.4-285.4,196.4-282.8,201.1-282.8z"/>
		<path class="st79" d="M211.9-289.3c0.3-0.5,0.5-1,0.7-1.6c0,0,0-0.1,0-0.1c0.3-0.4,0.4-0.9,0.5-1.5c0,0,0-0.1,0-0.1
			c0,0,0-0.1,0-0.1c0-1.8-1.4-3.2-3.2-3.2c-0.1,0-0.2,0-0.3,0h-0.3c0,0.9,0.1,1.5,0.1,1.8c0,0,0,0.1,0,0.1c0,0.4-0.2,0.8-0.5,1.1
			c-0.3,0.4-0.9,0.7-1.5,0.7h-0.1H195h-0.1c-1,0-1.8-0.8-1.8-1.8c0,0,0-0.1,0-0.1c0-0.3,0-0.9,0.1-1.8h-0.6c-0.1,0-0.2,0-0.3,0
			c-1.8,0-3.2,1.4-3.2,3.2c0,0.3,0,0.5,0.1,0.8c0,0,0,0,0,0c0,0.1,0.1,0.2,0.1,0.4c0.3,0.8,0.6,1.5,0.9,2.1h0H211.9z"/>
		<path class="st80" d="M189.2-291.5c0-0.1-0.1-0.2-0.1-0.4"/>
		<path class="st71" d="M193.1-293.9c0,1,0.8,1.8,1.8,1.8h0.1h12.4c0.6,0,1.2-0.3,1.6-0.7c0.3-0.3,0.5-0.7,0.5-1.1c0,0,0-0.1,0-0.1
			c0-0.3,0-0.9-0.1-1.8h-0.1h-16.1h-0.1C193.1-295,193.1-294.3,193.1-293.9C193.1-294,193.1-294,193.1-293.9z"/>
		<path class="st81" d="M225-242.7c0-4.2-2.1-8-5.4-10.2v-14.6h0c0-0.1,0-0.2,0-0.4c0-0.3,0-0.6-0.1-0.9c-0.3-1.4-1.4-2.5-2.6-2.5
			c-0.7,0-1.4,0.4-1.9,1c-0.5,0.6-0.8,1.5-0.8,2.4c0,0.1,0,0.3,0,0.4h0v8.5c0,1.6-0.7,3-1.8,4c-0.9,0.8-2.2,1.3-3.5,1.3
			c-0.2,0-0.4,0-0.6-0.1v0.1h-16.6v-0.1c-0.2,0-0.4,0.1-0.6,0.1c-1.4,0-2.6-0.5-3.5-1.3c-1.1-1-1.8-2.4-1.8-4v-8.5h0
			c0-0.1,0-0.2,0-0.4c0-0.8-0.2-1.5-0.6-2.1c-0.5-0.8-1.2-1.3-2.1-1.3c-1.5,0-2.6,1.4-2.7,3.2v0.1c0,0.1,0,0.3,0,0.4h0v15.3v0.4
			c-2.5,2.2-4.1,5.5-4.1,9.1s1.6,6.9,4.1,9.1v3.1h5.9h25.5h1.1h6.8v-2.1C222.9-234.8,225-238.5,225-242.7z"/>
	</g>
	<g>
		<path class="st82" d="M167.8-307.7c0.3-0.6,0.6-1.3,1.1-1.8c1-1.1,2.3-1.2,3.7-1c0,5.6,0,11.2,0,16.8c-2,0.4-4-0.3-4.8-2.9
			C167.8-300.4,167.8-304.1,167.8-307.7z"/>
		<path class="st83" d="M180.1-316.7c-1.6,0-3.2,0-4.8,0c1.7-12.6,12.9-23.1,27.1-22.7c14.4,0.5,24.1,11.7,25.4,22.7
			c-1.6,0-3.1,0-4.7,0c-1.2-6-4.2-10.9-9.3-14.4c-4.1-2.8-8.7-4-13.6-3.7C190.5-334.1,182-327.1,180.1-316.7z"/>
		<path class="st82" d="M230.6-310.8c1,0.2,1.9,0.2,2.7,0.6c1.3,0.5,2,1.7,2,3.1c0,3.3,0,6.6,0,10c0,1.9-1.6,3.4-3.4,3.5
			c-0.4,0-0.8,0-1.3,0C230.6-299.3,230.6-304.9,230.6-310.8z"/>
		<path class="st83" d="M176.2-290.1c-0.4,0-0.8,0-1.2,0c-1.5-0.1-2.4-1-2.4-2.5c0-6.4,0-12.8,0-19.2c0-1.5,1-2.5,2.5-2.5
			c1.5,0,3,0,4.5,0c1.6,0,2.6,0.9,2.6,2.6c0,2.8,0,5.7,0,8.5c0,3.3,0,6.7,0,10c0,2.3-0.8,3.1-3.1,3.1c-0.1,0-0.3,0-0.4,0
			c0,0.1-0.1,0.1-0.1,0.1"/>
		<path class="st83" d="M230.6-302.1c0,3.1,0,6.2,0,9.3c0,1.8-1,2.8-2.8,2.8c-1.4,0-2.8,0-4.2,0c-1.7,0-2.6-1-2.6-2.6
			c0-6.3,0-12.6,0-18.9c0-1.7,1-2.7,2.7-2.7c1.4,0,2.8,0,4.2,0c1.8,0,2.7,1,2.7,2.8C230.6-308.4,230.6-305.3,230.6-302.1z"/>
	</g>
	<rect x="175.3" y="-316.7" class="st83" width="4.7" height="10.7"/>
	<rect x="223.1" y="-316.7" class="st83" width="5" height="10.7"/>
</g>
<path class="st72" d="M213.9-500.2h-96.4c-2.8,0-5-2.2-5-5v-40.5c0-2.8,2.2-5,5-5h96.4c2.8,0,5,2.2,5,5v40.5
	C218.9-502.4,216.7-500.2,213.9-500.2z"/>
<circle class="st71" cx="129.2" cy="-525.4" r="5.7"/>
<g>
	<path class="st71" d="M694.6-293.5h-127c-5.5,0-10-4.5-10-10V-541c0-5.5,4.5-10,10-10h127c5.5,0,10,4.5,10,10v237.5
		C704.6-298,700.1-293.5,694.6-293.5z"/>
	<circle class="st84" cx="586.9" cy="-504.2" r="17"/>
	<g>
		<line class="st85" x1="617.2" y1="-517.1" x2="651.2" y2="-517.1"/>
		<path class="st84" d="M651.2-515h-33.9c-1.1,0-2.1-0.9-2.1-2.1s0.9-2.1,2.1-2.1h33.9c1.1,0,2.1,0.9,2.1,2.1S652.3-515,651.2-515z"
			/>
	</g>
	<g>
		<line class="st85" x1="617.2" y1="-492.4" x2="676.9" y2="-492.4"/>
		<path class="st84" d="M676.9-490.4h-59.6c-1.1,0-2.1-0.9-2.1-2.1c0-1.1,0.9-2.1,2.1-2.1h59.6c1.1,0,2.1,0.9,2.1,2.1
			C678.9-491.3,678-490.4,676.9-490.4z"/>
	</g>
	<circle class="st84" cx="586.9" cy="-447.7" r="17"/>
	<g>
		<line class="st85" x1="617.2" y1="-460.6" x2="651.2" y2="-460.6"/>
		<path class="st84" d="M651.2-458.5h-33.9c-1.1,0-2.1-0.9-2.1-2.1c0-1.1,0.9-2.1,2.1-2.1h33.9c1.1,0,2.1,0.9,2.1,2.1
			C653.2-459.4,652.3-458.5,651.2-458.5z"/>
	</g>
	<g>
		<line class="st85" x1="617.2" y1="-447.2" x2="692.3" y2="-447.2"/>
		<path class="st84" d="M692.3-445.1h-75c-1.1,0-2.1-0.9-2.1-2.1c0-1.1,0.9-2.1,2.1-2.1h75c1.1,0,2.1,0.9,2.1,2.1
			C694.3-446.1,693.4-445.1,692.3-445.1z"/>
		<path class="st84" d="M692.3-502.1h-75c-1.1,0-2.1-0.9-2.1-2.1c0-1.1,0.9-2.1,2.1-2.1h75c1.1,0,2.1,0.9,2.1,2.1
			C694.3-503,693.4-502.1,692.3-502.1z"/>
	</g>
	<g>
		<line class="st85" x1="617.2" y1="-435.9" x2="676.9" y2="-435.9"/>
		<path class="st84" d="M676.9-433.8h-59.6c-1.1,0-2.1-0.9-2.1-2.1c0-1.1,0.9-2.1,2.1-2.1h59.6c1.1,0,2.1,0.9,2.1,2.1
			C678.9-434.7,678-433.8,676.9-433.8z"/>
	</g>
	<circle class="st84" cx="586.9" cy="-393.2" r="17"/>
	<g>
		<line class="st85" x1="617.2" y1="-406.1" x2="651.2" y2="-406.1"/>
		<path class="st84" d="M651.2-404h-33.9c-1.1,0-2.1-0.9-2.1-2.1c0-1.1,0.9-2.1,2.1-2.1h33.9c1.1,0,2.1,0.9,2.1,2.1
			C653.2-404.9,652.3-404,651.2-404z"/>
	</g>
	<g>
		<line class="st85" x1="617.2" y1="-392.7" x2="692.3" y2="-392.7"/>
		<path class="st84" d="M692.3-390.7h-75c-1.1,0-2.1-0.9-2.1-2.1c0-1.1,0.9-2.1,2.1-2.1h75c1.1,0,2.1,0.9,2.1,2.1
			C694.3-391.6,693.4-390.7,692.3-390.7z"/>
	</g>
	<g>
		<line class="st85" x1="617.2" y1="-381.4" x2="676.9" y2="-381.4"/>
		<path class="st84" d="M676.9-379.4h-59.6c-1.1,0-2.1-0.9-2.1-2.1c0-1.1,0.9-2.1,2.1-2.1h59.6c1.1,0,2.1,0.9,2.1,2.1
			C678.9-380.3,678-379.4,676.9-379.4z"/>
	</g>
	<circle class="st84" cx="586.9" cy="-337.7" r="17"/>
	<g>
		<line class="st85" x1="617.2" y1="-350.6" x2="651.2" y2="-350.6"/>
		<path class="st84" d="M651.2-348.5h-33.9c-1.1,0-2.1-0.9-2.1-2.1c0-1.1,0.9-2.1,2.1-2.1h33.9c1.1,0,2.1,0.9,2.1,2.1
			C653.2-349.4,652.3-348.5,651.2-348.5z"/>
	</g>
	<g>
		<line class="st85" x1="617.2" y1="-337.2" x2="692.3" y2="-337.2"/>
		<path class="st84" d="M692.3-335.2h-75c-1.1,0-2.1-0.9-2.1-2.1c0-1.1,0.9-2.1,2.1-2.1h75c1.1,0,2.1,0.9,2.1,2.1
			C694.3-336.1,693.4-335.2,692.3-335.2z"/>
	</g>
	<g>
		<line class="st85" x1="617.2" y1="-325.9" x2="676.9" y2="-325.9"/>
		<path class="st84" d="M676.9-323.9h-59.6c-1.1,0-2.1-0.9-2.1-2.1c0-1.1,0.9-2.1,2.1-2.1h59.6c1.1,0,2.1,0.9,2.1,2.1
			C678.9-324.8,678-323.9,676.9-323.9z"/>
	</g>
	<g>
		<line class="st85" x1="617.2" y1="-503.7" x2="676.9" y2="-503.7"/>
	</g>
</g>
<text transform="matrix(1 0 0 1 146.3146 -516.1816)" style="fill:#FCFCFC; font-family:'MyriadPro-Regular'; font-size:25.0063px;">LIVE</text>
<path class="st86" d="M385.4-206.7c-0.6-37.6-6.1-66.2,3.8-85.9c6.1-12.1,13.5-20.9,21.6-26.5c7.1-4.9,14.7-6.2,22.3-6.1
	c7.5,0.1,15.1,1.7,22.1,6.6c7.9,5.6,15.3,14.2,21.3,26.1c10.2,19.9,4.4,85.9,4.4,85.9"/>
<path class="st86" d="M408.7-316.3c-0.3-0.2-0.4-0.4-0.5-0.6l9.3-31.7h32.1c0,0,6.6,23.9,8.7,32.2c-0.2,0.1-0.3,0.3-0.4,0.4"/>
<path class="st87" d="M376.8-391.3c-1-0.2-2.1-1.3-3-1.9c-1.9-1.1-3.8-2.2-5.7-3.1c-2.8-1.3-6.6-2.3-9.8-1.5c-4,0.9-4.9,6.4-5.5,9.8
	c-0.8,5.4-2,11.3-0.8,16.7c0.8,3.6,1.9,7.5,6.1,8.2c4.4,0.8,9.3-2.7,12.7-4.9c2.1-1.3,5.2-2.9,6.1-5.4c0.5-1.5,0.4-3.2,0.6-4.8
	c0.3-2,0.4-4,0.3-6.1C377.8-386.8,377.5-389.8,376.8-391.3z"/>
<path class="st87" d="M492.1-391.3c1-0.2,2.1-1.3,3-1.9c1.9-1.1,3.8-2.2,5.7-3.1c2.8-1.3,6.6-2.3,9.8-1.5c4,0.9,4.9,6.4,5.5,9.8
	c0.8,5.4,2,11.3,0.8,16.7c-0.8,3.6-1.9,7.5-6.1,8.2c-4.4,0.8-9.3-2.7-12.7-4.9c-2.1-1.3-5.2-2.9-6.1-5.4c-0.5-1.5-0.4-3.2-0.6-4.8
	c-0.3-2-0.4-4-0.3-6.1C491-386.8,491.4-389.8,492.1-391.3z"/>
<path class="st88" d="M373.2-383.8c-1.9-1.9-4.8-2.9-7.2-4.1c-1.3-0.7-4-2.8-5.5-1.9c1.9,2.4,5.6,3.2,8.2,4.6
	c1.4,0.8,2.9,1.6,4.4,2.2C373.3-383.2,373.4-383.3,373.2-383.8z"/>
<path class="st88" d="M495.7-383.8c1.9-1.9,4.8-2.9,7.2-4.1c1.3-0.7,4-2.8,5.5-1.9c-1.9,2.4-5.6,3.2-8.2,4.6
	c-1.4,0.8-2.9,1.6-4.4,2.2C495.5-383.2,495.4-383.3,495.7-383.8z"/>
<path class="st88" d="M372.5-378.6c-0.5-0.6-1.6-0.6-2.3-0.8c-1.8-0.4-3.4-1.1-5.1-1.4c-1.4-0.3-5.2-1.1-6.3,0.1
	c1.3,1.3,3.9,1.3,5.6,1.7c1.8,0.3,3.5,0.8,5.3,1C370.2-378,374.2-376.7,372.5-378.6z"/>
<path class="st88" d="M496.3-378.6c0.5-0.6,1.6-0.6,2.3-0.8c1.8-0.4,3.4-1.1,5.1-1.4c1.4-0.3,5.2-1.1,6.3,0.1
	c-1.3,1.3-3.9,1.3-5.6,1.7c-1.8,0.3-3.5,0.8-5.3,1C498.7-378,494.7-376.7,496.3-378.6z"/>
<path class="st88" d="M372-374.6c-0.9-1-5.4,0.6-6.6,1c-0.8,0.3-5.9,2-5,3.3c0.8,1,7.7-2.2,8.7-2.5c1.3-0.5,2.6-1.2,4-1.7
	C372.8-374.8,372.2-374.8,372-374.6z"/>
<path class="st88" d="M496.8-374.6c0.9-1,5.4,0.6,6.6,1c0.8,0.3,5.9,2,5,3.3c-0.8,1-7.7-2.2-8.7-2.5c-1.3-0.5-2.6-1.2-4-1.7
	C496-374.8,496.7-374.8,496.8-374.6z"/>
<path class="st89" d="M434.2-467.7c0,0-53.9-2.1-59.5,89.9c-1,16.3,11.1,30.8,27.8,33.1c8.3,1.1,18.8,1.9,31.7,1.9
	s23.4-0.8,31.7-1.9c16.7-2.3,28.8-16.7,27.8-33.1c-5.5-92-59.5-89.9-59.5-89.9"/>
<path class="st86" d="M434.4-455.4c0,0-41.9-1.9-46.2,81.3c-0.8,14.8,8.7,27.8,21.6,29.9c6.5,1,14.6,1.8,24.6,1.8
	c10,0,18.2-0.8,24.6-1.8c13-2,22.4-15.1,21.6-29.9c-4.3-83.3-46.2-81.3-46.2-81.3"/>
<path class="st90" d="M389.2-416.3c-1.3,0.2-2.4,3.4-2.8,4.2c-2.3,4.1-3.1,8.7-4.3,13c-1.6,6.1-2.3,12.8-2.4,19.3
	c-0.1,2.4,0,4.7,0.4,7.1c0.1,0.5,0,1.3,0.8,1.5c0.8-0.8,0.2-2.7,0.1-3.6c-0.2-2.3-0.3-4.5-0.3-6.7c-0.1-3.5,0.5-6.9,1-10.3
	c0.7-3.9,1.3-7.7,2.4-11.6c0.8-2.9,2.3-6.4,3.5-9.2c0.4-1,2.1-3.4,2-3.5C389.6-416.2,389.9-416.7,389.2-416.3z"/>
<path class="st90" d="M478.8-416.3c1.3,0.2,2.4,3.4,2.8,4.2c2.3,4.1,3.1,8.7,4.3,13c1.7,6.3,2.3,12.9,2.4,19.3
	c0.1,2.4,0,4.7-0.4,7.1c-0.1,0.5,0,1.3-0.8,1.5c-0.8-0.8-0.2-2.7-0.1-3.6c0.2-2.3,0.3-4.5,0.3-6.7c0.1-3.5-0.5-6.9-1-10.3
	c-0.7-3.9-1.3-7.7-2.4-11.6c-0.8-2.9-2.3-6.4-3.5-9.2c-0.4-1-2.1-3.4-2-3.5C478.5-416.2,478.2-416.7,478.8-416.3z"/>
<path d="M431.9-404.8c-0.1-0.2-0.3-0.3-0.4-0.4c-0.3-0.1-0.3,0.1-0.4,0.3c-0.2,0.5-0.1,1.2,0,1.8c0.1,0.5,0.2,2.9,1.1,2.9
	c0.5,0,0.3-1.2,0.3-1.4c-0.1-0.4-0.2-0.8-0.2-1.3c0-0.4,0-0.8-0.2-1.1C432.1-404.3,432-404.5,431.9-404.8z"/>
<path d="M436.9-404.8c0.1-0.2,0.3-0.3,0.4-0.4c0.3-0.1,0.3,0.1,0.4,0.3c0.2,0.5,0.1,1.2,0,1.8c-0.1,0.5-0.2,2.9-1.1,2.9
	c-0.5,0-0.3-1.2-0.3-1.4c0.1-0.4,0.2-0.8,0.2-1.3c0-0.4,0-0.8,0.2-1.1C436.8-404.3,436.9-404.5,436.9-404.8z"/>
<g>
	<circle class="st90" cx="460.7" cy="-410.7" r="7.8"/>
	<circle class="st71" cx="460.1" cy="-409.8" r="6.7"/>
	<circle cx="460.1" cy="-409.8" r="4"/>
</g>
<g>
	<circle class="st90" cx="408.2" cy="-410.7" r="7.8"/>
	<circle class="st71" cx="408.8" cy="-409.8" r="6.7"/>
	<circle cx="408.8" cy="-409.8" r="4"/>
</g>
<g>
	<path d="M416.4-423.9c-0.8-0.9-1.3-1.8-2.5-2.4c-1.6-0.8-3.4-0.9-5.2-0.8c-1.9,0.1-4.5,0.3-5.9,1.6c-1.1,1-0.1,1,0.8,0.8
		c2-0.3,3.8-0.6,5.8,0.1c1.3,0.4,2.6,0.9,3.9,1.4c0.7,0.3,1.4,0.6,2.1,0.3C416.3-423.1,416.7-423.9,416.4-423.9z"/>
</g>
<g>
	<path d="M452.4-423.9c0.8-0.9,1.3-1.8,2.5-2.4c1.6-0.8,3.4-0.9,5.2-0.8c1.9,0.1,4.5,0.3,5.9,1.6c1.1,1,0.1,1-0.8,0.8
		c-2-0.3-3.8-0.6-5.8,0.1c-1.3,0.4-2.6,0.9-3.9,1.4c-0.7,0.3-1.4,0.6-2.1,0.3C452.6-423.1,452.2-423.9,452.4-423.9z"/>
</g>
<path class="st91" d="M434.3-393.1c-2.3-0.1-4.5,0.6-6.3,1.5c-5.2,2.6-8.9,8.5-7.3,14.4c0.8,2.7,1.9,4.7,4.4,6.2
	c2.4,1.5,4.7,1.5,7.4,1.5c0.6,0,1.3,0,1.9,0c0.6,0,1.3,0,1.9,0c2.6-0.2,5-0.2,7.4-1.5c2.4-1.5,3.6-3.4,4.4-6.2
	c1.6-5.9-2.1-11.8-7.3-14.4C438.9-392.4,436.5-393.1,434.3-393.1z"/>
<path class="st92" d="M421-380.1c-0.2,2.3,2.5,6.3,4.6,3.5c0.3-0.4,0.4-0.9,0.4-1.4c0-1.1-0.1-2.3-0.3-3.4c-0.1-0.3-0.1-0.8-0.3-0.9
	c-0.4-0.3-1.3-0.1-1.7,0c-0.9,0.2-1.7,0.3-2.4,1C421.2-380.8,420.7-380.1,421-380.1z"/>
<path class="st92" d="M447.5-380.1c0.2,2.3-2.5,6.3-4.6,3.5c-0.3-0.4-0.4-0.9-0.4-1.4c0-1.1,0.1-2.3,0.3-3.4
	c0.1-0.3,0.1-0.8,0.3-0.9c0.4-0.3,1.3-0.1,1.7,0c0.9,0.2,1.7,0.3,2.4,1C447.3-380.8,447.8-380.1,447.5-380.1z"/>
<path class="st93" d="M434.3-370.6c-0.9,0-1.9-0.3-2.6-0.5c-2-0.5-3.7-1.7-5.5-2.9c-1.5-1.1-2.8-2.9-4.5-3.5c-1.2-0.5-2.5-0.5-2.7,1
	c-0.2,1.6,0.8,3,1.5,4.4c0.9,1.5,2.5,2.9,4.1,3.7c2.9,1.7,6.3,2.6,9.6,2.7c3.4-0.2,6.6-1,9.6-2.7c1.5-0.9,3.2-2.2,4.1-3.7
	c0.8-1.3,1.8-2.7,1.5-4.4c-0.2-1.5-1.5-1.5-2.7-1c-1.8,0.7-3,2.4-4.5,3.5c-1.7,1.3-3.4,2.4-5.5,2.9
	C436.1-370.8,435.2-370.6,434.3-370.6z"/>
<path class="st92" d="M423.2-383.8c-0.2,2.3,2.5,6.3,4.6,3.5c0.3-0.4,0.4-0.9,0.4-1.4c0-1.1-0.1-2.3-0.3-3.4
	c-0.1-0.3-0.1-0.8-0.3-0.9c-0.4-0.3-1.3-0.1-1.7,0c-0.9,0.2-1.7,0.3-2.4,1C423.4-384.4,422.9-383.7,423.2-383.8z"/>
<path class="st92" d="M445.4-383.8c0.2,2.3-2.5,6.3-4.6,3.5c-0.3-0.4-0.4-0.9-0.4-1.4c0-1.1,0.1-2.3,0.3-3.4
	c0.1-0.3,0.1-0.8,0.3-0.9c0.4-0.3,1.3-0.1,1.7,0c0.9,0.2,1.7,0.3,2.4,1C445.1-384.4,445.7-383.7,445.4-383.8z"/>
<path class="st92" d="M425.6-386.9c-0.2,2.3,2.5,6.3,4.6,3.5c0.3-0.4,0.4-0.9,0.4-1.4c0-1.1-0.1-2.3-0.3-3.4
	c-0.1-0.3-0.1-0.8-0.3-0.9c-0.4-0.3-1.3-0.1-1.7,0c-0.9,0.2-1.7,0.3-2.4,1C425.8-387.6,425.2-386.8,425.6-386.9z"/>
<path class="st92" d="M442.9-386.9c0.2,2.3-2.5,6.3-4.6,3.5c-0.3-0.4-0.4-0.9-0.4-1.4c0-1.1,0.1-2.3,0.3-3.4
	c0.1-0.3,0.1-0.8,0.3-0.9c0.4-0.3,1.3-0.1,1.7,0c0.9,0.2,1.7,0.3,2.4,1C442.8-387.6,443.3-386.8,442.9-386.9z"/>
<path class="st92" d="M429-389.7c-0.2,2.3,2.5,6.3,4.6,3.5c0.3-0.4,0.4-0.9,0.4-1.4c0-1.1-0.1-2.3-0.3-3.4c-0.1-0.3-0.1-0.8-0.3-0.9
	c-0.4-0.3-1.3-0.1-1.7,0c-0.9,0.2-1.7,0.3-2.4,1C429.3-390.3,428.8-389.6,429-389.7z"/>
<path class="st92" d="M439.5-389.7c0.2,2.3-2.5,6.3-4.6,3.5c-0.3-0.4-0.4-0.9-0.4-1.4c0-1.1,0.1-2.3,0.3-3.4
	c0.1-0.3,0.1-0.8,0.3-0.9c0.4-0.3,1.3-0.1,1.7,0c0.9,0.2,1.7,0.3,2.4,1C439.2-390.3,439.8-389.6,439.5-389.7z"/>
<path class="st94" d="M434.3-395.5c-2.7,0-5.5,0.7-7.7,2.2c-3.9,2.5-6.6,6.6-8.3,10.9c-0.8,1.9-1.5,4.5-0.5,6.4
	c0.5,0.9,1.5,1.7,2.5,0.8c1.6-1.5,2.6-3.8,3.7-5.7c1.2-2.2,2.3-4.4,4-6.1c1.4-1.5,2.7-2.6,4.7-3c0.5-0.1,1.1-0.2,1.6-0.2
	c0.5,0,1.1,0.1,1.6,0.2c2,0.4,3.4,1.5,4.7,3c1.7,1.8,2.8,4,4,6.1c1,1.9,2.1,4.2,3.7,5.7c0.8,0.8,1.9,0.1,2.4-0.8
	c1.1-1.9,0.3-4.5-0.5-6.4c-1.6-4.4-4.5-8.3-8.3-10.9C439.8-394.7,436.9-395.5,434.3-395.5z"/>
<path class="st95" d="M411.9-323"/>
<path class="st86" d="M408.2-316.9c0,0-74.6-6.1-60.9,110.3h32.4c0,0-3.9-48.6,6-60.9"/>
<path class="st86" d="M457-316.9c0,0,74.6-6.1,60.9,110.3h-32.4c0,0,3.9-48.6-6-60.9"/>
</svg>
